<svg width="431" height="41" viewBox="0 0 431 41" fill="none" xmlns="http://www.w3.org/2000/svg">
<path d="M128.382 5H126.973C126.89 4.5947 126.744 4.23864 126.536 3.93182C126.331 3.625 126.081 3.36742 125.786 3.15909C125.494 2.94697 125.17 2.78788 124.814 2.68182C124.458 2.57576 124.087 2.52273 123.7 2.52273C122.996 2.52273 122.357 2.70076 121.786 3.05682C121.217 3.41288 120.765 3.9375 120.428 4.63068C120.094 5.32386 119.928 6.17424 119.928 7.18182C119.928 8.18939 120.094 9.03977 120.428 9.73295C120.765 10.4261 121.217 10.9508 121.786 11.3068C122.357 11.6629 122.996 11.8409 123.7 11.8409C124.087 11.8409 124.458 11.7879 124.814 11.6818C125.17 11.5758 125.494 11.4186 125.786 11.2102C126.081 10.9981 126.331 10.7386 126.536 10.4318C126.744 10.1212 126.89 9.76515 126.973 9.36364H128.382C128.276 9.95833 128.083 10.4905 127.803 10.9602C127.522 11.4299 127.174 11.8295 126.757 12.1591C126.34 12.4848 125.873 12.733 125.354 12.9034C124.839 13.0739 124.287 13.1591 123.7 13.1591C122.708 13.1591 121.825 12.9167 121.053 12.4318C120.28 11.947 119.672 11.2576 119.229 10.3636C118.786 9.4697 118.564 8.40909 118.564 7.18182C118.564 5.95455 118.786 4.89394 119.229 4C119.672 3.10606 120.28 2.41667 121.053 1.93182C121.825 1.44697 122.708 1.20455 123.7 1.20455C124.287 1.20455 124.839 1.28977 125.354 1.46023C125.873 1.63068 126.34 1.88068 126.757 2.21023C127.174 2.53598 127.522 2.93371 127.803 3.40341C128.083 3.86932 128.276 4.40151 128.382 5ZM134.136 13.1818C133.295 13.1818 132.57 12.9962 131.96 12.625C131.354 12.25 130.886 11.7273 130.557 11.0568C130.231 10.3826 130.068 9.59848 130.068 8.70455C130.068 7.81061 130.231 7.02273 130.557 6.34091C130.886 5.6553 131.345 5.12121 131.932 4.73864C132.523 4.35227 133.212 4.15909 134 4.15909C134.455 4.15909 134.903 4.23485 135.347 4.38636C135.79 4.53788 136.193 4.78409 136.557 5.125C136.92 5.46212 137.21 5.90909 137.426 6.46591C137.642 7.02273 137.75 7.70833 137.75 8.52273V9.09091H131.023V7.93182H136.386C136.386 7.43939 136.288 7 136.091 6.61364C135.898 6.22727 135.621 5.92235 135.261 5.69886C134.905 5.47538 134.485 5.36364 134 5.36364C133.466 5.36364 133.004 5.49621 132.614 5.76136C132.227 6.02273 131.93 6.36364 131.722 6.78409C131.513 7.20455 131.409 7.6553 131.409 8.13636V8.90909C131.409 9.56818 131.523 10.1269 131.75 10.5852C131.981 11.0398 132.301 11.3864 132.71 11.625C133.119 11.8598 133.595 11.9773 134.136 11.9773C134.489 11.9773 134.807 11.928 135.091 11.8295C135.379 11.7273 135.627 11.5758 135.835 11.375C136.044 11.1705 136.205 10.9167 136.318 10.6136L137.614 10.9773C137.477 11.4167 137.248 11.803 136.926 12.1364C136.604 12.4659 136.206 12.7235 135.733 12.9091C135.259 13.0909 134.727 13.1818 134.136 13.1818ZM139.79 13V4.27273H141.085V5.59091H141.176C141.335 5.15909 141.623 4.80871 142.04 4.53977C142.456 4.27083 142.926 4.13636 143.449 4.13636C143.547 4.13636 143.67 4.13826 143.818 4.14205C143.966 4.14583 144.078 4.15152 144.153 4.15909V5.52273C144.108 5.51136 144.004 5.49432 143.841 5.47159C143.682 5.44508 143.513 5.43182 143.335 5.43182C142.911 5.43182 142.532 5.52083 142.199 5.69886C141.869 5.87311 141.608 6.11553 141.415 6.42614C141.225 6.73295 141.131 7.08333 141.131 7.47727V13H139.79ZM150.085 4.27273V5.40909H145.562V4.27273H150.085ZM146.881 2.18182H148.222V10.5C148.222 10.8788 148.277 11.1629 148.386 11.3523C148.5 11.5379 148.644 11.6629 148.818 11.7273C148.996 11.7879 149.184 11.8182 149.381 11.8182C149.528 11.8182 149.65 11.8106 149.744 11.7955C149.839 11.7765 149.915 11.7614 149.972 11.75L150.244 12.9545C150.153 12.9886 150.027 13.0227 149.864 13.0568C149.701 13.0947 149.494 13.1136 149.244 13.1136C148.866 13.1136 148.494 13.0322 148.131 12.8693C147.771 12.7064 147.472 12.4583 147.233 12.125C146.998 11.7917 146.881 11.3712 146.881 10.8636V2.18182ZM152.102 13V4.27273H153.443V13H152.102ZM152.784 2.81818C152.523 2.81818 152.297 2.72917 152.108 2.55114C151.922 2.37311 151.83 2.15909 151.83 1.90909C151.83 1.65909 151.922 1.44508 152.108 1.26705C152.297 1.08902 152.523 1 152.784 1C153.045 1 153.269 1.08902 153.455 1.26705C153.644 1.44508 153.739 1.65909 153.739 1.90909C153.739 2.15909 153.644 2.37311 153.455 2.55114C153.269 2.72917 153.045 2.81818 152.784 2.81818ZM159.786 4.27273V5.40909H155.081V4.27273H159.786ZM156.49 13V3.06818C156.49 2.56818 156.607 2.15151 156.842 1.81818C157.077 1.48485 157.382 1.23485 157.757 1.06818C158.132 0.901514 158.528 0.818181 158.945 0.818181C159.274 0.818181 159.543 0.844696 159.751 0.897727C159.96 0.950757 160.115 0.999999 160.217 1.04545L159.831 2.20455C159.763 2.18182 159.668 2.15341 159.547 2.11932C159.429 2.08523 159.274 2.06818 159.081 2.06818C158.638 2.06818 158.318 2.17992 158.121 2.40341C157.928 2.62689 157.831 2.95455 157.831 3.38636V13H156.49ZM161.665 13V4.27273H163.006V13H161.665ZM162.347 2.81818C162.085 2.81818 161.86 2.72917 161.67 2.55114C161.485 2.37311 161.392 2.15909 161.392 1.90909C161.392 1.65909 161.485 1.44508 161.67 1.26705C161.86 1.08902 162.085 1 162.347 1C162.608 1 162.831 1.08902 163.017 1.26705C163.206 1.44508 163.301 1.65909 163.301 1.90909C163.301 2.15909 163.206 2.37311 163.017 2.55114C162.831 2.72917 162.608 2.81818 162.347 2.81818ZM169.121 13.1818C168.28 13.1818 167.554 12.9962 166.945 12.625C166.339 12.25 165.871 11.7273 165.541 11.0568C165.215 10.3826 165.053 9.59848 165.053 8.70455C165.053 7.81061 165.215 7.02273 165.541 6.34091C165.871 5.6553 166.329 5.12121 166.916 4.73864C167.507 4.35227 168.196 4.15909 168.984 4.15909C169.439 4.15909 169.888 4.23485 170.331 4.38636C170.774 4.53788 171.178 4.78409 171.541 5.125C171.905 5.46212 172.195 5.90909 172.411 6.46591C172.626 7.02273 172.734 7.70833 172.734 8.52273V9.09091H166.007V7.93182H171.371C171.371 7.43939 171.272 7 171.075 6.61364C170.882 6.22727 170.606 5.92235 170.246 5.69886C169.89 5.47538 169.469 5.36364 168.984 5.36364C168.45 5.36364 167.988 5.49621 167.598 5.76136C167.212 6.02273 166.914 6.36364 166.706 6.78409C166.498 7.20455 166.393 7.6553 166.393 8.13636V8.90909C166.393 9.56818 166.507 10.1269 166.734 10.5852C166.965 11.0398 167.286 11.3864 167.695 11.625C168.104 11.8598 168.579 11.9773 169.121 11.9773C169.473 11.9773 169.791 11.928 170.075 11.8295C170.363 11.7273 170.611 11.5758 170.82 11.375C171.028 11.1705 171.189 10.9167 171.303 10.6136L172.598 10.9773C172.462 11.4167 172.232 11.803 171.911 12.1364C171.589 12.4659 171.191 12.7235 170.717 12.9091C170.244 13.0909 169.712 13.1818 169.121 13.1818ZM178.07 13.1818C177.342 13.1818 176.7 12.9981 176.143 12.6307C175.587 12.2595 175.151 11.7367 174.837 11.0625C174.522 10.3845 174.365 9.58333 174.365 8.65909C174.365 7.74242 174.522 6.94697 174.837 6.27273C175.151 5.59848 175.589 5.07765 176.149 4.71023C176.71 4.3428 177.357 4.15909 178.092 4.15909C178.661 4.15909 179.109 4.25379 179.439 4.44318C179.772 4.62879 180.026 4.84091 180.2 5.07955C180.378 5.31439 180.517 5.50758 180.615 5.65909H180.729V1.36364H182.07V13H180.774V11.6591H180.615C180.517 11.8182 180.376 12.0189 180.195 12.2614C180.013 12.5 179.753 12.714 179.416 12.9034C179.079 13.089 178.63 13.1818 178.07 13.1818ZM178.251 11.9773C178.789 11.9773 179.244 11.8371 179.615 11.5568C179.986 11.2727 180.268 10.8807 180.462 10.3807C180.655 9.87689 180.751 9.29545 180.751 8.63636C180.751 7.98485 180.657 7.41477 180.467 6.92614C180.278 6.43371 179.998 6.05114 179.626 5.77841C179.255 5.50189 178.797 5.36364 178.251 5.36364C177.683 5.36364 177.21 5.50947 176.831 5.80114C176.456 6.08902 176.174 6.48106 175.984 6.97727C175.799 7.4697 175.706 8.02273 175.706 8.63636C175.706 9.25758 175.801 9.82197 175.99 10.3295C176.183 10.8333 176.467 11.2348 176.842 11.5341C177.221 11.8295 177.691 11.9773 178.251 11.9773ZM195.757 4.27273C195.689 3.69697 195.412 3.25 194.928 2.93182C194.443 2.61364 193.848 2.45455 193.143 2.45455C192.628 2.45455 192.178 2.53788 191.791 2.70455C191.409 2.87121 191.109 3.10038 190.893 3.39205C190.681 3.68371 190.575 4.01515 190.575 4.38636C190.575 4.69697 190.649 4.96401 190.797 5.1875C190.948 5.4072 191.142 5.59091 191.376 5.73864C191.611 5.88258 191.857 6.00189 192.115 6.09659C192.373 6.1875 192.609 6.26136 192.825 6.31818L194.007 6.63636C194.31 6.71591 194.647 6.82576 195.018 6.96591C195.393 7.10606 195.751 7.29735 196.092 7.53977C196.437 7.77841 196.721 8.08523 196.945 8.46023C197.168 8.83523 197.28 9.29545 197.28 9.84091C197.28 10.4697 197.115 11.0379 196.786 11.5455C196.46 12.053 195.982 12.4564 195.354 12.7557C194.729 13.0549 193.969 13.2045 193.075 13.2045C192.242 13.2045 191.52 13.0701 190.911 12.8011C190.304 12.5322 189.827 12.1572 189.479 11.6761C189.134 11.1951 188.939 10.6364 188.893 10H190.348C190.386 10.4394 190.534 10.803 190.791 11.0909C191.053 11.375 191.382 11.5871 191.78 11.7273C192.181 11.8636 192.613 11.9318 193.075 11.9318C193.613 11.9318 194.096 11.8447 194.524 11.6705C194.952 11.4924 195.291 11.2462 195.541 10.9318C195.791 10.6136 195.916 10.2424 195.916 9.81818C195.916 9.43182 195.808 9.11742 195.592 8.875C195.376 8.63258 195.092 8.43561 194.74 8.28409C194.388 8.13258 194.007 8 193.598 7.88636L192.166 7.47727C191.257 7.21591 190.537 6.8428 190.007 6.35795C189.477 5.87311 189.212 5.23864 189.212 4.45455C189.212 3.80303 189.388 3.23485 189.74 2.75C190.096 2.26136 190.573 1.88258 191.172 1.61364C191.774 1.34091 192.446 1.20455 193.189 1.20455C193.939 1.20455 194.606 1.33901 195.189 1.60795C195.772 1.87311 196.234 2.23674 196.575 2.69886C196.92 3.16098 197.102 3.68561 197.121 4.27273H195.757ZM202.96 13.1818C202.172 13.1818 201.481 12.9943 200.886 12.6193C200.295 12.2443 199.833 11.7197 199.5 11.0455C199.17 10.3712 199.006 9.58333 199.006 8.68182C199.006 7.77273 199.17 6.97917 199.5 6.30114C199.833 5.62311 200.295 5.09659 200.886 4.72159C201.481 4.34659 202.172 4.15909 202.96 4.15909C203.748 4.15909 204.438 4.34659 205.028 4.72159C205.623 5.09659 206.085 5.62311 206.415 6.30114C206.748 6.97917 206.915 7.77273 206.915 8.68182C206.915 9.58333 206.748 10.3712 206.415 11.0455C206.085 11.7197 205.623 12.2443 205.028 12.6193C204.438 12.9943 203.748 13.1818 202.96 13.1818ZM202.96 11.9773C203.559 11.9773 204.051 11.8239 204.438 11.517C204.824 11.2102 205.11 10.8068 205.295 10.3068C205.481 9.80682 205.574 9.26515 205.574 8.68182C205.574 8.09848 205.481 7.55492 205.295 7.05114C205.11 6.54735 204.824 6.14015 204.438 5.82955C204.051 5.51894 203.559 5.36364 202.96 5.36364C202.362 5.36364 201.869 5.51894 201.483 5.82955C201.097 6.14015 200.811 6.54735 200.625 7.05114C200.439 7.55492 200.347 8.09848 200.347 8.68182C200.347 9.26515 200.439 9.80682 200.625 10.3068C200.811 10.8068 201.097 11.2102 201.483 11.517C201.869 11.8239 202.362 11.9773 202.96 11.9773ZM210.303 1.36364V13H208.962V1.36364H210.303ZM218.259 9.43182V4.27273H219.599V13H218.259V11.5227H218.168C217.963 11.9659 217.645 12.3428 217.213 12.6534C216.781 12.9602 216.236 13.1136 215.577 13.1136C215.031 13.1136 214.546 12.9943 214.122 12.7557C213.698 12.5133 213.365 12.1496 213.122 11.6648C212.88 11.1761 212.759 10.5606 212.759 9.81818V4.27273H214.099V9.72727C214.099 10.3636 214.277 10.8712 214.634 11.25C214.993 11.6288 215.452 11.8182 216.009 11.8182C216.342 11.8182 216.681 11.733 217.026 11.5625C217.374 11.392 217.666 11.1307 217.901 10.7784C218.139 10.4261 218.259 9.97727 218.259 9.43182ZM225.851 4.27273V5.40909H221.328V4.27273H225.851ZM222.646 2.18182H223.987V10.5C223.987 10.8788 224.042 11.1629 224.152 11.3523C224.266 11.5379 224.41 11.6629 224.584 11.7273C224.762 11.7879 224.949 11.8182 225.146 11.8182C225.294 11.8182 225.415 11.8106 225.51 11.7955C225.605 11.7765 225.68 11.7614 225.737 11.75L226.01 12.9545C225.919 12.9886 225.792 13.0227 225.629 13.0568C225.466 13.0947 225.26 13.1136 225.01 13.1136C224.631 13.1136 224.26 13.0322 223.896 12.8693C223.536 12.7064 223.237 12.4583 222.999 12.125C222.764 11.7917 222.646 11.3712 222.646 10.8636V2.18182ZM227.868 13V4.27273H229.209V13H227.868ZM228.55 2.81818C228.288 2.81818 228.063 2.72917 227.874 2.55114C227.688 2.37311 227.595 2.15909 227.595 1.90909C227.595 1.65909 227.688 1.44508 227.874 1.26705C228.063 1.08902 228.288 1 228.55 1C228.811 1 229.035 1.08902 229.22 1.26705C229.41 1.44508 229.504 1.65909 229.504 1.90909C229.504 2.15909 229.41 2.37311 229.22 2.55114C229.035 2.72917 228.811 2.81818 228.55 2.81818ZM235.21 13.1818C234.422 13.1818 233.731 12.9943 233.136 12.6193C232.545 12.2443 232.083 11.7197 231.75 11.0455C231.42 10.3712 231.256 9.58333 231.256 8.68182C231.256 7.77273 231.42 6.97917 231.75 6.30114C232.083 5.62311 232.545 5.09659 233.136 4.72159C233.731 4.34659 234.422 4.15909 235.21 4.15909C235.998 4.15909 236.688 4.34659 237.278 4.72159C237.873 5.09659 238.335 5.62311 238.665 6.30114C238.998 6.97917 239.165 7.77273 239.165 8.68182C239.165 9.58333 238.998 10.3712 238.665 11.0455C238.335 11.7197 237.873 12.2443 237.278 12.6193C236.688 12.9943 235.998 13.1818 235.21 13.1818ZM235.21 11.9773C235.809 11.9773 236.301 11.8239 236.688 11.517C237.074 11.2102 237.36 10.8068 237.545 10.3068C237.731 9.80682 237.824 9.26515 237.824 8.68182C237.824 8.09848 237.731 7.55492 237.545 7.05114C237.36 6.54735 237.074 6.14015 236.688 5.82955C236.301 5.51894 235.809 5.36364 235.21 5.36364C234.612 5.36364 234.119 5.51894 233.733 5.82955C233.347 6.14015 233.061 6.54735 232.875 7.05114C232.689 7.55492 232.597 8.09848 232.597 8.68182C232.597 9.26515 232.689 9.80682 232.875 10.3068C233.061 10.8068 233.347 11.2102 233.733 11.517C234.119 11.8239 234.612 11.9773 235.21 11.9773ZM242.553 7.75V13H241.212V4.27273H242.507V5.63636H242.621C242.825 5.19318 243.136 4.83712 243.553 4.56818C243.969 4.29545 244.507 4.15909 245.166 4.15909C245.757 4.15909 246.274 4.2803 246.717 4.52273C247.161 4.76136 247.505 5.125 247.751 5.61364C247.998 6.09848 248.121 6.71212 248.121 7.45455V13H246.78V7.54545C246.78 6.85985 246.602 6.32576 246.246 5.94318C245.89 5.55682 245.401 5.36364 244.78 5.36364C244.352 5.36364 243.969 5.45644 243.632 5.64205C243.299 5.82765 243.036 6.09848 242.842 6.45455C242.649 6.81061 242.553 7.24242 242.553 7.75ZM255.253 13V1.36364H256.662V6.54545H262.866V1.36364H264.276V13H262.866V7.79545H256.662V13H255.253ZM270.574 13.1818C269.733 13.1818 269.008 12.9962 268.398 12.625C267.792 12.25 267.324 11.7273 266.994 11.0568C266.669 10.3826 266.506 9.59848 266.506 8.70455C266.506 7.81061 266.669 7.02273 266.994 6.34091C267.324 5.6553 267.782 5.12121 268.369 4.73864C268.96 4.35227 269.65 4.15909 270.438 4.15909C270.892 4.15909 271.341 4.23485 271.784 4.38636C272.227 4.53788 272.631 4.78409 272.994 5.125C273.358 5.46212 273.648 5.90909 273.864 6.46591C274.08 7.02273 274.188 7.70833 274.188 8.52273V9.09091H267.46V7.93182H272.824C272.824 7.43939 272.725 7 272.528 6.61364C272.335 6.22727 272.059 5.92235 271.699 5.69886C271.343 5.47538 270.922 5.36364 270.438 5.36364C269.903 5.36364 269.441 5.49621 269.051 5.76136C268.665 6.02273 268.367 6.36364 268.159 6.78409C267.951 7.20455 267.847 7.6553 267.847 8.13636V8.90909C267.847 9.56818 267.96 10.1269 268.188 10.5852C268.419 11.0398 268.739 11.3864 269.148 11.625C269.557 11.8598 270.032 11.9773 270.574 11.9773C270.926 11.9773 271.244 11.928 271.528 11.8295C271.816 11.7273 272.064 11.5758 272.273 11.375C272.481 11.1705 272.642 10.9167 272.756 10.6136L274.051 10.9773C273.915 11.4167 273.686 11.803 273.364 12.1364C273.042 12.4659 272.644 12.7235 272.17 12.9091C271.697 13.0909 271.165 13.1818 270.574 13.1818ZM276.227 13V4.27273H277.523V5.59091H277.614C277.773 5.15909 278.061 4.80871 278.477 4.53977C278.894 4.27083 279.364 4.13636 279.886 4.13636C279.985 4.13636 280.108 4.13826 280.256 4.14205C280.403 4.14583 280.515 4.15152 280.591 4.15909V5.52273C280.545 5.51136 280.441 5.49432 280.278 5.47159C280.119 5.44508 279.951 5.43182 279.773 5.43182C279.348 5.43182 278.97 5.52083 278.636 5.69886C278.307 5.87311 278.045 6.11553 277.852 6.42614C277.663 6.73295 277.568 7.08333 277.568 7.47727V13H276.227ZM285.46 13.1818C284.672 13.1818 283.981 12.9943 283.386 12.6193C282.795 12.2443 282.333 11.7197 282 11.0455C281.67 10.3712 281.506 9.58333 281.506 8.68182C281.506 7.77273 281.67 6.97917 282 6.30114C282.333 5.62311 282.795 5.09659 283.386 4.72159C283.981 4.34659 284.672 4.15909 285.46 4.15909C286.248 4.15909 286.938 4.34659 287.528 4.72159C288.123 5.09659 288.585 5.62311 288.915 6.30114C289.248 6.97917 289.415 7.77273 289.415 8.68182C289.415 9.58333 289.248 10.3712 288.915 11.0455C288.585 11.7197 288.123 12.2443 287.528 12.6193C286.938 12.9943 286.248 13.1818 285.46 13.1818ZM285.46 11.9773C286.059 11.9773 286.551 11.8239 286.938 11.517C287.324 11.2102 287.61 10.8068 287.795 10.3068C287.981 9.80682 288.074 9.26515 288.074 8.68182C288.074 8.09848 287.981 7.55492 287.795 7.05114C287.61 6.54735 287.324 6.14015 286.938 5.82955C286.551 5.51894 286.059 5.36364 285.46 5.36364C284.862 5.36364 284.369 5.51894 283.983 5.82955C283.597 6.14015 283.311 6.54735 283.125 7.05114C282.939 7.55492 282.847 8.09848 282.847 8.68182C282.847 9.26515 282.939 9.80682 283.125 10.3068C283.311 10.8068 283.597 11.2102 283.983 11.517C284.369 11.8239 284.862 11.9773 285.46 11.9773ZM295.121 13.1818C294.28 13.1818 293.554 12.9962 292.945 12.625C292.339 12.25 291.871 11.7273 291.541 11.0568C291.215 10.3826 291.053 9.59848 291.053 8.70455C291.053 7.81061 291.215 7.02273 291.541 6.34091C291.871 5.6553 292.329 5.12121 292.916 4.73864C293.507 4.35227 294.196 4.15909 294.984 4.15909C295.439 4.15909 295.888 4.23485 296.331 4.38636C296.774 4.53788 297.178 4.78409 297.541 5.125C297.905 5.46212 298.195 5.90909 298.411 6.46591C298.626 7.02273 298.734 7.70833 298.734 8.52273V9.09091H292.007V7.93182H297.371C297.371 7.43939 297.272 7 297.075 6.61364C296.882 6.22727 296.606 5.92235 296.246 5.69886C295.89 5.47538 295.469 5.36364 294.984 5.36364C294.45 5.36364 293.988 5.49621 293.598 5.76136C293.212 6.02273 292.914 6.36364 292.706 6.78409C292.498 7.20455 292.393 7.6553 292.393 8.13636V8.90909C292.393 9.56818 292.507 10.1269 292.734 10.5852C292.965 11.0398 293.286 11.3864 293.695 11.625C294.104 11.8598 294.579 11.9773 295.121 11.9773C295.473 11.9773 295.791 11.928 296.075 11.8295C296.363 11.7273 296.611 11.5758 296.82 11.375C297.028 11.1705 297.189 10.9167 297.303 10.6136L298.598 10.9773C298.462 11.4167 298.232 11.803 297.911 12.1364C297.589 12.4659 297.191 12.7235 296.717 12.9091C296.244 13.0909 295.712 13.1818 295.121 13.1818ZM306.956 6.22727L305.751 6.56818C305.676 6.36742 305.564 6.17235 305.416 5.98295C305.272 5.78977 305.075 5.63068 304.825 5.50568C304.575 5.38068 304.255 5.31818 303.865 5.31818C303.331 5.31818 302.886 5.44129 302.53 5.6875C302.178 5.92992 302.001 6.23864 302.001 6.61364C302.001 6.94697 302.123 7.21023 302.365 7.40341C302.607 7.59659 302.986 7.75758 303.501 7.88636L304.797 8.20455C305.577 8.39394 306.159 8.68371 306.541 9.07386C306.924 9.46023 307.115 9.95833 307.115 10.5682C307.115 11.0682 306.971 11.5152 306.683 11.9091C306.399 12.303 306.001 12.6136 305.49 12.8409C304.979 13.0682 304.384 13.1818 303.706 13.1818C302.816 13.1818 302.079 12.9886 301.496 12.6023C300.912 12.2159 300.543 11.6515 300.388 10.9091L301.661 10.5909C301.782 11.0606 302.011 11.4129 302.348 11.6477C302.689 11.8826 303.134 12 303.683 12C304.308 12 304.804 11.8674 305.172 11.6023C305.543 11.3333 305.729 11.0114 305.729 10.6364C305.729 10.3333 305.623 10.0795 305.411 9.875C305.198 9.66667 304.873 9.51136 304.433 9.40909L302.979 9.06818C302.179 8.87879 301.592 8.58523 301.217 8.1875C300.846 7.78598 300.661 7.28409 300.661 6.68182C300.661 6.18939 300.799 5.75379 301.075 5.375C301.356 4.99621 301.736 4.69886 302.217 4.48295C302.702 4.26705 303.251 4.15909 303.865 4.15909C304.729 4.15909 305.407 4.34848 305.899 4.72727C306.395 5.10606 306.748 5.60606 306.956 6.22727ZM311.134 11.4091L311.043 12.0227C310.978 12.4545 310.88 12.9167 310.747 13.4091C310.618 13.9015 310.484 14.3655 310.344 14.8011C310.204 15.2367 310.088 15.5833 309.997 15.8409H308.974C309.024 15.5985 309.088 15.2784 309.168 14.8807C309.247 14.483 309.327 14.0379 309.406 13.5455C309.49 13.0568 309.558 12.5568 309.611 12.0455L309.679 11.4091H311.134ZM0.815341 37V25.3636H4.88352C5.69413 25.3636 6.36269 25.5038 6.8892 25.7841C7.41572 26.0606 7.80777 26.4337 8.06534 26.9034C8.32292 27.3693 8.4517 27.8864 8.4517 28.4545C8.4517 28.9545 8.36269 29.3674 8.18466 29.6932C8.01042 30.0189 7.77936 30.2765 7.49148 30.4659C7.20739 30.6553 6.89867 30.7955 6.56534 30.8864V31C6.9214 31.0227 7.27936 31.1477 7.6392 31.375C7.99905 31.6023 8.30019 31.928 8.54261 32.3523C8.78504 32.7765 8.90625 33.2955 8.90625 33.9091C8.90625 34.4924 8.77367 35.017 8.50852 35.483C8.24337 35.9489 7.82481 36.3182 7.25284 36.5909C6.68087 36.8636 5.93655 37 5.01989 37H0.815341ZM2.22443 35.75H5.01989C5.94034 35.75 6.59375 35.572 6.98011 35.2159C7.37027 34.8561 7.56534 34.4205 7.56534 33.9091C7.56534 33.5152 7.46496 33.1515 7.2642 32.8182C7.06345 32.4811 6.77746 32.2121 6.40625 32.0114C6.03504 31.8068 5.59564 31.7045 5.08807 31.7045H2.22443V35.75ZM2.22443 30.4773H4.83807C5.26231 30.4773 5.64489 30.3939 5.9858 30.2273C6.33049 30.0606 6.60322 29.8258 6.80398 29.5227C7.00852 29.2197 7.1108 28.8636 7.1108 28.4545C7.1108 27.9432 6.93277 27.5095 6.5767 27.1534C6.22064 26.7936 5.65625 26.6136 4.88352 26.6136H2.22443V30.4773ZM11.0398 37V28.2727H12.3352V29.5909H12.4261C12.5852 29.1591 12.8731 28.8087 13.2898 28.5398C13.7064 28.2708 14.1761 28.1364 14.6989 28.1364C14.7973 28.1364 14.9205 28.1383 15.0682 28.142C15.2159 28.1458 15.3277 28.1515 15.4034 28.1591V29.5227C15.358 29.5114 15.2538 29.4943 15.0909 29.4716C14.9318 29.4451 14.7633 29.4318 14.5852 29.4318C14.161 29.4318 13.7822 29.5208 13.4489 29.6989C13.1193 29.8731 12.858 30.1155 12.6648 30.4261C12.4754 30.733 12.3807 31.0833 12.3807 31.4773V37H11.0398ZM20.3864 37.1818C19.5455 37.1818 18.8201 36.9962 18.2102 36.625C17.6042 36.25 17.1364 35.7273 16.8068 35.0568C16.4811 34.3826 16.3182 33.5985 16.3182 32.7045C16.3182 31.8106 16.4811 31.0227 16.8068 30.3409C17.1364 29.6553 17.5947 29.1212 18.1818 28.7386C18.7727 28.3523 19.4621 28.1591 20.25 28.1591C20.7045 28.1591 21.1534 28.2348 21.5966 28.3864C22.0398 28.5379 22.4432 28.7841 22.8068 29.125C23.1705 29.4621 23.4602 29.9091 23.6761 30.4659C23.892 31.0227 24 31.7083 24 32.5227V33.0909H17.2727V31.9318H22.6364C22.6364 31.4394 22.5379 31 22.3409 30.6136C22.1477 30.2273 21.8712 29.9223 21.5114 29.6989C21.1553 29.4754 20.7348 29.3636 20.25 29.3636C19.7159 29.3636 19.2538 29.4962 18.8636 29.7614C18.4773 30.0227 18.1799 30.3636 17.9716 30.7841C17.7633 31.2045 17.6591 31.6553 17.6591 32.1364V32.9091C17.6591 33.5682 17.7727 34.1269 18 34.5852C18.2311 35.0398 18.5511 35.3864 18.9602 35.625C19.3693 35.8598 19.8447 35.9773 20.3864 35.9773C20.7386 35.9773 21.0568 35.928 21.3409 35.8295C21.6288 35.7273 21.8769 35.5758 22.0852 35.375C22.2936 35.1705 22.4545 34.9167 22.5682 34.6136L23.8636 34.9773C23.7273 35.4167 23.4981 35.803 23.1761 36.1364C22.8542 36.4659 22.4564 36.7235 21.983 36.9091C21.5095 37.0909 20.9773 37.1818 20.3864 37.1818ZM28.608 37.2045C28.0549 37.2045 27.553 37.1004 27.1023 36.892C26.6515 36.6799 26.2936 36.375 26.0284 35.9773C25.7633 35.5758 25.6307 35.0909 25.6307 34.5227C25.6307 34.0227 25.7292 33.6174 25.9261 33.3068C26.1231 32.9924 26.3864 32.7462 26.7159 32.5682C27.0455 32.3902 27.4091 32.2576 27.8068 32.1705C28.2083 32.0795 28.6117 32.0076 29.017 31.9545C29.5473 31.8864 29.9773 31.8352 30.3068 31.8011C30.6402 31.7633 30.8826 31.7008 31.0341 31.6136C31.1894 31.5265 31.267 31.375 31.267 31.1591V31.1136C31.267 30.553 31.1136 30.1174 30.8068 29.8068C30.5038 29.4962 30.0436 29.3409 29.4261 29.3409C28.786 29.3409 28.2841 29.4811 27.9205 29.7614C27.5568 30.0417 27.3011 30.3409 27.1534 30.6591L25.8807 30.2045C26.108 29.6742 26.411 29.2614 26.7898 28.9659C27.1723 28.6667 27.589 28.4583 28.0398 28.3409C28.4943 28.2197 28.9413 28.1591 29.3807 28.1591C29.661 28.1591 29.983 28.1932 30.3466 28.2614C30.714 28.3258 31.0682 28.4602 31.4091 28.6648C31.7538 28.8693 32.0398 29.178 32.267 29.5909C32.4943 30.0038 32.608 30.5568 32.608 31.25V37H31.267V35.8182H31.1989C31.108 36.0076 30.9564 36.2102 30.7443 36.4261C30.5322 36.642 30.25 36.8258 29.8977 36.9773C29.5455 37.1288 29.1155 37.2045 28.608 37.2045ZM28.8125 36C29.3428 36 29.7898 35.8958 30.1534 35.6875C30.5208 35.4792 30.7973 35.2102 30.983 34.8807C31.1723 34.5511 31.267 34.2045 31.267 33.8409V32.6136C31.2102 32.6818 31.0852 32.7443 30.892 32.8011C30.7027 32.8542 30.483 32.9015 30.233 32.9432C29.9867 32.9811 29.7462 33.0152 29.5114 33.0455C29.2803 33.072 29.0928 33.0947 28.9489 33.1136C28.6004 33.1591 28.2746 33.233 27.9716 33.3352C27.6723 33.4337 27.4299 33.5833 27.2443 33.7841C27.0625 33.9811 26.9716 34.25 26.9716 34.5909C26.9716 35.0568 27.1439 35.4091 27.4886 35.6477C27.8371 35.8826 28.2784 36 28.8125 36ZM36.3054 33.8182L36.2827 32.1591H36.5554L40.3736 28.2727H42.0327L37.9645 32.3864H37.8509L36.3054 33.8182ZM35.0554 37V25.3636H36.3963V37H35.0554ZM40.6009 37L37.1918 32.6818L38.1463 31.75L42.3054 37H40.6009ZM48.0241 31.3864V32.6364H42.9332V31.3864H48.0241ZM54.1562 37H50.5653V25.3636H54.3153C55.4441 25.3636 56.41 25.5966 57.2131 26.0625C58.0161 26.5246 58.6316 27.1894 59.0597 28.0568C59.4877 28.9205 59.7017 29.9545 59.7017 31.1591C59.7017 32.3712 59.4858 33.4148 59.054 34.2898C58.6222 35.161 57.9934 35.8314 57.1676 36.3011C56.3419 36.767 55.3381 37 54.1562 37ZM51.9744 35.75H54.0653C55.0275 35.75 55.8248 35.5644 56.4574 35.1932C57.09 34.822 57.5616 34.2936 57.8722 33.608C58.1828 32.9223 58.3381 32.1061 58.3381 31.1591C58.3381 30.2197 58.1847 29.411 57.8778 28.733C57.571 28.0511 57.1127 27.5284 56.5028 27.1648C55.893 26.7973 55.1335 26.6136 54.2244 26.6136H51.9744V35.75ZM65.429 37.1818C64.6411 37.1818 63.9498 36.9943 63.3551 36.6193C62.7642 36.2443 62.3021 35.7197 61.9688 35.0455C61.6392 34.3712 61.4744 33.5833 61.4744 32.6818C61.4744 31.7727 61.6392 30.9792 61.9688 30.3011C62.3021 29.6231 62.7642 29.0966 63.3551 28.7216C63.9498 28.3466 64.6411 28.1591 65.429 28.1591C66.2169 28.1591 66.9063 28.3466 67.4972 28.7216C68.0919 29.0966 68.554 29.6231 68.8835 30.3011C69.2169 30.9792 69.3835 31.7727 69.3835 32.6818C69.3835 33.5833 69.2169 34.3712 68.8835 35.0455C68.554 35.7197 68.0919 36.2443 67.4972 36.6193C66.9063 36.9943 66.2169 37.1818 65.429 37.1818ZM65.429 35.9773C66.0275 35.9773 66.5199 35.8239 66.9062 35.517C67.2926 35.2102 67.5786 34.8068 67.7642 34.3068C67.9498 33.8068 68.0426 33.2652 68.0426 32.6818C68.0426 32.0985 67.9498 31.5549 67.7642 31.0511C67.5786 30.5473 67.2926 30.1402 66.9062 29.8295C66.5199 29.5189 66.0275 29.3636 65.429 29.3636C64.8305 29.3636 64.3381 29.5189 63.9517 29.8295C63.5653 30.1402 63.2794 30.5473 63.0938 31.0511C62.9081 31.5549 62.8153 32.0985 62.8153 32.6818C62.8153 33.2652 62.9081 33.8068 63.0938 34.3068C63.2794 34.8068 63.5653 35.2102 63.9517 35.517C64.3381 35.8239 64.8305 35.9773 65.429 35.9773ZM73.1108 37L70.4517 28.2727H71.8608L73.7472 34.9545H73.8381L75.7017 28.2727H77.1335L78.9744 34.9318H79.0653L80.9517 28.2727H82.3608L79.7017 37H78.3835L76.4744 30.2955H76.3381L74.429 37H73.1108ZM85.4744 31.75V37H84.1335V28.2727H85.429V29.6364H85.5426C85.7472 29.1932 86.0578 28.8371 86.4744 28.5682C86.8911 28.2955 87.429 28.1591 88.0881 28.1591C88.679 28.1591 89.196 28.2803 89.6392 28.5227C90.0824 28.7614 90.4271 29.125 90.6733 29.6136C90.9195 30.0985 91.0426 30.7121 91.0426 31.4545V37H89.7017V31.5455C89.7017 30.8598 89.5237 30.3258 89.1676 29.9432C88.8116 29.5568 88.3229 29.3636 87.7017 29.3636C87.2737 29.3636 86.8911 29.4564 86.554 29.642C86.2206 29.8277 85.9574 30.0985 85.7642 30.4545C85.571 30.8106 85.4744 31.2424 85.4744 31.75ZM98.652 37H97.1747L101.447 25.3636H102.902L107.175 37H105.697L102.22 27.2045H102.129L98.652 37ZM99.1974 32.4545H105.152V33.7045H99.1974V32.4545ZM110.146 31.75V37H108.805V28.2727H110.101V29.6364H110.214C110.419 29.1932 110.73 28.8371 111.146 28.5682C111.563 28.2955 112.101 28.1591 112.76 28.1591C113.351 28.1591 113.868 28.2803 114.311 28.5227C114.754 28.7614 115.099 29.125 115.345 29.6136C115.591 30.0985 115.714 30.7121 115.714 31.4545V37H114.374V31.5455C114.374 30.8598 114.196 30.3258 113.839 29.9432C113.483 29.5568 112.995 29.3636 112.374 29.3636C111.946 29.3636 111.563 29.4564 111.226 29.642C110.893 29.8277 110.629 30.0985 110.436 30.4545C110.243 30.8106 110.146 31.2424 110.146 31.75ZM121.46 37.1818C120.733 37.1818 120.091 36.9981 119.534 36.6307C118.977 36.2595 118.542 35.7367 118.227 35.0625C117.913 34.3845 117.756 33.5833 117.756 32.6591C117.756 31.7424 117.913 30.947 118.227 30.2727C118.542 29.5985 118.979 29.0777 119.54 28.7102C120.1 28.3428 120.748 28.1591 121.483 28.1591C122.051 28.1591 122.5 28.2538 122.83 28.4432C123.163 28.6288 123.417 28.8409 123.591 29.0795C123.769 29.3144 123.907 29.5076 124.006 29.6591H124.119V25.3636H125.46V37H124.165V35.6591H124.006C123.907 35.8182 123.767 36.0189 123.585 36.2614C123.403 36.5 123.144 36.714 122.807 36.9034C122.47 37.089 122.021 37.1818 121.46 37.1818ZM121.642 35.9773C122.18 35.9773 122.634 35.8371 123.006 35.5568C123.377 35.2727 123.659 34.8807 123.852 34.3807C124.045 33.8769 124.142 33.2955 124.142 32.6364C124.142 31.9848 124.047 31.4148 123.858 30.9261C123.669 30.4337 123.388 30.0511 123.017 29.7784C122.646 29.5019 122.188 29.3636 121.642 29.3636C121.074 29.3636 120.6 29.5095 120.222 29.8011C119.847 30.089 119.564 30.4811 119.375 30.9773C119.189 31.4697 119.097 32.0227 119.097 32.6364C119.097 33.2576 119.191 33.822 119.381 34.3295C119.574 34.8333 119.858 35.2348 120.233 35.5341C120.612 35.8295 121.081 35.9773 121.642 35.9773ZM132.148 26.6136V25.3636H140.875V26.6136H137.216V37H135.807V26.6136H132.148ZM141.962 37V28.2727H143.257V29.5909H143.348C143.507 29.1591 143.795 28.8087 144.212 28.5398C144.628 28.2708 145.098 28.1364 145.621 28.1364C145.719 28.1364 145.842 28.1383 145.99 28.142C146.138 28.1458 146.25 28.1515 146.325 28.1591V29.5227C146.28 29.5114 146.176 29.4943 146.013 29.4716C145.854 29.4451 145.685 29.4318 145.507 29.4318C145.083 29.4318 144.704 29.5208 144.371 29.6989C144.041 29.8731 143.78 30.1155 143.587 30.4261C143.397 30.733 143.303 31.0833 143.303 31.4773V37H141.962ZM150.483 37.2045C149.93 37.2045 149.428 37.1004 148.977 36.892C148.527 36.6799 148.169 36.375 147.903 35.9773C147.638 35.5758 147.506 35.0909 147.506 34.5227C147.506 34.0227 147.604 33.6174 147.801 33.3068C147.998 32.9924 148.261 32.7462 148.591 32.5682C148.92 32.3902 149.284 32.2576 149.682 32.1705C150.083 32.0795 150.487 32.0076 150.892 31.9545C151.422 31.8864 151.852 31.8352 152.182 31.8011C152.515 31.7633 152.758 31.7008 152.909 31.6136C153.064 31.5265 153.142 31.375 153.142 31.1591V31.1136C153.142 30.553 152.989 30.1174 152.682 29.8068C152.379 29.4962 151.919 29.3409 151.301 29.3409C150.661 29.3409 150.159 29.4811 149.795 29.7614C149.432 30.0417 149.176 30.3409 149.028 30.6591L147.756 30.2045C147.983 29.6742 148.286 29.2614 148.665 28.9659C149.047 28.6667 149.464 28.4583 149.915 28.3409C150.369 28.2197 150.816 28.1591 151.256 28.1591C151.536 28.1591 151.858 28.1932 152.222 28.2614C152.589 28.3258 152.943 28.4602 153.284 28.6648C153.629 28.8693 153.915 29.178 154.142 29.5909C154.369 30.0038 154.483 30.5568 154.483 31.25V37H153.142V35.8182H153.074C152.983 36.0076 152.831 36.2102 152.619 36.4261C152.407 36.642 152.125 36.8258 151.773 36.9773C151.42 37.1288 150.991 37.2045 150.483 37.2045ZM150.688 36C151.218 36 151.665 35.8958 152.028 35.6875C152.396 35.4792 152.672 35.2102 152.858 34.8807C153.047 34.5511 153.142 34.2045 153.142 33.8409V32.6136C153.085 32.6818 152.96 32.7443 152.767 32.8011C152.578 32.8542 152.358 32.9015 152.108 32.9432C151.862 32.9811 151.621 33.0152 151.386 33.0455C151.155 33.072 150.968 33.0947 150.824 33.1136C150.475 33.1591 150.15 33.233 149.847 33.3352C149.547 33.4337 149.305 33.5833 149.119 33.7841C148.938 33.9811 148.847 34.25 148.847 34.5909C148.847 35.0568 149.019 35.4091 149.364 35.6477C149.712 35.8826 150.153 36 150.688 36ZM158.271 31.75V37H156.93V28.2727H158.226V29.6364H158.339C158.544 29.1932 158.855 28.8371 159.271 28.5682C159.688 28.2955 160.226 28.1591 160.885 28.1591C161.476 28.1591 161.993 28.2803 162.436 28.5227C162.879 28.7614 163.224 29.125 163.47 29.6136C163.716 30.0985 163.839 30.7121 163.839 31.4545V37H162.499V31.5455C162.499 30.8598 162.321 30.3258 161.964 29.9432C161.608 29.5568 161.12 29.3636 160.499 29.3636C160.071 29.3636 159.688 29.4564 159.351 29.642C159.018 29.8277 158.754 30.0985 158.561 30.4545C158.368 30.8106 158.271 31.2424 158.271 31.75ZM172.472 30.2273L171.267 30.5682C171.191 30.3674 171.08 30.1723 170.932 29.983C170.788 29.7898 170.591 29.6307 170.341 29.5057C170.091 29.3807 169.771 29.3182 169.381 29.3182C168.847 29.3182 168.402 29.4413 168.045 29.6875C167.693 29.9299 167.517 30.2386 167.517 30.6136C167.517 30.947 167.638 31.2102 167.881 31.4034C168.123 31.5966 168.502 31.7576 169.017 31.8864L170.312 32.2045C171.093 32.3939 171.674 32.6837 172.057 33.0739C172.439 33.4602 172.631 33.9583 172.631 34.5682C172.631 35.0682 172.487 35.5152 172.199 35.9091C171.915 36.303 171.517 36.6136 171.006 36.8409C170.494 37.0682 169.9 37.1818 169.222 37.1818C168.331 37.1818 167.595 36.9886 167.011 36.6023C166.428 36.2159 166.059 35.6515 165.903 34.9091L167.176 34.5909C167.297 35.0606 167.527 35.4129 167.864 35.6477C168.205 35.8826 168.65 36 169.199 36C169.824 36 170.32 35.8674 170.688 35.6023C171.059 35.3333 171.244 35.0114 171.244 34.6364C171.244 34.3333 171.138 34.0795 170.926 33.875C170.714 33.6667 170.388 33.5114 169.949 33.4091L168.494 33.0682C167.695 32.8788 167.108 32.5852 166.733 32.1875C166.362 31.786 166.176 31.2841 166.176 30.6818C166.176 30.1894 166.314 29.7538 166.591 29.375C166.871 28.9962 167.252 28.6989 167.733 28.483C168.218 28.267 168.767 28.1591 169.381 28.1591C170.244 28.1591 170.922 28.3485 171.415 28.7273C171.911 29.1061 172.263 29.6061 172.472 30.2273ZM175.99 25.3636V37H174.649V25.3636H175.99ZM181.014 37.2045C180.461 37.2045 179.959 37.1004 179.509 36.892C179.058 36.6799 178.7 36.375 178.435 35.9773C178.17 35.5758 178.037 35.0909 178.037 34.5227C178.037 34.0227 178.135 33.6174 178.332 33.3068C178.529 32.9924 178.793 32.7462 179.122 32.5682C179.452 32.3902 179.815 32.2576 180.213 32.1705C180.615 32.0795 181.018 32.0076 181.423 31.9545C181.954 31.8864 182.384 31.8352 182.713 31.8011C183.046 31.7633 183.289 31.7008 183.44 31.6136C183.596 31.5265 183.673 31.375 183.673 31.1591V31.1136C183.673 30.553 183.52 30.1174 183.213 29.8068C182.91 29.4962 182.45 29.3409 181.832 29.3409C181.192 29.3409 180.69 29.4811 180.327 29.7614C179.963 30.0417 179.707 30.3409 179.56 30.6591L178.287 30.2045C178.514 29.6742 178.817 29.2614 179.196 28.9659C179.579 28.6667 179.995 28.4583 180.446 28.3409C180.901 28.2197 181.348 28.1591 181.787 28.1591C182.067 28.1591 182.389 28.1932 182.753 28.2614C183.12 28.3258 183.474 28.4602 183.815 28.6648C184.16 28.8693 184.446 29.178 184.673 29.5909C184.901 30.0038 185.014 30.5568 185.014 31.25V37H183.673V35.8182H183.605C183.514 36.0076 183.363 36.2102 183.151 36.4261C182.938 36.642 182.656 36.8258 182.304 36.9773C181.952 37.1288 181.522 37.2045 181.014 37.2045ZM181.219 36C181.749 36 182.196 35.8958 182.56 35.6875C182.927 35.4792 183.204 35.2102 183.389 34.8807C183.579 34.5511 183.673 34.2045 183.673 33.8409V32.6136C183.616 32.6818 183.491 32.7443 183.298 32.8011C183.109 32.8542 182.889 32.9015 182.639 32.9432C182.393 32.9811 182.152 33.0152 181.918 33.0455C181.687 33.072 181.499 33.0947 181.355 33.1136C181.007 33.1591 180.681 33.233 180.378 33.3352C180.079 33.4337 179.836 33.5833 179.651 33.7841C179.469 33.9811 179.378 34.25 179.378 34.5909C179.378 35.0568 179.55 35.4091 179.895 35.6477C180.243 35.8826 180.685 36 181.219 36ZM191.257 28.2727V29.4091H186.734V28.2727H191.257ZM188.053 26.1818H189.393V34.5C189.393 34.8788 189.448 35.1629 189.558 35.3523C189.672 35.5379 189.816 35.6629 189.99 35.7273C190.168 35.7879 190.356 35.8182 190.553 35.8182C190.7 35.8182 190.821 35.8106 190.916 35.7955C191.011 35.7765 191.087 35.7614 191.143 35.75L191.416 36.9545C191.325 36.9886 191.198 37.0227 191.036 37.0568C190.873 37.0947 190.666 37.1136 190.416 37.1136C190.037 37.1136 189.666 37.0322 189.303 36.8693C188.943 36.7064 188.643 36.4583 188.405 36.125C188.17 35.7917 188.053 35.3712 188.053 34.8636V26.1818ZM196.839 37.1818C195.999 37.1818 195.273 36.9962 194.663 36.625C194.057 36.25 193.589 35.7273 193.26 35.0568C192.934 34.3826 192.771 33.5985 192.771 32.7045C192.771 31.8106 192.934 31.0227 193.26 30.3409C193.589 29.6553 194.048 29.1212 194.635 28.7386C195.226 28.3523 195.915 28.1591 196.703 28.1591C197.158 28.1591 197.607 28.2348 198.05 28.3864C198.493 28.5379 198.896 28.7841 199.26 29.125C199.624 29.4621 199.913 29.9091 200.129 30.4659C200.345 31.0227 200.453 31.7083 200.453 32.5227V33.0909H193.726V31.9318H199.089C199.089 31.4394 198.991 31 198.794 30.6136C198.601 30.2273 198.324 29.9223 197.964 29.6989C197.608 29.4754 197.188 29.3636 196.703 29.3636C196.169 29.3636 195.707 29.4962 195.317 29.7614C194.93 30.0227 194.633 30.3636 194.425 30.7841C194.216 31.2045 194.112 31.6553 194.112 32.1364V32.9091C194.112 33.5682 194.226 34.1269 194.453 34.5852C194.684 35.0398 195.004 35.3864 195.413 35.625C195.822 35.8598 196.298 35.9773 196.839 35.9773C197.192 35.9773 197.51 35.928 197.794 35.8295C198.082 35.7273 198.33 35.5758 198.538 35.375C198.747 35.1705 198.908 34.9167 199.021 34.6136L200.317 34.9773C200.18 35.4167 199.951 35.803 199.629 36.1364C199.307 36.4659 198.91 36.7235 198.436 36.9091C197.963 37.0909 197.43 37.1818 196.839 37.1818ZM206.175 25.3636H207.788L211.016 30.7955H211.152L214.379 25.3636H215.993L211.788 32.2045V37H210.379V32.2045L206.175 25.3636ZM219.945 37.1818C219.157 37.1818 218.465 36.9943 217.871 36.6193C217.28 36.2443 216.818 35.7197 216.484 35.0455C216.155 34.3712 215.99 33.5833 215.99 32.6818C215.99 31.7727 216.155 30.9792 216.484 30.3011C216.818 29.6231 217.28 29.0966 217.871 28.7216C218.465 28.3466 219.157 28.1591 219.945 28.1591C220.732 28.1591 221.422 28.3466 222.013 28.7216C222.607 29.0966 223.07 29.6231 223.399 30.3011C223.732 30.9792 223.899 31.7727 223.899 32.6818C223.899 33.5833 223.732 34.3712 223.399 35.0455C223.07 35.7197 222.607 36.2443 222.013 36.6193C221.422 36.9943 220.732 37.1818 219.945 37.1818ZM219.945 35.9773C220.543 35.9773 221.036 35.8239 221.422 35.517C221.808 35.2102 222.094 34.8068 222.28 34.3068C222.465 33.8068 222.558 33.2652 222.558 32.6818C222.558 32.0985 222.465 31.5549 222.28 31.0511C222.094 30.5473 221.808 30.1402 221.422 29.8295C221.036 29.5189 220.543 29.3636 219.945 29.3636C219.346 29.3636 218.854 29.5189 218.467 29.8295C218.081 30.1402 217.795 30.5473 217.609 31.0511C217.424 31.5549 217.331 32.0985 217.331 32.6818C217.331 33.2652 217.424 33.8068 217.609 34.3068C217.795 34.8068 218.081 35.2102 218.467 35.517C218.854 35.8239 219.346 35.9773 219.945 35.9773ZM231.446 33.4318V28.2727H232.787V37H231.446V35.5227H231.355C231.151 35.9659 230.832 36.3428 230.401 36.6534C229.969 36.9602 229.423 37.1136 228.764 37.1136C228.219 37.1136 227.734 36.9943 227.31 36.7557C226.885 36.5133 226.552 36.1496 226.31 35.6648C226.067 35.1761 225.946 34.5606 225.946 33.8182V28.2727H227.287V33.7273C227.287 34.3636 227.465 34.8712 227.821 35.25C228.181 35.6288 228.639 35.8182 229.196 35.8182C229.529 35.8182 229.868 35.733 230.213 35.5625C230.562 35.392 230.853 35.1307 231.088 34.7784C231.327 34.4261 231.446 33.9773 231.446 33.4318ZM235.243 37V28.2727H236.538V29.5909H236.629C236.788 29.1591 237.076 28.8087 237.493 28.5398C237.91 28.2708 238.379 28.1364 238.902 28.1364C239 28.1364 239.124 28.1383 239.271 28.142C239.419 28.1458 239.531 28.1515 239.607 28.1591V29.5227C239.561 29.5114 239.457 29.4943 239.294 29.4716C239.135 29.4451 238.966 29.4318 238.788 29.4318C238.364 29.4318 237.985 29.5208 237.652 29.6989C237.322 29.8731 237.061 30.1155 236.868 30.4261C236.679 30.733 236.584 31.0833 236.584 31.4773V37H235.243ZM245.878 37V25.3636H249.81C250.719 25.3636 251.465 25.5189 252.048 25.8295C252.632 26.1364 253.063 26.5587 253.344 27.0966C253.624 27.6345 253.764 28.2462 253.764 28.9318C253.764 29.6174 253.624 30.2254 253.344 30.7557C253.063 31.286 252.634 31.7027 252.054 32.0057C251.474 32.3049 250.734 32.4545 249.832 32.4545H246.651V31.1818H249.787C250.408 31.1818 250.908 31.0909 251.287 30.9091C251.67 30.7273 251.946 30.4697 252.116 30.1364C252.291 29.7992 252.378 29.3977 252.378 28.9318C252.378 28.4659 252.291 28.0587 252.116 27.7102C251.942 27.3617 251.664 27.0928 251.281 26.9034C250.899 26.7102 250.393 26.6136 249.764 26.6136H247.287V37H245.878ZM251.355 31.7727L254.219 37H252.582L249.764 31.7727H251.355ZM259.496 37.1818C258.655 37.1818 257.929 36.9962 257.32 36.625C256.714 36.25 256.246 35.7273 255.916 35.0568C255.59 34.3826 255.428 33.5985 255.428 32.7045C255.428 31.8106 255.59 31.0227 255.916 30.3409C256.246 29.6553 256.704 29.1212 257.291 28.7386C257.882 28.3523 258.571 28.1591 259.359 28.1591C259.814 28.1591 260.263 28.2348 260.706 28.3864C261.149 28.5379 261.553 28.7841 261.916 29.125C262.28 29.4621 262.57 29.9091 262.786 30.4659C263.001 31.0227 263.109 31.7083 263.109 32.5227V33.0909H256.382V31.9318H261.746C261.746 31.4394 261.647 31 261.45 30.6136C261.257 30.2273 260.981 29.9223 260.621 29.6989C260.265 29.4754 259.844 29.3636 259.359 29.3636C258.825 29.3636 258.363 29.4962 257.973 29.7614C257.587 30.0227 257.289 30.3636 257.081 30.7841C256.873 31.2045 256.768 31.6553 256.768 32.1364V32.9091C256.768 33.5682 256.882 34.1269 257.109 34.5852C257.34 35.0398 257.661 35.3864 258.07 35.625C258.479 35.8598 258.954 35.9773 259.496 35.9773C259.848 35.9773 260.166 35.928 260.45 35.8295C260.738 35.7273 260.986 35.5758 261.195 35.375C261.403 35.1705 261.564 34.9167 261.678 34.6136L262.973 34.9773C262.837 35.4167 262.607 35.803 262.286 36.1364C261.964 36.4659 261.566 36.7235 261.092 36.9091C260.619 37.0909 260.087 37.1818 259.496 37.1818ZM271.104 40.2727V35.6591H270.99C270.892 35.8182 270.751 36.0189 270.57 36.2614C270.388 36.5 270.128 36.714 269.791 36.9034C269.454 37.089 269.005 37.1818 268.445 37.1818C267.717 37.1818 267.075 36.9981 266.518 36.6307C265.962 36.2595 265.526 35.7367 265.212 35.0625C264.897 34.3845 264.74 33.5833 264.74 32.6591C264.74 31.7424 264.897 30.947 265.212 30.2727C265.526 29.5985 265.964 29.0777 266.524 28.7102C267.085 28.3428 267.732 28.1591 268.467 28.1591C269.036 28.1591 269.484 28.2538 269.814 28.4432C270.147 28.6288 270.401 28.8409 270.575 29.0795C270.753 29.3144 270.892 29.5076 270.99 29.6591H271.149V28.2727H272.445V40.2727H271.104ZM268.626 35.9773C269.164 35.9773 269.619 35.8371 269.99 35.5568C270.361 35.2727 270.643 34.8807 270.837 34.3807C271.03 33.8769 271.126 33.2955 271.126 32.6364C271.126 31.9848 271.032 31.4148 270.842 30.9261C270.653 30.4337 270.373 30.0511 270.001 29.7784C269.63 29.5019 269.172 29.3636 268.626 29.3636C268.058 29.3636 267.585 29.5095 267.206 29.8011C266.831 30.089 266.549 30.4811 266.359 30.9773C266.174 31.4697 266.081 32.0227 266.081 32.6364C266.081 33.2576 266.176 33.822 266.365 34.3295C266.558 34.8333 266.842 35.2348 267.217 35.5341C267.596 35.8295 268.066 35.9773 268.626 35.9773ZM280.399 33.4318V28.2727H281.74V37H280.399V35.5227H280.308C280.104 35.9659 279.786 36.3428 279.354 36.6534C278.922 36.9602 278.376 37.1136 277.717 37.1136C277.172 37.1136 276.687 36.9943 276.263 36.7557C275.839 36.5133 275.505 36.1496 275.263 35.6648C275.02 35.1761 274.899 34.5606 274.899 33.8182V28.2727H276.24V33.7273C276.24 34.3636 276.418 34.8712 276.774 35.25C277.134 35.6288 277.592 35.8182 278.149 35.8182C278.482 35.8182 278.821 35.733 279.166 35.5625C279.515 35.392 279.806 35.1307 280.041 34.7784C280.28 34.4261 280.399 33.9773 280.399 33.4318ZM284.196 37V28.2727H285.537V37H284.196ZM284.878 26.8182C284.616 26.8182 284.391 26.7292 284.202 26.5511C284.016 26.3731 283.923 26.1591 283.923 25.9091C283.923 25.6591 284.016 25.4451 284.202 25.267C284.391 25.089 284.616 25 284.878 25C285.139 25 285.363 25.089 285.548 25.267C285.738 25.4451 285.832 25.6591 285.832 25.9091C285.832 26.1591 285.738 26.3731 285.548 26.5511C285.363 26.7292 285.139 26.8182 284.878 26.8182ZM287.993 37V28.2727H289.288V29.5909H289.379C289.538 29.1591 289.826 28.8087 290.243 28.5398C290.66 28.2708 291.129 28.1364 291.652 28.1364C291.75 28.1364 291.874 28.1383 292.021 28.142C292.169 28.1458 292.281 28.1515 292.357 28.1591V29.5227C292.311 29.5114 292.207 29.4943 292.044 29.4716C291.885 29.4451 291.716 29.4318 291.538 29.4318C291.114 29.4318 290.735 29.5208 290.402 29.6989C290.072 29.8731 289.811 30.1155 289.618 30.4261C289.429 30.733 289.334 31.0833 289.334 31.4773V37H287.993ZM297.339 37.1818C296.499 37.1818 295.773 36.9962 295.163 36.625C294.557 36.25 294.089 35.7273 293.76 35.0568C293.434 34.3826 293.271 33.5985 293.271 32.7045C293.271 31.8106 293.434 31.0227 293.76 30.3409C294.089 29.6553 294.548 29.1212 295.135 28.7386C295.726 28.3523 296.415 28.1591 297.203 28.1591C297.658 28.1591 298.107 28.2348 298.55 28.3864C298.993 28.5379 299.396 28.7841 299.76 29.125C300.124 29.4621 300.413 29.9091 300.629 30.4659C300.845 31.0227 300.953 31.7083 300.953 32.5227V33.0909H294.226V31.9318H299.589C299.589 31.4394 299.491 31 299.294 30.6136C299.101 30.2273 298.824 29.9223 298.464 29.6989C298.108 29.4754 297.688 29.3636 297.203 29.3636C296.669 29.3636 296.207 29.4962 295.817 29.7614C295.43 30.0227 295.133 30.3636 294.925 30.7841C294.716 31.2045 294.612 31.6553 294.612 32.1364V32.9091C294.612 33.5682 294.726 34.1269 294.953 34.5852C295.184 35.0398 295.504 35.3864 295.913 35.625C296.322 35.8598 296.798 35.9773 297.339 35.9773C297.692 35.9773 298.01 35.928 298.294 35.8295C298.582 35.7273 298.83 35.5758 299.038 35.375C299.247 35.1705 299.408 34.9167 299.521 34.6136L300.817 34.9773C300.68 35.4167 300.451 35.803 300.129 36.1364C299.807 36.4659 299.41 36.7235 298.936 36.9091C298.463 37.0909 297.93 37.1818 297.339 37.1818ZM302.993 37V28.2727H304.288V29.6364H304.402C304.584 29.1705 304.877 28.8087 305.283 28.5511C305.688 28.2898 306.175 28.1591 306.743 28.1591C307.319 28.1591 307.798 28.2898 308.18 28.5511C308.567 28.8087 308.868 29.1705 309.084 29.6364H309.175C309.398 29.1856 309.733 28.8277 310.18 28.5625C310.627 28.2936 311.163 28.1591 311.788 28.1591C312.569 28.1591 313.207 28.4034 313.703 28.892C314.199 29.3769 314.447 30.1326 314.447 31.1591V37H313.107V31.1591C313.107 30.5152 312.93 30.0549 312.578 29.7784C312.226 29.5019 311.811 29.3636 311.334 29.3636C310.72 29.3636 310.245 29.5492 309.908 29.9205C309.571 30.2879 309.402 30.7538 309.402 31.3182V37H308.038V31.0227C308.038 30.5265 307.877 30.1269 307.555 29.8239C307.233 29.517 306.819 29.3636 306.311 29.3636C305.963 29.3636 305.637 29.4564 305.334 29.642C305.035 29.8277 304.792 30.0852 304.607 30.4148C304.425 30.7405 304.334 31.1174 304.334 31.5455V37H302.993ZM320.558 37.1818C319.717 37.1818 318.992 36.9962 318.382 36.625C317.776 36.25 317.308 35.7273 316.979 35.0568C316.653 34.3826 316.49 33.5985 316.49 32.7045C316.49 31.8106 316.653 31.0227 316.979 30.3409C317.308 29.6553 317.767 29.1212 318.354 28.7386C318.945 28.3523 319.634 28.1591 320.422 28.1591C320.876 28.1591 321.325 28.2348 321.768 28.3864C322.212 28.5379 322.615 28.7841 322.979 29.125C323.342 29.4621 323.632 29.9091 323.848 30.4659C324.064 31.0227 324.172 31.7083 324.172 32.5227V33.0909H317.445V31.9318H322.808C322.808 31.4394 322.71 31 322.513 30.6136C322.32 30.2273 322.043 29.9223 321.683 29.6989C321.327 29.4754 320.907 29.3636 320.422 29.3636C319.888 29.3636 319.426 29.4962 319.036 29.7614C318.649 30.0227 318.352 30.3636 318.143 30.7841C317.935 31.2045 317.831 31.6553 317.831 32.1364V32.9091C317.831 33.5682 317.945 34.1269 318.172 34.5852C318.403 35.0398 318.723 35.3864 319.132 35.625C319.541 35.8598 320.017 35.9773 320.558 35.9773C320.911 35.9773 321.229 35.928 321.513 35.8295C321.801 35.7273 322.049 35.5758 322.257 35.375C322.465 35.1705 322.626 34.9167 322.74 34.6136L324.036 34.9773C323.899 35.4167 323.67 35.803 323.348 36.1364C323.026 36.4659 322.628 36.7235 322.155 36.9091C321.681 37.0909 321.149 37.1818 320.558 37.1818ZM327.553 31.75V37H326.212V28.2727H327.507V29.6364H327.621C327.825 29.1932 328.136 28.8371 328.553 28.5682C328.969 28.2955 329.507 28.1591 330.166 28.1591C330.757 28.1591 331.274 28.2803 331.717 28.5227C332.161 28.7614 332.505 29.125 332.751 29.6136C332.998 30.0985 333.121 30.7121 333.121 31.4545V37H331.78V31.5455C331.78 30.8598 331.602 30.3258 331.246 29.9432C330.89 29.5568 330.401 29.3636 329.78 29.3636C329.352 29.3636 328.969 29.4564 328.632 29.642C328.299 29.8277 328.036 30.0985 327.842 30.4545C327.649 30.8106 327.553 31.2424 327.553 31.75ZM339.366 28.2727V29.4091H334.844V28.2727H339.366ZM336.162 26.1818H337.503V34.5C337.503 34.8788 337.558 35.1629 337.668 35.3523C337.781 35.5379 337.925 35.6629 338.099 35.7273C338.277 35.7879 338.465 35.8182 338.662 35.8182C338.81 35.8182 338.931 35.8106 339.026 35.7955C339.12 35.7765 339.196 35.7614 339.253 35.75L339.526 36.9545C339.435 36.9886 339.308 37.0227 339.145 37.0568C338.982 37.0947 338.776 37.1136 338.526 37.1136C338.147 37.1136 337.776 37.0322 337.412 36.8693C337.052 36.7064 336.753 36.4583 336.514 36.125C336.279 35.7917 336.162 35.3712 336.162 34.8636V26.1818ZM347.409 30.2273L346.205 30.5682C346.129 30.3674 346.017 30.1723 345.869 29.983C345.725 29.7898 345.528 29.6307 345.278 29.5057C345.028 29.3807 344.708 29.3182 344.318 29.3182C343.784 29.3182 343.339 29.4413 342.983 29.6875C342.631 29.9299 342.455 30.2386 342.455 30.6136C342.455 30.947 342.576 31.2102 342.818 31.4034C343.061 31.5966 343.439 31.7576 343.955 31.8864L345.25 32.2045C346.03 32.3939 346.612 32.6837 346.994 33.0739C347.377 33.4602 347.568 33.9583 347.568 34.5682C347.568 35.0682 347.424 35.5152 347.136 35.9091C346.852 36.303 346.455 36.6136 345.943 36.8409C345.432 37.0682 344.837 37.1818 344.159 37.1818C343.269 37.1818 342.532 36.9886 341.949 36.6023C341.366 36.2159 340.996 35.6515 340.841 34.9091L342.114 34.5909C342.235 35.0606 342.464 35.4129 342.801 35.6477C343.142 35.8826 343.587 36 344.136 36C344.761 36 345.258 35.8674 345.625 35.6023C345.996 35.3333 346.182 35.0114 346.182 34.6364C346.182 34.3333 346.076 34.0795 345.864 33.875C345.652 33.6667 345.326 33.5114 344.886 33.4091L343.432 33.0682C342.633 32.8788 342.045 32.5852 341.67 32.1875C341.299 31.786 341.114 31.2841 341.114 30.6818C341.114 30.1894 341.252 29.7538 341.528 29.375C341.809 28.9962 342.189 28.6989 342.67 28.483C343.155 28.267 343.705 28.1591 344.318 28.1591C345.182 28.1591 345.86 28.3485 346.352 28.7273C346.848 29.1061 347.201 29.6061 347.409 30.2273ZM354.268 37V25.3636H361.246V26.6136H355.678V30.5455H360.723V31.7955H355.678V37H354.268ZM364.818 25.3636V37H363.477V25.3636H364.818ZM369.842 37.2045C369.289 37.2045 368.787 37.1004 368.337 36.892C367.886 36.6799 367.528 36.375 367.263 35.9773C366.998 35.5758 366.865 35.0909 366.865 34.5227C366.865 34.0227 366.964 33.6174 367.161 33.3068C367.357 32.9924 367.621 32.7462 367.95 32.5682C368.28 32.3902 368.643 32.2576 369.041 32.1705C369.443 32.0795 369.846 32.0076 370.251 31.9545C370.782 31.8864 371.212 31.8352 371.541 31.8011C371.875 31.7633 372.117 31.7008 372.268 31.6136C372.424 31.5265 372.501 31.375 372.501 31.1591V31.1136C372.501 30.553 372.348 30.1174 372.041 29.8068C371.738 29.4962 371.278 29.3409 370.661 29.3409C370.02 29.3409 369.518 29.4811 369.155 29.7614C368.791 30.0417 368.536 30.3409 368.388 30.6591L367.115 30.2045C367.342 29.6742 367.645 29.2614 368.024 28.9659C368.407 28.6667 368.823 28.4583 369.274 28.3409C369.729 28.2197 370.176 28.1591 370.615 28.1591C370.895 28.1591 371.217 28.1932 371.581 28.2614C371.948 28.3258 372.303 28.4602 372.643 28.6648C372.988 28.8693 373.274 29.178 373.501 29.5909C373.729 30.0038 373.842 30.5568 373.842 31.25V37H372.501V35.8182H372.433C372.342 36.0076 372.191 36.2102 371.979 36.4261C371.767 36.642 371.484 36.8258 371.132 36.9773C370.78 37.1288 370.35 37.2045 369.842 37.2045ZM370.047 36C370.577 36 371.024 35.8958 371.388 35.6875C371.755 35.4792 372.032 35.2102 372.217 34.8807C372.407 34.5511 372.501 34.2045 372.501 33.8409V32.6136C372.445 32.6818 372.32 32.7443 372.126 32.8011C371.937 32.8542 371.717 32.9015 371.467 32.9432C371.221 32.9811 370.981 33.0152 370.746 33.0455C370.515 33.072 370.327 33.0947 370.183 33.1136C369.835 33.1591 369.509 33.233 369.206 33.3352C368.907 33.4337 368.664 33.5833 368.479 33.7841C368.297 33.9811 368.206 34.25 368.206 34.5909C368.206 35.0568 368.378 35.4091 368.723 35.6477C369.071 35.8826 369.513 36 370.047 36ZM378.267 37L375.608 28.2727H377.017L378.903 34.9545H378.994L380.858 28.2727H382.29L384.131 34.9318H384.222L386.108 28.2727H387.517L384.858 37H383.54L381.631 30.2955H381.494L379.585 37H378.267ZM390.631 25.3636V37H389.29V25.3636H390.631ZM396.746 37.1818C395.905 37.1818 395.179 36.9962 394.57 36.625C393.964 36.25 393.496 35.7273 393.166 35.0568C392.84 34.3826 392.678 33.5985 392.678 32.7045C392.678 31.8106 392.84 31.0227 393.166 30.3409C393.496 29.6553 393.954 29.1212 394.541 28.7386C395.132 28.3523 395.821 28.1591 396.609 28.1591C397.064 28.1591 397.513 28.2348 397.956 28.3864C398.399 28.5379 398.803 28.7841 399.166 29.125C399.53 29.4621 399.82 29.9091 400.036 30.4659C400.251 31.0227 400.359 31.7083 400.359 32.5227V33.0909H393.632V31.9318H398.996C398.996 31.4394 398.897 31 398.7 30.6136C398.507 30.2273 398.231 29.9223 397.871 29.6989C397.515 29.4754 397.094 29.3636 396.609 29.3636C396.075 29.3636 395.613 29.4962 395.223 29.7614C394.837 30.0227 394.539 30.3636 394.331 30.7841C394.123 31.2045 394.018 31.6553 394.018 32.1364V32.9091C394.018 33.5682 394.132 34.1269 394.359 34.5852C394.59 35.0398 394.911 35.3864 395.32 35.625C395.729 35.8598 396.204 35.9773 396.746 35.9773C397.098 35.9773 397.416 35.928 397.7 35.8295C397.988 35.7273 398.236 35.5758 398.445 35.375C398.653 35.1705 398.814 34.9167 398.928 34.6136L400.223 34.9773C400.087 35.4167 399.857 35.803 399.536 36.1364C399.214 36.4659 398.816 36.7235 398.342 36.9091C397.869 37.0909 397.337 37.1818 396.746 37.1818ZM408.581 30.2273L407.376 30.5682C407.301 30.3674 407.189 30.1723 407.041 29.983C406.897 29.7898 406.7 29.6307 406.45 29.5057C406.2 29.3807 405.88 29.3182 405.49 29.3182C404.956 29.3182 404.511 29.4413 404.155 29.6875C403.803 29.9299 403.626 30.2386 403.626 30.6136C403.626 30.947 403.748 31.2102 403.99 31.4034C404.232 31.5966 404.611 31.7576 405.126 31.8864L406.422 32.2045C407.202 32.3939 407.784 32.6837 408.166 33.0739C408.549 33.4602 408.74 33.9583 408.74 34.5682C408.74 35.0682 408.596 35.5152 408.308 35.9091C408.024 36.303 407.626 36.6136 407.115 36.8409C406.604 37.0682 406.009 37.1818 405.331 37.1818C404.441 37.1818 403.704 36.9886 403.121 36.6023C402.537 36.2159 402.168 35.6515 402.013 34.9091L403.286 34.5909C403.407 35.0606 403.636 35.4129 403.973 35.6477C404.314 35.8826 404.759 36 405.308 36C405.933 36 406.429 35.8674 406.797 35.6023C407.168 35.3333 407.354 35.0114 407.354 34.6364C407.354 34.3333 407.248 34.0795 407.036 33.875C406.823 33.6667 406.498 33.5114 406.058 33.4091L404.604 33.0682C403.804 32.8788 403.217 32.5852 402.842 32.1875C402.471 31.786 402.286 31.2841 402.286 30.6818C402.286 30.1894 402.424 29.7538 402.7 29.375C402.981 28.9962 403.361 28.6989 403.842 28.483C404.327 28.267 404.876 28.1591 405.49 28.1591C406.354 28.1591 407.032 28.3485 407.524 28.7273C408.02 29.1061 408.373 29.6061 408.581 30.2273ZM416.94 30.2273L415.736 30.5682C415.66 30.3674 415.548 30.1723 415.401 29.983C415.257 29.7898 415.06 29.6307 414.81 29.5057C414.56 29.3807 414.24 29.3182 413.849 29.3182C413.315 29.3182 412.87 29.4413 412.514 29.6875C412.162 29.9299 411.986 30.2386 411.986 30.6136C411.986 30.947 412.107 31.2102 412.349 31.4034C412.592 31.5966 412.971 31.7576 413.486 31.8864L414.781 32.2045C415.562 32.3939 416.143 32.6837 416.526 33.0739C416.908 33.4602 417.099 33.9583 417.099 34.5682C417.099 35.0682 416.955 35.5152 416.668 35.9091C416.384 36.303 415.986 36.6136 415.474 36.8409C414.963 37.0682 414.368 37.1818 413.69 37.1818C412.8 37.1818 412.063 36.9886 411.48 36.6023C410.897 36.2159 410.527 35.6515 410.372 34.9091L411.645 34.5909C411.766 35.0606 411.995 35.4129 412.332 35.6477C412.673 35.8826 413.118 36 413.668 36C414.293 36 414.789 35.8674 415.156 35.6023C415.527 35.3333 415.713 35.0114 415.713 34.6364C415.713 34.3333 415.607 34.0795 415.395 33.875C415.183 33.6667 414.857 33.5114 414.418 33.4091L412.963 33.0682C412.164 32.8788 411.577 32.5852 411.202 32.1875C410.83 31.786 410.645 31.2841 410.645 30.6818C410.645 30.1894 410.783 29.7538 411.06 29.375C411.34 28.9962 411.721 28.6989 412.202 28.483C412.687 28.267 413.236 28.1591 413.849 28.1591C414.713 28.1591 415.391 28.3485 415.884 28.7273C416.38 29.1061 416.732 29.6061 416.94 30.2273ZM420.459 25.3636V37H419.118V25.3636H420.459ZM423.778 40.2727C423.551 40.2727 423.348 40.2538 423.17 40.2159C422.992 40.1818 422.869 40.1477 422.801 40.1136L423.142 38.9318C423.468 39.0152 423.756 39.0455 424.006 39.0227C424.256 39 424.477 38.8883 424.67 38.6875C424.867 38.4905 425.047 38.1705 425.21 37.7273L425.46 37.0455L422.233 28.2727H423.688L426.097 35.2273H426.188L428.597 28.2727H430.051L426.347 38.2727C426.18 38.7235 425.973 39.0966 425.727 39.392C425.481 39.6913 425.195 39.9129 424.869 40.0568C424.547 40.2008 424.184 40.2727 423.778 40.2727Z" fill="#303030"/>
</svg>
