<svg width="473" height="529" viewBox="0 0 473 529" fill="none" xmlns="http://www.w3.org/2000/svg">
<g filter="url(#filter0_d_874_605)">
<path d="M40.2638 226.438L40.49 41.3057C40.4934 38.5443 42.7347 36.3085 45.4961 36.3118L427.619 36.7787C430.38 36.7821 432.616 39.0234 432.613 41.7848L432.386 227.325C432.384 228.815 431.718 230.226 430.57 231.175L425.027 235.752C422.609 237.748 422.604 241.452 425.017 243.455L431.423 248.771C432.57 249.722 433.232 251.135 433.23 252.625L432.953 479.785C432.949 482.547 430.708 484.783 427.947 484.779L44.9488 484.311C42.1873 484.308 39.9515 482.067 39.9549 479.305L40.232 252.449C40.2341 250.788 41.0605 249.237 42.4376 248.309L49.6688 243.435C52.6625 241.417 52.5966 236.989 49.5441 235.061L42.594 230.672C41.1416 229.755 40.2617 228.156 40.2638 226.438Z" fill="#262261"/>
</g>
<path d="M159.051 290.899L157.289 290.897C157.186 290.39 157.004 289.945 156.744 289.561C156.489 289.177 156.177 288.855 155.808 288.594C155.444 288.328 155.039 288.129 154.594 287.996C154.149 287.863 153.685 287.796 153.202 287.795C152.322 287.794 151.524 288.016 150.808 288.46C150.097 288.904 149.531 289.559 149.108 290.425C148.69 291.291 148.481 292.354 148.479 293.613C148.478 294.873 148.685 295.936 149.1 296.803C149.521 297.67 150.086 298.326 150.795 298.772C151.51 299.218 152.307 299.442 153.188 299.443C153.671 299.443 154.135 299.378 154.58 299.246C155.026 299.114 155.431 298.918 155.796 298.658C156.165 298.393 156.478 298.069 156.734 297.686C156.995 297.298 157.178 296.853 157.283 296.351L159.044 296.353C158.911 297.097 158.668 297.762 158.317 298.348C157.966 298.935 157.53 299.434 157.009 299.845C156.487 300.252 155.902 300.561 155.253 300.773C154.609 300.986 153.92 301.091 153.186 301.091C151.946 301.089 150.843 300.785 149.878 300.177C148.912 299.57 148.153 298.707 147.601 297.589C147.048 296.471 146.773 295.145 146.775 293.611C146.777 292.077 147.055 290.752 147.611 289.635C148.166 288.518 148.927 287.657 149.894 287.052C150.86 286.448 151.964 286.146 153.204 286.147C153.938 286.148 154.627 286.256 155.271 286.469C155.919 286.683 156.503 286.997 157.024 287.409C157.544 287.817 157.979 288.315 158.329 288.902C158.678 289.485 158.919 290.151 159.051 290.899ZM166.089 301.135C165.104 301.133 164.24 300.898 163.498 300.428C162.76 299.959 162.183 299.302 161.767 298.459C161.356 297.616 161.151 296.631 161.153 295.504C161.154 294.367 161.361 293.376 161.774 292.529C162.192 291.682 162.77 291.024 163.51 290.556C164.254 290.088 165.118 289.855 166.103 289.856C167.088 289.857 167.949 290.093 168.687 290.563C169.43 291.032 170.007 291.691 170.418 292.539C170.833 293.387 171.041 294.379 171.039 295.516C171.038 296.643 170.828 297.627 170.411 298.47C169.998 299.312 169.419 299.967 168.675 300.435C167.936 300.903 167.074 301.136 166.089 301.135ZM166.091 299.629C166.839 299.63 167.455 299.439 167.938 299.056C168.422 298.673 168.78 298.169 169.012 297.545C169.245 296.92 169.362 296.243 169.363 295.514C169.364 294.785 169.249 294.105 169.017 293.475C168.786 292.845 168.429 292.335 167.947 291.947C167.464 291.558 166.849 291.363 166.101 291.362C165.353 291.361 164.737 291.554 164.254 291.942C163.77 292.33 163.412 292.838 163.179 293.468C162.947 294.097 162.83 294.777 162.829 295.506C162.828 296.235 162.943 296.912 163.174 297.537C163.406 298.163 163.763 298.667 164.245 299.051C164.728 299.436 165.343 299.628 166.091 299.629ZM177.71 301.149C176.801 301.148 175.999 300.917 175.303 300.457C174.608 299.992 174.064 299.338 173.672 298.495C173.28 297.647 173.085 296.645 173.086 295.49C173.088 294.344 173.285 293.35 173.68 292.508C174.074 291.665 174.621 291.015 175.323 290.556C176.024 290.098 176.834 289.869 177.752 289.871C178.463 289.871 179.023 289.99 179.435 290.228C179.852 290.46 180.168 290.726 180.386 291.024C180.608 291.318 180.781 291.56 180.903 291.749L181.045 291.75L181.052 286.38L182.728 286.382L182.71 300.928L181.091 300.926L181.093 299.25L180.894 299.249C180.771 299.448 180.595 299.699 180.368 300.002C180.14 300.3 179.816 300.567 179.394 300.803C178.972 301.034 178.411 301.15 177.71 301.149ZM177.939 299.643C178.612 299.644 179.18 299.47 179.644 299.12C180.109 298.765 180.462 298.276 180.704 297.651C180.947 297.022 181.068 296.295 181.069 295.471C181.07 294.657 180.953 293.944 180.717 293.333C180.481 292.717 180.131 292.238 179.667 291.897C179.204 291.551 178.631 291.377 177.949 291.376C177.239 291.376 176.647 291.557 176.173 291.921C175.704 292.28 175.351 292.77 175.113 293.39C174.88 294.005 174.763 294.696 174.763 295.463C174.762 296.24 174.879 296.946 175.115 297.58C175.356 298.21 175.71 298.713 176.179 299.087C176.652 299.457 177.239 299.643 177.939 299.643ZM190.587 301.165C189.535 301.163 188.629 300.93 187.867 300.465C187.11 299.996 186.526 299.341 186.115 298.503C185.709 297.66 185.507 296.679 185.508 295.562C185.51 294.444 185.714 293.46 186.123 292.608C186.536 291.752 187.109 291.085 187.844 290.607C188.583 290.125 189.445 289.885 190.43 289.886C190.998 289.887 191.559 289.982 192.113 290.172C192.667 290.362 193.17 290.671 193.624 291.097C194.078 291.519 194.44 292.078 194.709 292.775C194.978 293.471 195.112 294.328 195.111 295.346L195.11 296.057L186.701 296.046L186.703 294.597L193.407 294.606C193.408 293.99 193.285 293.441 193.04 292.957C192.799 292.474 192.454 292.093 192.004 291.813C191.56 291.533 191.034 291.392 190.428 291.392C189.76 291.391 189.183 291.556 188.694 291.887C188.211 292.213 187.839 292.639 187.578 293.164C187.317 293.689 187.186 294.252 187.185 294.854L187.184 295.82C187.183 296.643 187.324 297.342 187.608 297.915C187.896 298.484 188.295 298.918 188.806 299.216C189.317 299.511 189.911 299.658 190.588 299.659C191.029 299.659 191.427 299.598 191.782 299.476C192.142 299.348 192.452 299.159 192.713 298.909C192.974 298.653 193.175 298.336 193.318 297.958L194.937 298.414C194.765 298.963 194.478 299.446 194.075 299.862C193.672 300.274 193.175 300.595 192.583 300.826C191.991 301.053 191.325 301.166 190.587 301.165ZM208.796 296.414L210.727 296.416L212.344 298.549L212.769 299.118L215.18 302.331L213.249 302.329L211.66 300.196L211.263 299.656L208.796 296.414ZM215.787 293.695C215.786 295.229 215.507 296.555 214.952 297.672C214.396 298.788 213.635 299.649 212.669 300.254C211.702 300.859 210.598 301.161 209.358 301.159C208.117 301.158 207.015 300.853 206.049 300.246C205.084 299.639 204.325 298.776 203.773 297.658C203.22 296.54 202.945 295.214 202.947 293.68C202.948 292.146 203.227 290.82 203.782 289.703C204.338 288.587 205.099 287.726 206.065 287.121C207.032 286.516 208.136 286.214 209.376 286.216C210.617 286.217 211.72 286.522 212.685 287.129C213.65 287.736 214.409 288.599 214.961 289.717C215.514 290.835 215.789 292.161 215.787 293.695ZM214.083 293.693C214.084 292.434 213.875 291.371 213.455 290.504C213.039 289.637 212.474 288.98 211.76 288.534C211.05 288.088 210.255 287.865 209.374 287.864C208.493 287.863 207.695 288.084 206.98 288.528C206.269 288.973 205.702 289.628 205.28 290.494C204.862 291.36 204.653 292.422 204.651 293.682C204.65 294.941 204.857 296.004 205.272 296.871C205.693 297.738 206.258 298.395 206.967 298.841C207.682 299.287 208.479 299.51 209.36 299.511C210.241 299.512 211.036 299.291 211.747 298.847C212.463 298.403 213.029 297.747 213.447 296.881C213.869 296.016 214.081 294.953 214.083 293.693ZM225.393 296.52L225.401 290.071L227.077 290.073L227.064 300.982L225.388 300.98L225.39 299.133L225.277 299.133C225.02 299.687 224.622 300.157 224.082 300.545C223.541 300.928 222.859 301.119 222.036 301.118C221.354 301.117 220.748 300.967 220.218 300.668C219.688 300.364 219.272 299.909 218.97 299.303C218.667 298.692 218.517 297.922 218.518 296.994L218.526 290.062L220.202 290.064L220.194 296.883C220.193 297.678 220.415 298.313 220.859 298.787C221.309 299.261 221.881 299.498 222.577 299.499C222.994 299.5 223.418 299.394 223.849 299.181C224.285 298.969 224.65 298.642 224.944 298.202C225.243 297.762 225.393 297.201 225.393 296.52ZM233.344 301.245C232.653 301.244 232.025 301.113 231.462 300.852C230.899 300.587 230.452 300.205 230.121 299.707C229.791 299.205 229.626 298.599 229.626 297.888C229.627 297.263 229.751 296.757 229.998 296.369C230.244 295.976 230.574 295.669 230.986 295.447C231.398 295.225 231.853 295.06 232.35 294.951C232.852 294.838 233.357 294.749 233.863 294.683C234.526 294.599 235.064 294.536 235.476 294.494C235.893 294.447 236.196 294.369 236.385 294.26C236.579 294.152 236.677 293.962 236.677 293.693L236.677 293.636C236.678 292.935 236.487 292.39 236.104 292.001C235.726 291.613 235.15 291.418 234.379 291.417C233.578 291.416 232.951 291.59 232.496 291.94C232.041 292.29 231.721 292.664 231.536 293.061L229.946 292.491C230.23 291.829 230.61 291.313 231.084 290.944C231.562 290.571 232.084 290.311 232.647 290.165C233.216 290.014 233.774 289.939 234.324 289.94C234.674 289.94 235.076 289.983 235.531 290.069C235.99 290.15 236.433 290.319 236.858 290.575C237.289 290.831 237.646 291.217 237.929 291.734C238.213 292.25 238.354 292.942 238.353 293.808L238.344 300.996L236.668 300.994L236.67 299.516L236.585 299.516C236.471 299.753 236.281 300.006 236.016 300.276C235.75 300.545 235.397 300.774 234.957 300.963C234.516 301.152 233.978 301.246 233.344 301.245ZM233.601 299.74C234.264 299.741 234.823 299.611 235.278 299.351C235.738 299.091 236.084 298.756 236.316 298.344C236.553 297.932 236.672 297.499 236.673 297.045L236.675 295.511C236.604 295.596 236.447 295.674 236.206 295.745C235.969 295.81 235.694 295.869 235.382 295.921C235.074 295.968 234.773 296.01 234.48 296.048C234.191 296.081 233.956 296.109 233.776 296.132C233.341 296.188 232.933 296.28 232.554 296.408C232.18 296.53 231.877 296.717 231.645 296.968C231.417 297.214 231.303 297.55 231.302 297.976C231.302 298.558 231.517 298.999 231.947 299.298C232.382 299.592 232.934 299.739 233.601 299.74ZM243.097 286.456L243.08 301.001L241.404 300.999L241.421 286.454L243.097 286.456ZM246.15 301.005L246.163 290.096L247.839 290.098L247.826 301.007L246.15 301.005ZM247.017 288.279C246.691 288.279 246.409 288.167 246.173 287.944C245.941 287.721 245.825 287.454 245.826 287.141C245.826 286.829 245.942 286.561 246.175 286.339C246.412 286.117 246.694 286.006 247.02 286.006C247.347 286.007 247.626 286.118 247.858 286.341C248.094 286.564 248.212 286.832 248.212 287.144C248.212 287.457 248.093 287.724 247.856 287.946C247.624 288.168 247.344 288.279 247.017 288.279ZM255.653 290.108L255.652 291.528L249.998 291.521L250 290.101L255.653 290.108ZM251.651 287.489L253.327 287.491L253.314 297.889C253.314 298.362 253.382 298.718 253.519 298.955C253.661 299.187 253.84 299.343 254.058 299.424C254.281 299.5 254.515 299.538 254.761 299.538C254.946 299.539 255.097 299.529 255.216 299.511C255.334 299.487 255.429 299.468 255.5 299.454L255.839 300.96C255.725 301.003 255.567 301.045 255.363 301.088C255.159 301.135 254.901 301.158 254.589 301.158C254.115 301.157 253.651 301.055 253.197 300.85C252.748 300.646 252.374 300.336 252.076 299.919C251.783 299.502 251.637 298.976 251.638 298.341L251.651 287.489ZM259.236 305.112C258.952 305.112 258.699 305.088 258.476 305.04C258.254 304.997 258.1 304.954 258.015 304.912L258.442 303.435C258.85 303.54 259.209 303.578 259.522 303.55C259.834 303.522 260.112 303.383 260.353 303.132C260.6 302.886 260.825 302.486 261.03 301.933L261.343 301.081L257.322 290.11L259.141 290.112L262.141 298.809L262.255 298.809L265.277 290.12L267.095 290.122L262.449 302.616C262.24 303.179 261.982 303.645 261.673 304.014C261.365 304.388 261.007 304.664 260.6 304.844C260.197 305.023 259.743 305.113 259.236 305.112ZM286.863 291.055L285.102 291.053C284.998 290.546 284.817 290.101 284.557 289.717C284.301 289.333 283.989 289.011 283.62 288.75C283.256 288.484 282.851 288.285 282.407 288.152C281.962 288.019 281.498 287.952 281.015 287.951C280.134 287.95 279.336 288.172 278.62 288.616C277.91 289.06 277.343 289.715 276.921 290.581C276.503 291.447 276.293 292.51 276.292 293.769C276.29 295.029 276.497 296.092 276.913 296.959C277.333 297.826 277.898 298.482 278.608 298.928C279.322 299.374 280.12 299.598 281 299.599C281.483 299.6 281.948 299.534 282.393 299.402C282.838 299.27 283.243 299.074 283.608 298.814C283.978 298.549 284.291 298.225 284.547 297.842C284.808 297.454 284.99 297.009 285.095 296.507L286.857 296.51C286.723 297.253 286.481 297.918 286.13 298.504C285.779 299.091 285.342 299.59 284.821 300.001C284.3 300.408 283.715 300.717 283.066 300.93C282.421 301.142 281.732 301.248 280.998 301.247C279.758 301.245 278.655 300.941 277.69 300.334C276.725 299.726 275.966 298.864 275.413 297.746C274.861 296.627 274.585 295.301 274.587 293.767C274.589 292.233 274.868 290.908 275.423 289.791C275.978 288.674 276.739 287.813 277.706 287.209C278.673 286.604 279.776 286.302 281.017 286.304C281.751 286.304 282.439 286.412 283.083 286.626C283.731 286.839 284.316 287.153 284.836 287.565C285.357 287.973 285.792 288.471 286.141 289.058C286.491 289.641 286.732 290.307 286.863 291.055ZM291.154 294.498L291.146 301.06L289.47 301.058L289.488 286.513L291.164 286.515L291.157 291.856L291.299 291.856C291.556 291.293 291.94 290.846 292.452 290.515C292.968 290.179 293.655 290.012 294.512 290.013C295.255 290.014 295.906 290.164 296.464 290.463C297.023 290.757 297.455 291.21 297.762 291.821C298.074 292.428 298.23 293.2 298.228 294.137L298.22 301.069L296.544 301.067L296.552 294.249C296.553 293.382 296.329 292.712 295.88 292.238C295.435 291.759 294.818 291.519 294.027 291.518C293.478 291.518 292.985 291.633 292.549 291.864C292.118 292.096 291.777 292.434 291.525 292.879C291.279 293.324 291.155 293.863 291.154 294.498ZM305.86 301.305C304.809 301.304 303.902 301.071 303.141 300.606C302.384 300.136 301.8 299.482 301.389 298.644C300.983 297.8 300.78 296.82 300.782 295.703C300.783 294.585 300.988 293.601 301.396 292.749C301.809 291.892 302.383 291.225 303.117 290.748C303.856 290.266 304.718 290.026 305.703 290.027C306.271 290.028 306.832 290.123 307.386 290.313C307.94 290.503 308.444 290.811 308.898 291.238C309.352 291.66 309.713 292.219 309.982 292.916C310.251 293.612 310.385 294.469 310.384 295.487L310.383 296.197L301.974 296.187L301.976 294.738L308.68 294.746C308.681 294.131 308.559 293.581 308.313 293.098C308.072 292.615 307.727 292.233 307.278 291.953C306.833 291.674 306.307 291.533 305.701 291.533C305.034 291.532 304.456 291.697 303.968 292.028C303.484 292.354 303.112 292.779 302.851 293.305C302.59 293.83 302.459 294.393 302.459 294.994L302.457 295.96C302.456 296.784 302.598 297.483 302.881 298.056C303.169 298.625 303.569 299.058 304.08 299.357C304.591 299.651 305.185 299.799 305.862 299.8C306.302 299.8 306.7 299.739 307.055 299.617C307.415 299.489 307.726 299.3 307.986 299.05C308.247 298.794 308.449 298.477 308.591 298.099L310.21 298.555C310.039 299.104 309.752 299.587 309.349 300.003C308.946 300.414 308.448 300.736 307.856 300.967C307.264 301.194 306.599 301.306 305.86 301.305ZM317.358 301.32C316.336 301.318 315.455 301.076 314.717 300.592C313.979 300.108 313.412 299.442 313.015 298.594C312.619 297.746 312.421 296.777 312.422 295.688C312.424 294.581 312.628 293.603 313.037 292.756C313.45 291.904 314.023 291.24 314.758 290.762C315.497 290.28 316.359 290.04 317.344 290.041C318.111 290.042 318.802 290.185 319.417 290.47C320.032 290.755 320.536 291.153 320.929 291.665C321.321 292.177 321.564 292.773 321.658 293.455L319.982 293.453C319.854 292.956 319.571 292.515 319.131 292.131C318.696 291.743 318.109 291.548 317.37 291.547C316.717 291.546 316.144 291.716 315.651 292.056C315.163 292.392 314.781 292.867 314.506 293.482C314.235 294.093 314.099 294.81 314.098 295.634C314.097 296.477 314.229 297.211 314.493 297.836C314.763 298.461 315.141 298.947 315.628 299.293C316.12 299.639 316.697 299.813 317.36 299.814C317.796 299.814 318.191 299.739 318.547 299.588C318.902 299.437 319.203 299.219 319.449 298.936C319.696 298.652 319.872 298.311 319.976 297.914L321.652 297.916C321.557 298.559 321.322 299.139 320.947 299.655C320.577 300.166 320.087 300.572 319.476 300.875C318.869 301.172 318.163 301.32 317.358 301.32ZM325.666 297.125L325.64 295.051L325.981 295.052L330.76 290.2L332.834 290.202L327.742 295.338L327.6 295.338L325.666 297.125ZM324.099 301.1L324.117 286.555L325.793 286.557L325.775 301.103L324.099 301.1ZM331.031 301.109L326.776 295.706L327.97 294.543L333.161 301.112L331.031 301.109ZM337.48 299.128L337.366 299.895C337.284 300.435 337.161 301.012 336.994 301.628C336.832 302.243 336.664 302.823 336.488 303.367C336.312 303.911 336.167 304.344 336.053 304.666L334.775 304.665C334.836 304.362 334.917 303.962 335.017 303.465C335.117 302.968 335.218 302.411 335.318 301.796C335.423 301.185 335.509 300.56 335.576 299.921L335.662 299.126L337.48 299.128ZM92.8638 330.818L92.8816 316.273L97.7964 316.279C98.9327 316.28 99.8653 316.475 100.594 316.864C101.323 317.249 101.862 317.777 102.211 318.45C102.561 319.123 102.735 319.888 102.734 320.745C102.733 321.602 102.557 322.362 102.206 323.024C101.855 323.686 101.317 324.207 100.592 324.585C99.8667 324.958 98.9408 325.144 97.8139 325.142L93.8367 325.137L93.8386 323.546L97.7591 323.551C98.5356 323.552 99.1607 323.439 99.6345 323.213C100.113 322.986 100.459 322.664 100.673 322.248C100.891 321.827 101 321.325 101.001 320.743C101.002 320.16 100.894 319.651 100.676 319.215C100.459 318.779 100.111 318.443 99.6335 318.206C99.1556 317.963 98.5236 317.842 97.7376 317.841L94.6411 317.837L94.6252 330.82L92.8638 330.818ZM99.7184 324.292L103.29 330.831L101.245 330.828L97.7298 324.29L99.7184 324.292ZM109.886 331.066C108.835 331.065 107.928 330.832 107.167 330.367C106.41 329.897 105.826 329.243 105.415 328.404C105.009 327.561 104.806 326.581 104.808 325.463C104.809 324.346 105.014 323.361 105.422 322.509C105.835 321.653 106.409 320.986 107.143 320.509C107.882 320.027 108.744 319.786 109.729 319.787C110.297 319.788 110.858 319.884 111.412 320.074C111.966 320.264 112.47 320.572 112.924 320.999C113.378 321.421 113.739 321.98 114.008 322.676C114.277 323.373 114.411 324.23 114.41 325.248L114.409 325.958L106 325.948L106.002 324.499L112.706 324.507C112.707 323.891 112.585 323.342 112.339 322.859C112.098 322.376 111.753 321.994 111.304 321.714C110.859 321.434 110.333 321.294 109.727 321.293C109.06 321.292 108.482 321.457 107.994 321.788C107.51 322.114 107.138 322.54 106.877 323.065C106.616 323.59 106.485 324.154 106.485 324.755L106.483 325.721C106.482 326.545 106.624 327.243 106.907 327.817C107.195 328.385 107.595 328.819 108.106 329.118C108.617 329.412 109.211 329.56 109.888 329.56C110.328 329.561 110.726 329.5 111.081 329.377C111.441 329.25 111.752 329.061 112.012 328.81C112.273 328.555 112.475 328.238 112.617 327.859L114.236 328.316C114.065 328.865 113.778 329.347 113.375 329.763C112.972 330.175 112.474 330.496 111.882 330.728C111.29 330.954 110.625 331.067 109.886 331.066ZM123.212 323.838L123.21 325.401L116.846 325.393L116.848 323.83L123.212 323.838ZM126.976 330.86L125.129 330.857L130.488 316.318L132.306 316.321L137.629 330.873L135.783 330.87L131.451 318.621L131.338 318.621L126.976 330.86ZM127.665 325.179L135.108 325.188L135.106 326.75L127.663 326.741L127.665 325.179ZM139.668 330.875L139.681 319.966L141.3 319.968L141.298 321.616L141.412 321.616C141.612 321.076 141.972 320.639 142.493 320.303C143.014 319.968 143.602 319.8 144.255 319.801C144.378 319.801 144.532 319.804 144.717 319.809C144.901 319.814 145.041 319.821 145.136 319.831L145.134 321.535C145.077 321.521 144.947 321.5 144.743 321.471C144.544 321.437 144.334 321.421 144.111 321.42C143.581 321.42 143.107 321.53 142.69 321.752C142.278 321.97 141.951 322.272 141.709 322.66C141.472 323.044 141.353 323.481 141.352 323.974L141.344 330.877L139.668 330.875ZM151.209 331.117C150.186 331.115 149.306 330.873 148.568 330.389C147.829 329.905 147.262 329.239 146.865 328.391C146.469 327.543 146.271 326.575 146.272 325.486C146.274 324.378 146.479 323.4 146.887 322.553C147.3 321.701 147.873 321.037 148.608 320.559C149.347 320.077 150.209 319.837 151.194 319.838C151.961 319.839 152.652 319.982 153.267 320.267C153.883 320.552 154.386 320.95 154.779 321.462C155.171 321.974 155.414 322.571 155.508 323.252L153.832 323.25C153.705 322.753 153.421 322.312 152.981 321.928C152.546 321.54 151.959 321.345 151.221 321.344C150.567 321.343 149.994 321.513 149.501 321.853C149.013 322.189 148.631 322.664 148.356 323.279C148.085 323.89 147.95 324.607 147.949 325.431C147.948 326.274 148.079 327.008 148.344 327.633C148.613 328.258 148.991 328.744 149.478 329.09C149.97 329.437 150.548 329.61 151.211 329.611C151.646 329.611 152.042 329.536 152.397 329.385C152.752 329.234 153.053 329.017 153.3 328.733C153.546 328.449 153.722 328.108 153.826 327.711L155.503 327.713C155.407 328.357 155.172 328.936 154.797 329.452C154.427 329.963 153.937 330.369 153.326 330.672C152.719 330.969 152.014 331.118 151.209 331.117ZM159.633 324.337L159.625 330.9L157.949 330.897L157.967 316.352L159.643 316.354L159.636 321.695L159.778 321.695C160.035 321.132 160.419 320.685 160.931 320.354C161.447 320.019 162.134 319.851 162.991 319.853C163.734 319.853 164.385 320.003 164.943 320.302C165.502 320.597 165.935 321.049 166.242 321.66C166.553 322.267 166.709 323.039 166.707 323.976L166.699 330.908L165.023 330.906L165.031 324.088C165.032 323.221 164.808 322.551 164.359 322.077C163.914 321.598 163.297 321.359 162.506 321.358C161.957 321.357 161.464 321.472 161.028 321.704C160.597 321.935 160.256 322.273 160.004 322.718C159.758 323.163 159.634 323.703 159.633 324.337ZM169.765 330.912L169.779 320.003L171.455 320.005L171.442 330.914L169.765 330.912ZM170.633 318.186C170.307 318.185 170.025 318.074 169.788 317.851C169.557 317.628 169.441 317.36 169.441 317.048C169.442 316.735 169.558 316.468 169.79 316.246C170.027 316.024 170.309 315.913 170.636 315.913C170.963 315.913 171.242 316.025 171.474 316.248C171.71 316.471 171.828 316.738 171.828 317.051C171.827 317.363 171.709 317.631 171.472 317.853C171.239 318.075 170.96 318.186 170.633 318.186ZM179.269 320.014L179.267 321.435L173.614 321.428L173.616 320.008L179.269 320.014ZM175.267 317.396L176.943 317.398L176.93 327.796C176.93 328.269 176.998 328.624 177.135 328.861C177.277 329.093 177.456 329.25 177.674 329.331C177.896 329.407 178.131 329.445 178.377 329.445C178.562 329.445 178.713 329.436 178.832 329.417C178.95 329.394 179.045 329.375 179.116 329.361L179.455 330.867C179.341 330.909 179.182 330.952 178.979 330.994C178.775 331.041 178.517 331.065 178.204 331.064C177.731 331.064 177.267 330.961 176.813 330.757C176.363 330.553 175.99 330.242 175.692 329.825C175.399 329.408 175.253 328.883 175.253 328.248L175.267 317.396ZM186.234 331.159C185.182 331.158 184.276 330.925 183.514 330.46C182.757 329.99 182.173 329.336 181.762 328.498C181.356 327.654 181.154 326.674 181.155 325.557C181.156 324.439 181.361 323.455 181.77 322.603C182.183 321.746 182.756 321.079 183.491 320.602C184.23 320.12 185.092 319.88 186.077 319.881C186.645 319.881 187.206 319.977 187.76 320.167C188.313 320.357 188.817 320.665 189.271 321.092C189.725 321.514 190.087 322.073 190.356 322.769C190.625 323.466 190.759 324.323 190.758 325.341L190.757 326.051L182.348 326.041L182.349 324.592L189.054 324.6C189.055 323.985 188.932 323.435 188.687 322.952C188.446 322.469 188.101 322.087 187.651 321.807C187.206 321.527 186.681 321.387 186.075 321.386C185.407 321.386 184.83 321.551 184.341 321.881C183.858 322.208 183.486 322.633 183.225 323.158C182.964 323.684 182.833 324.247 182.832 324.848L182.831 325.814C182.83 326.638 182.971 327.337 183.255 327.91C183.543 328.478 183.942 328.912 184.453 329.211C184.964 329.505 185.558 329.653 186.235 329.654C186.676 329.654 187.073 329.593 187.429 329.47C187.789 329.343 188.099 329.154 188.36 328.903C188.621 328.648 188.822 328.331 188.965 327.952L190.583 328.409C190.412 328.958 190.125 329.441 189.722 329.857C189.319 330.268 188.822 330.59 188.23 330.821C187.638 331.047 186.972 331.16 186.234 331.159ZM197.732 331.173C196.709 331.172 195.829 330.93 195.091 330.446C194.353 329.962 193.786 329.296 193.389 328.448C192.992 327.6 192.794 326.631 192.796 325.542C192.797 324.434 193.002 323.457 193.41 322.61C193.823 321.758 194.397 321.094 195.131 320.616C195.871 320.134 196.733 319.894 197.717 319.895C198.484 319.896 199.176 320.039 199.791 320.324C200.406 320.608 200.91 321.007 201.302 321.519C201.694 322.03 201.938 322.627 202.031 323.309L200.355 323.307C200.228 322.81 199.945 322.369 199.505 321.985C199.07 321.596 198.483 321.402 197.744 321.401C197.091 321.4 196.517 321.57 196.025 321.91C195.537 322.245 195.155 322.721 194.879 323.336C194.609 323.947 194.473 324.664 194.472 325.488C194.471 326.33 194.603 327.064 194.867 327.69C195.136 328.315 195.514 328.801 196.002 329.147C196.494 329.493 197.071 329.667 197.734 329.668C198.17 329.668 198.565 329.593 198.92 329.442C199.276 329.291 199.576 329.073 199.823 328.79C200.07 328.506 200.245 328.165 200.35 327.767L202.026 327.77C201.931 328.413 201.695 328.993 201.321 329.509C200.951 330.02 200.46 330.426 199.849 330.729C199.243 331.026 198.537 331.174 197.732 331.173ZM209.23 320.051L209.228 321.472L203.575 321.465L203.577 320.044L209.23 320.051ZM205.228 317.433L206.904 317.435L206.891 327.832C206.89 328.306 206.959 328.661 207.096 328.898C207.237 329.13 207.417 329.287 207.635 329.367C207.857 329.443 208.092 329.481 208.338 329.482C208.523 329.482 208.674 329.473 208.792 329.454C208.911 329.43 209.006 329.412 209.077 329.397L209.416 330.904C209.302 330.946 209.143 330.988 208.94 331.031C208.736 331.078 208.478 331.101 208.165 331.101C207.692 331.1 207.228 330.998 206.774 330.794C206.324 330.59 205.951 330.279 205.653 329.862C205.36 329.445 205.214 328.919 205.214 328.285L205.228 317.433ZM218.618 326.511L218.626 320.063L220.302 320.065L220.289 330.974L218.613 330.972L218.615 329.125L218.502 329.125C218.245 329.679 217.847 330.149 217.307 330.537C216.766 330.92 216.084 331.111 215.261 331.11C214.579 331.109 213.973 330.959 213.443 330.66C212.913 330.356 212.497 329.901 212.195 329.295C211.892 328.684 211.742 327.914 211.743 326.986L211.751 320.054L213.427 320.056L213.419 326.874C213.418 327.67 213.64 328.305 214.084 328.779C214.534 329.253 215.106 329.49 215.802 329.491C216.219 329.491 216.643 329.385 217.074 329.173C217.51 328.96 217.875 328.634 218.169 328.194C218.468 327.754 218.618 327.193 218.618 326.511ZM223.359 330.977L223.372 320.068L224.992 320.07L224.99 321.718L225.103 321.718C225.303 321.179 225.663 320.741 226.185 320.406C226.706 320.07 227.293 319.903 227.947 319.903C228.07 319.904 228.223 319.906 228.408 319.911C228.593 319.916 228.732 319.923 228.827 319.933L228.825 321.637C228.768 321.623 228.638 321.602 228.435 321.573C228.236 321.54 228.025 321.523 227.802 321.523C227.272 321.522 226.799 321.633 226.382 321.855C225.969 322.072 225.642 322.375 225.4 322.763C225.163 323.146 225.044 323.584 225.044 324.076L225.035 330.979L223.359 330.977ZM235.042 331.219C233.991 331.218 233.084 330.985 232.323 330.52C231.566 330.05 230.982 329.396 230.571 328.557C230.165 327.714 229.962 326.734 229.964 325.616C229.965 324.499 230.17 323.514 230.578 322.662C230.991 321.806 231.565 321.139 232.299 320.662C233.039 320.18 233.901 319.939 234.885 319.94C235.454 319.941 236.015 320.036 236.568 320.226C237.122 320.417 237.626 320.725 238.08 321.152C238.534 321.574 238.895 322.133 239.165 322.829C239.434 323.525 239.567 324.383 239.566 325.401L239.565 326.111L231.156 326.101L231.158 324.652L237.863 324.66C237.863 324.044 237.741 323.495 237.495 323.012C237.254 322.528 236.909 322.147 236.46 321.867C236.015 321.587 235.49 321.447 234.884 321.446C234.216 321.445 233.638 321.61 233.15 321.941C232.667 322.267 232.294 322.693 232.033 323.218C231.772 323.743 231.641 324.307 231.641 324.908L231.639 325.874C231.638 326.698 231.78 327.396 232.063 327.97C232.351 328.538 232.751 328.972 233.262 329.271C233.773 329.565 234.367 329.712 235.044 329.713C235.484 329.714 235.882 329.653 236.237 329.53C236.597 329.403 236.908 329.214 237.168 328.963C237.429 328.708 237.631 328.391 237.773 328.012L239.392 328.469C239.221 329.018 238.934 329.5 238.531 329.916C238.128 330.328 237.63 330.649 237.038 330.88C236.446 331.107 235.781 331.22 235.042 331.219ZM244.612 329.015L244.497 329.782C244.416 330.321 244.292 330.899 244.126 331.514C243.964 332.129 243.795 332.709 243.619 333.254C243.443 333.798 243.298 334.231 243.184 334.553L241.906 334.551C241.968 334.248 242.049 333.848 242.149 333.351C242.249 332.854 242.349 332.298 242.449 331.683C242.554 331.072 242.64 330.447 242.707 329.808L242.793 329.013L244.612 329.015ZM253.567 331.014L253.585 316.469L258.499 316.475C259.636 316.476 260.568 316.672 261.297 317.061C262.026 317.445 262.565 317.974 262.914 318.646C263.264 319.319 263.438 320.084 263.437 320.941C263.436 321.798 263.26 322.558 262.909 323.22C262.558 323.883 262.02 324.403 261.295 324.781C260.57 325.154 259.644 325.34 258.517 325.339L254.54 325.334L254.542 323.743L258.462 323.748C259.239 323.749 259.864 323.636 260.337 323.409C260.816 323.182 261.162 322.861 261.376 322.444C261.594 322.023 261.703 321.521 261.704 320.939C261.705 320.357 261.597 319.848 261.379 319.412C261.162 318.976 260.814 318.639 260.337 318.402C259.859 318.16 259.227 318.038 258.441 318.037L255.344 318.034L255.328 331.016L253.567 331.014ZM260.421 324.489L263.993 331.027L261.948 331.025L258.433 324.486L260.421 324.489ZM270.589 331.262C269.538 331.261 268.631 331.028 267.87 330.563C267.113 330.093 266.529 329.439 266.118 328.601C265.712 327.757 265.509 326.777 265.511 325.66C265.512 324.542 265.717 323.558 266.125 322.706C266.538 321.849 267.112 321.182 267.846 320.705C268.585 320.223 269.447 319.983 270.432 319.984C271 319.984 271.561 320.08 272.115 320.27C272.669 320.46 273.173 320.768 273.627 321.195C274.081 321.617 274.442 322.176 274.711 322.873C274.98 323.569 275.114 324.426 275.113 325.444L275.112 326.154L266.703 326.144L266.705 324.695L273.409 324.703C273.41 324.088 273.288 323.538 273.042 323.055C272.801 322.572 272.456 322.19 272.007 321.91C271.562 321.631 271.036 321.49 270.43 321.489C269.763 321.489 269.185 321.654 268.697 321.984C268.213 322.311 267.841 322.736 267.58 323.262C267.319 323.787 267.188 324.35 267.188 324.951L267.186 325.917C267.185 326.741 267.327 327.44 267.61 328.013C267.898 328.582 268.298 329.015 268.809 329.314C269.32 329.608 269.914 329.756 270.591 329.757C271.031 329.757 271.429 329.696 271.784 329.574C272.144 329.446 272.455 329.257 272.715 329.006C272.976 328.751 273.178 328.434 273.32 328.055L274.939 328.512C274.768 329.061 274.481 329.544 274.078 329.96C273.675 330.371 273.177 330.693 272.585 330.924C271.993 331.15 271.328 331.263 270.589 331.262ZM283.915 324.034L283.913 325.597L277.549 325.589L277.551 324.027L283.915 324.034ZM287.082 331.055L287.1 316.51L292.015 316.516C293.156 316.517 294.089 316.724 294.813 317.137C295.541 317.545 296.08 318.097 296.43 318.794C296.779 319.49 296.954 320.267 296.953 321.124C296.951 321.981 296.775 322.76 296.424 323.46C296.078 324.16 295.542 324.719 294.817 325.134C294.092 325.545 293.164 325.75 292.032 325.749L288.509 325.745L288.511 324.182L291.977 324.186C292.758 324.187 293.386 324.053 293.86 323.784C294.334 323.514 294.677 323.15 294.891 322.691C295.109 322.227 295.219 321.704 295.22 321.122C295.22 320.54 295.112 320.019 294.895 319.559C294.682 319.1 294.337 318.739 293.859 318.478C293.381 318.213 292.747 318.079 291.956 318.078L288.86 318.074L288.844 331.057L287.082 331.055ZM301.244 316.527L301.227 331.073L299.55 331.07L299.568 316.525L301.244 316.527ZM307.506 331.336C306.815 331.335 306.188 331.204 305.625 330.943C305.062 330.677 304.615 330.295 304.284 329.798C303.953 329.296 303.788 328.689 303.789 327.979C303.79 327.354 303.913 326.848 304.16 326.46C304.407 326.067 304.736 325.76 305.148 325.538C305.561 325.316 306.015 325.15 306.513 325.042C307.015 324.929 307.519 324.84 308.026 324.774C308.689 324.69 309.226 324.626 309.638 324.584C310.055 324.537 310.358 324.46 310.548 324.351C310.742 324.242 310.839 324.053 310.84 323.783L310.84 323.726C310.84 323.026 310.649 322.481 310.266 322.092C309.888 321.703 309.313 321.509 308.541 321.508C307.741 321.507 307.113 321.681 306.658 322.031C306.203 322.381 305.883 322.754 305.698 323.152L304.108 322.582C304.393 321.919 304.772 321.404 305.246 321.035C305.725 320.661 306.246 320.402 306.81 320.255C307.378 320.105 307.937 320.03 308.486 320.03C308.837 320.031 309.239 320.074 309.693 320.16C310.153 320.241 310.595 320.409 311.021 320.665C311.451 320.922 311.808 321.308 312.092 321.824C312.375 322.341 312.517 323.032 312.516 323.899L312.507 331.086L310.831 331.084L310.832 329.607L310.747 329.607C310.633 329.844 310.444 330.097 310.178 330.366C309.913 330.636 309.56 330.865 309.119 331.054C308.678 331.243 308.141 331.337 307.506 331.336ZM307.764 329.831C308.427 329.831 308.986 329.702 309.441 329.442C309.9 329.182 310.246 328.846 310.479 328.435C310.716 328.023 310.835 327.59 310.835 327.135L310.837 325.601C310.766 325.686 310.61 325.764 310.368 325.835C310.131 325.901 309.857 325.96 309.544 326.012C309.236 326.059 308.936 326.101 308.642 326.138C308.353 326.171 308.119 326.199 307.939 326.223C307.503 326.279 307.096 326.371 306.717 326.498C306.343 326.621 306.039 326.808 305.807 327.058C305.58 327.304 305.466 327.64 305.465 328.066C305.464 328.649 305.679 329.089 306.11 329.388C306.545 329.682 307.096 329.83 307.764 329.831ZM320.324 320.187L320.322 321.607L314.669 321.6L314.67 320.18L320.324 320.187ZM316.321 317.568L317.997 317.57L317.985 327.968C317.984 328.442 318.052 328.797 318.189 329.034C318.331 329.266 318.511 329.422 318.729 329.503C318.951 329.579 319.185 329.617 319.432 329.618C319.616 329.618 319.768 329.608 319.886 329.59C320.004 329.566 320.099 329.547 320.17 329.533L320.509 331.039C320.396 331.082 320.237 331.124 320.033 331.167C319.83 331.214 319.572 331.237 319.259 331.237C318.786 331.236 318.322 331.134 317.867 330.93C317.418 330.725 317.044 330.415 316.746 329.998C316.453 329.581 316.307 329.055 316.308 328.421L316.321 317.568ZM327.703 320.196L327.701 321.616L321.821 321.609L321.822 320.189L327.703 320.196ZM323.57 331.1L323.585 318.685C323.586 318.06 323.734 317.539 324.028 317.123C324.322 316.707 324.703 316.395 325.172 316.187C325.641 315.979 326.136 315.876 326.657 315.876C327.069 315.877 327.405 315.91 327.666 315.977C327.926 316.044 328.12 316.105 328.248 316.162L327.763 317.611C327.678 317.582 327.559 317.546 327.408 317.504C327.261 317.461 327.067 317.439 326.826 317.439C326.272 317.438 325.871 317.578 325.625 317.857C325.383 318.136 325.262 318.545 325.261 319.085L325.246 331.102L323.57 331.1ZM334.021 331.34C333.036 331.339 332.172 331.103 331.43 330.634C330.692 330.164 330.115 329.507 329.699 328.664C329.288 327.821 329.083 326.836 329.085 325.709C329.086 324.572 329.293 323.581 329.706 322.734C330.124 321.887 330.702 321.229 331.442 320.761C332.186 320.294 333.05 320.06 334.035 320.061C335.02 320.063 335.881 320.298 336.619 320.768C337.362 321.237 337.939 321.896 338.35 322.744C338.765 323.592 338.972 324.585 338.971 325.721C338.97 326.848 338.76 327.832 338.342 328.675C337.93 329.517 337.351 330.172 336.607 330.64C335.868 331.108 335.006 331.341 334.021 331.34ZM334.023 329.834C334.771 329.835 335.387 329.644 335.87 329.261C336.354 328.878 336.712 328.374 336.944 327.75C337.177 327.125 337.294 326.448 337.295 325.719C337.296 324.99 337.181 324.31 336.949 323.68C336.718 323.05 336.361 322.541 335.879 322.152C335.396 321.763 334.781 321.568 334.033 321.567C333.285 321.566 332.669 321.76 332.186 322.147C331.702 322.535 331.344 323.044 331.111 323.673C330.879 324.302 330.762 324.982 330.761 325.711C330.76 326.44 330.875 327.117 331.106 327.743C331.338 328.368 331.695 328.873 332.177 329.257C332.659 329.641 333.275 329.833 334.023 329.834ZM341.523 331.122L341.536 320.213L343.156 320.215L343.154 321.862L343.267 321.863C343.467 321.323 343.827 320.885 344.349 320.55C344.87 320.214 345.457 320.047 346.11 320.048C346.234 320.048 346.387 320.051 346.572 320.055C346.757 320.06 346.896 320.068 346.991 320.077L346.989 321.782C346.932 321.768 346.802 321.746 346.599 321.717C346.4 321.684 346.189 321.667 345.966 321.667C345.436 321.666 344.963 321.777 344.546 321.999C344.133 322.216 343.806 322.519 343.564 322.907C343.327 323.29 343.208 323.728 343.208 324.22L343.199 331.124L341.523 331.122ZM348.964 331.131L348.978 320.222L350.597 320.224L350.595 321.928L350.737 321.928C350.965 321.346 351.333 320.895 351.84 320.573C352.347 320.247 352.955 320.085 353.665 320.085C354.385 320.086 354.984 320.25 355.462 320.578C355.944 320.9 356.32 321.353 356.589 321.936L356.703 321.936C356.983 321.373 357.403 320.926 357.962 320.595C358.521 320.259 359.191 320.092 359.972 320.093C360.948 320.094 361.745 320.401 362.365 321.012C362.984 321.619 363.293 322.564 363.292 323.847L363.283 331.148L361.607 331.146L361.615 323.845C361.616 323.04 361.397 322.465 360.957 322.119C360.517 321.772 359.999 321.599 359.402 321.598C358.635 321.597 358.041 321.829 357.619 322.292C357.197 322.751 356.985 323.333 356.985 324.038L356.976 331.141L355.271 331.139L355.28 323.667C355.281 323.047 355.081 322.547 354.679 322.168C354.277 321.784 353.758 321.591 353.124 321.59C352.688 321.59 352.281 321.705 351.902 321.937C351.528 322.169 351.224 322.49 350.992 322.902C350.764 323.309 350.65 323.78 350.649 324.315L350.641 331.133L348.964 331.131ZM366.347 331.152L366.361 320.243L368.037 320.245L368.023 331.154L366.347 331.152ZM367.215 318.426C366.888 318.425 366.607 318.314 366.37 318.091C366.139 317.868 366.023 317.601 366.023 317.288C366.024 316.976 366.14 316.708 366.372 316.486C366.609 316.264 366.891 316.153 367.218 316.153C367.545 316.154 367.824 316.265 368.056 316.488C368.292 316.711 368.41 316.978 368.41 317.291C368.409 317.603 368.291 317.871 368.054 318.093C367.821 318.315 367.542 318.426 367.215 318.426ZM372.778 324.597L372.77 331.16L371.093 331.158L371.107 320.249L372.726 320.251L372.724 321.955L372.866 321.956C373.122 321.402 373.511 320.957 374.032 320.622C374.554 320.281 375.226 320.112 376.05 320.113C376.789 320.114 377.435 320.266 377.988 320.57C378.542 320.869 378.972 321.324 379.279 321.935C379.586 322.541 379.739 323.309 379.738 324.237L379.73 331.168L378.054 331.166L378.062 324.348C378.063 323.491 377.841 322.823 377.397 322.345C376.952 321.861 376.342 321.619 375.565 321.618C375.03 321.617 374.552 321.733 374.13 321.964C373.713 322.196 373.384 322.534 373.142 322.979C372.9 323.423 372.778 323.963 372.778 324.597ZM387.191 335.496C386.381 335.495 385.685 335.39 385.103 335.181C384.521 334.976 384.036 334.706 383.648 334.369C383.265 334.037 382.96 333.682 382.733 333.303L384.07 332.367C384.221 332.566 384.412 332.793 384.644 333.049C384.876 333.31 385.193 333.535 385.595 333.725C386.002 333.92 386.534 334.018 387.193 334.018C388.073 334.02 388.8 333.807 389.374 333.382C389.947 332.957 390.234 332.289 390.236 331.38L390.238 329.164L390.096 329.164C389.973 329.363 389.797 329.609 389.57 329.902C389.347 330.191 389.025 330.448 388.603 330.675C388.186 330.897 387.622 331.008 386.912 331.007C386.031 331.006 385.241 330.796 384.541 330.379C383.845 329.961 383.294 329.355 382.888 328.559C382.487 327.763 382.287 326.797 382.288 325.66C382.289 324.543 382.487 323.57 382.881 322.742C383.275 321.909 383.823 321.266 384.524 320.812C385.225 320.354 386.035 320.125 386.954 320.126C387.664 320.127 388.227 320.246 388.644 320.483C389.065 320.716 389.386 320.981 389.609 321.28C389.836 321.574 390.01 321.815 390.133 322.005L390.304 322.005L390.306 320.272L391.925 320.274L391.912 331.496C391.91 332.433 391.696 333.195 391.27 333.782C390.847 334.373 390.279 334.806 389.563 335.08C388.853 335.358 388.062 335.497 387.191 335.496ZM387.141 329.501C387.814 329.502 388.382 329.349 388.846 329.042C389.311 328.735 389.664 328.292 389.906 327.715C390.148 327.138 390.27 326.446 390.271 325.642C390.272 324.856 390.154 324.162 389.918 323.56C389.682 322.959 389.333 322.487 388.869 322.146C388.405 321.804 387.833 321.633 387.151 321.632C386.441 321.631 385.849 321.81 385.375 322.17C384.905 322.529 384.552 323.011 384.315 323.617C384.082 324.223 383.965 324.895 383.964 325.634C383.963 326.391 384.081 327.062 384.317 327.644C384.558 328.222 384.912 328.677 385.38 329.009C385.854 329.336 386.44 329.501 387.141 329.501ZM107.979 361.035C107.022 361.034 106.199 360.858 105.508 360.507C104.817 360.156 104.285 359.674 103.912 359.063C103.538 358.452 103.352 357.753 103.353 356.967C103.354 356.361 103.482 355.824 103.739 355.355C104 354.882 104.358 354.445 104.813 354.043C105.272 353.636 105.801 353.23 106.398 352.823L108.502 351.263C108.914 350.994 109.244 350.705 109.49 350.398C109.742 350.091 109.868 349.688 109.868 349.191C109.869 348.822 109.706 348.464 109.379 348.118C109.058 347.772 108.634 347.599 108.109 347.598C107.739 347.598 107.413 347.692 107.128 347.881C106.849 348.065 106.628 348.302 106.467 348.59C106.31 348.874 106.232 349.168 106.231 349.471C106.231 349.812 106.323 350.157 106.507 350.508C106.696 350.854 106.935 351.209 107.223 351.574C107.516 351.934 107.819 352.304 108.131 352.683L114.797 360.845L112.78 360.842L107.277 354.188C106.766 353.572 106.303 353.012 105.887 352.51C105.471 352.008 105.14 351.512 104.894 351.024C104.649 350.536 104.526 350.008 104.527 349.44C104.528 348.787 104.673 348.214 104.962 347.722C105.256 347.225 105.667 346.84 106.192 346.566C106.723 346.287 107.344 346.148 108.054 346.149C108.783 346.15 109.41 346.293 109.935 346.577C110.461 346.857 110.865 347.23 111.148 347.694C111.432 348.154 111.573 348.653 111.573 349.193C111.572 349.889 111.398 350.493 111.052 351.004C110.706 351.515 110.234 351.99 109.637 352.429L106.737 354.585C106.083 355.067 105.639 355.535 105.407 355.99C105.174 356.444 105.058 356.77 105.058 356.969C105.057 357.424 105.175 357.848 105.411 358.241C105.647 358.634 105.981 358.952 106.411 359.194C106.842 359.436 107.346 359.557 107.924 359.558C108.473 359.559 109.008 359.443 109.529 359.212C110.05 358.976 110.522 358.636 110.944 358.191C111.371 357.746 111.707 357.212 111.954 356.587C112.206 355.962 112.332 355.259 112.333 354.478L113.953 354.48C113.951 355.446 113.839 356.234 113.616 356.845C113.393 357.455 113.141 357.933 112.861 358.279C112.582 358.624 112.356 358.882 112.186 359.052C112.129 359.123 112.077 359.194 112.029 359.265C111.982 359.336 111.93 359.407 111.873 359.478C111.403 360.003 110.811 360.395 110.096 360.654C109.38 360.909 108.675 361.036 107.979 361.035ZM122.505 360.854L122.523 346.309L127.437 346.315C128.579 346.316 129.511 346.523 130.235 346.936C130.964 347.344 131.503 347.896 131.852 348.593C132.202 349.289 132.376 350.066 132.375 350.923C132.374 351.78 132.198 352.559 131.847 353.259C131.5 353.959 130.964 354.517 130.239 354.933C129.514 355.344 128.586 355.549 127.455 355.548L123.932 355.543L123.934 353.981L127.4 353.985C128.181 353.986 128.808 353.852 129.282 353.583C129.756 353.313 130.1 352.949 130.313 352.49C130.532 352.026 130.641 351.503 130.642 350.921C130.643 350.339 130.534 349.818 130.317 349.358C130.105 348.899 129.76 348.538 129.282 348.277C128.804 348.012 128.169 347.878 127.379 347.877L124.282 347.873L124.266 360.856L122.505 360.854ZM139.429 361.102C138.378 361.101 137.472 360.868 136.71 360.403C135.953 359.933 135.369 359.279 134.958 358.44C134.552 357.597 134.35 356.617 134.351 355.499C134.352 354.382 134.557 353.397 134.965 352.546C135.378 351.689 135.952 351.022 136.687 350.545C137.426 350.063 138.288 349.822 139.273 349.824C139.841 349.824 140.402 349.92 140.956 350.11C141.509 350.3 142.013 350.608 142.467 351.035C142.921 351.457 143.283 352.016 143.552 352.712C143.821 353.409 143.955 354.266 143.953 355.284L143.953 355.994L135.544 355.984L135.545 354.535L142.25 354.543C142.251 353.928 142.128 353.378 141.883 352.895C141.642 352.412 141.296 352.03 140.847 351.75C140.402 351.47 139.877 351.33 139.271 351.329C138.603 351.328 138.025 351.493 137.537 351.824C137.054 352.15 136.682 352.576 136.421 353.101C136.16 353.627 136.029 354.19 136.028 354.791L136.027 355.757C136.026 356.581 136.167 357.28 136.45 357.853C136.738 358.421 137.138 358.855 137.649 359.154C138.16 359.448 138.754 359.596 139.431 359.596C139.871 359.597 140.269 359.536 140.625 359.413C140.985 359.286 141.295 359.097 141.556 358.846C141.816 358.591 142.018 358.274 142.161 357.895L143.779 358.352C143.608 358.901 143.321 359.383 142.918 359.8C142.515 360.211 142.018 360.532 141.425 360.764C140.833 360.99 140.168 361.103 139.429 361.102ZM146.496 360.884L146.51 349.974L148.129 349.976L148.127 351.624L148.241 351.624C148.44 351.085 148.801 350.647 149.322 350.312C149.843 349.976 150.43 349.809 151.084 349.81C151.207 349.81 151.361 349.812 151.545 349.817C151.73 349.822 151.87 349.829 151.964 349.839L151.962 351.544C151.906 351.529 151.775 351.508 151.572 351.479C151.373 351.446 151.162 351.429 150.94 351.429C150.409 351.428 149.936 351.539 149.519 351.761C149.107 351.978 148.78 352.281 148.538 352.669C148.3 353.052 148.182 353.49 148.181 353.982L148.172 360.886L146.496 360.884ZM159.493 349.99L159.491 351.411L153.61 351.404L153.612 349.983L159.493 349.99ZM155.36 360.894L155.375 348.48C155.376 347.855 155.523 347.334 155.817 346.918C156.111 346.501 156.493 346.189 156.962 345.982C157.431 345.774 157.926 345.67 158.447 345.671C158.859 345.671 159.195 345.705 159.455 345.772C159.715 345.838 159.91 345.9 160.037 345.957L159.553 347.405C159.467 347.377 159.349 347.341 159.198 347.298C159.051 347.255 158.857 347.234 158.615 347.234C158.061 347.233 157.661 347.372 157.415 347.651C157.173 347.93 157.051 348.34 157.051 348.879L157.036 360.896L155.36 360.894ZM165.811 361.134C164.826 361.133 163.962 360.898 163.219 360.428C162.481 359.958 161.904 359.302 161.489 358.459C161.078 357.615 160.873 356.63 160.874 355.503C160.876 354.367 161.083 353.375 161.496 352.528C161.914 351.681 162.492 351.024 163.231 350.556C163.975 350.088 164.84 349.855 165.824 349.856C166.809 349.857 167.671 350.093 168.409 350.562C169.152 351.032 169.728 351.691 170.139 352.539C170.555 353.387 170.762 354.379 170.761 355.515C170.759 356.642 170.55 357.627 170.132 358.469C169.719 359.312 169.141 359.967 168.397 360.434C167.658 360.902 166.796 361.136 165.811 361.134ZM165.813 359.629C166.561 359.63 167.176 359.439 167.66 359.056C168.143 358.673 168.501 358.169 168.734 357.544C168.967 356.919 169.084 356.243 169.085 355.513C169.085 354.784 168.97 354.105 168.739 353.475C168.508 352.845 168.151 352.335 167.669 351.946C167.186 351.557 166.571 351.363 165.823 351.362C165.075 351.361 164.459 351.554 163.975 351.942C163.492 352.329 163.134 352.838 162.901 353.467C162.668 354.097 162.551 354.776 162.551 355.505C162.55 356.235 162.665 356.912 162.896 357.537C163.127 358.162 163.484 358.667 163.967 359.051C164.449 359.435 165.064 359.628 165.813 359.629ZM173.313 360.916L173.326 350.007L174.945 350.009L174.943 351.657L175.057 351.657C175.257 351.118 175.617 350.68 176.138 350.344C176.659 350.009 177.247 349.842 177.9 349.842C178.023 349.842 178.177 349.845 178.362 349.85C178.546 349.855 178.686 349.862 178.781 349.872L178.779 351.576C178.722 351.562 178.592 351.541 178.388 351.512C178.189 351.479 177.979 351.462 177.756 351.461C177.226 351.461 176.752 351.572 176.335 351.794C175.923 352.011 175.596 352.313 175.354 352.701C175.117 353.085 174.998 353.523 174.997 354.015L174.989 360.918L173.313 360.916ZM180.754 360.925L180.767 350.016L182.387 350.018L182.385 351.723L182.527 351.723C182.755 351.141 183.122 350.689 183.629 350.368C184.136 350.042 184.745 349.879 185.455 349.88C186.175 349.881 186.774 350.045 187.251 350.372C187.734 350.695 188.11 351.147 188.379 351.73L188.493 351.73C188.773 351.167 189.192 350.72 189.751 350.389C190.311 350.054 190.981 349.887 191.762 349.888C192.737 349.889 193.535 350.195 194.154 350.807C194.774 351.414 195.083 352.359 195.081 353.642L195.072 360.943L193.396 360.941L193.405 353.64C193.406 352.835 193.187 352.259 192.747 351.913C192.307 351.567 191.789 351.393 191.192 351.393C190.425 351.392 189.83 351.623 189.408 352.087C188.986 352.545 188.775 353.127 188.774 353.833L188.765 360.935L187.061 360.933L187.07 353.462C187.071 352.841 186.87 352.341 186.468 351.962C186.066 351.578 185.548 351.386 184.914 351.385C184.478 351.384 184.071 351.5 183.692 351.732C183.317 351.963 183.014 352.285 182.781 352.696C182.553 353.103 182.439 353.574 182.439 354.109L182.43 360.927L180.754 360.925ZM201.347 361.206C200.656 361.205 200.028 361.074 199.465 360.813C198.902 360.547 198.455 360.166 198.124 359.668C197.793 359.166 197.628 358.56 197.629 357.849C197.63 357.224 197.754 356.718 198.001 356.33C198.247 355.937 198.577 355.63 198.989 355.408C199.401 355.186 199.856 355.021 200.353 354.912C200.855 354.799 201.36 354.71 201.866 354.644C202.529 354.56 203.067 354.497 203.479 354.455C203.895 354.408 204.199 354.33 204.388 354.221C204.582 354.113 204.68 353.923 204.68 353.653L204.68 353.597C204.681 352.896 204.49 352.351 204.107 351.962C203.728 351.574 203.153 351.379 202.382 351.378C201.581 351.377 200.954 351.551 200.499 351.901C200.044 352.251 199.724 352.625 199.539 353.022L197.948 352.452C198.233 351.79 198.613 351.274 199.087 350.905C199.565 350.532 200.087 350.272 200.65 350.126C201.219 349.975 201.777 349.9 202.327 349.901C202.677 349.901 203.079 349.944 203.534 350.03C203.993 350.111 204.435 350.28 204.861 350.536C205.292 350.792 205.649 351.178 205.932 351.695C206.216 352.211 206.357 352.903 206.356 353.769L206.347 360.957L204.671 360.955L204.673 359.477L204.588 359.477C204.474 359.714 204.284 359.967 204.018 360.236C203.753 360.506 203.4 360.735 202.959 360.924C202.519 361.113 201.981 361.207 201.347 361.206ZM201.604 359.701C202.267 359.702 202.826 359.572 203.281 359.312C203.741 359.052 204.087 358.717 204.319 358.305C204.556 357.893 204.675 357.46 204.676 357.006L204.678 355.472C204.607 355.557 204.45 355.635 204.209 355.705C203.972 355.771 203.697 355.83 203.385 355.882C203.077 355.929 202.776 355.971 202.482 356.009C202.194 356.042 201.959 356.07 201.779 356.093C201.344 356.149 200.936 356.241 200.557 356.369C200.183 356.491 199.88 356.678 199.648 356.929C199.42 357.175 199.306 357.511 199.305 357.937C199.305 358.519 199.52 358.96 199.95 359.258C200.385 359.553 200.937 359.7 201.604 359.701ZM211.091 354.4L211.083 360.962L209.406 360.96L209.42 350.051L211.039 350.053L211.037 351.758L211.179 351.758C211.435 351.204 211.824 350.76 212.345 350.424C212.867 350.084 213.539 349.914 214.363 349.915C215.102 349.916 215.748 350.069 216.301 350.372C216.855 350.671 217.285 351.126 217.592 351.737C217.899 352.344 218.052 353.111 218.051 354.039L218.043 360.971L216.367 360.969L216.375 354.151C216.376 353.294 216.154 352.626 215.71 352.147C215.265 351.664 214.655 351.421 213.878 351.42C213.343 351.42 212.865 351.535 212.443 351.767C212.026 351.998 211.697 352.336 211.455 352.781C211.213 353.226 211.091 353.765 211.091 354.4ZM225.537 361.207C224.514 361.206 223.634 360.964 222.896 360.48C222.158 359.996 221.591 359.33 221.194 358.482C220.797 357.634 220.6 356.665 220.601 355.576C220.602 354.468 220.807 353.491 221.215 352.644C221.628 351.792 222.202 351.128 222.936 350.65C223.676 350.168 224.538 349.928 225.523 349.929C226.29 349.93 226.981 350.073 227.596 350.358C228.211 350.642 228.715 351.041 229.107 351.553C229.5 352.064 229.743 352.661 229.837 353.343L228.16 353.341C228.033 352.844 227.75 352.403 227.31 352.019C226.875 351.63 226.288 351.436 225.549 351.435C224.896 351.434 224.323 351.604 223.83 351.944C223.342 352.279 222.96 352.755 222.685 353.37C222.414 353.981 222.278 354.698 222.277 355.522C222.276 356.364 222.408 357.098 222.672 357.724C222.941 358.349 223.319 358.835 223.807 359.181C224.299 359.527 224.876 359.701 225.539 359.702C225.975 359.702 226.37 359.627 226.725 359.476C227.081 359.325 227.382 359.107 227.628 358.824C227.875 358.54 228.05 358.199 228.155 357.801L229.831 357.804C229.736 358.447 229.501 359.027 229.126 359.543C228.756 360.054 228.265 360.46 227.654 360.763C227.048 361.06 226.342 361.208 225.537 361.207ZM236.851 361.221C235.8 361.22 234.894 360.987 234.132 360.522C233.375 360.052 232.791 359.398 232.38 358.559C231.974 357.716 231.771 356.736 231.773 355.618C231.774 354.501 231.979 353.516 232.387 352.665C232.8 351.808 233.374 351.141 234.108 350.664C234.848 350.182 235.71 349.941 236.694 349.943C237.263 349.943 237.824 350.039 238.377 350.229C238.931 350.419 239.435 350.727 239.889 351.154C240.343 351.576 240.705 352.135 240.974 352.831C241.243 353.528 241.377 354.385 241.375 355.403L241.374 356.113L232.965 356.103L232.967 354.654L239.672 354.662C239.672 354.047 239.55 353.497 239.304 353.014C239.063 352.531 238.718 352.149 238.269 351.869C237.824 351.589 237.299 351.449 236.693 351.448C236.025 351.447 235.447 351.612 234.959 351.943C234.476 352.269 234.103 352.695 233.842 353.22C233.581 353.746 233.45 354.309 233.45 354.91L233.449 355.876C233.448 356.7 233.589 357.399 233.872 357.972C234.16 358.54 234.56 358.974 235.071 359.273C235.582 359.567 236.176 359.715 236.853 359.716C237.293 359.716 237.691 359.655 238.046 359.532C238.406 359.405 238.717 359.216 238.977 358.965C239.238 358.71 239.44 358.393 239.582 358.014L241.201 358.471C241.03 359.02 240.743 359.502 240.34 359.919C239.937 360.33 239.439 360.651 238.847 360.883C238.255 361.109 237.59 361.222 236.851 361.221ZM251.55 346.466L251.532 361.012L249.77 361.01L249.788 346.464L251.55 346.466ZM254.836 361.016L254.849 350.107L256.469 350.109L256.467 351.813L256.609 351.814C256.837 351.231 257.204 350.78 257.711 350.458C258.218 350.132 258.827 349.97 259.537 349.97C260.257 349.971 260.856 350.135 261.333 350.463C261.816 350.785 262.192 351.238 262.461 351.821L262.575 351.821C262.855 351.258 263.274 350.811 263.833 350.48C264.392 350.145 265.063 349.977 265.844 349.978C266.819 349.979 267.617 350.286 268.236 350.897C268.856 351.504 269.165 352.449 269.163 353.732L269.154 361.033L267.478 361.031L267.487 353.73C267.488 352.925 267.269 352.35 266.829 352.004C266.389 351.657 265.87 351.484 265.274 351.483C264.507 351.482 263.912 351.714 263.49 352.177C263.068 352.636 262.857 353.218 262.856 353.923L262.847 361.026L261.143 361.024L261.152 353.552C261.153 352.932 260.952 352.432 260.55 352.053C260.148 351.669 259.63 351.476 258.995 351.476C258.56 351.475 258.153 351.59 257.773 351.822C257.399 352.054 257.096 352.375 256.863 352.787C256.635 353.194 256.521 353.665 256.521 354.2L256.512 361.018L254.836 361.016ZM272.214 365.128L272.232 350.128L273.852 350.13L273.849 351.863L274.048 351.863C274.172 351.674 274.342 351.433 274.561 351.139C274.783 350.841 275.101 350.577 275.513 350.345C275.93 350.109 276.494 349.991 277.204 349.992C278.123 349.993 278.932 350.224 279.632 350.684C280.332 351.144 280.878 351.796 281.27 352.639C281.662 353.482 281.858 354.477 281.856 355.623C281.855 356.778 281.657 357.779 281.263 358.626C280.869 359.469 280.324 360.121 279.627 360.585C278.931 361.043 278.128 361.272 277.219 361.271C276.518 361.27 275.957 361.153 275.536 360.92C275.115 360.683 274.791 360.415 274.564 360.117C274.337 359.813 274.162 359.562 274.039 359.363L273.897 359.363L273.89 365.13L272.214 365.128ZM273.873 355.585C273.872 356.408 273.992 357.135 274.233 357.765C274.474 358.391 274.826 358.881 275.289 359.237C275.753 359.588 276.321 359.764 276.993 359.765C277.694 359.765 278.279 359.581 278.748 359.213C279.222 358.839 279.578 358.338 279.815 357.708C280.058 357.074 280.179 356.369 280.18 355.592C280.181 354.825 280.064 354.134 279.828 353.518C279.596 352.897 279.244 352.407 278.771 352.047C278.303 351.681 277.714 351.498 277.003 351.498C276.321 351.497 275.748 351.669 275.284 352.014C274.819 352.354 274.469 352.832 274.231 353.447C273.994 354.058 273.874 354.77 273.873 355.585ZM284.406 361.052L284.42 350.143L286.039 350.145L286.037 351.793L286.151 351.793C286.35 351.253 286.711 350.816 287.232 350.48C287.753 350.145 288.34 349.977 288.994 349.978C289.117 349.978 289.271 349.981 289.455 349.986C289.64 349.991 289.78 349.998 289.874 350.008L289.872 351.712C289.816 351.698 289.685 351.676 289.482 351.648C289.283 351.614 289.072 351.597 288.85 351.597C288.319 351.597 287.846 351.707 287.429 351.929C287.017 352.147 286.69 352.449 286.448 352.837C286.21 353.22 286.092 353.658 286.091 354.151L286.083 361.054L284.406 361.052ZM295.947 361.293C294.962 361.292 294.099 361.057 293.356 360.587C292.618 360.117 292.041 359.461 291.625 358.618C291.214 357.774 291.01 356.789 291.011 355.662C291.012 354.526 291.22 353.534 291.633 352.687C292.05 351.84 292.629 351.183 293.368 350.715C294.112 350.247 294.976 350.014 295.961 350.015C296.946 350.016 297.807 350.252 298.545 350.721C299.288 351.191 299.865 351.85 300.276 352.698C300.692 353.546 300.899 354.538 300.897 355.674C300.896 356.801 300.686 357.786 300.269 358.628C299.856 359.471 299.277 360.126 298.533 360.593C297.794 361.061 296.932 361.295 295.947 361.293ZM295.949 359.788C296.697 359.789 297.313 359.598 297.796 359.215C298.28 358.832 298.638 358.328 298.871 357.703C299.103 357.078 299.22 356.402 299.221 355.672C299.222 354.943 299.107 354.264 298.876 353.634C298.644 353.004 298.288 352.494 297.805 352.105C297.323 351.716 296.707 351.522 295.959 351.521C295.211 351.52 294.595 351.713 294.112 352.101C293.629 352.488 293.27 352.997 293.038 353.626C292.805 354.256 292.688 354.935 292.687 355.664C292.686 356.394 292.801 357.071 293.033 357.696C293.264 358.321 293.621 358.826 294.103 359.21C294.586 359.594 295.201 359.787 295.949 359.788ZM311.992 350.177L307.945 361.081L306.241 361.079L302.22 350.165L304.038 350.167L307.039 358.864L307.152 358.864L310.174 350.174L311.992 350.177ZM318.374 361.321C317.323 361.32 316.417 361.086 315.655 360.621C314.898 360.152 314.314 359.498 313.903 358.659C313.497 357.816 313.295 356.835 313.296 355.718C313.297 354.601 313.502 353.616 313.911 352.764C314.323 351.908 314.897 351.241 315.632 350.763C316.371 350.281 317.233 350.041 318.218 350.042C318.786 350.043 319.347 350.138 319.901 350.328C320.454 350.518 320.958 350.827 321.412 351.253C321.866 351.675 322.228 352.235 322.497 352.931C322.766 353.627 322.9 354.484 322.899 355.502L322.898 356.213L314.489 356.202L314.49 354.754L321.195 354.762C321.196 354.146 321.073 353.597 320.828 353.114C320.587 352.63 320.242 352.249 319.792 351.969C319.347 351.689 318.822 351.549 318.216 351.548C317.548 351.547 316.971 351.712 316.482 352.043C315.999 352.369 315.627 352.795 315.366 353.32C315.105 353.845 314.974 354.408 314.973 355.01L314.972 355.976C314.971 356.8 315.112 357.498 315.395 358.071C315.684 358.64 316.083 359.074 316.594 359.373C317.105 359.667 317.699 359.814 318.376 359.815C318.817 359.816 319.214 359.755 319.57 359.632C319.93 359.505 320.24 359.315 320.501 359.065C320.762 358.809 320.963 358.493 321.106 358.114L322.724 358.57C322.553 359.119 322.266 359.602 321.863 360.018C321.46 360.43 320.963 360.751 320.371 360.982C319.779 361.209 319.113 361.322 318.374 361.321ZM325.442 361.102L325.455 350.193L327.074 350.195L327.072 351.9L327.214 351.9C327.442 351.318 327.81 350.866 328.317 350.545C328.824 350.218 329.432 350.056 330.143 350.057C330.862 350.058 331.461 350.222 331.939 350.549C332.421 350.872 332.797 351.324 333.066 351.907L333.18 351.907C333.46 351.344 333.88 350.897 334.439 350.566C334.998 350.231 335.668 350.064 336.449 350.064C337.425 350.066 338.222 350.372 338.842 350.984C339.461 351.59 339.77 352.535 339.769 353.819L339.76 361.12L338.084 361.118L338.092 353.816C338.093 353.012 337.874 352.436 337.434 352.09C336.994 351.744 336.476 351.57 335.879 351.569C335.112 351.569 334.518 351.8 334.096 352.263C333.674 352.722 333.462 353.304 333.462 354.01L333.453 361.112L331.748 361.11L331.757 353.638C331.758 353.018 331.558 352.518 331.156 352.139C330.754 351.755 330.235 351.563 329.601 351.562C329.165 351.561 328.758 351.677 328.379 351.908C328.005 352.14 327.701 352.461 327.469 352.873C327.241 353.28 327.127 353.751 327.126 354.286L327.118 361.104L325.442 361.102ZM347.398 361.356C346.347 361.355 345.44 361.122 344.679 360.657C343.922 360.187 343.338 359.533 342.927 358.695C342.521 357.851 342.318 356.871 342.32 355.753C342.321 354.636 342.526 353.651 342.934 352.8C343.347 351.943 343.921 351.276 344.655 350.799C345.394 350.317 346.256 350.076 347.241 350.078C347.809 350.078 348.37 350.174 348.924 350.364C349.478 350.554 349.982 350.862 350.436 351.289C350.89 351.711 351.251 352.27 351.52 352.966C351.789 353.663 351.923 354.52 351.922 355.538L351.921 356.248L343.512 356.238L343.514 354.789L350.218 354.797C350.219 354.182 350.097 353.632 349.851 353.149C349.61 352.666 349.265 352.284 348.816 352.004C348.371 351.724 347.845 351.584 347.239 351.583C346.572 351.583 345.994 351.748 345.506 352.078C345.022 352.404 344.65 352.83 344.389 353.355C344.128 353.881 343.997 354.444 343.997 355.045L343.995 356.011C343.994 356.835 344.136 357.534 344.419 358.107C344.707 358.675 345.107 359.109 345.618 359.408C346.129 359.702 346.723 359.85 347.4 359.851C347.84 359.851 348.238 359.79 348.593 359.667C348.953 359.54 349.264 359.351 349.524 359.1C349.785 358.845 349.987 358.528 350.129 358.149L351.748 358.606C351.577 359.155 351.29 359.638 350.887 360.054C350.484 360.465 349.986 360.786 349.394 361.018C348.802 361.244 348.137 361.357 347.398 361.356ZM356.149 354.577L356.141 361.14L354.465 361.138L354.478 350.229L356.098 350.231L356.096 351.935L356.238 351.935C356.494 351.382 356.883 350.937 357.404 350.601C357.925 350.261 358.598 350.092 359.422 350.093C360.16 350.093 360.806 350.246 361.36 350.549C361.914 350.848 362.344 351.303 362.651 351.915C362.958 352.521 363.111 353.288 363.11 354.216L363.101 361.148L361.425 361.146L361.434 354.328C361.435 353.471 361.213 352.803 360.768 352.324C360.324 351.841 359.713 351.599 358.937 351.598C358.402 351.597 357.923 351.712 357.502 351.944C357.085 352.175 356.755 352.514 356.513 352.958C356.271 353.403 356.15 353.943 356.149 354.577ZM370.922 350.249L370.92 351.669L365.267 351.662L365.268 350.242L370.922 350.249ZM366.919 347.63L368.595 347.632L368.583 358.03C368.582 358.503 368.65 358.859 368.787 359.095C368.929 359.328 369.109 359.484 369.327 359.565C369.549 359.641 369.783 359.679 370.03 359.679C370.214 359.68 370.366 359.67 370.484 359.651C370.603 359.628 370.697 359.609 370.768 359.595L371.107 361.101C370.994 361.144 370.835 361.186 370.631 361.228C370.428 361.275 370.17 361.299 369.857 361.298C369.384 361.298 368.92 361.196 368.465 360.991C368.016 360.787 367.642 360.477 367.344 360.06C367.051 359.643 366.905 359.117 366.906 358.482L366.919 347.63ZM380.972 352.704L379.466 353.128C379.371 352.877 379.232 352.633 379.048 352.396C378.868 352.155 378.622 351.955 378.31 351.799C377.998 351.642 377.598 351.564 377.11 351.563C376.442 351.562 375.886 351.715 375.44 352.023C375 352.325 374.779 352.711 374.778 353.179C374.778 353.596 374.929 353.925 375.232 354.167C375.534 354.409 376.008 354.611 376.651 354.773L378.27 355.172C379.245 355.41 379.972 355.773 380.449 356.262C380.927 356.745 381.165 357.368 381.164 358.13C381.164 358.755 380.983 359.314 380.622 359.806C380.267 360.298 379.769 360.686 379.13 360.969C378.49 361.252 377.746 361.393 376.899 361.392C375.786 361.391 374.866 361.148 374.137 360.664C373.408 360.181 372.948 359.475 372.755 358.546L374.346 358.151C374.497 358.738 374.783 359.179 375.204 359.473C375.63 359.767 376.186 359.914 376.872 359.915C377.654 359.916 378.274 359.751 378.734 359.42C379.198 359.084 379.431 358.682 379.431 358.214C379.432 357.835 379.3 357.517 379.035 357.261C378.77 357.001 378.363 356.806 377.814 356.677L375.996 356.249C374.997 356.011 374.264 355.643 373.796 355.146C373.332 354.643 373.101 354.015 373.102 353.263C373.103 352.647 373.276 352.103 373.623 351.63C373.973 351.157 374.45 350.786 375.051 350.516C375.658 350.247 376.345 350.113 377.112 350.114C378.191 350.115 379.038 350.353 379.653 350.827C380.273 351.302 380.713 351.927 380.972 352.704Z" fill="white"/>
<path d="M191.788 123.591L187.264 123.585L188.416 117.139L192.94 117.144L193.516 113.817L189.044 113.811L190.196 107.365L194.668 107.37L196.396 97.5963L203.312 97.6048L201.584 107.379L205.796 107.384L207.524 97.6099L214.44 97.6184L212.712 107.392L217.236 107.398L216.084 113.844L211.56 113.839L210.984 117.166L215.456 117.172L214.304 123.618L209.832 123.613L208.104 133.387L201.188 133.378L202.916 123.604L198.704 123.599L196.976 133.373L190.06 133.365L191.788 123.591ZM204.068 117.158L204.644 113.83L200.432 113.825L199.856 117.153L204.068 117.158ZM235.754 133.836C232.634 133.833 229.827 133.067 227.333 131.538C224.873 129.975 222.935 127.841 221.517 125.135C220.133 122.395 219.444 119.291 219.448 115.825C219.452 112.393 220.149 109.325 221.539 106.623C222.964 103.886 224.908 101.757 227.371 100.234C229.869 98.6772 232.678 97.9007 235.798 97.9045C238.883 97.9083 241.656 98.6916 244.115 100.255C246.609 101.783 248.548 103.917 249.931 106.658C251.349 109.398 252.056 112.467 252.052 115.864C252.048 119.296 251.351 122.381 249.961 125.118C248.571 127.855 246.627 130.002 244.129 131.559C241.666 133.081 238.874 133.84 235.754 133.836ZM235.765 125.204C236.805 125.206 237.741 124.808 238.574 124.012C239.442 123.181 240.119 122.055 240.606 120.634C241.093 119.214 241.338 117.619 241.34 115.851C241.343 113.113 240.826 110.876 239.788 109.141C238.75 107.407 237.417 106.538 235.787 106.536C234.089 106.534 232.718 107.399 231.676 109.131C230.669 110.829 230.163 113.064 230.16 115.838C230.157 118.576 230.674 120.83 231.712 122.6C232.784 124.334 234.135 125.202 235.765 125.204ZM264.737 134.028C260.958 134.023 257.475 133.343 254.287 131.987L256.012 124.345C258.75 125.458 261.297 126.016 263.654 126.019C266.497 126.022 267.92 124.966 267.922 122.852C267.924 121.361 267.197 120.303 265.742 119.677C264.287 119.051 261.861 118.736 258.463 118.732L258.471 112.284C261.556 112.288 263.862 111.979 265.388 111.357C266.949 110.735 267.73 109.852 267.731 108.708C267.733 107.148 266.4 106.366 263.73 106.363C261.2 106.36 258.582 106.946 255.876 108.121L253.857 101.047C257.672 99.1792 261.678 98.2481 265.872 98.2532C269.062 98.2571 271.643 99.0229 273.617 100.551C275.626 102.078 276.629 104.16 276.626 106.794C276.624 108.493 276.171 110.035 275.268 111.421C274.4 112.806 273.22 113.914 271.728 114.744C273.703 115.648 275.262 116.881 276.404 118.442C277.58 120.004 278.168 121.738 278.165 123.644C278.163 125.759 277.588 127.596 276.443 129.154C275.331 130.713 273.752 131.924 271.706 132.788C269.694 133.618 267.371 134.031 264.737 134.028Z" fill="white"/>
<path d="M202.248 196.422C201.248 196.218 200.323 195.846 199.472 195.306C198.629 194.758 197.895 194.085 197.271 193.287C196.655 192.49 196.172 191.591 195.822 190.59C195.479 189.582 195.309 188.515 195.31 187.39C195.311 186.539 195.413 185.722 195.618 184.941C195.822 184.153 196.108 183.419 196.476 182.739C196.844 182.052 197.286 181.432 197.802 180.878C198.326 180.316 198.905 179.836 199.538 179.438C200.179 179.041 200.867 178.733 201.602 178.515C202.337 178.297 203.106 178.189 203.911 178.19C204.716 178.191 205.485 178.301 206.219 178.521C206.961 178.74 207.648 179.05 208.281 179.449C208.921 179.848 209.498 180.329 210.013 180.893C210.536 181.448 210.98 182.07 211.347 182.758C211.721 183.438 212.009 184.172 212.211 184.962C212.413 185.743 212.514 186.56 212.513 187.411C212.512 188.552 212.331 189.63 211.97 190.645C211.609 191.66 211.108 192.57 210.467 193.374C209.833 194.178 209.078 194.848 208.202 195.386C207.327 195.924 206.377 196.283 205.353 196.461C205.596 196.563 205.834 196.673 206.068 196.79C206.31 196.915 206.552 197.029 206.794 197.131C207.036 197.241 207.274 197.331 207.509 197.401C207.751 197.48 207.997 197.523 208.247 197.531C208.489 197.531 208.723 197.5 208.95 197.438C209.184 197.376 209.395 197.279 209.583 197.146C209.771 197.013 209.931 196.842 210.064 196.631C210.205 196.42 210.299 196.162 210.346 195.858L212.958 197.162C212.887 197.732 212.722 198.247 212.464 198.708C212.213 199.169 211.889 199.563 211.49 199.891C211.091 200.218 210.638 200.471 210.13 200.651C209.622 200.83 209.082 200.919 208.512 200.918C208.051 200.918 207.586 200.827 207.118 200.647C206.657 200.474 206.208 200.282 205.771 200.071C205.342 199.867 204.935 199.675 204.553 199.495C204.17 199.323 203.834 199.237 203.545 199.236C203.42 199.236 203.307 199.232 203.206 199.224C203.112 199.224 203.018 199.224 202.924 199.224C202.831 199.231 202.725 199.243 202.608 199.259C202.498 199.282 202.37 199.321 202.221 199.375L202.248 196.422ZM203.893 192.92C204.573 192.921 205.194 192.777 205.757 192.489C206.327 192.193 206.816 191.795 207.223 191.295C207.63 190.788 207.943 190.203 208.163 189.539C208.39 188.867 208.504 188.156 208.505 187.406C208.506 186.649 208.394 185.934 208.168 185.261C207.942 184.589 207.623 184.003 207.209 183.502C206.804 182.994 206.32 182.595 205.758 182.305C205.195 182.008 204.578 181.859 203.906 181.858C203.235 181.857 202.617 182.005 202.054 182.301C201.492 182.589 201.007 182.987 200.6 183.494C200.193 183.994 199.872 184.579 199.637 185.251C199.409 185.923 199.295 186.637 199.294 187.395C199.293 188.145 199.406 188.856 199.631 189.528C199.865 190.193 200.185 190.779 200.59 191.287C200.996 191.788 201.48 192.187 202.042 192.484C202.604 192.774 203.221 192.919 203.893 192.92ZM221.681 184.165L227.424 184.172L227.413 193.101L228.878 193.103L228.874 196.314L223.729 196.308L223.73 195.277C223.316 195.651 222.831 195.94 222.276 196.142C221.721 196.344 221.081 196.445 220.354 196.444C219.682 196.443 219.049 196.337 218.456 196.126C217.862 195.914 217.343 195.597 216.899 195.174C216.462 194.744 216.115 194.209 215.858 193.568C215.608 192.927 215.484 192.173 215.485 191.306L215.49 187.368L213.908 187.366L213.912 184.155L219.279 184.162L219.27 191.31C219.269 192.123 219.476 192.732 219.889 193.139C220.303 193.538 220.842 193.738 221.506 193.739C221.974 193.739 222.4 193.595 222.784 193.307C223.167 193.018 223.445 192.628 223.617 192.136L223.623 187.378L221.678 187.376L221.681 184.165ZM237.641 195.669C237.367 195.84 237.117 195.988 236.89 196.113C236.663 196.23 236.437 196.323 236.21 196.393C235.983 196.471 235.749 196.526 235.507 196.557C235.264 196.595 234.999 196.615 234.71 196.614C233.983 196.613 233.331 196.515 232.753 196.319C232.183 196.115 231.699 195.841 231.301 195.497C230.911 195.145 230.61 194.734 230.4 194.265C230.19 193.788 230.085 193.273 230.086 192.718C230.086 192.155 230.192 191.636 230.404 191.16C230.623 190.683 230.936 190.278 231.343 189.942C231.75 189.599 232.246 189.334 232.832 189.147C233.426 188.952 234.102 188.856 234.86 188.857C235.415 188.857 235.918 188.889 236.371 188.952C236.832 189.007 237.258 189.078 237.649 189.165L237.649 188.79C237.649 188.485 237.591 188.223 237.474 188.004C237.357 187.778 237.193 187.594 236.983 187.453C236.772 187.304 236.518 187.198 236.221 187.136C235.925 187.065 235.6 187.029 235.249 187.029C234.514 187.028 233.866 187.101 233.303 187.249C232.748 187.389 232.213 187.595 231.697 187.868L230.575 185.593C231.372 185.048 232.205 184.631 233.072 184.343C233.948 184.055 234.874 183.911 235.85 183.912C236.608 183.913 237.307 184 237.948 184.173C238.596 184.338 239.15 184.612 239.611 184.995C240.071 185.371 240.43 185.863 240.687 186.473C240.952 187.083 241.084 187.825 241.083 188.7L241.077 193.118L242.706 193.12L242.702 196.331L237.64 196.325L237.641 195.669ZM234.971 193.849C235.526 193.85 236.03 193.76 236.483 193.581C236.936 193.402 237.323 193.184 237.644 192.926L237.646 191.379L234.833 191.376C234.654 191.376 234.478 191.403 234.306 191.457C234.134 191.512 233.978 191.59 233.837 191.691C233.704 191.793 233.594 191.918 233.508 192.066C233.43 192.214 233.391 192.386 233.39 192.581C233.39 192.941 233.519 193.242 233.776 193.484C234.041 193.727 234.44 193.848 234.971 193.849ZM244.471 178.099L249.944 178.105L249.925 193.129L251.8 193.131L251.796 196.342L244.449 196.333L244.453 193.122L246.328 193.124L246.342 181.312L244.467 181.31L244.471 178.099ZM253.37 184.203L258.82 184.21L258.809 193.14L260.496 193.142L260.492 196.353L253.356 196.344L253.359 193.133L255.188 193.135L255.195 187.417L253.366 187.414L253.37 184.203ZM255.016 180.291C255.016 180.002 255.067 179.733 255.169 179.483C255.279 179.225 255.428 179.003 255.615 178.815C255.803 178.628 256.022 178.48 256.272 178.371C256.53 178.262 256.807 178.208 257.104 178.208C257.386 178.208 257.651 178.263 257.901 178.373C258.151 178.483 258.369 178.631 258.557 178.819C258.744 179.007 258.892 179.23 259.001 179.488C259.11 179.738 259.165 180.007 259.164 180.296C259.164 180.585 259.109 180.859 258.999 181.117C258.889 181.366 258.741 181.585 258.553 181.772C258.365 181.959 258.146 182.108 257.896 182.217C257.646 182.326 257.38 182.38 257.099 182.38C256.802 182.379 256.525 182.324 256.267 182.215C256.017 182.105 255.799 181.956 255.612 181.769C255.424 181.581 255.276 181.362 255.167 181.112C255.066 180.854 255.015 180.58 255.016 180.291ZM266.73 184.22L269.156 184.223L269.152 187.293L266.703 187.29L266.673 192.423C266.673 192.72 266.696 192.962 266.743 193.149C266.789 193.329 266.856 193.474 266.941 193.583C267.035 193.693 267.144 193.767 267.269 193.806C267.394 193.846 267.539 193.865 267.703 193.865C268 193.866 268.261 193.839 268.488 193.784C268.715 193.722 268.941 193.652 269.168 193.574L269.669 195.837C269.27 196.086 268.825 196.285 268.332 196.433C267.848 196.58 267.27 196.654 266.598 196.653C266.121 196.653 265.664 196.57 265.227 196.405C264.798 196.241 264.419 195.994 264.091 195.666C263.764 195.329 263.502 194.911 263.308 194.411C263.113 193.911 263.02 193.328 263.028 192.664L263.07 187.286L261.324 187.283L261.328 184.213L263.086 184.215L263.113 181.309L266.759 179.579L266.73 184.22ZM270.703 184.225L276.656 184.232L276.653 187.443L275.715 187.442L277.456 191.991L279.254 187.446L278.211 187.445L278.215 184.234L284.168 184.241L284.164 187.452L282.84 187.45L278.127 198.683L280.213 198.685L280.209 201.896L272.674 201.887L272.678 198.676L274.799 198.679L275.716 196.371L271.93 187.437L270.699 187.435L270.703 184.225ZM185.599 222.05L187.369 222.052L186.575 219.497L181.114 219.49L180.314 222.044L182.189 222.046L182.185 225.257L175.447 225.249L175.451 222.038L176.775 222.04L181.632 207.491L186.332 207.496L191.048 222.057L192.337 222.059L192.333 225.269L185.595 225.261L185.599 222.05ZM182.043 216.491L185.629 216.496L183.832 210.716L182.043 216.491ZM200.829 216.854C200.829 216.667 200.767 216.487 200.642 216.315C200.525 216.143 200.349 215.994 200.115 215.869C199.881 215.736 199.592 215.63 199.248 215.551C198.912 215.473 198.53 215.433 198.1 215.433C197.936 215.433 197.76 215.448 197.572 215.479C197.385 215.502 197.209 215.549 197.045 215.619C196.889 215.689 196.756 215.787 196.646 215.911C196.544 216.029 196.493 216.181 196.493 216.368C196.493 216.462 196.505 216.552 196.528 216.638C196.559 216.724 196.614 216.806 196.692 216.884C196.77 216.962 196.875 217.037 197.008 217.107C197.148 217.17 197.328 217.221 197.547 217.26L199.749 217.696C200.546 217.854 201.214 218.05 201.753 218.285C202.291 218.52 202.725 218.794 203.052 219.107C203.38 219.42 203.614 219.768 203.754 220.151C203.902 220.534 203.976 220.948 203.975 221.393C203.975 222.088 203.81 222.698 203.481 223.221C203.16 223.744 202.734 224.181 202.202 224.532C201.678 224.875 201.084 225.132 200.42 225.303C199.763 225.482 199.099 225.571 198.427 225.57C197.99 225.569 197.591 225.542 197.232 225.486C196.881 225.431 196.56 225.357 196.271 225.263C195.99 225.168 195.737 225.059 195.51 224.933C195.292 224.8 195.089 224.656 194.901 224.499L192.78 224.497L192.784 221.239L196.101 221.243L196.1 221.313C196.108 221.54 196.178 221.739 196.311 221.911C196.443 222.075 196.615 222.216 196.826 222.334C197.044 222.451 197.29 222.541 197.564 222.604C197.837 222.659 198.126 222.687 198.431 222.687C199.134 222.688 199.646 222.599 199.966 222.419C200.287 222.232 200.447 221.994 200.448 221.705C200.448 221.479 200.37 221.287 200.214 221.131C200.058 220.966 199.781 220.837 199.382 220.743L197.133 220.26C195.719 219.985 194.653 219.53 193.935 218.896C193.217 218.255 192.859 217.434 192.86 216.434C192.861 215.848 192.998 215.317 193.272 214.841C193.546 214.357 193.918 213.947 194.387 213.612C194.856 213.269 195.404 213.004 196.029 212.817C196.662 212.63 197.338 212.537 198.056 212.538C198.549 212.539 198.986 212.571 199.369 212.634C199.752 212.689 200.095 212.763 200.4 212.857C200.704 212.952 200.97 213.065 201.196 213.198C201.431 213.324 201.637 213.457 201.817 213.597L203.856 213.6L203.852 216.858L200.829 216.854ZM213.263 216.869C213.263 216.682 213.201 216.502 213.076 216.33C212.959 216.158 212.783 216.009 212.549 215.884C212.315 215.751 212.026 215.645 211.682 215.567C211.346 215.488 210.964 215.448 210.534 215.448C210.37 215.448 210.194 215.463 210.006 215.494C209.819 215.517 209.643 215.564 209.479 215.634C209.323 215.704 209.19 215.802 209.08 215.927C208.978 216.044 208.928 216.196 208.927 216.383C208.927 216.477 208.939 216.567 208.962 216.653C208.993 216.739 209.048 216.821 209.126 216.899C209.204 216.978 209.309 217.052 209.442 217.122C209.583 217.185 209.762 217.236 209.981 217.275L212.183 217.712C212.98 217.869 213.648 218.065 214.187 218.3C214.725 218.535 215.159 218.809 215.486 219.122C215.814 219.435 216.048 219.783 216.188 220.166C216.336 220.549 216.41 220.963 216.409 221.408C216.409 222.104 216.244 222.713 215.915 223.236C215.594 223.759 215.168 224.196 214.636 224.547C214.112 224.89 213.518 225.147 212.854 225.318C212.197 225.497 211.533 225.586 210.861 225.585C210.424 225.585 210.025 225.557 209.666 225.502C209.315 225.446 208.994 225.372 208.705 225.278C208.424 225.184 208.171 225.074 207.944 224.949C207.726 224.816 207.523 224.671 207.335 224.514L205.214 224.512L205.218 221.254L208.535 221.258L208.535 221.328C208.542 221.555 208.612 221.754 208.745 221.926C208.877 222.09 209.049 222.231 209.26 222.349C209.478 222.466 209.724 222.556 209.998 222.619C210.271 222.674 210.56 222.702 210.865 222.702C211.568 222.703 212.08 222.614 212.4 222.435C212.721 222.247 212.881 222.009 212.882 221.72C212.882 221.494 212.804 221.302 212.648 221.146C212.492 220.982 212.215 220.852 211.816 220.758L209.567 220.275C208.153 220 207.087 219.545 206.369 218.912C205.652 218.27 205.293 217.449 205.294 216.449C205.295 215.863 205.432 215.332 205.706 214.856C205.981 214.372 206.352 213.962 206.821 213.627C207.29 213.284 207.838 213.019 208.463 212.832C209.096 212.645 209.772 212.552 210.491 212.553C210.983 212.554 211.42 212.586 211.803 212.649C212.186 212.704 212.529 212.779 212.834 212.873C213.138 212.967 213.404 213.08 213.63 213.213C213.865 213.339 214.071 213.472 214.251 213.613L216.29 213.615L216.286 216.873L213.263 216.869ZM225.49 213.169L231.232 213.176L231.222 222.106L232.686 222.108L232.682 225.319L227.538 225.312L227.539 224.281C227.125 224.656 226.64 224.944 226.085 225.147C225.53 225.349 224.889 225.45 224.163 225.449C223.491 225.448 222.858 225.342 222.265 225.13C221.671 224.919 221.152 224.602 220.707 224.179C220.27 223.749 219.923 223.213 219.666 222.572C219.417 221.931 219.293 221.177 219.294 220.31L219.299 216.373L217.717 216.371L217.721 213.16L223.088 213.166L223.079 220.315C223.078 221.127 223.284 221.737 223.698 222.144C224.112 222.543 224.65 222.743 225.315 222.743C225.783 222.744 226.209 222.6 226.592 222.311C226.976 222.023 227.253 221.632 227.426 221.14L227.432 216.383L225.486 216.38L225.49 213.169ZM245.009 217.611L241.716 217.607L241.717 216.353C241.397 216.353 241.104 216.376 240.838 216.422C240.573 216.461 240.338 216.531 240.135 216.633C239.94 216.734 239.771 216.874 239.631 217.054C239.498 217.233 239.403 217.456 239.348 217.721L239.343 222.116L241.816 222.119L241.812 225.33L233.89 225.32L233.894 222.109L235.71 222.112L235.717 216.393L233.924 216.391L233.928 213.18L239.331 213.186L239.33 214.042C239.674 213.769 240.061 213.558 240.49 213.41C240.92 213.262 241.389 213.189 241.897 213.189C242.413 213.19 242.944 213.195 243.491 213.203C244.038 213.212 244.545 213.216 245.014 213.217L245.009 217.611ZM253.977 224.689C253.704 224.86 253.453 225.008 253.227 225.133C253 225.25 252.773 225.343 252.547 225.413C252.32 225.491 252.085 225.546 251.843 225.577C251.601 225.615 251.335 225.635 251.046 225.634C250.32 225.633 249.668 225.535 249.09 225.339C248.52 225.135 248.036 224.861 247.638 224.517C247.247 224.165 246.947 223.754 246.737 223.285C246.526 222.808 246.421 222.293 246.422 221.738C246.423 221.175 246.529 220.656 246.74 220.18C246.96 219.703 247.273 219.298 247.679 218.962C248.086 218.619 248.583 218.354 249.169 218.167C249.763 217.972 250.439 217.876 251.196 217.877C251.751 217.877 252.255 217.909 252.708 217.972C253.169 218.027 253.595 218.098 253.985 218.185L253.986 217.81C253.986 217.505 253.928 217.243 253.811 217.024C253.694 216.798 253.53 216.614 253.319 216.473C253.108 216.324 252.855 216.218 252.558 216.156C252.261 216.085 251.937 216.049 251.585 216.049C250.851 216.048 250.202 216.121 249.64 216.269C249.085 216.409 248.55 216.615 248.034 216.888L246.911 214.613C247.709 214.068 248.541 213.651 249.409 213.363C250.284 213.075 251.21 212.931 252.187 212.932C252.945 212.933 253.644 213.02 254.284 213.193C254.932 213.358 255.487 213.632 255.947 214.015C256.408 214.391 256.766 214.883 257.024 215.493C257.288 216.103 257.42 216.845 257.419 217.72L257.414 222.138L259.043 222.14L259.039 225.351L253.976 225.345L253.977 224.689ZM251.307 222.869C251.862 222.87 252.366 222.78 252.82 222.601C253.273 222.422 253.66 222.204 253.98 221.946L253.982 220.399L251.17 220.396C250.99 220.396 250.814 220.423 250.642 220.477C250.471 220.532 250.314 220.61 250.173 220.711C250.04 220.813 249.931 220.937 249.845 221.086C249.767 221.234 249.727 221.406 249.727 221.601C249.727 221.961 249.855 222.262 250.113 222.504C250.378 222.747 250.776 222.868 251.307 222.869ZM271.024 218.381C271.025 217.702 270.846 217.17 270.487 216.787C270.128 216.396 269.652 216.2 269.058 216.199C268.652 216.199 268.242 216.288 267.828 216.467C267.413 216.646 267.01 216.982 266.619 217.473L266.614 222.149L268.582 222.152L268.578 225.363L261.032 225.353L261.035 222.142L262.817 222.145L262.824 216.426L261.066 216.424L261.07 213.213L266.601 213.22L266.6 214.286C267.108 213.888 267.675 213.576 268.3 213.351C268.933 213.117 269.597 213.001 270.293 213.001C271.754 213.003 272.878 213.415 273.666 214.236C274.454 215.049 274.847 216.241 274.845 217.812L274.84 222.159L276.563 222.161L276.559 225.372L271.016 225.366L271.024 218.381ZM286.764 217.44C286.429 217.017 286.054 216.7 285.64 216.489C285.227 216.27 284.739 216.175 284.176 216.206C283.723 216.174 283.309 216.236 282.934 216.392C282.566 216.548 282.246 216.766 281.972 217.047C281.706 217.328 281.498 217.664 281.35 218.054C281.201 218.437 281.126 218.87 281.125 219.354C281.125 219.784 281.202 220.191 281.358 220.574C281.514 220.957 281.724 221.289 281.99 221.57C282.263 221.844 282.583 222.059 282.95 222.216C283.325 222.373 283.731 222.467 284.168 222.499C284.536 222.468 284.868 222.394 285.165 222.277C285.469 222.153 285.739 221.997 285.974 221.81C286.208 221.615 286.408 221.4 286.572 221.166C286.744 220.924 286.878 220.697 286.972 220.487L290.193 221.381C290.06 221.85 289.829 222.338 289.5 222.845C289.179 223.353 288.757 223.817 288.233 224.238C287.716 224.652 287.099 224.995 286.38 225.267C285.668 225.54 284.856 225.675 283.942 225.674C283.012 225.673 282.157 225.504 281.376 225.167C280.595 224.823 279.924 224.357 279.362 223.77C278.8 223.184 278.36 222.496 278.04 221.706C277.729 220.917 277.574 220.069 277.575 219.163C277.576 218.264 277.737 217.432 278.058 216.667C278.387 215.894 278.837 215.223 279.408 214.653C279.979 214.076 280.656 213.627 281.437 213.308C282.227 212.989 283.082 212.845 284.004 212.878C284.661 212.847 285.297 212.922 285.914 213.103C286.531 213.283 287.117 213.553 287.671 213.913L290.003 213.916L289.999 217.443L286.764 217.44ZM294.168 220.085L294.203 220.449C294.288 220.8 294.432 221.109 294.635 221.375C294.846 221.641 295.091 221.864 295.372 222.044C295.653 222.224 295.966 222.361 296.309 222.455C296.653 222.541 297.001 222.585 297.352 222.585C297.704 222.586 298.036 222.567 298.348 222.528C298.669 222.481 298.977 222.423 299.274 222.353C299.571 222.275 299.861 222.19 300.142 222.096C300.423 221.995 300.709 221.89 300.998 221.781L302.284 224.185C301.838 224.458 301.428 224.692 301.053 224.887C300.685 225.074 300.314 225.23 299.939 225.354C299.564 225.479 299.165 225.568 298.743 225.622C298.321 225.684 297.829 225.715 297.266 225.714C296.212 225.713 295.274 225.54 294.455 225.195C293.635 224.842 292.944 224.369 292.382 223.775C291.828 223.18 291.403 222.484 291.107 221.687C290.819 220.89 290.676 220.046 290.677 219.155C290.678 218.265 290.831 217.429 291.137 216.648C291.45 215.867 291.889 215.188 292.452 214.611C293.015 214.025 293.687 213.565 294.469 213.23C295.251 212.895 296.118 212.728 297.071 212.729C298.024 212.731 298.868 212.892 299.602 213.213C300.344 213.526 300.968 213.965 301.475 214.528C301.983 215.083 302.372 215.74 302.645 216.498C302.917 217.248 303.065 218.057 303.087 218.924C303.11 219.12 303.122 219.315 303.122 219.51C303.129 219.698 303.125 219.893 303.109 220.096L294.168 220.085ZM296.974 215.659C296.537 215.658 296.161 215.713 295.849 215.822C295.544 215.923 295.286 216.067 295.075 216.254C294.864 216.434 294.695 216.641 294.57 216.875C294.445 217.109 294.347 217.355 294.276 217.613L299.351 217.619C299.296 217.353 299.218 217.103 299.117 216.869C299.016 216.634 298.875 216.427 298.696 216.247C298.516 216.067 298.286 215.926 298.005 215.824C297.732 215.715 297.388 215.66 296.974 215.659Z" fill="white"/>
<defs>
<filter id="filter0_d_874_605" x="0.35508" y="0.71183" width="472.475" height="527.667" filterUnits="userSpaceOnUse" color-interpolation-filters="sRGB">
<feFlood flood-opacity="0" result="BackgroundImageFix"/>
<feColorMatrix in="SourceAlpha" type="matrix" values="0 0 0 0 0 0 0 0 0 0 0 0 0 0 0 0 0 0 127 0" result="hardAlpha"/>
<feOffset dy="4"/>
<feGaussianBlur stdDeviation="19.8"/>
<feComposite in2="hardAlpha" operator="out"/>
<feColorMatrix type="matrix" values="0 0 0 0 0 0 0 0 0 0 0 0 0 0 0 0 0 0 0.33 0"/>
<feBlend mode="normal" in2="BackgroundImageFix" result="effect1_dropShadow_874_605"/>
<feBlend mode="normal" in="SourceGraphic" in2="effect1_dropShadow_874_605" result="shape"/>
</filter>
</defs>
</svg>
