<svg width="174" height="175" viewBox="0 0 174 175" fill="none" xmlns="http://www.w3.org/2000/svg">
<circle cx="87.25" cy="87.6582" r="86.7031" fill="#007FBB"/>
<path d="M89.4241 22.6973C89.2285 22.683 89.0664 22.6075 88.9376 22.4709C88.8212 22.3236 88.7701 22.1522 88.7844 21.9567C88.7987 21.7611 88.8741 21.5989 89.0107 21.4702C89.1588 21.3422 89.3307 21.2854 89.5262 21.2997L92.7872 21.538C92.9828 21.5523 93.1445 21.6335 93.2725 21.7816C93.4004 21.9297 93.4572 22.1015 93.4429 22.2971C93.4287 22.4926 93.3474 22.6544 93.1993 22.7823C93.0521 22.8988 92.8806 22.9498 92.6851 22.9355L89.4241 22.6973Z" fill="white"/>
<path d="M109.183 31.1303C108.105 30.7189 107.224 30.1169 106.539 29.3245C105.869 28.5254 105.453 27.5948 105.29 26.5328C105.143 25.4642 105.293 24.3426 105.742 23.1682C106.19 21.9938 106.823 21.0628 107.642 20.3752C108.475 19.6809 109.405 19.2647 110.433 19.1264C111.476 18.9815 112.536 19.1147 113.614 19.5262C114.347 19.8059 114.966 20.1411 115.471 20.5315C115.987 20.9261 116.469 21.394 116.916 21.9353C117.104 22.1551 117.144 22.4051 117.037 22.6852C116.976 22.8468 116.861 22.9697 116.693 23.0537C116.529 23.127 116.35 23.1266 116.156 23.0525C116.048 23.0114 115.96 22.9528 115.89 22.8768C115.511 22.4479 115.119 22.0825 114.716 21.7804C114.313 21.4783 113.815 21.2141 113.222 20.9878C112.296 20.6339 111.43 20.5255 110.625 20.6624C109.834 20.7926 109.144 21.128 108.555 21.6685C107.981 22.2023 107.533 22.8894 107.212 23.7298C106.892 24.5702 106.765 25.3862 106.833 26.1776C106.916 26.9624 107.207 27.6722 107.705 28.3069C108.219 28.935 108.939 29.426 109.865 29.7798C110.458 30.0061 111.005 30.141 111.507 30.1845C112.009 30.228 112.544 30.2163 113.113 30.1496C113.215 30.1394 113.321 30.1549 113.428 30.196C113.622 30.2701 113.756 30.389 113.829 30.5528C113.903 30.7165 113.906 30.8846 113.84 31.057C113.733 31.3371 113.537 31.4966 113.25 31.5354C112.556 31.6406 111.885 31.6683 111.237 31.6185C110.6 31.5728 109.915 31.4101 109.183 31.1303Z" fill="white"/>
<path d="M117.939 35.3338C117.51 35.062 117.166 34.7211 116.907 34.311C116.658 33.9071 116.532 33.4717 116.527 33.0046C116.529 32.5279 116.669 32.0703 116.947 31.632C117.404 30.9113 118.051 30.5158 118.888 30.4456C119.734 30.3815 120.708 30.6985 121.808 31.3965L123.576 32.5177L123.65 32.4008C124.058 31.758 124.191 31.1934 124.048 30.7071C123.916 30.227 123.514 29.7739 122.842 29.3476C122.472 29.1129 122.122 28.9321 121.793 28.8052C121.473 28.6845 121.101 28.5714 120.676 28.4659C120.586 28.4359 120.516 28.4055 120.468 28.3746C120.322 28.282 120.229 28.1481 120.19 27.973C120.151 27.7979 120.18 27.6325 120.279 27.4766C120.446 27.2137 120.69 27.1089 121.011 27.1624C122.061 27.3368 123.015 27.6959 123.872 28.2395C124.544 28.6657 125.023 29.1603 125.307 29.7234C125.602 30.2926 125.717 30.8643 125.654 31.4385C125.606 32.0091 125.421 32.5476 125.1 33.0541L122.478 37.1885C122.361 37.3736 122.194 37.4862 121.977 37.5263C121.77 37.5726 121.574 37.5371 121.389 37.4197C121.204 37.3023 121.088 37.1402 121.042 36.9333C120.996 36.7264 121.031 36.5304 121.148 36.3453L121.389 35.9655C120.199 36.2486 119.049 36.038 117.939 35.3338ZM119.177 34.4801C119.605 34.7519 120.084 34.9122 120.613 34.9609C121.148 34.9999 121.651 34.95 122.121 34.8113L122.9 33.5842L121.307 32.5742C119.837 31.6414 118.857 31.5597 118.369 32.3292C118.147 32.6798 118.085 33.0363 118.183 33.3989C118.29 33.7676 118.621 34.128 119.177 34.4801Z" fill="white"/>
<path d="M127.417 42.2544C126.564 41.4782 125.963 40.58 125.612 39.5597C125.56 39.3254 125.616 39.1186 125.779 38.9395C125.903 38.803 126.059 38.7262 126.246 38.7092C126.433 38.6922 126.599 38.7497 126.744 38.8816C126.821 38.9515 126.882 39.0384 126.928 39.1424C127.092 39.5102 127.279 39.8524 127.49 40.169C127.701 40.4856 127.977 40.7991 128.319 41.1096C129.266 41.9711 130.015 42.099 130.566 41.4933C130.744 41.297 130.769 41.0469 130.64 40.7427C130.52 40.4463 130.271 40.009 129.893 39.4309C129.498 38.8535 129.192 38.3495 128.976 37.9189C128.768 37.496 128.661 37.0479 128.655 36.5747C128.666 36.1006 128.865 35.6504 129.253 35.2238C129.796 34.6266 130.452 34.3344 131.22 34.3471C131.997 34.3675 132.786 34.7425 133.588 35.4721C134.245 36.0697 134.766 36.739 135.152 37.4801C135.241 37.6229 135.272 37.7684 135.246 37.9165C135.229 38.0725 135.174 38.2016 135.081 38.304C134.957 38.4405 134.797 38.5134 134.601 38.5226C134.414 38.5396 134.248 38.4821 134.103 38.3502C134.061 38.3114 134.013 38.2524 133.96 38.1732C133.605 37.5695 133.189 37.0504 132.711 36.6157C132.25 36.1966 131.81 35.9521 131.39 35.8821C130.987 35.8113 130.665 35.9082 130.424 36.1727C130.192 36.4286 130.14 36.7249 130.27 37.0617C130.401 37.3984 130.667 37.8512 131.069 38.4201C131.456 39.0059 131.749 39.5064 131.949 39.9216C132.156 40.3282 132.25 40.7646 132.231 41.2309C132.221 41.7049 132.014 42.1637 131.61 42.6073C131.114 43.1533 130.485 43.4076 129.724 43.37C128.971 43.3403 128.202 42.9684 127.417 42.2544Z" fill="white"/>
<path d="M134.949 50.2476C134.087 49.1357 133.726 48.0215 133.867 46.9049C134.025 45.7904 134.678 44.7879 135.826 43.8975C136.473 43.3957 137.162 43.0513 137.893 42.8642C138.623 42.6771 139.348 42.6989 140.067 42.9296C140.786 43.1603 141.424 43.6356 141.983 44.3557C142.506 45.0301 142.798 45.7371 142.861 46.4766C142.933 47.2091 142.803 47.9079 142.473 48.573C142.151 49.231 141.68 49.8003 141.06 50.2809C140.887 50.4152 140.696 50.469 140.485 50.4424C140.282 50.4249 140.106 50.3205 139.958 50.1291L136.364 45.4945C135.782 46.0621 135.469 46.6842 135.425 47.3609C135.38 48.0375 135.637 48.7359 136.196 49.4559C136.493 49.8387 136.787 50.1431 137.079 50.3691C137.378 50.6042 137.702 50.8055 138.051 50.9729C138.144 51.0176 138.225 51.0855 138.296 51.1766C138.409 51.3224 138.458 51.4889 138.443 51.676C138.427 51.8631 138.342 52.0168 138.187 52.1369C137.986 52.2924 137.726 52.3047 137.406 52.1737C136.929 51.9737 136.507 51.7394 136.138 51.4708C135.769 51.2022 135.373 50.7945 134.949 50.2476ZM140.503 48.7431C140.928 48.3694 141.21 47.9612 141.348 47.5183C141.494 47.0846 141.518 46.6643 141.421 46.2575C141.334 45.8437 141.17 45.4818 140.93 45.1719C140.69 44.8621 140.38 44.6133 140.001 44.4256C139.631 44.2308 139.218 44.1498 138.762 44.1825C138.305 44.2152 137.843 44.391 137.376 44.71L140.503 48.7431Z" fill="white"/>
<path d="M143.376 64.7038C142.953 63.6309 142.81 62.5593 142.946 61.4891C143.003 61.2559 143.144 61.0949 143.369 61.0061C143.541 60.9384 143.714 60.9382 143.889 61.0055C144.065 61.0727 144.188 61.1976 144.26 61.38C144.298 61.4766 144.315 61.5816 144.31 61.6951C144.295 62.0976 144.312 62.4875 144.362 62.8647C144.412 63.2419 144.521 63.6451 144.69 64.0743C145.16 65.2652 145.775 65.7106 146.537 65.4102C146.784 65.3129 146.917 65.0994 146.935 64.7697C146.958 64.4507 146.928 63.9483 146.843 63.2625C146.744 62.5703 146.692 61.9832 146.688 61.5013C146.688 61.0301 146.79 60.5808 146.994 60.1535C147.212 59.7327 147.59 59.4165 148.126 59.205C148.877 58.9089 149.594 58.936 150.278 59.2863C150.966 59.6474 151.509 60.3323 151.906 61.3408C152.232 62.167 152.405 62.9978 152.424 63.8331C152.44 64.0003 152.404 64.1447 152.316 64.2663C152.232 64.3987 152.125 64.4902 151.996 64.541C151.825 64.6087 151.649 64.6035 151.47 64.5255C151.294 64.4583 151.171 64.3334 151.099 64.151C151.078 64.0974 151.061 64.0234 151.049 63.9291C150.996 63.2307 150.852 62.581 150.615 61.9802C150.386 61.4008 150.099 60.9871 149.754 60.739C149.423 60.4975 149.091 60.4423 148.759 60.5735C148.437 60.7004 148.26 60.9437 148.228 61.3033C148.196 61.663 148.235 62.1868 148.346 62.8748C148.434 63.5713 148.476 64.1498 148.472 64.6102C148.478 65.0665 148.37 65.4996 148.147 65.9097C147.929 66.3306 147.541 66.651 146.983 66.8709C146.296 67.1417 145.62 67.0923 144.953 66.7227C144.291 66.3639 143.765 65.6909 143.376 64.7038Z" fill="white"/>
<path d="M146.393 74.2971C146.021 72.6549 146.577 71.6654 148.061 71.3285L153.292 70.1417L153.02 68.9439C152.999 68.8539 153.01 68.7688 153.05 68.6885C153.105 68.617 153.178 68.571 153.267 68.5506C153.38 68.5251 153.487 68.554 153.589 68.6373L156.353 70.4226C156.477 70.5009 156.55 70.585 156.57 70.675C156.591 70.765 156.573 70.8457 156.519 70.9173C156.467 71.0001 156.395 71.0517 156.306 71.0721L154.956 71.3784L155.388 73.2848C155.432 73.476 155.406 73.6475 155.31 73.7993C155.214 73.9511 155.071 74.0487 154.88 74.0921C154.7 74.1329 154.528 74.1068 154.365 74.0137C154.213 73.9181 154.116 73.7746 154.072 73.5834L153.64 71.677L148.545 72.8332C148.106 72.9327 147.848 73.0977 147.77 73.3283C147.706 73.5675 147.71 73.8446 147.781 74.1595C147.832 74.3844 147.917 74.6017 148.036 74.8114C148.057 74.8538 148.079 74.8962 148.1 74.9387C148.124 74.9924 148.145 75.0586 148.163 75.1373C148.199 75.2948 148.169 75.4494 148.073 75.6012C147.989 75.7504 147.862 75.8442 147.693 75.8825C147.435 75.9412 147.209 75.8565 147.015 75.6285C146.713 75.2357 146.506 74.7919 146.393 74.2971Z" fill="white"/>
<path d="M147.683 82.5709C147.647 81.9375 147.766 81.3764 148.039 80.8874C148.312 80.41 148.701 80.03 149.205 79.7475C149.71 79.4766 150.273 79.3236 150.895 79.2886L155.8 79.0127C156.019 79.0004 156.207 79.0648 156.365 79.2061C156.524 79.3589 156.61 79.5447 156.622 79.7635C156.634 79.9823 156.57 80.1707 156.429 80.3288C156.287 80.487 156.107 80.5722 155.888 80.5845L151.156 80.8507C149.751 80.9297 149.084 81.6026 149.155 82.8693C149.188 83.445 149.366 83.949 149.691 84.3813C150.016 84.825 150.444 85.2342 150.973 85.6087L156.155 85.3172C156.373 85.3049 156.562 85.3694 156.72 85.5106C156.879 85.6634 156.964 85.8492 156.977 86.068C156.989 86.2868 156.924 86.4753 156.783 86.6334C156.642 86.7915 156.462 86.8767 156.243 86.889L148.833 87.3059C148.614 87.3182 148.42 87.254 148.251 87.1134C148.092 86.9721 148.007 86.7921 147.995 86.5733C147.983 86.3545 148.047 86.1603 148.187 85.9906C148.34 85.8319 148.526 85.7463 148.745 85.734L149.453 85.6942C148.945 85.2838 148.532 84.8334 148.216 84.3429C147.9 83.8525 147.722 83.2618 147.683 82.5709Z" fill="white"/>
<path d="M147.431 95.1296C147.531 94.4216 147.804 93.7731 148.249 93.184C148.704 92.6079 149.302 92.1687 150.044 91.8664C150.796 91.5772 151.634 91.4983 152.559 91.6297C153.484 91.7611 154.261 92.0697 154.891 92.5553C155.531 93.0539 155.983 93.6424 156.248 94.3207C156.522 95.0121 156.609 95.7117 156.509 96.4197C156.35 97.5387 155.777 98.4533 154.791 99.1636L158.987 99.7599C159.215 99.7924 159.393 99.8934 159.521 100.063C159.646 100.244 159.694 100.443 159.663 100.66C159.632 100.877 159.526 101.048 159.345 101.174C159.176 101.301 158.982 101.349 158.765 101.319L147.649 99.7388C147.432 99.708 147.26 99.6078 147.133 99.4383C147.006 99.2687 146.957 99.0755 146.988 98.8585C147.019 98.6416 147.12 98.4637 147.291 98.3249C147.461 98.1976 147.654 98.1493 147.871 98.1802L148.316 98.2435C147.567 97.2866 147.272 96.2486 147.431 95.1296ZM148.855 95.5592C148.78 96.0844 148.825 96.5916 148.988 97.0808C149.161 97.5831 149.417 98.0388 149.755 98.4479L153.352 98.9591C153.79 98.6603 154.157 98.293 154.452 97.8573C154.757 97.4347 154.946 96.9607 155.021 96.4355C155.141 95.5905 154.969 94.8729 154.506 94.2828C154.042 93.6927 153.319 93.3279 152.337 93.1883C151.355 93.0488 150.559 93.1978 149.95 93.6354C149.34 94.0729 148.975 94.7142 148.855 95.5592Z" fill="white"/>
<path d="M141.607 104.108C141.675 103.912 141.804 103.767 141.994 103.674C142.181 103.592 142.373 103.584 142.569 103.652C142.656 103.682 142.738 103.728 142.814 103.791L145.18 105.793L153.731 105.293C153.855 105.287 153.966 105.301 154.064 105.335C154.271 105.406 154.421 105.537 154.515 105.727C154.618 105.922 154.635 106.122 154.564 106.33C154.511 106.482 154.421 106.604 154.292 106.694C154.16 106.794 154.019 106.85 153.869 106.859L146.754 107.231L152.088 111.936C152.366 112.19 152.451 112.476 152.342 112.792C152.271 112.999 152.135 113.147 151.933 113.237C151.743 113.33 151.544 113.341 151.337 113.27C151.239 113.236 151.151 113.188 151.075 113.125L141.878 104.969C141.593 104.7 141.502 104.413 141.607 104.108Z" fill="white"/>
<path d="M142.246 122.338C142.357 122.176 142.505 122.074 142.688 122.032C142.874 122.007 143.047 122.049 143.209 122.16C143.37 122.272 143.472 122.419 143.514 122.602C143.549 122.794 143.511 122.971 143.4 123.133L141.545 125.825C141.433 125.986 141.281 126.085 141.089 126.12C140.896 126.156 140.719 126.118 140.558 126.007C140.397 125.895 140.298 125.743 140.263 125.551C140.237 125.365 140.279 125.191 140.391 125.03L142.246 122.338Z" fill="white"/>
<path d="M124.965 135.147C125.863 134.424 126.827 133.966 127.857 133.774C128.885 133.598 129.898 133.707 130.898 134.102C131.895 134.514 132.788 135.209 133.576 136.188C134.364 137.167 134.849 138.184 135.031 139.237C135.21 140.306 135.101 141.32 134.702 142.277C134.302 143.251 133.652 144.1 132.754 144.823C132.143 145.315 131.542 145.68 130.95 145.92C130.349 146.167 129.702 146.347 129.009 146.461C128.724 146.512 128.488 146.421 128.3 146.187C128.192 146.053 128.143 145.892 128.155 145.704C128.175 145.526 128.265 145.372 128.427 145.241C128.517 145.169 128.612 145.122 128.713 145.1C129.274 144.988 129.787 144.835 130.251 144.639C130.716 144.443 131.195 144.146 131.689 143.748C132.461 143.126 132.992 142.433 133.279 141.668C133.565 140.92 133.623 140.155 133.453 139.374C133.282 138.609 132.914 137.876 132.35 137.175C131.786 136.475 131.145 135.954 130.427 135.614C129.707 135.29 128.947 135.184 128.148 135.294C127.347 135.421 126.56 135.795 125.787 136.417C125.293 136.815 124.901 137.22 124.61 137.631C124.32 138.043 124.06 138.511 123.831 139.036C123.788 139.13 123.722 139.213 123.632 139.285C123.47 139.415 123.3 139.471 123.122 139.451C122.943 139.432 122.796 139.351 122.681 139.207C122.493 138.973 122.454 138.723 122.565 138.456C122.824 137.803 123.138 137.21 123.508 136.675C123.868 136.148 124.354 135.639 124.965 135.147Z" fill="white"/>
<path d="M116.924 140.597C117.374 140.363 117.842 140.237 118.327 140.22C118.801 140.208 119.241 140.318 119.647 140.549C120.058 140.791 120.383 141.142 120.622 141.602C121.014 142.36 121.031 143.118 120.67 143.877C120.3 144.64 119.536 145.322 118.379 145.922L116.521 146.885L116.584 147.008C116.935 147.684 117.356 148.083 117.848 148.205C118.329 148.332 118.923 148.212 119.63 147.846C120.019 147.644 120.351 147.433 120.626 147.212C120.891 146.997 121.176 146.732 121.481 146.418C121.553 146.355 121.614 146.31 121.665 146.284C121.819 146.204 121.981 146.192 122.152 146.246C122.323 146.3 122.451 146.409 122.536 146.573C122.679 146.849 122.647 147.113 122.439 147.364C121.76 148.183 120.97 148.827 120.069 149.294C119.362 149.66 118.694 149.825 118.064 149.788C117.424 149.756 116.872 149.568 116.408 149.224C115.939 148.895 115.566 148.465 115.29 147.932L113.037 143.586C112.936 143.391 112.923 143.19 112.997 142.983C113.061 142.781 113.19 142.629 113.385 142.529C113.58 142.428 113.778 142.409 113.98 142.473C114.182 142.538 114.334 142.667 114.434 142.861L114.642 143.261C114.996 142.09 115.757 141.202 116.924 140.597ZM117.039 142.096C116.588 142.33 116.209 142.663 115.9 143.095C115.597 143.538 115.387 143.998 115.271 144.474L115.939 145.764L117.613 144.896C119.16 144.095 119.723 143.29 119.304 142.481C119.113 142.112 118.836 141.879 118.473 141.781C118.1 141.688 117.622 141.793 117.039 142.096Z" fill="white"/>
<path d="M106.184 145.296C107.284 144.951 108.363 144.885 109.421 145.097C109.65 145.17 109.8 145.323 109.872 145.554C109.928 145.73 109.915 145.903 109.836 146.073C109.756 146.243 109.623 146.357 109.436 146.416C109.337 146.447 109.231 146.456 109.118 146.443C108.717 146.399 108.327 146.389 107.947 146.411C107.568 146.433 107.158 146.514 106.718 146.652C105.496 147.035 105.008 147.617 105.253 148.398C105.332 148.651 105.535 148.799 105.863 148.841C106.179 148.887 106.683 148.892 107.373 148.857C108.07 148.808 108.66 148.799 109.141 148.829C109.611 148.863 110.051 148.997 110.463 149.23C110.867 149.478 111.155 149.878 111.328 150.428C111.569 151.198 111.491 151.912 111.092 152.568C110.683 153.229 109.961 153.721 108.927 154.045C108.079 154.311 107.238 154.423 106.404 154.383C106.236 154.387 106.094 154.341 105.979 154.244C105.853 154.15 105.77 154.038 105.728 153.906C105.673 153.729 105.691 153.555 105.781 153.381C105.861 153.211 105.994 153.097 106.181 153.038C106.236 153.021 106.311 153.01 106.406 153.004C107.107 153.002 107.765 152.904 108.381 152.711C108.976 152.525 109.409 152.268 109.681 151.941C109.946 151.629 110.025 151.302 109.918 150.961C109.814 150.63 109.584 150.437 109.228 150.379C108.871 150.322 108.346 150.323 107.652 150.384C106.951 150.422 106.371 150.423 105.912 150.385C105.456 150.359 105.032 150.22 104.639 149.968C104.235 149.72 103.943 149.31 103.764 148.738C103.543 148.034 103.641 147.362 104.057 146.724C104.462 146.089 105.171 145.613 106.184 145.296Z" fill="white"/>
<path d="M95.4942 147.753C96.8896 147.572 98.033 147.825 98.9246 148.512C99.8062 149.211 100.34 150.282 100.527 151.723C100.633 152.535 100.581 153.303 100.373 154.028C100.164 154.753 99.7787 155.367 99.2159 155.87C98.6532 156.374 97.92 156.684 97.0165 156.801C96.1701 156.911 95.4121 156.806 94.7426 156.485C94.0745 156.177 93.5374 155.711 93.1311 155.089C92.7263 154.479 92.4735 153.785 92.3726 153.007C92.3444 152.79 92.395 152.597 92.5245 152.429C92.6424 152.263 92.8215 152.164 93.0617 152.133L98.8777 151.379C98.6824 150.59 98.3042 150.005 97.7431 149.624C97.182 149.243 96.4496 149.112 95.5461 149.229C95.0657 149.291 94.6541 149.391 94.3114 149.529C93.9573 149.667 93.6198 149.845 93.2989 150.061C93.2134 150.119 93.1134 150.155 92.999 150.17C92.816 150.193 92.6477 150.151 92.4942 150.043C92.3406 149.935 92.2512 149.784 92.226 149.59C92.1934 149.338 92.3146 149.107 92.5897 148.897C93.0032 148.588 93.419 148.342 93.8374 148.16C94.2557 147.977 94.8079 147.842 95.4942 147.753ZM93.9812 153.305C94.0882 153.861 94.2977 154.31 94.6097 154.654C94.9103 154.998 95.2604 155.232 95.6601 155.355C96.0613 155.489 96.4563 155.531 96.8452 155.48C97.234 155.43 97.6053 155.288 97.959 155.057C98.3142 154.836 98.5932 154.521 98.7959 154.111C98.9985 153.701 99.0807 153.213 99.0423 152.648L93.9812 153.305Z" fill="white"/>
<path d="M78.6519 147.711C79.7916 147.888 80.7889 148.305 81.6439 148.963C81.8164 149.13 81.8841 149.333 81.847 149.572C81.8187 149.755 81.7313 149.904 81.5847 150.022C81.4381 150.139 81.2679 150.183 81.0742 150.153C80.9716 150.137 80.8726 150.098 80.7771 150.037C80.4371 149.82 80.0919 149.638 79.7413 149.491C79.3908 149.343 78.9875 149.234 78.5317 149.163C77.2666 148.967 76.5713 149.273 76.4458 150.082C76.4051 150.344 76.5223 150.567 76.7974 150.75C77.0611 150.931 77.5102 151.158 78.1447 151.431C78.7924 151.695 79.3252 151.947 79.7432 152.187C80.1497 152.425 80.4861 152.74 80.7521 153.131C81.005 153.532 81.0873 154.018 80.9989 154.588C80.8751 155.386 80.4894 155.991 79.8418 156.404C79.1827 156.815 78.3175 156.938 77.2462 156.772C76.3686 156.635 75.5645 156.365 74.8337 155.96C74.6812 155.889 74.5748 155.785 74.5144 155.648C74.4427 155.508 74.4175 155.37 74.4387 155.233C74.467 155.051 74.5601 154.902 74.7181 154.786C74.8647 154.669 75.0348 154.625 75.2286 154.655C75.2856 154.664 75.3579 154.687 75.4455 154.724C76.0747 155.032 76.7084 155.235 77.3467 155.334C77.9621 155.43 78.4642 155.391 78.8528 155.218C79.2283 155.054 79.4435 154.796 79.4983 154.442C79.5514 154.101 79.4307 153.825 79.1363 153.616C78.842 153.407 78.3701 153.176 77.7206 152.924C77.0747 152.648 76.5542 152.393 76.159 152.156C75.7621 151.931 75.4429 151.619 75.2014 151.22C74.9485 150.819 74.868 150.322 74.9599 149.729C75.0731 149 75.4574 148.441 76.1129 148.052C76.757 147.662 77.6033 147.548 78.6519 147.711Z" fill="white"/>
<path d="M68.8548 145.472C70.4605 145.98 71.034 146.959 70.5754 148.411L68.9599 153.525L70.1312 153.895C70.2191 153.922 70.2874 153.974 70.336 154.05C70.3702 154.133 70.3734 154.219 70.3456 154.307C70.3108 154.417 70.2318 154.495 70.1085 154.541L67.1719 156.026C67.0416 156.094 66.9325 156.114 66.8445 156.086C66.7566 156.058 66.6955 156.002 66.6614 155.919C66.6162 155.832 66.6075 155.745 66.6353 155.657L67.0522 154.337L65.1881 153.748C65.0012 153.689 64.8663 153.58 64.7836 153.421C64.7008 153.262 64.689 153.089 64.748 152.902C64.8036 152.726 64.9127 152.591 65.0754 152.497C65.2346 152.414 65.4077 152.403 65.5946 152.462L67.4587 153.05L69.0326 148.069C69.1681 147.64 69.1559 147.333 68.9962 147.15C68.822 146.974 68.5809 146.837 68.273 146.74C68.053 146.671 67.8226 146.634 67.5818 146.631C67.5344 146.628 67.4869 146.625 67.4395 146.622C67.381 146.615 67.3133 146.6 67.2363 146.576C67.0823 146.527 66.964 146.423 66.8812 146.264C66.795 146.116 66.7779 145.959 66.83 145.794C66.9099 145.541 67.0972 145.389 67.3918 145.337C67.8833 145.274 68.3709 145.32 68.8548 145.472Z" fill="white"/>
<path d="M61.0468 142.401C61.6111 142.691 62.0351 143.077 62.3188 143.56C62.5923 144.037 62.7233 144.565 62.712 145.143C62.6905 145.715 62.5375 146.278 62.253 146.832L60.0091 151.203C59.9091 151.398 59.7581 151.528 59.5562 151.593C59.3441 151.652 59.1406 151.632 58.9456 151.532C58.7507 151.432 58.6208 151.281 58.5559 151.079C58.491 150.877 58.5085 150.679 58.6086 150.484L60.7735 146.267C61.4161 145.015 61.1731 144.1 60.0445 143.52C59.5315 143.257 59.0064 143.156 58.4693 143.217C57.922 143.273 57.3528 143.435 56.762 143.702L54.3917 148.319C54.2916 148.514 54.1406 148.644 53.9387 148.709C53.7266 148.769 53.5231 148.748 53.3282 148.648C53.1332 148.548 53.0033 148.397 52.9384 148.195C52.8735 147.993 52.8911 147.795 52.9911 147.6L56.3807 140.998C56.4808 140.803 56.6344 140.668 56.8415 140.593C57.0433 140.528 57.2417 140.545 57.4367 140.645C57.6316 140.745 57.7667 140.899 57.8419 141.106C57.9015 141.318 57.8813 141.522 57.7812 141.717L57.4573 142.348C58.0684 142.117 58.6655 141.989 59.2486 141.964C59.8318 141.94 60.4311 142.085 61.0468 142.401Z" fill="white"/>
<path d="M50.4384 135.884C50.9981 136.329 51.4194 136.893 51.7024 137.575C51.9692 138.258 52.0452 138.997 51.9305 139.79C51.7995 140.584 51.4433 141.347 50.8619 142.078C50.2804 142.81 49.6209 143.324 48.8832 143.622C48.1294 143.921 47.393 144.013 46.674 143.898C45.9387 143.785 45.2913 143.506 44.7316 143.061C43.847 142.357 43.3479 141.401 43.2345 140.191L40.5964 143.508C40.4529 143.689 40.2757 143.791 40.0651 143.815C39.8454 143.832 39.6498 143.772 39.4783 143.636C39.3067 143.499 39.2126 143.321 39.1957 143.101C39.1717 142.891 39.2278 142.7 39.3642 142.528L46.3524 133.74C46.4888 133.569 46.6623 133.471 46.873 133.447C47.0837 133.423 47.2748 133.479 47.4463 133.615C47.6178 133.752 47.7201 133.929 47.7531 134.147C47.7772 134.358 47.721 134.549 47.5846 134.72L47.3046 135.072C48.5092 134.91 49.5538 135.181 50.4384 135.884ZM49.3472 136.895C48.9319 136.565 48.472 136.347 47.9673 136.24C47.4465 136.135 46.9241 136.125 46.4002 136.21L44.139 139.053C44.1748 139.583 44.3059 140.085 44.5325 140.56C44.7428 141.036 45.0556 141.44 45.4708 141.77C46.1388 142.301 46.8446 142.516 47.5882 142.415C48.3318 142.314 49.0123 141.875 49.6297 141.099C50.247 140.322 50.5213 139.56 50.4524 138.813C50.3836 138.066 50.0152 137.427 49.3472 136.895Z" fill="white"/>
<path d="M45.6251 126.31C45.7606 126.468 45.8205 126.652 45.8048 126.864C45.7815 127.066 45.6913 127.235 45.534 127.371C45.4641 127.431 45.3829 127.478 45.2904 127.512L42.3677 128.546L38.4883 136.182C38.431 136.292 38.363 136.381 38.2844 136.449C38.1184 136.592 37.9297 136.656 37.7182 136.64C37.498 136.632 37.3164 136.545 37.1734 136.379C37.068 136.257 37.0088 136.117 36.9959 135.961C36.9755 135.796 36.9988 135.646 37.066 135.512L40.3334 129.18L33.5802 131.414C33.2202 131.526 32.9311 131.455 32.7127 131.202C32.5697 131.036 32.5104 130.844 32.5348 130.625C32.5506 130.413 32.6414 130.236 32.8074 130.093C32.8861 130.025 32.9716 129.974 33.0641 129.94L44.7445 126.11C45.1207 125.999 45.4143 126.066 45.6251 126.31Z" fill="white"/>
<path d="M29.5389 117.663C29.6223 117.84 29.6361 118.018 29.5802 118.198C29.509 118.371 29.3847 118.5 29.2073 118.583C29.0298 118.667 28.8515 118.681 28.6723 118.625C28.4881 118.558 28.3543 118.437 28.2709 118.259L26.8791 115.3C26.7957 115.123 26.7871 114.942 26.8535 114.758C26.9198 114.574 27.0417 114.44 27.2191 114.357C27.3965 114.273 27.5773 114.265 27.7614 114.331C27.9351 114.402 28.0637 114.527 28.1472 114.704L29.5389 117.663Z" fill="white"/>
<path d="M27.2079 96.3005C27.377 97.4414 27.2839 98.5045 26.9286 99.4899C26.5602 100.466 25.9528 101.284 25.1065 101.946C24.247 102.598 23.1955 103.016 21.952 103.201C20.7084 103.385 19.5866 103.289 18.5864 102.912C17.5731 102.526 16.7544 101.919 16.1302 101.09C15.493 100.252 15.0898 99.2624 14.9207 98.1215C14.8058 97.3457 14.7947 96.642 14.8877 96.0102C14.9789 95.3671 15.1508 94.7179 15.4035 94.0625C15.5032 93.7912 15.7014 93.6336 15.998 93.5896C16.1691 93.5643 16.3324 93.6042 16.4879 93.7094C16.632 93.8163 16.7193 93.9724 16.7497 94.1778C16.7666 94.2919 16.759 94.3979 16.7269 94.4959C16.5389 95.0368 16.412 95.557 16.3461 96.0564C16.2802 96.5559 16.2937 97.1194 16.3867 97.7468C16.5321 98.728 16.8618 99.5361 17.3756 100.171C17.8764 100.797 18.5066 101.234 19.2664 101.482C20.013 101.722 20.8313 101.775 21.7212 101.643C22.6111 101.511 23.3843 101.222 24.0409 100.775C24.6845 100.318 25.1609 99.7169 25.4701 98.9715C25.7663 98.2164 25.8417 97.3483 25.6963 96.3672C25.6033 95.7397 25.4528 95.1965 25.2449 94.7376C25.037 94.2787 24.7646 93.8178 24.4278 93.3547C24.3687 93.2702 24.3306 93.1709 24.3137 93.0568C24.2833 92.8514 24.3215 92.6767 24.4284 92.5326C24.5353 92.3885 24.68 92.3029 24.8626 92.2759C25.1592 92.2319 25.3946 92.3253 25.5687 92.556C26.0005 93.1099 26.3534 93.6814 26.6272 94.2704C26.8994 94.848 27.0929 95.5247 27.2079 96.3005Z" fill="white"/>
<path d="M26.5786 86.502C26.5521 87.0088 26.4238 87.4756 26.1936 87.9024C25.964 88.3177 25.6467 88.6418 25.2419 88.8747C24.8255 89.1071 24.3582 89.2097 23.8399 89.1826C22.9876 89.138 22.3255 88.7685 21.8537 88.074C21.3824 87.368 21.1808 86.3642 21.2488 85.0627L21.3581 82.9723L21.2199 82.965C20.4597 82.9253 19.9027 83.0867 19.5488 83.4494C19.1956 83.8005 18.9982 84.3734 18.9566 85.1681C18.9337 85.6058 18.9478 85.9992 18.9989 86.3483C19.0505 86.6859 19.1346 87.0657 19.2511 87.4875C19.2694 87.5809 19.277 87.6563 19.274 87.7139C19.2649 87.8867 19.1938 88.0331 19.0604 88.1532C18.9271 88.2733 18.7683 88.3285 18.584 88.3188C18.2731 88.3026 18.0621 88.1414 17.951 87.8353C17.5876 86.8347 17.4323 85.8276 17.4853 84.814C17.5268 84.0193 17.723 83.3597 18.0738 82.8352C18.4252 82.2992 18.8666 81.9181 19.3982 81.6918C19.9188 81.4534 20.4786 81.3498 21.0775 81.3811L25.9667 81.6367C26.1856 81.6482 26.3656 81.7384 26.5069 81.9075C26.6488 82.065 26.7141 82.2532 26.7026 82.4721C26.6912 82.6909 26.6067 82.8713 26.4491 83.0132C26.2916 83.1551 26.1034 83.2203 25.8845 83.2089L25.4354 83.1854C26.2661 84.0834 26.6472 85.189 26.5786 86.502ZM25.2272 85.8423C25.2537 85.3356 25.1583 84.8397 24.9411 84.3549C24.7124 83.8694 24.4222 83.4558 24.0705 83.114L22.6193 83.0382L22.5209 84.9213C22.43 86.6605 22.8394 87.5538 23.7493 87.6014C24.164 87.6231 24.5052 87.5023 24.773 87.2391C25.0415 86.9644 25.1929 86.4988 25.2272 85.8423Z" fill="white"/>
<path d="M27.9485 74.8713C27.6908 75.9955 27.2033 76.9605 26.4861 77.7663C26.3074 77.9265 26.1 77.9795 25.8639 77.9254C25.6841 77.8842 25.5408 77.7862 25.4343 77.6317C25.3277 77.4771 25.2964 77.3042 25.3402 77.1131C25.3634 77.0119 25.4091 76.9159 25.4772 76.8251C25.7171 76.5014 25.9232 76.17 26.0956 75.8309C26.268 75.4918 26.4058 75.0974 26.5089 74.6477C26.795 73.3999 26.5389 72.6845 25.7408 72.5015C25.4822 72.4422 25.252 72.5433 25.0501 72.8046C24.8507 73.0547 24.592 73.4865 24.2739 74.0998C23.9644 74.727 23.6752 75.2405 23.406 75.6402C23.1394 76.0288 22.8015 76.3418 22.392 76.5792C21.974 76.8028 21.4839 76.8502 20.9218 76.7214C20.1349 76.5409 19.5585 76.113 19.1928 75.4375C18.8296 74.7508 18.7691 73.8791 19.0114 72.8223C19.2098 71.9567 19.5372 71.1739 19.9935 70.4739C20.0746 70.3269 20.1859 70.2281 20.3276 70.1778C20.4719 70.1162 20.6115 70.1009 20.7464 70.1318C20.9263 70.1731 21.0682 70.2766 21.1722 70.4424C21.2787 70.597 21.3101 70.7698 21.2663 70.961C21.2534 71.0172 21.2254 71.0877 21.1823 71.1724C20.8304 71.7781 20.5824 72.3956 20.438 73.0252C20.2989 73.6322 20.3017 74.1358 20.4467 74.5358C20.583 74.922 20.8253 75.1551 21.1738 75.235C21.5111 75.3123 21.7945 75.2116 22.024 74.9329C22.2536 74.6543 22.5174 74.2 22.8157 73.5703C23.1363 72.9457 23.4287 72.4447 23.6927 72.0675C23.9454 71.6876 24.2795 71.3915 24.695 71.1791C25.1131 70.9555 25.6144 70.9107 26.199 71.0447C26.9185 71.2096 27.4485 71.6329 27.7893 72.3144C28.1325 72.9848 28.1856 73.8371 27.9485 74.8713Z" fill="white"/>
<path d="M31.2291 64.3989C30.6803 65.6945 29.8844 66.5536 28.8413 66.976C27.792 67.3833 26.5983 67.3036 25.2602 66.7369C24.5061 66.4175 23.869 65.9849 23.3487 65.4389C22.8285 64.8929 22.4933 64.2499 22.3432 63.51C22.1932 62.7701 22.2958 61.9807 22.6511 61.1417C22.984 60.3558 23.4577 59.7548 24.0723 59.3387C24.6762 58.9182 25.3492 58.6897 26.0911 58.6532C26.8224 58.6122 27.5491 58.7446 28.2713 59.0505C28.4731 59.1359 28.6137 59.2769 28.6933 59.4735C28.7774 59.6594 28.7722 59.8638 28.6778 60.0869L26.3906 65.4872C27.17 65.7171 27.8658 65.6861 28.4778 65.3942C29.0899 65.1024 29.5736 64.5369 29.929 63.6979C30.1179 63.2519 30.2396 62.8463 30.294 62.4811C30.353 62.1052 30.3703 61.7243 30.346 61.3382C30.3395 61.2353 30.3587 61.1307 30.4037 61.0245C30.4756 60.8546 30.597 60.7306 30.7678 60.6527C30.9386 60.5747 31.1143 60.5739 31.2948 60.6504C31.5285 60.7494 31.6665 60.9706 31.7088 61.3142C31.7671 61.8274 31.7691 62.3104 31.715 62.7635C31.6609 63.2165 31.4989 63.7617 31.2291 64.3989ZM27.2021 60.2885C26.6682 60.1 26.1743 60.0537 25.7204 60.1495C25.271 60.2347 24.8924 60.4188 24.5847 60.7018C24.2663 60.9803 24.0307 61.3001 23.8778 61.6612C23.7248 62.0223 23.6591 62.414 23.6806 62.8365C23.6915 63.2544 23.8227 63.6544 24.0742 64.0365C24.3257 64.4185 24.7049 64.7357 25.2118 64.9879L27.2021 60.2885Z" fill="white"/>
<path d="M39.7353 49.9743C39.006 50.8678 38.1413 51.5167 37.1412 51.9212C36.91 51.9856 36.7006 51.9412 36.513 51.788C36.37 51.6713 36.285 51.5201 36.258 51.3343C36.2311 51.1485 36.2795 50.9796 36.4035 50.8277C36.4692 50.7473 36.5527 50.6815 36.6541 50.6303C37.0125 50.4465 37.3442 50.2408 37.649 50.0132C37.9539 49.7856 38.2522 49.4932 38.5439 49.1358C39.3534 48.144 39.441 47.3893 38.8067 46.8714C38.6012 46.7037 38.35 46.6922 38.0532 46.837C37.7636 46.9729 37.3403 47.2452 36.7833 47.654C36.2279 48.079 35.741 48.4111 35.3226 48.6501C34.9114 48.8803 34.4697 49.011 33.9975 49.0424C33.5236 49.0575 33.0633 48.8828 32.6165 48.5181C31.9911 48.0076 31.6642 47.3685 31.6357 46.6009C31.6145 45.8243 31.9467 45.0161 32.6323 44.1763C33.1938 43.4883 33.8343 42.9317 34.5536 42.5065C34.6914 42.4106 34.835 42.3714 34.9843 42.3891C35.141 42.3979 35.2729 42.446 35.3801 42.5335C35.523 42.6502 35.6044 42.8059 35.6241 43.0007C35.6511 43.1865 35.6026 43.3553 35.4786 43.5072C35.4421 43.5519 35.3858 43.6026 35.3096 43.6595C34.7257 44.0465 34.2296 44.4901 33.8212 44.9905C33.4274 45.4729 33.2068 45.9256 33.1594 46.3484C33.1103 46.755 33.2243 47.0714 33.5013 47.2975C33.7693 47.5163 34.068 47.5516 34.3973 47.4035C34.7266 47.2555 35.1644 46.9653 35.7109 46.5329C36.2752 46.1152 36.7593 45.7957 37.1632 45.5745C37.5581 45.3461 37.9888 45.2287 38.4554 45.2225C38.9293 45.2074 39.3986 45.3894 39.8632 45.7686C40.435 46.2354 40.7226 46.8498 40.7259 47.6118C40.7365 48.3648 40.4063 49.1523 39.7353 49.9743Z" fill="white"/>
<path d="M46.6187 42.6521C45.3706 43.7825 44.2356 43.7835 43.2136 42.6552L39.6132 38.6804L38.7029 39.505C38.6345 39.5669 38.5553 39.5998 38.4653 39.6035C38.3761 39.5909 38.3005 39.5504 38.2386 39.482C38.1612 39.3966 38.1338 39.2891 38.1565 39.1595L38.3557 35.8747C38.3629 35.7281 38.4007 35.6238 38.4691 35.5619C38.5375 35.4999 38.6163 35.4752 38.7055 35.4878C38.8032 35.4926 38.8831 35.5292 38.945 35.5976L39.8741 36.6234L41.323 35.311C41.4683 35.1794 41.6306 35.118 41.8098 35.1268C41.989 35.1357 42.1444 35.2128 42.276 35.3581C42.3999 35.4949 42.4613 35.6571 42.4602 35.8449C42.4513 36.0241 42.3742 36.1795 42.2289 36.3111L40.78 37.6235L44.2875 41.4957C44.5894 41.8291 44.8599 41.9731 45.099 41.9278C45.3388 41.8662 45.5784 41.727 45.8177 41.5102C45.9887 41.3553 46.1364 41.1748 46.2609 40.9687C46.2874 40.9291 46.3138 40.8896 46.3403 40.8501C46.3753 40.8028 46.4227 40.7521 46.4825 40.6979C46.6022 40.5895 46.7516 40.5397 46.9308 40.5486C47.1023 40.5489 47.2461 40.6132 47.3622 40.7414C47.5403 40.938 47.5775 41.1766 47.4738 41.4573C47.2798 41.9131 46.9948 42.3114 46.6187 42.6521Z" fill="white"/>
<path d="M53.2161 37.4467C52.6817 37.7885 52.1346 37.9606 51.5747 37.9629C51.0245 37.9589 50.5027 37.8067 50.0092 37.5063C49.5255 37.1997 49.1158 36.784 48.7801 36.2594L46.1322 32.1208C46.0141 31.9362 45.9778 31.7404 46.0233 31.5333C46.0785 31.32 46.1984 31.1543 46.383 31.0362C46.5675 30.9181 46.7634 30.8818 46.9705 30.9273C47.1776 30.9727 47.3402 31.0878 47.4583 31.2724L50.013 35.2652C50.7713 36.4505 51.6848 36.7012 52.7535 36.0175C53.2392 35.7067 53.5907 35.3038 53.808 34.8088C54.035 34.3075 54.1817 33.7344 54.2483 33.0894L51.4512 28.7177C51.3331 28.5331 51.2967 28.3372 51.3422 28.1301C51.3974 27.9168 51.5173 27.7511 51.7019 27.633C51.8865 27.5149 52.0823 27.4786 52.2894 27.5241C52.4965 27.5696 52.6591 27.6846 52.7772 27.8692L56.7771 34.1208C56.8952 34.3054 56.9347 34.5061 56.8954 34.7229C56.8499 34.93 56.7349 35.0926 56.5503 35.2107C56.3657 35.3288 56.165 35.3682 55.9482 35.3289C55.7348 35.2737 55.5691 35.1538 55.451 34.9693L55.0688 34.3718C54.9607 35.016 54.7706 35.5963 54.4985 36.1127C54.2264 36.6291 53.799 37.0737 53.2161 37.4467Z" fill="white"/>
<path d="M64.1896 31.56C63.5231 31.8191 62.8241 31.899 62.0926 31.7998C61.3676 31.6857 60.6916 31.3792 60.0647 30.8805C59.4443 30.3669 58.9648 29.6747 58.6263 28.804C58.2878 27.9332 58.176 27.1044 58.2907 26.3173C58.412 25.5153 58.7035 24.8328 59.1652 24.2697C59.6335 23.6917 60.2008 23.2731 60.8673 23.014C61.9208 22.6045 62.9987 22.6557 64.101 23.1676L62.5652 19.2171C62.4817 19.0021 62.4826 18.7976 62.568 18.6035C62.6642 18.4053 62.8144 18.2664 63.0186 18.187C63.2229 18.1076 63.4241 18.116 63.6224 18.2122C63.8164 18.2976 63.9532 18.4425 64.0326 18.6467L68.1007 29.1115C68.1801 29.3157 68.1771 29.5149 68.0917 29.7089C68.0063 29.903 67.8615 30.0397 67.6572 30.1191C67.453 30.1985 67.2484 30.1976 67.0436 30.1164C66.8496 30.0309 66.7128 29.8861 66.6334 29.6819L66.4704 29.2626C66.0033 30.3847 65.243 31.1505 64.1896 31.56ZM63.8664 30.1079C64.3608 29.9157 64.7813 29.6285 65.1277 29.2464C65.4807 28.8493 65.7527 28.4032 65.9439 27.9082L64.6275 24.5221C64.1522 24.2861 63.6524 24.1463 63.1281 24.1027C62.6103 24.0441 62.1042 24.1109 61.6097 24.3031C60.8143 24.6124 60.2729 25.1136 59.9856 25.8069C59.6982 26.5002 59.7343 27.3091 60.0936 28.2335C60.453 29.158 60.9728 29.7788 61.6529 30.096C62.3331 30.4132 63.0709 30.4172 63.8664 30.1079Z" fill="white"/>
<path d="M74.8785 32.2378C74.6743 32.2751 74.485 32.2334 74.3106 32.1128C74.1475 31.9901 74.0474 31.8267 74.0101 31.6225C73.9935 31.5317 73.994 31.4378 74.0115 31.3408L74.5992 28.2968L69.9775 21.0859C69.9114 20.9807 69.869 20.877 69.8504 20.7749C69.8111 20.5593 69.8517 20.3643 69.9723 20.1899C70.0908 20.0042 70.2578 19.8916 70.4734 19.8523C70.6323 19.8233 70.7824 19.8428 70.9237 19.9108C71.0764 19.9768 71.1936 20.0726 71.2752 20.1984L75.0822 26.2215L76.5743 19.2668C76.6597 18.8995 76.8669 18.6858 77.1959 18.6258C77.4115 18.5865 77.6075 18.6328 77.784 18.7647C77.9584 18.8853 78.0653 19.0534 78.1046 19.269C78.1233 19.3711 78.1238 19.4706 78.1064 19.5676L75.4971 31.5798C75.4024 31.9605 75.1962 32.1798 74.8785 32.2378Z" fill="white"/>
</svg>
