<svg width="1174" height="800" viewBox="0 0 1174 800" fill="none" xmlns="http://www.w3.org/2000/svg">
<path d="M683.076 400.259C683.076 510.553 672.201 610.373 654.636 682.591C645.851 718.708 635.406 747.865 623.845 767.969C612.241 788.148 599.713 798.871 586.878 798.871C574.043 798.871 561.515 788.148 549.911 767.969C538.35 747.865 527.905 718.708 519.12 682.591C501.554 610.373 490.68 510.553 490.68 400.259C490.68 289.964 501.554 190.144 519.12 117.927C527.905 81.8098 538.35 52.6524 549.911 32.5485C561.515 12.3696 574.043 1.64648 586.878 1.64648C599.713 1.64648 612.241 12.3696 623.845 32.5485C635.406 52.6524 645.851 81.8098 654.636 117.927C672.201 190.144 683.076 289.964 683.076 400.259Z" stroke="#FE523A" stroke-width="2"/>
<path opacity="0.2" d="M1172.7 400.259C1172.7 510.18 1107.27 609.809 1001.26 682.001C895.253 754.189 748.751 798.871 586.88 798.871C425.009 798.871 278.507 754.189 172.5 682.001C66.4886 609.809 1.0625 510.18 1.0625 400.259C1.0625 290.337 66.4886 190.709 172.5 118.517C278.507 46.3282 425.009 1.64648 586.88 1.64648C748.751 1.64648 895.253 46.3282 1001.26 118.517C1107.27 190.709 1172.7 290.337 1172.7 400.259Z" stroke="#262261" stroke-width="2"/>
<path opacity="0.2" d="M841.482 400.259C841.482 510.447 812.913 610.156 766.775 682.288C720.63 754.431 657.003 798.871 586.878 798.871C516.753 798.871 453.126 754.431 406.981 682.288C360.843 610.156 332.273 510.447 332.273 400.259C332.273 290.071 360.843 190.361 406.981 118.229C453.126 46.086 516.753 1.64648 586.878 1.64648C657.003 1.64648 720.63 46.086 766.775 118.229C812.913 190.361 841.482 290.071 841.482 400.259Z" stroke="#0068FE" stroke-width="2"/>
<path opacity="0.2" d="M981.893 400.259C981.893 620.415 805.031 798.871 586.88 798.871C368.729 798.871 191.867 620.415 191.867 400.259C191.867 180.103 368.729 1.64648 586.88 1.64648C805.031 1.64648 981.893 180.103 981.893 400.259Z" stroke="#FE523A" stroke-width="2"/>
</svg>
