<svg width="1366" height="430" viewBox="0 0 1366 430" fill="none" xmlns="http://www.w3.org/2000/svg">
<g opacity="0.6">
<path d="M0 214.865H1366" stroke="black" stroke-opacity="0.5" stroke-width="1.13218"/>
<path d="M0 428.794H1366" stroke="black" stroke-opacity="0.5" stroke-width="1.13218"/>
<circle cx="554.068" cy="107.479" r="106.162" stroke="black" stroke-opacity="0.5" stroke-width="1.13218"/>
<circle cx="217.154" cy="322.067" r="106.162" stroke="black" stroke-opacity="0.5" stroke-width="1.13218"/>
<circle cx="1237.91" cy="322.067" r="106.162" stroke="black" stroke-opacity="0.5" stroke-width="1.13218"/>
<path d="M655.342 214.207C683.648 214.207 710.795 202.963 730.81 182.947C750.826 162.932 762.07 135.785 762.07 107.479C762.07 79.173 750.826 52.0263 730.81 32.0109C710.795 11.9955 683.648 0.750977 655.342 0.750972" stroke="black" stroke-opacity="0.5" stroke-width="1.13218"/>
<path d="M340.612 214.207C368.918 214.207 396.065 202.963 416.08 182.947C436.095 162.932 447.34 135.785 447.34 107.479C447.34 79.173 436.095 52.0263 416.08 32.0109C396.065 11.9955 368.918 0.750977 340.612 0.750972" stroke="black" stroke-opacity="0.5" stroke-width="1.13218"/>
<path d="M3.69773 428.795C32.0038 428.795 59.1505 417.551 79.1659 397.536C99.1812 377.52 110.426 350.373 110.426 322.067C110.426 293.761 99.1813 266.615 79.1659 246.599C59.1505 226.584 32.0038 215.339 3.69776 215.339" stroke="black" stroke-opacity="0.5" stroke-width="1.13218"/>
<path d="M994.556 428.795C966.25 428.795 939.103 417.551 919.088 397.536C899.073 377.52 887.828 350.373 887.828 322.067C887.828 293.761 899.073 266.615 919.088 246.599C939.103 226.584 966.25 215.339 994.556 215.339" stroke="black" stroke-opacity="0.5" stroke-width="1.13218"/>
</g>
<path d="M520.242 104.802H583.418" stroke="#262261" stroke-width="6"/>
<path d="M557.875 81.6729C559.003 89.3764 565.712 104.783 583.523 104.783" stroke="#262261" stroke-width="6"/>
<path d="M557.875 127.894C559.003 120.191 565.712 104.783 583.523 104.783" stroke="#262261" stroke-width="6"/>
</svg>
