<svg width="174" height="174" viewBox="0 0 174 174" fill="none" xmlns="http://www.w3.org/2000/svg">
<circle cx="87.25" cy="86.8271" r="86.7031" fill="#D02710"/>
<path d="M89.4241 21.8662C89.2285 21.8519 89.0664 21.7765 88.9376 21.6399C88.8212 21.4926 88.7701 21.3212 88.7844 21.1256C88.7987 20.9301 88.8741 20.7679 89.0107 20.6391C89.1588 20.5112 89.3307 20.4543 89.5262 20.4686L92.7872 20.7069C92.9828 20.7212 93.1445 20.8024 93.2725 20.9505C93.4004 21.0987 93.4572 21.2705 93.4429 21.466C93.4287 21.6616 93.3474 21.8233 93.1993 21.9513C93.0521 22.0677 92.8806 22.1188 92.6851 22.1045L89.4241 21.8662Z" fill="white"/>
<path d="M109.183 30.2993C108.105 29.8879 107.224 29.2859 106.539 28.4935C105.869 27.6944 105.453 26.7638 105.29 25.7018C105.143 24.6332 105.293 23.5116 105.742 22.3372C106.19 21.1628 106.823 20.2318 107.642 19.5442C108.475 18.8499 109.405 18.4337 110.433 18.2954C111.476 18.1505 112.536 18.2837 113.614 18.6951C114.347 18.9749 114.966 19.31 115.471 19.7005C115.987 20.095 116.469 20.563 116.916 21.1043C117.104 21.3241 117.144 21.5741 117.037 21.8542C116.975 22.0158 116.861 22.1386 116.693 22.2227C116.529 22.2959 116.35 22.2955 116.156 22.2215C116.048 22.1803 115.96 22.1218 115.89 22.0457C115.511 21.6169 115.119 21.2514 114.716 20.9493C114.313 20.6472 113.815 20.383 113.222 20.1568C112.296 19.8029 111.43 19.6945 110.625 19.8314C109.834 19.9616 109.144 20.297 108.555 20.8375C107.981 21.3713 107.533 22.0584 107.212 22.8988C106.892 23.7392 106.765 24.5551 106.833 25.3466C106.916 26.1314 107.207 26.8411 107.705 27.4759C108.219 28.104 108.939 28.5949 109.865 28.9488C110.458 29.175 111.005 29.3099 111.507 29.3535C112.009 29.397 112.544 29.3853 113.113 29.3185C113.215 29.3084 113.321 29.3238 113.428 29.365C113.622 29.439 113.756 29.558 113.829 29.7217C113.902 29.8855 113.906 30.0536 113.84 30.226C113.733 30.5061 113.537 30.6656 113.25 30.7044C112.556 30.8095 111.885 30.8372 111.237 30.7875C110.6 30.7418 109.915 30.5791 109.183 30.2993Z" fill="white"/>
<path d="M117.939 34.5028C117.51 34.2309 117.166 33.89 116.907 33.48C116.658 33.0761 116.532 32.6406 116.527 32.1736C116.529 31.6968 116.669 31.2393 116.947 30.801C117.404 30.0803 118.051 29.6848 118.888 29.6145C119.734 29.5505 120.708 29.8674 121.808 30.5655L123.576 31.6866L123.65 31.5698C124.058 30.927 124.191 30.3624 124.048 29.8761C123.916 29.396 123.514 28.9428 122.842 28.5166C122.472 28.2818 122.122 28.101 121.793 27.9741C121.473 27.8534 121.101 27.7403 120.676 27.6348C120.586 27.6049 120.516 27.5745 120.468 27.5436C120.322 27.4509 120.229 27.3171 120.19 27.142C120.151 26.9669 120.18 26.8014 120.279 26.6456C120.446 26.3826 120.69 26.2779 121.011 26.3314C122.062 26.5058 123.015 26.8648 123.872 27.4084C124.544 27.8347 125.023 28.3293 125.307 28.8923C125.602 29.4616 125.717 30.0333 125.654 30.6074C125.606 31.1781 125.421 31.7166 125.1 32.2231L122.478 36.3575C122.361 36.5425 122.194 36.6551 121.977 36.6953C121.77 36.7416 121.574 36.706 121.389 36.5887C121.204 36.4713 121.088 36.3092 121.042 36.1022C120.996 35.8953 121.031 35.6993 121.149 35.5143L121.389 35.1344C120.199 35.4175 119.049 35.207 117.939 34.5028ZM119.177 33.649C119.605 33.9208 120.084 34.0811 120.613 34.1299C121.148 34.1689 121.651 34.119 122.121 33.9803L122.9 32.7531L121.307 31.7431C119.837 30.8104 118.857 30.7287 118.369 31.4981C118.147 31.8487 118.085 32.2053 118.183 32.5678C118.29 32.9365 118.621 33.2969 119.177 33.649Z" fill="white"/>
<path d="M127.417 41.4233C126.564 40.6472 125.963 39.749 125.612 38.7286C125.56 38.4943 125.616 38.2876 125.779 38.1084C125.903 37.9719 126.059 37.8952 126.246 37.8782C126.433 37.8612 126.599 37.9187 126.744 38.0506C126.82 38.1205 126.882 38.2074 126.927 38.3114C127.092 38.6791 127.279 39.0214 127.49 39.338C127.701 39.6546 127.977 39.9681 128.319 40.2786C129.266 41.1401 130.015 41.268 130.566 40.6622C130.744 40.466 130.769 40.2158 130.64 39.9117C130.52 39.6153 130.271 39.178 129.893 38.5999C129.498 38.0225 129.192 37.5185 128.976 37.0879C128.768 36.665 128.661 36.2169 128.655 35.7436C128.666 35.2696 128.865 34.8193 129.253 34.3928C129.796 33.7956 130.452 33.5034 131.22 33.5161C131.996 33.5365 132.786 33.9115 133.588 34.6411C134.245 35.2387 134.766 35.908 135.152 36.6491C135.24 36.7919 135.272 36.9373 135.246 37.0855C135.229 37.2414 135.174 37.3706 135.081 37.473C134.957 37.6095 134.797 37.6823 134.601 37.6916C134.414 37.7086 134.248 37.6511 134.103 37.5192C134.061 37.4803 134.013 37.4214 133.96 37.3422C133.605 36.7385 133.189 36.2193 132.711 35.7847C132.25 35.3656 131.81 35.121 131.39 35.0511C130.987 34.9803 130.665 35.0772 130.424 35.3416C130.192 35.5976 130.14 35.8939 130.27 36.2307C130.401 36.5674 130.667 37.0202 131.069 37.589C131.456 38.1749 131.749 38.6754 131.949 39.0906C132.156 39.4972 132.25 39.9336 132.231 40.3998C132.221 40.8739 132.014 41.3327 131.61 41.7763C131.113 42.3223 130.485 42.5765 129.724 42.539C128.971 42.5093 128.202 42.1374 127.417 41.4233Z" fill="white"/>
<path d="M134.949 49.4166C134.087 48.3046 133.726 47.1904 133.867 46.0739C134.025 44.9594 134.678 43.9569 135.826 43.0664C136.473 42.5646 137.162 42.2202 137.893 42.0331C138.623 41.8461 139.348 41.8679 140.067 42.0985C140.786 42.3292 141.424 42.8046 141.983 43.5246C142.506 44.1991 142.798 44.9061 142.861 45.6456C142.933 46.3781 142.803 47.0768 142.473 47.7419C142.151 48.4 141.68 48.9693 141.06 49.4499C140.887 49.5841 140.696 49.638 140.485 49.6114C140.282 49.5939 140.106 49.4894 139.958 49.298L136.364 44.6634C135.782 45.231 135.469 45.8532 135.425 46.5298C135.38 47.2065 135.637 47.9048 136.196 48.6249C136.493 49.0077 136.787 49.3121 137.079 49.5381C137.378 49.7732 137.702 49.9745 138.051 50.1419C138.144 50.1865 138.225 50.2544 138.296 50.3456C138.409 50.4914 138.458 50.6579 138.443 50.845C138.427 51.0321 138.342 51.1857 138.187 51.3059C137.986 51.4613 137.726 51.4736 137.406 51.3426C136.929 51.1427 136.507 50.9084 136.138 50.6398C135.769 50.3712 135.373 49.9634 134.949 49.4166ZM140.503 47.912C140.928 47.5384 141.21 47.1301 141.348 46.6873C141.494 46.2535 141.518 45.8333 141.421 45.4265C141.334 45.0126 141.17 44.6508 140.93 44.3409C140.69 44.031 140.38 43.7822 140.001 43.5945C139.631 43.3998 139.218 43.3187 138.762 43.3514C138.305 43.3841 137.843 43.56 137.376 43.8789L140.503 47.912Z" fill="white"/>
<path d="M143.376 63.8728C142.953 62.7998 142.81 61.7282 142.946 60.6581C143.003 60.4249 143.144 60.2639 143.369 60.1751C143.541 60.1074 143.714 60.1072 143.889 60.1744C144.065 60.2417 144.188 60.3665 144.26 60.5489C144.298 60.6455 144.315 60.7505 144.31 60.864C144.295 61.2666 144.313 61.6565 144.362 62.0336C144.412 62.4108 144.521 62.814 144.69 63.2432C145.16 64.4342 145.775 64.8795 146.537 64.5792C146.784 64.4819 146.917 64.2684 146.935 63.9386C146.958 63.6196 146.928 63.1172 146.843 62.4315C146.744 61.7392 146.692 61.1521 146.688 60.6702C146.688 60.199 146.79 59.7498 146.994 59.3224C147.212 58.9016 147.59 58.5854 148.126 58.3739C148.877 58.0778 149.594 58.1049 150.278 58.4553C150.966 58.8164 151.509 59.5012 151.906 60.5098C152.232 61.336 152.405 62.1667 152.424 63.0021C152.44 63.1692 152.404 63.3136 152.316 63.4353C152.232 63.5676 152.125 63.6592 151.996 63.7099C151.825 63.7776 151.649 63.7725 151.47 63.6945C151.294 63.6272 151.171 63.5024 151.099 63.32C151.078 63.2663 151.061 63.1924 151.049 63.0981C150.996 62.3996 150.852 61.75 150.615 61.1491C150.386 60.5697 150.099 60.156 149.754 59.908C149.423 59.6665 149.091 59.6113 148.759 59.7424C148.437 59.8693 148.26 60.1126 148.228 60.4722C148.196 60.8319 148.235 61.3557 148.346 62.0438C148.434 62.7403 148.476 63.3187 148.472 63.7792C148.478 64.2354 148.37 64.6686 148.147 65.0787C147.929 65.4995 147.541 65.8199 146.983 66.0399C146.296 66.3106 145.62 66.2612 144.953 65.8917C144.291 65.5328 143.765 64.8599 143.376 63.8728Z" fill="white"/>
<path d="M146.393 73.466C146.021 71.8239 146.577 70.8344 148.061 70.4975L153.292 69.3107L153.02 68.1129C152.999 68.0229 153.01 67.9378 153.05 67.8575C153.105 67.786 153.178 67.74 153.267 67.7196C153.38 67.694 153.487 67.723 153.589 67.8063L156.353 69.5916C156.477 69.6699 156.55 69.754 156.57 69.844C156.591 69.9339 156.573 70.0147 156.519 70.0863C156.467 70.1691 156.395 70.2207 156.306 70.2411L154.956 70.5474L155.388 72.4538C155.432 72.645 155.406 72.8165 155.31 72.9683C155.214 73.1201 155.071 73.2177 154.88 73.2611C154.7 73.3019 154.528 73.2758 154.365 73.1827C154.213 73.087 154.116 72.9436 154.072 72.7524L153.64 70.846L148.545 72.0022C148.106 72.1017 147.848 72.2667 147.77 72.4973C147.706 72.7365 147.71 73.0135 147.781 73.3285C147.832 73.5534 147.917 73.7707 148.036 73.9803C148.057 74.0228 148.079 74.0652 148.1 74.1077C148.124 74.1613 148.145 74.2276 148.163 74.3063C148.199 74.4637 148.169 74.6184 148.073 74.7702C147.989 74.9194 147.862 75.0132 147.693 75.0515C147.435 75.1102 147.209 75.0255 147.015 74.7974C146.713 74.4047 146.506 73.9609 146.393 73.466Z" fill="white"/>
<path d="M147.683 81.7398C147.647 81.1065 147.766 80.5453 148.039 80.0563C148.312 79.5789 148.701 79.1989 149.205 78.9165C149.71 78.6455 150.273 78.4925 150.895 78.4575L155.8 78.1816C156.019 78.1693 156.207 78.2338 156.365 78.375C156.524 78.5278 156.61 78.7136 156.622 78.9324C156.634 79.1512 156.57 79.3396 156.429 79.4978C156.287 79.6559 156.107 79.7411 155.888 79.7534L151.156 80.0196C149.751 80.0987 149.084 80.7715 149.155 82.0382C149.188 82.6139 149.366 83.1179 149.691 83.5502C150.016 83.9939 150.444 84.4031 150.973 84.7776L156.155 84.4861C156.373 84.4738 156.562 84.5383 156.72 84.6796C156.879 84.8323 156.964 85.0181 156.977 85.2369C156.989 85.4557 156.924 85.6442 156.783 85.8023C156.642 85.9604 156.462 86.0456 156.243 86.0579L148.833 86.4748C148.614 86.4871 148.42 86.4229 148.251 86.2823C148.092 86.141 148.007 85.961 147.995 85.7422C147.983 85.5234 148.047 85.3292 148.187 85.1596C148.34 85.0008 148.526 84.9153 148.745 84.903L149.453 84.8631C148.945 84.4527 148.532 84.0023 148.216 83.5119C147.9 83.0214 147.722 82.4307 147.683 81.7398Z" fill="white"/>
<path d="M147.431 94.2986C147.531 93.5906 147.804 92.9421 148.249 92.3529C148.704 91.7768 149.302 91.3377 150.044 91.0354C150.796 90.7461 151.634 90.6672 152.559 90.7987C153.484 90.9301 154.261 91.2386 154.891 91.7242C155.531 92.2229 155.983 92.8114 156.248 93.4897C156.522 94.1811 156.609 94.8807 156.509 95.5887C156.35 96.7077 155.777 97.6223 154.791 98.3325L158.987 98.9289C159.215 98.9614 159.393 99.0624 159.521 99.2319C159.646 99.4129 159.694 99.6118 159.663 99.8288C159.632 100.046 159.526 100.217 159.345 100.343C159.176 100.47 158.982 100.518 158.765 100.488L147.649 98.9078C147.432 98.877 147.26 98.7768 147.133 98.6072C147.006 98.4377 146.957 98.2445 146.988 98.0275C147.019 97.8105 147.12 97.6327 147.291 97.4939C147.461 97.3666 147.654 97.3183 147.871 97.3492L148.316 97.4124C147.567 96.4556 147.272 95.4176 147.431 94.2986ZM148.855 94.7281C148.78 95.2534 148.825 95.7606 148.988 96.2498C149.161 96.7521 149.417 97.2078 149.755 97.6169L153.352 98.1281C153.79 97.8293 154.157 97.462 154.452 97.0263C154.757 96.6036 154.946 96.1297 155.021 95.6044C155.141 94.7595 154.969 94.0419 154.506 93.4518C154.042 92.8617 153.319 92.4969 152.337 92.3573C151.355 92.2178 150.559 92.3668 149.95 92.8043C149.34 93.2419 148.975 93.8832 148.855 94.7281Z" fill="white"/>
<path d="M141.607 103.277C141.675 103.081 141.804 102.936 141.994 102.843C142.181 102.761 142.372 102.753 142.569 102.821C142.656 102.851 142.738 102.897 142.814 102.96L145.18 104.962L153.731 104.462C153.855 104.456 153.966 104.47 154.064 104.504C154.271 104.575 154.421 104.706 154.514 104.896C154.618 105.091 154.635 105.291 154.564 105.498C154.511 105.651 154.421 105.773 154.292 105.863C154.16 105.963 154.019 106.019 153.869 106.028L146.754 106.4L152.088 111.105C152.366 111.359 152.451 111.645 152.342 111.961C152.271 112.168 152.135 112.316 151.933 112.406C151.743 112.499 151.544 112.51 151.337 112.438C151.238 112.405 151.151 112.356 151.075 112.294L141.878 104.138C141.593 103.869 141.502 103.582 141.607 103.277Z" fill="white"/>
<path d="M142.246 121.506C142.357 121.345 142.504 121.243 142.687 121.201C142.873 121.175 143.047 121.218 143.209 121.329C143.37 121.441 143.472 121.588 143.514 121.771C143.549 121.963 143.511 122.14 143.4 122.302L141.544 124.994C141.433 125.155 141.281 125.254 141.089 125.289C140.896 125.325 140.719 125.287 140.558 125.175C140.396 125.064 140.298 124.912 140.263 124.72C140.237 124.534 140.279 124.36 140.391 124.199L142.246 121.506Z" fill="white"/>
<path d="M124.965 134.316C125.863 133.593 126.827 133.135 127.857 132.943C128.885 132.767 129.898 132.876 130.897 133.271C131.895 133.683 132.788 134.378 133.576 135.357C134.364 136.336 134.849 137.353 135.031 138.406C135.21 139.475 135.101 140.489 134.702 141.446C134.302 142.42 133.652 143.269 132.754 143.992C132.143 144.484 131.542 144.849 130.95 145.089C130.349 145.336 129.702 145.516 129.009 145.63C128.724 145.681 128.488 145.59 128.3 145.356C128.191 145.222 128.143 145.061 128.155 144.873C128.175 144.695 128.265 144.541 128.427 144.41C128.517 144.338 128.612 144.291 128.713 144.269C129.274 144.157 129.787 144.004 130.251 143.808C130.715 143.612 131.195 143.315 131.689 142.917C132.461 142.295 132.992 141.602 133.279 140.837C133.565 140.089 133.623 139.324 133.453 138.543C133.282 137.778 132.914 137.045 132.35 136.344C131.785 135.644 131.144 135.123 130.427 134.783C129.707 134.459 128.947 134.353 128.148 134.463C127.347 134.59 126.56 134.964 125.787 135.586C125.293 135.984 124.901 136.389 124.61 136.8C124.32 137.212 124.06 137.68 123.831 138.205C123.788 138.299 123.722 138.382 123.632 138.454C123.47 138.584 123.3 138.64 123.122 138.62C122.943 138.601 122.796 138.52 122.681 138.376C122.493 138.142 122.454 137.892 122.565 137.625C122.824 136.972 123.138 136.379 123.508 135.844C123.868 135.317 124.354 134.808 124.965 134.316Z" fill="white"/>
<path d="M116.924 139.765C117.374 139.532 117.842 139.406 118.327 139.389C118.801 139.377 119.241 139.487 119.647 139.718C120.058 139.959 120.383 140.311 120.622 140.771C121.014 141.529 121.031 142.287 120.67 143.046C120.3 143.809 119.536 144.491 118.379 145.091L116.521 146.054L116.584 146.177C116.935 146.853 117.356 147.252 117.848 147.374C118.329 147.501 118.923 147.381 119.63 147.015C120.019 146.813 120.351 146.602 120.626 146.381C120.891 146.166 121.176 145.901 121.481 145.587C121.553 145.524 121.614 145.479 121.665 145.453C121.819 145.373 121.981 145.361 122.152 145.415C122.323 145.469 122.451 145.578 122.536 145.742C122.679 146.018 122.647 146.282 122.439 146.533C121.76 147.352 120.97 147.996 120.069 148.463C119.362 148.829 118.694 148.994 118.064 148.957C117.424 148.925 116.872 148.737 116.408 148.393C115.939 148.064 115.566 147.634 115.29 147.101L113.037 142.755C112.936 142.56 112.923 142.359 112.997 142.152C113.061 141.95 113.19 141.798 113.385 141.698C113.58 141.597 113.778 141.578 113.98 141.642C114.182 141.706 114.334 141.836 114.434 142.03L114.642 142.43C114.996 141.259 115.757 140.371 116.924 139.765ZM117.039 141.265C116.588 141.498 116.209 141.832 115.9 142.264C115.597 142.707 115.387 143.167 115.271 143.643L115.939 144.933L117.613 144.065C119.16 143.264 119.723 142.458 119.304 141.65C119.113 141.281 118.836 141.048 118.473 140.95C118.1 140.857 117.622 140.962 117.039 141.265Z" fill="white"/>
<path d="M106.184 144.465C107.284 144.12 108.363 144.054 109.421 144.266C109.65 144.339 109.8 144.492 109.872 144.723C109.928 144.899 109.915 145.072 109.836 145.242C109.756 145.412 109.623 145.526 109.436 145.585C109.337 145.616 109.231 145.625 109.118 145.612C108.717 145.568 108.327 145.558 107.947 145.58C107.568 145.602 107.158 145.682 106.718 145.82C105.496 146.203 105.008 146.786 105.253 147.567C105.332 147.82 105.535 147.968 105.863 148.01C106.179 148.056 106.683 148.061 107.373 148.026C108.07 147.977 108.66 147.967 109.141 147.998C109.611 148.032 110.051 148.166 110.463 148.399C110.867 148.647 111.155 149.046 111.328 149.597C111.569 150.367 111.491 151.081 111.092 151.737C110.683 152.398 109.961 152.89 108.927 153.214C108.079 153.48 107.238 153.592 106.404 153.552C106.236 153.556 106.094 153.51 105.979 153.413C105.853 153.319 105.77 153.207 105.728 153.074C105.673 152.898 105.691 152.724 105.781 152.55C105.861 152.38 105.994 152.266 106.181 152.207C106.236 152.19 106.311 152.179 106.406 152.173C107.107 152.171 107.765 152.073 108.381 151.88C108.976 151.694 109.409 151.437 109.681 151.11C109.946 150.797 110.025 150.471 109.918 150.129C109.814 149.799 109.584 149.605 109.228 149.548C108.871 149.491 108.346 149.492 107.652 149.553C106.951 149.591 106.371 149.591 105.912 149.554C105.456 149.528 105.032 149.389 104.639 149.137C104.235 148.889 103.943 148.479 103.764 147.907C103.543 147.202 103.641 146.531 104.057 145.893C104.462 145.258 105.171 144.782 106.184 144.465Z" fill="white"/>
<path d="M95.4942 146.922C96.8895 146.741 98.033 146.994 98.9245 147.681C99.8061 148.38 100.34 149.451 100.527 150.892C100.633 151.704 100.581 152.472 100.373 153.197C100.164 153.922 99.7787 154.536 99.2159 155.039C98.6532 155.543 97.92 155.853 97.0164 155.97C96.17 156.08 95.4121 155.975 94.7425 155.654C94.0745 155.346 93.5373 154.88 93.131 154.258C92.7262 153.648 92.4734 152.954 92.3726 152.176C92.3444 151.959 92.395 151.766 92.5244 151.598C92.6424 151.432 92.8215 151.333 93.0616 151.302L98.8776 150.548C98.6823 149.759 98.3041 149.174 97.743 148.793C97.1819 148.413 96.4496 148.281 95.546 148.398C95.0656 148.46 94.6541 148.56 94.3114 148.698C93.9573 148.836 93.6198 149.014 93.2989 149.23C93.2133 149.288 93.1133 149.324 92.999 149.339C92.816 149.362 92.6477 149.32 92.4941 149.212C92.3405 149.104 92.2512 148.953 92.2259 148.759C92.1933 148.507 92.3146 148.276 92.5897 148.066C93.0031 147.757 93.419 147.511 93.8373 147.329C94.2556 147.146 94.8079 147.011 95.4942 146.922ZM93.9812 152.474C94.0881 153.03 94.2976 153.479 94.6097 153.823C94.9102 154.167 95.2604 154.401 95.66 154.524C96.0612 154.658 96.4562 154.7 96.8451 154.649C97.234 154.599 97.6053 154.457 97.959 154.226C98.3142 154.005 98.5931 153.69 98.7958 153.28C98.9985 152.87 99.0806 152.382 99.0423 151.817L93.9812 152.474Z" fill="white"/>
<path d="M78.6518 146.88C79.7915 147.057 80.7889 147.474 81.6439 148.132C81.8164 148.299 81.8841 148.502 81.847 148.741C81.8187 148.924 81.7313 149.073 81.5847 149.191C81.4381 149.308 81.2679 149.352 81.0742 149.322C80.9716 149.306 80.8726 149.267 80.7771 149.205C80.4371 148.989 80.0919 148.807 79.7413 148.66C79.3907 148.512 78.9875 148.403 78.5316 148.332C77.2666 148.136 76.5713 148.442 76.4457 149.251C76.4051 149.513 76.5223 149.736 76.7974 149.919C77.0611 150.1 77.5102 150.327 78.1447 150.6C78.7924 150.864 79.3252 151.116 79.7431 151.356C80.1497 151.594 80.486 151.909 80.7521 152.3C81.005 152.701 81.0873 153.187 80.9989 153.757C80.8751 154.554 80.4894 155.16 79.8417 155.573C79.1827 155.984 78.3175 156.107 77.2462 155.941C76.3686 155.804 75.5644 155.534 74.8336 155.129C74.6812 155.058 74.5747 154.954 74.5144 154.816C74.4427 154.677 74.4174 154.539 74.4387 154.402C74.4669 154.22 74.5601 154.071 74.7181 153.955C74.8646 153.838 75.0348 153.794 75.2286 153.824C75.2855 153.833 75.3579 153.856 75.4455 153.893C76.0747 154.201 76.7084 154.404 77.3466 154.503C77.9621 154.599 78.4641 154.56 78.8528 154.387C79.2283 154.223 79.4435 153.965 79.4983 153.611C79.5513 153.269 79.4307 152.994 79.1363 152.785C78.8419 152.576 78.37 152.345 77.7206 152.093C77.0747 151.817 76.5542 151.562 76.159 151.325C75.7621 151.1 75.4428 150.788 75.2013 150.389C74.9484 149.988 74.868 149.491 74.9599 148.898C75.0731 148.169 75.4574 147.61 76.1129 147.221C76.757 146.831 77.6033 146.717 78.6518 146.88Z" fill="white"/>
<path d="M68.8548 144.641C70.4605 145.149 71.034 146.128 70.5754 147.58L68.9599 152.694L70.1311 153.064C70.2191 153.092 70.2874 153.143 70.336 153.219C70.3702 153.303 70.3733 153.388 70.3455 153.476C70.3108 153.586 70.2318 153.664 70.1085 153.71L67.1719 155.195C67.0416 155.263 66.9325 155.283 66.8445 155.255C66.7565 155.227 66.6955 155.171 66.6613 155.088C66.6162 155.001 66.6075 154.914 66.6353 154.826L67.0522 153.506L65.1881 152.917C65.0012 152.858 64.8663 152.749 64.7835 152.59C64.7008 152.431 64.6889 152.258 64.748 152.071C64.8036 151.895 64.9127 151.76 65.0754 151.666C65.2346 151.583 65.4076 151.572 65.5946 151.631L67.4587 152.219L69.0325 147.238C69.168 146.809 69.1559 146.502 68.9962 146.319C68.8219 146.143 68.5809 146.006 68.2729 145.909C68.053 145.84 67.8226 145.803 67.5818 145.8C67.5343 145.797 67.4869 145.794 67.4394 145.791C67.381 145.784 67.3132 145.769 67.2363 145.745C67.0823 145.696 66.9639 145.592 66.8812 145.433C66.7949 145.285 66.7779 145.128 66.83 144.963C66.9099 144.71 67.0972 144.558 67.3918 144.506C67.8832 144.443 68.3709 144.489 68.8548 144.641Z" fill="white"/>
<path d="M61.0468 141.57C61.6111 141.86 62.0351 142.246 62.3188 142.729C62.5923 143.206 62.7234 143.734 62.7121 144.312C62.6905 144.884 62.5375 145.447 62.2531 146.001L60.0092 150.372C59.9091 150.567 59.7581 150.697 59.5562 150.762C59.3441 150.821 59.1406 150.801 58.9457 150.701C58.7507 150.601 58.6208 150.45 58.5559 150.248C58.491 150.046 58.5086 149.848 58.6086 149.653L60.7735 145.436C61.4161 144.184 61.1731 143.269 60.0445 142.689C59.5315 142.426 59.0064 142.325 58.4693 142.386C57.922 142.442 57.3529 142.604 56.762 142.871L54.3917 147.488C54.2916 147.683 54.1406 147.813 53.9388 147.878C53.7266 147.937 53.5231 147.917 53.3282 147.817C53.1332 147.717 53.0033 147.566 52.9384 147.364C52.8735 147.162 52.8911 146.964 52.9911 146.769L56.3807 140.167C56.4808 139.972 56.6344 139.837 56.8415 139.761C57.0434 139.697 57.2418 139.714 57.4367 139.814C57.6317 139.914 57.7667 140.068 57.8419 140.275C57.9015 140.487 57.8813 140.691 57.7812 140.886L57.4573 141.517C58.0684 141.286 58.6655 141.158 59.2487 141.133C59.8318 141.109 60.4312 141.254 61.0468 141.57Z" fill="white"/>
<path d="M50.4385 135.053C50.9982 135.498 51.4195 136.062 51.7025 136.744C51.9693 137.427 52.0453 138.166 51.9305 138.958C51.7996 139.753 51.4434 140.516 50.8619 141.247C50.2805 141.979 49.6209 142.493 48.8833 142.79C48.1295 143.09 47.393 143.182 46.674 143.067C45.9388 142.954 45.2913 142.675 44.7317 142.23C43.847 141.526 43.348 140.57 43.2346 139.36L40.5965 142.677C40.4529 142.858 40.2758 142.96 40.0651 142.984C39.8454 143.001 39.6498 142.941 39.4783 142.805C39.3068 142.668 39.2126 142.49 39.1958 142.27C39.1717 142.06 39.2279 141.869 39.3643 141.697L46.3525 132.909C46.4889 132.738 46.6624 132.64 46.8731 132.616C47.0837 132.592 47.2748 132.648 47.4463 132.784C47.6178 132.921 47.7201 133.098 47.7532 133.316C47.7772 133.526 47.7211 133.718 47.5847 133.889L47.3047 134.241C48.5092 134.079 49.5538 134.35 50.4385 135.053ZM49.3472 136.064C48.932 135.734 48.472 135.516 47.9674 135.409C47.4465 135.304 46.9241 135.294 46.4002 135.379L44.139 138.222C44.1748 138.752 44.306 139.254 44.5325 139.729C44.7428 140.205 45.0556 140.609 45.4709 140.939C46.1389 141.47 46.8447 141.685 47.5883 141.584C48.3319 141.483 49.0124 141.044 49.6297 140.268C50.2471 139.491 50.5213 138.729 50.4525 137.982C50.3836 137.235 50.0152 136.596 49.3472 136.064Z" fill="white"/>
<path d="M45.6251 125.479C45.7606 125.637 45.8205 125.821 45.8048 126.033C45.7815 126.235 45.6913 126.404 45.534 126.54C45.4641 126.6 45.3829 126.647 45.2904 126.681L42.3677 127.715L38.4883 135.351C38.431 135.461 38.3631 135.55 38.2844 135.618C38.1184 135.761 37.9297 135.825 37.7182 135.809C37.498 135.801 37.3164 135.714 37.1734 135.548C37.068 135.426 37.0088 135.286 36.9959 135.13C36.9755 134.965 36.9989 134.815 37.0661 134.681L40.3334 128.349L33.5802 130.583C33.2202 130.695 32.9311 130.624 32.7128 130.371C32.5697 130.205 32.5104 130.013 32.5349 129.794C32.5506 129.582 32.6414 129.405 32.8075 129.262C32.8861 129.194 32.9716 129.143 33.0641 129.109L44.7445 125.279C45.1208 125.168 45.4143 125.235 45.6251 125.479Z" fill="white"/>
<path d="M29.5389 116.832C29.6224 117.009 29.6362 117.187 29.5803 117.367C29.509 117.54 29.3847 117.669 29.2073 117.752C29.0299 117.836 28.8515 117.85 28.6723 117.794C28.4882 117.727 28.3544 117.606 28.2709 117.428L26.8792 114.469C26.7957 114.292 26.7872 114.111 26.8535 113.927C26.9198 113.743 27.0417 113.609 27.2191 113.526C27.3965 113.442 27.5773 113.434 27.7615 113.5C27.9352 113.571 28.0638 113.696 28.1472 113.873L29.5389 116.832Z" fill="white"/>
<path d="M27.2079 95.4695C27.377 96.6103 27.2839 97.6735 26.9286 98.6589C26.5602 99.6346 25.9528 100.453 25.1065 101.115C24.247 101.767 23.1956 102.185 21.952 102.37C20.7085 102.554 19.5866 102.458 18.5864 102.081C17.5731 101.695 16.7544 101.088 16.1302 100.259C15.493 99.4209 15.0898 98.4313 14.9207 97.2905C14.8058 96.5147 14.7947 95.8109 14.8877 95.1792C14.9789 94.5361 15.1509 93.8868 15.4035 93.2314C15.5032 92.9601 15.7014 92.8025 15.998 92.7586C16.1691 92.7332 16.3324 92.7731 16.488 92.8783C16.632 92.9852 16.7193 93.1414 16.7497 93.3467C16.7667 93.4608 16.7591 93.5669 16.7269 93.6649C16.5389 94.2058 16.412 94.7259 16.3461 95.2254C16.2802 95.7248 16.2938 96.2883 16.3868 96.9158C16.5322 97.8969 16.8618 98.705 17.3756 99.3401C17.8764 99.9655 18.5067 100.403 19.2664 100.651C20.0131 100.891 20.8313 100.944 21.7212 100.812C22.6111 100.68 23.3843 100.391 24.041 99.9438C24.6845 99.487 25.1609 98.8859 25.4701 98.1405C25.7663 97.3854 25.8417 96.5172 25.6963 95.5361C25.6033 94.9086 25.4528 94.3654 25.2449 93.9066C25.037 93.4477 24.7646 92.9867 24.4278 92.5236C24.3687 92.4391 24.3306 92.3398 24.3137 92.2257C24.2833 92.0204 24.3215 91.8456 24.4284 91.7015C24.5353 91.5574 24.68 91.4719 24.8626 91.4448C25.1592 91.4009 25.3946 91.4942 25.5687 91.7249C26.0005 92.2789 26.3534 92.8503 26.6272 93.4394C26.8994 94.017 27.093 94.6937 27.2079 95.4695Z" fill="white"/>
<path d="M26.5786 85.671C26.5521 86.1777 26.4237 86.6445 26.1935 87.0714C25.964 87.4867 25.6467 87.8108 25.2419 88.0437C24.8255 88.276 24.3582 88.3787 23.8399 88.3516C22.9876 88.307 22.3255 87.9375 21.8537 87.243C21.3824 86.5369 21.1808 85.5332 21.2488 84.2317L21.3581 82.1412L21.2199 82.134C20.4597 82.0943 19.9027 82.2557 19.5488 82.6183C19.1956 82.9695 18.9982 83.5424 18.9566 84.3371C18.9337 84.7747 18.9478 85.1682 18.9989 85.5173C19.0505 85.8549 19.1346 86.2347 19.2511 86.6565C19.2694 86.7499 19.277 86.8253 19.274 86.8829C19.2649 87.0557 19.1937 87.2021 19.0604 87.3222C18.9271 87.4422 18.7683 87.4975 18.584 87.4878C18.2731 87.4716 18.0621 87.3104 17.951 87.0043C17.5876 86.0036 17.4323 84.9965 17.4853 83.983C17.5268 83.1883 17.723 82.5287 18.0738 82.0042C18.4252 81.4682 18.8666 81.0871 19.3982 80.8608C19.9188 80.6224 20.4786 80.5188 21.0775 80.5501L25.9667 80.8057C26.1855 80.8171 26.3656 80.9074 26.5069 81.0765C26.6488 81.234 26.714 81.4222 26.7026 81.641C26.6912 81.8599 26.6067 82.0402 26.4491 82.1821C26.2916 82.3241 26.1034 82.3893 25.8845 82.3778L25.4353 82.3544C26.2661 83.2524 26.6472 84.358 26.5786 85.671ZM25.2272 85.0113C25.2537 84.5045 25.1583 84.0087 24.9411 83.5239C24.7124 83.0384 24.4222 82.6248 24.0705 82.283L22.6193 82.2072L22.5209 84.0903C22.4299 85.8295 22.8394 86.7228 23.7493 86.7704C24.164 86.792 24.5052 86.6713 24.773 86.4081C25.0415 86.1334 25.1928 85.6678 25.2272 85.0113Z" fill="white"/>
<path d="M27.9486 74.0402C27.6908 75.1644 27.2034 76.1294 26.4861 76.9353C26.3074 77.0954 26.1 77.1485 25.864 77.0943C25.6841 77.0531 25.5409 76.9552 25.4343 76.8006C25.3278 76.646 25.2964 76.4732 25.3402 76.2821C25.3634 76.1809 25.4091 76.0849 25.4773 75.994C25.7171 75.6703 25.9233 75.339 26.0957 74.9999C26.2681 74.6607 26.4058 74.2663 26.5089 73.8167C26.795 72.5689 26.539 71.8534 25.7408 71.6705C25.4822 71.6112 25.252 71.7122 25.0501 71.9736C24.8508 72.2237 24.592 72.6554 24.2739 73.2688C23.9645 73.896 23.6752 74.4094 23.4061 74.8092C23.1395 75.1977 22.8015 75.5107 22.3921 75.7482C21.974 75.9718 21.4839 76.0192 20.9218 75.8903C20.1349 75.7099 19.5586 75.2819 19.1928 74.6065C18.8296 73.9197 18.7692 73.048 19.0114 71.9913C19.2099 71.1257 19.5373 70.3429 19.9936 69.6429C20.0746 69.4958 20.186 69.3971 20.3277 69.3467C20.472 69.2852 20.6115 69.2698 20.7464 69.3008C20.9263 69.342 21.0682 69.4455 21.1722 69.6114C21.2788 69.7659 21.3101 69.9388 21.2663 70.1299C21.2534 70.1861 21.2254 70.2566 21.1823 70.3414C20.8305 70.947 20.5824 71.5646 20.4381 72.1941C20.2989 72.8012 20.3018 73.3047 20.4467 73.7048C20.583 74.091 20.8254 74.324 21.1739 74.4039C21.5111 74.4812 21.7945 74.3806 22.0241 74.1019C22.2536 73.8232 22.5175 73.369 22.8157 72.7392C23.1364 72.1146 23.4287 71.6137 23.6927 71.2364C23.9454 70.8565 24.2796 70.5604 24.6951 70.348C25.1132 70.1244 25.6145 70.0796 26.199 70.2136C26.9185 70.3786 27.4486 70.8018 27.7893 71.4834C28.1326 72.1537 28.1857 73.006 27.9486 74.0402Z" fill="white"/>
<path d="M31.229 63.5678C30.6803 64.8635 29.8844 65.7225 28.8412 66.1449C27.792 66.5523 26.5983 66.4726 25.2601 65.9058C24.5061 65.5865 23.869 65.1538 23.3487 64.6078C22.8284 64.0618 22.4933 63.4189 22.3432 62.679C22.1931 61.9391 22.2958 61.1496 22.6511 60.3106C22.9839 59.5247 23.4577 58.9238 24.0723 58.5077C24.6762 58.0871 25.3492 57.8586 26.0911 57.8221C26.8224 57.7811 27.5491 57.9136 28.2712 58.2194C28.473 58.3049 28.6137 58.4459 28.6933 58.6424C28.7774 58.8283 28.7722 59.0328 28.6778 59.2558L26.3906 64.6562C27.17 64.886 27.8657 64.855 28.4778 64.5632C29.0899 64.2713 29.5736 63.7059 29.929 62.8669C30.1179 62.4208 30.2396 62.0152 30.294 61.65C30.353 61.2742 30.3703 60.8932 30.3459 60.5072C30.3394 60.4042 30.3587 60.2996 30.4037 60.1934C30.4756 60.0235 30.597 59.8996 30.7678 59.8216C30.9386 59.7436 31.1143 59.7429 31.2948 59.8193C31.5284 59.9183 31.6664 60.1396 31.7088 60.4832C31.767 60.9963 31.7691 61.4794 31.715 61.9324C31.6609 62.3855 31.4989 62.9306 31.229 63.5678ZM27.2021 59.4575C26.6682 59.2689 26.1743 59.2226 25.7204 59.3184C25.271 59.4036 24.8924 59.5878 24.5846 59.8708C24.2663 60.1492 24.0307 60.469 23.8777 60.8301C23.7248 61.1912 23.6591 61.583 23.6806 62.0054C23.6915 62.4233 23.8226 62.8233 24.0742 63.2054C24.3257 63.5875 24.7049 63.9046 25.2118 64.1569L27.2021 59.4575Z" fill="white"/>
<path d="M39.7353 49.1433C39.006 50.0367 38.1413 50.6857 37.1412 51.0902C36.91 51.1545 36.7006 51.1101 36.513 50.957C36.37 50.8403 36.285 50.689 36.258 50.5032C36.2311 50.3175 36.2796 50.1486 36.4035 49.9967C36.4692 49.9163 36.5527 49.8505 36.6541 49.7992C37.0125 49.6154 37.3442 49.4098 37.649 49.1822C37.9539 48.9546 38.2522 48.6621 38.5439 48.3048C39.3535 47.313 39.441 46.5582 38.8067 46.0404C38.6012 45.8727 38.35 45.8612 38.0532 46.006C37.7636 46.1418 37.3404 46.4142 36.7833 46.823C36.228 47.248 35.741 47.5801 35.3226 47.8191C34.9114 48.0492 34.4697 48.18 33.9975 48.2114C33.5236 48.2265 33.0633 48.0518 32.6165 47.6871C31.9911 47.1766 31.6642 46.5375 31.6357 45.7699C31.6145 44.9933 31.9467 44.1851 32.6323 43.3452C33.1938 42.6573 33.8343 42.1007 34.5536 41.6755C34.6914 41.5795 34.835 41.5404 34.9843 41.5581C35.141 41.5669 35.2729 41.615 35.3801 41.7025C35.5231 41.8192 35.6044 41.9749 35.6241 42.1696C35.6511 42.3554 35.6026 42.5243 35.4786 42.6762C35.4421 42.7208 35.3858 42.7716 35.3096 42.8285C34.7257 43.2155 34.2296 43.6591 33.8212 44.1594C33.4274 44.6419 33.2068 45.0946 33.1594 45.5174C33.1103 45.924 33.2243 46.2403 33.5013 46.4664C33.7693 46.6852 34.068 46.7206 34.3973 46.5725C34.7266 46.4245 35.1644 46.1343 35.7109 45.7019C36.2752 45.2842 36.7593 44.9647 37.1632 44.7435C37.5581 44.515 37.9889 44.3977 38.4555 44.3915C38.9293 44.3763 39.3986 44.5584 39.8632 44.9376C40.435 45.4044 40.7226 46.0188 40.7259 46.7807C40.7365 47.5338 40.4063 48.3213 39.7353 49.1433Z" fill="white"/>
<path d="M46.6186 41.821C45.3706 42.9515 44.2356 42.9525 43.2135 41.8242L39.6132 37.8494L38.7028 38.674C38.6344 38.7359 38.5552 38.7687 38.4652 38.7724C38.376 38.7599 38.3005 38.7194 38.2385 38.651C38.1611 38.5655 38.1338 38.458 38.1565 38.3285L38.3556 35.0437C38.3629 34.8971 38.4007 34.7928 38.4691 34.7308C38.5374 34.6689 38.6162 34.6442 38.7054 34.6568C38.8032 34.6616 38.883 34.6982 38.945 34.7666L39.8741 35.7924L41.323 34.48C41.4683 34.3484 41.6305 34.287 41.8097 34.2958C41.9889 34.3047 42.1444 34.3818 42.276 34.5271C42.3999 34.6639 42.4612 34.8261 42.4601 35.0139C42.4513 35.1931 42.3742 35.3485 42.2289 35.4801L40.78 36.7925L44.2874 40.6647C44.5894 40.9981 44.8599 41.1421 45.0989 41.0968C45.3388 41.0351 45.5784 40.8959 45.8177 40.6791C45.9887 40.5243 46.1364 40.3438 46.2609 40.1376C46.2873 40.0981 46.3138 40.0586 46.3402 40.0191C46.3752 39.9718 46.4227 39.9211 46.4825 39.8669C46.6022 39.7585 46.7516 39.7087 46.9308 39.7176C47.1023 39.7179 47.2461 39.7822 47.3622 39.9104C47.5403 40.107 47.5775 40.3456 47.4738 40.6263C47.2798 41.0821 46.9947 41.4804 46.6186 41.821Z" fill="white"/>
<path d="M53.2161 36.6156C52.6818 36.9575 52.1347 37.1296 51.5747 37.1318C51.0245 37.1279 50.5027 36.9757 50.0093 36.6753C49.5255 36.3686 49.1158 35.953 48.7802 35.4284L46.1322 31.2898C46.0141 31.1052 45.9778 30.9094 46.0233 30.7023C46.0785 30.489 46.1984 30.3232 46.383 30.2051C46.5676 30.087 46.7634 30.0507 46.9705 30.0962C47.1776 30.1417 47.3402 30.2568 47.4583 30.4413L50.013 34.4342C50.7714 35.6194 51.6849 35.8702 52.7535 35.1864C53.2393 34.8756 53.5908 34.4727 53.808 33.9777C54.035 33.4765 54.1818 32.9034 54.2483 32.2584L51.4512 27.8866C51.3331 27.702 51.2968 27.5062 51.3423 27.2991C51.3975 27.0858 51.5174 26.9201 51.702 26.802C51.8865 26.6839 52.0824 26.6476 52.2895 26.6931C52.4966 26.7386 52.6592 26.8536 52.7773 27.0382L56.7772 33.2898C56.8953 33.4744 56.9347 33.6751 56.8954 33.8919C56.8499 34.099 56.7349 34.2616 56.5503 34.3797C56.3657 34.4978 56.165 34.5372 55.9482 34.4979C55.7349 34.4427 55.5692 34.3228 55.4511 34.1382L55.0688 33.5408C54.9607 34.185 54.7706 34.7653 54.4986 35.2817C54.2265 35.798 53.799 36.2427 53.2161 36.6156Z" fill="white"/>
<path d="M64.1896 30.729C63.5231 30.9881 62.8241 31.068 62.0926 30.9688C61.3676 30.8546 60.6917 30.5482 60.0647 30.0495C59.4443 29.5358 58.9648 28.8437 58.6263 27.9729C58.2878 27.1022 58.176 26.2733 58.2907 25.4863C58.4121 24.6843 58.7036 24.0017 59.1652 23.4387C59.6335 22.8607 60.2009 22.4421 60.8673 22.183C61.9208 21.7735 62.9987 21.8247 64.101 22.3366L62.5653 18.3861C62.4817 18.1711 62.4826 17.9666 62.568 17.7725C62.6642 17.5742 62.8144 17.4354 63.0186 17.356C63.2229 17.2766 63.4241 17.285 63.6224 17.3812C63.8164 17.4666 63.9532 17.6114 64.0326 17.8157L68.1008 28.2804C68.1802 28.4847 68.1771 28.6838 68.0917 28.8779C68.0063 29.072 67.8615 29.2087 67.6572 29.2881C67.453 29.3675 67.2485 29.3666 67.0436 29.2853C66.8496 29.1999 66.7128 29.0551 66.6334 28.8509L66.4705 28.4316C66.0033 29.5536 65.243 30.3194 64.1896 30.729ZM63.8664 29.2769C64.3609 29.0847 64.7813 28.7975 65.1277 28.4153C65.4807 28.0183 65.7528 27.5722 65.9439 27.0772L64.6276 23.691C64.1522 23.4551 63.6524 23.3153 63.1281 23.2716C62.6104 23.2131 62.1042 23.2799 61.6098 23.4721C60.8143 23.7813 60.2729 24.2826 59.9856 24.9759C59.6982 25.6692 59.7343 26.478 60.0937 27.4025C60.453 28.327 60.9728 28.9478 61.653 29.265C62.3331 29.5822 63.0709 29.5861 63.8664 29.2769Z" fill="white"/>
<path d="M74.8786 31.4067C74.6743 31.444 74.485 31.4023 74.3106 31.2817C74.1475 31.1591 74.0474 30.9956 74.0101 30.7914C73.9936 30.7006 73.994 30.6068 74.0115 30.5098L74.5992 27.4658L69.9775 20.2548C69.9114 20.1496 69.869 20.046 69.8504 19.9439C69.8111 19.7283 69.8517 19.5333 69.9723 19.3589C70.0908 19.1731 70.2579 19.0606 70.4734 19.0213C70.6323 18.9923 70.7824 19.0118 70.9238 19.0798C71.0765 19.1457 71.1936 19.2416 71.2752 19.3674L75.0823 25.3905L76.5743 18.4357C76.6597 18.0684 76.8669 17.8548 77.196 17.7948C77.4115 17.7554 77.6076 17.8017 77.7841 17.9337C77.9585 18.0542 78.0653 18.2223 78.1047 18.4379C78.1233 18.54 78.1239 18.6396 78.1064 18.7365L75.4971 30.7487C75.4024 31.1294 75.1963 31.3488 74.8786 31.4067Z" fill="white"/>
</svg>
