<svg width="437" height="17" viewBox="0 0 437 17" fill="none" xmlns="http://www.w3.org/2000/svg">
<path d="M3.375 7.7033C3.375 7.08209 3.52652 6.5158 3.82955 6.00444C4.13258 5.49308 4.53977 5.08588 5.05114 4.78285C5.5625 4.47982 6.12879 4.3283 6.75 4.3283C7.28788 4.3283 7.78409 4.44383 8.23864 4.67489C8.69697 4.90595 9.07576 5.22224 9.375 5.62376C9.67424 6.02148 9.85985 6.47224 9.93182 6.97603H8.55682C8.48106 6.58588 8.27083 6.2677 7.92614 6.02148C7.58144 5.77148 7.18939 5.64648 6.75 5.64648C6.37121 5.64648 6.02652 5.73929 5.71591 5.92489C5.4053 6.1105 5.1572 6.35861 4.97159 6.66921C4.78598 6.97982 4.69318 7.32451 4.69318 7.7033C4.69318 8.08209 4.78598 8.42679 4.97159 8.73739C5.1572 9.048 5.4053 9.29611 5.71591 9.48171C6.02652 9.66732 6.37121 9.76012 6.75 9.76012C7.18939 9.76012 7.56061 9.63701 7.86364 9.3908C8.17045 9.1408 8.36364 8.82073 8.44318 8.43058H9.81818C9.74621 8.93436 9.57008 9.38701 9.28977 9.78853C9.00947 10.1863 8.64962 10.5007 8.21023 10.7317C7.77462 10.9628 7.28788 11.0783 6.75 11.0783C6.12879 11.0783 5.5625 10.9268 5.05114 10.6238C4.53977 10.3207 4.13258 9.91353 3.82955 9.40217C3.52652 8.8908 3.375 8.32451 3.375 7.7033ZM6.69318 13.7033C5.86742 13.7033 5.09091 13.548 4.36364 13.2374C3.64015 12.9268 3.00189 12.4969 2.44886 11.9476C1.89962 11.3946 1.4678 10.7563 1.15341 10.0328C0.842803 9.30936 0.689394 8.53285 0.693182 7.7033C0.69697 6.87376 0.854167 6.09724 1.16477 5.37376C1.47917 4.65027 1.91098 4.01391 2.46023 3.46467C3.00947 2.91164 3.64583 2.47982 4.36932 2.16921C5.0928 1.85861 5.86742 1.7033 6.69318 1.7033C7.52273 1.7033 8.29924 1.85861 9.02273 2.16921C9.75 2.47982 10.3864 2.91164 10.9318 3.46467C11.4811 4.01391 11.911 4.65027 12.2216 5.37376C12.5322 6.09724 12.6894 6.87376 12.6932 7.7033C12.697 8.53285 12.5436 9.30936 12.233 10.0328C11.9223 10.7563 11.4924 11.3946 10.9432 11.9476C10.3939 12.4969 9.75568 12.9268 9.02841 13.2374C8.30114 13.548 7.52273 13.7033 6.69318 13.7033ZM6.69318 12.3851C7.34091 12.3851 7.94886 12.2639 8.51705 12.0215C9.08523 11.7791 9.58333 11.4438 10.0114 11.0158C10.4394 10.5878 10.7746 10.0916 11.017 9.52717C11.2595 8.95898 11.3788 8.35292 11.375 7.70898C11.3712 7.06126 11.2481 6.4533 11.0057 5.88512C10.7633 5.31694 10.428 4.81883 10 4.3908C9.57197 3.96277 9.07576 3.62754 8.51136 3.38512C7.94697 3.1427 7.34091 3.02148 6.69318 3.02148C6.04924 3.02148 5.44508 3.1427 4.88068 3.38512C4.31629 3.62754 3.82008 3.96467 3.39205 4.39648C2.96402 4.82451 2.62689 5.32262 2.38068 5.8908C2.13826 6.4552 2.01515 7.06126 2.01136 7.70898C2.00758 8.34914 2.12689 8.9533 2.36932 9.52148C2.61174 10.0859 2.94697 10.5821 3.375 11.0101C3.80682 11.4382 4.30492 11.7753 4.86932 12.0215C5.4375 12.2639 6.04545 12.3851 6.69318 12.3851ZM24.7884 5.52148H23.3793C23.2959 5.11618 23.1501 4.76012 22.9418 4.4533C22.7372 4.14648 22.4872 3.88891 22.1918 3.68058C21.9001 3.46845 21.5762 3.30936 21.2202 3.2033C20.8641 3.09724 20.4929 3.04421 20.1065 3.04421C19.402 3.04421 18.7637 3.22224 18.1918 3.5783C17.6236 3.93436 17.1709 4.45898 16.8338 5.15217C16.5005 5.84535 16.3338 6.69573 16.3338 7.7033C16.3338 8.71088 16.5005 9.56126 16.8338 10.2544C17.1709 10.9476 17.6236 11.4722 18.1918 11.8283C18.7637 12.1844 19.402 12.3624 20.1065 12.3624C20.4929 12.3624 20.8641 12.3094 21.2202 12.2033C21.5762 12.0972 21.9001 11.94 22.1918 11.7317C22.4872 11.5196 22.7372 11.2601 22.9418 10.9533C23.1501 10.6427 23.2959 10.2866 23.3793 9.88512H24.7884C24.6823 10.4798 24.4891 11.012 24.2088 11.4817C23.9285 11.9514 23.58 12.351 23.1634 12.6806C22.7467 13.0063 22.2789 13.2544 21.7599 13.4249C21.2448 13.5953 20.6937 13.6806 20.1065 13.6806C19.1141 13.6806 18.2315 13.4382 17.4588 12.9533C16.6861 12.4685 16.0781 11.7791 15.6349 10.8851C15.1918 9.99118 14.9702 8.93058 14.9702 7.7033C14.9702 6.47603 15.1918 5.41542 15.6349 4.52148C16.0781 3.62755 16.6861 2.93815 17.4588 2.4533C18.2315 1.96845 19.1141 1.72603 20.1065 1.72603C20.6937 1.72603 21.2448 1.81126 21.7599 1.98171C22.2789 2.15217 22.7467 2.40217 23.1634 2.73171C23.58 3.05747 23.9285 3.4552 24.2088 3.92489C24.4891 4.3908 24.6823 4.923 24.7884 5.52148ZM30.429 13.7033C29.6411 13.7033 28.9498 13.5158 28.3551 13.1408C27.7642 12.7658 27.3021 12.2412 26.9688 11.5669C26.6392 10.8927 26.4744 10.1048 26.4744 9.2033C26.4744 8.29421 26.6392 7.50065 26.9688 6.82262C27.3021 6.14459 27.7642 5.61808 28.3551 5.24308C28.9498 4.86808 29.6411 4.68058 30.429 4.68058C31.2169 4.68058 31.9063 4.86808 32.4972 5.24308C33.0919 5.61808 33.554 6.14459 33.8835 6.82262C34.2169 7.50065 34.3835 8.29421 34.3835 9.2033C34.3835 10.1048 34.2169 10.8927 33.8835 11.5669C33.554 12.2412 33.0919 12.7658 32.4972 13.1408C31.9063 13.5158 31.2169 13.7033 30.429 13.7033ZM30.429 12.4988C31.0275 12.4988 31.5199 12.3453 31.9062 12.0385C32.2926 11.7317 32.5786 11.3283 32.7642 10.8283C32.9498 10.3283 33.0426 9.78664 33.0426 9.2033C33.0426 8.61997 32.9498 8.07641 32.7642 7.57262C32.5786 7.06883 32.2926 6.66164 31.9062 6.35103C31.5199 6.04042 31.0275 5.88512 30.429 5.88512C29.8305 5.88512 29.3381 6.04042 28.9517 6.35103C28.5653 6.66164 28.2794 7.06883 28.0938 7.57262C27.9081 8.07641 27.8153 8.61997 27.8153 9.2033C27.8153 9.78664 27.9081 10.3283 28.0938 10.8283C28.2794 11.3283 28.5653 11.7317 28.9517 12.0385C29.3381 12.3453 29.8305 12.4988 30.429 12.4988ZM36.4304 16.7942V4.79421H37.7259V6.18057H37.8849C37.9834 6.02906 38.1198 5.83588 38.294 5.60103C38.4721 5.36239 38.7259 5.15027 39.0554 4.96467C39.3887 4.77527 39.8395 4.68058 40.4077 4.68058C41.1425 4.68058 41.7902 4.86429 42.3509 5.23171C42.9115 5.59914 43.349 6.11997 43.6634 6.79421C43.9777 7.46845 44.1349 8.26391 44.1349 9.18058C44.1349 10.1048 43.9777 10.906 43.6634 11.584C43.349 12.2582 42.9134 12.781 42.3565 13.1522C41.7997 13.5196 41.1577 13.7033 40.4304 13.7033C39.8698 13.7033 39.4209 13.6105 39.0838 13.4249C38.7467 13.2355 38.4872 13.0215 38.3054 12.7828C38.1236 12.5404 37.9834 12.3397 37.8849 12.1806H37.7713V16.7942H36.4304ZM37.7486 9.15785C37.7486 9.81694 37.8452 10.3984 38.0384 10.9022C38.2315 11.4022 38.5137 11.7942 38.8849 12.0783C39.2562 12.3586 39.7107 12.4988 40.2486 12.4988C40.8092 12.4988 41.277 12.351 41.652 12.0556C42.0308 11.7563 42.3149 11.3548 42.5043 10.851C42.6974 10.3435 42.794 9.77906 42.794 9.15785C42.794 8.54421 42.6993 7.99118 42.5099 7.49876C42.3243 7.00254 42.0421 6.6105 41.6634 6.32262C41.2884 6.03095 40.8168 5.88512 40.2486 5.88512C39.7031 5.88512 39.2448 6.02338 38.8736 6.29989C38.5024 6.57262 38.2221 6.9552 38.0327 7.44762C37.8433 7.93626 37.7486 8.50633 37.7486 9.15785ZM46.7315 16.7942C46.5043 16.7942 46.3016 16.7753 46.1236 16.7374C45.9455 16.7033 45.8224 16.6692 45.7543 16.6351L46.0952 15.4533C46.4209 15.5366 46.7088 15.5669 46.9588 15.5442C47.2088 15.5215 47.4304 15.4097 47.6236 15.209C47.8205 15.012 48.0005 14.6919 48.1634 14.2488L48.4134 13.5669L45.1861 4.79421H46.6406L49.0497 11.7488H49.1406L51.5497 4.79421H53.0043L49.2997 14.7942C49.133 15.245 48.9266 15.6181 48.6804 15.9135C48.4342 16.2128 48.1482 16.4344 47.8224 16.5783C47.5005 16.7222 47.1368 16.7942 46.7315 16.7942ZM54.7741 13.5215V4.79421H56.0696V6.11239H56.1605C56.3196 5.68058 56.6075 5.3302 57.0241 5.06126C57.4408 4.79232 57.9105 4.65785 58.4332 4.65785C58.5317 4.65785 58.6548 4.65974 58.8026 4.66353C58.9503 4.66732 59.062 4.673 59.1378 4.68058V6.04421C59.0923 6.03285 58.9882 6.0158 58.8253 5.99307C58.6662 5.96656 58.4976 5.9533 58.3196 5.9533C57.8954 5.9533 57.5166 6.04232 57.1832 6.22035C56.8537 6.39459 56.5923 6.63701 56.3991 6.94762C56.2098 7.25444 56.1151 7.60482 56.1151 7.99876V13.5215H54.7741ZM60.7273 13.5215V4.79421H62.0682V13.5215H60.7273ZM61.4091 3.33967C61.1477 3.33967 60.9223 3.25065 60.733 3.07262C60.5473 2.89459 60.4545 2.68058 60.4545 2.43058C60.4545 2.18058 60.5473 1.96656 60.733 1.78853C60.9223 1.6105 61.1477 1.52148 61.4091 1.52148C61.6705 1.52148 61.8939 1.6105 62.0795 1.78853C62.2689 1.96656 62.3636 2.18058 62.3636 2.43058C62.3636 2.68058 62.2689 2.89459 62.0795 3.07262C61.8939 3.25065 61.6705 3.33967 61.4091 3.33967ZM68.0469 16.976C67.3991 16.976 66.8423 16.8927 66.3764 16.726C65.9105 16.5632 65.5223 16.3472 65.2116 16.0783C64.9048 15.8132 64.6605 15.5291 64.4787 15.226L65.5469 14.476C65.6681 14.6351 65.8215 14.8169 66.0071 15.0215C66.1927 15.2298 66.4465 15.4097 66.7685 15.5613C67.0942 15.7166 67.5204 15.7942 68.0469 15.7942C68.7514 15.7942 69.3329 15.6238 69.7912 15.2828C70.2495 14.9419 70.4787 14.4078 70.4787 13.6806V11.9078H70.3651C70.2666 12.0669 70.1264 12.2639 69.9446 12.4988C69.7666 12.7298 69.509 12.9363 69.1719 13.1181C68.8385 13.2961 68.3878 13.3851 67.8196 13.3851C67.1151 13.3851 66.4825 13.2185 65.9219 12.8851C65.3651 12.5518 64.9238 12.0669 64.598 11.4306C64.276 10.7942 64.1151 10.0215 64.1151 9.11239C64.1151 8.21845 64.2723 7.44004 64.5866 6.77717C64.901 6.1105 65.3385 5.59535 65.8991 5.23171C66.4598 4.86429 67.1075 4.68058 67.8423 4.68058C68.4105 4.68058 68.8613 4.77527 69.1946 4.96467C69.5317 5.15027 69.7893 5.36239 69.9673 5.60103C70.1491 5.83588 70.2893 6.02906 70.3878 6.18057H70.5241V4.79421H71.8196V13.7715C71.8196 14.5215 71.6491 15.1313 71.3082 15.601C70.9711 16.0745 70.5166 16.4211 69.9446 16.6408C69.3764 16.8643 68.7438 16.976 68.0469 16.976ZM68.0014 12.1806C68.5393 12.1806 68.9938 12.0575 69.3651 11.8113C69.7363 11.565 70.0185 11.2109 70.2116 10.7488C70.4048 10.2866 70.5014 9.73361 70.5014 9.08967C70.5014 8.46088 70.4067 7.90595 70.2173 7.42489C70.0279 6.94383 69.7476 6.56694 69.3764 6.29421C69.0052 6.02148 68.5469 5.88512 68.0014 5.88512C67.4332 5.88512 66.9598 6.02906 66.581 6.31694C66.206 6.60482 65.9238 6.99118 65.7344 7.47603C65.5488 7.96088 65.456 8.49876 65.456 9.08967C65.456 9.69573 65.5507 10.2317 65.7401 10.6976C65.9332 11.1597 66.2173 11.5234 66.5923 11.7885C66.9711 12.0499 67.4408 12.1806 68.0014 12.1806ZM75.6151 8.27148V13.5215H74.2741V1.88512H75.6151V6.15785H75.7287C75.9332 5.70709 76.2401 5.34914 76.6491 5.08398C77.062 4.81505 77.6113 4.68058 78.2969 4.68058C78.8916 4.68058 79.4124 4.79989 79.8594 5.03853C80.3063 5.27338 80.6529 5.63512 80.8991 6.12376C81.1491 6.60861 81.2741 7.22603 81.2741 7.97603V13.5215H79.9332V8.06694C79.9332 7.37376 79.7533 6.83777 79.3935 6.45898C79.0374 6.07641 78.5431 5.88512 77.9105 5.88512C77.4711 5.88512 77.0772 5.97792 76.7287 6.16353C76.384 6.34914 76.1113 6.61997 75.9105 6.97603C75.7135 7.33209 75.6151 7.76391 75.6151 8.27148ZM87.5227 4.79421V5.93057H83V4.79421H87.5227ZM84.3182 2.7033H85.6591V11.0215C85.6591 11.4003 85.714 11.6844 85.8239 11.8738C85.9375 12.0594 86.0814 12.1844 86.2557 12.2488C86.4337 12.3094 86.6212 12.3397 86.8182 12.3397C86.9659 12.3397 87.0871 12.3321 87.1818 12.3169C87.2765 12.298 87.3523 12.2828 87.4091 12.2715L87.6818 13.476C87.5909 13.5101 87.464 13.5442 87.3011 13.5783C87.1383 13.6162 86.9318 13.6351 86.6818 13.6351C86.303 13.6351 85.9318 13.5537 85.5682 13.3908C85.2083 13.2279 84.9091 12.9798 84.6705 12.6465C84.4356 12.3132 84.3182 11.8927 84.3182 11.3851V2.7033ZM95.5653 6.74876L94.3608 7.08967C94.285 6.88891 94.1733 6.69383 94.0256 6.50444C93.8816 6.31126 93.6847 6.15217 93.4347 6.02717C93.1847 5.90217 92.8646 5.83967 92.4744 5.83967C91.9403 5.83967 91.4953 5.96277 91.1392 6.20898C90.7869 6.45141 90.6108 6.76012 90.6108 7.13512C90.6108 7.46845 90.732 7.73171 90.9744 7.92489C91.2169 8.11808 91.5956 8.27906 92.1108 8.40785L93.4062 8.72603C94.1866 8.91542 94.768 9.2052 95.1506 9.59535C95.5331 9.98171 95.7244 10.4798 95.7244 11.0897C95.7244 11.5897 95.5805 12.0366 95.2926 12.4306C95.0085 12.8245 94.6108 13.1351 94.0994 13.3624C93.5881 13.5897 92.9934 13.7033 92.3153 13.7033C91.4252 13.7033 90.6884 13.5101 90.1051 13.1238C89.5218 12.7374 89.1525 12.173 88.9972 11.4306L90.2699 11.1124C90.3911 11.5821 90.6203 11.9344 90.9574 12.1692C91.2983 12.4041 91.7434 12.5215 92.2926 12.5215C92.9176 12.5215 93.4138 12.3889 93.7812 12.1238C94.1525 11.8548 94.3381 11.5328 94.3381 11.1578C94.3381 10.8548 94.232 10.601 94.0199 10.3965C93.8078 10.1882 93.482 10.0328 93.0426 9.93058L91.5881 9.58967C90.7888 9.40027 90.2017 9.10671 89.8267 8.70898C89.4555 8.30747 89.2699 7.80558 89.2699 7.2033C89.2699 6.71088 89.4081 6.27527 89.6847 5.89648C89.965 5.5177 90.3456 5.22035 90.8267 5.00444C91.3116 4.78853 91.8608 4.68058 92.4744 4.68058C93.3381 4.68058 94.0161 4.86997 94.5085 5.24876C95.0047 5.62754 95.357 6.12754 95.5653 6.74876ZM102.425 13.5215V1.88512H106.357C107.266 1.88512 108.012 2.04042 108.595 2.35103C109.179 2.65785 109.61 3.0802 109.891 3.61808C110.171 4.15595 110.311 4.7677 110.311 5.4533C110.311 6.13891 110.171 6.74686 109.891 7.27717C109.61 7.80747 109.18 8.22414 108.601 8.52717C108.021 8.82641 107.281 8.97603 106.379 8.97603H103.197V7.7033H106.334C106.955 7.7033 107.455 7.61239 107.834 7.43057C108.216 7.24876 108.493 6.99118 108.663 6.65785C108.838 6.32073 108.925 5.91921 108.925 5.4533C108.925 4.98739 108.838 4.5802 108.663 4.23171C108.489 3.88323 108.211 3.61429 107.828 3.42489C107.446 3.23171 106.94 3.13512 106.311 3.13512H103.834V13.5215H102.425ZM107.902 8.29421L110.766 13.5215H109.129L106.311 8.29421H107.902ZM116.043 13.7033C115.202 13.7033 114.476 13.5177 113.866 13.1465C113.26 12.7715 112.793 12.2488 112.463 11.5783C112.137 10.9041 111.974 10.12 111.974 9.22603C111.974 8.33209 112.137 7.54421 112.463 6.86239C112.793 6.17679 113.251 5.6427 113.838 5.26012C114.429 4.87376 115.118 4.68058 115.906 4.68058C116.361 4.68058 116.81 4.75633 117.253 4.90785C117.696 5.05936 118.099 5.30558 118.463 5.64648C118.827 5.98361 119.116 6.43058 119.332 6.98739C119.548 7.54421 119.656 8.22982 119.656 9.04421V9.61239H112.929V8.4533H118.293C118.293 7.96088 118.194 7.52148 117.997 7.13512C117.804 6.74876 117.527 6.44383 117.168 6.22035C116.812 5.99686 116.391 5.88512 115.906 5.88512C115.372 5.88512 114.91 6.0177 114.52 6.28285C114.134 6.54421 113.836 6.88512 113.628 7.30557C113.42 7.72603 113.315 8.17679 113.315 8.65785V9.43058C113.315 10.0897 113.429 10.6484 113.656 11.1067C113.887 11.5613 114.207 11.9078 114.616 12.1465C115.026 12.3813 115.501 12.4988 116.043 12.4988C116.395 12.4988 116.713 12.4495 116.997 12.351C117.285 12.2488 117.533 12.0972 117.741 11.8965C117.95 11.6919 118.111 11.4382 118.224 11.1351L119.52 11.4988C119.384 11.9382 119.154 12.3245 118.832 12.6578C118.51 12.9874 118.113 13.245 117.639 13.4306C117.166 13.6124 116.634 13.7033 116.043 13.7033ZM127.878 6.74876L126.673 7.08967C126.598 6.88891 126.486 6.69383 126.338 6.50444C126.194 6.31126 125.997 6.15217 125.747 6.02717C125.497 5.90217 125.177 5.83967 124.787 5.83967C124.253 5.83967 123.808 5.96277 123.452 6.20898C123.099 6.45141 122.923 6.76012 122.923 7.13512C122.923 7.46845 123.045 7.73171 123.287 7.92489C123.529 8.11808 123.908 8.27906 124.423 8.40785L125.719 8.72603C126.499 8.91542 127.08 9.2052 127.463 9.59535C127.846 9.98171 128.037 10.4798 128.037 11.0897C128.037 11.5897 127.893 12.0366 127.605 12.4306C127.321 12.8245 126.923 13.1351 126.412 13.3624C125.901 13.5897 125.306 13.7033 124.628 13.7033C123.738 13.7033 123.001 13.5101 122.418 13.1238C121.834 12.7374 121.465 12.173 121.31 11.4306L122.582 11.1124C122.704 11.5821 122.933 11.9344 123.27 12.1692C123.611 12.4041 124.056 12.5215 124.605 12.5215C125.23 12.5215 125.726 12.3889 126.094 12.1238C126.465 11.8548 126.651 11.5328 126.651 11.1578C126.651 10.8548 126.545 10.601 126.332 10.3965C126.12 10.1882 125.795 10.0328 125.355 9.93058L123.901 9.58967C123.101 9.40027 122.514 9.10671 122.139 8.70898C121.768 8.30747 121.582 7.80558 121.582 7.2033C121.582 6.71088 121.721 6.27527 121.997 5.89648C122.277 5.5177 122.658 5.22035 123.139 5.00444C123.624 4.78853 124.173 4.68058 124.787 4.68058C125.651 4.68058 126.329 4.86997 126.821 5.24876C127.317 5.62754 127.67 6.12754 127.878 6.74876ZM133.714 13.7033C132.874 13.7033 132.148 13.5177 131.538 13.1465C130.932 12.7715 130.464 12.2488 130.135 11.5783C129.809 10.9041 129.646 10.12 129.646 9.22603C129.646 8.33209 129.809 7.54421 130.135 6.86239C130.464 6.17679 130.923 5.6427 131.51 5.26012C132.101 4.87376 132.79 4.68058 133.578 4.68058C134.033 4.68058 134.482 4.75633 134.925 4.90785C135.368 5.05936 135.771 5.30558 136.135 5.64648C136.499 5.98361 136.788 6.43058 137.004 6.98739C137.22 7.54421 137.328 8.22982 137.328 9.04421V9.61239H130.601V8.4533H135.964C135.964 7.96088 135.866 7.52148 135.669 7.13512C135.476 6.74876 135.199 6.44383 134.839 6.22035C134.483 5.99686 134.063 5.88512 133.578 5.88512C133.044 5.88512 132.582 6.0177 132.192 6.28285C131.805 6.54421 131.508 6.88512 131.3 7.30557C131.091 7.72603 130.987 8.17679 130.987 8.65785V9.43058C130.987 10.0897 131.101 10.6484 131.328 11.1067C131.559 11.5613 131.879 11.9078 132.288 12.1465C132.697 12.3813 133.173 12.4988 133.714 12.4988C134.067 12.4988 134.385 12.4495 134.669 12.351C134.957 12.2488 135.205 12.0972 135.413 11.8965C135.622 11.6919 135.783 11.4382 135.896 11.1351L137.192 11.4988C137.055 11.9382 136.826 12.3245 136.504 12.6578C136.182 12.9874 135.785 13.245 135.311 13.4306C134.838 13.6124 134.305 13.7033 133.714 13.7033ZM139.368 13.5215V4.79421H140.663V6.11239H140.754C140.913 5.68058 141.201 5.3302 141.618 5.06126C142.035 4.79232 142.504 4.65785 143.027 4.65785C143.125 4.65785 143.249 4.65974 143.396 4.66353C143.544 4.66732 143.656 4.673 143.732 4.68058V6.04421C143.686 6.03285 143.582 6.0158 143.419 5.99307C143.26 5.96656 143.091 5.9533 142.913 5.9533C142.489 5.9533 142.11 6.04232 141.777 6.22035C141.447 6.39459 141.186 6.63701 140.993 6.94762C140.804 7.25444 140.709 7.60482 140.709 7.99876V13.5215H139.368ZM152.723 4.79421L149.496 13.5215H148.132L144.905 4.79421H146.359L148.768 11.7488H148.859L151.268 4.79421H152.723ZM157.839 13.7033C156.999 13.7033 156.273 13.5177 155.663 13.1465C155.057 12.7715 154.589 12.2488 154.26 11.5783C153.934 10.9041 153.771 10.12 153.771 9.22603C153.771 8.33209 153.934 7.54421 154.26 6.86239C154.589 6.17679 155.048 5.6427 155.635 5.26012C156.226 4.87376 156.915 4.68058 157.703 4.68058C158.158 4.68058 158.607 4.75633 159.05 4.90785C159.493 5.05936 159.896 5.30558 160.26 5.64648C160.624 5.98361 160.913 6.43058 161.129 6.98739C161.345 7.54421 161.453 8.22982 161.453 9.04421V9.61239H154.726V8.4533H160.089C160.089 7.96088 159.991 7.52148 159.794 7.13512C159.601 6.74876 159.324 6.44383 158.964 6.22035C158.608 5.99686 158.188 5.88512 157.703 5.88512C157.169 5.88512 156.707 6.0177 156.317 6.28285C155.93 6.54421 155.633 6.88512 155.425 7.30557C155.216 7.72603 155.112 8.17679 155.112 8.65785V9.43058C155.112 10.0897 155.226 10.6484 155.453 11.1067C155.684 11.5613 156.004 11.9078 156.413 12.1465C156.822 12.3813 157.298 12.4988 157.839 12.4988C158.192 12.4988 158.51 12.4495 158.794 12.351C159.082 12.2488 159.33 12.0972 159.538 11.8965C159.747 11.6919 159.908 11.4382 160.021 11.1351L161.317 11.4988C161.18 11.9382 160.951 12.3245 160.629 12.6578C160.307 12.9874 159.91 13.245 159.436 13.4306C158.963 13.6124 158.43 13.7033 157.839 13.7033ZM166.788 13.7033C166.061 13.7033 165.419 13.5196 164.862 13.1522C164.305 12.781 163.87 12.2582 163.555 11.584C163.241 10.906 163.084 10.1048 163.084 9.18058C163.084 8.26391 163.241 7.46845 163.555 6.79421C163.87 6.11997 164.307 5.59914 164.868 5.23171C165.429 4.86429 166.076 4.68058 166.811 4.68058C167.379 4.68058 167.828 4.77527 168.158 4.96467C168.491 5.15027 168.745 5.36239 168.919 5.60103C169.097 5.83588 169.235 6.02906 169.334 6.18057H169.447V1.88512H170.788V13.5215H169.493V12.1806H169.334C169.235 12.3397 169.095 12.5404 168.913 12.7828C168.732 13.0215 168.472 13.2355 168.135 13.4249C167.798 13.6105 167.349 13.7033 166.788 13.7033ZM166.97 12.4988C167.508 12.4988 167.963 12.3586 168.334 12.0783C168.705 11.7942 168.987 11.4022 169.18 10.9022C169.374 10.3984 169.47 9.81694 169.47 9.15785C169.47 8.50633 169.375 7.93626 169.186 7.44762C168.997 6.9552 168.716 6.57262 168.345 6.29989C167.974 6.02338 167.516 5.88512 166.97 5.88512C166.402 5.88512 165.929 6.03095 165.55 6.32262C165.175 6.6105 164.893 7.00254 164.703 7.49876C164.518 7.99118 164.425 8.54421 164.425 9.15785C164.425 9.77906 164.519 10.3435 164.709 10.851C164.902 11.3548 165.186 11.7563 165.561 12.0556C165.94 12.351 166.41 12.4988 166.97 12.4988ZM184.635 14.8851C183.476 14.8851 182.451 14.726 181.561 14.4078C180.671 14.0935 179.923 13.6294 179.317 13.0158C178.711 12.4022 178.252 11.6503 177.942 10.7601C177.631 9.86997 177.476 8.85103 177.476 7.7033C177.476 6.59345 177.633 5.60103 177.947 4.72603C178.266 3.85103 178.726 3.10861 179.328 2.49876C179.934 1.88512 180.669 1.41732 181.533 1.09535C182.4 0.773378 183.381 0.612393 184.476 0.612393C185.54 0.612393 186.472 0.786636 187.271 1.13512C188.074 1.47982 188.745 1.94762 189.283 2.53853C189.824 3.12565 190.23 3.78664 190.499 4.52148C190.771 5.25633 190.908 6.01391 190.908 6.79421C190.908 7.34345 190.881 7.90027 190.828 8.46467C190.775 9.02906 190.663 9.548 190.493 10.0215C190.322 10.4912 190.059 10.87 189.703 11.1578C189.351 11.4457 188.874 11.5897 188.271 11.5897C188.006 11.5897 187.714 11.548 187.396 11.4647C187.078 11.3813 186.796 11.2431 186.55 11.0499C186.304 10.8567 186.158 10.5972 186.112 10.2715H186.044C185.953 10.4912 185.813 10.6995 185.624 10.8965C185.438 11.0935 185.194 11.2507 184.891 11.3681C184.591 11.4855 184.226 11.5366 183.794 11.5215C183.302 11.5025 182.868 11.3927 182.493 11.1919C182.118 10.9874 181.804 10.7109 181.55 10.3624C181.3 10.0101 181.11 9.60292 180.982 9.1408C180.857 8.67489 180.794 8.173 180.794 7.63512C180.794 7.12376 180.87 6.65595 181.021 6.23171C181.173 5.80747 181.383 5.43626 181.652 5.11808C181.925 4.79989 182.243 4.54611 182.607 4.35671C182.974 4.16353 183.37 4.04421 183.794 3.99876C184.173 3.96088 184.518 3.97792 184.828 4.04989C185.139 4.11808 185.394 4.22224 185.595 4.36239C185.796 4.49876 185.923 4.65027 185.976 4.81694H186.044V4.18058H187.249V9.31694C187.249 9.63512 187.338 9.91542 187.516 10.1578C187.694 10.4003 187.953 10.5215 188.294 10.5215C188.68 10.5215 188.976 10.3889 189.18 10.1238C189.389 9.85861 189.531 9.44951 189.607 8.89648C189.686 8.34345 189.726 7.63512 189.726 6.77148C189.726 6.26391 189.656 5.76391 189.516 5.27148C189.379 4.77527 189.171 4.31126 188.891 3.87944C188.614 3.44762 188.264 3.06694 187.839 2.73739C187.415 2.40785 186.917 2.15027 186.345 1.96467C185.777 1.77527 185.131 1.68058 184.408 1.68058C183.518 1.68058 182.72 1.81883 182.016 2.09535C181.315 2.36807 180.718 2.7677 180.226 3.29421C179.737 3.81694 179.364 4.4533 179.107 5.2033C178.853 5.94951 178.726 6.798 178.726 7.74876C178.726 8.71467 178.853 9.57262 179.107 10.3226C179.364 11.0726 179.743 11.7052 180.243 12.2203C180.747 12.7355 181.37 13.1275 182.112 13.3965C182.855 13.6616 183.711 13.7942 184.68 13.7942C185.097 13.7942 185.508 13.7544 185.913 13.6749C186.319 13.5953 186.677 13.5082 186.987 13.4135C187.298 13.3188 187.521 13.2488 187.658 13.2033L187.976 14.2488C187.741 14.3472 187.434 14.4457 187.055 14.5442C186.68 14.6427 186.279 14.7241 185.851 14.7885C185.427 14.8529 185.021 14.8851 184.635 14.8851ZM183.976 10.3624C184.483 10.3624 184.894 10.2601 185.209 10.0556C185.523 9.85103 185.752 9.54232 185.896 9.12944C186.04 8.71656 186.112 8.19573 186.112 7.56694C186.112 6.93058 186.033 6.43436 185.874 6.0783C185.714 5.72224 185.48 5.47224 185.169 5.3283C184.858 5.18436 184.476 5.11239 184.021 5.11239C183.589 5.11239 183.22 5.22603 182.913 5.4533C182.61 5.67679 182.377 5.97603 182.214 6.35103C182.055 6.72224 181.976 7.12754 181.976 7.56694C181.976 8.05179 182.04 8.50823 182.169 8.93626C182.298 9.3605 182.508 9.7052 182.8 9.97035C183.091 10.2317 183.483 10.3624 183.976 10.3624ZM198.074 1.88512L201.528 11.6806H201.665L205.119 1.88512H206.597L202.324 13.5215H200.869L196.597 1.88512H198.074ZM211.074 13.7033C210.233 13.7033 209.508 13.5177 208.898 13.1465C208.292 12.7715 207.824 12.2488 207.494 11.5783C207.169 10.9041 207.006 10.12 207.006 9.22603C207.006 8.33209 207.169 7.54421 207.494 6.86239C207.824 6.17679 208.282 5.6427 208.869 5.26012C209.46 4.87376 210.15 4.68058 210.938 4.68058C211.392 4.68058 211.841 4.75633 212.284 4.90785C212.727 5.05936 213.131 5.30558 213.494 5.64648C213.858 5.98361 214.148 6.43058 214.364 6.98739C214.58 7.54421 214.688 8.22982 214.688 9.04421V9.61239H207.96V8.4533H213.324C213.324 7.96088 213.225 7.52148 213.028 7.13512C212.835 6.74876 212.559 6.44383 212.199 6.22035C211.843 5.99686 211.422 5.88512 210.938 5.88512C210.403 5.88512 209.941 6.0177 209.551 6.28285C209.165 6.54421 208.867 6.88512 208.659 7.30557C208.451 7.72603 208.347 8.17679 208.347 8.65785V9.43058C208.347 10.0897 208.46 10.6484 208.688 11.1067C208.919 11.5613 209.239 11.9078 209.648 12.1465C210.057 12.3813 210.532 12.4988 211.074 12.4988C211.426 12.4988 211.744 12.4495 212.028 12.351C212.316 12.2488 212.564 12.0972 212.773 11.8965C212.981 11.6919 213.142 11.4382 213.256 11.1351L214.551 11.4988C214.415 11.9382 214.186 12.3245 213.864 12.6578C213.542 12.9874 213.144 13.245 212.67 13.4306C212.197 13.6124 211.665 13.7033 211.074 13.7033ZM218.068 8.27148V13.5215H216.727V4.79421H218.023V6.15785H218.136C218.341 5.71467 218.652 5.35861 219.068 5.08967C219.485 4.81694 220.023 4.68058 220.682 4.68058C221.273 4.68058 221.79 4.80179 222.233 5.04421C222.676 5.28285 223.021 5.64648 223.267 6.13512C223.513 6.61997 223.636 7.23361 223.636 7.97603V13.5215H222.295V8.06694C222.295 7.38133 222.117 6.84724 221.761 6.46467C221.405 6.0783 220.917 5.88512 220.295 5.88512C219.867 5.88512 219.485 5.97792 219.148 6.16353C218.814 6.34914 218.551 6.61997 218.358 6.97603C218.165 7.33209 218.068 7.76391 218.068 8.27148ZM225.837 13.5215V12.4988L230.791 6.13512V6.04421H225.996V4.79421H232.518V5.86239L227.7 12.1806V12.2715H232.678V13.5215H225.837ZM238.038 13.7033C237.25 13.7033 236.559 13.5158 235.964 13.1408C235.374 12.7658 234.911 12.2412 234.578 11.5669C234.249 10.8927 234.084 10.1048 234.084 9.2033C234.084 8.29421 234.249 7.50065 234.578 6.82262C234.911 6.14459 235.374 5.61808 235.964 5.24308C236.559 4.86808 237.25 4.68058 238.038 4.68058C238.826 4.68058 239.516 4.86808 240.107 5.24308C240.701 5.61808 241.163 6.14459 241.493 6.82262C241.826 7.50065 241.993 8.29421 241.993 9.2033C241.993 10.1048 241.826 10.8927 241.493 11.5669C241.163 12.2412 240.701 12.7658 240.107 13.1408C239.516 13.5158 238.826 13.7033 238.038 13.7033ZM238.038 12.4988C238.637 12.4988 239.129 12.3453 239.516 12.0385C239.902 11.7317 240.188 11.3283 240.374 10.8283C240.559 10.3283 240.652 9.78664 240.652 9.2033C240.652 8.61997 240.559 8.07641 240.374 7.57262C240.188 7.06883 239.902 6.66164 239.516 6.35103C239.129 6.04042 238.637 5.88512 238.038 5.88512C237.44 5.88512 236.947 6.04042 236.561 6.35103C236.175 6.66164 235.889 7.06883 235.703 7.57262C235.518 8.07641 235.425 8.61997 235.425 9.2033C235.425 9.78664 235.518 10.3283 235.703 10.8283C235.889 11.3283 236.175 11.7317 236.561 12.0385C236.947 12.3453 237.44 12.4988 238.038 12.4988ZM248.085 3.13512V1.88512H256.812V3.13512H253.153V13.5215H251.744V3.13512H248.085ZM261.199 13.7033C260.358 13.7033 259.633 13.5177 259.023 13.1465C258.417 12.7715 257.949 12.2488 257.619 11.5783C257.294 10.9041 257.131 10.12 257.131 9.22603C257.131 8.33209 257.294 7.54421 257.619 6.86239C257.949 6.17679 258.407 5.6427 258.994 5.26012C259.585 4.87376 260.275 4.68058 261.062 4.68058C261.517 4.68058 261.966 4.75633 262.409 4.90785C262.852 5.05936 263.256 5.30558 263.619 5.64648C263.983 5.98361 264.273 6.43058 264.489 6.98739C264.705 7.54421 264.812 8.22982 264.812 9.04421V9.61239H258.085V8.4533H263.449C263.449 7.96088 263.35 7.52148 263.153 7.13512C262.96 6.74876 262.684 6.44383 262.324 6.22035C261.968 5.99686 261.547 5.88512 261.062 5.88512C260.528 5.88512 260.066 6.0177 259.676 6.28285C259.29 6.54421 258.992 6.88512 258.784 7.30557C258.576 7.72603 258.472 8.17679 258.472 8.65785V9.43058C258.472 10.0897 258.585 10.6484 258.812 11.1067C259.044 11.5613 259.364 11.9078 259.773 12.1465C260.182 12.3813 260.657 12.4988 261.199 12.4988C261.551 12.4988 261.869 12.4495 262.153 12.351C262.441 12.2488 262.689 12.0972 262.898 11.8965C263.106 11.6919 263.267 11.4382 263.381 11.1351L264.676 11.4988C264.54 11.9382 264.311 12.3245 263.989 12.6578C263.667 12.9874 263.269 13.245 262.795 13.4306C262.322 13.6124 261.79 13.7033 261.199 13.7033ZM270.398 13.7033C269.58 13.7033 268.875 13.5101 268.284 13.1238C267.693 12.7374 267.239 12.2052 266.92 11.5272C266.602 10.8491 266.443 10.0745 266.443 9.2033C266.443 8.31694 266.606 7.53474 266.932 6.85671C267.261 6.17489 267.72 5.6427 268.307 5.26012C268.898 4.87376 269.587 4.68058 270.375 4.68058C270.989 4.68058 271.542 4.79421 272.034 5.02148C272.527 5.24876 272.93 5.56694 273.244 5.97603C273.559 6.38512 273.754 6.86239 273.83 7.40785H272.489C272.386 7.01012 272.159 6.65785 271.807 6.35103C271.458 6.04042 270.989 5.88512 270.398 5.88512C269.875 5.88512 269.417 6.02148 269.023 6.29421C268.633 6.56315 268.328 6.94383 268.108 7.43626C267.892 7.92489 267.784 8.49876 267.784 9.15785C267.784 9.83209 267.89 10.4192 268.102 10.9192C268.318 11.4192 268.621 11.8075 269.011 12.084C269.405 12.3605 269.867 12.4988 270.398 12.4988C270.746 12.4988 271.062 12.4382 271.347 12.3169C271.631 12.1957 271.871 12.0215 272.068 11.7942C272.265 11.5669 272.405 11.2942 272.489 10.976H273.83C273.754 11.4912 273.566 11.9552 273.267 12.3681C272.972 12.7772 272.58 13.1029 272.091 13.3453C271.606 13.584 271.042 13.7033 270.398 13.7033ZM277.131 8.27148V13.5215H275.79V1.88512H277.131V6.15785H277.244C277.449 5.70709 277.756 5.34914 278.165 5.08398C278.578 4.81505 279.127 4.68058 279.812 4.68058C280.407 4.68058 280.928 4.79989 281.375 5.03853C281.822 5.27338 282.169 5.63512 282.415 6.12376C282.665 6.60861 282.79 7.22603 282.79 7.97603V13.5215H281.449V8.06694C281.449 7.37376 281.269 6.83777 280.909 6.45898C280.553 6.07641 280.059 5.88512 279.426 5.88512C278.987 5.88512 278.593 5.97792 278.244 6.16353C277.9 6.34914 277.627 6.61997 277.426 6.97603C277.229 7.33209 277.131 7.76391 277.131 8.27148ZM286.584 8.27148V13.5215H285.243V4.79421H286.538V6.15785H286.652C286.857 5.71467 287.167 5.35861 287.584 5.08967C288 4.81694 288.538 4.68058 289.197 4.68058C289.788 4.68058 290.305 4.80179 290.749 5.04421C291.192 5.28285 291.536 5.64648 291.783 6.13512C292.029 6.61997 292.152 7.23361 292.152 7.97603V13.5215H290.811V8.06694C290.811 7.38133 290.633 6.84724 290.277 6.46467C289.921 6.0783 289.432 5.88512 288.811 5.88512C288.383 5.88512 288 5.97792 287.663 6.16353C287.33 6.34914 287.067 6.61997 286.874 6.97603C286.68 7.33209 286.584 7.76391 286.584 8.27148ZM298.148 13.7033C297.36 13.7033 296.669 13.5158 296.074 13.1408C295.483 12.7658 295.021 12.2412 294.688 11.5669C294.358 10.8927 294.193 10.1048 294.193 9.2033C294.193 8.29421 294.358 7.50065 294.688 6.82262C295.021 6.14459 295.483 5.61808 296.074 5.24308C296.669 4.86808 297.36 4.68058 298.148 4.68058C298.936 4.68058 299.625 4.86808 300.216 5.24308C300.811 5.61808 301.273 6.14459 301.602 6.82262C301.936 7.50065 302.102 8.29421 302.102 9.2033C302.102 10.1048 301.936 10.8927 301.602 11.5669C301.273 12.2412 300.811 12.7658 300.216 13.1408C299.625 13.5158 298.936 13.7033 298.148 13.7033ZM298.148 12.4988C298.746 12.4988 299.239 12.3453 299.625 12.0385C300.011 11.7317 300.297 11.3283 300.483 10.8283C300.669 10.3283 300.761 9.78664 300.761 9.2033C300.761 8.61997 300.669 8.07641 300.483 7.57262C300.297 7.06883 300.011 6.66164 299.625 6.35103C299.239 6.04042 298.746 5.88512 298.148 5.88512C297.549 5.88512 297.057 6.04042 296.67 6.35103C296.284 6.66164 295.998 7.06883 295.812 7.57262C295.627 8.07641 295.534 8.61997 295.534 9.2033C295.534 9.78664 295.627 10.3283 295.812 10.8283C295.998 11.3283 296.284 11.7317 296.67 12.0385C297.057 12.3453 297.549 12.4988 298.148 12.4988ZM305.49 1.88512V13.5215H304.149V1.88512H305.49ZM311.491 13.7033C310.704 13.7033 310.012 13.5158 309.418 13.1408C308.827 12.7658 308.365 12.2412 308.031 11.5669C307.702 10.8927 307.537 10.1048 307.537 9.2033C307.537 8.29421 307.702 7.50065 308.031 6.82262C308.365 6.14459 308.827 5.61808 309.418 5.24308C310.012 4.86808 310.704 4.68058 311.491 4.68058C312.279 4.68058 312.969 4.86808 313.56 5.24308C314.154 5.61808 314.616 6.14459 314.946 6.82262C315.279 7.50065 315.446 8.29421 315.446 9.2033C315.446 10.1048 315.279 10.8927 314.946 11.5669C314.616 12.2412 314.154 12.7658 313.56 13.1408C312.969 13.5158 312.279 13.7033 311.491 13.7033ZM311.491 12.4988C312.09 12.4988 312.582 12.3453 312.969 12.0385C313.355 11.7317 313.641 11.3283 313.827 10.8283C314.012 10.3283 314.105 9.78664 314.105 9.2033C314.105 8.61997 314.012 8.07641 313.827 7.57262C313.641 7.06883 313.355 6.66164 312.969 6.35103C312.582 6.04042 312.09 5.88512 311.491 5.88512C310.893 5.88512 310.401 6.04042 310.014 6.35103C309.628 6.66164 309.342 7.06883 309.156 7.57262C308.971 8.07641 308.878 8.61997 308.878 9.2033C308.878 9.78664 308.971 10.3283 309.156 10.8283C309.342 11.3283 309.628 11.7317 310.014 12.0385C310.401 12.3453 310.893 12.4988 311.491 12.4988ZM321.016 16.976C320.368 16.976 319.811 16.8927 319.345 16.726C318.879 16.5632 318.491 16.3472 318.18 16.0783C317.874 15.8132 317.629 15.5291 317.447 15.226L318.516 14.476C318.637 14.6351 318.79 14.8169 318.976 15.0215C319.161 15.2298 319.415 15.4097 319.737 15.5613C320.063 15.7166 320.489 15.7942 321.016 15.7942C321.72 15.7942 322.302 15.6238 322.76 15.2828C323.218 14.9419 323.447 14.4078 323.447 13.6806V11.9078H323.334C323.235 12.0669 323.095 12.2639 322.913 12.4988C322.735 12.7298 322.478 12.9363 322.141 13.1181C321.807 13.2961 321.357 13.3851 320.788 13.3851C320.084 13.3851 319.451 13.2185 318.891 12.8851C318.334 12.5518 317.893 12.0669 317.567 11.4306C317.245 10.7942 317.084 10.0215 317.084 9.11239C317.084 8.21845 317.241 7.44004 317.555 6.77717C317.87 6.1105 318.307 5.59535 318.868 5.23171C319.429 4.86429 320.076 4.68058 320.811 4.68058C321.379 4.68058 321.83 4.77527 322.163 4.96467C322.5 5.15027 322.758 5.36239 322.936 5.60103C323.118 5.83588 323.258 6.02906 323.357 6.18057H323.493V4.79421H324.788V13.7715C324.788 14.5215 324.618 15.1313 324.277 15.601C323.94 16.0745 323.485 16.4211 322.913 16.6408C322.345 16.8643 321.713 16.976 321.016 16.976ZM320.97 12.1806C321.508 12.1806 321.963 12.0575 322.334 11.8113C322.705 11.565 322.987 11.2109 323.18 10.7488C323.374 10.2866 323.47 9.73361 323.47 9.08967C323.47 8.46088 323.375 7.90595 323.186 7.42489C322.997 6.94383 322.716 6.56694 322.345 6.29421C321.974 6.02148 321.516 5.88512 320.97 5.88512C320.402 5.88512 319.929 6.02906 319.55 6.31694C319.175 6.60482 318.893 6.99118 318.703 7.47603C318.518 7.96088 318.425 8.49876 318.425 9.08967C318.425 9.69573 318.519 10.2317 318.709 10.6976C318.902 11.1597 319.186 11.5234 319.561 11.7885C319.94 12.0499 320.41 12.1806 320.97 12.1806ZM327.243 13.5215V4.79421H328.584V13.5215H327.243ZM327.925 3.33967C327.663 3.33967 327.438 3.25065 327.249 3.07262C327.063 2.89459 326.97 2.68058 326.97 2.43058C326.97 2.18058 327.063 1.96656 327.249 1.78853C327.438 1.6105 327.663 1.52148 327.925 1.52148C328.186 1.52148 328.41 1.6105 328.595 1.78853C328.785 1.96656 328.879 2.18058 328.879 2.43058C328.879 2.68058 328.785 2.89459 328.595 3.07262C328.41 3.25065 328.186 3.33967 327.925 3.33967ZM334.699 13.7033C333.858 13.7033 333.133 13.5177 332.523 13.1465C331.917 12.7715 331.449 12.2488 331.119 11.5783C330.794 10.9041 330.631 10.12 330.631 9.22603C330.631 8.33209 330.794 7.54421 331.119 6.86239C331.449 6.17679 331.907 5.6427 332.494 5.26012C333.085 4.87376 333.775 4.68058 334.562 4.68058C335.017 4.68058 335.466 4.75633 335.909 4.90785C336.352 5.05936 336.756 5.30558 337.119 5.64648C337.483 5.98361 337.773 6.43058 337.989 6.98739C338.205 7.54421 338.312 8.22982 338.312 9.04421V9.61239H331.585V8.4533H336.949C336.949 7.96088 336.85 7.52148 336.653 7.13512C336.46 6.74876 336.184 6.44383 335.824 6.22035C335.468 5.99686 335.047 5.88512 334.562 5.88512C334.028 5.88512 333.566 6.0177 333.176 6.28285C332.79 6.54421 332.492 6.88512 332.284 7.30557C332.076 7.72603 331.972 8.17679 331.972 8.65785V9.43058C331.972 10.0897 332.085 10.6484 332.312 11.1067C332.544 11.5613 332.864 11.9078 333.273 12.1465C333.682 12.3813 334.157 12.4988 334.699 12.4988C335.051 12.4988 335.369 12.4495 335.653 12.351C335.941 12.2488 336.189 12.0972 336.398 11.8965C336.606 11.6919 336.767 11.4382 336.881 11.1351L338.176 11.4988C338.04 11.9382 337.811 12.3245 337.489 12.6578C337.167 12.9874 336.769 13.245 336.295 13.4306C335.822 13.6124 335.29 13.7033 334.699 13.7033ZM346.534 6.74876L345.33 7.08967C345.254 6.88891 345.142 6.69383 344.994 6.50444C344.85 6.31126 344.653 6.15217 344.403 6.02717C344.153 5.90217 343.833 5.83967 343.443 5.83967C342.909 5.83967 342.464 5.96277 342.108 6.20898C341.756 6.45141 341.58 6.76012 341.58 7.13512C341.58 7.46845 341.701 7.73171 341.943 7.92489C342.186 8.11808 342.564 8.27906 343.08 8.40785L344.375 8.72603C345.155 8.91542 345.737 9.2052 346.119 9.59535C346.502 9.98171 346.693 10.4798 346.693 11.0897C346.693 11.5897 346.549 12.0366 346.261 12.4306C345.977 12.8245 345.58 13.1351 345.068 13.3624C344.557 13.5897 343.962 13.7033 343.284 13.7033C342.394 13.7033 341.657 13.5101 341.074 13.1238C340.491 12.7374 340.121 12.173 339.966 11.4306L341.239 11.1124C341.36 11.5821 341.589 11.9344 341.926 12.1692C342.267 12.4041 342.712 12.5215 343.261 12.5215C343.886 12.5215 344.383 12.3889 344.75 12.1238C345.121 11.8548 345.307 11.5328 345.307 11.1578C345.307 10.8548 345.201 10.601 344.989 10.3965C344.777 10.1882 344.451 10.0328 344.011 9.93058L342.557 9.58967C341.758 9.40027 341.17 9.10671 340.795 8.70898C340.424 8.30747 340.239 7.80558 340.239 7.2033C340.239 6.71088 340.377 6.27527 340.653 5.89648C340.934 5.5177 341.314 5.22035 341.795 5.00444C342.28 4.78853 342.83 4.68058 343.443 4.68058C344.307 4.68058 344.985 4.86997 345.477 5.24876C345.973 5.62754 346.326 6.12754 346.534 6.74876ZM353.189 13.5215V12.4988L357.03 8.29421C357.481 7.80179 357.852 7.37376 358.143 7.01012C358.435 6.6427 358.651 6.298 358.791 5.97603C358.935 5.65027 359.007 5.30936 359.007 4.9533C359.007 4.54421 358.909 4.19005 358.712 3.8908C358.518 3.59156 358.253 3.3605 357.916 3.19762C357.579 3.03474 357.2 2.9533 356.78 2.9533C356.333 2.9533 355.943 3.04611 355.609 3.23171C355.28 3.41353 355.024 3.66921 354.842 3.99876C354.664 4.3283 354.575 4.71467 354.575 5.15785H353.234C353.234 4.47603 353.392 3.87754 353.706 3.36239C354.02 2.84724 354.448 2.44573 354.99 2.15785C355.536 1.86997 356.147 1.72603 356.825 1.72603C357.507 1.72603 358.111 1.86997 358.638 2.15785C359.164 2.44573 359.577 2.83398 359.876 3.32262C360.176 3.81126 360.325 4.35482 360.325 4.9533C360.325 5.38133 360.248 5.79989 360.092 6.20898C359.941 6.61429 359.676 7.06694 359.297 7.56694C358.922 8.06315 358.401 8.66921 357.734 9.38512L355.121 12.1806V12.2715H360.53V13.5215H353.189ZM366.672 13.6806C365.816 13.6806 365.087 13.4476 364.484 12.9817C363.882 12.512 363.422 11.8321 363.104 10.9419C362.786 10.048 362.626 8.96845 362.626 7.7033C362.626 6.44573 362.786 5.37186 363.104 4.48171C363.426 3.58777 363.888 2.90595 364.49 2.43626C365.096 1.96277 365.823 1.72603 366.672 1.72603C367.52 1.72603 368.246 1.96277 368.848 2.43626C369.454 2.90595 369.916 3.58777 370.234 4.48171C370.556 5.37186 370.717 6.44573 370.717 7.7033C370.717 8.96845 370.558 10.048 370.24 10.9419C369.922 11.8321 369.462 12.512 368.859 12.9817C368.257 13.4476 367.528 13.6806 366.672 13.6806ZM366.672 12.4306C367.52 12.4306 368.179 12.0215 368.649 11.2033C369.119 10.3851 369.354 9.21845 369.354 7.7033C369.354 6.69573 369.246 5.83777 369.03 5.12944C368.818 4.42111 368.511 3.88133 368.109 3.51012C367.712 3.13891 367.232 2.9533 366.672 2.9533C365.831 2.9533 365.174 3.36808 364.7 4.19762C364.227 5.02338 363.99 6.19194 363.99 7.7033C363.99 8.71088 364.096 9.56694 364.308 10.2715C364.52 10.976 364.825 11.512 365.223 11.8794C365.625 12.2469 366.107 12.4306 366.672 12.4306ZM372.876 13.5215V12.4988L376.717 8.29421C377.168 7.80179 377.539 7.37376 377.831 7.01012C378.123 6.6427 378.339 6.298 378.479 5.97603C378.623 5.65027 378.695 5.30936 378.695 4.9533C378.695 4.54421 378.596 4.19005 378.399 3.8908C378.206 3.59156 377.941 3.3605 377.604 3.19762C377.267 3.03474 376.888 2.9533 376.467 2.9533C376.02 2.9533 375.63 3.04611 375.297 3.23171C374.967 3.41353 374.712 3.66921 374.53 3.99876C374.352 4.3283 374.263 4.71467 374.263 5.15785H372.922C372.922 4.47603 373.079 3.87754 373.393 3.36239C373.708 2.84724 374.136 2.44573 374.678 2.15785C375.223 1.86997 375.835 1.72603 376.513 1.72603C377.195 1.72603 377.799 1.86997 378.325 2.15785C378.852 2.44573 379.265 2.83398 379.564 3.32262C379.863 3.81126 380.013 4.35482 380.013 4.9533C380.013 5.38133 379.935 5.79989 379.78 6.20898C379.628 6.61429 379.363 7.06694 378.984 7.56694C378.609 8.06315 378.089 8.66921 377.422 9.38512L374.808 12.1806V12.2715H380.217V13.5215H372.876ZM382.041 11.1351V9.97603L387.155 1.88512H387.996V3.68058H387.428L383.564 9.79421V9.88512H390.45V11.1351H382.041ZM387.518 13.5215V10.7828V10.2431V1.88512H388.859V13.5215H387.518ZM397.602 7.0783V8.3283H392.511V7.0783H397.602ZM399.392 13.5215V12.4988L403.233 8.29421C403.684 7.80179 404.055 7.37376 404.347 7.01012C404.638 6.6427 404.854 6.298 404.994 5.97603C405.138 5.65027 405.21 5.30936 405.21 4.9533C405.21 4.54421 405.112 4.19005 404.915 3.8908C404.722 3.59156 404.456 3.3605 404.119 3.19762C403.782 3.03474 403.403 2.9533 402.983 2.9533C402.536 2.9533 402.146 3.04611 401.812 3.23171C401.483 3.41353 401.227 3.66921 401.045 3.99876C400.867 4.3283 400.778 4.71467 400.778 5.15785H399.438C399.438 4.47603 399.595 3.87754 399.909 3.36239C400.223 2.84724 400.652 2.44573 401.193 2.15785C401.739 1.86997 402.35 1.72603 403.028 1.72603C403.71 1.72603 404.314 1.86997 404.841 2.15785C405.367 2.44573 405.78 2.83398 406.08 3.32262C406.379 3.81126 406.528 4.35482 406.528 4.9533C406.528 5.38133 406.451 5.79989 406.295 6.20898C406.144 6.61429 405.879 7.06694 405.5 7.56694C405.125 8.06315 404.604 8.66921 403.938 9.38512L401.324 12.1806V12.2715H406.733V13.5215H399.392ZM412.875 13.6806C412.019 13.6806 411.29 13.4476 410.688 12.9817C410.085 12.512 409.625 11.8321 409.307 10.9419C408.989 10.048 408.83 8.96845 408.83 7.7033C408.83 6.44573 408.989 5.37186 409.307 4.48171C409.629 3.58777 410.091 2.90595 410.693 2.43626C411.299 1.96277 412.027 1.72603 412.875 1.72603C413.723 1.72603 414.449 1.96277 415.051 2.43626C415.657 2.90595 416.119 3.58777 416.438 4.48171C416.759 5.37186 416.92 6.44573 416.92 7.7033C416.92 8.96845 416.761 10.048 416.443 10.9419C416.125 11.8321 415.665 12.512 415.062 12.9817C414.46 13.4476 413.731 13.6806 412.875 13.6806ZM412.875 12.4306C413.723 12.4306 414.383 12.0215 414.852 11.2033C415.322 10.3851 415.557 9.21845 415.557 7.7033C415.557 6.69573 415.449 5.83777 415.233 5.12944C415.021 4.42111 414.714 3.88133 414.312 3.51012C413.915 3.13891 413.436 2.9533 412.875 2.9533C412.034 2.9533 411.377 3.36808 410.903 4.19762C410.43 5.02338 410.193 6.19194 410.193 7.7033C410.193 8.71088 410.299 9.56694 410.511 10.2715C410.723 10.976 411.028 11.512 411.426 11.8794C411.828 12.2469 412.311 12.4306 412.875 12.4306ZM419.08 13.5215V12.4988L422.92 8.29421C423.371 7.80179 423.742 7.37376 424.034 7.01012C424.326 6.6427 424.542 6.298 424.682 5.97603C424.826 5.65027 424.898 5.30936 424.898 4.9533C424.898 4.54421 424.799 4.19005 424.602 3.8908C424.409 3.59156 424.144 3.3605 423.807 3.19762C423.47 3.03474 423.091 2.9533 422.67 2.9533C422.223 2.9533 421.833 3.04611 421.5 3.23171C421.17 3.41353 420.915 3.66921 420.733 3.99876C420.555 4.3283 420.466 4.71467 420.466 5.15785H419.125C419.125 4.47603 419.282 3.87754 419.597 3.36239C419.911 2.84724 420.339 2.44573 420.881 2.15785C421.426 1.86997 422.038 1.72603 422.716 1.72603C423.398 1.72603 424.002 1.86997 424.528 2.15785C425.055 2.44573 425.468 2.83398 425.767 3.32262C426.066 3.81126 426.216 4.35482 426.216 4.9533C426.216 5.38133 426.138 5.79989 425.983 6.20898C425.831 6.61429 425.566 7.06694 425.188 7.56694C424.812 8.06315 424.292 8.66921 423.625 9.38512L421.011 12.1806V12.2715H426.42V13.5215H419.08ZM432.403 13.6806C431.737 13.6806 431.136 13.548 430.602 13.2828C430.068 13.0177 429.64 12.6541 429.318 12.1919C428.996 11.7298 428.82 11.2033 428.79 10.6124H430.153C430.206 11.1389 430.445 11.5745 430.869 11.9192C431.297 12.2601 431.809 12.4306 432.403 12.4306C432.881 12.4306 433.305 12.3188 433.676 12.0953C434.051 11.8719 434.345 11.565 434.557 11.1749C434.773 10.781 434.881 10.3359 434.881 9.83967C434.881 9.33209 434.769 8.87944 434.545 8.48171C434.326 8.0802 434.023 7.76391 433.636 7.53285C433.25 7.30179 432.809 7.18436 432.312 7.18057C431.956 7.17679 431.591 7.23171 431.216 7.34535C430.841 7.4552 430.532 7.59724 430.29 7.77148L428.972 7.61239L429.676 1.88512H435.722V3.13512H430.858L430.449 6.56694H430.517C430.756 6.37754 431.055 6.22035 431.415 6.09535C431.775 5.97035 432.15 5.90785 432.54 5.90785C433.252 5.90785 433.886 6.0783 434.443 6.41921C435.004 6.75633 435.443 7.21845 435.761 7.80557C436.083 8.3927 436.244 9.06315 436.244 9.81694C436.244 10.5594 436.078 11.2222 435.744 11.8056C435.415 12.3851 434.96 12.8435 434.381 13.1806C433.801 13.5139 433.142 13.6806 432.403 13.6806Z" fill="white" fill-opacity="0.5"/>
</svg>
