<svg width="172" height="173" viewBox="0 0 172 173" fill="none" xmlns="http://www.w3.org/2000/svg">
<path d="M1.12784 11.6689V0.0325813H2.53693V5.2144H8.74148V0.0325813H10.1506V11.6689H8.74148V6.4644H2.53693V11.6689H1.12784ZM16.3352 11.8508C15.5473 11.8508 14.8561 11.6633 14.2614 11.2883C13.6705 10.9133 13.2083 10.3886 12.875 9.7144C12.5455 9.04016 12.3807 8.25228 12.3807 7.35076C12.3807 6.44167 12.5455 5.64811 12.875 4.97008C13.2083 4.29205 13.6705 3.76554 14.2614 3.39054C14.8561 3.01554 15.5473 2.82804 16.3352 2.82804C17.1231 2.82804 17.8125 3.01554 18.4034 3.39054C18.9981 3.76554 19.4602 4.29205 19.7898 4.97008C20.1231 5.64811 20.2898 6.44167 20.2898 7.35076C20.2898 8.25228 20.1231 9.04016 19.7898 9.7144C19.4602 10.3886 18.9981 10.9133 18.4034 11.2883C17.8125 11.6633 17.1231 11.8508 16.3352 11.8508ZM16.3352 10.6462C16.9337 10.6462 17.4261 10.4928 17.8125 10.186C18.1989 9.87917 18.4848 9.47576 18.6705 8.97576C18.8561 8.47576 18.9489 7.9341 18.9489 7.35076C18.9489 6.76743 18.8561 6.22387 18.6705 5.72008C18.4848 5.21629 18.1989 4.8091 17.8125 4.49849C17.4261 4.18788 16.9337 4.03258 16.3352 4.03258C15.7367 4.03258 15.2443 4.18788 14.858 4.49849C14.4716 4.8091 14.1856 5.21629 14 5.72008C13.8144 6.22387 13.7216 6.76743 13.7216 7.35076C13.7216 7.9341 13.8144 8.47576 14 8.97576C14.1856 9.47576 14.4716 9.87917 14.858 10.186C15.2443 10.4928 15.7367 10.6462 16.3352 10.6462ZM22.3366 11.6689V2.94167H23.6321V4.30531H23.7457C23.9276 3.8394 24.2211 3.47766 24.6264 3.22008C25.0317 2.95872 25.5185 2.82804 26.0866 2.82804C26.6624 2.82804 27.1416 2.95872 27.5241 3.22008C27.9105 3.47766 28.2116 3.8394 28.4276 4.30531H28.5185C28.742 3.85455 29.0772 3.4966 29.5241 3.23145C29.9711 2.96251 30.5071 2.82804 31.1321 2.82804C31.9124 2.82804 32.5507 3.07235 33.0469 3.56099C33.5431 4.04584 33.7912 4.80152 33.7912 5.82804V11.6689H32.4503V5.82804C32.4503 5.1841 32.2741 4.72387 31.9219 4.44735C31.5696 4.17084 31.1548 4.03258 30.6776 4.03258C30.0639 4.03258 29.5885 4.21819 29.2514 4.5894C28.9143 4.95682 28.7457 5.42273 28.7457 5.98713V11.6689H27.3821V5.69167C27.3821 5.19546 27.2211 4.79584 26.8991 4.49281C26.5772 4.18599 26.1624 4.03258 25.6548 4.03258C25.3063 4.03258 24.9806 4.12538 24.6776 4.31099C24.3783 4.4966 24.1359 4.75417 23.9503 5.08372C23.7685 5.40948 23.6776 5.78637 23.6776 6.2144V11.6689H22.3366ZM39.902 11.8508C39.0611 11.8508 38.3357 11.6652 37.7259 11.2939C37.1198 10.9189 36.652 10.3962 36.3224 9.72576C35.9967 9.05152 35.8338 8.26743 35.8338 7.37349C35.8338 6.47955 35.9967 5.69167 36.3224 5.00985C36.652 4.32425 37.1103 3.79016 37.6974 3.40758C38.2884 3.02122 38.9777 2.82804 39.7656 2.82804C40.2202 2.82804 40.669 2.90379 41.1122 3.05531C41.5554 3.20682 41.9588 3.45304 42.3224 3.79395C42.6861 4.13107 42.9759 4.57804 43.1918 5.13485C43.4077 5.69167 43.5156 6.37728 43.5156 7.19167V7.75985H36.7884V6.60076H42.152C42.152 6.10834 42.0535 5.66894 41.8565 5.28258C41.6634 4.89622 41.3868 4.59129 41.027 4.36781C40.6709 4.14432 40.2505 4.03258 39.7656 4.03258C39.2315 4.03258 38.7694 4.16516 38.3793 4.43031C37.9929 4.69167 37.6955 5.03258 37.4872 5.45304C37.2789 5.87349 37.1747 6.32425 37.1747 6.80531V7.57804C37.1747 8.23713 37.2884 8.79584 37.5156 9.25417C37.7467 9.70872 38.0668 10.0553 38.4759 10.2939C38.8849 10.5288 39.3603 10.6462 39.902 10.6462C40.2543 10.6462 40.5724 10.597 40.8565 10.4985C41.1444 10.3962 41.3925 10.2447 41.6009 10.0439C41.8092 9.8394 41.9702 9.58561 42.0838 9.28258L43.3793 9.64622C43.2429 10.0856 43.0137 10.472 42.6918 10.8053C42.3698 11.1349 41.9721 11.3924 41.4986 11.578C41.0251 11.7599 40.4929 11.8508 39.902 11.8508ZM1.12784 43.6689V32.0326H5.19602C6.00663 32.0326 6.67519 32.1727 7.2017 32.453C7.72822 32.7296 8.12027 33.1027 8.37784 33.5724C8.63542 34.0383 8.7642 34.5553 8.7642 35.1235C8.7642 35.6235 8.67519 36.0364 8.49716 36.3621C8.32292 36.6879 8.09186 36.9455 7.80398 37.1349C7.51989 37.3242 7.21117 37.4644 6.87784 37.5553V37.6689C7.2339 37.6917 7.59186 37.8167 7.9517 38.0439C8.31155 38.2712 8.61269 38.597 8.85511 39.0212C9.09754 39.4455 9.21875 39.9644 9.21875 40.578C9.21875 41.1614 9.08617 41.686 8.82102 42.1519C8.55587 42.6178 8.13731 42.9871 7.56534 43.2599C6.99337 43.5326 6.24905 43.6689 5.33239 43.6689H1.12784ZM2.53693 42.4189H5.33239C6.25284 42.4189 6.90625 42.2409 7.29261 41.8849C7.68277 41.525 7.87784 41.0894 7.87784 40.578C7.87784 40.1841 7.77746 39.8205 7.5767 39.4871C7.37595 39.15 7.08996 38.8811 6.71875 38.6803C6.34754 38.4758 5.90814 38.3735 5.40057 38.3735H2.53693V42.4189ZM2.53693 37.1462H5.15057C5.57481 37.1462 5.95739 37.0629 6.2983 36.8962C6.64299 36.7296 6.91572 36.4947 7.11648 36.1917C7.32102 35.8886 7.4233 35.5326 7.4233 35.1235C7.4233 34.6121 7.24527 34.1784 6.8892 33.8224C6.53314 33.4625 5.96875 33.2826 5.19602 33.2826H2.53693V37.1462ZM21.3523 37.8508C21.3523 39.078 21.1307 40.1386 20.6875 41.0326C20.2443 41.9265 19.6364 42.6159 18.8636 43.1008C18.0909 43.5856 17.2083 43.828 16.2159 43.828C15.2235 43.828 14.3409 43.5856 13.5682 43.1008C12.7955 42.6159 12.1875 41.9265 11.7443 41.0326C11.3011 40.1386 11.0795 39.078 11.0795 37.8508C11.0795 36.6235 11.3011 35.5629 11.7443 34.6689C12.1875 33.775 12.7955 33.0856 13.5682 32.6008C14.3409 32.1159 15.2235 31.8735 16.2159 31.8735C17.2083 31.8735 18.0909 32.1159 18.8636 32.6008C19.6364 33.0856 20.2443 33.775 20.6875 34.6689C21.1307 35.5629 21.3523 36.6235 21.3523 37.8508ZM19.9886 37.8508C19.9886 36.8432 19.8201 35.9928 19.483 35.2996C19.1496 34.6064 18.697 34.0818 18.125 33.7258C17.5568 33.3697 16.9205 33.1917 16.2159 33.1917C15.5114 33.1917 14.8731 33.3697 14.3011 33.7258C13.733 34.0818 13.2803 34.6064 12.9432 35.2996C12.6098 35.9928 12.4432 36.8432 12.4432 37.8508C12.4432 38.8583 12.6098 39.7087 12.9432 40.4019C13.2803 41.0951 13.733 41.6197 14.3011 41.9758C14.8731 42.3318 15.5114 42.5099 16.2159 42.5099C16.9205 42.5099 17.5568 42.3318 18.125 41.9758C18.697 41.6197 19.1496 41.0951 19.483 40.4019C19.8201 39.7087 19.9886 38.8583 19.9886 37.8508ZM22.6009 33.2826V32.0326H31.3281V33.2826H27.669V43.6689H26.2599V33.2826H22.6009ZM1.12784 75.6689V64.0326H5.19602C6.00663 64.0326 6.67519 64.1727 7.2017 64.453C7.72822 64.7296 8.12027 65.1027 8.37784 65.5724C8.63542 66.0383 8.7642 66.5553 8.7642 67.1235C8.7642 67.6235 8.67519 68.0364 8.49716 68.3621C8.32292 68.6879 8.09186 68.9455 7.80398 69.1349C7.51989 69.3242 7.21117 69.4644 6.87784 69.5553V69.6689C7.2339 69.6917 7.59186 69.8167 7.9517 70.0439C8.31155 70.2712 8.61269 70.597 8.85511 71.0212C9.09754 71.4455 9.21875 71.9644 9.21875 72.578C9.21875 73.1614 9.08617 73.686 8.82102 74.1519C8.55587 74.6178 8.13731 74.9871 7.56534 75.2599C6.99337 75.5326 6.24905 75.6689 5.33239 75.6689H1.12784ZM2.53693 74.4189H5.33239C6.25284 74.4189 6.90625 74.2409 7.29261 73.8849C7.68277 73.525 7.87784 73.0894 7.87784 72.578C7.87784 72.1841 7.77746 71.8205 7.5767 71.4871C7.37595 71.15 7.08996 70.8811 6.71875 70.6803C6.34754 70.4758 5.90814 70.3735 5.40057 70.3735H2.53693V74.4189ZM2.53693 69.1462H5.15057C5.57481 69.1462 5.95739 69.0629 6.2983 68.8962C6.64299 68.7296 6.91572 68.4947 7.11648 68.1917C7.32102 67.8886 7.4233 67.5326 7.4233 67.1235C7.4233 66.6121 7.24527 66.1784 6.8892 65.8224C6.53314 65.4625 5.96875 65.2826 5.19602 65.2826H2.53693V69.1462ZM21.3523 69.8508C21.3523 71.078 21.1307 72.1386 20.6875 73.0326C20.2443 73.9265 19.6364 74.6159 18.8636 75.1008C18.0909 75.5856 17.2083 75.828 16.2159 75.828C15.2235 75.828 14.3409 75.5856 13.5682 75.1008C12.7955 74.6159 12.1875 73.9265 11.7443 73.0326C11.3011 72.1386 11.0795 71.078 11.0795 69.8508C11.0795 68.6235 11.3011 67.5629 11.7443 66.6689C12.1875 65.775 12.7955 65.0856 13.5682 64.6008C14.3409 64.1159 15.2235 63.8735 16.2159 63.8735C17.2083 63.8735 18.0909 64.1159 18.8636 64.6008C19.6364 65.0856 20.2443 65.775 20.6875 66.6689C21.1307 67.5629 21.3523 68.6235 21.3523 69.8508ZM19.9886 69.8508C19.9886 68.8432 19.8201 67.9928 19.483 67.2996C19.1496 66.6064 18.697 66.0818 18.125 65.7258C17.5568 65.3697 16.9205 65.1917 16.2159 65.1917C15.5114 65.1917 14.8731 65.3697 14.3011 65.7258C13.733 66.0818 13.2803 66.6064 12.9432 67.2996C12.6098 67.9928 12.4432 68.8432 12.4432 69.8508C12.4432 70.8583 12.6098 71.7087 12.9432 72.4019C13.2803 73.0951 13.733 73.6197 14.3011 73.9758C14.8731 74.3318 15.5114 74.5099 16.2159 74.5099C16.9205 74.5099 17.5568 74.3318 18.125 73.9758C18.697 73.6197 19.1496 73.0951 19.483 72.4019C19.8201 71.7087 19.9886 70.8583 19.9886 69.8508ZM23.7216 64.0326H25.4034L29.358 73.6917H29.4943L33.4489 64.0326H35.1307V75.6689H33.8125V66.828H33.6989L30.0625 75.6689H28.7898L25.1534 66.828H25.0398V75.6689H23.7216V64.0326ZM7.49148 98.9417C7.4233 98.3659 7.14678 97.9189 6.66193 97.6008C6.17708 97.2826 5.58239 97.1235 4.87784 97.1235C4.36269 97.1235 3.91193 97.2068 3.52557 97.3735C3.14299 97.5402 2.84375 97.7693 2.62784 98.061C2.41572 98.3527 2.30966 98.6841 2.30966 99.0553C2.30966 99.3659 2.38352 99.633 2.53125 99.8564C2.68277 100.076 2.87595 100.26 3.1108 100.408C3.34564 100.552 3.59186 100.671 3.84943 100.766C4.10701 100.856 4.34375 100.93 4.55966 100.987L5.74148 101.305C6.04451 101.385 6.38163 101.495 6.75284 101.635C7.12784 101.775 7.4858 101.966 7.8267 102.209C8.1714 102.447 8.45549 102.754 8.67898 103.129C8.90246 103.504 9.0142 103.964 9.0142 104.51C9.0142 105.139 8.84943 105.707 8.51989 106.214C8.19413 106.722 7.71686 107.125 7.08807 107.425C6.46307 107.724 5.7036 107.873 4.80966 107.873C3.97633 107.873 3.25473 107.739 2.64489 107.47C2.03883 107.201 1.56155 106.826 1.21307 106.345C0.868371 105.864 0.673295 105.305 0.627841 104.669H2.08239C2.12027 105.108 2.26799 105.472 2.52557 105.76C2.78693 106.044 3.11648 106.256 3.5142 106.396C3.91572 106.533 4.34754 106.601 4.80966 106.601C5.34754 106.601 5.83049 106.514 6.25852 106.339C6.68655 106.161 7.02557 105.915 7.27557 105.601C7.52557 105.283 7.65057 104.911 7.65057 104.487C7.65057 104.101 7.54261 103.786 7.3267 103.544C7.1108 103.302 6.8267 103.105 6.47443 102.953C6.12216 102.802 5.74148 102.669 5.33239 102.555L3.90057 102.146C2.99148 101.885 2.27178 101.512 1.74148 101.027C1.21117 100.542 0.946023 99.9076 0.946023 99.1235C0.946023 98.472 1.12216 97.9038 1.47443 97.4189C1.83049 96.9303 2.30777 96.5515 2.90625 96.2826C3.50852 96.0099 4.18087 95.8735 4.9233 95.8735C5.6733 95.8735 6.33996 96.008 6.9233 96.2769C7.50663 96.5421 7.96875 96.9057 8.30966 97.3678C8.65436 97.8299 8.83617 98.3546 8.85511 98.9417H7.49148ZM14.6946 107.851C13.9067 107.851 13.2154 107.663 12.6207 107.288C12.0298 106.913 11.5677 106.389 11.2344 105.714C10.9048 105.04 10.7401 104.252 10.7401 103.351C10.7401 102.442 10.9048 101.648 11.2344 100.97C11.5677 100.292 12.0298 99.7655 12.6207 99.3905C13.2154 99.0155 13.9067 98.828 14.6946 98.828C15.4825 98.828 16.1719 99.0155 16.7628 99.3905C17.3575 99.7655 17.8196 100.292 18.1491 100.97C18.4825 101.648 18.6491 102.442 18.6491 103.351C18.6491 104.252 18.4825 105.04 18.1491 105.714C17.8196 106.389 17.3575 106.913 16.7628 107.288C16.1719 107.663 15.4825 107.851 14.6946 107.851ZM14.6946 106.646C15.2931 106.646 15.7855 106.493 16.1719 106.186C16.5582 105.879 16.8442 105.476 17.0298 104.976C17.2154 104.476 17.3082 103.934 17.3082 103.351C17.3082 102.767 17.2154 102.224 17.0298 101.72C16.8442 101.216 16.5582 100.809 16.1719 100.498C15.7855 100.188 15.2931 100.033 14.6946 100.033C14.0961 100.033 13.6037 100.188 13.2173 100.498C12.831 100.809 12.545 101.216 12.3594 101.72C12.1738 102.224 12.081 102.767 12.081 103.351C12.081 103.934 12.1738 104.476 12.3594 104.976C12.545 105.476 12.831 105.879 13.2173 106.186C13.6037 106.493 14.0961 106.646 14.6946 106.646ZM24.5824 98.9417V100.078H19.8778V98.9417H24.5824ZM21.2869 107.669V97.7371C21.2869 97.2371 21.4044 96.8205 21.6392 96.4871C21.8741 96.1538 22.179 95.9038 22.554 95.7371C22.929 95.5705 23.3248 95.4871 23.7415 95.4871C24.071 95.4871 24.34 95.5136 24.5483 95.5667C24.7566 95.6197 24.9119 95.6689 25.0142 95.7144L24.6278 96.8735C24.5597 96.8508 24.465 96.8224 24.3438 96.7883C24.2263 96.7542 24.071 96.7371 23.8778 96.7371C23.4347 96.7371 23.1146 96.8489 22.9176 97.0724C22.7244 97.2958 22.6278 97.6235 22.6278 98.0553V107.669H21.2869ZM30.2571 98.9417V100.078H25.7344V98.9417H30.2571ZM27.0526 96.8508H28.3935V105.169C28.3935 105.548 28.4484 105.832 28.5582 106.021C28.6719 106.207 28.8158 106.332 28.9901 106.396C29.1681 106.457 29.3556 106.487 29.5526 106.487C29.7003 106.487 29.8215 106.48 29.9162 106.464C30.0109 106.445 30.0866 106.43 30.1435 106.419L30.4162 107.623C30.3253 107.658 30.1984 107.692 30.0355 107.726C29.8726 107.764 29.6662 107.783 29.4162 107.783C29.0374 107.783 28.6662 107.701 28.3026 107.538C27.9427 107.375 27.6435 107.127 27.4048 106.794C27.17 106.461 27.0526 106.04 27.0526 105.533V96.8508ZM34.2514 107.669L31.5923 98.9417H33.0014L34.8878 105.623H34.9787L36.8423 98.9417H38.2741L40.1151 105.601H40.206L42.0923 98.9417H43.5014L40.8423 107.669H39.5241L37.6151 100.964H37.4787L35.5696 107.669H34.2514ZM47.8423 107.873C47.2893 107.873 46.7874 107.769 46.3366 107.561C45.8859 107.349 45.5279 107.044 45.2628 106.646C44.9976 106.245 44.8651 105.76 44.8651 105.192C44.8651 104.692 44.9635 104.286 45.1605 103.976C45.3575 103.661 45.6207 103.415 45.9503 103.237C46.2798 103.059 46.6435 102.927 47.0412 102.839C47.4427 102.748 47.8461 102.677 48.2514 102.623C48.7817 102.555 49.2116 102.504 49.5412 102.47C49.8745 102.432 50.117 102.37 50.2685 102.283C50.4238 102.195 50.5014 102.044 50.5014 101.828V101.783C50.5014 101.222 50.348 100.786 50.0412 100.476C49.7382 100.165 49.2779 100.01 48.6605 100.01C48.0204 100.01 47.5185 100.15 47.1548 100.43C46.7912 100.711 46.5355 101.01 46.3878 101.328L45.1151 100.873C45.3423 100.343 45.6454 99.9303 46.0241 99.6349C46.4067 99.3356 46.8234 99.1273 47.2741 99.0099C47.7287 98.8886 48.1757 98.828 48.6151 98.828C48.8954 98.828 49.2173 98.8621 49.581 98.9303C49.9484 98.9947 50.3026 99.1292 50.6435 99.3337C50.9882 99.5383 51.2741 99.847 51.5014 100.26C51.7287 100.673 51.8423 101.226 51.8423 101.919V107.669H50.5014V106.487H50.4332C50.3423 106.677 50.1908 106.879 49.9787 107.095C49.7666 107.311 49.4844 107.495 49.1321 107.646C48.7798 107.798 48.3499 107.873 47.8423 107.873ZM48.0469 106.669C48.5772 106.669 49.0241 106.565 49.3878 106.356C49.7552 106.148 50.0317 105.879 50.2173 105.55C50.4067 105.22 50.5014 104.873 50.5014 104.51V103.283C50.4446 103.351 50.3196 103.413 50.1264 103.47C49.937 103.523 49.7173 103.57 49.4673 103.612C49.2211 103.65 48.9806 103.684 48.7457 103.714C48.5147 103.741 48.3272 103.764 48.1832 103.783C47.8348 103.828 47.509 103.902 47.206 104.004C46.9067 104.103 46.6643 104.252 46.4787 104.453C46.2969 104.65 46.206 104.919 46.206 105.26C46.206 105.726 46.3783 106.078 46.723 106.317C47.0715 106.552 47.5128 106.669 48.0469 106.669ZM54.2898 107.669V98.9417H55.5852V100.26H55.6761C55.8352 99.828 56.1231 99.4777 56.5398 99.2087C56.9564 98.9398 57.4261 98.8053 57.9489 98.8053C58.0473 98.8053 58.1705 98.8072 58.3182 98.811C58.4659 98.8148 58.5777 98.8205 58.6534 98.828V100.192C58.608 100.18 58.5038 100.163 58.3409 100.141C58.1818 100.114 58.0133 100.101 57.8352 100.101C57.411 100.101 57.0322 100.19 56.6989 100.368C56.3693 100.542 56.108 100.784 55.9148 101.095C55.7254 101.402 55.6307 101.752 55.6307 102.146V107.669H54.2898ZM63.6364 107.851C62.7955 107.851 62.0701 107.665 61.4602 107.294C60.8542 106.919 60.3864 106.396 60.0568 105.726C59.7311 105.052 59.5682 104.267 59.5682 103.373C59.5682 102.48 59.7311 101.692 60.0568 101.01C60.3864 100.324 60.8447 99.7902 61.4318 99.4076C62.0227 99.0212 62.7121 98.828 63.5 98.828C63.9545 98.828 64.4034 98.9038 64.8466 99.0553C65.2898 99.2068 65.6932 99.453 66.0568 99.7939C66.4205 100.131 66.7102 100.578 66.9261 101.135C67.142 101.692 67.25 102.377 67.25 103.192V103.76H60.5227V102.601H65.8864C65.8864 102.108 65.7879 101.669 65.5909 101.283C65.3977 100.896 65.1212 100.591 64.7614 100.368C64.4053 100.144 63.9848 100.033 63.5 100.033C62.9659 100.033 62.5038 100.165 62.1136 100.43C61.7273 100.692 61.4299 101.033 61.2216 101.453C61.0133 101.873 60.9091 102.324 60.9091 102.805V103.578C60.9091 104.237 61.0227 104.796 61.25 105.254C61.4811 105.709 61.8011 106.055 62.2102 106.294C62.6193 106.529 63.0947 106.646 63.6364 106.646C63.9886 106.646 64.3068 106.597 64.5909 106.498C64.8788 106.396 65.1269 106.245 65.3352 106.044C65.5436 105.839 65.7045 105.586 65.8182 105.283L67.1136 105.646C66.9773 106.086 66.7481 106.472 66.4261 106.805C66.1042 107.135 65.7064 107.392 65.233 107.578C64.7595 107.76 64.2273 107.851 63.6364 107.851ZM77.5625 107.669H73.9716V96.0326H77.7216C78.8504 96.0326 79.8163 96.2655 80.6193 96.7314C81.4223 97.1936 82.0379 97.8583 82.4659 98.7258C82.8939 99.5894 83.108 100.623 83.108 101.828C83.108 103.04 82.892 104.084 82.4602 104.959C82.0284 105.83 81.3996 106.5 80.5739 106.97C79.7481 107.436 78.7443 107.669 77.5625 107.669ZM75.3807 106.419H77.4716C78.4337 106.419 79.2311 106.233 79.8636 105.862C80.4962 105.491 80.9678 104.963 81.2784 104.277C81.589 103.591 81.7443 102.775 81.7443 101.828C81.7443 100.889 81.5909 100.08 81.2841 99.4019C80.9773 98.7201 80.5189 98.1974 79.9091 97.8337C79.2992 97.4663 78.5398 97.2826 77.6307 97.2826H75.3807V106.419ZM88.9489 107.851C88.108 107.851 87.3826 107.665 86.7727 107.294C86.1667 106.919 85.6989 106.396 85.3693 105.726C85.0436 105.052 84.8807 104.267 84.8807 103.373C84.8807 102.48 85.0436 101.692 85.3693 101.01C85.6989 100.324 86.1572 99.7902 86.7443 99.4076C87.3352 99.0212 88.0246 98.828 88.8125 98.828C89.267 98.828 89.7159 98.9038 90.1591 99.0553C90.6023 99.2068 91.0057 99.453 91.3693 99.7939C91.733 100.131 92.0227 100.578 92.2386 101.135C92.4545 101.692 92.5625 102.377 92.5625 103.192V103.76H85.8352V102.601H91.1989C91.1989 102.108 91.1004 101.669 90.9034 101.283C90.7102 100.896 90.4337 100.591 90.0739 100.368C89.7178 100.144 89.2973 100.033 88.8125 100.033C88.2784 100.033 87.8163 100.165 87.4261 100.43C87.0398 100.692 86.7424 101.033 86.5341 101.453C86.3258 101.873 86.2216 102.324 86.2216 102.805V103.578C86.2216 104.237 86.3352 104.796 86.5625 105.254C86.7936 105.709 87.1136 106.055 87.5227 106.294C87.9318 106.529 88.4072 106.646 88.9489 106.646C89.3011 106.646 89.6193 106.597 89.9034 106.498C90.1913 106.396 90.4394 106.245 90.6477 106.044C90.8561 105.839 91.017 105.586 91.1307 105.283L92.4261 105.646C92.2898 106.086 92.0606 106.472 91.7386 106.805C91.4167 107.135 91.0189 107.392 90.5455 107.578C90.072 107.76 89.5398 107.851 88.9489 107.851ZM101.473 98.9417L98.2457 107.669H96.8821L93.6548 98.9417H95.1094L97.5185 105.896H97.6094L100.018 98.9417H101.473ZM106.589 107.851C105.749 107.851 105.023 107.665 104.413 107.294C103.807 106.919 103.339 106.396 103.01 105.726C102.684 105.052 102.521 104.267 102.521 103.373C102.521 102.48 102.684 101.692 103.01 101.01C103.339 100.324 103.798 99.7902 104.385 99.4076C104.976 99.0212 105.665 98.828 106.453 98.828C106.908 98.828 107.357 98.9038 107.8 99.0553C108.243 99.2068 108.646 99.453 109.01 99.7939C109.374 100.131 109.663 100.578 109.879 101.135C110.095 101.692 110.203 102.377 110.203 103.192V103.76H103.476V102.601H108.839C108.839 102.108 108.741 101.669 108.544 101.283C108.351 100.896 108.074 100.591 107.714 100.368C107.358 100.144 106.938 100.033 106.453 100.033C105.919 100.033 105.457 100.165 105.067 100.43C104.68 100.692 104.383 101.033 104.175 101.453C103.966 101.873 103.862 102.324 103.862 102.805V103.578C103.862 104.237 103.976 104.796 104.203 105.254C104.434 105.709 104.754 106.055 105.163 106.294C105.572 106.529 106.048 106.646 106.589 106.646C106.942 106.646 107.26 106.597 107.544 106.498C107.832 106.396 108.08 106.245 108.288 106.044C108.497 105.839 108.658 105.586 108.771 105.283L110.067 105.646C109.93 106.086 109.701 106.472 109.379 106.805C109.057 107.135 108.66 107.392 108.186 107.578C107.713 107.76 107.18 107.851 106.589 107.851ZM113.584 96.0326V107.669H112.243V96.0326H113.584ZM119.585 107.851C118.797 107.851 118.106 107.663 117.511 107.288C116.92 106.913 116.458 106.389 116.125 105.714C115.795 105.04 115.631 104.252 115.631 103.351C115.631 102.442 115.795 101.648 116.125 100.97C116.458 100.292 116.92 99.7655 117.511 99.3905C118.106 99.0155 118.797 98.828 119.585 98.828C120.373 98.828 121.063 99.0155 121.653 99.3905C122.248 99.7655 122.71 100.292 123.04 100.97C123.373 101.648 123.54 102.442 123.54 103.351C123.54 104.252 123.373 105.04 123.04 105.714C122.71 106.389 122.248 106.913 121.653 107.288C121.063 107.663 120.373 107.851 119.585 107.851ZM119.585 106.646C120.184 106.646 120.676 106.493 121.062 106.186C121.449 105.879 121.735 105.476 121.92 104.976C122.106 104.476 122.199 103.934 122.199 103.351C122.199 102.767 122.106 102.224 121.92 101.72C121.735 101.216 121.449 100.809 121.062 100.498C120.676 100.188 120.184 100.033 119.585 100.033C118.987 100.033 118.494 100.188 118.108 100.498C117.722 100.809 117.436 101.216 117.25 101.72C117.064 102.224 116.972 102.767 116.972 103.351C116.972 103.934 117.064 104.476 117.25 104.976C117.436 105.476 117.722 105.879 118.108 106.186C118.494 106.493 118.987 106.646 119.585 106.646ZM125.587 110.942V98.9417H126.882V100.328H127.041C127.14 100.177 127.276 99.9833 127.45 99.7485C127.628 99.5099 127.882 99.2977 128.212 99.1121C128.545 98.9227 128.996 98.828 129.564 98.828C130.299 98.828 130.946 99.0117 131.507 99.3792C132.068 99.7466 132.505 100.267 132.82 100.942C133.134 101.616 133.291 102.411 133.291 103.328C133.291 104.252 133.134 105.053 132.82 105.731C132.505 106.406 132.07 106.928 131.513 107.3C130.956 107.667 130.314 107.851 129.587 107.851C129.026 107.851 128.577 107.758 128.24 107.572C127.903 107.383 127.643 107.169 127.462 106.93C127.28 106.688 127.14 106.487 127.041 106.328H126.928V110.942H125.587ZM126.905 103.305C126.905 103.964 127.001 104.546 127.195 105.05C127.388 105.55 127.67 105.942 128.041 106.226C128.412 106.506 128.867 106.646 129.405 106.646C129.965 106.646 130.433 106.498 130.808 106.203C131.187 105.904 131.471 105.502 131.661 104.998C131.854 104.491 131.95 103.927 131.95 103.305C131.95 102.692 131.856 102.139 131.666 101.646C131.481 101.15 131.198 100.758 130.82 100.47C130.445 100.178 129.973 100.033 129.405 100.033C128.859 100.033 128.401 100.171 128.03 100.447C127.659 100.72 127.378 101.103 127.189 101.595C127 102.084 126.905 102.654 126.905 103.305ZM135.337 107.669V98.9417H136.632V100.305H136.746C136.928 99.8394 137.221 99.4777 137.626 99.2201C138.032 98.9587 138.518 98.828 139.087 98.828C139.662 98.828 140.142 98.9587 140.524 99.2201C140.911 99.4777 141.212 99.8394 141.428 100.305H141.518C141.742 99.8546 142.077 99.4966 142.524 99.2314C142.971 98.9625 143.507 98.828 144.132 98.828C144.912 98.828 145.551 99.0724 146.047 99.561C146.543 100.046 146.791 100.802 146.791 101.828V107.669H145.45V101.828C145.45 101.184 145.274 100.724 144.922 100.447C144.57 100.171 144.155 100.033 143.678 100.033C143.064 100.033 142.589 100.218 142.251 100.589C141.914 100.957 141.746 101.423 141.746 101.987V107.669H140.382V101.692C140.382 101.195 140.221 100.796 139.899 100.493C139.577 100.186 139.162 100.033 138.655 100.033C138.306 100.033 137.981 100.125 137.678 100.311C137.378 100.497 137.136 100.754 136.95 101.084C136.768 101.409 136.678 101.786 136.678 102.214V107.669H135.337ZM152.902 107.851C152.061 107.851 151.336 107.665 150.726 107.294C150.12 106.919 149.652 106.396 149.322 105.726C148.997 105.052 148.834 104.267 148.834 103.373C148.834 102.48 148.997 101.692 149.322 101.01C149.652 100.324 150.11 99.7902 150.697 99.4076C151.288 99.0212 151.978 98.828 152.766 98.828C153.22 98.828 153.669 98.9038 154.112 99.0553C154.555 99.2068 154.959 99.453 155.322 99.7939C155.686 100.131 155.976 100.578 156.192 101.135C156.408 101.692 156.516 102.377 156.516 103.192V103.76H149.788V102.601H155.152C155.152 102.108 155.054 101.669 154.857 101.283C154.663 100.896 154.387 100.591 154.027 100.368C153.671 100.144 153.25 100.033 152.766 100.033C152.232 100.033 151.769 100.165 151.379 100.43C150.993 100.692 150.696 101.033 150.487 101.453C150.279 101.873 150.175 102.324 150.175 102.805V103.578C150.175 104.237 150.288 104.796 150.516 105.254C150.747 105.709 151.067 106.055 151.476 106.294C151.885 106.529 152.36 106.646 152.902 106.646C153.254 106.646 153.572 106.597 153.857 106.498C154.144 106.396 154.393 106.245 154.601 106.044C154.809 105.839 154.97 105.586 155.084 105.283L156.379 105.646C156.243 106.086 156.014 106.472 155.692 106.805C155.37 107.135 154.972 107.392 154.499 107.578C154.025 107.76 153.493 107.851 152.902 107.851ZM159.896 102.419V107.669H158.555V98.9417H159.851V100.305H159.964C160.169 99.8621 160.48 99.5061 160.896 99.2371C161.313 98.9644 161.851 98.828 162.51 98.828C163.101 98.828 163.618 98.9492 164.061 99.1917C164.504 99.4303 164.849 99.7939 165.095 100.283C165.341 100.767 165.464 101.381 165.464 102.123V107.669H164.124V102.214C164.124 101.529 163.946 100.995 163.589 100.612C163.233 100.226 162.745 100.033 162.124 100.033C161.696 100.033 161.313 100.125 160.976 100.311C160.643 100.497 160.379 100.767 160.186 101.123C159.993 101.48 159.896 101.911 159.896 102.419ZM171.71 98.9417V100.078H167.188V98.9417H171.71ZM168.506 96.8508H169.847V105.169C169.847 105.548 169.902 105.832 170.011 106.021C170.125 106.207 170.269 106.332 170.443 106.396C170.621 106.457 170.809 106.487 171.006 106.487C171.153 106.487 171.275 106.48 171.369 106.464C171.464 106.445 171.54 106.43 171.597 106.419L171.869 107.623C171.778 107.658 171.652 107.692 171.489 107.726C171.326 107.764 171.119 107.783 170.869 107.783C170.491 107.783 170.119 107.701 169.756 107.538C169.396 107.375 169.097 107.127 168.858 106.794C168.623 106.461 168.506 106.04 168.506 105.533V96.8508ZM0.491477 129.283V128.033H9.21875V129.283H5.55966V139.669H4.15057V129.283H0.491477ZM13.6051 139.851C12.7642 139.851 12.0388 139.665 11.429 139.294C10.8229 138.919 10.3551 138.396 10.0256 137.726C9.69981 137.052 9.53693 136.267 9.53693 135.373C9.53693 134.48 9.69981 133.692 10.0256 133.01C10.3551 132.324 10.8134 131.79 11.4006 131.408C11.9915 131.021 12.6809 130.828 13.4688 130.828C13.9233 130.828 14.3722 130.904 14.8153 131.055C15.2585 131.207 15.6619 131.453 16.0256 131.794C16.3892 132.131 16.679 132.578 16.8949 133.135C17.1108 133.692 17.2188 134.377 17.2188 135.192V135.76H10.4915V134.601H15.8551C15.8551 134.108 15.7566 133.669 15.5597 133.283C15.3665 132.896 15.09 132.591 14.7301 132.368C14.3741 132.144 13.9536 132.033 13.4688 132.033C12.9347 132.033 12.4725 132.165 12.0824 132.43C11.696 132.692 11.3987 133.033 11.1903 133.453C10.982 133.873 10.8778 134.324 10.8778 134.805V135.578C10.8778 136.237 10.9915 136.796 11.2188 137.254C11.4498 137.709 11.7699 138.055 12.179 138.294C12.5881 138.529 13.0634 138.646 13.6051 138.646C13.9574 138.646 14.2756 138.597 14.5597 138.498C14.8475 138.396 15.0956 138.245 15.304 138.044C15.5123 137.839 15.6733 137.586 15.7869 137.283L17.0824 137.646C16.946 138.086 16.7169 138.472 16.3949 138.805C16.0729 139.135 15.6752 139.392 15.2017 139.578C14.7282 139.76 14.196 139.851 13.6051 139.851ZM22.804 139.851C21.9858 139.851 21.2813 139.658 20.6903 139.271C20.0994 138.885 19.6449 138.353 19.3267 137.675C19.0085 136.997 18.8494 136.222 18.8494 135.351C18.8494 134.464 19.0123 133.682 19.3381 133.004C19.6676 132.322 20.1259 131.79 20.7131 131.408C21.304 131.021 21.9934 130.828 22.7812 130.828C23.3949 130.828 23.9479 130.942 24.4403 131.169C24.9328 131.396 25.3362 131.714 25.6506 132.123C25.965 132.533 26.16 133.01 26.2358 133.555H24.8949C24.7926 133.158 24.5653 132.805 24.2131 132.498C23.8646 132.188 23.3949 132.033 22.804 132.033C22.2813 132.033 21.8229 132.169 21.429 132.442C21.0388 132.711 20.7339 133.091 20.5142 133.584C20.2983 134.072 20.1903 134.646 20.1903 135.305C20.1903 135.98 20.2964 136.567 20.5085 137.067C20.7244 137.567 21.0275 137.955 21.4176 138.231C21.8116 138.508 22.2737 138.646 22.804 138.646C23.1525 138.646 23.4688 138.586 23.7528 138.464C24.0369 138.343 24.2775 138.169 24.4744 137.942C24.6714 137.714 24.8116 137.442 24.8949 137.123H26.2358C26.16 137.639 25.9725 138.103 25.6733 138.516C25.3778 138.925 24.9858 139.25 24.4972 139.493C24.0123 139.731 23.4479 139.851 22.804 139.851ZM29.5369 134.419V139.669H28.196V128.033H29.5369V132.305H29.6506C29.8551 131.855 30.1619 131.497 30.571 131.231C30.9839 130.963 31.5331 130.828 32.2188 130.828C32.8134 130.828 33.3343 130.947 33.7812 131.186C34.2282 131.421 34.5748 131.783 34.821 132.271C35.071 132.756 35.196 133.373 35.196 134.123V139.669H33.8551V134.214C33.8551 133.521 33.6752 132.985 33.3153 132.606C32.9593 132.224 32.465 132.033 31.8324 132.033C31.393 132.033 30.9991 132.125 30.6506 132.311C30.3059 132.497 30.0331 132.767 29.8324 133.123C29.6354 133.48 29.5369 133.911 29.5369 134.419ZM52.1491 133.851C52.1491 135.078 51.9276 136.139 51.4844 137.033C51.0412 137.927 50.4332 138.616 49.6605 139.101C48.8878 139.586 48.0052 139.828 47.0128 139.828C46.0204 139.828 45.1378 139.586 44.3651 139.101C43.5923 138.616 42.9844 137.927 42.5412 137.033C42.098 136.139 41.8764 135.078 41.8764 133.851C41.8764 132.623 42.098 131.563 42.5412 130.669C42.9844 129.775 43.5923 129.086 44.3651 128.601C45.1378 128.116 46.0204 127.873 47.0128 127.873C48.0052 127.873 48.8878 128.116 49.6605 128.601C50.4332 129.086 51.0412 129.775 51.4844 130.669C51.9276 131.563 52.1491 132.623 52.1491 133.851ZM50.7855 133.851C50.7855 132.843 50.617 131.993 50.2798 131.3C49.9465 130.606 49.4938 130.082 48.9219 129.726C48.3537 129.37 47.7173 129.192 47.0128 129.192C46.3082 129.192 45.67 129.37 45.098 129.726C44.5298 130.082 44.0772 130.606 43.7401 131.3C43.4067 131.993 43.2401 132.843 43.2401 133.851C43.2401 134.858 43.4067 135.709 43.7401 136.402C44.0772 137.095 44.5298 137.62 45.098 137.976C45.67 138.332 46.3082 138.51 47.0128 138.51C47.7173 138.51 48.3537 138.332 48.9219 137.976C49.4938 137.62 49.9465 137.095 50.2798 136.402C50.617 135.709 50.7855 134.858 50.7855 133.851ZM58.223 130.942V132.078H53.5185V130.942H58.223ZM54.9276 139.669V129.737C54.9276 129.237 55.045 128.82 55.2798 128.487C55.5147 128.154 55.8196 127.904 56.1946 127.737C56.5696 127.57 56.9654 127.487 57.3821 127.487C57.7116 127.487 57.9806 127.514 58.1889 127.567C58.3973 127.62 58.5526 127.669 58.6548 127.714L58.2685 128.873C58.2003 128.851 58.1056 128.822 57.9844 128.788C57.867 128.754 57.7116 128.737 57.5185 128.737C57.0753 128.737 56.7552 128.849 56.5582 129.072C56.3651 129.296 56.2685 129.623 56.2685 130.055V139.669H54.9276ZM63.9886 130.942V132.078H59.2841V130.942H63.9886ZM60.6932 139.669V129.737C60.6932 129.237 60.8106 128.82 61.0455 128.487C61.2803 128.154 61.5852 127.904 61.9602 127.737C62.3352 127.57 62.7311 127.487 63.1477 127.487C63.4773 127.487 63.7462 127.514 63.9545 127.567C64.1629 127.62 64.3182 127.669 64.4205 127.714L64.0341 128.873C63.9659 128.851 63.8712 128.822 63.75 128.788C63.6326 128.754 63.4773 128.737 63.2841 128.737C62.8409 128.737 62.5208 128.849 62.3239 129.072C62.1307 129.296 62.0341 129.623 62.0341 130.055V139.669H60.6932ZM71.6903 132.896L70.4858 133.237C70.41 133.036 70.2983 132.841 70.1506 132.652C70.0066 132.459 69.8097 132.3 69.5597 132.175C69.3097 132.05 68.9896 131.987 68.5994 131.987C68.0653 131.987 67.6203 132.11 67.2642 132.356C66.9119 132.599 66.7358 132.908 66.7358 133.283C66.7358 133.616 66.857 133.879 67.0994 134.072C67.3419 134.266 67.7206 134.427 68.2358 134.555L69.5312 134.873C70.3116 135.063 70.893 135.353 71.2756 135.743C71.6581 136.129 71.8494 136.627 71.8494 137.237C71.8494 137.737 71.7055 138.184 71.4176 138.578C71.1335 138.972 70.7358 139.283 70.2244 139.51C69.7131 139.737 69.1184 139.851 68.4403 139.851C67.5502 139.851 66.8134 139.658 66.2301 139.271C65.6468 138.885 65.2775 138.32 65.1222 137.578L66.3949 137.26C66.5161 137.73 66.7453 138.082 67.0824 138.317C67.4233 138.552 67.8684 138.669 68.4176 138.669C69.0426 138.669 69.5388 138.536 69.9062 138.271C70.2775 138.002 70.4631 137.68 70.4631 137.305C70.4631 137.002 70.357 136.748 70.1449 136.544C69.9328 136.336 69.607 136.18 69.1676 136.078L67.7131 135.737C66.9138 135.548 66.3267 135.254 65.9517 134.856C65.5805 134.455 65.3949 133.953 65.3949 133.351C65.3949 132.858 65.5331 132.423 65.8097 132.044C66.09 131.665 66.4706 131.368 66.9517 131.152C67.4366 130.936 67.9858 130.828 68.5994 130.828C69.4631 130.828 70.1411 131.017 70.6335 131.396C71.1297 131.775 71.482 132.275 71.6903 132.896ZM75.2088 134.419V139.669H73.8679V128.033H75.2088V132.305H75.3224C75.527 131.855 75.8338 131.497 76.2429 131.231C76.6558 130.963 77.205 130.828 77.8906 130.828C78.4853 130.828 79.0062 130.947 79.4531 131.186C79.9001 131.421 80.2467 131.783 80.4929 132.271C80.7429 132.756 80.8679 133.373 80.8679 134.123V139.669H79.527V134.214C79.527 133.521 79.3471 132.985 78.9872 132.606C78.6312 132.224 78.1368 132.033 77.5043 132.033C77.0649 132.033 76.6709 132.125 76.3224 132.311C75.9777 132.497 75.705 132.767 75.5043 133.123C75.3073 133.48 75.2088 133.911 75.2088 134.419ZM86.8665 139.851C86.0786 139.851 85.3873 139.663 84.7926 139.288C84.2017 138.913 83.7396 138.389 83.4062 137.714C83.0767 137.04 82.9119 136.252 82.9119 135.351C82.9119 134.442 83.0767 133.648 83.4062 132.97C83.7396 132.292 84.2017 131.766 84.7926 131.391C85.3873 131.016 86.0786 130.828 86.8665 130.828C87.6544 130.828 88.3438 131.016 88.9347 131.391C89.5294 131.766 89.9915 132.292 90.321 132.97C90.6544 133.648 90.821 134.442 90.821 135.351C90.821 136.252 90.6544 137.04 90.321 137.714C89.9915 138.389 89.5294 138.913 88.9347 139.288C88.3438 139.663 87.6544 139.851 86.8665 139.851ZM86.8665 138.646C87.465 138.646 87.9574 138.493 88.3438 138.186C88.7301 137.879 89.0161 137.476 89.2017 136.976C89.3873 136.476 89.4801 135.934 89.4801 135.351C89.4801 134.767 89.3873 134.224 89.2017 133.72C89.0161 133.216 88.7301 132.809 88.3438 132.498C87.9574 132.188 87.465 132.033 86.8665 132.033C86.268 132.033 85.7756 132.188 85.3892 132.498C85.0028 132.809 84.7169 133.216 84.5312 133.72C84.3456 134.224 84.2528 134.767 84.2528 135.351C84.2528 135.934 84.3456 136.476 84.5312 136.976C84.7169 137.476 85.0028 137.879 85.3892 138.186C85.7756 138.493 86.268 138.646 86.8665 138.646ZM92.8679 139.669V130.942H94.1634V132.26H94.2543C94.4134 131.828 94.7012 131.478 95.1179 131.209C95.5346 130.94 96.0043 130.805 96.527 130.805C96.6255 130.805 96.7486 130.807 96.8963 130.811C97.044 130.815 97.1558 130.82 97.2315 130.828V132.192C97.1861 132.18 97.0819 132.163 96.919 132.141C96.7599 132.114 96.5914 132.101 96.4134 132.101C95.9891 132.101 95.6103 132.19 95.277 132.368C94.9474 132.542 94.6861 132.784 94.4929 133.095C94.3035 133.402 94.2088 133.752 94.2088 134.146V139.669H92.8679ZM98.821 139.669V130.942H100.162V139.669H98.821ZM99.5028 129.487C99.2415 129.487 99.0161 129.398 98.8267 129.22C98.6411 129.042 98.5483 128.828 98.5483 128.578C98.5483 128.328 98.6411 128.114 98.8267 127.936C99.0161 127.758 99.2415 127.669 99.5028 127.669C99.7642 127.669 99.9877 127.758 100.173 127.936C100.363 128.114 100.457 128.328 100.457 128.578C100.457 128.828 100.363 129.042 100.173 129.22C99.9877 129.398 99.7642 129.487 99.5028 129.487ZM103.959 134.419V139.669H102.618V130.942H103.913V132.305H104.027C104.232 131.862 104.542 131.506 104.959 131.237C105.375 130.964 105.913 130.828 106.572 130.828C107.163 130.828 107.68 130.949 108.124 131.192C108.567 131.43 108.911 131.794 109.158 132.283C109.404 132.767 109.527 133.381 109.527 134.123V139.669H108.186V134.214C108.186 133.529 108.008 132.995 107.652 132.612C107.296 132.226 106.807 132.033 106.186 132.033C105.758 132.033 105.375 132.125 105.038 132.311C104.705 132.497 104.442 132.767 104.249 133.123C104.055 133.48 103.959 133.911 103.959 134.419ZM115.5 143.123C114.852 143.123 114.295 143.04 113.83 142.873C113.364 142.711 112.975 142.495 112.665 142.226C112.358 141.961 112.114 141.677 111.932 141.373L113 140.623C113.121 140.783 113.275 140.964 113.46 141.169C113.646 141.377 113.9 141.557 114.222 141.709C114.547 141.864 114.973 141.942 115.5 141.942C116.205 141.942 116.786 141.771 117.244 141.43C117.703 141.089 117.932 140.555 117.932 139.828V138.055H117.818C117.72 138.214 117.58 138.411 117.398 138.646C117.22 138.877 116.962 139.084 116.625 139.266C116.292 139.444 115.841 139.533 115.273 139.533C114.568 139.533 113.936 139.366 113.375 139.033C112.818 138.699 112.377 138.214 112.051 137.578C111.729 136.942 111.568 136.169 111.568 135.26C111.568 134.366 111.725 133.588 112.04 132.925C112.354 132.258 112.792 131.743 113.352 131.379C113.913 131.012 114.561 130.828 115.295 130.828C115.864 130.828 116.314 130.923 116.648 131.112C116.985 131.298 117.242 131.51 117.42 131.748C117.602 131.983 117.742 132.177 117.841 132.328H117.977V130.942H119.273V139.919C119.273 140.669 119.102 141.279 118.761 141.748C118.424 142.222 117.97 142.569 117.398 142.788C116.83 143.012 116.197 143.123 115.5 143.123ZM115.455 138.328C115.992 138.328 116.447 138.205 116.818 137.959C117.189 137.713 117.472 137.358 117.665 136.896C117.858 136.434 117.955 135.881 117.955 135.237C117.955 134.608 117.86 134.053 117.67 133.572C117.481 133.091 117.201 132.714 116.83 132.442C116.458 132.169 116 132.033 115.455 132.033C114.886 132.033 114.413 132.177 114.034 132.464C113.659 132.752 113.377 133.139 113.188 133.623C113.002 134.108 112.909 134.646 112.909 135.237C112.909 135.843 113.004 136.379 113.193 136.845C113.386 137.307 113.67 137.671 114.045 137.936C114.424 138.197 114.894 138.328 115.455 138.328ZM5.35511 168.033H6.90057L8.19602 169.737L8.53693 170.192L10.4688 172.76H8.9233L7.65057 171.055L7.33239 170.623L5.35511 168.033ZM10.946 165.851C10.946 167.078 10.7244 168.139 10.2812 169.033C9.83807 169.927 9.23011 170.616 8.45739 171.101C7.68466 171.586 6.80208 171.828 5.80966 171.828C4.81724 171.828 3.93466 171.586 3.16193 171.101C2.3892 170.616 1.78125 169.927 1.33807 169.033C0.894886 168.139 0.673295 167.078 0.673295 165.851C0.673295 164.623 0.894886 163.563 1.33807 162.669C1.78125 161.775 2.3892 161.086 3.16193 160.601C3.93466 160.116 4.81724 159.873 5.80966 159.873C6.80208 159.873 7.68466 160.116 8.45739 160.601C9.23011 161.086 9.83807 161.775 10.2812 162.669C10.7244 163.563 10.946 164.623 10.946 165.851ZM9.58239 165.851C9.58239 164.843 9.41383 163.993 9.0767 163.3C8.74337 162.606 8.29072 162.082 7.71875 161.726C7.15057 161.37 6.5142 161.192 5.80966 161.192C5.10511 161.192 4.46686 161.37 3.89489 161.726C3.3267 162.082 2.87405 162.606 2.53693 163.3C2.2036 163.993 2.03693 164.843 2.03693 165.851C2.03693 166.858 2.2036 167.709 2.53693 168.402C2.87405 169.095 3.3267 169.62 3.89489 169.976C4.46686 170.332 5.10511 170.51 5.80966 170.51C6.5142 170.51 7.15057 170.332 7.71875 169.976C8.29072 169.62 8.74337 169.095 9.0767 168.402C9.41383 167.709 9.58239 166.858 9.58239 165.851ZM13.2457 171.669H11.7685L16.0412 160.033H17.4957L21.7685 171.669H20.2912L16.8139 161.873H16.723L13.2457 171.669ZM13.7912 167.123H19.7457V168.373H13.7912V167.123ZM34.4446 162.942C34.3764 162.366 34.0999 161.919 33.6151 161.601C33.1302 161.283 32.5355 161.123 31.831 161.123C31.3158 161.123 30.8651 161.207 30.4787 161.373C30.0961 161.54 29.7969 161.769 29.581 162.061C29.3688 162.353 29.2628 162.684 29.2628 163.055C29.2628 163.366 29.3366 163.633 29.4844 163.856C29.6359 164.076 29.8291 164.26 30.0639 164.408C30.2988 164.552 30.545 164.671 30.8026 164.766C31.0601 164.856 31.2969 164.93 31.5128 164.987L32.6946 165.305C32.9976 165.385 33.3348 165.495 33.706 165.635C34.081 165.775 34.4389 165.966 34.7798 166.209C35.1245 166.447 35.4086 166.754 35.6321 167.129C35.8556 167.504 35.9673 167.964 35.9673 168.51C35.9673 169.139 35.8026 169.707 35.473 170.214C35.1473 170.722 34.67 171.125 34.0412 171.425C33.4162 171.724 32.6567 171.873 31.7628 171.873C30.9295 171.873 30.2079 171.739 29.598 171.47C28.992 171.201 28.5147 170.826 28.1662 170.345C27.8215 169.864 27.6264 169.305 27.581 168.669H29.0355C29.0734 169.108 29.2211 169.472 29.4787 169.76C29.7401 170.044 30.0696 170.256 30.4673 170.396C30.8688 170.533 31.3007 170.601 31.7628 170.601C32.3007 170.601 32.7836 170.514 33.2116 170.339C33.6397 170.161 33.9787 169.915 34.2287 169.601C34.4787 169.283 34.6037 168.911 34.6037 168.487C34.6037 168.101 34.4957 167.786 34.2798 167.544C34.0639 167.302 33.7798 167.105 33.4276 166.953C33.0753 166.802 32.6946 166.669 32.2855 166.555L30.8537 166.146C29.9446 165.885 29.2249 165.512 28.6946 165.027C28.1643 164.542 27.8991 163.908 27.8991 163.123C27.8991 162.472 28.0753 161.904 28.4276 161.419C28.7836 160.93 29.2609 160.552 29.8594 160.283C30.4616 160.01 31.134 159.873 31.8764 159.873C32.6264 159.873 33.2931 160.008 33.8764 160.277C34.4598 160.542 34.9219 160.906 35.2628 161.368C35.6075 161.83 35.7893 162.355 35.8082 162.942H34.4446ZM41.7614 171.851C40.9205 171.851 40.1951 171.665 39.5852 171.294C38.9792 170.919 38.5114 170.396 38.1818 169.726C37.8561 169.052 37.6932 168.267 37.6932 167.373C37.6932 166.48 37.8561 165.692 38.1818 165.01C38.5114 164.324 38.9697 163.79 39.5568 163.408C40.1477 163.021 40.8371 162.828 41.625 162.828C42.0795 162.828 42.5284 162.904 42.9716 163.055C43.4148 163.207 43.8182 163.453 44.1818 163.794C44.5455 164.131 44.8352 164.578 45.0511 165.135C45.267 165.692 45.375 166.377 45.375 167.192V167.76H38.6477V166.601H44.0114C44.0114 166.108 43.9129 165.669 43.7159 165.283C43.5227 164.896 43.2462 164.591 42.8864 164.368C42.5303 164.144 42.1098 164.033 41.625 164.033C41.0909 164.033 40.6288 164.165 40.2386 164.43C39.8523 164.692 39.5549 165.033 39.3466 165.453C39.1383 165.873 39.0341 166.324 39.0341 166.805V167.578C39.0341 168.237 39.1477 168.796 39.375 169.254C39.6061 169.709 39.9261 170.055 40.3352 170.294C40.7443 170.529 41.2197 170.646 41.7614 170.646C42.1136 170.646 42.4318 170.597 42.7159 170.498C43.0038 170.396 43.2519 170.245 43.4602 170.044C43.6686 169.839 43.8295 169.586 43.9432 169.283L45.2386 169.646C45.1023 170.086 44.8731 170.472 44.5511 170.805C44.2292 171.135 43.8314 171.392 43.358 171.578C42.8845 171.76 42.3523 171.851 41.7614 171.851ZM47.4148 171.669V162.942H48.7102V164.26H48.8011C48.9602 163.828 49.2481 163.478 49.6648 163.209C50.0814 162.94 50.5511 162.805 51.0739 162.805C51.1723 162.805 51.2955 162.807 51.4432 162.811C51.5909 162.815 51.7027 162.82 51.7784 162.828V164.192C51.733 164.18 51.6288 164.163 51.4659 164.141C51.3068 164.114 51.1383 164.101 50.9602 164.101C50.536 164.101 50.1572 164.19 49.8239 164.368C49.4943 164.542 49.233 164.784 49.0398 165.095C48.8504 165.402 48.7557 165.752 48.7557 166.146V171.669H47.4148ZM60.7699 162.942L57.5426 171.669H56.179L52.9517 162.942H54.4062L56.8153 169.896H56.9062L59.3153 162.942H60.7699ZM62.5398 171.669V162.942H63.8807V171.669H62.5398ZM63.2216 161.487C62.9602 161.487 62.7348 161.398 62.5455 161.22C62.3598 161.042 62.267 160.828 62.267 160.578C62.267 160.328 62.3598 160.114 62.5455 159.936C62.7348 159.758 62.9602 159.669 63.2216 159.669C63.483 159.669 63.7064 159.758 63.892 159.936C64.0814 160.114 64.1761 160.328 64.1761 160.578C64.1761 160.828 64.0814 161.042 63.892 161.22C63.7064 161.398 63.483 161.487 63.2216 161.487ZM69.8821 171.851C69.0639 171.851 68.3594 171.658 67.7685 171.271C67.1776 170.885 66.723 170.353 66.4048 169.675C66.0866 168.997 65.9276 168.222 65.9276 167.351C65.9276 166.464 66.0904 165.682 66.4162 165.004C66.7457 164.322 67.2041 163.79 67.7912 163.408C68.3821 163.021 69.0715 162.828 69.8594 162.828C70.473 162.828 71.026 162.942 71.5185 163.169C72.0109 163.396 72.4143 163.714 72.7287 164.123C73.0431 164.533 73.2382 165.01 73.3139 165.555H71.973C71.8707 165.158 71.6435 164.805 71.2912 164.498C70.9427 164.188 70.473 164.033 69.8821 164.033C69.3594 164.033 68.901 164.169 68.5071 164.442C68.117 164.711 67.812 165.091 67.5923 165.584C67.3764 166.072 67.2685 166.646 67.2685 167.305C67.2685 167.98 67.3745 168.567 67.5866 169.067C67.8026 169.567 68.1056 169.955 68.4957 170.231C68.8897 170.508 69.3518 170.646 69.8821 170.646C70.2306 170.646 70.5469 170.586 70.831 170.464C71.1151 170.343 71.3556 170.169 71.5526 169.942C71.7495 169.714 71.8897 169.442 71.973 169.123H73.3139C73.2382 169.639 73.0507 170.103 72.7514 170.516C72.456 170.925 72.0639 171.25 71.5753 171.493C71.0904 171.731 70.526 171.851 69.8821 171.851ZM78.9332 171.851C78.0923 171.851 77.367 171.665 76.7571 171.294C76.151 170.919 75.6832 170.396 75.3537 169.726C75.0279 169.052 74.8651 168.267 74.8651 167.373C74.8651 166.48 75.0279 165.692 75.3537 165.01C75.6832 164.324 76.1416 163.79 76.7287 163.408C77.3196 163.021 78.009 162.828 78.7969 162.828C79.2514 162.828 79.7003 162.904 80.1435 163.055C80.5866 163.207 80.9901 163.453 81.3537 163.794C81.7173 164.131 82.0071 164.578 82.223 165.135C82.4389 165.692 82.5469 166.377 82.5469 167.192V167.76H75.8196V166.601H81.1832C81.1832 166.108 81.0848 165.669 80.8878 165.283C80.6946 164.896 80.4181 164.591 80.0582 164.368C79.7022 164.144 79.2817 164.033 78.7969 164.033C78.2628 164.033 77.8007 164.165 77.4105 164.43C77.0241 164.692 76.7268 165.033 76.5185 165.453C76.3101 165.873 76.206 166.324 76.206 166.805V167.578C76.206 168.237 76.3196 168.796 76.5469 169.254C76.7779 169.709 77.098 170.055 77.5071 170.294C77.9162 170.529 78.3916 170.646 78.9332 170.646C79.2855 170.646 79.6037 170.597 79.8878 170.498C80.1757 170.396 80.4238 170.245 80.6321 170.044C80.8404 169.839 81.0014 169.586 81.1151 169.283L82.4105 169.646C82.2741 170.086 82.045 170.472 81.723 170.805C81.401 171.135 81.0033 171.392 80.5298 171.578C80.0563 171.76 79.5241 171.851 78.9332 171.851ZM90.7685 164.896L89.5639 165.237C89.4882 165.036 89.3764 164.841 89.2287 164.652C89.0848 164.459 88.8878 164.3 88.6378 164.175C88.3878 164.05 88.0677 163.987 87.6776 163.987C87.1435 163.987 86.6984 164.11 86.3423 164.356C85.9901 164.599 85.8139 164.908 85.8139 165.283C85.8139 165.616 85.9351 165.879 86.1776 166.072C86.42 166.266 86.7988 166.427 87.3139 166.555L88.6094 166.873C89.3897 167.063 89.9711 167.353 90.3537 167.743C90.7363 168.129 90.9276 168.627 90.9276 169.237C90.9276 169.737 90.7836 170.184 90.4957 170.578C90.2116 170.972 89.8139 171.283 89.3026 171.51C88.7912 171.737 88.1965 171.851 87.5185 171.851C86.6283 171.851 85.8916 171.658 85.3082 171.271C84.7249 170.885 84.3556 170.32 84.2003 169.578L85.473 169.26C85.5942 169.73 85.8234 170.082 86.1605 170.317C86.5014 170.552 86.9465 170.669 87.4957 170.669C88.1207 170.669 88.617 170.536 88.9844 170.271C89.3556 170.002 89.5412 169.68 89.5412 169.305C89.5412 169.002 89.4351 168.748 89.223 168.544C89.0109 168.336 88.6851 168.18 88.2457 168.078L86.7912 167.737C85.992 167.548 85.4048 167.254 85.0298 166.856C84.6586 166.455 84.473 165.953 84.473 165.351C84.473 164.858 84.6113 164.423 84.8878 164.044C85.1681 163.665 85.5488 163.368 86.0298 163.152C86.5147 162.936 87.0639 162.828 87.6776 162.828C88.5412 162.828 89.2192 163.017 89.7116 163.396C90.2079 163.775 90.5601 164.275 90.7685 164.896Z" fill="white"/>
</svg>
