<svg width="114" height="39" viewBox="0 0 114 39" fill="none" xmlns="http://www.w3.org/2000/svg">
<g opacity="0.5">
<rect x="0.632812" y="1.35693" width="112" height="37" rx="18.5" stroke="white"/>
<path d="M25.6555 25.8569L22.4737 14.2206H23.9055L26.3374 23.6978H26.451L28.9283 14.2206H30.5192L32.9964 23.6978H33.1101L35.5419 14.2206H36.9737L33.7919 25.8569H32.3374L29.7692 16.5842H29.6783L27.1101 25.8569H25.6555ZM41.3942 26.0388C40.5533 26.0388 39.8279 25.8531 39.218 25.4819C38.612 25.1069 38.1442 24.5842 37.8146 23.9138C37.4889 23.2395 37.326 22.4554 37.326 21.5615C37.326 20.6675 37.4889 19.8797 37.8146 19.1978C38.1442 18.5122 38.6025 17.9781 39.1896 17.5956C39.7805 17.2092 40.4699 17.016 41.2578 17.016C41.7124 17.016 42.1612 17.0918 42.6044 17.2433C43.0476 17.3948 43.451 17.641 43.8146 17.9819C44.1783 18.3191 44.468 18.766 44.6839 19.3228C44.8999 19.8797 45.0078 20.5653 45.0078 21.3797V21.9478H38.2805V20.7888H43.6442C43.6442 20.2963 43.5457 19.8569 43.3487 19.4706C43.1555 19.0842 42.879 18.7793 42.5192 18.5558C42.1631 18.3323 41.7427 18.2206 41.2578 18.2206C40.7237 18.2206 40.2616 18.3531 39.8714 18.6183C39.4851 18.8797 39.1877 19.2206 38.9794 19.641C38.7711 20.0615 38.6669 20.5122 38.6669 20.9933V21.766C38.6669 22.4251 38.7805 22.9838 39.0078 23.4422C39.2389 23.8967 39.5589 24.2433 39.968 24.4819C40.3771 24.7168 40.8525 24.8342 41.3942 24.8342C41.7464 24.8342 42.0646 24.785 42.3487 24.6865C42.6366 24.5842 42.8847 24.4327 43.093 24.2319C43.3014 24.0274 43.4624 23.7736 43.576 23.4706L44.8714 23.8342C44.7351 24.2736 44.5059 24.66 44.1839 24.9933C43.862 25.3228 43.4643 25.5804 42.9908 25.766C42.5173 25.9478 41.9851 26.0388 41.3942 26.0388ZM47.2294 25.8569V14.2206H48.5703V18.516H48.6839C48.7824 18.3645 48.9188 18.1713 49.093 17.9365C49.2711 17.6978 49.5249 17.4857 49.8544 17.3001C50.1877 17.1107 50.6385 17.016 51.2067 17.016C51.9415 17.016 52.5893 17.1997 53.1499 17.5672C53.7105 17.9346 54.148 18.4554 54.4624 19.1297C54.7768 19.8039 54.9339 20.5994 54.9339 21.516C54.9339 22.4403 54.7768 23.2414 54.4624 23.9194C54.148 24.5937 53.7124 25.1164 53.1555 25.4876C52.5987 25.855 51.9567 26.0388 51.2294 26.0388C50.6688 26.0388 50.2199 25.9459 49.8828 25.7603C49.5457 25.5709 49.2862 25.3569 49.1044 25.1183C48.9226 24.8759 48.7824 24.6751 48.6839 24.516H48.5249V25.8569H47.2294ZM48.5476 21.4933C48.5476 22.1524 48.6442 22.7338 48.8374 23.2376C49.0305 23.7376 49.3127 24.1297 49.6839 24.4138C50.0552 24.6941 50.5097 24.8342 51.0476 24.8342C51.6082 24.8342 52.076 24.6865 52.451 24.391C52.8298 24.0918 53.1139 23.6903 53.3033 23.1865C53.4964 22.6789 53.593 22.1145 53.593 21.4933C53.593 20.8797 53.4983 20.3266 53.3089 19.8342C53.1233 19.338 52.8411 18.9459 52.4624 18.6581C52.0874 18.3664 51.6158 18.2206 51.0476 18.2206C50.5021 18.2206 50.0438 18.3588 49.6726 18.6353C49.3014 18.9081 49.0211 19.2906 48.8317 19.7831C48.6423 20.2717 48.5476 20.8418 48.5476 21.4933ZM62.1442 25.8569H60.6669L64.9396 14.2206H66.3942L70.6669 25.8569H69.1896L65.7124 16.0615H65.6214L62.1442 25.8569ZM62.6896 21.3115H68.6442V22.5615H62.6896V21.3115ZM72.2976 29.1297V17.1297H73.593V18.516H73.7521C73.8506 18.3645 73.987 18.1713 74.1612 17.9365C74.3393 17.6978 74.593 17.4857 74.9226 17.3001C75.2559 17.1107 75.7067 17.016 76.2749 17.016C77.0097 17.016 77.6574 17.1997 78.218 17.5672C78.7786 17.9346 79.2161 18.4554 79.5305 19.1297C79.8449 19.8039 80.0021 20.5994 80.0021 21.516C80.0021 22.4403 79.8449 23.2414 79.5305 23.9194C79.2161 24.5937 78.7805 25.1164 78.2237 25.4876C77.6669 25.855 77.0249 26.0388 76.2976 26.0388C75.737 26.0388 75.2881 25.9459 74.951 25.7603C74.6139 25.5709 74.3544 25.3569 74.1726 25.1183C73.9908 24.8759 73.8506 24.6751 73.7521 24.516H73.6385V29.1297H72.2976ZM73.6158 21.4933C73.6158 22.1524 73.7124 22.7338 73.9055 23.2376C74.0987 23.7376 74.3809 24.1297 74.7521 24.4138C75.1233 24.6941 75.5779 24.8342 76.1158 24.8342C76.6764 24.8342 77.1442 24.6865 77.5192 24.391C77.898 24.0918 78.1821 23.6903 78.3714 23.1865C78.5646 22.6789 78.6612 22.1145 78.6612 21.4933C78.6612 20.8797 78.5665 20.3266 78.3771 19.8342C78.1915 19.338 77.9093 18.9459 77.5305 18.6581C77.1555 18.3664 76.6839 18.2206 76.1158 18.2206C75.5703 18.2206 75.112 18.3588 74.7408 18.6353C74.3696 18.9081 74.0893 19.2906 73.8999 19.7831C73.7105 20.2717 73.6158 20.8418 73.6158 21.4933ZM82.0476 29.1297V17.1297H83.343V18.516H83.5021C83.6006 18.3645 83.737 18.1713 83.9112 17.9365C84.0893 17.6978 84.343 17.4857 84.6726 17.3001C85.0059 17.1107 85.4567 17.016 86.0249 17.016C86.7597 17.016 87.4074 17.1997 87.968 17.5672C88.5286 17.9346 88.9661 18.4554 89.2805 19.1297C89.5949 19.8039 89.7521 20.5994 89.7521 21.516C89.7521 22.4403 89.5949 23.2414 89.2805 23.9194C88.9661 24.5937 88.5305 25.1164 87.9737 25.4876C87.4169 25.855 86.7749 26.0388 86.0476 26.0388C85.487 26.0388 85.0381 25.9459 84.701 25.7603C84.3639 25.5709 84.1044 25.3569 83.9226 25.1183C83.7408 24.8759 83.6006 24.6751 83.5021 24.516H83.3885V29.1297H82.0476ZM83.3658 21.4933C83.3658 22.1524 83.4624 22.7338 83.6555 23.2376C83.8487 23.7376 84.1309 24.1297 84.5021 24.4138C84.8733 24.6941 85.3279 24.8342 85.8658 24.8342C86.4264 24.8342 86.8942 24.6865 87.2692 24.391C87.648 24.0918 87.9321 23.6903 88.1214 23.1865C88.3146 22.6789 88.4112 22.1145 88.4112 21.4933C88.4112 20.8797 88.3165 20.3266 88.1271 19.8342C87.9415 19.338 87.6593 18.9459 87.2805 18.6581C86.9055 18.3664 86.4339 18.2206 85.8658 18.2206C85.3203 18.2206 84.862 18.3588 84.4908 18.6353C84.1196 18.9081 83.8393 19.2906 83.6499 19.7831C83.4605 20.2717 83.3658 20.8418 83.3658 21.4933Z" fill="white"/>
</g>
</svg>
