<svg width="222" height="39" viewBox="0 0 222 39" fill="none" xmlns="http://www.w3.org/2000/svg">
<g opacity="0.5">
<rect x="0.632812" y="1.48096" width="220" height="37" rx="18.5" stroke="white"/>
<path d="M23.5419 14.3446H25.2237L29.1783 24.0037H29.3146L33.2692 14.3446H34.951V25.981H33.6328V17.14H33.5192L29.8828 25.981H28.6101L24.9737 17.14H24.8601V25.981H23.5419V14.3446ZM41.1399 26.1628C40.352 26.1628 39.6607 25.9753 39.0661 25.6003C38.4751 25.2253 38.013 24.7007 37.6797 24.0264C37.3501 23.3522 37.1854 22.5643 37.1854 21.6628C37.1854 20.7537 37.3501 19.9601 37.6797 19.2821C38.013 18.6041 38.4751 18.0775 39.0661 17.7025C39.6607 17.3275 40.352 17.14 41.1399 17.14C41.9278 17.14 42.6172 17.3275 43.2081 17.7025C43.8028 18.0775 44.2649 18.6041 44.5945 19.2821C44.9278 19.9601 45.0945 20.7537 45.0945 21.6628C45.0945 22.5643 44.9278 23.3522 44.5945 24.0264C44.2649 24.7007 43.8028 25.2253 43.2081 25.6003C42.6172 25.9753 41.9278 26.1628 41.1399 26.1628ZM41.1399 24.9582C41.7384 24.9582 42.2308 24.8048 42.6172 24.498C43.0036 24.1912 43.2895 23.7878 43.4751 23.2878C43.6607 22.7878 43.7536 22.2461 43.7536 21.6628C43.7536 21.0794 43.6607 20.5359 43.4751 20.0321C43.2895 19.5283 43.0036 19.1211 42.6172 18.8105C42.2308 18.4999 41.7384 18.3446 41.1399 18.3446C40.5414 18.3446 40.049 18.4999 39.6626 18.8105C39.2763 19.1211 38.9903 19.5283 38.8047 20.0321C38.6191 20.5359 38.5263 21.0794 38.5263 21.6628C38.5263 22.2461 38.6191 22.7878 38.8047 23.2878C38.9903 23.7878 39.2763 24.1912 39.6626 24.498C40.049 24.8048 40.5414 24.9582 41.1399 24.9582ZM47.3232 25.981V14.3446H48.6641V18.64H48.7777C48.8762 18.4885 49.0125 18.2954 49.1868 18.0605C49.3648 17.8219 49.6186 17.6097 49.9482 17.4241C50.2815 17.2347 50.7322 17.14 51.3004 17.14C52.0353 17.14 52.683 17.3238 53.2436 17.6912C53.8042 18.0586 54.2417 18.5794 54.5561 19.2537C54.8705 19.9279 55.0277 20.7234 55.0277 21.64C55.0277 22.5643 54.8705 23.3654 54.5561 24.0435C54.2417 24.7177 53.8061 25.2404 53.2493 25.6116C52.6925 25.9791 52.0504 26.1628 51.3232 26.1628C50.7625 26.1628 50.3137 26.07 49.9766 25.8844C49.6394 25.695 49.38 25.481 49.1982 25.2423C49.0163 24.9999 48.8762 24.7991 48.7777 24.64H48.6186V25.981H47.3232ZM48.6413 21.6173C48.6413 22.2764 48.7379 22.8579 48.9311 23.3616C49.1243 23.8616 49.4065 24.2537 49.7777 24.5378C50.1489 24.8181 50.6035 24.9582 51.1413 24.9582C51.7019 24.9582 52.1697 24.8105 52.5447 24.515C52.9235 24.2158 53.2076 23.8143 53.397 23.3105C53.5902 22.8029 53.6868 22.2385 53.6868 21.6173C53.6868 21.0037 53.5921 20.4507 53.4027 19.9582C53.2171 19.462 52.9349 19.07 52.5561 18.7821C52.1811 18.4904 51.7095 18.3446 51.1413 18.3446C50.5959 18.3446 50.1375 18.4829 49.7663 18.7594C49.3951 19.0321 49.1148 19.4147 48.9254 19.9071C48.736 20.3957 48.6413 20.9658 48.6413 21.6173ZM57.0788 25.981V17.2537H58.4197V25.981H57.0788ZM57.7607 15.7991C57.4993 15.7991 57.2739 15.7101 57.0845 15.5321C56.8989 15.3541 56.8061 15.14 56.8061 14.89C56.8061 14.64 56.8989 14.426 57.0845 14.248C57.2739 14.07 57.4993 13.981 57.7607 13.981C58.022 13.981 58.2455 14.07 58.4311 14.248C58.6205 14.426 58.7152 14.64 58.7152 14.89C58.7152 15.14 58.6205 15.3541 58.4311 15.5321C58.2455 15.7101 58.022 15.7991 57.7607 15.7991ZM62.2166 14.3446V25.981H60.8757V14.3446H62.2166ZM68.3317 26.1628C67.4908 26.1628 66.7654 25.9772 66.1555 25.606C65.5495 25.231 65.0817 24.7082 64.7521 24.0378C64.4264 23.3635 64.2635 22.5794 64.2635 21.6855C64.2635 20.7916 64.4264 20.0037 64.7521 19.3219C65.0817 18.6363 65.54 18.1022 66.1271 17.7196C66.718 17.3332 67.4074 17.14 68.1953 17.14C68.6499 17.14 69.0987 17.2158 69.5419 17.3673C69.9851 17.5188 70.3885 17.765 70.7521 18.106C71.1158 18.4431 71.4055 18.89 71.6214 19.4469C71.8374 20.0037 71.9453 20.6893 71.9453 21.5037V22.0719H65.218V20.9128H70.5817C70.5817 20.4204 70.4832 19.981 70.2862 19.5946C70.093 19.2082 69.8165 18.9033 69.4567 18.6798C69.1006 18.4563 68.6802 18.3446 68.1953 18.3446C67.6612 18.3446 67.1991 18.4772 66.8089 18.7423C66.4226 19.0037 66.1252 19.3446 65.9169 19.765C65.7086 20.1855 65.6044 20.6363 65.6044 21.1173V21.89C65.6044 22.5491 65.718 23.1079 65.9453 23.5662C66.1764 24.0207 66.4964 24.3673 66.9055 24.606C67.3146 24.8408 67.79 24.9582 68.3317 24.9582C68.6839 24.9582 69.0021 24.909 69.2862 24.8105C69.5741 24.7082 69.8222 24.5567 70.0305 24.356C70.2389 24.1514 70.3999 23.8976 70.5135 23.5946L71.8089 23.9582C71.6726 24.3976 71.4434 24.784 71.1214 25.1173C70.7995 25.4469 70.4018 25.7044 69.9283 25.89C69.4548 26.0719 68.9226 26.1628 68.3317 26.1628ZM80.7805 25.981L77.5987 14.3446H79.0305L81.4624 23.8219H81.576L84.0533 14.3446H85.6442L88.1214 23.8219H88.2351L90.6669 14.3446H92.0987L88.9169 25.981H87.4624L84.8942 16.7082H84.8033L82.2351 25.981H80.7805ZM96.5192 26.1628C95.6783 26.1628 94.9529 25.9772 94.343 25.606C93.737 25.231 93.2692 24.7082 92.9396 24.0378C92.6139 23.3635 92.451 22.5794 92.451 21.6855C92.451 20.7916 92.6139 20.0037 92.9396 19.3219C93.2692 18.6363 93.7275 18.1022 94.3146 17.7196C94.9055 17.3332 95.5949 17.14 96.3828 17.14C96.8374 17.14 97.2862 17.2158 97.7294 17.3673C98.1726 17.5188 98.576 17.765 98.9396 18.106C99.3033 18.4431 99.593 18.89 99.8089 19.4469C100.025 20.0037 100.133 20.6893 100.133 21.5037V22.0719H93.4055V20.9128H98.7692C98.7692 20.4204 98.6707 19.981 98.4737 19.5946C98.2805 19.2082 98.004 18.9033 97.6442 18.6798C97.2881 18.4563 96.8677 18.3446 96.3828 18.3446C95.8487 18.3446 95.3866 18.4772 94.9964 18.7423C94.6101 19.0037 94.3127 19.3446 94.1044 19.765C93.8961 20.1855 93.7919 20.6363 93.7919 21.1173V21.89C93.7919 22.5491 93.9055 23.1079 94.1328 23.5662C94.3639 24.0207 94.6839 24.3673 95.093 24.606C95.5021 24.8408 95.9775 24.9582 96.5192 24.9582C96.8714 24.9582 97.1896 24.909 97.4737 24.8105C97.7616 24.7082 98.0097 24.5567 98.218 24.356C98.4264 24.1514 98.5874 23.8976 98.701 23.5946L99.9964 23.9582C99.8601 24.3976 99.6309 24.784 99.3089 25.1173C98.987 25.4469 98.5893 25.7044 98.1158 25.89C97.6423 26.0719 97.1101 26.1628 96.5192 26.1628ZM102.354 25.981V14.3446H103.695V18.64H103.809C103.907 18.4885 104.044 18.2954 104.218 18.0605C104.396 17.8219 104.65 17.6097 104.979 17.4241C105.313 17.2347 105.763 17.14 106.332 17.14C107.067 17.14 107.714 17.3238 108.275 17.6912C108.835 18.0586 109.273 18.5794 109.587 19.2537C109.902 19.9279 110.059 20.7234 110.059 21.64C110.059 22.5643 109.902 23.3654 109.587 24.0435C109.273 24.7177 108.837 25.2404 108.281 25.6116C107.724 25.9791 107.082 26.1628 106.354 26.1628C105.794 26.1628 105.345 26.07 105.008 25.8844C104.671 25.695 104.411 25.481 104.229 25.2423C104.048 24.9999 103.907 24.7991 103.809 24.64H103.65V25.981H102.354ZM103.673 21.6173C103.673 22.2764 103.769 22.8579 103.962 23.3616C104.156 23.8616 104.438 24.2537 104.809 24.5378C105.18 24.8181 105.635 24.9582 106.173 24.9582C106.733 24.9582 107.201 24.8105 107.576 24.515C107.955 24.2158 108.239 23.8143 108.428 23.3105C108.621 22.8029 108.718 22.2385 108.718 21.6173C108.718 21.0037 108.623 20.4507 108.434 19.9582C108.248 19.462 107.966 19.07 107.587 18.7821C107.212 18.4904 106.741 18.3446 106.173 18.3446C105.627 18.3446 105.169 18.4829 104.798 18.7594C104.426 19.0321 104.146 19.4147 103.957 19.9071C103.767 20.3957 103.673 20.9658 103.673 21.6173ZM119.906 26.14C119.14 26.14 118.481 25.9999 117.928 25.7196C117.375 25.4393 116.949 25.0548 116.65 24.5662C116.351 24.0775 116.201 23.5188 116.201 22.89C116.201 22.4052 116.303 21.9753 116.508 21.6003C116.716 21.2215 117.002 20.8711 117.366 20.5491C117.733 20.2234 118.156 19.8976 118.633 19.5719L120.315 18.3219C120.644 18.106 120.907 17.8749 121.104 17.6287C121.305 17.3825 121.406 17.0605 121.406 16.6628C121.406 16.3673 121.275 16.0813 121.013 15.8048C120.756 15.5283 120.417 15.39 119.996 15.39C119.701 15.39 119.44 15.4658 119.212 15.6173C118.989 15.765 118.813 15.9544 118.684 16.1855C118.559 16.4128 118.496 16.6476 118.496 16.89C118.496 17.1628 118.57 17.4393 118.718 17.7196C118.87 17.9961 119.061 18.2802 119.292 18.5719C119.527 18.8597 119.769 19.1552 120.019 19.4582L125.36 25.981H123.746L119.337 20.6628C118.928 20.1704 118.557 19.7234 118.224 19.3219C117.89 18.9204 117.625 18.5245 117.428 18.1344C117.231 17.7442 117.133 17.3219 117.133 16.8673C117.133 16.3446 117.248 15.8863 117.479 15.4923C117.714 15.0946 118.042 14.7859 118.462 14.5662C118.887 14.3427 119.383 14.231 119.951 14.231C120.534 14.231 121.036 14.3446 121.457 14.5719C121.877 14.7954 122.201 15.0927 122.428 15.4639C122.656 15.8313 122.769 16.231 122.769 16.6628C122.769 17.2196 122.631 17.7025 122.354 18.1116C122.078 18.5207 121.701 18.9014 121.224 19.2537L118.906 20.981C118.383 21.3673 118.029 21.7423 117.843 22.106C117.657 22.4696 117.565 22.731 117.565 22.89C117.565 23.2537 117.659 23.5927 117.849 23.9071C118.038 24.2215 118.305 24.4753 118.65 24.6685C118.995 24.8616 119.398 24.9582 119.86 24.9582C120.299 24.9582 120.728 24.8654 121.144 24.6798C121.561 24.4904 121.938 24.2177 122.275 23.8616C122.616 23.5056 122.885 23.0775 123.082 22.5775C123.282 22.0775 123.383 21.515 123.383 20.89H124.678C124.678 21.6628 124.589 22.2935 124.411 22.7821C124.233 23.2707 124.032 23.6533 123.809 23.9298C123.585 24.2063 123.406 24.4128 123.269 24.5491C123.224 24.606 123.182 24.6628 123.144 24.7196C123.106 24.7764 123.065 24.8332 123.019 24.89C122.644 25.3105 122.171 25.6249 121.599 25.8332C121.027 26.0378 120.462 26.14 119.906 26.14ZM133.64 25.981L130.458 14.3446H131.89L134.322 23.8219H134.435L136.913 14.3446H138.504L140.981 23.8219H141.094L143.526 14.3446H144.958L141.776 25.981H140.322L137.754 16.7082H137.663L135.094 25.981H133.64ZM149.379 26.1628C148.538 26.1628 147.812 25.9772 147.202 25.606C146.596 25.231 146.129 24.7082 145.799 24.0378C145.473 23.3635 145.31 22.5794 145.31 21.6855C145.31 20.7916 145.473 20.0037 145.799 19.3219C146.129 18.6363 146.587 18.1022 147.174 17.7196C147.765 17.3332 148.454 17.14 149.242 17.14C149.697 17.14 150.146 17.2158 150.589 17.3673C151.032 17.5188 151.435 17.765 151.799 18.106C152.163 18.4431 152.452 18.89 152.668 19.4469C152.884 20.0037 152.992 20.6893 152.992 21.5037V22.0719H146.265V20.9128H151.629C151.629 20.4204 151.53 19.981 151.333 19.5946C151.14 19.2082 150.863 18.9033 150.504 18.6798C150.147 18.4563 149.727 18.3446 149.242 18.3446C148.708 18.3446 148.246 18.4772 147.856 18.7423C147.469 19.0037 147.172 19.3446 146.964 19.765C146.755 20.1855 146.651 20.6363 146.651 21.1173V21.89C146.651 22.5491 146.765 23.1079 146.992 23.5662C147.223 24.0207 147.543 24.3673 147.952 24.606C148.362 24.8408 148.837 24.9582 149.379 24.9582C149.731 24.9582 150.049 24.909 150.333 24.8105C150.621 24.7082 150.869 24.5567 151.077 24.356C151.286 24.1514 151.447 23.8976 151.56 23.5946L152.856 23.9582C152.719 24.3976 152.49 24.784 152.168 25.1173C151.846 25.4469 151.449 25.7044 150.975 25.89C150.502 26.0719 149.969 26.1628 149.379 26.1628ZM155.214 25.981V14.3446H156.555V18.64H156.668C156.767 18.4885 156.903 18.2954 157.077 18.0605C157.255 17.8219 157.509 17.6097 157.839 17.4241C158.172 17.2347 158.623 17.14 159.191 17.14C159.926 17.14 160.574 17.3238 161.134 17.6912C161.695 18.0586 162.132 18.5794 162.447 19.2537C162.761 19.9279 162.918 20.7234 162.918 21.64C162.918 22.5643 162.761 23.3654 162.447 24.0435C162.132 24.7177 161.697 25.2404 161.14 25.6116C160.583 25.9791 159.941 26.1628 159.214 26.1628C158.653 26.1628 158.204 26.07 157.867 25.8844C157.53 25.695 157.271 25.481 157.089 25.2423C156.907 24.9999 156.767 24.7991 156.668 24.64H156.509V25.981H155.214ZM156.532 21.6173C156.532 22.2764 156.629 22.8579 156.822 23.3616C157.015 23.8616 157.297 24.2537 157.668 24.5378C158.04 24.8181 158.494 24.9582 159.032 24.9582C159.593 24.9582 160.06 24.8105 160.435 24.515C160.814 24.2158 161.098 23.8143 161.288 23.3105C161.481 22.8029 161.577 22.2385 161.577 21.6173C161.577 21.0037 161.483 20.4507 161.293 19.9582C161.108 19.462 160.826 19.07 160.447 18.7821C160.072 18.4904 159.6 18.3446 159.032 18.3446C158.487 18.3446 158.028 18.4829 157.657 18.7594C157.286 19.0321 157.005 19.4147 156.816 19.9071C156.627 20.3957 156.532 20.9658 156.532 21.6173ZM170.129 25.981H168.651L172.924 14.3446H174.379L178.651 25.981H177.174L173.697 16.1855H173.606L170.129 25.981ZM170.674 21.4355H176.629V22.6855H170.674V21.4355ZM180.282 29.2537V17.2537H181.577V18.64H181.737C181.835 18.4885 181.971 18.2954 182.146 18.0605C182.324 17.8219 182.577 17.6097 182.907 17.4241C183.24 17.2347 183.691 17.14 184.259 17.14C184.994 17.14 185.642 17.3238 186.202 17.6912C186.763 18.0586 187.201 18.5794 187.515 19.2537C187.829 19.9279 187.987 20.7234 187.987 21.64C187.987 22.5643 187.829 23.3654 187.515 24.0435C187.201 24.7177 186.765 25.2404 186.208 25.6116C185.651 25.9791 185.009 26.1628 184.282 26.1628C183.721 26.1628 183.272 26.07 182.935 25.8844C182.598 25.695 182.339 25.481 182.157 25.2423C181.975 24.9999 181.835 24.7991 181.737 24.64H181.623V29.2537H180.282ZM181.6 21.6173C181.6 22.2764 181.697 22.8579 181.89 23.3616C182.083 23.8616 182.365 24.2537 182.737 24.5378C183.108 24.8181 183.562 24.9582 184.1 24.9582C184.661 24.9582 185.129 24.8105 185.504 24.515C185.882 24.2158 186.166 23.8143 186.356 23.3105C186.549 22.8029 186.646 22.2385 186.646 21.6173C186.646 21.0037 186.551 20.4507 186.362 19.9582C186.176 19.462 185.894 19.07 185.515 18.7821C185.14 18.4904 184.668 18.3446 184.1 18.3446C183.555 18.3446 183.096 18.4829 182.725 18.7594C182.354 19.0321 182.074 19.4147 181.884 19.9071C181.695 20.3957 181.6 20.9658 181.6 21.6173ZM190.032 29.2537V17.2537H191.327V18.64H191.487C191.585 18.4885 191.721 18.2954 191.896 18.0605C192.074 17.8219 192.327 17.6097 192.657 17.4241C192.99 17.2347 193.441 17.14 194.009 17.14C194.744 17.14 195.392 17.3238 195.952 17.6912C196.513 18.0586 196.951 18.5794 197.265 19.2537C197.579 19.9279 197.737 20.7234 197.737 21.64C197.737 22.5643 197.579 23.3654 197.265 24.0435C196.951 24.7177 196.515 25.2404 195.958 25.6116C195.401 25.9791 194.759 26.1628 194.032 26.1628C193.471 26.1628 193.022 26.07 192.685 25.8844C192.348 25.695 192.089 25.481 191.907 25.2423C191.725 24.9999 191.585 24.7991 191.487 24.64H191.373V29.2537H190.032ZM191.35 21.6173C191.35 22.2764 191.447 22.8579 191.64 23.3616C191.833 23.8616 192.115 24.2537 192.487 24.5378C192.858 24.8181 193.312 24.9582 193.85 24.9582C194.411 24.9582 194.879 24.8105 195.254 24.515C195.632 24.2158 195.916 23.8143 196.106 23.3105C196.299 22.8029 196.396 22.2385 196.396 21.6173C196.396 21.0037 196.301 20.4507 196.112 19.9582C195.926 19.462 195.644 19.07 195.265 18.7821C194.89 18.4904 194.418 18.3446 193.85 18.3446C193.305 18.3446 192.846 18.4829 192.475 18.7594C192.104 19.0321 191.824 19.4147 191.634 19.9071C191.445 20.3957 191.35 20.9658 191.35 21.6173Z" fill="white"/>
</g>
</svg>
