<svg width="62" height="62" viewBox="0 0 62 62" fill="none" xmlns="http://www.w3.org/2000/svg">
<path d="M21.9605 38.8418H39.8674M21.9605 46.5162H30.914M48.8209 5.58615H13.0071C12.3286 5.58615 11.678 5.85567 11.1982 6.33541C10.7185 6.81515 10.449 7.46582 10.449 8.14428V54.1905C10.449 54.869 10.7185 55.5197 11.1982 55.9994C11.678 56.4792 12.3286 56.7487 13.0071 56.7487H48.8209C49.4993 56.7487 50.15 56.4792 50.6297 55.9994C51.1095 55.5197 51.379 54.869 51.379 54.1905V8.14428C51.379 7.46582 51.1095 6.81515 50.6297 6.33541C50.15 5.85567 49.4993 5.58615 48.8209 5.58615Z" stroke="#262261" stroke-width="3.83719" stroke-linecap="round" stroke-linejoin="round"/>
<path d="M38.5883 17.0977L28.3558 27.3303L23.2395 22.214" stroke="#262261" stroke-width="3.83719" stroke-linecap="round" stroke-linejoin="round"/>
</svg>
