<svg width="348" height="448" viewBox="0 0 348 448" fill="none" xmlns="http://www.w3.org/2000/svg">
<g filter="url(#filter0_d_29_232)">
<path d="M40 192.144V41C40 38.2386 42.2386 36 45 36H301.932C304.693 36 306.932 38.2386 306.932 41V192.551C306.932 193.878 306.405 195.149 305.467 196.087L302.297 199.257C300.345 201.21 300.345 204.375 302.297 206.328L306.063 210.094C307.001 211.032 307.527 212.303 307.527 213.629V399.406C307.527 402.168 305.289 404.406 302.527 404.406H45C42.2386 404.406 40 402.168 40 399.406V213.931C40 212.429 40.6749 211.007 41.8381 210.058L45.8241 206.804C48.3292 204.759 48.2634 200.91 45.6897 198.951L41.9725 196.123C40.7297 195.178 40 193.706 40 192.144Z" fill="#FD523A"/>
</g>
<path d="M94.991 287.947H93.67C93.5919 287.567 93.4552 287.233 93.2599 286.945C93.0681 286.658 92.8337 286.416 92.5567 286.221C92.2833 286.022 91.9797 285.873 91.6459 285.773C91.3121 285.674 90.964 285.624 90.6018 285.624C89.9413 285.624 89.343 285.791 88.8067 286.125C88.2741 286.459 87.8497 286.951 87.5336 287.601C87.2211 288.25 87.0649 289.048 87.0649 289.992C87.0649 290.937 87.2211 291.734 87.5336 292.384C87.8497 293.034 88.2741 293.526 88.8067 293.859C89.343 294.193 89.9413 294.36 90.6018 294.36C90.964 294.36 91.3121 294.31 91.6459 294.211C91.9797 294.112 92.2833 293.964 92.5567 293.769C92.8337 293.57 93.0681 293.327 93.2599 293.039C93.4552 292.748 93.5919 292.414 93.67 292.038H94.991C94.8916 292.595 94.7105 293.094 94.4477 293.534C94.1849 293.975 93.8582 294.349 93.4676 294.658C93.077 294.964 92.6384 295.196 92.1519 295.356C91.6689 295.516 91.1523 295.596 90.6018 295.596C89.6714 295.596 88.844 295.369 88.1196 294.914C87.3952 294.46 86.8252 293.813 86.4097 292.975C85.9942 292.137 85.7865 291.143 85.7865 289.992C85.7865 288.842 85.9942 287.847 86.4097 287.009C86.8252 286.171 87.3952 285.525 88.1196 285.07C88.844 284.616 89.6714 284.389 90.6018 284.389C91.1523 284.389 91.6689 284.468 92.1519 284.628C92.6384 284.788 93.077 285.022 93.4676 285.331C93.8582 285.637 94.1849 286.01 94.4477 286.45C94.7105 286.887 94.8916 287.386 94.991 287.947ZM100.386 295.617C99.5973 295.617 98.9173 295.443 98.3455 295.095C97.7773 294.744 97.3388 294.254 97.0298 293.625C96.7244 292.993 96.5717 292.258 96.5717 291.42C96.5717 290.582 96.7244 289.843 97.0298 289.204C97.3388 288.561 97.7685 288.06 98.3189 287.702C98.8729 287.34 99.5192 287.158 100.258 287.158C100.684 287.158 101.105 287.229 101.52 287.371C101.936 287.514 102.314 287.744 102.655 288.064C102.996 288.38 103.267 288.799 103.47 289.321C103.672 289.843 103.773 290.486 103.773 291.249V291.782H97.4666V290.695H102.495C102.495 290.234 102.403 289.822 102.218 289.46C102.037 289.097 101.778 288.811 101.44 288.602C101.107 288.392 100.712 288.288 100.258 288.288C99.7571 288.288 99.3239 288.412 98.9581 288.661C98.5959 288.906 98.3171 289.225 98.1218 289.619C97.9265 290.014 97.8288 290.436 97.8288 290.887V291.612C97.8288 292.229 97.9354 292.753 98.1484 293.183C98.3651 293.609 98.6651 293.934 99.0487 294.158C99.4322 294.378 99.8778 294.488 100.386 294.488C100.716 294.488 101.014 294.442 101.281 294.349C101.55 294.254 101.783 294.112 101.978 293.923C102.174 293.732 102.325 293.494 102.431 293.21L103.646 293.55C103.518 293.962 103.303 294.325 103.001 294.637C102.699 294.946 102.326 295.188 101.882 295.362C101.439 295.532 100.94 295.617 100.386 295.617ZM105.686 295.447V287.265H106.9V288.501H106.985C107.135 288.096 107.404 287.767 107.795 287.515C108.186 287.263 108.626 287.137 109.116 287.137C109.208 287.137 109.324 287.139 109.462 287.142C109.601 287.146 109.706 287.151 109.777 287.158V288.437C109.734 288.426 109.636 288.41 109.484 288.389C109.335 288.364 109.176 288.352 109.01 288.352C108.612 288.352 108.257 288.435 107.944 288.602C107.635 288.765 107.39 288.993 107.209 289.284C107.032 289.571 106.943 289.9 106.943 290.269V295.447H105.686ZM115.338 287.265V288.33H111.098V287.265H115.338ZM112.333 285.305H113.591V293.103C113.591 293.458 113.642 293.724 113.745 293.902C113.852 294.076 113.987 294.193 114.15 294.254C114.317 294.31 114.493 294.339 114.677 294.339C114.816 294.339 114.929 294.332 115.018 294.318C115.107 294.3 115.178 294.286 115.231 294.275L115.487 295.404C115.402 295.436 115.283 295.468 115.13 295.5C114.977 295.536 114.784 295.553 114.549 295.553C114.194 295.553 113.846 295.477 113.505 295.324C113.168 295.172 112.887 294.939 112.664 294.626C112.444 294.314 112.333 293.92 112.333 293.444V285.305ZM117.229 295.447V287.265H118.486V295.447H117.229ZM117.868 285.901C117.623 285.901 117.412 285.818 117.234 285.651C117.06 285.484 116.973 285.283 116.973 285.049C116.973 284.815 117.06 284.614 117.234 284.447C117.412 284.28 117.623 284.197 117.868 284.197C118.113 284.197 118.322 284.28 118.496 284.447C118.674 284.614 118.763 284.815 118.763 285.049C118.763 285.283 118.674 285.484 118.496 285.651C118.322 285.818 118.113 285.901 117.868 285.901ZM124.432 287.265V288.33H120.021V287.265H124.432ZM121.342 295.447V286.136C121.342 285.667 121.452 285.276 121.672 284.964C121.893 284.651 122.179 284.417 122.53 284.261C122.882 284.104 123.253 284.026 123.643 284.026C123.952 284.026 124.204 284.051 124.4 284.101C124.595 284.151 124.741 284.197 124.837 284.239L124.474 285.326C124.41 285.305 124.322 285.278 124.208 285.246C124.098 285.214 123.952 285.198 123.771 285.198C123.356 285.198 123.056 285.303 122.871 285.512C122.69 285.722 122.599 286.029 122.599 286.434V295.447H121.342ZM126.194 295.447V287.265H127.451V295.447H126.194ZM126.833 285.901C126.588 285.901 126.376 285.818 126.199 285.651C126.025 285.484 125.938 285.283 125.938 285.049C125.938 284.815 126.025 284.614 126.199 284.447C126.376 284.28 126.588 284.197 126.833 284.197C127.078 284.197 127.287 284.28 127.461 284.447C127.639 284.614 127.728 284.815 127.728 285.049C127.728 285.283 127.639 285.484 127.461 285.651C127.287 285.818 127.078 285.901 126.833 285.901ZM133.184 295.617C132.395 295.617 131.715 295.443 131.143 295.095C130.575 294.744 130.137 294.254 129.828 293.625C129.522 292.993 129.37 292.258 129.37 291.42C129.37 290.582 129.522 289.843 129.828 289.204C130.137 288.561 130.566 288.06 131.117 287.702C131.671 287.34 132.317 287.158 133.056 287.158C133.482 287.158 133.903 287.229 134.318 287.371C134.734 287.514 135.112 287.744 135.453 288.064C135.794 288.38 136.065 288.799 136.268 289.321C136.47 289.843 136.571 290.486 136.571 291.249V291.782H130.264V290.695H135.293C135.293 290.234 135.201 289.822 135.016 289.46C134.835 289.097 134.576 288.811 134.238 288.602C133.904 288.392 133.51 288.288 133.056 288.288C132.555 288.288 132.122 288.412 131.756 288.661C131.394 288.906 131.115 289.225 130.92 289.619C130.724 290.014 130.627 290.436 130.627 290.887V291.612C130.627 292.229 130.733 292.753 130.946 293.183C131.163 293.609 131.463 293.934 131.847 294.158C132.23 294.378 132.676 294.488 133.184 294.488C133.514 294.488 133.812 294.442 134.078 294.349C134.348 294.254 134.581 294.112 134.776 293.923C134.972 293.732 135.122 293.494 135.229 293.21L136.443 293.55C136.316 293.962 136.101 294.325 135.799 294.637C135.497 294.946 135.124 295.188 134.68 295.362C134.236 295.532 133.737 295.617 133.184 295.617ZM141.573 295.617C140.891 295.617 140.289 295.445 139.767 295.101C139.245 294.753 138.837 294.262 138.542 293.63C138.247 292.995 138.1 292.244 138.1 291.377C138.1 290.518 138.247 289.772 138.542 289.14C138.837 288.508 139.247 288.02 139.773 287.675C140.298 287.331 140.905 287.158 141.594 287.158C142.127 287.158 142.548 287.247 142.857 287.425C143.169 287.599 143.407 287.798 143.571 288.021C143.737 288.242 143.867 288.423 143.959 288.565H144.066V284.538H145.323V295.447H144.109V294.19H143.959C143.867 294.339 143.736 294.527 143.565 294.754C143.395 294.978 143.152 295.179 142.835 295.356C142.519 295.53 142.099 295.617 141.573 295.617ZM141.744 294.488C142.248 294.488 142.674 294.357 143.022 294.094C143.37 293.827 143.634 293.46 143.816 292.991C143.997 292.519 144.087 291.974 144.087 291.356C144.087 290.745 143.998 290.211 143.821 289.753C143.643 289.291 143.381 288.932 143.033 288.677C142.685 288.417 142.255 288.288 141.744 288.288C141.211 288.288 140.767 288.424 140.412 288.698C140.06 288.968 139.796 289.335 139.618 289.8C139.444 290.262 139.357 290.781 139.357 291.356C139.357 291.938 139.446 292.467 139.623 292.943C139.805 293.416 140.071 293.792 140.422 294.072C140.778 294.349 141.218 294.488 141.744 294.488ZM158.155 287.265C158.091 286.725 157.832 286.306 157.377 286.008C156.923 285.71 156.365 285.56 155.705 285.56C155.222 285.56 154.799 285.639 154.437 285.795C154.078 285.951 153.798 286.166 153.595 286.439C153.397 286.713 153.297 287.023 153.297 287.371C153.297 287.663 153.366 287.913 153.505 288.123C153.647 288.329 153.828 288.501 154.048 288.639C154.268 288.774 154.499 288.886 154.741 288.975C154.982 289.06 155.204 289.129 155.407 289.183L156.514 289.481C156.799 289.555 157.115 289.658 157.463 289.79C157.814 289.921 158.15 290.101 158.469 290.328C158.793 290.552 159.059 290.839 159.268 291.191C159.478 291.542 159.583 291.974 159.583 292.485C159.583 293.075 159.428 293.607 159.119 294.083C158.814 294.559 158.366 294.937 157.777 295.218C157.191 295.498 156.479 295.639 155.641 295.639C154.86 295.639 154.183 295.512 153.611 295.26C153.043 295.008 152.596 294.657 152.269 294.206C151.946 293.755 151.763 293.231 151.72 292.634H153.084C153.12 293.046 153.258 293.387 153.5 293.657C153.745 293.923 154.054 294.122 154.426 294.254C154.803 294.381 155.208 294.445 155.641 294.445C156.145 294.445 156.598 294.364 156.999 294.2C157.4 294.033 157.718 293.803 157.953 293.508C158.187 293.21 158.304 292.862 158.304 292.464C158.304 292.102 158.203 291.807 158.001 291.58C157.798 291.352 157.532 291.168 157.202 291.026C156.871 290.884 156.514 290.759 156.131 290.653L154.789 290.269C153.936 290.024 153.262 289.674 152.764 289.22C152.267 288.765 152.019 288.17 152.019 287.435C152.019 286.825 152.184 286.292 152.514 285.837C152.848 285.379 153.295 285.024 153.856 284.772C154.421 284.516 155.051 284.389 155.747 284.389C156.451 284.389 157.076 284.515 157.622 284.767C158.169 285.015 158.603 285.356 158.922 285.789C159.245 286.223 159.416 286.715 159.434 287.265H158.155ZM164.908 295.617C164.169 295.617 163.521 295.441 162.964 295.09C162.41 294.738 161.977 294.246 161.664 293.614C161.355 292.982 161.201 292.244 161.201 291.398C161.201 290.546 161.355 289.802 161.664 289.167C161.977 288.531 162.41 288.037 162.964 287.686C163.521 287.334 164.169 287.158 164.908 287.158C165.647 287.158 166.293 287.334 166.847 287.686C167.404 288.037 167.838 288.531 168.147 289.167C168.459 289.802 168.615 290.546 168.615 291.398C168.615 292.244 168.459 292.982 168.147 293.614C167.838 294.246 167.404 294.738 166.847 295.09C166.293 295.441 165.647 295.617 164.908 295.617ZM164.908 294.488C165.469 294.488 165.931 294.344 166.293 294.057C166.655 293.769 166.923 293.391 167.097 292.922C167.271 292.453 167.358 291.945 167.358 291.398C167.358 290.852 167.271 290.342 167.097 289.87C166.923 289.397 166.655 289.016 166.293 288.724C165.931 288.433 165.469 288.288 164.908 288.288C164.347 288.288 163.885 288.433 163.523 288.724C163.161 289.016 162.893 289.397 162.719 289.87C162.545 290.342 162.458 290.852 162.458 291.398C162.458 291.945 162.545 292.453 162.719 292.922C162.893 293.391 163.161 293.769 163.523 294.057C163.885 294.344 164.347 294.488 164.908 294.488ZM171.791 284.538V295.447H170.534V284.538H171.791ZM179.25 292.102V287.265H180.507V295.447H179.25V294.062H179.165C178.973 294.477 178.675 294.831 178.27 295.122C177.865 295.409 177.354 295.553 176.736 295.553C176.225 295.553 175.77 295.441 175.372 295.218C174.975 294.99 174.662 294.65 174.435 294.195C174.208 293.737 174.094 293.16 174.094 292.464V287.265H175.351V292.379C175.351 292.975 175.518 293.451 175.852 293.806C176.189 294.161 176.619 294.339 177.141 294.339C177.453 294.339 177.771 294.259 178.094 294.099C178.421 293.939 178.694 293.694 178.915 293.364C179.138 293.034 179.25 292.613 179.25 292.102ZM186.368 287.265V288.33H182.128V287.265H186.368ZM183.364 285.305H184.621V293.103C184.621 293.458 184.672 293.724 184.775 293.902C184.882 294.076 185.017 294.193 185.18 294.254C185.347 294.31 185.523 294.339 185.707 294.339C185.846 294.339 185.96 294.332 186.048 294.318C186.137 294.3 186.208 294.286 186.261 294.275L186.517 295.404C186.432 295.436 186.313 295.468 186.16 295.5C186.008 295.536 185.814 295.553 185.58 295.553C185.225 295.553 184.877 295.477 184.536 295.324C184.198 295.172 183.918 294.939 183.694 294.626C183.474 294.314 183.364 293.92 183.364 293.444V285.305ZM188.259 295.447V287.265H189.516V295.447H188.259ZM188.898 285.901C188.653 285.901 188.442 285.818 188.264 285.651C188.09 285.484 188.003 285.283 188.003 285.049C188.003 284.815 188.09 284.614 188.264 284.447C188.442 284.28 188.653 284.197 188.898 284.197C189.143 284.197 189.353 284.28 189.527 284.447C189.704 284.614 189.793 284.815 189.793 285.049C189.793 285.283 189.704 285.484 189.527 285.651C189.353 285.818 189.143 285.901 188.898 285.901ZM195.142 295.617C194.404 295.617 193.756 295.441 193.198 295.09C192.644 294.738 192.211 294.246 191.898 293.614C191.589 292.982 191.435 292.244 191.435 291.398C191.435 290.546 191.589 289.802 191.898 289.167C192.211 288.531 192.644 288.037 193.198 287.686C193.756 287.334 194.404 287.158 195.142 287.158C195.881 287.158 196.527 287.334 197.081 287.686C197.639 288.037 198.072 288.531 198.381 289.167C198.694 289.802 198.85 290.546 198.85 291.398C198.85 292.244 198.694 292.982 198.381 293.614C198.072 294.246 197.639 294.738 197.081 295.09C196.527 295.441 195.881 295.617 195.142 295.617ZM195.142 294.488C195.703 294.488 196.165 294.344 196.527 294.057C196.89 293.769 197.158 293.391 197.332 292.922C197.506 292.453 197.593 291.945 197.593 291.398C197.593 290.852 197.506 290.342 197.332 289.87C197.158 289.397 196.89 289.016 196.527 288.724C196.165 288.433 195.703 288.288 195.142 288.288C194.581 288.288 194.12 288.433 193.757 288.724C193.395 289.016 193.127 289.397 192.953 289.87C192.779 290.342 192.692 290.852 192.692 291.398C192.692 291.945 192.779 292.453 192.953 292.922C193.127 293.391 193.395 293.769 193.757 294.057C194.12 294.344 194.581 294.488 195.142 294.488ZM202.026 290.525V295.447H200.769V287.265H201.983V288.543H202.09C202.282 288.128 202.573 287.794 202.963 287.542C203.354 287.286 203.858 287.158 204.476 287.158C205.03 287.158 205.515 287.272 205.93 287.499C206.346 287.723 206.669 288.064 206.9 288.522C207.131 288.977 207.246 289.552 207.246 290.248V295.447H205.989V290.333C205.989 289.69 205.822 289.19 205.488 288.831C205.154 288.469 204.696 288.288 204.114 288.288C203.713 288.288 203.354 288.375 203.038 288.549C202.725 288.723 202.479 288.977 202.297 289.31C202.116 289.644 202.026 290.049 202.026 290.525ZM213.932 295.447V284.538H215.253V289.396H221.07V284.538H222.391V295.447H221.07V290.568H215.253V295.447H213.932ZM228.296 295.617C227.507 295.617 226.827 295.443 226.256 295.095C225.688 294.744 225.249 294.254 224.94 293.625C224.635 292.993 224.482 292.258 224.482 291.42C224.482 290.582 224.635 289.843 224.94 289.204C225.249 288.561 225.679 288.06 226.229 287.702C226.783 287.34 227.429 287.158 228.168 287.158C228.594 287.158 229.015 287.229 229.43 287.371C229.846 287.514 230.224 287.744 230.565 288.064C230.906 288.38 231.178 288.799 231.38 289.321C231.582 289.843 231.684 290.486 231.684 291.249V291.782H225.377V290.695H230.405C230.405 290.234 230.313 289.822 230.128 289.46C229.947 289.097 229.688 288.811 229.35 288.602C229.017 288.392 228.623 288.288 228.168 288.288C227.667 288.288 227.234 288.412 226.868 288.661C226.506 288.906 226.227 289.225 226.032 289.619C225.837 290.014 225.739 290.436 225.739 290.887V291.612C225.739 292.229 225.846 292.753 226.059 293.183C226.275 293.609 226.575 293.934 226.959 294.158C227.342 294.378 227.788 294.488 228.296 294.488C228.626 294.488 228.924 294.442 229.191 294.349C229.461 294.254 229.693 294.112 229.888 293.923C230.084 293.732 230.235 293.494 230.341 293.21L231.556 293.55C231.428 293.962 231.213 294.325 230.911 294.637C230.609 294.946 230.237 295.188 229.793 295.362C229.349 295.532 228.85 295.617 228.296 295.617ZM233.596 295.447V287.265H234.81V288.501H234.896C235.045 288.096 235.315 287.767 235.705 287.515C236.096 287.263 236.536 287.137 237.026 287.137C237.119 287.137 237.234 287.139 237.373 287.142C237.511 287.146 237.616 287.151 237.687 287.158V288.437C237.644 288.426 237.547 288.41 237.394 288.389C237.245 288.364 237.087 288.352 236.92 288.352C236.522 288.352 236.167 288.435 235.854 288.602C235.545 288.765 235.3 288.993 235.119 289.284C234.942 289.571 234.853 289.9 234.853 290.269V295.447H233.596ZM242.252 295.617C241.513 295.617 240.865 295.441 240.308 295.09C239.754 294.738 239.32 294.246 239.008 293.614C238.699 292.982 238.544 292.244 238.544 291.398C238.544 290.546 238.699 289.802 239.008 289.167C239.32 288.531 239.754 288.037 240.308 287.686C240.865 287.334 241.513 287.158 242.252 287.158C242.99 287.158 243.637 287.334 244.191 287.686C244.748 288.037 245.181 288.531 245.49 289.167C245.803 289.802 245.959 290.546 245.959 291.398C245.959 292.244 245.803 292.982 245.49 293.614C245.181 294.246 244.748 294.738 244.191 295.09C243.637 295.441 242.99 295.617 242.252 295.617ZM242.252 294.488C242.813 294.488 243.275 294.344 243.637 294.057C243.999 293.769 244.267 293.391 244.441 292.922C244.615 292.453 244.702 291.945 244.702 291.398C244.702 290.852 244.615 290.342 244.441 289.87C244.267 289.397 243.999 289.016 243.637 288.724C243.275 288.433 242.813 288.288 242.252 288.288C241.691 288.288 241.229 288.433 240.867 288.724C240.505 289.016 240.237 289.397 240.062 289.87C239.888 290.342 239.801 290.852 239.801 291.398C239.801 291.945 239.888 292.453 240.062 292.922C240.237 293.391 240.505 293.769 240.867 294.057C241.229 294.344 241.691 294.488 242.252 294.488ZM251.309 295.617C250.52 295.617 249.84 295.443 249.268 295.095C248.7 294.744 248.262 294.254 247.953 293.625C247.647 292.993 247.495 292.258 247.495 291.42C247.495 290.582 247.647 289.843 247.953 289.204C248.262 288.561 248.691 288.06 249.242 287.702C249.796 287.34 250.442 287.158 251.181 287.158C251.607 287.158 252.028 287.229 252.443 287.371C252.859 287.514 253.237 287.744 253.578 288.064C253.919 288.38 254.19 288.799 254.393 289.321C254.595 289.843 254.696 290.486 254.696 291.249V291.782H248.389V290.695H253.418C253.418 290.234 253.326 289.822 253.141 289.46C252.96 289.097 252.701 288.811 252.363 288.602C252.029 288.392 251.635 288.288 251.181 288.288C250.68 288.288 250.247 288.412 249.881 288.661C249.519 288.906 249.24 289.225 249.045 289.619C248.849 290.014 248.752 290.436 248.752 290.887V291.612C248.752 292.229 248.858 292.753 249.071 293.183C249.288 293.609 249.588 293.934 249.972 294.158C250.355 294.378 250.801 294.488 251.309 294.488C251.639 294.488 251.937 294.442 252.203 294.349C252.473 294.254 252.706 294.112 252.901 293.923C253.097 293.732 253.247 293.494 253.354 293.21L254.568 293.55C254.441 293.962 254.226 294.325 253.924 294.637C253.622 294.946 253.249 295.188 252.805 295.362C252.361 295.532 251.862 295.617 251.309 295.617ZM262.404 289.097L261.275 289.417C261.204 289.229 261.099 289.046 260.96 288.868C260.826 288.687 260.641 288.538 260.407 288.421C260.172 288.304 259.872 288.245 259.506 288.245C259.006 288.245 258.588 288.36 258.255 288.591C257.924 288.819 257.759 289.108 257.759 289.46C257.759 289.772 257.873 290.019 258.1 290.2C258.327 290.381 258.682 290.532 259.165 290.653L260.38 290.951C261.111 291.129 261.657 291.4 262.015 291.766C262.374 292.128 262.553 292.595 262.553 293.167C262.553 293.636 262.418 294.055 262.148 294.424C261.882 294.793 261.509 295.085 261.03 295.298C260.55 295.511 259.993 295.617 259.357 295.617C258.523 295.617 257.832 295.436 257.285 295.074C256.738 294.712 256.392 294.183 256.246 293.487L257.44 293.188C257.553 293.629 257.768 293.959 258.084 294.179C258.404 294.399 258.821 294.509 259.336 294.509C259.922 294.509 260.387 294.385 260.731 294.136C261.079 293.884 261.253 293.582 261.253 293.231C261.253 292.947 261.154 292.709 260.955 292.517C260.756 292.322 260.451 292.176 260.039 292.08L258.675 291.761C257.926 291.583 257.376 291.308 257.024 290.935C256.676 290.559 256.502 290.088 256.502 289.523C256.502 289.062 256.632 288.653 256.891 288.298C257.154 287.943 257.511 287.664 257.962 287.462C258.416 287.26 258.931 287.158 259.506 287.158C260.316 287.158 260.952 287.336 261.413 287.691C261.878 288.046 262.209 288.515 262.404 289.097ZM266.32 293.955L266.235 294.531C266.175 294.935 266.083 295.369 265.958 295.83C265.838 296.292 265.711 296.727 265.58 297.135C265.449 297.544 265.34 297.869 265.255 298.11H264.296C264.343 297.883 264.403 297.583 264.477 297.21C264.552 296.837 264.627 296.42 264.701 295.958C264.779 295.5 264.843 295.031 264.893 294.552L264.957 293.955H266.32ZM64.7527 318.447V307.538H68.5666C69.3265 307.538 69.9533 307.669 70.4469 307.932C70.9405 308.191 71.3081 308.541 71.5495 308.981C71.791 309.418 71.9118 309.903 71.9118 310.435C71.9118 310.904 71.8283 311.291 71.6614 311.597C71.498 311.902 71.2814 312.144 71.0115 312.321C70.7452 312.499 70.4558 312.63 70.1433 312.715V312.822C70.4771 312.843 70.8127 312.96 71.15 313.173C71.4874 313.386 71.7697 313.692 71.997 314.09C72.2243 314.487 72.3379 314.974 72.3379 315.549C72.3379 316.096 72.2136 316.588 71.965 317.025C71.7164 317.461 71.324 317.808 70.7878 318.063C70.2516 318.319 69.5538 318.447 68.6944 318.447H64.7527ZM66.0737 317.275H68.6944C69.5574 317.275 70.1699 317.108 70.5321 316.774C70.8979 316.437 71.0808 316.028 71.0808 315.549C71.0808 315.18 70.9867 314.839 70.7985 314.526C70.6103 314.21 70.3422 313.958 69.9941 313.77C69.6461 313.578 69.2342 313.482 68.7583 313.482H66.0737V317.275ZM66.0737 312.332H68.524C68.9217 312.332 69.2804 312.254 69.6 312.097C69.9231 311.941 70.1788 311.721 70.367 311.437C70.5588 311.153 70.6547 310.819 70.6547 310.435C70.6547 309.956 70.4877 309.549 70.1539 309.216C69.8201 308.878 69.291 308.71 68.5666 308.71H66.0737V312.332ZM74.3381 318.447V310.265H75.5526V311.501H75.6378C75.7869 311.096 76.0568 310.767 76.4474 310.515C76.8381 310.263 77.2784 310.137 77.7685 310.137C77.8608 310.137 77.9762 310.139 78.1147 310.142C78.2532 310.146 78.358 310.151 78.429 310.158V311.437C78.3864 311.426 78.2887 311.41 78.136 311.389C77.9869 311.364 77.8288 311.352 77.6619 311.352C77.2642 311.352 76.9091 311.435 76.5966 311.602C76.2876 311.765 76.0426 311.993 75.8615 312.284C75.6839 312.571 75.5952 312.9 75.5952 313.269V318.447H74.3381ZM83.1005 318.617C82.3121 318.617 81.6321 318.443 81.0604 318.095C80.4922 317.744 80.0536 317.254 79.7447 316.625C79.4393 315.993 79.2866 315.258 79.2866 314.42C79.2866 313.582 79.4393 312.843 79.7447 312.204C80.0536 311.561 80.4833 311.06 81.0337 310.702C81.5877 310.34 82.234 310.158 82.9727 310.158C83.3988 310.158 83.8196 310.229 84.2351 310.371C84.6506 310.514 85.0288 310.744 85.3697 311.064C85.7106 311.38 85.9822 311.799 86.1847 312.321C86.3871 312.843 86.4883 313.486 86.4883 314.249V314.782H80.1815V313.695H85.2099C85.2099 313.234 85.1175 312.822 84.9329 312.46C84.7518 312.097 84.4925 311.811 84.1552 311.602C83.8214 311.392 83.4272 311.288 82.9727 311.288C82.4719 311.288 82.0387 311.412 81.6729 311.661C81.3107 311.906 81.032 312.225 80.8366 312.619C80.6413 313.014 80.5437 313.436 80.5437 313.887V314.612C80.5437 315.229 80.6502 315.753 80.8633 316.183C81.0799 316.609 81.38 316.934 81.7635 317.158C82.147 317.378 82.5927 317.488 83.1005 317.488C83.4308 317.488 83.729 317.442 83.9954 317.349C84.2653 317.254 84.4979 317.112 84.6932 316.923C84.8885 316.732 85.0394 316.494 85.146 316.21L86.3604 316.55C86.2326 316.962 86.0178 317.325 85.7159 317.637C85.4141 317.946 85.0412 318.188 84.5973 318.362C84.1534 318.532 83.6545 318.617 83.1005 318.617ZM90.8082 318.639C90.2898 318.639 89.8192 318.541 89.3967 318.346C88.9741 318.147 88.6385 317.861 88.3899 317.488C88.1413 317.112 88.017 316.657 88.017 316.124C88.017 315.656 88.1094 315.276 88.294 314.984C88.4787 314.69 88.7255 314.459 89.0344 314.292C89.3434 314.125 89.6843 314.001 90.0572 313.919C90.4336 313.834 90.8118 313.766 91.1918 313.717C91.6889 313.653 92.092 313.605 92.4009 313.573C92.7134 313.537 92.9407 313.479 93.0827 313.397C93.2283 313.315 93.3011 313.173 93.3011 312.971V312.928C93.3011 312.403 93.1573 311.994 92.8697 311.703C92.5856 311.412 92.1541 311.266 91.5753 311.266C90.9751 311.266 90.5046 311.398 90.1637 311.661C89.8228 311.923 89.5831 312.204 89.4446 312.502L88.2514 312.076C88.4645 311.579 88.7486 311.192 89.1037 310.915C89.4624 310.634 89.853 310.439 90.2756 310.329C90.7017 310.215 91.1207 310.158 91.5327 310.158C91.7955 310.158 92.0973 310.19 92.4382 310.254C92.7827 310.315 93.1147 310.441 93.4343 310.633C93.7575 310.824 94.0256 311.114 94.2386 311.501C94.4517 311.888 94.5582 312.406 94.5582 313.056V318.447H93.3011V317.339H93.2372C93.152 317.516 93.0099 317.706 92.8111 317.909C92.6122 318.111 92.3477 318.283 92.0174 318.425C91.6871 318.568 91.2841 318.639 90.8082 318.639ZM91 317.509C91.4972 317.509 91.9162 317.412 92.2571 317.216C92.6016 317.021 92.8608 316.769 93.0348 316.46C93.2124 316.151 93.3011 315.826 93.3011 315.485V314.335C93.2479 314.398 93.1307 314.457 92.9496 314.51C92.772 314.56 92.5661 314.604 92.3317 314.644C92.1009 314.679 91.8754 314.711 91.6552 314.739C91.4386 314.764 91.2628 314.786 91.1278 314.803C90.8011 314.846 90.4957 314.915 90.2116 315.011C89.9311 315.103 89.7038 315.244 89.5298 315.432C89.3594 315.617 89.2741 315.869 89.2741 316.188C89.2741 316.625 89.4357 316.955 89.7589 317.179C90.0856 317.399 90.4993 317.509 91 317.509ZM98.0246 315.464L98.0033 313.908H98.259L101.839 310.265H103.394L99.58 314.121H99.4735L98.0246 315.464ZM96.8527 318.447V307.538H98.1098V318.447H96.8527ZM102.052 318.447L98.8556 314.398L99.7504 313.525L103.65 318.447H102.052ZM109.011 313.184V314.356H104.238V313.184H109.011ZM114.76 318.447H111.393V307.538H114.909C115.967 307.538 116.873 307.756 117.626 308.193C118.378 308.626 118.955 309.249 119.357 310.063C119.758 310.872 119.959 311.842 119.959 312.971C119.959 314.107 119.756 315.086 119.351 315.906C118.947 316.723 118.357 317.351 117.583 317.792C116.809 318.228 115.868 318.447 114.76 318.447ZM112.714 317.275H114.675C115.577 317.275 116.324 317.101 116.917 316.753C117.51 316.405 117.952 315.909 118.243 315.267C118.535 314.624 118.68 313.859 118.68 312.971C118.68 312.09 118.536 311.332 118.249 310.696C117.961 310.057 117.531 309.567 116.96 309.226C116.388 308.882 115.676 308.71 114.824 308.71H112.714V317.275ZM125.328 318.617C124.589 318.617 123.941 318.441 123.384 318.09C122.83 317.738 122.396 317.246 122.084 316.614C121.775 315.982 121.621 315.244 121.621 314.398C121.621 313.546 121.775 312.802 122.084 312.167C122.396 311.531 122.83 311.037 123.384 310.686C123.941 310.334 124.589 310.158 125.328 310.158C126.067 310.158 126.713 310.334 127.267 310.686C127.824 311.037 128.258 311.531 128.567 312.167C128.879 312.802 129.035 313.546 129.035 314.398C129.035 315.244 128.879 315.982 128.567 316.614C128.258 317.246 127.824 317.738 127.267 318.09C126.713 318.441 126.067 318.617 125.328 318.617ZM125.328 317.488C125.889 317.488 126.351 317.344 126.713 317.057C127.075 316.769 127.343 316.391 127.517 315.922C127.691 315.453 127.778 314.945 127.778 314.398C127.778 313.852 127.691 313.342 127.517 312.87C127.343 312.397 127.075 312.016 126.713 311.724C126.351 311.433 125.889 311.288 125.328 311.288C124.767 311.288 124.305 311.433 123.943 311.724C123.581 312.016 123.313 312.397 123.139 312.87C122.965 313.342 122.878 313.852 122.878 314.398C122.878 314.945 122.965 315.453 123.139 315.922C123.313 316.391 123.581 316.769 123.943 317.057C124.305 317.344 124.767 317.488 125.328 317.488ZM132.53 318.447L130.037 310.265H131.358L133.126 316.529H133.211L134.959 310.265H136.301L138.027 316.508H138.112L139.881 310.265H141.202L138.709 318.447H137.473L135.683 312.161H135.555L133.765 318.447H132.53ZM144.121 313.525V318.447H142.863V310.265H144.078V311.543H144.184C144.376 311.128 144.667 310.794 145.058 310.542C145.449 310.286 145.953 310.158 146.571 310.158C147.125 310.158 147.61 310.272 148.025 310.499C148.441 310.723 148.764 311.064 148.994 311.522C149.225 311.977 149.341 312.552 149.341 313.248V318.447H148.084V313.333C148.084 312.69 147.917 312.19 147.583 311.831C147.249 311.469 146.791 311.288 146.209 311.288C145.807 311.288 145.449 311.375 145.133 311.549C144.82 311.723 144.573 311.977 144.392 312.31C144.211 312.644 144.121 313.049 144.121 313.525ZM156.475 318.447H155.09L159.095 307.538H160.459L164.465 318.447H163.08L159.82 309.264H159.734L156.475 318.447ZM156.986 314.185H162.568V315.357H156.986V314.185ZM167.25 313.525V318.447H165.993V310.265H167.208V311.543H167.314C167.506 311.128 167.797 310.794 168.188 310.542C168.579 310.286 169.083 310.158 169.701 310.158C170.255 310.158 170.739 310.272 171.155 310.499C171.57 310.723 171.894 311.064 172.124 311.522C172.355 311.977 172.471 312.552 172.471 313.248V318.447H171.214V313.333C171.214 312.69 171.047 312.19 170.713 311.831C170.379 311.469 169.921 311.288 169.339 311.288C168.937 311.288 168.579 311.375 168.263 311.549C167.95 311.723 167.703 311.977 167.522 312.31C167.341 312.644 167.25 313.049 167.25 313.525ZM177.857 318.617C177.175 318.617 176.574 318.445 176.051 318.101C175.529 317.753 175.121 317.262 174.826 316.63C174.532 315.995 174.384 315.244 174.384 314.377C174.384 313.518 174.532 312.772 174.826 312.14C175.121 311.508 175.531 311.02 176.057 310.675C176.582 310.331 177.19 310.158 177.879 310.158C178.411 310.158 178.832 310.247 179.141 310.425C179.453 310.599 179.691 310.798 179.855 311.021C180.022 311.242 180.151 311.423 180.244 311.565H180.35V307.538H181.607V318.447H180.393V317.19H180.244C180.151 317.339 180.02 317.527 179.849 317.754C179.679 317.978 179.436 318.179 179.12 318.356C178.804 318.53 178.383 318.617 177.857 318.617ZM178.028 317.488C178.532 317.488 178.958 317.357 179.306 317.094C179.654 316.827 179.919 316.46 180.1 315.991C180.281 315.519 180.371 314.974 180.371 314.356C180.371 313.745 180.283 313.211 180.105 312.753C179.928 312.291 179.665 311.932 179.317 311.677C178.969 311.417 178.539 311.288 178.028 311.288C177.495 311.288 177.051 311.424 176.696 311.698C176.344 311.968 176.08 312.335 175.902 312.8C175.728 313.262 175.641 313.781 175.641 314.356C175.641 314.938 175.73 315.467 175.908 315.943C176.089 316.416 176.355 316.792 176.707 317.072C177.062 317.349 177.502 317.488 178.028 317.488ZM187.877 308.71V307.538H196.059V308.71H192.628V318.447H191.307V308.71H187.877ZM197.077 318.447V310.265H198.292V311.501H198.377C198.526 311.096 198.796 310.767 199.187 310.515C199.577 310.263 200.018 310.137 200.508 310.137C200.6 310.137 200.715 310.139 200.854 310.142C200.992 310.146 201.097 310.151 201.168 310.158V311.437C201.126 311.426 201.028 311.41 200.875 311.389C200.726 311.364 200.568 311.352 200.401 311.352C200.003 311.352 199.648 311.435 199.336 311.602C199.027 311.765 198.782 311.993 198.601 312.284C198.423 312.571 198.334 312.9 198.334 313.269V318.447H197.077ZM205.066 318.639C204.548 318.639 204.077 318.541 203.654 318.346C203.232 318.147 202.896 317.861 202.648 317.488C202.399 317.112 202.275 316.657 202.275 316.124C202.275 315.656 202.367 315.276 202.552 314.984C202.737 314.69 202.983 314.459 203.292 314.292C203.601 314.125 203.942 314.001 204.315 313.919C204.691 313.834 205.07 313.766 205.45 313.717C205.947 313.653 206.35 313.605 206.659 313.573C206.971 313.537 207.199 313.479 207.341 313.397C207.486 313.315 207.559 313.173 207.559 312.971V312.928C207.559 312.403 207.415 311.994 207.127 311.703C206.843 311.412 206.412 311.266 205.833 311.266C205.233 311.266 204.762 311.398 204.422 311.661C204.081 311.923 203.841 312.204 203.702 312.502L202.509 312.076C202.722 311.579 203.006 311.192 203.362 310.915C203.72 310.634 204.111 310.439 204.533 310.329C204.96 310.215 205.379 310.158 205.79 310.158C206.053 310.158 206.355 310.19 206.696 310.254C207.04 310.315 207.373 310.441 207.692 310.633C208.015 310.824 208.283 311.114 208.496 311.501C208.71 311.888 208.816 312.406 208.816 313.056V318.447H207.559V317.339H207.495C207.41 317.516 207.268 317.706 207.069 317.909C206.87 318.111 206.605 318.283 206.275 318.425C205.945 318.568 205.542 318.639 205.066 318.639ZM205.258 317.509C205.755 317.509 206.174 317.412 206.515 317.216C206.859 317.021 207.119 316.769 207.293 316.46C207.47 316.151 207.559 315.826 207.559 315.485V314.335C207.506 314.398 207.388 314.457 207.207 314.51C207.03 314.56 206.824 314.604 206.589 314.644C206.359 314.679 206.133 314.711 205.913 314.739C205.696 314.764 205.521 314.786 205.386 314.803C205.059 314.846 204.754 314.915 204.469 315.011C204.189 315.103 203.962 315.244 203.788 315.432C203.617 315.617 203.532 315.869 203.532 316.188C203.532 316.625 203.694 316.955 204.017 317.179C204.343 317.399 204.757 317.509 205.258 317.509ZM212.368 313.525V318.447H211.111V310.265H212.325V311.543H212.432C212.623 311.128 212.915 310.794 213.305 310.542C213.696 310.286 214.2 310.158 214.818 310.158C215.372 310.158 215.857 310.272 216.272 310.499C216.688 310.723 217.011 311.064 217.242 311.522C217.472 311.977 217.588 312.552 217.588 313.248V318.447H216.331V313.333C216.331 312.69 216.164 312.19 215.83 311.831C215.496 311.469 215.038 311.288 214.456 311.288C214.054 311.288 213.696 311.375 213.38 311.549C213.067 311.723 212.82 311.977 212.639 312.31C212.458 312.644 212.368 313.049 212.368 313.525ZM225.68 312.097L224.551 312.417C224.48 312.229 224.375 312.046 224.237 311.868C224.102 311.687 223.917 311.538 223.683 311.421C223.449 311.304 223.148 311.245 222.783 311.245C222.282 311.245 221.865 311.36 221.531 311.591C221.201 311.819 221.036 312.108 221.036 312.46C221.036 312.772 221.149 313.019 221.376 313.2C221.604 313.381 221.959 313.532 222.442 313.653L223.656 313.951C224.388 314.129 224.933 314.4 225.292 314.766C225.65 315.128 225.83 315.595 225.83 316.167C225.83 316.636 225.695 317.055 225.425 317.424C225.158 317.793 224.786 318.085 224.306 318.298C223.827 318.511 223.269 318.617 222.634 318.617C221.799 318.617 221.108 318.436 220.561 318.074C220.015 317.712 219.668 317.183 219.523 316.487L220.716 316.188C220.83 316.629 221.044 316.959 221.36 317.179C221.68 317.399 222.097 317.509 222.612 317.509C223.198 317.509 223.663 317.385 224.008 317.136C224.356 316.884 224.53 316.582 224.53 316.231C224.53 315.947 224.43 315.709 224.232 315.517C224.033 315.322 223.727 315.176 223.315 315.08L221.952 314.761C221.202 314.583 220.652 314.308 220.3 313.935C219.952 313.559 219.778 313.088 219.778 312.523C219.778 312.062 219.908 311.653 220.167 311.298C220.43 310.943 220.787 310.664 221.238 310.462C221.692 310.26 222.207 310.158 222.783 310.158C223.592 310.158 224.228 310.336 224.69 310.691C225.155 311.046 225.485 311.515 225.68 312.097ZM228.979 307.538V318.447H227.722V307.538H228.979ZM233.689 318.639C233.171 318.639 232.7 318.541 232.278 318.346C231.855 318.147 231.519 317.861 231.271 317.488C231.022 317.112 230.898 316.657 230.898 316.124C230.898 315.656 230.99 315.276 231.175 314.984C231.36 314.69 231.606 314.459 231.915 314.292C232.224 314.125 232.565 314.001 232.938 313.919C233.314 313.834 233.693 313.766 234.073 313.717C234.57 313.653 234.973 313.605 235.282 313.573C235.594 313.537 235.822 313.479 235.964 313.397C236.109 313.315 236.182 313.173 236.182 312.971V312.928C236.182 312.403 236.038 311.994 235.751 311.703C235.466 311.412 235.035 311.266 234.456 311.266C233.856 311.266 233.385 311.398 233.045 311.661C232.704 311.923 232.464 312.204 232.325 312.502L231.132 312.076C231.345 311.579 231.629 311.192 231.985 310.915C232.343 310.634 232.734 310.439 233.156 310.329C233.583 310.215 234.002 310.158 234.414 310.158C234.676 310.158 234.978 310.19 235.319 310.254C235.664 310.315 235.996 310.441 236.315 310.633C236.638 310.824 236.906 311.114 237.119 311.501C237.333 311.888 237.439 312.406 237.439 313.056V318.447H236.182V317.339H236.118C236.033 317.516 235.891 317.706 235.692 317.909C235.493 318.111 235.229 318.283 234.898 318.425C234.568 318.568 234.165 318.639 233.689 318.639ZM233.881 317.509C234.378 317.509 234.797 317.412 235.138 317.216C235.482 317.021 235.742 316.769 235.916 316.46C236.093 316.151 236.182 315.826 236.182 315.485V314.335C236.129 314.398 236.012 314.457 235.83 314.51C235.653 314.56 235.447 314.604 235.213 314.644C234.982 314.679 234.756 314.711 234.536 314.739C234.319 314.764 234.144 314.786 234.009 314.803C233.682 314.846 233.377 314.915 233.093 315.011C232.812 315.103 232.585 315.244 232.411 315.432C232.24 315.617 232.155 315.869 232.155 316.188C232.155 316.625 232.317 316.955 232.64 317.179C232.966 317.399 233.38 317.509 233.881 317.509ZM243.292 310.265V311.33H239.052V310.265H243.292ZM240.288 308.305H241.545V316.103C241.545 316.458 241.596 316.724 241.699 316.902C241.806 317.076 241.941 317.193 242.104 317.254C242.271 317.31 242.447 317.339 242.631 317.339C242.77 317.339 242.883 317.332 242.972 317.318C243.061 317.3 243.132 317.286 243.185 317.275L243.441 318.404C243.356 318.436 243.237 318.468 243.084 318.5C242.931 318.536 242.738 318.553 242.503 318.553C242.148 318.553 241.8 318.477 241.459 318.324C241.122 318.172 240.842 317.939 240.618 317.626C240.398 317.314 240.288 316.92 240.288 316.444V308.305ZM248.525 318.617C247.737 318.617 247.057 318.443 246.485 318.095C245.917 317.744 245.478 317.254 245.169 316.625C244.864 315.993 244.711 315.258 244.711 314.42C244.711 313.582 244.864 312.843 245.169 312.204C245.478 311.561 245.908 311.06 246.459 310.702C247.013 310.34 247.659 310.158 248.397 310.158C248.824 310.158 249.244 310.229 249.66 310.371C250.075 310.514 250.454 310.744 250.794 311.064C251.135 311.38 251.407 311.799 251.609 312.321C251.812 312.843 251.913 313.486 251.913 314.249V314.782H245.606V313.695H250.635C250.635 313.234 250.542 312.822 250.358 312.46C250.177 312.097 249.917 311.811 249.58 311.602C249.246 311.392 248.852 311.288 248.397 311.288C247.897 311.288 247.464 311.412 247.098 311.661C246.736 311.906 246.457 312.225 246.261 312.619C246.066 313.014 245.968 313.436 245.968 313.887V314.612C245.968 315.229 246.075 315.753 246.288 316.183C246.505 316.609 246.805 316.934 247.188 317.158C247.572 317.378 248.017 317.488 248.525 317.488C248.856 317.488 249.154 317.442 249.42 317.349C249.69 317.254 249.923 317.112 250.118 316.923C250.313 316.732 250.464 316.494 250.571 316.21L251.785 316.55C251.657 316.962 251.443 317.325 251.141 317.637C250.839 317.946 250.466 318.188 250.022 318.362C249.578 318.532 249.079 318.617 248.525 318.617ZM257.277 307.538H258.79L261.815 312.63H261.943L264.969 307.538H266.482L262.54 313.951V318.447H261.219V313.951L257.277 307.538ZM270.186 318.617C269.448 318.617 268.8 318.441 268.242 318.09C267.688 317.738 267.255 317.246 266.942 316.614C266.633 315.982 266.479 315.244 266.479 314.398C266.479 313.546 266.633 312.802 266.942 312.167C267.255 311.531 267.688 311.037 268.242 310.686C268.8 310.334 269.448 310.158 270.186 310.158C270.925 310.158 271.571 310.334 272.125 310.686C272.683 311.037 273.116 311.531 273.425 312.167C273.737 312.802 273.894 313.546 273.894 314.398C273.894 315.244 273.737 315.982 273.425 316.614C273.116 317.246 272.683 317.738 272.125 318.09C271.571 318.441 270.925 318.617 270.186 318.617ZM270.186 317.488C270.747 317.488 271.209 317.344 271.571 317.057C271.934 316.769 272.202 316.391 272.376 315.922C272.55 315.453 272.637 314.945 272.637 314.398C272.637 313.852 272.55 313.342 272.376 312.87C272.202 312.397 271.934 312.016 271.571 311.724C271.209 311.433 270.747 311.288 270.186 311.288C269.625 311.288 269.164 311.433 268.801 311.724C268.439 312.016 268.171 312.397 267.997 312.87C267.823 313.342 267.736 313.852 267.736 314.398C267.736 314.945 267.823 315.453 267.997 315.922C268.171 316.391 268.439 316.769 268.801 317.057C269.164 317.344 269.625 317.488 270.186 317.488ZM280.969 315.102V310.265H282.226V318.447H280.969V317.062H280.884C280.692 317.477 280.394 317.831 279.989 318.122C279.584 318.409 279.073 318.553 278.455 318.553C277.943 318.553 277.489 318.441 277.091 318.218C276.693 317.99 276.381 317.65 276.154 317.195C275.926 316.737 275.813 316.16 275.813 315.464V310.265H277.07V315.379C277.07 315.975 277.237 316.451 277.57 316.806C277.908 317.161 278.338 317.339 278.86 317.339C279.172 317.339 279.49 317.259 279.813 317.099C280.14 316.939 280.413 316.694 280.633 316.364C280.857 316.034 280.969 315.613 280.969 315.102ZM284.528 318.447V310.265H285.743V311.501H285.828C285.977 311.096 286.247 310.767 286.638 310.515C287.028 310.263 287.469 310.137 287.959 310.137C288.051 310.137 288.167 310.139 288.305 310.142C288.444 310.146 288.548 310.151 288.619 310.158V311.437C288.577 311.426 288.479 311.41 288.326 311.389C288.177 311.364 288.019 311.352 287.852 311.352C287.455 311.352 287.1 311.435 286.787 311.602C286.478 311.765 286.233 311.993 286.052 312.284C285.874 312.571 285.786 312.9 285.786 313.269V318.447H284.528ZM90.2702 341.447V330.538H93.9563C94.8086 330.538 95.5082 330.683 96.055 330.974C96.6019 331.262 97.0067 331.658 97.2695 332.162C97.5323 332.667 97.6637 333.24 97.6637 333.883C97.6637 334.526 97.5323 335.096 97.2695 335.593C97.0067 336.09 96.6037 336.481 96.0604 336.765C95.517 337.045 94.8228 337.185 93.9776 337.185H90.9947V335.992H93.935C94.5174 335.992 94.9862 335.907 95.3413 335.737C95.6999 335.566 95.9592 335.325 96.119 335.012C96.2823 334.696 96.364 334.32 96.364 333.883C96.364 333.446 96.2823 333.064 96.119 332.738C95.9556 332.411 95.6946 332.159 95.3359 331.981C94.9773 331.8 94.5032 331.71 93.9137 331.71H91.5913V341.447H90.2702ZM95.4052 336.546L98.0898 341.447H96.5558L93.9137 336.546H95.4052ZM103.037 341.617C102.249 341.617 101.569 341.443 100.997 341.095C100.429 340.744 99.9901 340.254 99.6812 339.625C99.3758 338.993 99.2231 338.258 99.2231 337.42C99.2231 336.582 99.3758 335.843 99.6812 335.204C99.9901 334.561 100.42 334.06 100.97 333.702C101.524 333.34 102.171 333.158 102.909 333.158C103.335 333.158 103.756 333.229 104.172 333.371C104.587 333.514 104.965 333.744 105.306 334.064C105.647 334.38 105.919 334.799 106.121 335.321C106.324 335.843 106.425 336.486 106.425 337.249V337.782H100.118V336.695H105.146C105.146 336.234 105.054 335.822 104.869 335.46C104.688 335.097 104.429 334.811 104.092 334.602C103.758 334.392 103.364 334.288 102.909 334.288C102.408 334.288 101.975 334.412 101.609 334.661C101.247 334.906 100.968 335.225 100.773 335.619C100.578 336.014 100.48 336.436 100.48 336.887V337.612C100.48 338.229 100.587 338.753 100.8 339.183C101.016 339.609 101.316 339.934 101.7 340.158C102.084 340.378 102.529 340.488 103.037 340.488C103.367 340.488 103.666 340.442 103.932 340.349C104.202 340.254 104.434 340.112 104.63 339.923C104.825 339.732 104.976 339.494 105.082 339.21L106.297 339.55C106.169 339.962 105.954 340.325 105.652 340.637C105.351 340.946 104.978 341.188 104.534 341.362C104.09 341.532 103.591 341.617 103.037 341.617ZM113.919 344.515V340.19H113.813C113.721 340.339 113.589 340.527 113.419 340.754C113.248 340.978 113.005 341.179 112.689 341.356C112.373 341.53 111.952 341.617 111.427 341.617C110.745 341.617 110.143 341.445 109.621 341.101C109.099 340.753 108.69 340.262 108.396 339.63C108.101 338.995 107.954 338.244 107.954 337.377C107.954 336.518 108.101 335.772 108.396 335.14C108.69 334.508 109.101 334.02 109.626 333.675C110.152 333.331 110.759 333.158 111.448 333.158C111.981 333.158 112.401 333.247 112.71 333.425C113.023 333.599 113.261 333.798 113.424 334.021C113.591 334.242 113.721 334.423 113.813 334.565H113.962V333.265H115.177V344.515H113.919ZM111.597 340.488C112.101 340.488 112.527 340.357 112.875 340.094C113.223 339.827 113.488 339.46 113.669 338.991C113.85 338.519 113.941 337.974 113.941 337.356C113.941 336.745 113.852 336.211 113.674 335.753C113.497 335.291 113.234 334.932 112.886 334.677C112.538 334.417 112.108 334.288 111.597 334.288C111.064 334.288 110.62 334.424 110.265 334.698C109.914 334.968 109.649 335.335 109.472 335.8C109.298 336.262 109.211 336.781 109.211 337.356C109.211 337.938 109.299 338.467 109.477 338.943C109.658 339.416 109.924 339.792 110.276 340.072C110.631 340.349 111.071 340.488 111.597 340.488ZM122.634 338.102V333.265H123.891V341.447H122.634V340.062H122.549C122.357 340.477 122.059 340.831 121.654 341.122C121.249 341.409 120.738 341.553 120.12 341.553C119.608 341.553 119.154 341.441 118.756 341.218C118.358 340.99 118.046 340.65 117.819 340.195C117.591 339.737 117.478 339.16 117.478 338.464V333.265H118.735V338.379C118.735 338.975 118.902 339.451 119.236 339.806C119.573 340.161 120.003 340.339 120.525 340.339C120.837 340.339 121.155 340.259 121.478 340.099C121.805 339.939 122.078 339.694 122.298 339.364C122.522 339.034 122.634 338.613 122.634 338.102ZM126.194 341.447V333.265H127.451V341.447H126.194ZM126.833 331.901C126.588 331.901 126.376 331.818 126.199 331.651C126.025 331.484 125.938 331.283 125.938 331.049C125.938 330.815 126.025 330.614 126.199 330.447C126.376 330.28 126.588 330.197 126.833 330.197C127.078 330.197 127.287 330.28 127.461 330.447C127.639 330.614 127.728 330.815 127.728 331.049C127.728 331.283 127.639 331.484 127.461 331.651C127.287 331.818 127.078 331.901 126.833 331.901ZM129.753 341.447V333.265H130.968V334.501H131.053C131.202 334.096 131.472 333.767 131.862 333.515C132.253 333.263 132.693 333.137 133.184 333.137C133.276 333.137 133.391 333.139 133.53 333.142C133.668 333.146 133.773 333.151 133.844 333.158V334.437C133.801 334.426 133.704 334.41 133.551 334.389C133.402 334.364 133.244 334.352 133.077 334.352C132.679 334.352 132.324 334.435 132.012 334.602C131.703 334.765 131.458 334.993 131.277 335.284C131.099 335.571 131.01 335.9 131.01 336.269V341.447H129.753ZM138.516 341.617C137.727 341.617 137.047 341.443 136.475 341.095C135.907 340.744 135.469 340.254 135.16 339.625C134.854 338.993 134.702 338.258 134.702 337.42C134.702 336.582 134.854 335.843 135.16 335.204C135.469 334.561 135.898 334.06 136.449 333.702C137.003 333.34 137.649 333.158 138.388 333.158C138.814 333.158 139.235 333.229 139.65 333.371C140.066 333.514 140.444 333.744 140.785 334.064C141.126 334.38 141.397 334.799 141.6 335.321C141.802 335.843 141.903 336.486 141.903 337.249V337.782H135.597V336.695H140.625C140.625 336.234 140.533 335.822 140.348 335.46C140.167 335.097 139.908 334.811 139.57 334.602C139.236 334.392 138.842 334.288 138.388 334.288C137.887 334.288 137.454 334.412 137.088 334.661C136.726 334.906 136.447 335.225 136.252 335.619C136.056 336.014 135.959 336.436 135.959 336.887V337.612C135.959 338.229 136.065 338.753 136.278 339.183C136.495 339.609 136.795 339.934 137.179 340.158C137.562 340.378 138.008 340.488 138.516 340.488C138.846 340.488 139.144 340.442 139.41 340.349C139.68 340.254 139.913 340.112 140.108 339.923C140.304 339.732 140.454 339.494 140.561 339.21L141.775 339.55C141.648 339.962 141.433 340.325 141.131 340.637C140.829 340.946 140.456 341.188 140.012 341.362C139.568 341.532 139.07 341.617 138.516 341.617ZM143.816 341.447V333.265H145.03V334.543H145.137C145.307 334.107 145.582 333.767 145.962 333.526C146.342 333.281 146.799 333.158 147.331 333.158C147.871 333.158 148.32 333.281 148.679 333.526C149.041 333.767 149.323 334.107 149.526 334.543H149.611C149.821 334.121 150.135 333.785 150.554 333.537C150.973 333.284 151.475 333.158 152.061 333.158C152.793 333.158 153.391 333.387 153.856 333.846C154.322 334.3 154.554 335.009 154.554 335.971V341.447H153.297V335.971C153.297 335.367 153.132 334.936 152.802 334.677C152.472 334.417 152.083 334.288 151.635 334.288C151.06 334.288 150.614 334.462 150.298 334.81C149.982 335.154 149.824 335.591 149.824 336.12V341.447H148.546V335.843C148.546 335.378 148.395 335.003 148.093 334.719C147.791 334.432 147.402 334.288 146.926 334.288C146.6 334.288 146.294 334.375 146.01 334.549C145.73 334.723 145.502 334.964 145.328 335.273C145.158 335.579 145.073 335.932 145.073 336.333V341.447H143.816ZM160.283 341.617C159.495 341.617 158.815 341.443 158.243 341.095C157.675 340.744 157.236 340.254 156.927 339.625C156.622 338.993 156.469 338.258 156.469 337.42C156.469 336.582 156.622 335.843 156.927 335.204C157.236 334.561 157.666 334.06 158.216 333.702C158.77 333.34 159.417 333.158 160.155 333.158C160.581 333.158 161.002 333.229 161.418 333.371C161.833 333.514 162.211 333.744 162.552 334.064C162.893 334.38 163.165 334.799 163.367 335.321C163.57 335.843 163.671 336.486 163.671 337.249V337.782H157.364V336.695H162.392C162.392 336.234 162.3 335.822 162.116 335.46C161.934 335.097 161.675 334.811 161.338 334.602C161.004 334.392 160.61 334.288 160.155 334.288C159.655 334.288 159.221 334.412 158.856 334.661C158.493 334.906 158.215 335.225 158.019 335.619C157.824 336.014 157.726 336.436 157.726 336.887V337.612C157.726 338.229 157.833 338.753 158.046 339.183C158.263 339.609 158.563 339.934 158.946 340.158C159.33 340.378 159.775 340.488 160.283 340.488C160.613 340.488 160.912 340.442 161.178 340.349C161.448 340.254 161.68 340.112 161.876 339.923C162.071 339.732 162.222 339.494 162.329 339.21L163.543 339.55C163.415 339.962 163.2 340.325 162.899 340.637C162.597 340.946 162.224 341.188 161.78 341.362C161.336 341.532 160.837 341.617 160.283 341.617ZM166.84 336.525V341.447H165.583V333.265H166.798V334.543H166.904C167.096 334.128 167.387 333.794 167.778 333.542C168.168 333.286 168.673 333.158 169.291 333.158C169.845 333.158 170.329 333.272 170.745 333.499C171.16 333.723 171.483 334.064 171.714 334.522C171.945 334.977 172.06 335.552 172.06 336.248V341.447H170.803V336.333C170.803 335.69 170.636 335.19 170.303 334.831C169.969 334.469 169.511 334.288 168.928 334.288C168.527 334.288 168.168 334.375 167.852 334.549C167.54 334.723 167.293 334.977 167.112 335.31C166.931 335.644 166.84 336.049 166.84 336.525ZM177.916 333.265V334.33H173.676V333.265H177.916ZM174.912 331.305H176.169V339.103C176.169 339.458 176.22 339.724 176.323 339.902C176.43 340.076 176.565 340.193 176.728 340.254C176.895 340.31 177.071 340.339 177.255 340.339C177.394 340.339 177.507 340.332 177.596 340.318C177.685 340.3 177.756 340.286 177.809 340.275L178.065 341.404C177.98 341.436 177.861 341.468 177.708 341.5C177.555 341.536 177.362 341.553 177.127 341.553C176.772 341.553 176.424 341.477 176.083 341.324C175.746 341.172 175.466 340.939 175.242 340.626C175.022 340.314 174.912 339.92 174.912 339.444V331.305ZM185.456 335.097L184.327 335.417C184.256 335.229 184.151 335.046 184.012 334.868C183.877 334.687 183.693 334.538 183.458 334.421C183.224 334.304 182.924 334.245 182.558 334.245C182.057 334.245 181.64 334.36 181.306 334.591C180.976 334.819 180.811 335.108 180.811 335.46C180.811 335.772 180.925 336.019 181.152 336.2C181.379 336.381 181.734 336.532 182.217 336.653L183.432 336.951C184.163 337.129 184.708 337.4 185.067 337.766C185.426 338.128 185.605 338.595 185.605 339.167C185.605 339.636 185.47 340.055 185.2 340.424C184.934 340.793 184.561 341.085 184.081 341.298C183.602 341.511 183.045 341.617 182.409 341.617C181.574 341.617 180.884 341.436 180.337 341.074C179.79 340.712 179.444 340.183 179.298 339.487L180.491 339.188C180.605 339.629 180.82 339.959 181.136 340.179C181.455 340.399 181.873 340.509 182.388 340.509C182.974 340.509 183.439 340.385 183.783 340.136C184.131 339.884 184.305 339.582 184.305 339.231C184.305 338.947 184.206 338.709 184.007 338.517C183.808 338.322 183.503 338.176 183.091 338.08L181.727 337.761C180.978 337.583 180.427 337.308 180.076 336.935C179.728 336.559 179.554 336.088 179.554 335.523C179.554 335.062 179.683 334.653 179.943 334.298C180.205 333.943 180.562 333.664 181.013 333.462C181.468 333.26 181.983 333.158 182.558 333.158C183.368 333.158 184.003 333.336 184.465 333.691C184.93 334.046 185.26 334.515 185.456 335.097ZM191.886 341.447V330.538H198.428V331.71H193.207V335.396H197.938V336.568H193.207V341.447H191.886ZM201.777 330.538V341.447H200.52V330.538H201.777ZM206.487 341.639C205.968 341.639 205.498 341.541 205.075 341.346C204.653 341.147 204.317 340.861 204.069 340.488C203.82 340.112 203.696 339.657 203.696 339.124C203.696 338.656 203.788 338.276 203.973 337.984C204.157 337.69 204.404 337.459 204.713 337.292C205.022 337.125 205.363 337.001 205.736 336.919C206.112 336.834 206.491 336.766 206.87 336.717C207.368 336.653 207.771 336.605 208.08 336.573C208.392 336.537 208.619 336.479 208.761 336.397C208.907 336.315 208.98 336.173 208.98 335.971V335.928C208.98 335.403 208.836 334.994 208.548 334.703C208.264 334.412 207.833 334.266 207.254 334.266C206.654 334.266 206.183 334.398 205.842 334.661C205.502 334.923 205.262 335.204 205.123 335.502L203.93 335.076C204.143 334.579 204.427 334.192 204.782 333.915C205.141 333.634 205.532 333.439 205.954 333.329C206.38 333.215 206.799 333.158 207.211 333.158C207.474 333.158 207.776 333.19 208.117 333.254C208.461 333.315 208.793 333.441 209.113 333.633C209.436 333.824 209.704 334.114 209.917 334.501C210.13 334.888 210.237 335.406 210.237 336.056V341.447H208.98V340.339H208.916C208.831 340.516 208.689 340.706 208.49 340.909C208.291 341.111 208.026 341.283 207.696 341.425C207.366 341.568 206.963 341.639 206.487 341.639ZM206.679 340.509C207.176 340.509 207.595 340.412 207.936 340.216C208.28 340.021 208.54 339.769 208.714 339.46C208.891 339.151 208.98 338.826 208.98 338.485V337.335C208.927 337.398 208.809 337.457 208.628 337.51C208.451 337.56 208.245 337.604 208.01 337.644C207.78 337.679 207.554 337.711 207.334 337.739C207.117 337.764 206.941 337.786 206.807 337.803C206.48 337.846 206.174 337.915 205.89 338.011C205.61 338.103 205.383 338.244 205.209 338.432C205.038 338.617 204.953 338.869 204.953 339.188C204.953 339.625 205.114 339.955 205.438 340.179C205.764 340.399 206.178 340.509 206.679 340.509ZM214.385 341.447L211.892 333.265H213.213L214.982 339.529H215.067L216.814 333.265H218.156L219.882 339.508H219.968L221.736 333.265H223.057L220.564 341.447H219.328L217.539 335.161H217.411L215.621 341.447H214.385ZM225.976 330.538V341.447H224.719V330.538H225.976ZM231.709 341.617C230.921 341.617 230.241 341.443 229.669 341.095C229.101 340.744 228.662 340.254 228.353 339.625C228.048 338.993 227.895 338.258 227.895 337.42C227.895 336.582 228.048 335.843 228.353 335.204C228.662 334.561 229.092 334.06 229.642 333.702C230.196 333.34 230.842 333.158 231.581 333.158C232.007 333.158 232.428 333.229 232.843 333.371C233.259 333.514 233.637 333.744 233.978 334.064C234.319 334.38 234.591 334.799 234.793 335.321C234.995 335.843 235.097 336.486 235.097 337.249V337.782H228.79V336.695H233.818C233.818 336.234 233.726 335.822 233.541 335.46C233.36 335.097 233.101 334.811 232.764 334.602C232.43 334.392 232.036 334.288 231.581 334.288C231.08 334.288 230.647 334.412 230.281 334.661C229.919 334.906 229.64 335.225 229.445 335.619C229.25 336.014 229.152 336.436 229.152 336.887V337.612C229.152 338.229 229.259 338.753 229.472 339.183C229.688 339.609 229.988 339.934 230.372 340.158C230.755 340.378 231.201 340.488 231.709 340.488C232.039 340.488 232.337 340.442 232.604 340.349C232.874 340.254 233.106 340.112 233.302 339.923C233.497 339.732 233.648 339.494 233.754 339.21L234.969 339.55C234.841 339.962 234.626 340.325 234.324 340.637C234.022 340.946 233.65 341.188 233.206 341.362C232.762 341.532 232.263 341.617 231.709 341.617ZM242.804 335.097L241.675 335.417C241.604 335.229 241.499 335.046 241.361 334.868C241.226 334.687 241.041 334.538 240.807 334.421C240.573 334.304 240.272 334.245 239.907 334.245C239.406 334.245 238.989 334.36 238.655 334.591C238.325 334.819 238.16 335.108 238.16 335.46C238.16 335.772 238.273 336.019 238.5 336.2C238.728 336.381 239.083 336.532 239.566 336.653L240.78 336.951C241.512 337.129 242.057 337.4 242.416 337.766C242.774 338.128 242.954 338.595 242.954 339.167C242.954 339.636 242.819 340.055 242.549 340.424C242.282 340.793 241.91 341.085 241.43 341.298C240.951 341.511 240.393 341.617 239.758 341.617C238.923 341.617 238.232 341.436 237.685 341.074C237.139 340.712 236.792 340.183 236.647 339.487L237.84 339.188C237.954 339.629 238.168 339.959 238.484 340.179C238.804 340.399 239.221 340.509 239.736 340.509C240.322 340.509 240.787 340.385 241.132 340.136C241.48 339.884 241.654 339.582 241.654 339.231C241.654 338.947 241.554 338.709 241.356 338.517C241.157 338.322 240.851 338.176 240.439 338.08L239.076 337.761C238.326 337.583 237.776 337.308 237.424 336.935C237.076 336.559 236.902 336.088 236.902 335.523C236.902 335.062 237.032 334.653 237.291 334.298C237.554 333.943 237.911 333.664 238.362 333.462C238.816 333.26 239.331 333.158 239.907 333.158C240.716 333.158 241.352 333.336 241.814 333.691C242.279 334.046 242.609 334.515 242.804 335.097ZM250.641 335.097L249.512 335.417C249.441 335.229 249.336 335.046 249.198 334.868C249.063 334.687 248.878 334.538 248.644 334.421C248.409 334.304 248.109 334.245 247.744 334.245C247.243 334.245 246.826 334.36 246.492 334.591C246.162 334.819 245.996 335.108 245.996 335.46C245.996 335.772 246.11 336.019 246.337 336.2C246.565 336.381 246.92 336.532 247.403 336.653L248.617 336.951C249.349 337.129 249.894 337.4 250.252 337.766C250.611 338.128 250.79 338.595 250.79 339.167C250.79 339.636 250.656 340.055 250.386 340.424C250.119 340.793 249.746 341.085 249.267 341.298C248.788 341.511 248.23 341.617 247.594 341.617C246.76 341.617 246.069 341.436 245.522 341.074C244.975 340.712 244.629 340.183 244.484 339.487L245.677 339.188C245.79 339.629 246.005 339.959 246.321 340.179C246.641 340.399 247.058 340.509 247.573 340.509C248.159 340.509 248.624 340.385 248.969 340.136C249.317 339.884 249.491 339.582 249.491 339.231C249.491 338.947 249.391 338.709 249.192 338.517C248.994 338.322 248.688 338.176 248.276 338.08L246.913 337.761C246.163 337.583 245.613 337.308 245.261 336.935C244.913 336.559 244.739 336.088 244.739 335.523C244.739 335.062 244.869 334.653 245.128 334.298C245.391 333.943 245.748 333.664 246.199 333.462C246.653 333.26 247.168 333.158 247.744 333.158C248.553 333.158 249.189 333.336 249.651 333.691C250.116 334.046 250.446 334.515 250.641 335.097ZM253.94 330.538V341.447H252.683V330.538H253.94ZM257.052 344.515C256.839 344.515 256.649 344.497 256.482 344.462C256.315 344.43 256.2 344.398 256.136 344.366L256.455 343.258C256.761 343.336 257.031 343.364 257.265 343.343C257.499 343.322 257.707 343.217 257.888 343.029C258.073 342.844 258.242 342.544 258.394 342.129L258.629 341.489L255.603 333.265H256.967L259.225 339.785H259.311L261.569 333.265H262.933L259.46 342.64C259.303 343.063 259.11 343.412 258.879 343.689C258.648 343.97 258.38 344.178 258.075 344.313C257.773 344.447 257.432 344.515 257.052 344.515Z" fill="white"/>
<path d="M132.376 127.778H127.852L128.996 121.33H133.52L134.092 118.002H129.62L130.764 111.554H135.236L136.952 101.778H143.868L142.152 111.554H146.364L148.08 101.778H154.996L153.28 111.554H157.804L156.66 118.002H152.136L151.564 121.33H156.036L154.892 127.778H150.42L148.704 137.554H141.788L143.504 127.778H139.292L137.576 137.554H130.66L132.376 127.778ZM144.648 121.33L145.22 118.002H141.008L140.436 121.33H144.648ZM176.355 137.97C173.235 137.97 170.427 137.208 167.931 135.682C165.469 134.122 163.528 131.99 162.107 129.286C160.72 126.548 160.027 123.445 160.027 119.978C160.027 116.546 160.72 113.478 162.107 110.774C163.528 108.036 165.469 105.904 167.931 104.378C170.427 102.818 173.235 102.038 176.355 102.038C179.44 102.038 182.213 102.818 184.675 104.378C187.171 105.904 189.112 108.036 190.499 110.774C191.92 113.513 192.631 116.581 192.631 119.978C192.631 123.41 191.937 126.496 190.551 129.234C189.164 131.973 187.223 134.122 184.727 135.682C182.265 137.208 179.475 137.97 176.355 137.97ZM176.355 129.338C177.395 129.338 178.331 128.94 179.163 128.142C180.029 127.31 180.705 126.184 181.191 124.762C181.676 123.341 181.919 121.746 181.919 119.978C181.919 117.24 181.399 115.004 180.359 113.27C179.319 111.537 177.984 110.67 176.355 110.67C174.656 110.67 173.287 111.537 172.247 113.27C171.241 114.969 170.739 117.205 170.739 119.978C170.739 122.717 171.259 124.97 172.299 126.738C173.373 128.472 174.725 129.338 176.355 129.338ZM195.301 130.222C199.392 126.548 202.477 123.428 204.557 120.862C206.637 118.297 207.677 116.165 207.677 114.466C207.677 113.357 207.331 112.508 206.637 111.918C205.979 111.329 205.077 111.034 203.933 111.034C201.784 111.034 199.548 111.71 197.225 113.062L194.677 105.314C196.584 104.344 198.456 103.616 200.293 103.13C202.165 102.645 204.124 102.402 206.169 102.402C208.596 102.402 210.711 102.888 212.513 103.858C214.351 104.794 215.755 106.094 216.725 107.758C217.696 109.388 218.181 111.26 218.181 113.374C218.181 116.529 217.124 119.476 215.009 122.214C212.895 124.918 209.705 127.501 205.441 129.962H217.973V137.554H195.301V130.222Z" fill="white"/>
<path d="M142.463 193.249H144.479V185.257L142.463 185.401V182.281C143.167 182.281 143.927 182.153 144.743 181.897C145.559 181.625 146.351 181.233 147.119 180.721H149.639V193.249H151.655V196.777H142.463V193.249ZM159.896 196.969C158.456 196.969 157.16 196.617 156.008 195.913C154.872 195.193 153.976 194.209 153.32 192.961C152.68 191.697 152.36 190.265 152.36 188.665C152.36 187.081 152.68 185.665 153.32 184.417C153.976 183.153 154.872 182.169 156.008 181.465C157.16 180.745 158.456 180.385 159.896 180.385C161.32 180.385 162.6 180.745 163.736 181.465C164.888 182.169 165.784 183.153 166.424 184.417C167.08 185.681 167.408 187.097 167.408 188.665C167.408 190.249 167.088 191.673 166.448 192.937C165.808 194.201 164.912 195.193 163.76 195.913C162.624 196.617 161.336 196.969 159.896 196.969ZM159.896 192.985C160.376 192.985 160.808 192.801 161.192 192.433C161.592 192.049 161.904 191.529 162.128 190.873C162.352 190.217 162.464 189.481 162.464 188.665C162.464 187.401 162.224 186.369 161.744 185.569C161.264 184.769 160.648 184.369 159.896 184.369C159.112 184.369 158.48 184.769 158 185.569C157.536 186.353 157.304 187.385 157.304 188.665C157.304 189.929 157.544 190.969 158.024 191.785C158.52 192.585 159.144 192.985 159.896 192.985ZM176.057 196.969C174.617 196.969 173.321 196.617 172.169 195.913C171.033 195.193 170.137 194.209 169.481 192.961C168.841 191.697 168.521 190.265 168.521 188.665C168.521 187.081 168.841 185.665 169.481 184.417C170.137 183.153 171.033 182.169 172.169 181.465C173.321 180.745 174.617 180.385 176.057 180.385C177.481 180.385 178.761 180.745 179.897 181.465C181.049 182.169 181.945 183.153 182.585 184.417C183.241 185.681 183.569 187.097 183.569 188.665C183.569 190.249 183.249 191.673 182.609 192.937C181.969 194.201 181.073 195.193 179.921 195.913C178.785 196.617 177.497 196.969 176.057 196.969ZM176.057 192.985C176.537 192.985 176.969 192.801 177.353 192.433C177.753 192.049 178.065 191.529 178.289 190.873C178.513 190.217 178.625 189.481 178.625 188.665C178.625 187.401 178.385 186.369 177.905 185.569C177.425 184.769 176.809 184.369 176.057 184.369C175.273 184.369 174.641 184.769 174.161 185.569C173.697 186.353 173.465 187.385 173.465 188.665C173.465 189.929 173.705 190.969 174.185 191.785C174.681 192.585 175.305 192.985 176.057 192.985ZM188.809 189.385C187.913 189.385 187.137 189.177 186.481 188.761C185.825 188.329 185.321 187.761 184.969 187.057C184.633 186.337 184.465 185.553 184.465 184.705C184.465 183.793 184.649 182.985 185.017 182.281C185.401 181.561 185.929 181.009 186.601 180.625C187.273 180.225 188.033 180.025 188.881 180.025C189.793 180.025 190.569 180.249 191.209 180.697C191.865 181.145 192.361 181.729 192.697 182.449C193.033 183.169 193.201 183.921 193.201 184.705C193.201 185.617 193.017 186.433 192.649 187.153C192.281 187.857 191.761 188.409 191.089 188.809C190.417 189.193 189.657 189.385 188.809 189.385ZM198.697 180.265H202.057L190.297 196.777H186.937L198.697 180.265ZM188.809 187.033C189.289 187.033 189.641 186.801 189.865 186.337C190.105 185.857 190.225 185.313 190.225 184.705C190.225 184.081 190.097 183.545 189.841 183.097C189.585 182.649 189.241 182.425 188.809 182.425C188.345 182.425 188.001 182.649 187.777 183.097C187.553 183.545 187.441 184.081 187.441 184.705C187.441 185.345 187.561 185.897 187.801 186.361C188.057 186.809 188.393 187.033 188.809 187.033ZM200.185 197.017C199.289 197.017 198.513 196.817 197.857 196.417C197.201 196.001 196.697 195.441 196.345 194.737C195.993 194.017 195.817 193.209 195.817 192.313C195.817 191.417 196.001 190.617 196.369 189.913C196.753 189.193 197.273 188.633 197.929 188.233C198.601 187.817 199.353 187.609 200.185 187.609C201.049 187.609 201.809 187.841 202.465 188.305C203.137 188.753 203.649 189.353 204.001 190.105C204.353 190.841 204.529 191.625 204.529 192.457C204.529 193.353 204.345 194.153 203.977 194.857C203.609 195.545 203.097 196.081 202.441 196.465C201.785 196.833 201.033 197.017 200.185 197.017ZM200.185 194.617C200.633 194.617 200.969 194.385 201.193 193.921C201.433 193.441 201.553 192.905 201.553 192.313C201.553 191.689 201.425 191.161 201.169 190.729C200.929 190.281 200.601 190.057 200.185 190.057C199.737 190.057 199.393 190.281 199.153 190.729C198.913 191.161 198.793 191.689 198.793 192.313C198.793 192.953 198.913 193.497 199.153 193.945C199.409 194.393 199.753 194.617 200.185 194.617ZM108.269 226.161C106.013 226.161 104.109 225.745 102.557 224.913L103.757 221.193C105.405 221.785 106.877 222.081 108.173 222.081C108.877 222.081 109.389 222.001 109.709 221.841C110.045 221.665 110.213 221.409 110.213 221.073C110.213 220.849 110.125 220.657 109.949 220.497C109.773 220.321 109.421 220.129 108.893 219.921C108.365 219.713 107.573 219.457 106.517 219.153C105.221 218.769 104.213 218.145 103.493 217.281C102.773 216.401 102.413 215.393 102.413 214.257C102.413 212.497 102.989 211.169 104.141 210.273C105.309 209.361 106.877 208.905 108.845 208.905C109.869 208.905 110.877 209.017 111.869 209.241C112.861 209.449 113.741 209.761 114.509 210.177L113.213 213.801C112.317 213.497 111.533 213.281 110.861 213.153C110.205 213.009 109.565 212.937 108.941 212.937C107.885 212.937 107.357 213.225 107.357 213.801C107.357 214.089 107.525 214.337 107.861 214.545C108.213 214.737 108.925 214.985 109.997 215.289C111.677 215.737 112.949 216.425 113.813 217.353C114.677 218.265 115.109 219.361 115.109 220.641C115.109 222.417 114.533 223.785 113.381 224.745C112.229 225.689 110.525 226.161 108.269 226.161ZM122.904 225.969C121.64 225.969 120.512 225.745 119.52 225.297C118.544 224.849 117.784 224.217 117.24 223.401C116.696 222.585 116.424 221.657 116.424 220.617V213.753H121.368V220.545C121.368 221.073 121.512 221.489 121.8 221.793C122.104 222.081 122.48 222.225 122.928 222.225C123.36 222.225 123.712 222.081 123.984 221.793C124.272 221.489 124.416 221.073 124.416 220.545V213.753H129.264V220.617C129.264 221.673 128.992 222.609 128.448 223.425C127.92 224.225 127.176 224.849 126.216 225.297C125.256 225.745 124.152 225.969 122.904 225.969ZM137.038 225.969C135.758 225.969 134.622 225.713 133.63 225.201C132.654 224.673 131.886 223.937 131.326 222.993C130.782 222.049 130.51 220.977 130.51 219.777C130.51 218.625 130.798 217.577 131.374 216.633C131.95 215.689 132.734 214.945 133.726 214.401C134.718 213.857 135.822 213.585 137.038 213.585C138.59 213.585 139.814 213.905 140.71 214.545L140.254 217.737C139.342 217.465 138.59 217.329 137.998 217.329C137.23 217.329 136.622 217.553 136.174 218.001C135.726 218.433 135.502 219.025 135.502 219.777C135.502 220.529 135.726 221.129 136.174 221.577C136.622 222.025 137.214 222.249 137.95 222.249C138.59 222.249 139.342 222.113 140.206 221.841L140.662 225.201C140.118 225.473 139.566 225.665 139.006 225.777C138.446 225.905 137.79 225.969 137.038 225.969ZM147.738 225.969C146.458 225.969 145.322 225.713 144.33 225.201C143.354 224.673 142.586 223.937 142.026 222.993C141.482 222.049 141.21 220.977 141.21 219.777C141.21 218.625 141.498 217.577 142.074 216.633C142.65 215.689 143.434 214.945 144.426 214.401C145.418 213.857 146.522 213.585 147.738 213.585C149.29 213.585 150.514 213.905 151.41 214.545L150.954 217.737C150.042 217.465 149.29 217.329 148.698 217.329C147.93 217.329 147.322 217.553 146.874 218.001C146.426 218.433 146.202 219.025 146.202 219.777C146.202 220.529 146.426 221.129 146.874 221.577C147.322 222.025 147.914 222.249 148.65 222.249C149.29 222.249 150.042 222.113 150.906 221.841L151.362 225.201C150.818 225.473 150.266 225.665 149.706 225.777C149.146 225.905 148.49 225.969 147.738 225.969ZM158.726 225.969C157.398 225.969 156.214 225.705 155.174 225.177C154.15 224.633 153.35 223.897 152.774 222.969C152.198 222.025 151.91 220.961 151.91 219.777C151.91 218.561 152.206 217.481 152.798 216.537C153.39 215.593 154.19 214.865 155.198 214.353C156.206 213.841 157.326 213.585 158.558 213.585C159.742 213.585 160.75 213.849 161.582 214.377C162.43 214.889 163.062 215.593 163.478 216.489C163.894 217.369 164.102 218.361 164.102 219.465C164.102 219.753 164.086 219.961 164.054 220.089L156.854 221.025C157.046 221.585 157.358 221.993 157.79 222.249C158.222 222.489 158.79 222.609 159.494 222.609C160.582 222.609 161.758 222.329 163.022 221.769L163.622 224.985C162.134 225.641 160.502 225.969 158.726 225.969ZM160.382 218.001C160.126 216.993 159.518 216.489 158.558 216.489C157.982 216.489 157.526 216.705 157.19 217.137C156.854 217.569 156.678 218.129 156.662 218.817L160.382 218.001ZM169.518 225.969C167.838 225.969 166.366 225.721 165.102 225.225L165.654 222.369C166.806 222.785 167.926 222.993 169.014 222.993C169.814 222.993 170.214 222.769 170.214 222.321C170.214 222.097 170.094 221.913 169.854 221.769C169.63 221.625 169.198 221.497 168.558 221.385C167.23 221.129 166.27 220.697 165.678 220.089C165.102 219.481 164.814 218.617 164.814 217.497C164.878 216.233 165.382 215.265 166.326 214.593C167.27 213.921 168.558 213.585 170.19 213.585C171.022 213.585 171.734 213.641 172.326 213.753C172.934 213.849 173.486 214.017 173.982 214.257L173.478 217.113C173.014 216.937 172.502 216.801 171.942 216.705C171.398 216.609 170.942 216.561 170.574 216.561C170.03 216.561 169.654 216.617 169.446 216.729C169.238 216.841 169.134 216.993 169.134 217.185C169.134 217.537 169.534 217.785 170.334 217.929C171.79 218.185 172.878 218.633 173.598 219.273C174.318 219.913 174.678 220.785 174.678 221.889C174.678 223.153 174.23 224.153 173.334 224.889C172.454 225.609 171.182 225.969 169.518 225.969ZM180.124 225.969C178.444 225.969 176.972 225.721 175.708 225.225L176.26 222.369C177.412 222.785 178.532 222.993 179.62 222.993C180.42 222.993 180.82 222.769 180.82 222.321C180.82 222.097 180.7 221.913 180.46 221.769C180.236 221.625 179.804 221.497 179.164 221.385C177.836 221.129 176.876 220.697 176.284 220.089C175.708 219.481 175.42 218.617 175.42 217.497C175.484 216.233 175.988 215.265 176.932 214.593C177.876 213.921 179.164 213.585 180.796 213.585C181.628 213.585 182.34 213.641 182.932 213.753C183.54 213.849 184.092 214.017 184.588 214.257L184.084 217.113C183.62 216.937 183.108 216.801 182.548 216.705C182.004 216.609 181.548 216.561 181.18 216.561C180.636 216.561 180.26 216.617 180.052 216.729C179.844 216.841 179.74 216.993 179.74 217.185C179.74 217.537 180.14 217.785 180.94 217.929C182.396 218.185 183.484 218.633 184.204 219.273C184.924 219.913 185.284 220.785 185.284 221.889C185.284 223.153 184.836 224.153 183.94 224.889C183.06 225.609 181.788 225.969 180.124 225.969ZM203.438 226.161C200.43 226.161 198.59 224.769 197.918 221.985L197.318 219.513H196.19V225.777H190.934V209.265H198.206C199.582 209.265 200.79 209.473 201.83 209.889C202.886 210.289 203.702 210.857 204.278 211.593C204.854 212.329 205.142 213.177 205.142 214.137C205.142 215.209 204.878 216.113 204.35 216.849C203.838 217.569 203.038 218.161 201.95 218.625C202.062 219.233 202.19 219.785 202.334 220.281C202.526 220.889 202.79 221.313 203.126 221.553C203.462 221.793 203.95 221.913 204.59 221.913C204.814 221.913 205.166 221.881 205.646 221.817V225.729C204.894 226.017 204.158 226.161 203.438 226.161ZM197.102 216.153C198.286 216.153 199.118 216.025 199.598 215.769C200.094 215.497 200.342 215.041 200.342 214.401C200.342 213.857 200.142 213.465 199.742 213.225C199.342 212.969 198.71 212.841 197.846 212.841H196.19V216.153H197.102ZM212.156 225.969C211.116 225.969 210.14 225.697 209.228 225.153C208.332 224.593 207.612 223.841 207.068 222.897C206.524 221.937 206.252 220.873 206.252 219.705C206.252 218.553 206.524 217.513 207.068 216.585C207.612 215.641 208.34 214.905 209.252 214.377C210.164 213.849 211.132 213.585 212.156 213.585C212.988 213.585 213.756 213.817 214.46 214.281C215.18 214.745 215.724 215.441 216.092 216.369V213.585H221.132V225.777H216.092V223.545C215.292 225.161 213.98 225.969 212.156 225.969ZM213.716 222.177C214.356 222.177 214.9 221.953 215.348 221.505C215.812 221.041 216.06 220.497 216.092 219.873V219.681C216.06 219.041 215.804 218.497 215.324 218.049C214.86 217.601 214.324 217.377 213.716 217.377C213.044 217.377 212.468 217.617 211.988 218.097C211.524 218.561 211.292 219.121 211.292 219.777C211.292 220.449 211.532 221.017 212.012 221.481C212.492 221.945 213.06 222.177 213.716 222.177ZM228.339 225.969C226.931 225.969 225.835 225.569 225.051 224.769C224.267 223.953 223.875 222.833 223.875 221.409V216.729H222.339V213.753H224.235L226.467 209.217H228.891V213.753H231.675V216.729H228.891V220.809C228.891 221.209 229.019 221.521 229.275 221.745C229.531 221.969 229.891 222.081 230.355 222.081C230.787 222.081 231.179 221.985 231.531 221.793L231.723 225.153C231.323 225.393 230.803 225.593 230.163 225.753C229.539 225.897 228.931 225.969 228.339 225.969ZM239.014 225.969C237.686 225.969 236.502 225.705 235.462 225.177C234.438 224.633 233.638 223.897 233.062 222.969C232.486 222.025 232.198 220.961 232.198 219.777C232.198 218.561 232.494 217.481 233.086 216.537C233.678 215.593 234.478 214.865 235.486 214.353C236.494 213.841 237.614 213.585 238.846 213.585C240.03 213.585 241.038 213.849 241.87 214.377C242.718 214.889 243.35 215.593 243.766 216.489C244.182 217.369 244.39 218.361 244.39 219.465C244.39 219.753 244.374 219.961 244.342 220.089L237.142 221.025C237.334 221.585 237.646 221.993 238.078 222.249C238.51 222.489 239.078 222.609 239.782 222.609C240.87 222.609 242.046 222.329 243.31 221.769L243.91 224.985C242.422 225.641 240.79 225.969 239.014 225.969ZM240.67 218.001C240.414 216.993 239.806 216.489 238.846 216.489C238.27 216.489 237.814 216.705 237.478 217.137C237.142 217.569 236.966 218.129 236.95 218.817L240.67 218.001Z" fill="white"/>
<defs>
<filter id="filter0_d_29_232" x="0.400002" y="0.400002" width="346.727" height="447.606" filterUnits="userSpaceOnUse" color-interpolation-filters="sRGB">
<feFlood flood-opacity="0" result="BackgroundImageFix"/>
<feColorMatrix in="SourceAlpha" type="matrix" values="0 0 0 0 0 0 0 0 0 0 0 0 0 0 0 0 0 0 127 0" result="hardAlpha"/>
<feOffset dy="4"/>
<feGaussianBlur stdDeviation="19.8"/>
<feComposite in2="hardAlpha" operator="out"/>
<feColorMatrix type="matrix" values="0 0 0 0 0 0 0 0 0 0 0 0 0 0 0 0 0 0 0.33 0"/>
<feBlend mode="normal" in2="BackgroundImageFix" result="effect1_dropShadow_29_232"/>
<feBlend mode="normal" in="SourceGraphic" in2="effect1_dropShadow_29_232" result="shape"/>
</filter>
</defs>
</svg>
