<svg width="2708" height="157" viewBox="0 0 2708 157" fill="none" xmlns="http://www.w3.org/2000/svg">
<path d="M6.95215 30.0659H46.8809V46.9849H37.0371V106.478H57.3398C57.873 106.478 58.3857 106.334 58.8779 106.047C59.4111 105.719 59.8623 105.309 60.2314 104.817C60.6416 104.325 60.9697 103.792 61.2158 103.217C61.4619 102.643 61.585 102.089 61.585 101.556V89.0669H81.5186V123.335H6.95215V106.478H16.6113V46.9849H6.95215V30.0659ZM87.2402 91.2202C87.2402 86.5854 88.0811 82.2378 89.7627 78.1772C91.4443 74.1167 93.7822 70.5688 96.7764 67.5337C99.7705 64.4985 103.339 62.0991 107.481 60.3354C111.624 58.5718 116.177 57.6899 121.14 57.6899C126.103 57.6899 130.655 58.5718 134.798 60.3354C138.981 62.0991 142.57 64.4985 145.564 67.5337C148.559 70.5688 150.876 74.1167 152.517 78.1772C154.198 82.2378 155.039 86.5854 155.039 91.2202C155.039 95.855 154.219 100.223 152.578 104.325C150.979 108.385 148.682 111.954 145.688 115.03C142.734 118.065 139.166 120.464 134.982 122.228C130.84 123.992 126.226 124.874 121.14 124.874C116.013 124.874 111.357 123.992 107.174 122.228C103.031 120.464 99.4834 118.065 96.5303 115.03C93.5771 111.995 91.2803 108.447 89.6396 104.386C88.04 100.285 87.2402 95.896 87.2402 91.2202ZM105.636 91.2202C105.636 93.6401 106.046 95.8755 106.866 97.9263C107.687 99.936 108.794 101.679 110.188 103.156C111.624 104.632 113.265 105.781 115.11 106.601C116.997 107.421 119.007 107.832 121.14 107.832C123.313 107.832 125.323 107.442 127.169 106.663C129.056 105.842 130.676 104.694 132.029 103.217C133.424 101.741 134.511 99.9976 135.29 97.9878C136.069 95.937 136.459 93.6812 136.459 91.2202C136.459 88.6772 136.069 86.3804 135.29 84.3296C134.511 82.2788 133.424 80.5356 132.029 79.1001C130.676 77.6646 129.056 76.5776 127.169 75.8394C125.323 75.0601 123.313 74.6909 121.14 74.7319C119.007 74.6909 116.997 75.0601 115.11 75.8394C113.265 76.5776 111.624 77.6646 110.188 79.1001C108.794 80.5356 107.687 82.2788 106.866 84.3296C106.046 86.3804 105.636 88.6772 105.636 91.2202ZM211.702 120.013C209.405 121.326 207.108 122.269 204.812 122.843C202.515 123.417 200.177 123.705 197.798 123.705C192.876 123.705 188.344 122.864 184.201 121.182C180.059 119.5 176.47 117.183 173.435 114.23C170.44 111.236 168.103 107.708 166.421 103.648C164.739 99.5874 163.898 95.1782 163.898 90.4204C163.898 85.9497 164.698 81.7456 166.298 77.8081C167.938 73.8296 170.215 70.3638 173.127 67.4106C176.039 64.4165 179.525 62.0581 183.586 60.3354C187.646 58.6128 192.056 57.731 196.813 57.6899C199.726 57.731 202.392 58.0386 204.812 58.6128C207.272 59.187 209.569 59.9663 211.702 60.9507V59.5972H230.344V120.69C230.344 126.063 229.421 130.698 227.575 134.594C225.729 138.532 223.248 141.772 220.131 144.315C217.055 146.899 213.466 148.806 209.364 150.037C205.263 151.308 200.956 151.944 196.444 151.944C190.866 151.944 185.698 151.185 180.94 149.667C176.224 148.15 172.02 146.099 168.328 143.515L176.019 129.857C178.849 131.662 181.925 133.077 185.247 134.102C188.569 135.168 192.261 135.702 196.321 135.702C198.536 135.702 200.566 135.456 202.412 134.963C204.299 134.471 205.919 133.63 207.272 132.441C208.667 131.292 209.754 129.734 210.533 127.765C211.312 125.796 211.702 123.315 211.702 120.321V120.013ZM198.413 106.663C201.284 106.663 203.868 105.945 206.165 104.509C208.503 103.033 210.349 101.105 211.702 98.7261L211.825 83.2222C210.431 80.6382 208.523 78.5874 206.104 77.0698C203.684 75.5522 201.059 74.7729 198.229 74.7319C196.219 74.7729 194.25 75.1831 192.322 75.9624C190.395 76.7007 188.713 77.7671 187.277 79.1616C185.883 80.5562 184.775 82.2173 183.955 84.145C183.135 86.0317 182.725 88.144 182.725 90.4819C182.725 92.9429 183.135 95.1782 183.955 97.188C184.775 99.1978 185.883 100.9 187.277 102.294C188.672 103.689 190.312 104.776 192.199 105.555C194.127 106.293 196.198 106.663 198.413 106.663ZM244.125 59.5972H272.733V106.478H281.593V123.335H244.125V106.478H253.723V76.4546H244.125V59.5972ZM252.738 39.0483C252.738 37.5308 253.005 36.1157 253.538 34.8032C254.112 33.4497 254.892 32.2808 255.876 31.2964C256.86 30.312 258.009 29.5327 259.321 28.9585C260.675 28.3843 262.131 28.0972 263.689 28.0972C265.166 28.0972 266.561 28.3843 267.873 28.9585C269.186 29.5327 270.334 30.312 271.318 31.2964C272.303 32.2808 273.082 33.4497 273.656 34.8032C274.23 36.1157 274.518 37.5308 274.518 39.0483C274.518 40.5659 274.23 42.0015 273.656 43.355C273.082 44.6675 272.303 45.8159 271.318 46.8003C270.334 47.7847 269.186 48.564 267.873 49.1382C266.561 49.7124 265.166 49.9995 263.689 49.9995C262.131 49.9995 260.675 49.7124 259.321 49.1382C258.009 48.564 256.86 47.7847 255.876 46.8003C254.892 45.8159 254.112 44.6675 253.538 43.355C253.005 42.0015 252.738 40.5659 252.738 39.0483ZM333.396 79.1001C333.396 78.1157 333.067 77.1724 332.411 76.27C331.796 75.3677 330.873 74.5884 329.643 73.9321C328.412 73.2349 326.895 72.6812 325.09 72.271C323.326 71.8608 321.316 71.6558 319.061 71.6558C318.199 71.6558 317.276 71.7378 316.292 71.9019C315.308 72.0249 314.385 72.271 313.523 72.6401C312.703 73.0093 312.006 73.522 311.432 74.1782C310.898 74.7935 310.632 75.5933 310.632 76.5776C310.632 77.0698 310.693 77.5415 310.816 77.9927C310.98 78.4438 311.268 78.8745 311.678 79.2847C312.088 79.6948 312.642 80.0845 313.339 80.4536C314.077 80.7817 315.021 81.0483 316.169 81.2534L327.735 83.5298C331.919 84.3501 335.426 85.3755 338.256 86.606C341.086 87.8364 343.362 89.272 345.085 90.9126C346.808 92.5532 348.038 94.3784 348.776 96.3882C349.556 98.3979 349.945 100.572 349.945 102.91C349.945 106.56 349.084 109.759 347.361 112.507C345.68 115.255 343.444 117.552 340.655 119.398C337.907 121.203 334.79 122.556 331.304 123.458C327.858 124.402 324.372 124.874 320.845 124.874C318.548 124.874 316.456 124.73 314.569 124.443C312.724 124.156 311.042 123.766 309.524 123.274C308.048 122.782 306.715 122.208 305.525 121.551C304.377 120.854 303.311 120.095 302.326 119.275H291.19V102.171H308.602V102.541C308.643 103.73 309.012 104.776 309.709 105.678C310.406 106.54 311.309 107.278 312.416 107.893C313.564 108.508 314.856 108.98 316.292 109.308C317.728 109.595 319.245 109.739 320.845 109.739C324.536 109.739 327.223 109.267 328.904 108.324C330.586 107.339 331.427 106.088 331.427 104.571C331.427 103.381 331.017 102.376 330.196 101.556C329.376 100.695 327.92 100.018 325.828 99.5259L314.016 97.0034C306.592 95.5679 300.993 93.189 297.22 89.8667C293.446 86.5034 291.56 82.1968 291.56 76.9468C291.56 73.8706 292.277 71.0815 293.713 68.5796C295.148 66.0366 297.097 63.8833 299.558 62.1196C302.019 60.3149 304.89 58.9204 308.171 57.936C311.493 56.9517 315.041 56.4595 318.814 56.4595C321.398 56.4595 323.695 56.6235 325.705 56.9517C327.715 57.2388 329.52 57.6284 331.119 58.1206C332.719 58.6128 334.113 59.2075 335.303 59.9048C336.533 60.561 337.62 61.2583 338.563 61.9966H349.269V79.1001H333.396ZM384.583 59.5972H397.318V75.7163H384.46L384.337 102.664C384.337 104.222 384.46 105.494 384.706 106.478C384.952 107.421 385.301 108.18 385.752 108.754C386.244 109.329 386.818 109.718 387.475 109.923C388.131 110.128 388.89 110.231 389.751 110.231C391.31 110.231 392.684 110.087 393.873 109.8C395.062 109.472 396.252 109.103 397.441 108.693L400.087 120.567C397.995 121.879 395.657 122.925 393.073 123.705C390.53 124.484 387.495 124.874 383.968 124.874C381.466 124.874 379.066 124.443 376.77 123.582C374.514 122.72 372.524 121.428 370.802 119.706C369.079 117.942 367.705 115.748 366.68 113.123C365.654 110.498 365.162 107.442 365.203 103.956L365.388 75.7163H356.221V59.5972H365.449L365.572 44.3394L384.706 35.2339L384.583 59.5972ZM409.746 59.5972H438.354V106.478H447.214V123.335H409.746V106.478H419.344V76.4546H409.746V59.5972ZM418.359 39.0483C418.359 37.5308 418.626 36.1157 419.159 34.8032C419.733 33.4497 420.513 32.2808 421.497 31.2964C422.481 30.312 423.63 29.5327 424.942 28.9585C426.296 28.3843 427.752 28.0972 429.311 28.0972C430.787 28.0972 432.182 28.3843 433.494 28.9585C434.807 29.5327 435.955 30.312 436.939 31.2964C437.924 32.2808 438.703 33.4497 439.277 34.8032C439.852 36.1157 440.139 37.5308 440.139 39.0483C440.139 40.5659 439.852 42.0015 439.277 43.355C438.703 44.6675 437.924 45.8159 436.939 46.8003C435.955 47.7847 434.807 48.564 433.494 49.1382C432.182 49.7124 430.787 49.9995 429.311 49.9995C427.752 49.9995 426.296 49.7124 424.942 49.1382C423.63 48.564 422.481 47.7847 421.497 46.8003C420.513 45.8159 419.733 44.6675 419.159 43.355C418.626 42.0015 418.359 40.5659 418.359 39.0483ZM506.092 81.6226C504.328 79.4077 502.359 77.7466 500.186 76.6392C498.012 75.4907 495.448 74.9985 492.495 75.1626C490.116 74.9985 487.942 75.3267 485.974 76.147C484.046 76.9673 482.364 78.1157 480.929 79.5923C479.534 81.0688 478.447 82.8325 477.668 84.8833C476.889 86.8931 476.499 89.1694 476.499 91.7124C476.499 93.9683 476.909 96.1011 477.729 98.1108C478.55 100.121 479.657 101.864 481.052 103.34C482.487 104.776 484.169 105.904 486.097 106.724C488.065 107.544 490.198 108.037 492.495 108.201C494.423 108.037 496.166 107.647 497.725 107.032C499.324 106.375 500.739 105.555 501.97 104.571C503.2 103.545 504.246 102.417 505.107 101.187C506.01 99.9155 506.707 98.7261 507.199 97.6187L524.118 102.294C523.421 104.755 522.211 107.319 520.488 109.985C518.807 112.651 516.592 115.091 513.844 117.306C511.137 119.48 507.896 121.285 504.123 122.72C500.391 124.156 496.125 124.874 491.326 124.874C486.445 124.874 481.954 123.992 477.853 122.228C473.751 120.423 470.224 117.983 467.271 114.907C464.317 111.831 462 108.221 460.318 104.079C458.678 99.936 457.857 95.4858 457.857 90.728C457.857 86.0112 458.698 81.6431 460.38 77.6235C462.103 73.563 464.461 70.0356 467.455 67.0415C470.449 64.0063 473.997 61.6479 478.099 59.9663C482.241 58.2847 486.732 57.5259 491.572 57.6899C495.018 57.5259 498.36 57.9155 501.601 58.8589C504.841 59.8022 507.917 61.2173 510.829 63.104H523.072V81.6226H506.092ZM571.614 79.1001C571.614 78.1157 571.286 77.1724 570.63 76.27C570.015 75.3677 569.092 74.5884 567.861 73.9321C566.631 73.2349 565.113 72.6812 563.309 72.271C561.545 71.8608 559.535 71.6558 557.279 71.6558C556.418 71.6558 555.495 71.7378 554.511 71.9019C553.526 72.0249 552.604 72.271 551.742 72.6401C550.922 73.0093 550.225 73.522 549.65 74.1782C549.117 74.7935 548.851 75.5933 548.851 76.5776C548.851 77.0698 548.912 77.5415 549.035 77.9927C549.199 78.4438 549.486 78.8745 549.896 79.2847C550.307 79.6948 550.86 80.0845 551.558 80.4536C552.296 80.7817 553.239 81.0483 554.388 81.2534L565.954 83.5298C570.138 84.3501 573.645 85.3755 576.475 86.606C579.305 87.8364 581.581 89.272 583.304 90.9126C585.026 92.5532 586.257 94.3784 586.995 96.3882C587.774 98.3979 588.164 100.572 588.164 102.91C588.164 106.56 587.303 109.759 585.58 112.507C583.898 115.255 581.663 117.552 578.874 119.398C576.126 121.203 573.009 122.556 569.522 123.458C566.077 124.402 562.591 124.874 559.063 124.874C556.767 124.874 554.675 124.73 552.788 124.443C550.942 124.156 549.261 123.766 547.743 123.274C546.267 122.782 544.934 122.208 543.744 121.551C542.596 120.854 541.529 120.095 540.545 119.275H529.409V102.171H546.82V102.541C546.861 103.73 547.23 104.776 547.928 105.678C548.625 106.54 549.527 107.278 550.635 107.893C551.783 108.508 553.075 108.98 554.511 109.308C555.946 109.595 557.464 109.739 559.063 109.739C562.755 109.739 565.441 109.267 567.123 108.324C568.805 107.339 569.646 106.088 569.646 104.571C569.646 103.381 569.235 102.376 568.415 101.556C567.595 100.695 566.139 100.018 564.047 99.5259L552.234 97.0034C544.811 95.5679 539.212 93.189 535.438 89.8667C531.665 86.5034 529.778 82.1968 529.778 76.9468C529.778 73.8706 530.496 71.0815 531.932 68.5796C533.367 66.0366 535.315 63.8833 537.776 62.1196C540.237 60.3149 543.108 58.9204 546.39 57.936C549.712 56.9517 553.26 56.4595 557.033 56.4595C559.617 56.4595 561.914 56.6235 563.924 56.9517C565.934 57.2388 567.738 57.6284 569.338 58.1206C570.938 58.6128 572.332 59.2075 573.521 59.9048C574.752 60.561 575.839 61.2583 576.782 61.9966H587.487V79.1001H571.614Z" fill="#D02710"/>
<path d="M643.17 60.1653L653.948 77.5004L673.766 82.3942L660.609 98.0017L662.079 118.361L643.17 110.672L624.261 118.361L625.731 98.0017L612.575 82.3942L632.392 77.5004L643.17 60.1653Z" fill="#D02710"/>
<path d="M711.292 30.0659H751.221V46.9849H741.377V106.478H761.68C762.213 106.478 762.726 106.334 763.218 106.047C763.751 105.719 764.202 105.309 764.571 104.817C764.981 104.325 765.31 103.792 765.556 103.217C765.802 102.643 765.925 102.089 765.925 101.556V89.0669H785.858V123.335H711.292V106.478H720.951V46.9849H711.292V30.0659ZM791.58 91.2202C791.58 86.5854 792.421 82.2378 794.103 78.1772C795.784 74.1167 798.122 70.5688 801.116 67.5337C804.11 64.4985 807.679 62.0991 811.821 60.3354C815.964 58.5718 820.517 57.6899 825.479 57.6899C830.442 57.6899 834.995 58.5718 839.138 60.3354C843.321 62.0991 846.91 64.4985 849.904 67.5337C852.898 70.5688 855.216 74.1167 856.856 78.1772C858.538 82.2378 859.379 86.5854 859.379 91.2202C859.379 95.855 858.559 100.223 856.918 104.325C855.318 108.385 853.021 111.954 850.027 115.03C847.074 118.065 843.506 120.464 839.322 122.228C835.18 123.992 830.565 124.874 825.479 124.874C820.353 124.874 815.697 123.992 811.514 122.228C807.371 120.464 803.823 118.065 800.87 115.03C797.917 111.995 795.62 108.447 793.979 104.386C792.38 100.285 791.58 95.896 791.58 91.2202ZM809.976 91.2202C809.976 93.6401 810.386 95.8755 811.206 97.9263C812.026 99.936 813.134 101.679 814.528 103.156C815.964 104.632 817.604 105.781 819.45 106.601C821.337 107.421 823.347 107.832 825.479 107.832C827.653 107.832 829.663 107.442 831.509 106.663C833.396 105.842 835.016 104.694 836.369 103.217C837.764 101.741 838.851 99.9976 839.63 97.9878C840.409 95.937 840.799 93.6812 840.799 91.2202C840.799 88.6772 840.409 86.3804 839.63 84.3296C838.851 82.2788 837.764 80.5356 836.369 79.1001C835.016 77.6646 833.396 76.5776 831.509 75.8394C829.663 75.0601 827.653 74.6909 825.479 74.7319C823.347 74.6909 821.337 75.0601 819.45 75.8394C817.604 76.5776 815.964 77.6646 814.528 79.1001C813.134 80.5356 812.026 82.2788 811.206 84.3296C810.386 86.3804 809.976 88.6772 809.976 91.2202ZM916.042 120.013C913.745 121.326 911.448 122.269 909.151 122.843C906.854 123.417 904.517 123.705 902.138 123.705C897.216 123.705 892.684 122.864 888.541 121.182C884.398 119.5 880.81 117.183 877.774 114.23C874.78 111.236 872.442 107.708 870.761 103.648C869.079 99.5874 868.238 95.1782 868.238 90.4204C868.238 85.9497 869.038 81.7456 870.638 77.8081C872.278 73.8296 874.555 70.3638 877.467 67.4106C880.379 64.4165 883.865 62.0581 887.926 60.3354C891.986 58.6128 896.396 57.731 901.153 57.6899C904.065 57.731 906.731 58.0386 909.151 58.6128C911.612 59.187 913.909 59.9663 916.042 60.9507V59.5972H934.684V120.69C934.684 126.063 933.761 130.698 931.915 134.594C930.069 138.532 927.588 141.772 924.471 144.315C921.395 146.899 917.806 148.806 913.704 150.037C909.603 151.308 905.296 151.944 900.784 151.944C895.206 151.944 890.038 151.185 885.28 149.667C880.563 148.15 876.359 146.099 872.668 143.515L880.358 129.857C883.188 131.662 886.265 133.077 889.587 134.102C892.909 135.168 896.601 135.702 900.661 135.702C902.876 135.702 904.906 135.456 906.752 134.963C908.639 134.471 910.259 133.63 911.612 132.441C913.007 131.292 914.094 129.734 914.873 127.765C915.652 125.796 916.042 123.315 916.042 120.321V120.013ZM902.753 106.663C905.624 106.663 908.208 105.945 910.505 104.509C912.843 103.033 914.688 101.105 916.042 98.7261L916.165 83.2222C914.771 80.6382 912.863 78.5874 910.443 77.0698C908.023 75.5522 905.398 74.7729 902.568 74.7319C900.559 74.7729 898.59 75.1831 896.662 75.9624C894.734 76.7007 893.053 77.7671 891.617 79.1616C890.223 80.5562 889.115 82.2173 888.295 84.145C887.475 86.0317 887.064 88.144 887.064 90.4819C887.064 92.9429 887.475 95.1782 888.295 97.188C889.115 99.1978 890.223 100.9 891.617 102.294C893.012 103.689 894.652 104.776 896.539 105.555C898.467 106.293 900.538 106.663 902.753 106.663ZM948.465 59.5972H977.073V106.478H985.933V123.335H948.465V106.478H958.062V76.4546H948.465V59.5972ZM957.078 39.0483C957.078 37.5308 957.345 36.1157 957.878 34.8032C958.452 33.4497 959.231 32.2808 960.216 31.2964C961.2 30.312 962.349 29.5327 963.661 28.9585C965.015 28.3843 966.471 28.0972 968.029 28.0972C969.506 28.0972 970.9 28.3843 972.213 28.9585C973.525 29.5327 974.674 30.312 975.658 31.2964C976.643 32.2808 977.422 33.4497 977.996 34.8032C978.57 36.1157 978.857 37.5308 978.857 39.0483C978.857 40.5659 978.57 42.0015 977.996 43.355C977.422 44.6675 976.643 45.8159 975.658 46.8003C974.674 47.7847 973.525 48.564 972.213 49.1382C970.9 49.7124 969.506 49.9995 968.029 49.9995C966.471 49.9995 965.015 49.7124 963.661 49.1382C962.349 48.564 961.2 47.7847 960.216 46.8003C959.231 45.8159 958.452 44.6675 957.878 43.355C957.345 42.0015 957.078 40.5659 957.078 39.0483ZM1037.74 79.1001C1037.74 78.1157 1037.41 77.1724 1036.75 76.27C1036.14 75.3677 1035.21 74.5884 1033.98 73.9321C1032.75 73.2349 1031.23 72.6812 1029.43 72.271C1027.67 71.8608 1025.66 71.6558 1023.4 71.6558C1022.54 71.6558 1021.62 71.7378 1020.63 71.9019C1019.65 72.0249 1018.72 72.271 1017.86 72.6401C1017.04 73.0093 1016.35 73.522 1015.77 74.1782C1015.24 74.7935 1014.97 75.5933 1014.97 76.5776C1014.97 77.0698 1015.03 77.5415 1015.16 77.9927C1015.32 78.4438 1015.61 78.8745 1016.02 79.2847C1016.43 79.6948 1016.98 80.0845 1017.68 80.4536C1018.42 80.7817 1019.36 81.0483 1020.51 81.2534L1032.08 83.5298C1036.26 84.3501 1039.77 85.3755 1042.6 86.606C1045.43 87.8364 1047.7 89.272 1049.42 90.9126C1051.15 92.5532 1052.38 94.3784 1053.12 96.3882C1053.9 98.3979 1054.29 100.572 1054.29 102.91C1054.29 106.56 1053.42 109.759 1051.7 112.507C1050.02 115.255 1047.78 117.552 1045 119.398C1042.25 121.203 1039.13 122.556 1035.64 123.458C1032.2 124.402 1028.71 124.874 1025.18 124.874C1022.89 124.874 1020.8 124.73 1018.91 124.443C1017.06 124.156 1015.38 123.766 1013.86 123.274C1012.39 122.782 1011.05 122.208 1009.87 121.551C1008.72 120.854 1007.65 120.095 1006.67 119.275H995.53V102.171H1012.94V102.541C1012.98 103.73 1013.35 104.776 1014.05 105.678C1014.75 106.54 1015.65 107.278 1016.76 107.893C1017.9 108.508 1019.2 108.98 1020.63 109.308C1022.07 109.595 1023.58 109.739 1025.18 109.739C1028.88 109.739 1031.56 109.267 1033.24 108.324C1034.93 107.339 1035.77 106.088 1035.77 104.571C1035.77 103.381 1035.36 102.376 1034.54 101.556C1033.72 100.695 1032.26 100.018 1030.17 99.5259L1018.36 97.0034C1010.93 95.5679 1005.33 93.189 1001.56 89.8667C997.786 86.5034 995.899 82.1968 995.899 76.9468C995.899 73.8706 996.617 71.0815 998.053 68.5796C999.488 66.0366 1001.44 63.8833 1003.9 62.1196C1006.36 60.3149 1009.23 58.9204 1012.51 57.936C1015.83 56.9517 1019.38 56.4595 1023.15 56.4595C1025.74 56.4595 1028.04 56.6235 1030.04 56.9517C1032.05 57.2388 1033.86 57.6284 1035.46 58.1206C1037.06 58.6128 1038.45 59.2075 1039.64 59.9048C1040.87 60.561 1041.96 61.2583 1042.9 61.9966H1053.61V79.1001H1037.74ZM1088.92 59.5972H1101.66V75.7163H1088.8L1088.68 102.664C1088.68 104.222 1088.8 105.494 1089.05 106.478C1089.29 107.421 1089.64 108.18 1090.09 108.754C1090.58 109.329 1091.16 109.718 1091.81 109.923C1092.47 110.128 1093.23 110.231 1094.09 110.231C1095.65 110.231 1097.02 110.087 1098.21 109.8C1099.4 109.472 1100.59 109.103 1101.78 108.693L1104.43 120.567C1102.33 121.879 1100 122.925 1097.41 123.705C1094.87 124.484 1091.83 124.874 1088.31 124.874C1085.81 124.874 1083.41 124.443 1081.11 123.582C1078.85 122.72 1076.86 121.428 1075.14 119.706C1073.42 117.942 1072.04 115.748 1071.02 113.123C1069.99 110.498 1069.5 107.442 1069.54 103.956L1069.73 75.7163H1060.56V59.5972H1069.79L1069.91 44.3394L1089.05 35.2339L1088.92 59.5972ZM1114.09 59.5972H1142.69V106.478H1151.55V123.335H1114.09V106.478H1123.68V76.4546H1114.09V59.5972ZM1122.7 39.0483C1122.7 37.5308 1122.97 36.1157 1123.5 34.8032C1124.07 33.4497 1124.85 32.2808 1125.84 31.2964C1126.82 30.312 1127.97 29.5327 1129.28 28.9585C1130.64 28.3843 1132.09 28.0972 1133.65 28.0972C1135.13 28.0972 1136.52 28.3843 1137.83 28.9585C1139.15 29.5327 1140.29 30.312 1141.28 31.2964C1142.26 32.2808 1143.04 33.4497 1143.62 34.8032C1144.19 36.1157 1144.48 37.5308 1144.48 39.0483C1144.48 40.5659 1144.19 42.0015 1143.62 43.355C1143.04 44.6675 1142.26 45.8159 1141.28 46.8003C1140.29 47.7847 1139.15 48.564 1137.83 49.1382C1136.52 49.7124 1135.13 49.9995 1133.65 49.9995C1132.09 49.9995 1130.64 49.7124 1129.28 49.1382C1127.97 48.564 1126.82 47.7847 1125.84 46.8003C1124.85 45.8159 1124.07 44.6675 1123.5 43.355C1122.97 42.0015 1122.7 40.5659 1122.7 39.0483ZM1210.43 81.6226C1208.67 79.4077 1206.7 77.7466 1204.53 76.6392C1202.35 75.4907 1199.79 74.9985 1196.83 75.1626C1194.46 74.9985 1192.28 75.3267 1190.31 76.147C1188.39 76.9673 1186.7 78.1157 1185.27 79.5923C1183.87 81.0688 1182.79 82.8325 1182.01 84.8833C1181.23 86.8931 1180.84 89.1694 1180.84 91.7124C1180.84 93.9683 1181.25 96.1011 1182.07 98.1108C1182.89 100.121 1184 101.864 1185.39 103.34C1186.83 104.776 1188.51 105.904 1190.44 106.724C1192.41 107.544 1194.54 108.037 1196.83 108.201C1198.76 108.037 1200.51 107.647 1202.06 107.032C1203.66 106.375 1205.08 105.555 1206.31 104.571C1207.54 103.545 1208.59 102.417 1209.45 101.187C1210.35 99.9155 1211.05 98.7261 1211.54 97.6187L1228.46 102.294C1227.76 104.755 1226.55 107.319 1224.83 109.985C1223.15 112.651 1220.93 115.091 1218.18 117.306C1215.48 119.48 1212.24 121.285 1208.46 122.72C1204.73 124.156 1200.46 124.874 1195.67 124.874C1190.79 124.874 1186.29 123.992 1182.19 122.228C1178.09 120.423 1174.56 117.983 1171.61 114.907C1168.66 111.831 1166.34 108.221 1164.66 104.079C1163.02 99.936 1162.2 95.4858 1162.2 90.728C1162.2 86.0112 1163.04 81.6431 1164.72 77.6235C1166.44 73.563 1168.8 70.0356 1171.79 67.0415C1174.79 64.0063 1178.34 61.6479 1182.44 59.9663C1186.58 58.2847 1191.07 57.5259 1195.91 57.6899C1199.36 57.5259 1202.7 57.9155 1205.94 58.8589C1209.18 59.8022 1212.26 61.2173 1215.17 63.104H1227.41V81.6226H1210.43ZM1275.95 79.1001C1275.95 78.1157 1275.63 77.1724 1274.97 76.27C1274.35 75.3677 1273.43 74.5884 1272.2 73.9321C1270.97 73.2349 1269.45 72.6812 1267.65 72.271C1265.88 71.8608 1263.88 71.6558 1261.62 71.6558C1260.76 71.6558 1259.83 71.7378 1258.85 71.9019C1257.87 72.0249 1256.94 72.271 1256.08 72.6401C1255.26 73.0093 1254.56 73.522 1253.99 74.1782C1253.46 74.7935 1253.19 75.5933 1253.19 76.5776C1253.19 77.0698 1253.25 77.5415 1253.38 77.9927C1253.54 78.4438 1253.83 78.8745 1254.24 79.2847C1254.65 79.6948 1255.2 80.0845 1255.9 80.4536C1256.64 80.7817 1257.58 81.0483 1258.73 81.2534L1270.29 83.5298C1274.48 84.3501 1277.98 85.3755 1280.81 86.606C1283.64 87.8364 1285.92 89.272 1287.64 90.9126C1289.37 92.5532 1290.6 94.3784 1291.33 96.3882C1292.11 98.3979 1292.5 100.572 1292.5 102.91C1292.5 106.56 1291.64 109.759 1289.92 112.507C1288.24 115.255 1286 117.552 1283.21 119.398C1280.47 121.203 1277.35 122.556 1273.86 123.458C1270.42 124.402 1266.93 124.874 1263.4 124.874C1261.11 124.874 1259.01 124.73 1257.13 124.443C1255.28 124.156 1253.6 123.766 1252.08 123.274C1250.61 122.782 1249.27 122.208 1248.08 121.551C1246.94 120.854 1245.87 120.095 1244.88 119.275H1233.75V102.171H1251.16V102.541C1251.2 103.73 1251.57 104.776 1252.27 105.678C1252.96 106.54 1253.87 107.278 1254.97 107.893C1256.12 108.508 1257.42 108.98 1258.85 109.308C1260.29 109.595 1261.8 109.739 1263.4 109.739C1267.09 109.739 1269.78 109.267 1271.46 108.324C1273.14 107.339 1273.99 106.088 1273.99 104.571C1273.99 103.381 1273.58 102.376 1272.75 101.556C1271.93 100.695 1270.48 100.018 1268.39 99.5259L1256.57 97.0034C1249.15 95.5679 1243.55 93.189 1239.78 89.8667C1236 86.5034 1234.12 82.1968 1234.12 76.9468C1234.12 73.8706 1234.84 71.0815 1236.27 68.5796C1237.71 66.0366 1239.66 63.8833 1242.12 62.1196C1244.58 60.3149 1247.45 58.9204 1250.73 57.936C1254.05 56.9517 1257.6 56.4595 1261.37 56.4595C1263.96 56.4595 1266.25 56.6235 1268.26 56.9517C1270.27 57.2388 1272.08 57.6284 1273.68 58.1206C1275.28 58.6128 1276.67 59.2075 1277.86 59.9048C1279.09 60.561 1280.18 61.2583 1281.12 61.9966H1291.83V79.1001H1275.95Z" fill="#D02710"/>
<path d="M1347.51 60.1653L1358.29 77.5004L1378.11 82.3942L1364.95 98.0017L1366.42 118.361L1347.51 110.672L1328.6 118.361L1330.07 98.0017L1316.91 82.3942L1336.73 77.5004L1347.51 60.1653Z" fill="#D02710"/>
<path d="M1415.64 30.0659H1455.56V46.9849H1445.72V106.478H1466.02C1466.56 106.478 1467.07 106.334 1467.56 106.047C1468.09 105.719 1468.55 105.309 1468.92 104.817C1469.33 104.325 1469.65 103.792 1469.9 103.217C1470.15 102.643 1470.27 102.089 1470.27 101.556V89.0669H1490.2V123.335H1415.64V106.478H1425.29V46.9849H1415.64V30.0659ZM1495.92 91.2202C1495.92 86.5854 1496.76 82.2378 1498.45 78.1772C1500.13 74.1167 1502.47 70.5688 1505.46 67.5337C1508.45 64.4985 1512.02 62.0991 1516.17 60.3354C1520.31 58.5718 1524.86 57.6899 1529.82 57.6899C1534.79 57.6899 1539.34 58.5718 1543.48 60.3354C1547.67 62.0991 1551.25 64.4985 1554.25 67.5337C1557.24 70.5688 1559.56 74.1167 1561.2 78.1772C1562.88 82.2378 1563.72 86.5854 1563.72 91.2202C1563.72 95.855 1562.9 100.223 1561.26 104.325C1559.66 108.385 1557.37 111.954 1554.37 115.03C1551.42 118.065 1547.85 120.464 1543.67 122.228C1539.52 123.992 1534.91 124.874 1529.82 124.874C1524.7 124.874 1520.04 123.992 1515.86 122.228C1511.71 120.464 1508.17 118.065 1505.21 115.03C1502.26 111.995 1499.96 108.447 1498.32 104.386C1496.72 100.285 1495.92 95.896 1495.92 91.2202ZM1514.32 91.2202C1514.32 93.6401 1514.73 95.8755 1515.55 97.9263C1516.37 99.936 1517.48 101.679 1518.87 103.156C1520.31 104.632 1521.95 105.781 1523.79 106.601C1525.68 107.421 1527.69 107.832 1529.82 107.832C1532 107.832 1534.01 107.442 1535.85 106.663C1537.74 105.842 1539.36 104.694 1540.71 103.217C1542.11 101.741 1543.19 99.9976 1543.97 97.9878C1544.75 95.937 1545.14 93.6812 1545.14 91.2202C1545.14 88.6772 1544.75 86.3804 1543.97 84.3296C1543.19 82.2788 1542.11 80.5356 1540.71 79.1001C1539.36 77.6646 1537.74 76.5776 1535.85 75.8394C1534.01 75.0601 1532 74.6909 1529.82 74.7319C1527.69 74.6909 1525.68 75.0601 1523.79 75.8394C1521.95 76.5776 1520.31 77.6646 1518.87 79.1001C1517.48 80.5356 1516.37 82.2788 1515.55 84.3296C1514.73 86.3804 1514.32 88.6772 1514.32 91.2202ZM1620.39 120.013C1618.09 121.326 1615.79 122.269 1613.5 122.843C1611.2 123.417 1608.86 123.705 1606.48 123.705C1601.56 123.705 1597.03 122.864 1592.88 121.182C1588.74 119.5 1585.15 117.183 1582.12 114.23C1579.12 111.236 1576.79 107.708 1575.1 103.648C1573.42 99.5874 1572.58 95.1782 1572.58 90.4204C1572.58 85.9497 1573.38 81.7456 1574.98 77.8081C1576.62 73.8296 1578.9 70.3638 1581.81 67.4106C1584.72 64.4165 1588.21 62.0581 1592.27 60.3354C1596.33 58.6128 1600.74 57.731 1605.5 57.6899C1608.41 57.731 1611.08 58.0386 1613.5 58.6128C1615.96 59.187 1618.25 59.9663 1620.39 60.9507V59.5972H1639.03V120.69C1639.03 126.063 1638.1 130.698 1636.26 134.594C1634.41 138.532 1631.93 141.772 1628.81 144.315C1625.74 146.899 1622.15 148.806 1618.05 150.037C1613.95 151.308 1609.64 151.944 1605.13 151.944C1599.55 151.944 1594.38 151.185 1589.62 149.667C1584.91 148.15 1580.7 146.099 1577.01 143.515L1584.7 129.857C1587.53 131.662 1590.61 133.077 1593.93 134.102C1597.25 135.168 1600.94 135.702 1605 135.702C1607.22 135.702 1609.25 135.456 1611.1 134.963C1612.98 134.471 1614.6 133.63 1615.96 132.441C1617.35 131.292 1618.44 129.734 1619.22 127.765C1620 125.796 1620.39 123.315 1620.39 120.321V120.013ZM1607.1 106.663C1609.97 106.663 1612.55 105.945 1614.85 104.509C1617.19 103.033 1619.03 101.105 1620.39 98.7261L1620.51 83.2222C1619.11 80.6382 1617.21 78.5874 1614.79 77.0698C1612.37 75.5522 1609.74 74.7729 1606.91 74.7319C1604.9 74.7729 1602.93 75.1831 1601.01 75.9624C1599.08 76.7007 1597.4 77.7671 1595.96 79.1616C1594.57 80.5562 1593.46 82.2173 1592.64 84.145C1591.82 86.0317 1591.41 88.144 1591.41 90.4819C1591.41 92.9429 1591.82 95.1782 1592.64 97.188C1593.46 99.1978 1594.57 100.9 1595.96 102.294C1597.36 103.689 1599 104.776 1600.88 105.555C1602.81 106.293 1604.88 106.663 1607.1 106.663ZM1652.81 59.5972H1681.42V106.478H1690.28V123.335H1652.81V106.478H1662.41V76.4546H1652.81V59.5972ZM1661.42 39.0483C1661.42 37.5308 1661.69 36.1157 1662.22 34.8032C1662.8 33.4497 1663.58 32.2808 1664.56 31.2964C1665.54 30.312 1666.69 29.5327 1668 28.9585C1669.36 28.3843 1670.81 28.0972 1672.37 28.0972C1673.85 28.0972 1675.24 28.3843 1676.56 28.9585C1677.87 29.5327 1679.02 30.312 1680 31.2964C1680.99 32.2808 1681.77 33.4497 1682.34 34.8032C1682.91 36.1157 1683.2 37.5308 1683.2 39.0483C1683.2 40.5659 1682.91 42.0015 1682.34 43.355C1681.77 44.6675 1680.99 45.8159 1680 46.8003C1679.02 47.7847 1677.87 48.564 1676.56 49.1382C1675.24 49.7124 1673.85 49.9995 1672.37 49.9995C1670.81 49.9995 1669.36 49.7124 1668 49.1382C1666.69 48.564 1665.54 47.7847 1664.56 46.8003C1663.58 45.8159 1662.8 44.6675 1662.22 43.355C1661.69 42.0015 1661.42 40.5659 1661.42 39.0483ZM1742.08 79.1001C1742.08 78.1157 1741.75 77.1724 1741.09 76.27C1740.48 75.3677 1739.56 74.5884 1738.33 73.9321C1737.1 73.2349 1735.58 72.6812 1733.77 72.271C1732.01 71.8608 1730 71.6558 1727.74 71.6558C1726.88 71.6558 1725.96 71.7378 1724.98 71.9019C1723.99 72.0249 1723.07 72.271 1722.21 72.6401C1721.39 73.0093 1720.69 73.522 1720.12 74.1782C1719.58 74.7935 1719.32 75.5933 1719.32 76.5776C1719.32 77.0698 1719.38 77.5415 1719.5 77.9927C1719.66 78.4438 1719.95 78.8745 1720.36 79.2847C1720.77 79.6948 1721.33 80.0845 1722.02 80.4536C1722.76 80.7817 1723.7 81.0483 1724.85 81.2534L1736.42 83.5298C1740.6 84.3501 1744.11 85.3755 1746.94 86.606C1749.77 87.8364 1752.05 89.272 1753.77 90.9126C1755.49 92.5532 1756.72 94.3784 1757.46 96.3882C1758.24 98.3979 1758.63 100.572 1758.63 102.91C1758.63 106.56 1757.77 109.759 1756.04 112.507C1754.36 115.255 1752.13 117.552 1749.34 119.398C1746.59 121.203 1743.47 122.556 1739.99 123.458C1736.54 124.402 1733.06 124.874 1729.53 124.874C1727.23 124.874 1725.14 124.73 1723.25 124.443C1721.41 124.156 1719.73 123.766 1718.21 123.274C1716.73 122.782 1715.4 122.208 1714.21 121.551C1713.06 120.854 1711.99 120.095 1711.01 119.275H1699.87V102.171H1717.29V102.541C1717.33 103.73 1717.7 104.776 1718.39 105.678C1719.09 106.54 1719.99 107.278 1721.1 107.893C1722.25 108.508 1723.54 108.98 1724.98 109.308C1726.41 109.595 1727.93 109.739 1729.53 109.739C1733.22 109.739 1735.91 109.267 1737.59 108.324C1739.27 107.339 1740.11 106.088 1740.11 104.571C1740.11 103.381 1739.7 102.376 1738.88 101.556C1738.06 100.695 1736.6 100.018 1734.51 99.5259L1722.7 97.0034C1715.28 95.5679 1709.68 93.189 1705.9 89.8667C1702.13 86.5034 1700.24 82.1968 1700.24 76.9468C1700.24 73.8706 1700.96 71.0815 1702.4 68.5796C1703.83 66.0366 1705.78 63.8833 1708.24 62.1196C1710.7 60.3149 1713.57 58.9204 1716.85 57.936C1720.18 56.9517 1723.72 56.4595 1727.5 56.4595C1730.08 56.4595 1732.38 56.6235 1734.39 56.9517C1736.4 57.2388 1738.2 57.6284 1739.8 58.1206C1741.4 58.6128 1742.8 59.2075 1743.99 59.9048C1745.22 60.561 1746.3 61.2583 1747.25 61.9966H1757.95V79.1001H1742.08ZM1793.27 59.5972H1806V75.7163H1793.14L1793.02 102.664C1793.02 104.222 1793.14 105.494 1793.39 106.478C1793.64 107.421 1793.98 108.18 1794.44 108.754C1794.93 109.329 1795.5 109.718 1796.16 109.923C1796.81 110.128 1797.57 110.231 1798.43 110.231C1799.99 110.231 1801.37 110.087 1802.56 109.8C1803.75 109.472 1804.94 109.103 1806.12 108.693L1808.77 120.567C1806.68 121.879 1804.34 122.925 1801.76 123.705C1799.21 124.484 1796.18 124.874 1792.65 124.874C1790.15 124.874 1787.75 124.443 1785.45 123.582C1783.2 122.72 1781.21 121.428 1779.49 119.706C1777.76 117.942 1776.39 115.748 1775.36 113.123C1774.34 110.498 1773.85 107.442 1773.89 103.956L1774.07 75.7163H1764.9V59.5972H1774.13L1774.26 44.3394L1793.39 35.2339L1793.27 59.5972ZM1818.43 59.5972H1847.04V106.478H1855.9V123.335H1818.43V106.478H1828.03V76.4546H1818.43V59.5972ZM1827.04 39.0483C1827.04 37.5308 1827.31 36.1157 1827.84 34.8032C1828.42 33.4497 1829.2 32.2808 1830.18 31.2964C1831.17 30.312 1832.31 29.5327 1833.63 28.9585C1834.98 28.3843 1836.44 28.0972 1837.99 28.0972C1839.47 28.0972 1840.87 28.3843 1842.18 28.9585C1843.49 29.5327 1844.64 30.312 1845.62 31.2964C1846.61 32.2808 1847.39 33.4497 1847.96 34.8032C1848.54 36.1157 1848.82 37.5308 1848.82 39.0483C1848.82 40.5659 1848.54 42.0015 1847.96 43.355C1847.39 44.6675 1846.61 45.8159 1845.62 46.8003C1844.64 47.7847 1843.49 48.564 1842.18 49.1382C1840.87 49.7124 1839.47 49.9995 1837.99 49.9995C1836.44 49.9995 1834.98 49.7124 1833.63 49.1382C1832.31 48.564 1831.17 47.7847 1830.18 46.8003C1829.2 45.8159 1828.42 44.6675 1827.84 43.355C1827.31 42.0015 1827.04 40.5659 1827.04 39.0483ZM1914.78 81.6226C1913.01 79.4077 1911.04 77.7466 1908.87 76.6392C1906.7 75.4907 1904.13 74.9985 1901.18 75.1626C1898.8 74.9985 1896.63 75.3267 1894.66 76.147C1892.73 76.9673 1891.05 78.1157 1889.61 79.5923C1888.22 81.0688 1887.13 82.8325 1886.35 84.8833C1885.57 86.8931 1885.18 89.1694 1885.18 91.7124C1885.18 93.9683 1885.59 96.1011 1886.41 98.1108C1887.23 100.121 1888.34 101.864 1889.74 103.34C1891.17 104.776 1892.85 105.904 1894.78 106.724C1896.75 107.544 1898.88 108.037 1901.18 108.201C1903.11 108.037 1904.85 107.647 1906.41 107.032C1908.01 106.375 1909.42 105.555 1910.65 104.571C1911.88 103.545 1912.93 102.417 1913.79 101.187C1914.69 99.9155 1915.39 98.7261 1915.88 97.6187L1932.8 102.294C1932.1 104.755 1930.89 107.319 1929.17 109.985C1927.49 112.651 1925.28 115.091 1922.53 117.306C1919.82 119.48 1916.58 121.285 1912.81 122.72C1909.07 124.156 1904.81 124.874 1900.01 124.874C1895.13 124.874 1890.64 123.992 1886.54 122.228C1882.43 120.423 1878.91 117.983 1875.95 114.907C1873 111.831 1870.68 108.221 1869 104.079C1867.36 99.936 1866.54 95.4858 1866.54 90.728C1866.54 86.0112 1867.38 81.6431 1869.06 77.6235C1870.79 73.563 1873.14 70.0356 1876.14 67.0415C1879.13 64.0063 1882.68 61.6479 1886.78 59.9663C1890.92 58.2847 1895.42 57.5259 1900.26 57.6899C1903.7 57.5259 1907.04 57.9155 1910.28 58.8589C1913.52 59.8022 1916.6 61.2173 1919.51 63.104H1931.76V81.6226H1914.78ZM1980.3 79.1001C1980.3 78.1157 1979.97 77.1724 1979.31 76.27C1978.7 75.3677 1977.78 74.5884 1976.54 73.9321C1975.31 73.2349 1973.8 72.6812 1971.99 72.271C1970.23 71.8608 1968.22 71.6558 1965.96 71.6558C1965.1 71.6558 1964.18 71.7378 1963.19 71.9019C1962.21 72.0249 1961.29 72.271 1960.43 72.6401C1959.61 73.0093 1958.91 73.522 1958.33 74.1782C1957.8 74.7935 1957.53 75.5933 1957.53 76.5776C1957.53 77.0698 1957.6 77.5415 1957.72 77.9927C1957.88 78.4438 1958.17 78.8745 1958.58 79.2847C1958.99 79.6948 1959.54 80.0845 1960.24 80.4536C1960.98 80.7817 1961.92 81.0483 1963.07 81.2534L1974.64 83.5298C1978.82 84.3501 1982.33 85.3755 1985.16 86.606C1987.99 87.8364 1990.26 89.272 1991.99 90.9126C1993.71 92.5532 1994.94 94.3784 1995.68 96.3882C1996.46 98.3979 1996.85 100.572 1996.85 102.91C1996.85 106.56 1995.99 109.759 1994.26 112.507C1992.58 115.255 1990.35 117.552 1987.56 119.398C1984.81 121.203 1981.69 122.556 1978.21 123.458C1974.76 124.402 1971.27 124.874 1967.75 124.874C1965.45 124.874 1963.36 124.73 1961.47 124.443C1959.63 124.156 1957.94 123.766 1956.43 123.274C1954.95 122.782 1953.62 122.208 1952.43 121.551C1951.28 120.854 1950.21 120.095 1949.23 119.275H1938.09V102.171H1955.5V102.541C1955.54 103.73 1955.91 104.776 1956.61 105.678C1957.31 106.54 1958.21 107.278 1959.32 107.893C1960.47 108.508 1961.76 108.98 1963.19 109.308C1964.63 109.595 1966.15 109.739 1967.75 109.739C1971.44 109.739 1974.12 109.267 1975.81 108.324C1977.49 107.339 1978.33 106.088 1978.33 104.571C1978.33 103.381 1977.92 102.376 1977.1 101.556C1976.28 100.695 1974.82 100.018 1972.73 99.5259L1960.92 97.0034C1953.49 95.5679 1947.9 93.189 1944.12 89.8667C1940.35 86.5034 1938.46 82.1968 1938.46 76.9468C1938.46 73.8706 1939.18 71.0815 1940.62 68.5796C1942.05 66.0366 1944 63.8833 1946.46 62.1196C1948.92 60.3149 1951.79 58.9204 1955.07 57.936C1958.4 56.9517 1961.94 56.4595 1965.72 56.4595C1968.3 56.4595 1970.6 56.6235 1972.61 56.9517C1974.62 57.2388 1976.42 57.6284 1978.02 58.1206C1979.62 58.6128 1981.02 59.2075 1982.21 59.9048C1983.44 60.561 1984.52 61.2583 1985.47 61.9966H1996.17V79.1001H1980.3Z" fill="#D02710"/>
<path d="M2051.85 60.1653L2062.63 77.5004L2082.45 82.3942L2069.29 98.0017L2070.76 118.361L2051.85 110.672L2032.94 118.361L2034.41 98.0017L2021.26 82.3942L2041.08 77.5004L2051.85 60.1653Z" fill="#D02710"/>
<path d="M2119.98 30.0659H2159.9V46.9849H2150.06V106.478H2170.36C2170.9 106.478 2171.41 106.334 2171.9 106.047C2172.43 105.719 2172.89 105.309 2173.25 104.817C2173.67 104.325 2173.99 103.792 2174.24 103.217C2174.49 102.643 2174.61 102.089 2174.61 101.556V89.0669H2194.54V123.335H2119.98V106.478H2129.63V46.9849H2119.98V30.0659ZM2200.26 91.2202C2200.26 86.5854 2201.1 82.2378 2202.79 78.1772C2204.47 74.1167 2206.81 70.5688 2209.8 67.5337C2212.79 64.4985 2216.36 62.0991 2220.5 60.3354C2224.65 58.5718 2229.2 57.6899 2234.16 57.6899C2239.13 57.6899 2243.68 58.5718 2247.82 60.3354C2252 62.0991 2255.59 64.4985 2258.59 67.5337C2261.58 70.5688 2263.9 74.1167 2265.54 78.1772C2267.22 82.2378 2268.06 86.5854 2268.06 91.2202C2268.06 95.855 2267.24 100.223 2265.6 104.325C2264 108.385 2261.71 111.954 2258.71 115.03C2255.76 118.065 2252.19 120.464 2248.01 122.228C2243.86 123.992 2239.25 124.874 2234.16 124.874C2229.04 124.874 2224.38 123.992 2220.2 122.228C2216.05 120.464 2212.51 118.065 2209.55 115.03C2206.6 111.995 2204.3 108.447 2202.66 104.386C2201.06 100.285 2200.26 95.896 2200.26 91.2202ZM2218.66 91.2202C2218.66 93.6401 2219.07 95.8755 2219.89 97.9263C2220.71 99.936 2221.82 101.679 2223.21 103.156C2224.65 104.632 2226.29 105.781 2228.13 106.601C2230.02 107.421 2232.03 107.832 2234.16 107.832C2236.34 107.832 2238.35 107.442 2240.19 106.663C2242.08 105.842 2243.7 104.694 2245.05 103.217C2246.45 101.741 2247.53 99.9976 2248.31 97.9878C2249.09 95.937 2249.48 93.6812 2249.48 91.2202C2249.48 88.6772 2249.09 86.3804 2248.31 84.3296C2247.53 82.2788 2246.45 80.5356 2245.05 79.1001C2243.7 77.6646 2242.08 76.5776 2240.19 75.8394C2238.35 75.0601 2236.34 74.6909 2234.16 74.7319C2232.03 74.6909 2230.02 75.0601 2228.13 75.8394C2226.29 76.5776 2224.65 77.6646 2223.21 79.1001C2221.82 80.5356 2220.71 82.2788 2219.89 84.3296C2219.07 86.3804 2218.66 88.6772 2218.66 91.2202ZM2324.73 120.013C2322.43 121.326 2320.13 122.269 2317.83 122.843C2315.54 123.417 2313.2 123.705 2310.82 123.705C2305.9 123.705 2301.37 122.864 2297.22 121.182C2293.08 119.5 2289.49 117.183 2286.46 114.23C2283.46 111.236 2281.13 107.708 2279.44 103.648C2277.76 99.5874 2276.92 95.1782 2276.92 90.4204C2276.92 85.9497 2277.72 81.7456 2279.32 77.8081C2280.96 73.8296 2283.24 70.3638 2286.15 67.4106C2289.06 64.4165 2292.55 62.0581 2296.61 60.3354C2300.67 58.6128 2305.08 57.731 2309.84 57.6899C2312.75 57.731 2315.42 58.0386 2317.83 58.6128C2320.3 59.187 2322.59 59.9663 2324.73 60.9507V59.5972H2343.37V120.69C2343.37 126.063 2342.44 130.698 2340.6 134.594C2338.75 138.532 2336.27 141.772 2333.15 144.315C2330.08 146.899 2326.49 148.806 2322.39 150.037C2318.29 151.308 2313.98 151.944 2309.47 151.944C2303.89 151.944 2298.72 151.185 2293.96 149.667C2289.25 148.15 2285.04 146.099 2281.35 143.515L2289.04 129.857C2291.87 131.662 2294.95 133.077 2298.27 134.102C2301.59 135.168 2305.28 135.702 2309.34 135.702C2311.56 135.702 2313.59 135.456 2315.44 134.963C2317.32 134.471 2318.94 133.63 2320.3 132.441C2321.69 131.292 2322.78 129.734 2323.56 127.765C2324.34 125.796 2324.73 123.315 2324.73 120.321V120.013ZM2311.44 106.663C2314.31 106.663 2316.89 105.945 2319.19 104.509C2321.53 103.033 2323.37 101.105 2324.73 98.7261L2324.85 83.2222C2323.45 80.6382 2321.55 78.5874 2319.13 77.0698C2316.71 75.5522 2314.08 74.7729 2311.25 74.7319C2309.24 74.7729 2307.27 75.1831 2305.35 75.9624C2303.42 76.7007 2301.74 77.7671 2300.3 79.1616C2298.91 80.5562 2297.8 82.2173 2296.98 84.145C2296.16 86.0317 2295.75 88.144 2295.75 90.4819C2295.75 92.9429 2296.16 95.1782 2296.98 97.188C2297.8 99.1978 2298.91 100.9 2300.3 102.294C2301.7 103.689 2303.34 104.776 2305.22 105.555C2307.15 106.293 2309.22 106.663 2311.44 106.663ZM2357.15 59.5972L2385.76 59.5972V106.478H2394.62V123.335H2357.15V106.478H2366.75V76.4546H2357.15V59.5972ZM2365.76 39.0483C2365.76 37.5308 2366.03 36.1157 2366.56 34.8032C2367.14 33.4497 2367.92 32.2808 2368.9 31.2964C2369.88 30.312 2371.03 29.5327 2372.34 28.9585C2373.7 28.3843 2375.15 28.0972 2376.71 28.0972C2378.19 28.0972 2379.58 28.3843 2380.9 28.9585C2382.21 29.5327 2383.36 30.312 2384.34 31.2964C2385.33 32.2808 2386.11 33.4497 2386.68 34.8032C2387.25 36.1157 2387.54 37.5308 2387.54 39.0483C2387.54 40.5659 2387.25 42.0015 2386.68 43.355C2386.11 44.6675 2385.33 45.8159 2384.34 46.8003C2383.36 47.7847 2382.21 48.564 2380.9 49.1382C2379.58 49.7124 2378.19 49.9995 2376.71 49.9995C2375.15 49.9995 2373.7 49.7124 2372.34 49.1382C2371.03 48.564 2369.88 47.7847 2368.9 46.8003C2367.92 45.8159 2367.14 44.6675 2366.56 43.355C2366.03 42.0015 2365.76 40.5659 2365.76 39.0483ZM2446.42 79.1001C2446.42 78.1157 2446.09 77.1724 2445.43 76.27C2444.82 75.3677 2443.9 74.5884 2442.67 73.9321C2441.44 73.2349 2439.92 72.6812 2438.11 72.271C2436.35 71.8608 2434.34 71.6558 2432.08 71.6558C2431.22 71.6558 2430.3 71.7378 2429.32 71.9019C2428.33 72.0249 2427.41 72.271 2426.55 72.6401C2425.73 73.0093 2425.03 73.522 2424.46 74.1782C2423.92 74.7935 2423.66 75.5933 2423.66 76.5776C2423.66 77.0698 2423.72 77.5415 2423.84 77.9927C2424 78.4438 2424.29 78.8745 2424.7 79.2847C2425.11 79.6948 2425.67 80.0845 2426.36 80.4536C2427.1 80.7817 2428.04 81.0483 2429.19 81.2534L2440.76 83.5298C2444.94 84.3501 2448.45 85.3755 2451.28 86.606C2454.11 87.8364 2456.39 89.272 2458.11 90.9126C2459.83 92.5532 2461.06 94.3784 2461.8 96.3882C2462.58 98.3979 2462.97 100.572 2462.97 102.91C2462.97 106.56 2462.11 109.759 2460.38 112.507C2458.7 115.255 2456.47 117.552 2453.68 119.398C2450.93 121.203 2447.81 122.556 2444.33 123.458C2440.88 124.402 2437.4 124.874 2433.87 124.874C2431.57 124.874 2429.48 124.73 2427.59 124.443C2425.75 124.156 2424.07 123.766 2422.55 123.274C2421.07 122.782 2419.74 122.208 2418.55 121.551C2417.4 120.854 2416.33 120.095 2415.35 119.275H2404.21V102.171H2421.62V102.541C2421.67 103.73 2422.04 104.776 2422.73 105.678C2423.43 106.54 2424.33 107.278 2425.44 107.893C2426.59 108.508 2427.88 108.98 2429.32 109.308C2430.75 109.595 2432.27 109.739 2433.87 109.739C2437.56 109.739 2440.25 109.267 2441.93 108.324C2443.61 107.339 2444.45 106.088 2444.45 104.571C2444.45 103.381 2444.04 102.376 2443.22 101.556C2442.4 100.695 2440.94 100.018 2438.85 99.5259L2427.04 97.0034C2419.62 95.5679 2414.02 93.189 2410.24 89.8667C2406.47 86.5034 2404.58 82.1968 2404.58 76.9468C2404.58 73.8706 2405.3 71.0815 2406.74 68.5796C2408.17 66.0366 2410.12 63.8833 2412.58 62.1196C2415.04 60.3149 2417.91 58.9204 2421.19 57.936C2424.52 56.9517 2428.06 56.4595 2431.84 56.4595C2434.42 56.4595 2436.72 56.6235 2438.73 56.9517C2440.74 57.2388 2442.54 57.6284 2444.14 58.1206C2445.74 58.6128 2447.14 59.2075 2448.33 59.9048C2449.56 60.561 2450.64 61.2583 2451.59 61.9966H2462.29V79.1001H2446.42ZM2497.61 59.5972H2510.34V75.7163H2497.48L2497.36 102.664C2497.36 104.222 2497.48 105.494 2497.73 106.478C2497.98 107.421 2498.32 108.18 2498.78 108.754C2499.27 109.329 2499.84 109.718 2500.5 109.923C2501.15 110.128 2501.91 110.231 2502.77 110.231C2504.33 110.231 2505.71 110.087 2506.9 109.8C2508.09 109.472 2509.28 109.103 2510.46 108.693L2513.11 120.567C2511.02 121.879 2508.68 122.925 2506.1 123.705C2503.55 124.484 2500.52 124.874 2496.99 124.874C2494.49 124.874 2492.09 124.443 2489.79 123.582C2487.54 122.72 2485.55 121.428 2483.83 119.706C2482.1 117.942 2480.73 115.748 2479.7 113.123C2478.68 110.498 2478.19 107.442 2478.23 103.956L2478.41 75.7163H2469.24V59.5972H2478.47L2478.6 44.3394L2497.73 35.2339L2497.61 59.5972ZM2522.77 59.5972H2551.38V106.478H2560.24V123.335H2522.77V106.478H2532.37V76.4546H2522.77V59.5972ZM2531.38 39.0483C2531.38 37.5308 2531.65 36.1157 2532.18 34.8032C2532.76 33.4497 2533.54 32.2808 2534.52 31.2964C2535.5 30.312 2536.65 29.5327 2537.97 28.9585C2539.32 28.3843 2540.78 28.0972 2542.33 28.0972C2543.81 28.0972 2545.21 28.3843 2546.52 28.9585C2547.83 29.5327 2548.98 30.312 2549.96 31.2964C2550.95 32.2808 2551.73 33.4497 2552.3 34.8032C2552.88 36.1157 2553.16 37.5308 2553.16 39.0483C2553.16 40.5659 2552.88 42.0015 2552.3 43.355C2551.73 44.6675 2550.95 45.8159 2549.96 46.8003C2548.98 47.7847 2547.83 48.564 2546.52 49.1382C2545.21 49.7124 2543.81 49.9995 2542.33 49.9995C2540.78 49.9995 2539.32 49.7124 2537.97 49.1382C2536.65 48.564 2535.5 47.7847 2534.52 46.8003C2533.54 45.8159 2532.76 44.6675 2532.18 43.355C2531.65 42.0015 2531.38 40.5659 2531.38 39.0483ZM2619.12 81.6226C2617.35 79.4077 2615.38 77.7466 2613.21 76.6392C2611.04 75.4907 2608.47 74.9985 2605.52 75.1626C2603.14 74.9985 2600.97 75.3267 2599 76.147C2597.07 76.9673 2595.39 78.1157 2593.95 79.5923C2592.56 81.0688 2591.47 82.8325 2590.69 84.8833C2589.91 86.8931 2589.52 89.1694 2589.52 91.7124C2589.52 93.9683 2589.93 96.1011 2590.75 98.1108C2591.57 100.121 2592.68 101.864 2594.08 103.34C2595.51 104.776 2597.19 105.904 2599.12 106.724C2601.09 107.544 2603.22 108.037 2605.52 108.201C2607.45 108.037 2609.19 107.647 2610.75 107.032C2612.35 106.375 2613.76 105.555 2614.99 104.571C2616.22 103.545 2617.27 102.417 2618.13 101.187C2619.03 99.9155 2619.73 98.7261 2620.22 97.6187L2637.14 102.294C2636.44 104.755 2635.23 107.319 2633.51 109.985C2631.83 112.651 2629.62 115.091 2626.87 117.306C2624.16 119.48 2620.92 121.285 2617.15 122.72C2613.41 124.156 2609.15 124.874 2604.35 124.874C2599.47 124.874 2594.98 123.992 2590.88 122.228C2586.77 120.423 2583.25 117.983 2580.29 114.907C2577.34 111.831 2575.02 108.221 2573.34 104.079C2571.7 99.936 2570.88 95.4858 2570.88 90.728C2570.88 86.0112 2571.72 81.6431 2573.4 77.6235C2575.13 73.563 2577.48 70.0356 2580.48 67.0415C2583.47 64.0063 2587.02 61.6479 2591.12 59.9663C2595.26 58.2847 2599.76 57.5259 2604.6 57.6899C2608.04 57.5259 2611.38 57.9155 2614.62 58.8589C2617.86 59.8022 2620.94 61.2173 2623.85 63.104H2636.1V81.6226L2619.12 81.6226ZM2684.64 79.1001C2684.64 78.1157 2684.31 77.1724 2683.65 76.27C2683.04 75.3677 2682.12 74.5884 2680.88 73.9321C2679.65 73.2349 2678.14 72.6812 2676.33 72.271C2674.57 71.8608 2672.56 71.6558 2670.3 71.6558C2669.44 71.6558 2668.52 71.7378 2667.53 71.9019C2666.55 72.0249 2665.63 72.271 2664.77 72.6401C2663.95 73.0093 2663.25 73.522 2662.67 74.1782C2662.14 74.7935 2661.87 75.5933 2661.87 76.5776C2661.87 77.0698 2661.94 77.5415 2662.06 77.9927C2662.22 78.4438 2662.51 78.8745 2662.92 79.2847C2663.33 79.6948 2663.88 80.0845 2664.58 80.4536C2665.32 80.7817 2666.26 81.0483 2667.41 81.2534L2678.98 83.5298C2683.16 84.3501 2686.67 85.3755 2689.5 86.606C2692.33 87.8364 2694.6 89.272 2696.33 90.9126C2698.05 92.5532 2699.28 94.3784 2700.02 96.3882C2700.8 98.3979 2701.19 100.572 2701.19 102.91C2701.19 106.56 2700.33 109.759 2698.6 112.507C2696.92 115.255 2694.69 117.552 2691.9 119.398C2689.15 121.203 2686.03 122.556 2682.55 123.458C2679.1 124.402 2675.61 124.874 2672.09 124.874C2669.79 124.874 2667.7 124.73 2665.81 124.443C2663.97 124.156 2662.28 123.766 2660.77 123.274C2659.29 122.782 2657.96 122.208 2656.77 121.551C2655.62 120.854 2654.55 120.095 2653.57 119.275H2642.43V102.171H2659.84V102.541C2659.88 103.73 2660.25 104.776 2660.95 105.678C2661.65 106.54 2662.55 107.278 2663.66 107.893C2664.81 108.508 2666.1 108.98 2667.53 109.308C2668.97 109.595 2670.49 109.739 2672.09 109.739C2675.78 109.739 2678.46 109.267 2680.15 108.324C2681.83 107.339 2682.67 106.088 2682.67 104.571C2682.67 103.381 2682.26 102.376 2681.44 101.556C2680.62 100.695 2679.16 100.018 2677.07 99.5259L2665.26 97.0034C2657.83 95.5679 2652.24 93.189 2648.46 89.8667C2644.69 86.5034 2642.8 82.1968 2642.8 76.9468C2642.8 73.8706 2643.52 71.0815 2644.96 68.5796C2646.39 66.0366 2648.34 63.8833 2650.8 62.1196C2653.26 60.3149 2656.13 58.9204 2659.41 57.936C2662.74 56.9517 2666.28 56.4595 2670.06 56.4595C2672.64 56.4595 2674.94 56.6235 2676.95 56.9517C2678.96 57.2388 2680.76 57.6284 2682.36 58.1206C2683.96 58.6128 2685.36 59.2075 2686.54 59.9048C2687.78 60.561 2688.86 61.2583 2689.81 61.9966H2700.51V79.1001H2684.64Z" fill="#D02710"/>
</svg>
