<svg width="282" height="25" viewBox="0 0 282 25" fill="none" xmlns="http://www.w3.org/2000/svg">
<path d="M1.02273 8.13512V6.88512H9.75V8.13512H6.09091V18.5215H4.68182V8.13512H1.02273ZM14.1364 18.7033C13.2955 18.7033 12.5701 18.5177 11.9602 18.1465C11.3542 17.7715 10.8864 17.2488 10.5568 16.5783C10.2311 15.9041 10.0682 15.12 10.0682 14.226C10.0682 13.3321 10.2311 12.5442 10.5568 11.8624C10.8864 11.1768 11.3447 10.6427 11.9318 10.2601C12.5227 9.87376 13.2121 9.68058 14 9.68058C14.4545 9.68058 14.9034 9.75633 15.3466 9.90785C15.7898 10.0594 16.1932 10.3056 16.5568 10.6465C16.9205 10.9836 17.2102 11.4306 17.4261 11.9874C17.642 12.5442 17.75 13.2298 17.75 14.0442V14.6124H11.0227V13.4533H16.3864C16.3864 12.9609 16.2879 12.5215 16.0909 12.1351C15.8977 11.7488 15.6212 11.4438 15.2614 11.2203C14.9053 10.9969 14.4848 10.8851 14 10.8851C13.4659 10.8851 13.0038 11.0177 12.6136 11.2828C12.2273 11.5442 11.9299 11.8851 11.7216 12.3056C11.5133 12.726 11.4091 13.1768 11.4091 13.6578V14.4306C11.4091 15.0897 11.5227 15.6484 11.75 16.1067C11.9811 16.5613 12.3011 16.9078 12.7102 17.1465C13.1193 17.3813 13.5947 17.4988 14.1364 17.4988C14.4886 17.4988 14.8068 17.4495 15.0909 17.351C15.3788 17.2488 15.6269 17.0972 15.8352 16.8965C16.0436 16.6919 16.2045 16.4382 16.3182 16.1351L17.6136 16.4988C17.4773 16.9382 17.2481 17.3245 16.9261 17.6578C16.6042 17.9874 16.2064 18.245 15.733 18.4306C15.2595 18.6124 14.7273 18.7033 14.1364 18.7033ZM19.7898 18.5215V9.79421H21.0852V11.1124H21.1761C21.3352 10.6806 21.6231 10.3302 22.0398 10.0613C22.4564 9.79232 22.9261 9.65785 23.4489 9.65785C23.5473 9.65785 23.6705 9.65974 23.8182 9.66353C23.9659 9.66732 24.0777 9.673 24.1534 9.68058V11.0442C24.108 11.0328 24.0038 11.0158 23.8409 10.9931C23.6818 10.9666 23.5133 10.9533 23.3352 10.9533C22.911 10.9533 22.5322 11.0423 22.1989 11.2203C21.8693 11.3946 21.608 11.637 21.4148 11.9476C21.2254 12.2544 21.1307 12.6048 21.1307 12.9988V18.5215H19.7898ZM25.7429 18.5215V9.79421H27.0384V11.1578H27.152C27.3338 10.6919 27.6274 10.3302 28.0327 10.0726C28.438 9.81126 28.9247 9.68058 29.4929 9.68058C30.0687 9.68058 30.5478 9.81126 30.9304 10.0726C31.3168 10.3302 31.6179 10.6919 31.8338 11.1578H31.9247C32.1482 10.7071 32.4834 10.3491 32.9304 10.084C33.3774 9.81505 33.9134 9.68058 34.5384 9.68058C35.3187 9.68058 35.9569 9.92489 36.4531 10.4135C36.9493 10.8984 37.1974 11.6541 37.1974 12.6806V18.5215H35.8565V12.6806C35.8565 12.0366 35.6804 11.5764 35.3281 11.2999C34.9759 11.0234 34.5611 10.8851 34.0838 10.8851C33.4702 10.8851 32.9948 11.0707 32.6577 11.4419C32.3205 11.8094 32.152 12.2753 32.152 12.8397V18.5215H30.7884V12.5442C30.7884 12.048 30.6274 11.6484 30.3054 11.3453C29.9834 11.0385 29.5687 10.8851 29.0611 10.8851C28.7126 10.8851 28.3868 10.9779 28.0838 11.1635C27.7846 11.3491 27.5421 11.6067 27.3565 11.9363C27.1747 12.262 27.0838 12.6389 27.0838 13.0669V18.5215H25.7429ZM45.831 11.7488L44.6264 12.0897C44.5507 11.8889 44.4389 11.6938 44.2912 11.5044C44.1473 11.3113 43.9503 11.1522 43.7003 11.0272C43.4503 10.9022 43.1302 10.8397 42.7401 10.8397C42.206 10.8397 41.7609 10.9628 41.4048 11.209C41.0526 11.4514 40.8764 11.7601 40.8764 12.1351C40.8764 12.4685 40.9976 12.7317 41.2401 12.9249C41.4825 13.1181 41.8613 13.2791 42.3764 13.4078L43.6719 13.726C44.4522 13.9154 45.0336 14.2052 45.4162 14.5953C45.7988 14.9817 45.9901 15.4798 45.9901 16.0897C45.9901 16.5897 45.8461 17.0366 45.5582 17.4306C45.2741 17.8245 44.8764 18.1351 44.3651 18.3624C43.8537 18.5897 43.259 18.7033 42.581 18.7033C41.6908 18.7033 40.9541 18.5101 40.3707 18.1238C39.7874 17.7374 39.4181 17.173 39.2628 16.4306L40.5355 16.1124C40.6567 16.5821 40.8859 16.9344 41.223 17.1692C41.5639 17.4041 42.009 17.5215 42.5582 17.5215C43.1832 17.5215 43.6795 17.3889 44.0469 17.1238C44.4181 16.8548 44.6037 16.5328 44.6037 16.1578C44.6037 15.8548 44.4976 15.601 44.2855 15.3965C44.0734 15.1882 43.7476 15.0328 43.3082 14.9306L41.8537 14.5897C41.0545 14.4003 40.4673 14.1067 40.0923 13.709C39.7211 13.3075 39.5355 12.8056 39.5355 12.2033C39.5355 11.7109 39.6738 11.2753 39.9503 10.8965C40.2306 10.5177 40.6113 10.2203 41.0923 10.0044C41.5772 9.78853 42.1264 9.68058 42.7401 9.68058C43.6037 9.68058 44.2817 9.86997 44.7741 10.2488C45.2704 10.6275 45.6226 11.1275 45.831 11.7488ZM62.5085 12.7033C62.5085 13.9306 62.2869 14.9912 61.8438 15.8851C61.4006 16.7791 60.7926 17.4685 60.0199 17.9533C59.2472 18.4382 58.3646 18.6806 57.3722 18.6806C56.3797 18.6806 55.4972 18.4382 54.7244 17.9533C53.9517 17.4685 53.3438 16.7791 52.9006 15.8851C52.4574 14.9912 52.2358 13.9306 52.2358 12.7033C52.2358 11.476 52.4574 10.4154 52.9006 9.52148C53.3438 8.62755 53.9517 7.93815 54.7244 7.4533C55.4972 6.96845 56.3797 6.72603 57.3722 6.72603C58.3646 6.72603 59.2472 6.96845 60.0199 7.4533C60.7926 7.93815 61.4006 8.62755 61.8438 9.52148C62.2869 10.4154 62.5085 11.476 62.5085 12.7033ZM61.1449 12.7033C61.1449 11.6957 60.9763 10.8453 60.6392 10.1522C60.3059 9.45898 59.8532 8.93436 59.2812 8.5783C58.7131 8.22224 58.0767 8.04421 57.3722 8.04421C56.6676 8.04421 56.0294 8.22224 55.4574 8.5783C54.8892 8.93436 54.4366 9.45898 54.0994 10.1522C53.7661 10.8453 53.5994 11.6957 53.5994 12.7033C53.5994 13.7109 53.7661 14.5613 54.0994 15.2544C54.4366 15.9476 54.8892 16.4722 55.4574 16.8283C56.0294 17.1844 56.6676 17.3624 57.3722 17.3624C58.0767 17.3624 58.7131 17.1844 59.2812 16.8283C59.8532 16.4722 60.3059 15.9476 60.6392 15.2544C60.9763 14.5613 61.1449 13.7109 61.1449 12.7033ZM68.5824 9.79421V10.9306H63.8778V9.79421H68.5824ZM65.2869 18.5215V8.58967C65.2869 8.08967 65.4044 7.673 65.6392 7.33967C65.8741 7.00633 66.179 6.75633 66.554 6.58967C66.929 6.423 67.3248 6.33967 67.7415 6.33967C68.071 6.33967 68.34 6.36618 68.5483 6.41921C68.7566 6.47224 68.9119 6.52148 69.0142 6.56694L68.6278 7.72603C68.5597 7.7033 68.465 7.67489 68.3438 7.6408C68.2263 7.60671 68.071 7.58967 67.8778 7.58967C67.4347 7.58967 67.1146 7.70141 66.9176 7.92489C66.7244 8.14838 66.6278 8.47603 66.6278 8.90785V18.5215H65.2869ZM81.5071 9.79421C81.4389 9.21845 81.1624 8.77148 80.6776 8.4533C80.1927 8.13512 79.598 7.97603 78.8935 7.97603C78.3783 7.97603 77.9276 8.05936 77.5412 8.22603C77.1586 8.3927 76.8594 8.62186 76.6435 8.91353C76.4313 9.2052 76.3253 9.53664 76.3253 9.90785C76.3253 10.2185 76.3991 10.4855 76.5469 10.709C76.6984 10.9287 76.8916 11.1124 77.1264 11.2601C77.3613 11.4041 77.6075 11.5234 77.8651 11.6181C78.1226 11.709 78.3594 11.7828 78.5753 11.8397L79.7571 12.1578C80.0601 12.2374 80.3973 12.3472 80.7685 12.4874C81.1435 12.6275 81.5014 12.8188 81.8423 13.0613C82.187 13.2999 82.4711 13.6067 82.6946 13.9817C82.9181 14.3567 83.0298 14.8169 83.0298 15.3624C83.0298 15.9912 82.8651 16.5594 82.5355 17.0669C82.2098 17.5745 81.7325 17.9779 81.1037 18.2772C80.4787 18.5764 79.7192 18.726 78.8253 18.726C77.992 18.726 77.2704 18.5916 76.6605 18.3226C76.0545 18.0537 75.5772 17.6787 75.2287 17.1976C74.884 16.7166 74.6889 16.1578 74.6435 15.5215H76.098C76.1359 15.9609 76.2836 16.3245 76.5412 16.6124C76.8026 16.8965 77.1321 17.1086 77.5298 17.2488C77.9313 17.3851 78.3632 17.4533 78.8253 17.4533C79.3632 17.4533 79.8461 17.3662 80.2741 17.1919C80.7022 17.0139 81.0412 16.7677 81.2912 16.4533C81.5412 16.1351 81.6662 15.7639 81.6662 15.3397C81.6662 14.9533 81.5582 14.6389 81.3423 14.3965C81.1264 14.1541 80.8423 13.9571 80.4901 13.8056C80.1378 13.6541 79.7571 13.5215 79.348 13.4078L77.9162 12.9988C77.0071 12.7374 76.2874 12.3643 75.7571 11.8794C75.2268 11.3946 74.9616 10.7601 74.9616 9.97603C74.9616 9.32451 75.1378 8.75633 75.4901 8.27148C75.8461 7.78285 76.3234 7.40406 76.9219 7.13512C77.5241 6.86239 78.1965 6.72603 78.9389 6.72603C79.6889 6.72603 80.3556 6.8605 80.9389 7.12944C81.5223 7.39459 81.9844 7.75823 82.3253 8.22035C82.67 8.68247 82.8518 9.20709 82.8707 9.79421H81.5071ZM88.8239 18.7033C87.983 18.7033 87.2576 18.5177 86.6477 18.1465C86.0417 17.7715 85.5739 17.2488 85.2443 16.5783C84.9186 15.9041 84.7557 15.12 84.7557 14.226C84.7557 13.3321 84.9186 12.5442 85.2443 11.8624C85.5739 11.1768 86.0322 10.6427 86.6193 10.2601C87.2102 9.87376 87.8996 9.68058 88.6875 9.68058C89.142 9.68058 89.5909 9.75633 90.0341 9.90785C90.4773 10.0594 90.8807 10.3056 91.2443 10.6465C91.608 10.9836 91.8977 11.4306 92.1136 11.9874C92.3295 12.5442 92.4375 13.2298 92.4375 14.0442V14.6124H85.7102V13.4533H91.0739C91.0739 12.9609 90.9754 12.5215 90.7784 12.1351C90.5852 11.7488 90.3087 11.4438 89.9489 11.2203C89.5928 10.9969 89.1723 10.8851 88.6875 10.8851C88.1534 10.8851 87.6913 11.0177 87.3011 11.2828C86.9148 11.5442 86.6174 11.8851 86.4091 12.3056C86.2008 12.726 86.0966 13.1768 86.0966 13.6578V14.4306C86.0966 15.0897 86.2102 15.6484 86.4375 16.1067C86.6686 16.5613 86.9886 16.9078 87.3977 17.1465C87.8068 17.3813 88.2822 17.4988 88.8239 17.4988C89.1761 17.4988 89.4943 17.4495 89.7784 17.351C90.0663 17.2488 90.3144 17.0972 90.5227 16.8965C90.7311 16.6919 90.892 16.4382 91.0057 16.1351L92.3011 16.4988C92.1648 16.9382 91.9356 17.3245 91.6136 17.6578C91.2917 17.9874 90.8939 18.245 90.4205 18.4306C89.947 18.6124 89.4148 18.7033 88.8239 18.7033ZM94.4773 18.5215V9.79421H95.7727V11.1124H95.8636C96.0227 10.6806 96.3106 10.3302 96.7273 10.0613C97.1439 9.79232 97.6136 9.65785 98.1364 9.65785C98.2348 9.65785 98.358 9.65974 98.5057 9.66353C98.6534 9.66732 98.7652 9.673 98.8409 9.68058V11.0442C98.7955 11.0328 98.6913 11.0158 98.5284 10.9931C98.3693 10.9666 98.2008 10.9533 98.0227 10.9533C97.5985 10.9533 97.2197 11.0423 96.8864 11.2203C96.5568 11.3946 96.2955 11.637 96.1023 11.9476C95.9129 12.2544 95.8182 12.6048 95.8182 12.9988V18.5215H94.4773ZM107.832 9.79421L104.605 18.5215H103.241L100.014 9.79421H101.469L103.878 16.7488H103.969L106.378 9.79421H107.832ZM109.602 18.5215V9.79421H110.943V18.5215H109.602ZM110.284 8.33967C110.023 8.33967 109.797 8.25065 109.608 8.07262C109.422 7.89459 109.33 7.68058 109.33 7.43058C109.33 7.18058 109.422 6.96656 109.608 6.78853C109.797 6.6105 110.023 6.52148 110.284 6.52148C110.545 6.52148 110.769 6.6105 110.955 6.78853C111.144 6.96656 111.239 7.18058 111.239 7.43058C111.239 7.68058 111.144 7.89459 110.955 8.07262C110.769 8.25065 110.545 8.33967 110.284 8.33967ZM116.945 18.7033C116.126 18.7033 115.422 18.5101 114.831 18.1238C114.24 17.7374 113.786 17.2052 113.467 16.5272C113.149 15.8491 112.99 15.0745 112.99 14.2033C112.99 13.3169 113.153 12.5347 113.479 11.8567C113.808 11.1749 114.267 10.6427 114.854 10.2601C115.445 9.87376 116.134 9.68058 116.922 9.68058C117.536 9.68058 118.089 9.79421 118.581 10.0215C119.073 10.2488 119.477 10.5669 119.791 10.976C120.106 11.3851 120.301 11.8624 120.376 12.4078H119.036C118.933 12.0101 118.706 11.6578 118.354 11.351C118.005 11.0404 117.536 10.8851 116.945 10.8851C116.422 10.8851 115.964 11.0215 115.57 11.2942C115.179 11.5632 114.875 11.9438 114.655 12.4363C114.439 12.9249 114.331 13.4988 114.331 14.1578C114.331 14.8321 114.437 15.4192 114.649 15.9192C114.865 16.4192 115.168 16.8075 115.558 17.084C115.952 17.3605 116.414 17.4988 116.945 17.4988C117.293 17.4988 117.609 17.4382 117.893 17.3169C118.178 17.1957 118.418 17.0215 118.615 16.7942C118.812 16.5669 118.952 16.2942 119.036 15.976H120.376C120.301 16.4912 120.113 16.9552 119.814 17.3681C119.518 17.7772 119.126 18.1029 118.638 18.3453C118.153 18.584 117.589 18.7033 116.945 18.7033ZM125.996 18.7033C125.155 18.7033 124.429 18.5177 123.82 18.1465C123.214 17.7715 122.746 17.2488 122.416 16.5783C122.09 15.9041 121.928 15.12 121.928 14.226C121.928 13.3321 122.09 12.5442 122.416 11.8624C122.746 11.1768 123.204 10.6427 123.791 10.2601C124.382 9.87376 125.071 9.68058 125.859 9.68058C126.314 9.68058 126.763 9.75633 127.206 9.90785C127.649 10.0594 128.053 10.3056 128.416 10.6465C128.78 10.9836 129.07 11.4306 129.286 11.9874C129.501 12.5442 129.609 13.2298 129.609 14.0442V14.6124H122.882V13.4533H128.246C128.246 12.9609 128.147 12.5215 127.95 12.1351C127.757 11.7488 127.481 11.4438 127.121 11.2203C126.765 10.9969 126.344 10.8851 125.859 10.8851C125.325 10.8851 124.863 11.0177 124.473 11.2828C124.087 11.5442 123.789 11.8851 123.581 12.3056C123.373 12.726 123.268 13.1768 123.268 13.6578V14.4306C123.268 15.0897 123.382 15.6484 123.609 16.1067C123.84 16.5613 124.161 16.9078 124.57 17.1465C124.979 17.3813 125.454 17.4988 125.996 17.4988C126.348 17.4988 126.666 17.4495 126.95 17.351C127.238 17.2488 127.486 17.0972 127.695 16.8965C127.903 16.6919 128.064 16.4382 128.178 16.1351L129.473 16.4988C129.337 16.9382 129.107 17.3245 128.786 17.6578C128.464 17.9874 128.066 18.245 127.592 18.4306C127.119 18.6124 126.587 18.7033 125.996 18.7033ZM137.831 11.7488L136.626 12.0897C136.551 11.8889 136.439 11.6938 136.291 11.5044C136.147 11.3113 135.95 11.1522 135.7 11.0272C135.45 10.9022 135.13 10.8397 134.74 10.8397C134.206 10.8397 133.761 10.9628 133.405 11.209C133.053 11.4514 132.876 11.7601 132.876 12.1351C132.876 12.4685 132.998 12.7317 133.24 12.9249C133.482 13.1181 133.861 13.2791 134.376 13.4078L135.672 13.726C136.452 13.9154 137.034 14.2052 137.416 14.5953C137.799 14.9817 137.99 15.4798 137.99 16.0897C137.99 16.5897 137.846 17.0366 137.558 17.4306C137.274 17.8245 136.876 18.1351 136.365 18.3624C135.854 18.5897 135.259 18.7033 134.581 18.7033C133.691 18.7033 132.954 18.5101 132.371 18.1238C131.787 17.7374 131.418 17.173 131.263 16.4306L132.536 16.1124C132.657 16.5821 132.886 16.9344 133.223 17.1692C133.564 17.4041 134.009 17.5215 134.558 17.5215C135.183 17.5215 135.679 17.3889 136.047 17.1238C136.418 16.8548 136.604 16.5328 136.604 16.1578C136.604 15.8548 136.498 15.601 136.286 15.3965C136.073 15.1882 135.748 15.0328 135.308 14.9306L133.854 14.5897C133.054 14.4003 132.467 14.1067 132.092 13.709C131.721 13.3075 131.536 12.8056 131.536 12.2033C131.536 11.7109 131.674 11.2753 131.95 10.8965C132.231 10.5177 132.611 10.2203 133.092 10.0044C133.577 9.78853 134.126 9.68058 134.74 9.68058C135.604 9.68058 136.282 9.86997 136.774 10.2488C137.27 10.6275 137.623 11.1275 137.831 11.7488Z" fill="white" fill-opacity="0.5"/>
<path d="M178.104 18.5215V6.88512H182.036C182.949 6.88512 183.695 7.04989 184.275 7.37944C184.858 7.7052 185.29 8.14648 185.57 8.7033C185.851 9.26012 185.991 9.88133 185.991 10.5669C185.991 11.2525 185.851 11.8757 185.57 12.4363C185.294 12.9969 184.866 13.4438 184.286 13.7772C183.707 14.1067 182.964 14.2715 182.059 14.2715H179.241V13.0215H182.013C182.638 13.0215 183.14 12.9135 183.519 12.6976C183.898 12.4817 184.173 12.19 184.343 11.8226C184.517 11.4514 184.604 11.0328 184.604 10.5669C184.604 10.101 184.517 9.68436 184.343 9.31694C184.173 8.94951 183.896 8.66164 183.513 8.4533C183.131 8.24118 182.623 8.13512 181.991 8.13512H179.513V18.5215H178.104ZM188.079 18.5215V9.79421H189.374V11.1124H189.465C189.624 10.6806 189.912 10.3302 190.329 10.0613C190.746 9.79232 191.215 9.65785 191.738 9.65785C191.836 9.65785 191.96 9.65974 192.107 9.66353C192.255 9.66732 192.367 9.673 192.442 9.68058V11.0442C192.397 11.0328 192.293 11.0158 192.13 10.9931C191.971 10.9666 191.802 10.9533 191.624 10.9533C191.2 10.9533 190.821 11.0423 190.488 11.2203C190.158 11.3946 189.897 11.637 189.704 11.9476C189.514 12.2544 189.42 12.6048 189.42 12.9988V18.5215H188.079ZM194.032 18.5215V9.79421H195.373V18.5215H194.032ZM194.714 8.33967C194.452 8.33967 194.227 8.25065 194.038 8.07262C193.852 7.89459 193.759 7.68058 193.759 7.43058C193.759 7.18058 193.852 6.96656 194.038 6.78853C194.227 6.6105 194.452 6.52148 194.714 6.52148C194.975 6.52148 195.199 6.6105 195.384 6.78853C195.574 6.96656 195.668 7.18058 195.668 7.43058C195.668 7.68058 195.574 7.89459 195.384 8.07262C195.199 8.25065 194.975 8.33967 194.714 8.33967ZM204.965 9.79421L201.738 18.5215H200.374L197.147 9.79421H198.602L201.011 16.7488H201.102L203.511 9.79421H204.965ZM209.038 18.726C208.485 18.726 207.983 18.6219 207.532 18.4135C207.081 18.2014 206.723 17.8965 206.458 17.4988C206.193 17.0972 206.06 16.6124 206.06 16.0442C206.06 15.5442 206.159 15.1389 206.356 14.8283C206.553 14.5139 206.816 14.2677 207.146 14.0897C207.475 13.9116 207.839 13.7791 208.237 13.6919C208.638 13.601 209.041 13.5291 209.447 13.476C209.977 13.4078 210.407 13.3567 210.737 13.3226C211.07 13.2847 211.312 13.2222 211.464 13.1351C211.619 13.048 211.697 12.8965 211.697 12.6806V12.6351C211.697 12.0745 211.543 11.6389 211.237 11.3283C210.933 11.0177 210.473 10.8624 209.856 10.8624C209.216 10.8624 208.714 11.0025 208.35 11.2828C207.987 11.5632 207.731 11.8624 207.583 12.1806L206.31 11.726C206.538 11.1957 206.841 10.7828 207.219 10.4874C207.602 10.1882 208.019 9.97982 208.469 9.86239C208.924 9.74118 209.371 9.68058 209.81 9.68058C210.091 9.68058 210.413 9.71467 210.776 9.78285C211.144 9.84724 211.498 9.98171 211.839 10.1863C212.183 10.3908 212.469 10.6995 212.697 11.1124C212.924 11.5253 213.038 12.0783 213.038 12.7715V18.5215H211.697V17.3397H211.629C211.538 17.5291 211.386 17.7317 211.174 17.9476C210.962 18.1635 210.68 18.3472 210.327 18.4988C209.975 18.6503 209.545 18.726 209.038 18.726ZM209.242 17.5215C209.772 17.5215 210.219 17.4173 210.583 17.209C210.951 17.0007 211.227 16.7317 211.413 16.4022C211.602 16.0726 211.697 15.726 211.697 15.3624V14.1351C211.64 14.2033 211.515 14.2658 211.322 14.3226C211.132 14.3757 210.913 14.423 210.663 14.4647C210.416 14.5025 210.176 14.5366 209.941 14.5669C209.71 14.5935 209.522 14.6162 209.379 14.6351C209.03 14.6806 208.704 14.7544 208.401 14.8567C208.102 14.9552 207.86 15.1048 207.674 15.3056C207.492 15.5025 207.401 15.7715 207.401 16.1124C207.401 16.5783 207.574 16.9306 207.918 17.1692C208.267 17.4041 208.708 17.5215 209.242 17.5215ZM219.031 18.7033C218.212 18.7033 217.508 18.5101 216.917 18.1238C216.326 17.7374 215.871 17.2052 215.553 16.5272C215.235 15.8491 215.076 15.0745 215.076 14.2033C215.076 13.3169 215.239 12.5347 215.565 11.8567C215.894 11.1749 216.353 10.6427 216.94 10.2601C217.531 9.87376 218.22 9.68058 219.008 9.68058C219.621 9.68058 220.174 9.79421 220.667 10.0215C221.159 10.2488 221.563 10.5669 221.877 10.976C222.192 11.3851 222.387 11.8624 222.462 12.4078H221.121C221.019 12.0101 220.792 11.6578 220.44 11.351C220.091 11.0404 219.621 10.8851 219.031 10.8851C218.508 10.8851 218.049 11.0215 217.656 11.2942C217.265 11.5632 216.96 11.9438 216.741 12.4363C216.525 12.9249 216.417 13.4988 216.417 14.1578C216.417 14.8321 216.523 15.4192 216.735 15.9192C216.951 16.4192 217.254 16.8075 217.644 17.084C218.038 17.3605 218.5 17.4988 219.031 17.4988C219.379 17.4988 219.695 17.4382 219.979 17.3169C220.263 17.1957 220.504 17.0215 220.701 16.7942C220.898 16.5669 221.038 16.2942 221.121 15.976H222.462C222.387 16.4912 222.199 16.9552 221.9 17.3681C221.604 17.7772 221.212 18.1029 220.724 18.3453C220.239 18.584 219.674 18.7033 219.031 18.7033ZM225.286 21.7942C225.059 21.7942 224.856 21.7753 224.678 21.7374C224.5 21.7033 224.377 21.6692 224.309 21.6351L224.65 20.4533C224.976 20.5366 225.263 20.5669 225.513 20.5442C225.763 20.5215 225.985 20.4097 226.178 20.209C226.375 20.012 226.555 19.6919 226.718 19.2488L226.968 18.5669L223.741 9.79421H225.195L227.604 16.7488H227.695L230.104 9.79421H231.559L227.854 19.7942C227.688 20.245 227.481 20.6181 227.235 20.9135C226.989 21.2128 226.703 21.4344 226.377 21.5783C226.055 21.7222 225.692 21.7942 225.286 21.7942ZM238.011 18.5215V6.88512H241.942C242.855 6.88512 243.602 7.04989 244.181 7.37944C244.764 7.7052 245.196 8.14648 245.477 8.7033C245.757 9.26012 245.897 9.88133 245.897 10.5669C245.897 11.2525 245.757 11.8757 245.477 12.4363C245.2 12.9969 244.772 13.4438 244.192 13.7772C243.613 14.1067 242.871 14.2715 241.965 14.2715H239.147V13.0215H241.92C242.545 13.0215 243.047 12.9135 243.425 12.6976C243.804 12.4817 244.079 12.19 244.249 11.8226C244.424 11.4514 244.511 11.0328 244.511 10.5669C244.511 10.101 244.424 9.68436 244.249 9.31694C244.079 8.94951 243.802 8.66164 243.42 8.4533C243.037 8.24118 242.53 8.13512 241.897 8.13512H239.42V18.5215H238.011ZM251.437 18.7033C250.649 18.7033 249.958 18.5158 249.363 18.1408C248.772 17.7658 248.31 17.2412 247.977 16.5669C247.647 15.8927 247.482 15.1048 247.482 14.2033C247.482 13.2942 247.647 12.5007 247.977 11.8226C248.31 11.1446 248.772 10.6181 249.363 10.2431C249.958 9.86808 250.649 9.68058 251.437 9.68058C252.225 9.68058 252.914 9.86808 253.505 10.2431C254.1 10.6181 254.562 11.1446 254.891 11.8226C255.225 12.5007 255.391 13.2942 255.391 14.2033C255.391 15.1048 255.225 15.8927 254.891 16.5669C254.562 17.2412 254.1 17.7658 253.505 18.1408C252.914 18.5158 252.225 18.7033 251.437 18.7033ZM251.437 17.4988C252.035 17.4988 252.528 17.3453 252.914 17.0385C253.3 16.7317 253.586 16.3283 253.772 15.8283C253.958 15.3283 254.05 14.7866 254.05 14.2033C254.05 13.62 253.958 13.0764 253.772 12.5726C253.586 12.0688 253.3 11.6616 252.914 11.351C252.528 11.0404 252.035 10.8851 251.437 10.8851C250.838 10.8851 250.346 11.0404 249.96 11.351C249.573 11.6616 249.287 12.0688 249.102 12.5726C248.916 13.0764 248.823 13.62 248.823 14.2033C248.823 14.7866 248.916 15.3283 249.102 15.8283C249.287 16.3283 249.573 16.7317 249.96 17.0385C250.346 17.3453 250.838 17.4988 251.437 17.4988ZM258.779 6.88512V18.5215H257.438V6.88512H258.779ZM261.235 18.5215V9.79421H262.576V18.5215H261.235ZM261.917 8.33967C261.656 8.33967 261.43 8.25065 261.241 8.07262C261.055 7.89459 260.962 7.68058 260.962 7.43058C260.962 7.18058 261.055 6.96656 261.241 6.78853C261.43 6.6105 261.656 6.52148 261.917 6.52148C262.178 6.52148 262.402 6.6105 262.587 6.78853C262.777 6.96656 262.871 7.18058 262.871 7.43058C262.871 7.68058 262.777 7.89459 262.587 8.07262C262.402 8.25065 262.178 8.33967 261.917 8.33967ZM268.577 18.7033C267.759 18.7033 267.055 18.5101 266.464 18.1238C265.873 17.7374 265.418 17.2052 265.1 16.5272C264.782 15.8491 264.623 15.0745 264.623 14.2033C264.623 13.3169 264.786 12.5347 265.112 11.8567C265.441 11.1749 265.899 10.6427 266.487 10.2601C267.077 9.87376 267.767 9.68058 268.555 9.68058C269.168 9.68058 269.721 9.79421 270.214 10.0215C270.706 10.2488 271.11 10.5669 271.424 10.976C271.738 11.3851 271.933 11.8624 272.009 12.4078H270.668C270.566 12.0101 270.339 11.6578 269.987 11.351C269.638 11.0404 269.168 10.8851 268.577 10.8851C268.055 10.8851 267.596 11.0215 267.202 11.2942C266.812 11.5632 266.507 11.9438 266.288 12.4363C266.072 12.9249 265.964 13.4988 265.964 14.1578C265.964 14.8321 266.07 15.4192 266.282 15.9192C266.498 16.4192 266.801 16.8075 267.191 17.084C267.585 17.3605 268.047 17.4988 268.577 17.4988C268.926 17.4988 269.242 17.4382 269.526 17.3169C269.81 17.1957 270.051 17.0215 270.248 16.7942C270.445 16.5669 270.585 16.2942 270.668 15.976H272.009C271.933 16.4912 271.746 16.9552 271.447 17.3681C271.151 17.7772 270.759 18.1029 270.271 18.3453C269.786 18.584 269.221 18.7033 268.577 18.7033ZM274.833 21.7942C274.606 21.7942 274.403 21.7753 274.225 21.7374C274.047 21.7033 273.924 21.6692 273.856 21.6351L274.197 20.4533C274.522 20.5366 274.81 20.5669 275.06 20.5442C275.31 20.5215 275.532 20.4097 275.725 20.209C275.922 20.012 276.102 19.6919 276.265 19.2488L276.515 18.5669L273.288 9.79421H274.742L277.151 16.7488H277.242L279.651 9.79421H281.106L277.401 19.7942C277.235 20.245 277.028 20.6181 276.782 20.9135C276.536 21.2128 276.25 21.4344 275.924 21.5783C275.602 21.7222 275.238 21.7942 274.833 21.7942Z" fill="white" fill-opacity="0.5"/>
</svg>
