<svg width="728" height="133" viewBox="0 0 728 133" fill="none" xmlns="http://www.w3.org/2000/svg">
<path d="M23.9297 25.1592C23.8353 24.4984 23.5993 23.8753 23.2217 23.29C22.863 22.7048 22.391 22.2044 21.8057 21.7891C21.2393 21.3548 20.5879 21.015 19.8516 20.7695C19.1341 20.5241 18.3789 20.4014 17.5859 20.4014C16.8685 20.4014 16.1982 20.4769 15.5752 20.6279C14.9521 20.779 14.4046 21.015 13.9326 21.3359C13.4795 21.638 13.1113 22.0345 12.8281 22.5254C12.5638 23.0163 12.4316 23.6016 12.4316 24.2812C12.4316 25.1309 12.611 25.8105 12.9697 26.3203C13.3473 26.8112 13.8193 27.2171 14.3857 27.5381C14.971 27.859 15.613 28.1139 16.3115 28.3027C17.0101 28.4915 17.6898 28.6992 18.3506 28.9258L26.1387 31.5312C27.2148 31.9089 28.2249 32.4281 29.1689 33.0889C30.113 33.7497 30.9248 34.5521 31.6045 35.4961C32.3031 36.4401 32.8506 37.5257 33.2471 38.7529C33.6436 39.9801 33.8418 41.3584 33.8418 42.8877C33.8418 44.9645 33.4548 46.862 32.6807 48.5801C31.9255 50.2982 30.8587 51.7708 29.4805 52.998C28.1022 54.2253 26.4502 55.1787 24.5244 55.8584C22.5986 56.5381 20.4652 56.8779 18.124 56.8779C16.4814 56.8779 14.9238 56.6891 13.4512 56.3115C11.9974 55.9528 10.6663 55.4242 9.45801 54.7256C8.24967 54.027 7.19238 53.1963 6.28613 52.2334C5.37988 51.2516 4.67188 50.1471 4.16211 48.9199H1.24512V40.3955H11.4971V42.1514C11.4971 43.001 11.6292 43.7845 11.8936 44.502C12.1768 45.2194 12.5921 45.8424 13.1396 46.3711C13.6872 46.8997 14.3763 47.3151 15.207 47.6172C16.0378 47.9004 17.0101 48.042 18.124 48.042C19.8232 48.042 21.1165 47.6549 22.0039 46.8809C22.8913 46.0879 23.335 44.9928 23.335 43.5957C23.335 42.8783 23.1745 42.2835 22.8535 41.8115C22.5514 41.3206 22.1549 40.9147 21.6641 40.5938C21.1732 40.2539 20.6257 39.9707 20.0215 39.7441C19.4173 39.5176 18.8226 39.3099 18.2373 39.1211L11.752 37.0254C10.5247 36.6478 9.33529 36.1191 8.18359 35.4395C7.05078 34.7598 6.04069 33.9102 5.15332 32.8906C4.28483 31.8711 3.58626 30.6816 3.05762 29.3223C2.54785 27.944 2.29297 26.377 2.29297 24.6211C2.29297 22.582 2.67057 20.7695 3.42578 19.1836C4.18099 17.5788 5.23828 16.2288 6.59766 15.1338C7.95703 14.0387 9.57129 13.208 11.4404 12.6416C13.3096 12.0752 15.3581 11.792 17.5859 11.792C19.3418 11.792 20.9655 11.9997 22.457 12.415C23.9486 12.8115 25.2796 13.3496 26.4502 14.0293C27.6396 14.709 28.6403 15.4925 29.4521 16.3799C30.2829 17.2484 30.9154 18.1546 31.3496 19.0986H34.1816V27.6514H23.9297V25.1592ZM35.6702 41.2168C35.6702 39.0833 36.0572 37.082 36.8313 35.2129C37.6054 33.3438 38.6815 31.7106 40.0598 30.3135C41.4381 28.9163 43.0806 27.8118 44.9875 27C46.8944 26.1882 48.9901 25.7822 51.2746 25.7822C53.5592 25.7822 55.6549 26.1882 57.5618 27C59.4875 27.8118 61.1396 28.9163 62.5178 30.3135C63.8961 31.7106 64.9628 33.3438 65.718 35.2129C66.4921 37.082 66.8791 39.0833 66.8791 41.2168C66.8791 43.3503 66.5015 45.361 65.7463 47.249C65.01 49.1182 63.9527 50.7607 62.5745 52.1768C61.2151 53.5739 59.5725 54.6784 57.6467 55.4902C55.7398 56.3021 53.6158 56.708 51.2746 56.708C48.9146 56.708 46.7717 56.3021 44.8459 55.4902C42.939 54.6784 41.3059 53.5739 39.9465 52.1768C38.5871 50.7796 37.5299 49.1465 36.7746 47.2773C36.0383 45.3893 35.6702 43.3691 35.6702 41.2168ZM44.1379 41.2168C44.1379 42.3307 44.3267 43.3597 44.7043 44.3037C45.0819 45.2288 45.5917 46.0312 46.2336 46.7109C46.8944 47.3906 47.6496 47.9193 48.4993 48.2969C49.3677 48.6745 50.2929 48.8633 51.2746 48.8633C52.2753 48.8633 53.2004 48.6839 54.05 48.3252C54.9185 47.9476 55.6643 47.4189 56.2873 46.7393C56.9293 46.0596 57.4296 45.2572 57.7883 44.332C58.147 43.388 58.3264 42.3496 58.3264 41.2168C58.3264 40.0462 58.147 38.9889 57.7883 38.0449C57.4296 37.1009 56.9293 36.2985 56.2873 35.6377C55.6643 34.9769 54.9185 34.4766 54.05 34.1367C53.2004 33.778 52.2753 33.6081 51.2746 33.627C50.2929 33.6081 49.3677 33.778 48.4993 34.1367C47.6496 34.4766 46.8944 34.9769 46.2336 35.6377C45.5917 36.2985 45.0819 37.1009 44.7043 38.0449C44.3267 38.9889 44.1379 40.0462 44.1379 41.2168ZM68.8491 11.9336H82.0747V48.2402H86.6059V56H68.8491V48.2402H73.3803V19.6934H68.8491V11.9336ZM108.004 26.6602H121.881V48.2402H125.421V56H112.988V53.5078C111.987 54.4141 110.817 55.1126 109.476 55.6035C108.136 56.0944 106.588 56.3398 104.832 56.3398C103.208 56.3398 101.679 56.085 100.244 55.5752C98.809 55.0654 97.5534 54.3008 96.4773 53.2812C95.42 52.2428 94.5798 50.9495 93.9568 49.4014C93.3526 47.8532 93.0505 46.0312 93.0505 43.9355V34.4199H89.2273V26.6602H102.198V43.9355C102.198 45.8991 102.698 47.3717 103.699 48.3535C104.7 49.3164 106.002 49.7979 107.607 49.7979C108.74 49.7979 109.769 49.4486 110.694 48.75C111.619 48.0514 112.289 47.1074 112.705 45.918V34.4199H108.004V26.6602ZM139.059 26.6602H144.921V34.0801H139.002L138.945 46.4844C138.945 47.2018 139.002 47.7871 139.115 48.2402C139.228 48.6745 139.389 49.0238 139.597 49.2881C139.823 49.5524 140.088 49.7318 140.39 49.8262C140.692 49.9206 141.041 49.9678 141.437 49.9678C142.155 49.9678 142.787 49.9017 143.335 49.7695C143.882 49.6185 144.43 49.4486 144.978 49.2598L146.195 54.7256C145.232 55.3298 144.156 55.8112 142.967 56.1699C141.796 56.5286 140.399 56.708 138.775 56.708C137.624 56.708 136.519 56.5098 135.462 56.1133C134.423 55.7168 133.508 55.1221 132.715 54.3291C131.922 53.5173 131.289 52.5072 130.817 51.2988C130.345 50.0905 130.119 48.6839 130.138 47.0791L130.223 34.0801H126.003V26.6602H130.251L130.308 19.6367L139.115 15.4453L139.059 26.6602ZM148.902 26.6602H162.071V48.2402H166.149V56H148.902V48.2402H153.32V34.4199H148.902V26.6602ZM152.866 17.2012C152.866 16.5026 152.989 15.8512 153.235 15.2471C153.499 14.624 153.858 14.0859 154.311 13.6328C154.764 13.1797 155.293 12.821 155.897 12.5566C156.52 12.2923 157.19 12.1602 157.907 12.1602C158.587 12.1602 159.229 12.2923 159.833 12.5566C160.437 12.821 160.966 13.1797 161.419 13.6328C161.872 14.0859 162.231 14.624 162.495 15.2471C162.76 15.8512 162.892 16.5026 162.892 17.2012C162.892 17.8997 162.76 18.5605 162.495 19.1836C162.231 19.7878 161.872 20.3164 161.419 20.7695C160.966 21.2227 160.437 21.5814 159.833 21.8457C159.229 22.11 158.587 22.2422 157.907 22.2422C157.19 22.2422 156.52 22.11 155.897 21.8457C155.293 21.5814 154.764 21.2227 154.311 20.7695C153.858 20.3164 153.499 19.7878 153.235 19.1836C152.989 18.5605 152.866 17.8997 152.866 17.2012ZM169.308 41.2168C169.308 39.0833 169.695 37.082 170.469 35.2129C171.243 33.3438 172.319 31.7106 173.698 30.3135C175.076 28.9163 176.719 27.8118 178.625 27C180.532 26.1882 182.628 25.7822 184.913 25.7822C187.197 25.7822 189.293 26.1882 191.2 27C193.125 27.8118 194.777 28.9163 196.156 30.3135C197.534 31.7106 198.601 33.3438 199.356 35.2129C200.13 37.082 200.517 39.0833 200.517 41.2168C200.517 43.3503 200.139 45.361 199.384 47.249C198.648 49.1182 197.591 50.7607 196.212 52.1768C194.853 53.5739 193.21 54.6784 191.285 55.4902C189.378 56.3021 187.254 56.708 184.913 56.708C182.553 56.708 180.41 56.3021 178.484 55.4902C176.577 54.6784 174.944 53.5739 173.584 52.1768C172.225 50.7796 171.168 49.1465 170.413 47.2773C169.676 45.3893 169.308 43.3691 169.308 41.2168ZM177.776 41.2168C177.776 42.3307 177.965 43.3597 178.342 44.3037C178.72 45.2288 179.23 46.0312 179.872 46.7109C180.532 47.3906 181.288 47.9193 182.137 48.2969C183.006 48.6745 183.931 48.8633 184.913 48.8633C185.913 48.8633 186.838 48.6839 187.688 48.3252C188.556 47.9476 189.302 47.4189 189.925 46.7393C190.567 46.0596 191.067 45.2572 191.426 44.332C191.785 43.388 191.964 42.3496 191.964 41.2168C191.964 40.0462 191.785 38.9889 191.426 38.0449C191.067 37.1009 190.567 36.2985 189.925 35.6377C189.302 34.9769 188.556 34.4766 187.688 34.1367C186.838 33.778 185.913 33.6081 184.913 33.627C183.931 33.6081 183.006 33.778 182.137 34.1367C181.288 34.4766 180.532 34.9769 179.872 35.6377C179.23 36.2985 178.72 37.1009 178.342 38.0449C177.965 38.9889 177.776 40.0462 177.776 41.2168ZM227.211 39.1211C227.211 37.4785 226.776 36.1947 225.908 35.2695C225.039 34.3255 223.888 33.8535 222.453 33.8535C221.471 33.8535 220.48 34.0706 219.479 34.5049C218.479 34.9391 217.506 35.751 216.562 36.9404V48.2402H221.32V56H203.082V48.2402H207.386V34.4199H203.138V26.6602H216.506V29.2373C217.733 28.2744 219.102 27.5192 220.612 26.9717C222.141 26.4053 223.746 26.1221 225.426 26.1221C228.957 26.1221 231.676 27.1133 233.583 29.0957C235.49 31.0592 236.443 33.9385 236.443 37.7334V48.2402H240.606V56H227.211V39.1211ZM261.409 35.6377C261.409 35.1846 261.258 34.7503 260.956 34.335C260.673 33.9196 260.248 33.5609 259.682 33.2588C259.115 32.9378 258.417 32.6829 257.586 32.4941C256.774 32.3053 255.849 32.2109 254.81 32.2109C254.414 32.2109 253.989 32.2487 253.536 32.3242C253.083 32.3809 252.658 32.4941 252.262 32.6641C251.884 32.834 251.563 33.07 251.299 33.3721C251.053 33.6553 250.931 34.0234 250.931 34.4766C250.931 34.7031 250.959 34.9202 251.016 35.1279C251.091 35.3356 251.223 35.5339 251.412 35.7227C251.601 35.9115 251.856 36.0908 252.177 36.2607C252.517 36.4118 252.951 36.5345 253.479 36.6289L258.804 37.6768C260.729 38.0544 262.344 38.5264 263.646 39.0928C264.949 39.6592 265.997 40.32 266.79 41.0752C267.583 41.8304 268.149 42.6706 268.489 43.5957C268.848 44.5208 269.027 45.5215 269.027 46.5977C269.027 48.278 268.631 49.7507 267.838 51.0156C267.064 52.2806 266.035 53.3379 264.751 54.1875C263.486 55.0182 262.051 55.6413 260.446 56.0566C258.86 56.4909 257.255 56.708 255.632 56.708C254.574 56.708 253.612 56.6419 252.743 56.5098C251.893 56.3776 251.119 56.1982 250.421 55.9717C249.741 55.7451 249.128 55.4808 248.58 55.1787C248.051 54.8577 247.56 54.5085 247.107 54.1309H241.981V46.2578H249.996V46.4277C250.015 46.9753 250.185 47.4567 250.506 47.8721C250.827 48.2686 251.242 48.6084 251.752 48.8916C252.281 49.1748 252.875 49.3919 253.536 49.543C254.197 49.6751 254.895 49.7412 255.632 49.7412C257.331 49.7412 258.568 49.5241 259.342 49.0898C260.116 48.6367 260.503 48.0609 260.503 47.3623C260.503 46.8148 260.314 46.3522 259.936 45.9746C259.559 45.5781 258.889 45.2666 257.926 45.04L252.488 43.8789C249.071 43.2181 246.494 42.123 244.757 40.5938C243.02 39.0456 242.151 37.0632 242.151 34.6465C242.151 33.2305 242.482 31.9466 243.143 30.7949C243.803 29.6243 244.7 28.6331 245.833 27.8213C246.966 26.9906 248.287 26.3486 249.798 25.8955C251.327 25.4424 252.96 25.2158 254.697 25.2158C255.887 25.2158 256.944 25.2913 257.869 25.4424C258.794 25.5745 259.625 25.7539 260.361 25.9805C261.098 26.207 261.74 26.4808 262.287 26.8018C262.853 27.1038 263.354 27.4248 263.788 27.7646H268.716V35.6377H261.409ZM282.964 13.0664H316.184V27.708H306.98V21.6758H296.813V30.71H305.621V38.9512H296.813V48.2402H301.344V56H282.964V48.2402H287.411V21.6758H282.964V13.0664ZM316.71 26.6602H329.879V48.2402H333.957V56H316.71V48.2402H321.128V34.4199H316.71V26.6602ZM320.674 17.2012C320.674 16.5026 320.797 15.8512 321.043 15.2471C321.307 14.624 321.666 14.0859 322.119 13.6328C322.572 13.1797 323.101 12.821 323.705 12.5566C324.328 12.2923 324.998 12.1602 325.715 12.1602C326.395 12.1602 327.037 12.2923 327.641 12.5566C328.245 12.821 328.774 13.1797 329.227 13.6328C329.68 14.0859 330.039 14.624 330.303 15.2471C330.568 15.8512 330.7 16.5026 330.7 17.2012C330.7 17.8997 330.568 18.5605 330.303 19.1836C330.039 19.7878 329.68 20.3164 329.227 20.7695C328.774 21.2227 328.245 21.5814 327.641 21.8457C327.037 22.11 326.395 22.2422 325.715 22.2422C324.998 22.2422 324.328 22.11 323.705 21.8457C323.101 21.5814 322.572 21.2227 322.119 20.7695C321.666 20.3164 321.307 19.7878 321.043 19.1836C320.797 18.5605 320.674 17.8997 320.674 17.2012ZM363.964 37.3369H356.006V34.3066C355.232 34.3066 354.524 34.3633 353.882 34.4766C353.24 34.571 352.673 34.7409 352.182 34.9863C351.71 35.2318 351.305 35.5716 350.965 36.0059C350.644 36.4401 350.417 36.9782 350.285 37.6201V48.2402H356.261V56H337.116V48.2402H341.506V34.4199H337.173V26.6602H350.228V28.7275C351.059 28.0667 351.994 27.557 353.032 27.1982C354.071 26.8395 355.203 26.6602 356.431 26.6602C357.677 26.6602 358.96 26.6696 360.282 26.6885C361.604 26.7074 362.831 26.7168 363.964 26.7168V37.3369ZM385.758 35.6377C385.758 35.1846 385.607 34.7503 385.305 34.335C385.022 33.9196 384.597 33.5609 384.03 33.2588C383.464 32.9378 382.765 32.6829 381.935 32.4941C381.123 32.3053 380.198 32.2109 379.159 32.2109C378.763 32.2109 378.338 32.2487 377.885 32.3242C377.432 32.3809 377.007 32.4941 376.61 32.6641C376.233 32.834 375.912 33.07 375.648 33.3721C375.402 33.6553 375.279 34.0234 375.279 34.4766C375.279 34.7031 375.308 34.9202 375.364 35.1279C375.44 35.3356 375.572 35.5339 375.761 35.7227C375.95 35.9115 376.205 36.0908 376.526 36.2607C376.865 36.4118 377.3 36.5345 377.828 36.6289L383.152 37.6768C385.078 38.0544 386.693 38.5264 387.995 39.0928C389.298 39.6592 390.346 40.32 391.139 41.0752C391.932 41.8304 392.498 42.6706 392.838 43.5957C393.197 44.5208 393.376 45.5215 393.376 46.5977C393.376 48.278 392.98 49.7507 392.187 51.0156C391.413 52.2806 390.384 53.3379 389.1 54.1875C387.835 55.0182 386.4 55.6413 384.795 56.0566C383.209 56.4909 381.604 56.708 379.981 56.708C378.923 56.708 377.96 56.6419 377.092 56.5098C376.242 56.3776 375.468 56.1982 374.77 55.9717C374.09 55.7451 373.476 55.4808 372.929 55.1787C372.4 54.8577 371.909 54.5085 371.456 54.1309H366.33V46.2578H374.345V46.4277C374.364 46.9753 374.534 47.4567 374.855 47.8721C375.176 48.2686 375.591 48.6084 376.101 48.8916C376.629 49.1748 377.224 49.3919 377.885 49.543C378.546 49.6751 379.244 49.7412 379.981 49.7412C381.68 49.7412 382.916 49.5241 383.691 49.0898C384.465 48.6367 384.852 48.0609 384.852 47.3623C384.852 46.8148 384.663 46.3522 384.285 45.9746C383.908 45.5781 383.237 45.2666 382.275 45.04L376.837 43.8789C373.42 43.2181 370.843 42.123 369.106 40.5938C367.369 39.0456 366.5 37.0632 366.5 34.6465C366.5 33.2305 366.831 31.9466 367.491 30.7949C368.152 29.6243 369.049 28.6331 370.182 27.8213C371.315 26.9906 372.636 26.3486 374.147 25.8955C375.676 25.4424 377.309 25.2158 379.046 25.2158C380.235 25.2158 381.293 25.2913 382.218 25.4424C383.143 25.5745 383.974 25.7539 384.71 25.9805C385.446 26.207 386.088 26.4808 386.636 26.8018C387.202 27.1038 387.703 27.4248 388.137 27.7646H393.065V35.6377H385.758ZM407.58 26.6602H413.443V34.0801H407.524L407.467 46.4844C407.467 47.2018 407.524 47.7871 407.637 48.2402C407.75 48.6745 407.911 49.0238 408.119 49.2881C408.345 49.5524 408.609 49.7318 408.911 49.8262C409.214 49.9206 409.563 49.9678 409.959 49.9678C410.677 49.9678 411.309 49.9017 411.857 49.7695C412.404 49.6185 412.952 49.4486 413.499 49.2598L414.717 54.7256C413.754 55.3298 412.678 55.8112 411.489 56.1699C410.318 56.5286 408.921 56.708 407.297 56.708C406.146 56.708 405.041 56.5098 403.984 56.1133C402.945 55.7168 402.03 55.1221 401.237 54.3291C400.444 53.5173 399.811 52.5072 399.339 51.2988C398.867 50.0905 398.641 48.6839 398.66 47.0791L398.745 34.0801H394.525V26.6602H398.773L398.829 19.6367L407.637 15.4453L407.58 26.6602ZM420.963 47.9854L429.601 51.0156L421.53 66.3369L415.724 64.1279L420.963 47.9854ZM469.678 26.1221C468.621 24.6117 467.667 23.5449 466.817 22.9219C465.968 22.2799 465.052 21.8268 464.07 21.5625C463.089 21.2793 462.06 21.1377 460.983 21.1377C459.398 21.1377 457.925 21.4964 456.566 22.2139C455.206 22.9124 454.026 23.8753 453.025 25.1025C452.044 26.3109 451.27 27.7269 450.703 29.3506C450.137 30.9554 449.854 32.6641 449.854 34.4766C449.854 36.3079 450.127 38.0355 450.675 39.6592C451.241 41.264 452.015 42.6706 452.997 43.8789C453.979 45.0872 455.15 46.0501 456.509 46.7676C457.868 47.4661 459.36 47.8154 460.983 47.8154C462.116 47.8154 463.174 47.6361 464.155 47.2773C465.137 46.8997 466.025 46.4089 466.817 45.8047C467.629 45.2005 468.337 44.5114 468.941 43.7373C469.546 42.9443 470.018 42.123 470.358 41.2734L479.477 43.8223C478.891 45.6725 478.032 47.3906 476.9 48.9766C475.767 50.5436 474.398 51.903 472.793 53.0547C471.207 54.2064 469.414 55.1126 467.412 55.7734C465.43 56.4342 463.287 56.7646 460.983 56.7646C459.039 56.7646 457.179 56.5003 455.404 55.9717C453.63 55.443 451.968 54.6973 450.42 53.7344C448.891 52.7715 447.494 51.6104 446.229 50.251C444.983 48.8916 443.916 47.3906 443.028 45.748C442.141 44.0866 441.452 42.3118 440.961 40.4238C440.47 38.5169 440.225 36.5345 440.225 34.4766C440.225 31.3991 440.763 28.5199 441.839 25.8389C442.915 23.139 444.388 20.7884 446.257 18.7871C448.126 16.7669 450.316 15.181 452.827 14.0293C455.357 12.8587 458.076 12.2734 460.983 12.2734C463.306 12.2734 465.26 12.5661 466.846 13.1514C468.432 13.7178 470.178 14.8506 472.085 16.5498H478.429V26.1221H469.678ZM482.664 41.2168C482.664 39.0833 483.051 37.082 483.826 35.2129C484.6 33.3438 485.676 31.7106 487.054 30.3135C488.432 28.9163 490.075 27.8118 491.982 27C493.889 26.1882 495.984 25.7822 498.269 25.7822C500.553 25.7822 502.649 26.1882 504.556 27C506.482 27.8118 508.134 28.9163 509.512 30.3135C510.89 31.7106 511.957 33.3438 512.712 35.2129C513.486 37.082 513.873 39.0833 513.873 41.2168C513.873 43.3503 513.496 45.361 512.741 47.249C512.004 49.1182 510.947 50.7607 509.569 52.1768C508.209 53.5739 506.567 54.6784 504.641 55.4902C502.734 56.3021 500.61 56.708 498.269 56.708C495.909 56.708 493.766 56.3021 491.84 55.4902C489.933 54.6784 488.3 53.5739 486.941 52.1768C485.581 50.7796 484.524 49.1465 483.769 47.2773C483.033 45.3893 482.664 43.3691 482.664 41.2168ZM491.132 41.2168C491.132 42.3307 491.321 43.3597 491.699 44.3037C492.076 45.2288 492.586 46.0312 493.228 46.7109C493.889 47.3906 494.644 47.9193 495.493 48.2969C496.362 48.6745 497.287 48.8633 498.269 48.8633C499.27 48.8633 500.195 48.6839 501.044 48.3252C501.913 47.9476 502.659 47.4189 503.282 46.7393C503.923 46.0596 504.424 45.2572 504.783 44.332C505.141 43.388 505.321 42.3496 505.321 41.2168C505.321 40.0462 505.141 38.9889 504.783 38.0449C504.424 37.1009 503.923 36.2985 503.282 35.6377C502.659 34.9769 501.913 34.4766 501.044 34.1367C500.195 33.778 499.27 33.6081 498.269 33.627C497.287 33.6081 496.362 33.778 495.493 34.1367C494.644 34.4766 493.889 34.9769 493.228 35.6377C492.586 36.2985 492.076 37.1009 491.699 38.0449C491.321 38.9889 491.132 40.0462 491.132 41.2168ZM533.798 11.9336H546.628V48.2402H552.348V56H537.905V54.8672C536.885 55.3958 535.837 55.8112 534.761 56.1133C533.704 56.4154 532.628 56.5664 531.533 56.5664C529.286 56.5664 527.219 56.1699 525.331 55.377C523.461 54.5651 521.847 53.4606 520.488 52.0635C519.147 50.6663 518.1 49.0332 517.344 47.1641C516.589 45.276 516.211 43.2559 516.211 41.1035C516.211 38.9512 516.58 36.9499 517.316 35.0996C518.071 33.2305 519.11 31.6068 520.431 30.2285C521.772 28.8503 523.367 27.7646 525.217 26.9717C527.086 26.1787 529.135 25.7822 531.363 25.7822C532.59 25.7822 533.742 25.9049 534.818 26.1504C535.894 26.377 536.923 26.7074 537.905 27.1416V19.6934H533.798V11.9336ZM532.014 48.75C533.26 48.7122 534.384 48.3913 535.384 47.7871C536.404 47.1829 537.244 46.39 537.905 45.4082V36.7705C537.244 35.7699 536.385 34.9958 535.328 34.4482C534.289 33.8818 533.185 33.6081 532.014 33.627C531.032 33.6081 530.107 33.778 529.239 34.1367C528.389 34.4954 527.634 35.0052 526.973 35.666C526.331 36.3268 525.822 37.1198 525.444 38.0449C525.066 38.9701 524.878 40.0179 524.878 41.1885C524.878 42.3402 525.066 43.388 525.444 44.332C525.822 45.2572 526.331 46.0501 526.973 46.7109C527.634 47.3529 528.389 47.8438 529.239 48.1836C530.107 48.5234 531.032 48.7122 532.014 48.75ZM561.965 43.1709L562.05 44.0488C562.257 44.8984 562.607 45.6442 563.097 46.2861C563.607 46.9281 564.202 47.4661 564.882 47.9004C565.561 48.3346 566.317 48.665 567.147 48.8916C567.978 49.0993 568.818 49.2031 569.668 49.2031C570.517 49.2031 571.32 49.1559 572.075 49.0615C572.849 48.9482 573.595 48.8066 574.312 48.6367C575.03 48.4479 575.728 48.2402 576.408 48.0137C577.088 47.7682 577.777 47.5133 578.475 47.249L581.591 53.0547C580.514 53.7155 579.523 54.2819 578.617 54.7539C577.73 55.207 576.833 55.5846 575.927 55.8867C575.02 56.1888 574.057 56.4059 573.038 56.5381C572.018 56.6891 570.829 56.7646 569.47 56.7646C566.921 56.7646 564.655 56.3493 562.673 55.5186C560.69 54.6689 559.019 53.5267 557.66 52.0918C556.319 50.6569 555.291 48.9766 554.573 47.0508C553.874 45.125 553.525 43.0859 553.525 40.9336C553.525 38.7812 553.893 36.7611 554.63 34.873C555.385 32.985 556.442 31.3424 557.802 29.9453C559.161 28.5293 560.785 27.4154 562.673 26.6035C564.561 25.7917 566.656 25.3857 568.96 25.3857C571.263 25.3857 573.302 25.7728 575.077 26.5469C576.871 27.3021 578.381 28.3594 579.608 29.7188C580.835 31.0592 581.779 32.6452 582.44 34.4766C583.101 36.2891 583.46 38.2432 583.516 40.3389C583.573 40.8109 583.601 41.2829 583.601 41.7549C583.62 42.208 583.611 42.68 583.573 43.1709H561.965ZM568.733 32.4658C567.676 32.4658 566.77 32.598 566.014 32.8623C565.278 33.1077 564.655 33.457 564.145 33.9102C563.636 34.3444 563.23 34.8447 562.928 35.4111C562.625 35.9775 562.389 36.5723 562.22 37.1953H574.482C574.35 36.5534 574.161 35.9492 573.916 35.3828C573.67 34.8164 573.331 34.3161 572.896 33.8818C572.462 33.4476 571.905 33.1077 571.225 32.8623C570.565 32.598 569.734 32.4658 568.733 32.4658ZM624.131 13.0664H640.444V20.8545H636.96V56H627.558L609.688 28.2461V48.2402H613.284V56H597V48.2402H600.54V20.8545H597.057V13.0664H610.028L627.784 41.1885V20.8545H624.131V13.0664ZM650.032 43.1709L650.117 44.0488C650.324 44.8984 650.674 45.6442 651.165 46.2861C651.674 46.9281 652.269 47.4661 652.949 47.9004C653.628 48.3346 654.384 48.665 655.214 48.8916C656.045 49.0993 656.885 49.2031 657.735 49.2031C658.584 49.2031 659.387 49.1559 660.142 49.0615C660.916 48.9482 661.662 48.8066 662.379 48.6367C663.097 48.4479 663.795 48.2402 664.475 48.0137C665.155 47.7682 665.844 47.5133 666.542 47.249L669.658 53.0547C668.582 53.7155 667.59 54.2819 666.684 54.7539C665.797 55.207 664.9 55.5846 663.994 55.8867C663.087 56.1888 662.125 56.4059 661.105 56.5381C660.085 56.6891 658.896 56.7646 657.537 56.7646C654.988 56.7646 652.722 56.3493 650.74 55.5186C648.757 54.6689 647.086 53.5267 645.727 52.0918C644.387 50.6569 643.358 48.9766 642.64 47.0508C641.942 45.125 641.592 43.0859 641.592 40.9336C641.592 38.7812 641.96 36.7611 642.697 34.873C643.452 32.985 644.509 31.3424 645.869 29.9453C647.228 28.5293 648.852 27.4154 650.74 26.6035C652.628 25.7917 654.723 25.3857 657.027 25.3857C659.33 25.3857 661.369 25.7728 663.144 26.5469C664.938 27.3021 666.448 28.3594 667.675 29.7188C668.903 31.0592 669.847 32.6452 670.507 34.4766C671.168 36.2891 671.527 38.2432 671.583 40.3389C671.64 40.8109 671.668 41.2829 671.668 41.7549C671.687 42.208 671.678 42.68 671.64 43.1709H650.032ZM656.8 32.4658C655.743 32.4658 654.837 32.598 654.082 32.8623C653.345 33.1077 652.722 33.457 652.212 33.9102C651.703 34.3444 651.297 34.8447 650.995 35.4111C650.693 35.9775 650.457 36.5723 650.287 37.1953H662.549C662.417 36.5534 662.228 35.9492 661.983 35.3828C661.737 34.8164 661.398 34.3161 660.963 33.8818C660.529 33.4476 659.972 33.1077 659.292 32.8623C658.632 32.598 657.801 32.4658 656.8 32.4658ZM691.424 48.2402H693.094L689.441 44.7568L685.646 48.2402H687.544V56H673.723V48.2402H676.64L683.919 41.1035L677.178 34.4199H673.723V26.6602H687.544V34.4199H686.213L689.639 37.4502L692.925 34.4199H691.367V26.6602H705.159V34.4199H701.93L695.162 41.1318L702.327 48.2402H705.244V56H691.424V48.2402ZM718.599 26.6602H724.461V34.0801H718.542L718.485 46.4844C718.485 47.2018 718.542 47.7871 718.655 48.2402C718.769 48.6745 718.929 49.0238 719.137 49.2881C719.363 49.5524 719.628 49.7318 719.93 49.8262C720.232 49.9206 720.581 49.9678 720.978 49.9678C721.695 49.9678 722.327 49.9017 722.875 49.7695C723.423 49.6185 723.97 49.4486 724.518 49.2598L725.735 54.7256C724.772 55.3298 723.696 55.8112 722.507 56.1699C721.336 56.5286 719.939 56.708 718.315 56.708C717.164 56.708 716.059 56.5098 715.002 56.1133C713.964 55.7168 713.048 55.1221 712.255 54.3291C711.462 53.5173 710.829 52.5072 710.357 51.2988C709.885 50.0905 709.659 48.6839 709.678 47.0791L709.763 34.0801H705.543V26.6602H709.791L709.848 19.6367L718.655 15.4453L718.599 26.6602Z" fill="#414141"/>
<path d="M54.0659 89.6602H59.9282V97.0801H54.0092L53.9526 109.484C53.9526 110.202 54.0092 110.787 54.1225 111.24C54.2358 111.674 54.3963 112.024 54.604 112.288C54.8305 112.552 55.0949 112.732 55.3969 112.826C55.699 112.921 56.0483 112.968 56.4448 112.968C57.1622 112.968 57.7947 112.902 58.3423 112.77C58.8898 112.618 59.4373 112.449 59.9848 112.26L61.2026 117.726C60.2397 118.33 59.1635 118.811 57.9741 119.17C56.8035 119.529 55.4064 119.708 53.7827 119.708C52.631 119.708 51.5265 119.51 50.4692 119.113C49.4308 118.717 48.5151 118.122 47.7221 117.329C46.9292 116.517 46.2967 115.507 45.8247 114.299C45.3527 113.09 45.1261 111.684 45.145 110.079L45.2299 97.0801H41.0102V89.6602H45.2583L45.3149 82.6367L54.1225 78.4453L54.0659 89.6602ZM63.2575 74.9336H76.4831V92.3789C77.597 91.3594 78.8148 90.5664 80.1364 90C81.4769 89.4147 82.9496 89.1221 84.5544 89.1221C88.085 89.1221 90.7849 90.1133 92.654 92.0957C94.5232 94.0592 95.4577 96.9385 95.4577 100.733V111.24H99.7624V119H86.6501V102.716C86.6501 101.073 86.2442 99.7799 85.4323 98.8359C84.6205 97.8919 83.5726 97.4199 82.2888 97.4199C81.4392 97.4199 80.514 97.6559 79.5134 98.1279C78.5127 98.5999 77.5026 99.2891 76.4831 100.195V111.24H80.7878V119H63.2575V111.24H67.7888V82.6934H63.2575V74.9336ZM128.042 100.337H120.084V97.3066C119.31 97.3066 118.602 97.3633 117.96 97.4766C117.318 97.571 116.752 97.7409 116.261 97.9863C115.789 98.2318 115.383 98.5716 115.043 99.0059C114.722 99.4401 114.495 99.9782 114.363 100.62V111.24H120.339V119H101.194V111.24H105.584V97.4199H101.251V89.6602H114.307V91.7275C115.137 91.0667 116.072 90.557 117.11 90.1982C118.149 89.8395 119.282 89.6602 120.509 89.6602C121.755 89.6602 123.039 89.6696 124.36 89.6885C125.682 89.7074 126.909 89.7168 128.042 89.7168V100.337ZM130.89 104.217C130.89 102.083 131.277 100.082 132.051 98.2129C132.825 96.3438 133.901 94.7106 135.279 93.3135C136.658 91.9163 138.3 90.8118 140.207 90C142.114 89.1882 144.21 88.7822 146.494 88.7822C148.779 88.7822 150.875 89.1882 152.781 90C154.707 90.8118 156.359 91.9163 157.737 93.3135C159.116 94.7106 160.182 96.3438 160.938 98.2129C161.712 100.082 162.099 102.083 162.099 104.217C162.099 106.35 161.721 108.361 160.966 110.249C160.23 112.118 159.172 113.761 157.794 115.177C156.435 116.574 154.792 117.678 152.866 118.49C150.959 119.302 148.835 119.708 146.494 119.708C144.134 119.708 141.991 119.302 140.066 118.49C138.159 117.678 136.526 116.574 135.166 115.177C133.807 113.78 132.75 112.146 131.994 110.277C131.258 108.389 130.89 106.369 130.89 104.217ZM139.358 104.217C139.358 105.331 139.546 106.36 139.924 107.304C140.302 108.229 140.811 109.031 141.453 109.711C142.114 110.391 142.869 110.919 143.719 111.297C144.587 111.674 145.513 111.863 146.494 111.863C147.495 111.863 148.42 111.684 149.27 111.325C150.138 110.948 150.884 110.419 151.507 109.739C152.149 109.06 152.649 108.257 153.008 107.332C153.367 106.388 153.546 105.35 153.546 104.217C153.546 103.046 153.367 101.989 153.008 101.045C152.649 100.101 152.149 99.2985 151.507 98.6377C150.884 97.9769 150.138 97.4766 149.27 97.1367C148.42 96.778 147.495 96.6081 146.494 96.627C145.513 96.6081 144.587 96.778 143.719 97.1367C142.869 97.4766 142.114 97.9769 141.453 98.6377C140.811 99.2985 140.302 100.101 139.924 101.045C139.546 101.989 139.358 103.046 139.358 104.217ZM182.873 89.6602H196.75V111.24H200.29V119H187.858V116.508C186.857 117.414 185.687 118.113 184.346 118.604C183.006 119.094 181.457 119.34 179.702 119.34C178.078 119.34 176.549 119.085 175.114 118.575C173.679 118.065 172.423 117.301 171.347 116.281C170.29 115.243 169.45 113.95 168.827 112.401C168.222 110.853 167.92 109.031 167.92 106.936V97.4199H164.097V89.6602H177.068V106.936C177.068 108.899 177.568 110.372 178.569 111.354C179.569 112.316 180.872 112.798 182.477 112.798C183.61 112.798 184.639 112.449 185.564 111.75C186.489 111.051 187.159 110.107 187.575 108.918V97.4199H182.873V89.6602ZM224.633 117.471C223.576 118.075 222.519 118.509 221.462 118.773C220.404 119.038 219.328 119.17 218.233 119.17C215.967 119.17 213.881 118.783 211.974 118.009C210.067 117.235 208.415 116.168 207.018 114.809C205.64 113.43 204.564 111.807 203.79 109.938C203.016 108.068 202.629 106.039 202.629 103.849C202.629 101.791 202.997 99.8555 203.733 98.043C204.488 96.2116 205.536 94.6162 206.877 93.2568C208.217 91.8786 209.822 90.793 211.691 90C213.56 89.207 215.59 88.8011 217.78 88.7822C219.12 88.8011 220.348 88.9427 221.462 89.207C222.594 89.4714 223.652 89.8301 224.633 90.2832V89.6602H233.215V117.782C233.215 120.256 232.79 122.389 231.94 124.183C231.09 125.995 229.948 127.487 228.513 128.657C227.097 129.847 225.445 130.725 223.557 131.291C221.669 131.876 219.687 132.169 217.61 132.169C215.042 132.169 212.663 131.82 210.473 131.121C208.302 130.423 206.367 129.479 204.668 128.289L208.208 122.002C209.51 122.833 210.926 123.484 212.456 123.956C213.985 124.447 215.684 124.692 217.553 124.692C218.573 124.692 219.507 124.579 220.357 124.353C221.226 124.126 221.971 123.739 222.594 123.191C223.236 122.663 223.737 121.945 224.095 121.039C224.454 120.133 224.633 118.991 224.633 117.612V117.471ZM218.516 111.325C219.838 111.325 221.027 110.995 222.085 110.334C223.161 109.654 224.01 108.767 224.633 107.672L224.69 100.535C224.048 99.3457 223.17 98.4017 222.056 97.7031C220.942 97.0046 219.734 96.6458 218.431 96.627C217.506 96.6458 216.6 96.8346 215.713 97.1934C214.825 97.5332 214.051 98.0241 213.39 98.666C212.748 99.3079 212.239 100.073 211.861 100.96C211.483 101.828 211.295 102.801 211.295 103.877C211.295 105.01 211.483 106.039 211.861 106.964C212.239 107.889 212.748 108.673 213.39 109.314C214.032 109.956 214.787 110.457 215.656 110.815C216.543 111.155 217.497 111.325 218.516 111.325ZM237.167 74.9336H250.392V92.3789C251.506 91.3594 252.724 90.5664 254.046 90C255.386 89.4147 256.859 89.1221 258.464 89.1221C261.994 89.1221 264.694 90.1133 266.563 92.0957C268.433 94.0592 269.367 96.9385 269.367 100.733V111.24H273.672V119H260.559V102.716C260.559 101.073 260.154 99.7799 259.342 98.8359C258.53 97.8919 257.482 97.4199 256.198 97.4199C255.349 97.4199 254.423 97.6559 253.423 98.1279C252.422 98.5999 251.412 99.2891 250.392 100.195V111.24H254.697V119H237.167V111.24H241.698V82.6934H237.167V74.9336Z" fill="#414141"/>
<path d="M306.782 88.1592C306.687 87.4984 306.451 86.8753 306.074 86.29C305.715 85.7048 305.243 85.2044 304.658 84.7891C304.091 84.3548 303.44 84.015 302.704 83.7695C301.986 83.5241 301.231 83.4014 300.438 83.4014C299.72 83.4014 299.05 83.4769 298.427 83.6279C297.804 83.779 297.257 84.015 296.785 84.3359C296.331 84.638 295.963 85.0345 295.68 85.5254C295.416 86.0163 295.284 86.6016 295.284 87.2812C295.284 88.1309 295.463 88.8105 295.822 89.3203C296.199 89.8112 296.671 90.2171 297.238 90.5381C297.823 90.859 298.465 91.1139 299.163 91.3027C299.862 91.4915 300.542 91.6992 301.203 91.9258L308.991 94.5312C310.067 94.9089 311.077 95.4281 312.021 96.0889C312.965 96.7497 313.777 97.5521 314.456 98.4961C315.155 99.4401 315.703 100.526 316.099 101.753C316.495 102.98 316.694 104.358 316.694 105.888C316.694 107.965 316.307 109.862 315.533 111.58C314.777 113.298 313.711 114.771 312.332 115.998C310.954 117.225 309.302 118.179 307.376 118.858C305.451 119.538 303.317 119.878 300.976 119.878C299.333 119.878 297.776 119.689 296.303 119.312C294.849 118.953 293.518 118.424 292.31 117.726C291.102 117.027 290.044 116.196 289.138 115.233C288.232 114.252 287.524 113.147 287.014 111.92H284.097V103.396H294.349V105.151C294.349 106.001 294.481 106.785 294.745 107.502C295.029 108.219 295.444 108.842 295.992 109.371C296.539 109.9 297.228 110.315 298.059 110.617C298.89 110.9 299.862 111.042 300.976 111.042C302.675 111.042 303.968 110.655 304.856 109.881C305.743 109.088 306.187 107.993 306.187 106.596C306.187 105.878 306.026 105.284 305.705 104.812C305.403 104.321 305.007 103.915 304.516 103.594C304.025 103.254 303.478 102.971 302.873 102.744C302.269 102.518 301.675 102.31 301.089 102.121L294.604 100.025C293.377 99.6478 292.187 99.1191 291.036 98.4395C289.903 97.7598 288.893 96.9102 288.005 95.8906C287.137 94.8711 286.438 93.6816 285.91 92.3223C285.4 90.944 285.145 89.377 285.145 87.6211C285.145 85.582 285.523 83.7695 286.278 82.1836C287.033 80.5788 288.09 79.2288 289.45 78.1338C290.809 77.0387 292.423 76.208 294.292 75.6416C296.162 75.0752 298.21 74.792 300.438 74.792C302.194 74.792 303.817 74.9997 305.309 75.415C306.801 75.8115 308.132 76.3496 309.302 77.0293C310.492 77.709 311.492 78.4925 312.304 79.3799C313.135 80.2484 313.767 81.1546 314.202 82.0986H317.034V90.6514H306.782V88.1592ZM336.959 89.6602H350.836V111.24H354.376V119H341.943V116.508C340.942 117.414 339.772 118.113 338.431 118.604C337.091 119.094 335.543 119.34 333.787 119.34C332.163 119.34 330.634 119.085 329.199 118.575C327.764 118.065 326.508 117.301 325.432 116.281C324.375 115.243 323.535 113.95 322.912 112.401C322.308 110.853 322.005 109.031 322.005 106.936V97.4199H318.182V89.6602H331.153V106.936C331.153 108.899 331.653 110.372 332.654 111.354C333.655 112.316 334.957 112.798 336.562 112.798C337.695 112.798 338.724 112.449 339.649 111.75C340.574 111.051 341.244 110.107 341.66 108.918V97.4199H336.959V89.6602ZM375.66 98.6377C375.66 98.1846 375.509 97.7503 375.207 97.335C374.924 96.9196 374.499 96.5609 373.932 96.2588C373.366 95.9378 372.668 95.6829 371.837 95.4941C371.025 95.3053 370.1 95.2109 369.061 95.2109C368.665 95.2109 368.24 95.2487 367.787 95.3242C367.334 95.3809 366.909 95.4941 366.513 95.6641C366.135 95.834 365.814 96.07 365.55 96.3721C365.304 96.6553 365.182 97.0234 365.182 97.4766C365.182 97.7031 365.21 97.9202 365.266 98.1279C365.342 98.3356 365.474 98.5339 365.663 98.7227C365.852 98.9115 366.107 99.0908 366.428 99.2607C366.767 99.4118 367.202 99.5345 367.73 99.6289L373.055 100.677C374.98 101.054 376.595 101.526 377.897 102.093C379.2 102.659 380.248 103.32 381.041 104.075C381.834 104.83 382.4 105.671 382.74 106.596C383.099 107.521 383.278 108.521 383.278 109.598C383.278 111.278 382.882 112.751 382.089 114.016C381.315 115.281 380.286 116.338 379.002 117.188C377.737 118.018 376.302 118.641 374.697 119.057C373.111 119.491 371.506 119.708 369.883 119.708C368.825 119.708 367.863 119.642 366.994 119.51C366.144 119.378 365.37 119.198 364.672 118.972C363.992 118.745 363.378 118.481 362.831 118.179C362.302 117.858 361.811 117.508 361.358 117.131H356.232V109.258H364.247V109.428C364.266 109.975 364.436 110.457 364.757 110.872C365.078 111.269 365.493 111.608 366.003 111.892C366.531 112.175 367.126 112.392 367.787 112.543C368.448 112.675 369.146 112.741 369.883 112.741C371.582 112.741 372.819 112.524 373.593 112.09C374.367 111.637 374.754 111.061 374.754 110.362C374.754 109.815 374.565 109.352 374.187 108.975C373.81 108.578 373.14 108.267 372.177 108.04L366.739 106.879C363.322 106.218 360.745 105.123 359.008 103.594C357.271 102.046 356.402 100.063 356.402 97.6465C356.402 96.2305 356.733 94.9466 357.393 93.7949C358.054 92.6243 358.951 91.6331 360.084 90.8213C361.217 89.9906 362.538 89.3486 364.049 88.8955C365.578 88.4424 367.211 88.2158 368.948 88.2158C370.138 88.2158 371.195 88.2913 372.12 88.4424C373.045 88.5745 373.876 88.7539 374.612 88.9805C375.349 89.207 375.99 89.4808 376.538 89.8018C377.104 90.1038 377.605 90.4248 378.039 90.7646H382.967V98.6377H375.66ZM397.483 89.6602H403.345V97.0801H397.426L397.369 109.484C397.369 110.202 397.426 110.787 397.539 111.24C397.652 111.674 397.813 112.024 398.021 112.288C398.247 112.552 398.511 112.732 398.814 112.826C399.116 112.921 399.465 112.968 399.861 112.968C400.579 112.968 401.211 112.902 401.759 112.77C402.306 112.618 402.854 112.449 403.401 112.26L404.619 117.726C403.656 118.33 402.58 118.811 401.391 119.17C400.22 119.529 398.823 119.708 397.199 119.708C396.048 119.708 394.943 119.51 393.886 119.113C392.847 118.717 391.932 118.122 391.139 117.329C390.346 116.517 389.713 115.507 389.241 114.299C388.769 113.09 388.543 111.684 388.562 110.079L388.647 97.0801H384.427V89.6602H388.675L388.732 82.6367L397.539 78.4453L397.483 89.6602ZM425.366 117.414C424.705 117.829 424.101 118.188 423.553 118.49C423.006 118.773 422.458 119 421.91 119.17C421.363 119.359 420.797 119.491 420.211 119.566C419.626 119.661 418.984 119.708 418.285 119.708C416.53 119.708 414.953 119.472 413.556 119C412.178 118.509 411.007 117.848 410.044 117.018C409.1 116.168 408.373 115.177 407.864 114.044C407.354 112.892 407.099 111.646 407.099 110.306C407.099 108.946 407.354 107.691 407.864 106.539C408.392 105.387 409.147 104.406 410.129 103.594C411.111 102.763 412.31 102.121 413.726 101.668C415.161 101.196 416.794 100.96 418.625 100.96C419.966 100.96 421.184 101.035 422.279 101.187C423.393 101.319 424.422 101.489 425.366 101.696V100.79C425.366 100.054 425.224 99.4212 424.941 98.8926C424.658 98.3451 424.261 97.9014 423.751 97.5615C423.242 97.2028 422.628 96.9479 421.91 96.7969C421.193 96.627 420.41 96.542 419.56 96.542C417.785 96.542 416.218 96.7214 414.859 97.0801C413.518 97.4199 412.225 97.9202 410.979 98.5811L408.26 93.0869C410.186 91.7653 412.197 90.7552 414.292 90.0566C416.407 89.3581 418.644 89.0088 421.004 89.0088C422.836 89.0088 424.525 89.2165 426.074 89.6318C427.641 90.0283 428.981 90.6891 430.095 91.6143C431.209 92.5205 432.077 93.71 432.701 95.1826C433.342 96.6553 433.663 98.4489 433.663 100.563V111.24H437.6V119H425.366V117.414ZM418.909 113.024C420.249 113.024 421.467 112.807 422.562 112.373C423.657 111.939 424.591 111.41 425.366 110.787V107.049H418.569C418.134 107.049 417.71 107.115 417.294 107.247C416.879 107.379 416.501 107.568 416.161 107.813C415.841 108.059 415.576 108.361 415.368 108.72C415.18 109.078 415.085 109.494 415.085 109.966C415.085 110.834 415.397 111.561 416.02 112.146C416.662 112.732 417.625 113.024 418.909 113.024ZM441.836 89.6602H455.004V111.24H459.083V119H441.836V111.24H446.254V97.4199H441.836V89.6602ZM445.8 80.2012C445.8 79.5026 445.923 78.8512 446.169 78.2471C446.433 77.624 446.792 77.0859 447.245 76.6328C447.698 76.1797 448.226 75.821 448.831 75.5566C449.454 75.2923 450.124 75.1602 450.841 75.1602C451.521 75.1602 452.163 75.2923 452.767 75.5566C453.371 75.821 453.9 76.1797 454.353 76.6328C454.806 77.0859 455.165 77.624 455.429 78.2471C455.694 78.8512 455.826 79.5026 455.826 80.2012C455.826 80.8997 455.694 81.5605 455.429 82.1836C455.165 82.7878 454.806 83.3164 454.353 83.7695C453.9 84.2227 453.371 84.5814 452.767 84.8457C452.163 85.11 451.521 85.2422 450.841 85.2422C450.124 85.2422 449.454 85.11 448.831 84.8457C448.226 84.5814 447.698 84.2227 447.245 83.7695C446.792 83.3164 446.433 82.7878 446.169 82.1836C445.923 81.5605 445.8 80.8997 445.8 80.2012ZM486.598 102.121C486.598 100.479 486.163 99.1947 485.295 98.2695C484.426 97.3255 483.275 96.8535 481.84 96.8535C480.858 96.8535 479.867 97.0706 478.866 97.5049C477.865 97.9391 476.893 98.751 475.949 99.9404V111.24H480.707V119H462.469V111.24H466.773V97.4199H462.525V89.6602H475.892V92.2373C477.12 91.2744 478.488 90.5192 479.999 89.9717C481.528 89.4053 483.133 89.1221 484.813 89.1221C488.344 89.1221 491.063 90.1133 492.97 92.0957C494.876 94.0592 495.83 96.9385 495.83 100.733V111.24H499.993V119H486.598V102.121ZM520.116 117.414C519.455 117.829 518.851 118.188 518.304 118.49C517.756 118.773 517.209 119 516.661 119.17C516.114 119.359 515.547 119.491 514.962 119.566C514.377 119.661 513.735 119.708 513.036 119.708C511.28 119.708 509.704 119.472 508.307 119C506.928 118.509 505.758 117.848 504.795 117.018C503.851 116.168 503.124 115.177 502.614 114.044C502.105 112.892 501.85 111.646 501.85 110.306C501.85 108.946 502.105 107.691 502.614 106.539C503.143 105.387 503.898 104.406 504.88 103.594C505.862 102.763 507.061 102.121 508.477 101.668C509.912 101.196 511.545 100.96 513.376 100.96C514.717 100.96 515.934 101.035 517.029 101.187C518.143 101.319 519.172 101.489 520.116 101.696V100.79C520.116 100.054 519.975 99.4212 519.691 98.8926C519.408 98.3451 519.012 97.9014 518.502 97.5615C517.992 97.2028 517.379 96.9479 516.661 96.7969C515.944 96.627 515.16 96.542 514.311 96.542C512.536 96.542 510.969 96.7214 509.609 97.0801C508.269 97.4199 506.976 97.9202 505.73 98.5811L503.011 93.0869C504.937 91.7653 506.947 90.7552 509.043 90.0566C511.158 89.3581 513.395 89.0088 515.755 89.0088C517.586 89.0088 519.276 89.2165 520.824 89.6318C522.391 90.0283 523.732 90.6891 524.846 91.6143C525.96 92.5205 526.828 93.71 527.451 95.1826C528.093 96.6553 528.414 98.4489 528.414 100.563V111.24H532.351V119H520.116V117.414ZM513.659 113.024C515 113.024 516.218 112.807 517.313 112.373C518.408 111.939 519.342 111.41 520.116 110.787V107.049H513.319C512.885 107.049 512.46 107.115 512.045 107.247C511.63 107.379 511.252 107.568 510.912 107.813C510.591 108.059 510.327 108.361 510.119 108.72C509.93 109.078 509.836 109.494 509.836 109.966C509.836 110.834 510.148 111.561 510.771 112.146C511.412 112.732 512.375 113.024 513.659 113.024ZM535.142 74.9336H547.943V90.3115C548.962 89.8206 550.01 89.443 551.086 89.1787C552.162 88.9144 553.267 88.7822 554.4 88.7822C556.571 88.7822 558.582 89.1882 560.432 90C562.282 90.8118 563.878 91.9163 565.218 93.3135C566.559 94.7106 567.606 96.3438 568.362 98.2129C569.136 100.082 569.523 102.064 569.523 104.16C569.523 106.275 569.145 108.267 568.39 110.136C567.654 112.005 566.615 113.638 565.275 115.035C563.934 116.413 562.339 117.508 560.489 118.32C558.638 119.113 556.609 119.51 554.4 119.51C553.21 119.51 552.077 119.396 551.001 119.17C549.925 118.943 548.906 118.622 547.943 118.207V119H539.248V82.6934H535.142V74.9336ZM553.805 96.5986C552.559 96.5986 551.436 96.8818 550.435 97.4482C549.453 98.0146 548.622 98.8265 547.943 99.8838V108.663C548.547 109.569 549.349 110.306 550.35 110.872C551.369 111.42 552.502 111.693 553.748 111.693C554.711 111.693 555.627 111.523 556.495 111.184C557.364 110.825 558.119 110.325 558.761 109.683C559.422 109.022 559.941 108.238 560.319 107.332C560.696 106.407 560.885 105.368 560.885 104.217C560.885 103.046 560.696 101.989 560.319 101.045C559.941 100.101 559.431 99.2985 558.789 98.6377C558.147 97.9769 557.392 97.4766 556.524 97.1367C555.674 96.778 554.768 96.5986 553.805 96.5986ZM571.833 89.6602H585.001V111.24H589.08V119H571.833V111.24H576.25V97.4199H571.833V89.6602ZM575.797 80.2012C575.797 79.5026 575.92 78.8512 576.166 78.2471C576.43 77.624 576.789 77.0859 577.242 76.6328C577.695 76.1797 578.223 75.821 578.828 75.5566C579.451 75.2923 580.121 75.1602 580.838 75.1602C581.518 75.1602 582.16 75.2923 582.764 75.5566C583.368 75.821 583.897 76.1797 584.35 76.6328C584.803 77.0859 585.162 77.624 585.426 78.2471C585.691 78.8512 585.823 79.5026 585.823 80.2012C585.823 80.8997 585.691 81.5605 585.426 82.1836C585.162 82.7878 584.803 83.3164 584.35 83.7695C583.897 84.2227 583.368 84.5814 582.764 84.8457C582.16 85.11 581.518 85.2422 580.838 85.2422C580.121 85.2422 579.451 85.11 578.828 84.8457C578.223 84.5814 577.695 84.2227 577.242 83.7695C576.789 83.3164 576.43 82.7878 576.166 82.1836C575.92 81.5605 575.797 80.8997 575.797 80.2012ZM591.871 74.9336H605.096V111.24H609.628V119H591.871V111.24H596.402V82.6934H591.871V74.9336ZM612.815 89.6602H625.984V111.24H630.062V119H612.815V111.24H617.233V97.4199H612.815V89.6602ZM616.78 80.2012C616.78 79.5026 616.903 78.8512 617.148 78.2471C617.413 77.624 617.771 77.0859 618.225 76.6328C618.678 76.1797 619.206 75.821 619.811 75.5566C620.434 75.2923 621.104 75.1602 621.821 75.1602C622.501 75.1602 623.143 75.2923 623.747 75.5566C624.351 75.821 624.88 76.1797 625.333 76.6328C625.786 77.0859 626.145 77.624 626.409 78.2471C626.674 78.8512 626.806 79.5026 626.806 80.2012C626.806 80.8997 626.674 81.5605 626.409 82.1836C626.145 82.7878 625.786 83.3164 625.333 83.7695C624.88 84.2227 624.351 84.5814 623.747 84.8457C623.143 85.11 622.501 85.2422 621.821 85.2422C621.104 85.2422 620.434 85.11 619.811 84.8457C619.206 84.5814 618.678 84.2227 618.225 83.7695C617.771 83.3164 617.413 82.7878 617.148 82.1836C616.903 81.5605 616.78 80.8997 616.78 80.2012ZM644.522 89.6602H650.384V97.0801H644.465L644.408 109.484C644.408 110.202 644.465 110.787 644.578 111.24C644.692 111.674 644.852 112.024 645.06 112.288C645.286 112.552 645.551 112.732 645.853 112.826C646.155 112.921 646.504 112.968 646.901 112.968C647.618 112.968 648.251 112.902 648.798 112.77C649.346 112.618 649.893 112.449 650.441 112.26L651.658 117.726C650.696 118.33 649.619 118.811 648.43 119.17C647.259 119.529 645.862 119.708 644.239 119.708C643.087 119.708 641.982 119.51 640.925 119.113C639.887 118.717 638.971 118.122 638.178 117.329C637.385 116.517 636.753 115.507 636.281 114.299C635.809 113.09 635.582 111.684 635.601 110.079L635.686 97.0801H631.466V89.6602H635.714L635.771 82.6367L644.578 78.4453L644.522 89.6602ZM653.543 89.6602H667.93V97.4199H665.665L669.884 108.408L674.217 97.4199H671.697V89.6602H686.083V97.4199H682.883L671.527 124.579H676.568V132.339H658.358V124.579H663.484L665.693 119L656.517 97.4199H653.543V89.6602Z" fill="#0068FE"/>
</svg>
