<svg width="473" height="529" viewBox="0 0 473 529" fill="none" xmlns="http://www.w3.org/2000/svg">
<g filter="url(#filter0_d_175_881)">
<path d="M40.3006 226.133L40.5164 41C40.5197 38.2386 42.7609 36.0026 45.5223 36.0058L427.645 36.4513C430.406 36.4545 432.642 38.6957 432.639 41.4571L432.423 226.998C432.421 228.487 431.755 229.899 430.607 230.847L425.064 235.425C422.646 237.421 422.642 241.125 425.055 243.128L431.461 248.444C432.608 249.395 433.27 250.808 433.269 252.297L433.004 479.458C433.001 482.219 430.759 484.455 427.998 484.452L45 484.005C42.2386 484.002 40.0026 481.761 40.0058 479L40.2703 252.143C40.2722 250.482 41.0986 248.931 42.4756 248.003L49.7065 243.129C52.7001 241.111 52.634 236.682 49.5814 234.755L42.631 230.366C41.1786 229.449 40.2986 227.85 40.3006 226.133Z" fill="#262261"/>
</g>
<path d="M159.091 290.586L157.33 290.584C157.226 290.078 157.045 289.632 156.785 289.249C156.529 288.865 156.217 288.542 155.848 288.282C155.484 288.016 155.079 287.817 154.634 287.684C154.19 287.55 153.726 287.484 153.243 287.483C152.362 287.482 151.564 287.704 150.848 288.148C150.138 288.592 149.571 289.247 149.149 290.113C148.731 290.979 148.521 292.042 148.52 293.301C148.518 294.561 148.726 295.624 149.141 296.491C149.562 297.358 150.127 298.014 150.836 298.46C151.551 298.906 152.348 299.13 153.229 299.131C153.712 299.131 154.176 299.066 154.621 298.934C155.067 298.801 155.472 298.605 155.837 298.345C156.206 298.081 156.519 297.757 156.775 297.374C157.036 296.986 157.219 296.541 157.324 296.039L159.085 296.041C158.952 296.784 158.709 297.449 158.358 298.036C158.007 298.623 157.571 299.122 157.05 299.533C156.528 299.94 155.943 300.249 155.294 300.461C154.65 300.674 153.961 300.779 153.227 300.779C151.987 300.777 150.884 300.473 149.919 299.866C148.953 299.258 148.194 298.396 147.642 297.278C147.089 296.16 146.814 294.834 146.815 293.299C146.817 291.765 147.096 290.44 147.651 289.323C148.206 288.206 148.967 287.346 149.934 286.741C150.9 286.136 152.004 285.834 153.245 285.835C153.978 285.836 154.667 285.944 155.311 286.157C155.959 286.371 156.544 286.684 157.064 287.097C157.584 287.505 158.02 288.002 158.369 288.59C158.719 289.173 158.96 289.838 159.091 290.586ZM166.13 300.822C165.145 300.821 164.281 300.585 163.539 300.116C162.801 299.646 162.224 298.99 161.808 298.146C161.397 297.303 161.192 296.318 161.194 295.191C161.195 294.055 161.402 293.063 161.815 292.216C162.233 291.369 162.811 290.712 163.55 290.244C164.294 289.776 165.158 289.542 166.143 289.544C167.128 289.545 167.99 289.78 168.728 290.25C169.471 290.719 170.047 291.378 170.458 292.226C170.874 293.074 171.081 294.066 171.08 295.203C171.079 296.33 170.869 297.314 170.451 298.157C170.039 298.999 169.46 299.654 168.716 300.122C167.977 300.59 167.115 300.823 166.13 300.822ZM166.132 299.316C166.88 299.317 167.496 299.126 167.979 298.743C168.463 298.36 168.821 297.856 169.053 297.232C169.286 296.607 169.403 295.93 169.404 295.201C169.405 294.472 169.289 293.792 169.058 293.162C168.827 292.532 168.47 292.023 167.987 291.634C167.505 291.245 166.89 291.05 166.142 291.049C165.393 291.048 164.778 291.242 164.294 291.629C163.811 292.017 163.453 292.526 163.22 293.155C162.987 293.785 162.871 294.464 162.87 295.193C162.869 295.922 162.984 296.6 163.215 297.225C163.447 297.85 163.804 298.355 164.286 298.739C164.769 299.123 165.384 299.315 166.132 299.316ZM177.751 300.836C176.842 300.834 176.04 300.604 175.344 300.144C174.649 299.679 174.105 299.025 173.713 298.182C173.321 297.334 173.126 296.332 173.127 295.177C173.129 294.031 173.326 293.037 173.72 292.194C174.114 291.352 174.662 290.702 175.363 290.243C176.064 289.785 176.874 289.556 177.793 289.557C178.503 289.558 179.064 289.677 179.476 289.914C179.892 290.147 180.209 290.412 180.426 290.711C180.649 291.005 180.821 291.246 180.944 291.436L181.086 291.436L181.092 286.067L182.768 286.069L182.752 300.614L181.132 300.612L181.134 298.936L180.935 298.936C180.812 299.135 180.636 299.385 180.409 299.688C180.181 299.986 179.857 300.253 179.435 300.489C179.013 300.721 178.452 300.836 177.751 300.836ZM177.98 299.33C178.653 299.331 179.221 299.156 179.685 298.807C180.15 298.452 180.503 297.962 180.745 297.338C180.988 296.708 181.109 295.981 181.11 295.158C181.111 294.343 180.994 293.63 180.758 293.019C180.522 292.404 180.172 291.925 179.708 291.584C179.244 291.237 178.672 291.064 177.99 291.063C177.28 291.062 176.688 291.244 176.214 291.608C175.745 291.967 175.391 292.457 175.154 293.077C174.921 293.692 174.804 294.383 174.803 295.15C174.802 295.927 174.92 296.632 175.156 297.267C175.397 297.897 175.751 298.399 176.22 298.774C176.693 299.144 177.28 299.329 177.98 299.33ZM190.628 300.851C189.577 300.849 188.67 300.616 187.908 300.151C187.151 299.682 186.567 299.028 186.156 298.189C185.75 297.346 185.548 296.365 185.549 295.248C185.55 294.131 185.755 293.146 186.163 292.294C186.576 291.438 187.15 290.771 187.884 290.293C188.623 289.811 189.486 289.571 190.47 289.572C191.039 289.573 191.6 289.668 192.153 289.858C192.707 290.048 193.211 290.356 193.665 290.783C194.119 291.205 194.481 291.764 194.75 292.46C195.019 293.157 195.153 294.014 195.152 295.032L195.151 295.742L186.742 295.732L186.743 294.283L193.448 294.291C193.449 293.676 193.326 293.126 193.08 292.643C192.84 292.16 192.494 291.778 192.045 291.498C191.6 291.219 191.075 291.078 190.469 291.078C189.801 291.077 189.223 291.242 188.735 291.573C188.252 291.899 187.88 292.325 187.619 292.85C187.358 293.375 187.227 293.938 187.226 294.54L187.225 295.506C187.224 296.33 187.365 297.028 187.649 297.601C187.937 298.17 188.336 298.604 188.847 298.902C189.358 299.197 189.952 299.344 190.629 299.345C191.07 299.345 191.468 299.284 191.823 299.162C192.183 299.034 192.493 298.845 192.754 298.594C193.015 298.339 193.216 298.022 193.359 297.643L194.977 298.1C194.806 298.649 194.519 299.132 194.116 299.548C193.713 299.959 193.216 300.281 192.624 300.512C192.032 300.739 191.366 300.851 190.628 300.851ZM208.836 296.099L210.768 296.101L212.385 298.234L212.81 298.803L215.222 302.016L213.29 302.013L211.701 299.881L211.304 299.341L208.836 296.099ZM215.828 293.38C215.826 294.914 215.548 296.239 214.993 297.356C214.437 298.473 213.676 299.334 212.71 299.939C211.743 300.544 210.64 300.845 209.399 300.844C208.158 300.843 207.056 300.538 206.09 299.931C205.125 299.324 204.366 298.461 203.814 297.343C203.261 296.225 202.985 294.899 202.987 293.365C202.989 291.831 203.268 290.505 203.823 289.389C204.378 288.272 205.139 287.411 206.106 286.806C207.072 286.201 208.176 285.899 209.416 285.901C210.657 285.902 211.76 286.207 212.725 286.814C213.69 287.421 214.449 288.284 215.002 289.402C215.555 290.52 215.83 291.846 215.828 293.38ZM214.124 293.378C214.125 292.118 213.916 291.055 213.495 290.188C213.08 289.321 212.515 288.665 211.8 288.219C211.09 287.773 210.295 287.55 209.414 287.549C208.534 287.548 207.736 287.769 207.02 288.213C206.31 288.658 205.743 289.313 205.321 290.179C204.903 291.045 204.693 292.107 204.692 293.367C204.69 294.626 204.897 295.69 205.313 296.557C205.733 297.424 206.299 298.08 207.008 298.526C207.723 298.972 208.52 299.195 209.401 299.196C210.282 299.197 211.077 298.976 211.788 298.531C212.504 298.087 213.07 297.432 213.488 296.566C213.91 295.7 214.122 294.637 214.124 293.378ZM225.434 296.204L225.442 289.755L227.118 289.757L227.105 300.666L225.429 300.664L225.431 298.817L225.318 298.817C225.061 299.371 224.663 299.841 224.123 300.229C223.583 300.612 222.9 300.803 222.077 300.802C221.395 300.801 220.789 300.651 220.259 300.352C219.729 300.049 219.313 299.594 219.011 298.987C218.708 298.376 218.558 297.607 218.559 296.679L218.567 289.747L220.243 289.749L220.235 296.567C220.234 297.362 220.456 297.997 220.9 298.471C221.35 298.945 221.922 299.182 222.618 299.183C223.035 299.184 223.459 299.078 223.89 298.865C224.326 298.653 224.691 298.326 224.985 297.886C225.284 297.446 225.433 296.885 225.434 296.204ZM233.385 300.929C232.694 300.928 232.067 300.797 231.503 300.536C230.94 300.27 230.493 299.888 230.162 299.391C229.832 298.889 229.667 298.282 229.667 297.572C229.668 296.947 229.792 296.441 230.038 296.053C230.285 295.66 230.615 295.353 231.027 295.131C231.439 294.909 231.894 294.743 232.391 294.635C232.893 294.522 233.397 294.433 233.904 294.367C234.567 294.282 235.105 294.219 235.517 294.177C235.933 294.13 236.236 294.052 236.426 293.944C236.62 293.835 236.717 293.646 236.718 293.376L236.718 293.319C236.719 292.618 236.527 292.074 236.144 291.685C235.766 291.296 235.191 291.101 234.419 291.1C233.619 291.1 232.991 291.274 232.537 291.624C232.082 291.974 231.762 292.347 231.576 292.745L229.986 292.175C230.271 291.512 230.65 290.997 231.124 290.628C231.603 290.254 232.124 289.995 232.688 289.848C233.256 289.698 233.815 289.622 234.364 289.623C234.715 289.624 235.117 289.667 235.571 289.752C236.031 289.833 236.473 290.002 236.899 290.258C237.33 290.514 237.687 290.901 237.97 291.417C238.254 291.934 238.395 292.625 238.394 293.491L238.385 300.679L236.709 300.677L236.711 299.2L236.626 299.2C236.512 299.436 236.322 299.689 236.057 299.959C235.791 300.228 235.438 300.458 234.998 300.647C234.557 300.835 234.02 300.93 233.385 300.929ZM233.643 299.423C234.305 299.424 234.864 299.295 235.319 299.035C235.779 298.775 236.125 298.439 236.357 298.027C236.594 297.616 236.713 297.183 236.714 296.728L236.716 295.194C236.644 295.279 236.488 295.357 236.247 295.428C236.01 295.494 235.735 295.553 235.423 295.604C235.115 295.651 234.814 295.694 234.52 295.731C234.232 295.764 233.997 295.792 233.817 295.816C233.381 295.872 232.974 295.964 232.595 296.091C232.221 296.214 231.918 296.401 231.686 296.651C231.458 296.897 231.344 297.233 231.343 297.659C231.343 298.242 231.558 298.682 231.988 298.981C232.423 299.275 232.975 299.423 233.643 299.423ZM243.138 286.139L243.121 300.684L241.445 300.682L241.462 286.137L243.138 286.139ZM246.191 300.688L246.203 289.779L247.88 289.781L247.867 300.69L246.191 300.688ZM247.058 287.962C246.731 287.961 246.45 287.85 246.213 287.627C245.981 287.404 245.866 287.137 245.866 286.824C245.866 286.512 245.983 286.244 246.215 286.022C246.452 285.8 246.734 285.689 247.061 285.689C247.387 285.689 247.666 285.801 247.898 286.024C248.135 286.247 248.253 286.514 248.252 286.827C248.252 287.139 248.133 287.407 247.896 287.629C247.664 287.851 247.385 287.962 247.058 287.962ZM255.694 289.79L255.692 291.21L250.039 291.204L250.04 289.783L255.694 289.79ZM251.691 287.172L253.367 287.174L253.355 297.571C253.355 298.045 253.423 298.4 253.56 298.637C253.702 298.869 253.882 299.026 254.099 299.106C254.322 299.182 254.556 299.221 254.802 299.221C254.987 299.221 255.138 299.212 255.257 299.193C255.375 299.169 255.47 299.151 255.541 299.136L255.88 300.643C255.766 300.685 255.608 300.727 255.404 300.77C255.2 300.817 254.942 300.84 254.63 300.84C254.156 300.839 253.692 300.737 253.238 300.533C252.789 300.329 252.415 300.018 252.117 299.601C251.824 299.184 251.678 298.658 251.679 298.024L251.691 287.172ZM259.277 304.794C258.993 304.794 258.74 304.77 258.517 304.722C258.295 304.679 258.141 304.637 258.056 304.594L258.484 303.117C258.891 303.222 259.251 303.26 259.563 303.232C259.876 303.204 260.153 303.065 260.395 302.814C260.641 302.568 260.866 302.168 261.071 301.614L261.384 300.763L257.363 289.792L259.181 289.794L262.182 298.491L262.296 298.491L265.317 289.801L267.136 289.803L262.49 302.298C262.281 302.861 262.023 303.327 261.715 303.696C261.406 304.07 261.049 304.346 260.641 304.526C260.239 304.705 259.784 304.795 259.277 304.794ZM286.904 290.735L285.142 290.733C285.039 290.227 284.857 289.781 284.597 289.398C284.342 289.014 284.03 288.691 283.661 288.431C283.296 288.165 282.892 287.966 282.447 287.833C282.002 287.699 281.538 287.633 281.055 287.632C280.174 287.631 279.376 287.853 278.661 288.297C277.95 288.741 277.384 289.396 276.961 290.262C276.543 291.128 276.334 292.191 276.332 293.45C276.331 294.71 276.538 295.773 276.954 296.64C277.374 297.507 277.939 298.163 278.649 298.609C279.363 299.055 280.161 299.279 281.041 299.28C281.524 299.28 281.989 299.215 282.434 299.083C282.879 298.95 283.284 298.754 283.649 298.494C284.019 298.23 284.331 297.906 284.588 297.523C284.848 297.135 285.031 296.69 285.136 296.188L286.897 296.19C286.764 296.933 286.522 297.598 286.171 298.185C285.82 298.772 285.383 299.271 284.862 299.682C284.341 300.089 283.756 300.398 283.107 300.61C282.463 300.823 281.773 300.928 281.04 300.928C279.799 300.926 278.696 300.622 277.731 300.015C276.766 299.407 276.007 298.545 275.454 297.427C274.901 296.309 274.626 294.983 274.628 293.448C274.63 291.914 274.908 290.589 275.463 289.472C276.019 288.355 276.78 287.495 277.746 286.89C278.713 286.285 279.816 285.983 281.057 285.984C281.791 285.985 282.48 286.093 283.123 286.306C283.772 286.52 284.356 286.833 284.877 287.246C285.397 287.654 285.832 288.151 286.182 288.739C286.531 289.322 286.772 289.987 286.904 290.735ZM291.195 294.178L291.187 300.74L289.511 300.739L289.528 286.193L291.204 286.195L291.198 291.536L291.34 291.536C291.596 290.973 291.98 290.526 292.492 290.195C293.009 289.86 293.695 289.692 294.552 289.693C295.296 289.694 295.947 289.844 296.505 290.143C297.063 290.437 297.496 290.89 297.803 291.501C298.115 292.107 298.27 292.879 298.269 293.817L298.261 300.749L296.585 300.747L296.593 293.929C296.594 293.062 296.37 292.392 295.92 291.918C295.476 291.439 294.858 291.199 294.068 291.198C293.518 291.198 293.026 291.313 292.59 291.545C292.159 291.776 291.817 292.114 291.566 292.559C291.319 293.004 291.196 293.544 291.195 294.178ZM305.901 300.985C304.85 300.984 303.943 300.751 303.182 300.286C302.425 299.816 301.841 299.162 301.43 298.323C301.023 297.48 300.821 296.5 300.822 295.382C300.824 294.265 301.028 293.28 301.437 292.429C301.85 291.572 302.423 290.905 303.158 290.428C303.897 289.946 304.759 289.705 305.744 289.706C306.312 289.707 306.873 289.802 307.427 289.992C307.98 290.182 308.484 290.491 308.938 290.917C309.392 291.339 309.754 291.898 310.023 292.595C310.292 293.291 310.426 294.148 310.425 295.166L310.424 295.877L302.015 295.867L302.017 294.418L308.721 294.426C308.722 293.81 308.599 293.261 308.354 292.778C308.113 292.294 307.768 291.913 307.318 291.633C306.873 291.353 306.348 291.213 305.742 291.212C305.074 291.211 304.497 291.376 304.008 291.707C303.525 292.033 303.153 292.459 302.892 292.984C302.631 293.51 302.5 294.073 302.499 294.674L302.498 295.64C302.497 296.464 302.638 297.162 302.922 297.736C303.21 298.304 303.61 298.738 304.121 299.037C304.632 299.331 305.226 299.478 305.903 299.479C306.343 299.48 306.741 299.419 307.096 299.296C307.456 299.169 307.767 298.98 308.027 298.729C308.288 298.473 308.49 298.156 308.632 297.778L310.251 298.234C310.08 298.783 309.793 299.266 309.39 299.682C308.987 300.094 308.489 300.415 307.897 300.646C307.305 300.873 306.64 300.986 305.901 300.985ZM317.4 300.998C316.377 300.997 315.496 300.755 314.758 300.271C314.02 299.787 313.453 299.121 313.056 298.273C312.659 297.425 312.462 296.457 312.463 295.368C312.464 294.26 312.669 293.282 313.077 292.435C313.49 291.583 314.064 290.919 314.798 290.441C315.537 289.959 316.399 289.719 317.384 289.72C318.151 289.721 318.843 289.864 319.458 290.148C320.073 290.433 320.577 290.832 320.969 291.343C321.361 291.855 321.605 292.452 321.699 293.134L320.022 293.132C319.895 292.635 319.612 292.194 319.172 291.81C318.737 291.421 318.15 291.226 317.411 291.226C316.758 291.225 316.184 291.395 315.692 291.735C315.204 292.071 314.822 292.546 314.547 293.161C314.276 293.772 314.14 294.489 314.139 295.313C314.138 296.155 314.27 296.89 314.534 297.515C314.804 298.14 315.182 298.626 315.669 298.972C316.161 299.318 316.738 299.492 317.401 299.493C317.837 299.493 318.232 299.418 318.588 299.267C318.943 299.116 319.244 298.898 319.49 298.614C319.737 298.331 319.913 297.99 320.017 297.592L321.693 297.594C321.598 298.238 321.363 298.818 320.988 299.333C320.618 299.844 320.128 300.251 319.517 300.553C318.91 300.851 318.205 300.999 317.4 300.998ZM325.707 296.803L325.681 294.73L326.022 294.73L330.8 289.878L332.874 289.88L327.783 295.016L327.641 295.016L325.707 296.803ZM324.14 300.779L324.157 286.233L325.833 286.235L325.816 300.781L324.14 300.779ZM331.072 300.787L326.817 295.384L328.011 294.221L333.202 300.789L331.072 300.787ZM337.521 298.806L337.407 299.573C337.325 300.112 337.202 300.69 337.035 301.305C336.874 301.921 336.705 302.5 336.529 303.045C336.353 303.589 336.208 304.022 336.094 304.344L334.816 304.342C334.878 304.04 334.959 303.64 335.059 303.142C335.159 302.645 335.259 302.089 335.359 301.474C335.464 300.863 335.55 300.238 335.617 299.599L335.703 298.804L337.521 298.806ZM92.9066 330.509L92.9235 315.964L97.8383 315.97C98.9747 315.971 99.9072 316.166 100.636 316.555C101.365 316.94 101.904 317.468 102.253 318.141C102.603 318.814 102.777 319.579 102.776 320.436C102.775 321.293 102.599 322.052 102.248 322.715C101.897 323.377 101.359 323.898 100.634 324.275C99.9092 324.649 98.9833 324.835 97.8564 324.833L93.8791 324.829L93.881 323.238L97.8014 323.242C98.5779 323.243 99.2031 323.13 99.6768 322.904C100.155 322.677 100.501 322.355 100.715 321.939C100.933 321.518 101.043 321.016 101.043 320.434C101.044 319.851 100.936 319.342 100.718 318.906C100.501 318.47 100.154 318.134 99.6756 317.896C99.1976 317.654 98.5657 317.533 97.7797 317.532L94.6831 317.528L94.668 330.511L92.9066 330.509ZM99.7608 323.983L103.333 330.522L101.287 330.519L97.7722 323.981L99.7608 323.983ZM109.929 330.756C108.878 330.755 107.971 330.522 107.209 330.057C106.452 329.588 105.868 328.934 105.457 328.095C105.051 327.252 104.849 326.271 104.85 325.154C104.851 324.037 105.056 323.052 105.464 322.2C105.877 321.344 106.451 320.677 107.185 320.199C107.925 319.717 108.787 319.477 109.771 319.478C110.34 319.479 110.901 319.574 111.454 319.764C112.008 319.954 112.512 320.262 112.966 320.689C113.42 321.111 113.782 321.67 114.051 322.366C114.32 323.063 114.454 323.92 114.453 324.938L114.452 325.648L106.043 325.638L106.044 324.189L112.749 324.197C112.75 323.582 112.627 323.032 112.381 322.549C112.141 322.066 111.795 321.684 111.346 321.404C110.901 321.125 110.376 320.984 109.77 320.984C109.102 320.983 108.524 321.148 108.036 321.479C107.553 321.805 107.181 322.231 106.92 322.756C106.659 323.281 106.528 323.844 106.527 324.446L106.526 325.412C106.525 326.235 106.666 326.934 106.95 327.507C107.238 328.076 107.637 328.509 108.148 328.808C108.659 329.103 109.253 329.25 109.93 329.251C110.371 329.251 110.769 329.19 111.124 329.068C111.484 328.94 111.794 328.751 112.055 328.5C112.316 328.245 112.517 327.928 112.66 327.549L114.278 328.006C114.107 328.555 113.82 329.038 113.417 329.454C113.014 329.865 112.517 330.187 111.925 330.418C111.333 330.644 110.667 330.757 109.929 330.756ZM123.254 323.528L123.252 325.09L116.888 325.083L116.89 323.52L123.254 323.528ZM127.019 330.549L125.172 330.547L130.53 316.008L132.348 316.01L137.672 330.562L135.826 330.559L131.493 318.31L131.38 318.31L127.019 330.549ZM127.707 324.868L135.15 324.877L135.149 326.439L127.705 326.431L127.707 324.868ZM139.711 330.564L139.723 319.655L141.343 319.657L141.341 321.304L141.454 321.305C141.654 320.765 142.014 320.327 142.535 319.992C143.057 319.656 143.644 319.489 144.297 319.49C144.42 319.49 144.574 319.492 144.759 319.497C144.944 319.502 145.083 319.51 145.178 319.519L145.176 321.224C145.119 321.209 144.989 321.188 144.785 321.159C144.587 321.126 144.376 321.109 144.153 321.109C143.623 321.108 143.149 321.219 142.733 321.441C142.32 321.658 141.993 321.961 141.751 322.349C141.514 322.732 141.395 323.17 141.395 323.662L141.387 330.566L139.711 330.564ZM151.251 330.805C150.229 330.803 149.348 330.561 148.61 330.077C147.872 329.593 147.305 328.927 146.908 328.079C146.511 327.231 146.314 326.263 146.315 325.174C146.316 324.066 146.521 323.088 146.929 322.241C147.342 321.39 147.916 320.725 148.65 320.248C149.389 319.766 150.251 319.525 151.236 319.526C152.003 319.527 152.694 319.67 153.31 319.955C153.925 320.24 154.429 320.638 154.821 321.15C155.213 321.662 155.457 322.258 155.55 322.94L153.874 322.938C153.747 322.441 153.463 322 153.024 321.616C152.588 321.228 152.001 321.033 151.263 321.032C150.609 321.031 150.036 321.201 149.544 321.541C149.055 321.877 148.674 322.352 148.398 322.968C148.128 323.578 147.992 324.295 147.991 325.119C147.99 325.962 148.122 326.696 148.386 327.321C148.655 327.946 149.034 328.432 149.521 328.778C150.013 329.125 150.59 329.298 151.253 329.299C151.689 329.299 152.084 329.224 152.44 329.073C152.795 328.922 153.096 328.705 153.342 328.421C153.589 328.137 153.764 327.796 153.869 327.399L155.545 327.401C155.45 328.044 155.215 328.624 154.84 329.14C154.47 329.651 153.98 330.057 153.368 330.36C152.762 330.657 152.056 330.806 151.251 330.805ZM159.676 324.025L159.668 330.587L157.992 330.585L158.009 316.04L159.685 316.042L159.679 321.383L159.821 321.383C160.077 320.82 160.461 320.373 160.973 320.042C161.489 319.706 162.176 319.539 163.033 319.54C163.776 319.541 164.427 319.691 164.986 319.99C165.544 320.284 165.977 320.737 166.284 321.348C166.596 321.954 166.751 322.726 166.75 323.664L166.742 330.595L165.066 330.593L165.074 323.775C165.075 322.909 164.85 322.239 164.401 321.765C163.957 321.286 163.339 321.046 162.548 321.045C161.999 321.044 161.507 321.16 161.071 321.391C160.64 321.623 160.298 321.961 160.047 322.406C159.8 322.851 159.676 323.39 159.676 324.025ZM169.808 330.599L169.821 319.69L171.497 319.692L171.484 330.601L169.808 330.599ZM170.675 317.873C170.349 317.872 170.067 317.761 169.831 317.538C169.599 317.315 169.483 317.047 169.483 316.735C169.484 316.422 169.6 316.155 169.832 315.933C170.069 315.711 170.351 315.6 170.678 315.6C171.005 315.6 171.284 315.712 171.516 315.935C171.752 316.158 171.87 316.425 171.87 316.738C171.869 317.05 171.751 317.318 171.514 317.54C171.281 317.762 171.002 317.873 170.675 317.873ZM179.311 319.701L179.31 321.121L173.656 321.115L173.658 319.694L179.311 319.701ZM175.309 317.083L176.985 317.085L176.973 327.482C176.972 327.956 177.04 328.311 177.177 328.548C177.319 328.78 177.499 328.937 177.717 329.017C177.939 329.093 178.173 329.131 178.42 329.132C178.604 329.132 178.756 329.123 178.874 329.104C178.993 329.08 179.087 329.062 179.158 329.047L179.498 330.553C179.384 330.596 179.225 330.638 179.022 330.681C178.818 330.728 178.56 330.751 178.247 330.751C177.774 330.75 177.31 330.648 176.856 330.444C176.406 330.24 176.032 329.929 175.735 329.512C175.441 329.095 175.295 328.569 175.296 327.935L175.309 317.083ZM186.276 330.845C185.225 330.844 184.319 330.611 183.557 330.146C182.8 329.677 182.216 329.023 181.805 328.184C181.399 327.341 181.196 326.36 181.198 325.243C181.199 324.126 181.404 323.141 181.812 322.289C182.225 321.433 182.798 320.766 183.533 320.288C184.272 319.806 185.134 319.566 186.119 319.567C186.687 319.568 187.248 319.663 187.802 319.853C188.356 320.043 188.86 320.351 189.314 320.778C189.768 321.2 190.129 321.759 190.398 322.455C190.667 323.152 190.801 324.009 190.8 325.027L190.799 325.737L182.39 325.727L182.392 324.278L189.096 324.286C189.097 323.671 188.975 323.121 188.729 322.638C188.488 322.155 188.143 321.773 187.693 321.493C187.249 321.214 186.723 321.073 186.117 321.073C185.45 321.072 184.872 321.237 184.384 321.568C183.9 321.894 183.528 322.32 183.267 322.845C183.006 323.37 182.875 323.933 182.875 324.535L182.873 325.501C182.872 326.324 183.014 327.023 183.297 327.596C183.585 328.165 183.985 328.598 184.496 328.897C185.007 329.192 185.601 329.339 186.278 329.34C186.718 329.34 187.116 329.279 187.471 329.157C187.831 329.029 188.142 328.84 188.403 328.589C188.663 328.334 188.865 328.017 189.007 327.638L190.626 328.095C190.455 328.644 190.168 329.127 189.765 329.543C189.362 329.954 188.865 330.276 188.272 330.507C187.68 330.733 187.015 330.846 186.276 330.845ZM197.775 330.859C196.752 330.858 195.872 330.615 195.134 330.131C194.396 329.648 193.828 328.982 193.431 328.134C193.035 327.286 192.837 326.317 192.838 325.228C192.84 324.12 193.044 323.143 193.452 322.296C193.865 321.444 194.439 320.779 195.174 320.302C195.913 319.82 196.775 319.579 197.76 319.58C198.527 319.581 199.218 319.724 199.833 320.009C200.448 320.294 200.952 320.692 201.344 321.204C201.737 321.716 201.98 322.313 202.074 322.995L200.398 322.993C200.27 322.495 199.987 322.055 199.547 321.671C199.112 321.282 198.525 321.087 197.786 321.086C197.133 321.085 196.56 321.255 196.067 321.596C195.579 321.931 195.197 322.407 194.922 323.022C194.651 323.632 194.515 324.349 194.514 325.173C194.513 326.016 194.645 326.75 194.91 327.375C195.179 328.001 195.557 328.486 196.044 328.833C196.536 329.179 197.114 329.352 197.777 329.353C198.212 329.354 198.608 329.278 198.963 329.127C199.318 328.976 199.619 328.759 199.866 328.475C200.112 328.191 200.288 327.85 200.392 327.453L202.069 327.455C201.973 328.099 201.738 328.678 201.363 329.194C200.994 329.705 200.503 330.112 199.892 330.414C199.285 330.711 198.58 330.86 197.775 330.859ZM209.272 319.736L209.271 321.156L203.617 321.15L203.619 319.729L209.272 319.736ZM205.27 317.118L206.946 317.12L206.934 327.517C206.933 327.991 207.001 328.346 207.138 328.583C207.28 328.815 207.46 328.971 207.678 329.052C207.9 329.128 208.134 329.166 208.381 329.167C208.565 329.167 208.717 329.158 208.835 329.139C208.954 329.115 209.048 329.096 209.119 329.082L209.458 330.588C209.345 330.631 209.186 330.673 208.982 330.716C208.779 330.763 208.521 330.786 208.208 330.786C207.735 330.785 207.271 330.683 206.817 330.479C206.367 330.275 205.993 329.964 205.695 329.547C205.402 329.13 205.256 328.604 205.257 327.97L205.27 317.118ZM218.661 326.196L218.669 319.747L220.345 319.749L220.332 330.658L218.656 330.656L218.658 328.809L218.544 328.809C218.288 329.363 217.89 329.834 217.349 330.221C216.809 330.604 216.127 330.795 215.303 330.794C214.622 330.793 214.016 330.643 213.486 330.345C212.956 330.041 212.54 329.586 212.237 328.979C211.935 328.368 211.784 327.599 211.785 326.671L211.794 319.739L213.47 319.741L213.462 326.559C213.461 327.354 213.683 327.989 214.127 328.463C214.576 328.937 215.149 329.175 215.845 329.175C216.262 329.176 216.686 329.07 217.117 328.857C217.553 328.645 217.918 328.318 218.212 327.878C218.51 327.438 218.66 326.878 218.661 326.196ZM223.402 330.661L223.415 319.752L225.034 319.754L225.032 321.402L225.146 321.402C225.345 320.863 225.705 320.425 226.227 320.089C226.748 319.754 227.335 319.587 227.989 319.587C228.112 319.587 228.266 319.59 228.45 319.595C228.635 319.6 228.775 319.607 228.869 319.617L228.867 321.321C228.811 321.307 228.68 321.286 228.477 321.257C228.278 321.224 228.067 321.207 227.845 321.206C227.314 321.206 226.841 321.317 226.424 321.539C226.012 321.756 225.685 322.059 225.443 322.447C225.206 322.83 225.087 323.268 225.086 323.76L225.078 330.663L223.402 330.661ZM235.085 330.902C234.034 330.901 233.127 330.668 232.365 330.203C231.608 329.734 231.024 329.079 230.614 328.241C230.207 327.398 230.005 326.417 230.006 325.3C230.007 324.182 230.212 323.198 230.62 322.346C231.033 321.49 231.607 320.823 232.341 320.345C233.081 319.863 233.943 319.623 234.928 319.624C235.496 319.624 236.057 319.72 236.61 319.91C237.164 320.1 237.668 320.408 238.122 320.835C238.576 321.257 238.938 321.816 239.207 322.512C239.476 323.209 239.61 324.066 239.609 325.084L239.608 325.794L231.199 325.784L231.2 324.335L237.905 324.343C237.906 323.728 237.783 323.178 237.538 322.695C237.297 322.212 236.951 321.83 236.502 321.55C236.057 321.27 235.532 321.13 234.926 321.129C234.258 321.129 233.68 321.294 233.192 321.625C232.709 321.951 232.337 322.376 232.076 322.902C231.815 323.427 231.684 323.99 231.683 324.592L231.682 325.557C231.681 326.381 231.822 327.08 232.106 327.653C232.394 328.222 232.793 328.655 233.304 328.954C233.815 329.248 234.41 329.396 235.087 329.397C235.527 329.397 235.925 329.336 236.28 329.213C236.64 329.086 236.95 328.897 237.211 328.646C237.472 328.391 237.673 328.074 237.816 327.695L239.435 328.152C239.264 328.701 238.977 329.183 238.574 329.6C238.171 330.011 237.673 330.332 237.081 330.564C236.489 330.79 235.823 330.903 235.085 330.902ZM244.654 328.698L244.54 329.465C244.459 330.004 244.335 330.582 244.168 331.197C244.007 331.812 243.838 332.392 243.662 332.937C243.486 333.481 243.341 333.914 243.227 334.236L241.949 334.234C242.011 333.931 242.092 333.531 242.192 333.034C242.292 332.537 242.392 331.981 242.492 331.366C242.597 330.755 242.683 330.13 242.75 329.491L242.836 328.696L244.654 328.698ZM253.61 330.697L253.627 316.151L258.541 316.157C259.678 316.158 260.61 316.354 261.339 316.743C262.068 317.127 262.607 317.656 262.956 318.328C263.306 319.001 263.48 319.766 263.479 320.623C263.478 321.48 263.302 322.24 262.951 322.902C262.6 323.565 262.062 324.085 261.337 324.463C260.612 324.836 259.686 325.022 258.559 325.021L254.582 325.016L254.584 323.425L258.504 323.43C259.281 323.431 259.906 323.318 260.38 323.091C260.858 322.864 261.204 322.543 261.418 322.126C261.636 321.705 261.746 321.203 261.746 320.621C261.747 320.039 261.639 319.529 261.421 319.094C261.204 318.658 260.857 318.321 260.379 318.084C259.901 317.842 259.269 317.72 258.483 317.719L255.386 317.716L255.371 330.699L253.61 330.697ZM260.464 324.171L264.036 330.709L261.99 330.706L258.475 324.168L260.464 324.171ZM270.632 330.944C269.581 330.943 268.674 330.71 267.912 330.245C267.155 329.775 266.571 329.121 266.16 328.282C265.754 327.439 265.552 326.459 265.553 325.341C265.554 324.224 265.759 323.239 266.167 322.387C266.58 321.531 267.154 320.864 267.888 320.387C268.628 319.905 269.49 319.664 270.474 319.665C271.043 319.666 271.604 319.761 272.157 319.951C272.711 320.141 273.215 320.45 273.669 320.876C274.123 321.298 274.485 321.857 274.754 322.554C275.023 323.25 275.157 324.107 275.156 325.125L275.155 325.835L266.746 325.826L266.747 324.377L273.452 324.385C273.453 323.769 273.33 323.22 273.084 322.736C272.844 322.253 272.498 321.872 272.049 321.592C271.604 321.312 271.079 321.172 270.473 321.171C269.805 321.17 269.227 321.335 268.739 321.666C268.256 321.992 267.884 322.418 267.623 322.943C267.362 323.468 267.231 324.032 267.23 324.633L267.229 325.599C267.228 326.423 267.369 327.121 267.653 327.695C267.941 328.263 268.34 328.697 268.851 328.996C269.362 329.29 269.956 329.437 270.633 329.438C271.074 329.439 271.472 329.378 271.827 329.255C272.187 329.127 272.497 328.938 272.758 328.688C273.019 328.432 273.22 328.115 273.363 327.737L274.982 328.193C274.81 328.742 274.523 329.225 274.12 329.641C273.718 330.053 273.22 330.374 272.628 330.605C272.036 330.832 271.37 330.945 270.632 330.944ZM283.957 323.715L283.955 325.278L277.591 325.27L277.593 323.708L283.957 323.715ZM287.125 330.736L287.142 316.19L292.057 316.196C293.198 316.197 294.131 316.404 294.855 316.817C295.583 317.225 296.122 317.778 296.472 318.474C296.821 319.17 296.996 319.947 296.995 320.804C296.994 321.661 296.818 322.44 296.466 323.14C296.12 323.84 295.584 324.399 294.859 324.814C294.134 325.225 293.206 325.43 292.075 325.429L288.552 325.425L288.554 323.862L292.02 323.866C292.801 323.867 293.428 323.733 293.902 323.464C294.376 323.195 294.72 322.83 294.933 322.371C295.152 321.908 295.261 321.384 295.262 320.802C295.262 320.22 295.154 319.699 294.937 319.239C294.724 318.78 294.379 318.419 293.901 318.158C293.423 317.893 292.789 317.759 291.998 317.758L288.902 317.755L288.887 330.738L287.125 330.736ZM301.286 316.207L301.269 330.752L299.593 330.75L299.61 316.205L301.286 316.207ZM307.549 331.015C306.858 331.014 306.231 330.884 305.668 330.622C305.104 330.357 304.657 329.975 304.327 329.477C303.996 328.975 303.831 328.369 303.832 327.659C303.832 327.034 303.956 326.527 304.203 326.139C304.449 325.746 304.779 325.439 305.191 325.217C305.603 324.995 306.058 324.83 306.555 324.721C307.057 324.608 307.562 324.519 308.068 324.453C308.731 324.369 309.269 324.306 309.681 324.263C310.097 324.217 310.401 324.139 310.59 324.03C310.784 323.921 310.882 323.732 310.882 323.462L310.882 323.406C310.883 322.705 310.692 322.16 310.309 321.771C309.93 321.383 309.355 321.188 308.583 321.187C307.783 321.186 307.156 321.36 306.701 321.71C306.246 322.06 305.926 322.434 305.741 322.831L304.15 322.261C304.435 321.599 304.815 321.083 305.289 320.714C305.767 320.341 306.288 320.081 306.852 319.935C307.42 319.784 307.979 319.709 308.528 319.71C308.879 319.71 309.281 319.753 309.736 319.839C310.195 319.92 310.637 320.088 311.063 320.345C311.494 320.601 311.851 320.987 312.134 321.504C312.418 322.02 312.559 322.711 312.558 323.578L312.55 330.765L310.873 330.763L310.875 329.286L310.79 329.286C310.676 329.523 310.486 329.776 310.221 330.045C309.955 330.315 309.602 330.544 309.162 330.733C308.721 330.922 308.184 331.016 307.549 331.015ZM307.807 329.51C308.47 329.511 309.028 329.381 309.483 329.121C309.943 328.861 310.289 328.526 310.521 328.114C310.759 327.702 310.877 327.269 310.878 326.815L310.88 325.281C310.809 325.366 310.652 325.444 310.411 325.514C310.174 325.58 309.899 325.639 309.587 325.691C309.279 325.738 308.978 325.78 308.685 325.818C308.396 325.851 308.161 325.879 307.981 325.902C307.546 325.958 307.138 326.05 306.759 326.178C306.385 326.3 306.082 326.487 305.85 326.738C305.622 326.984 305.508 327.32 305.508 327.746C305.507 328.328 305.722 328.769 306.152 329.068C306.588 329.362 307.139 329.509 307.807 329.51ZM320.366 319.865L320.364 321.286L314.711 321.279L314.712 319.859L320.366 319.865ZM316.363 317.247L318.039 317.249L318.027 327.647C318.027 328.12 318.095 328.475 318.232 328.712C318.374 328.945 318.554 329.101 318.771 329.182C318.994 329.258 319.228 329.296 319.474 329.296C319.659 329.296 319.81 329.287 319.929 329.268C320.047 329.245 320.142 329.226 320.213 329.212L320.552 330.718C320.438 330.76 320.28 330.803 320.076 330.845C319.872 330.892 319.614 330.916 319.302 330.915C318.828 330.915 318.364 330.812 317.91 330.608C317.461 330.404 317.087 330.094 316.789 329.677C316.496 329.26 316.35 328.734 316.351 328.099L316.363 317.247ZM327.745 319.874L327.743 321.294L321.863 321.288L321.864 319.867L327.745 319.874ZM323.613 330.778L323.628 318.364C323.628 317.739 323.776 317.218 324.07 316.802C324.364 316.385 324.745 316.073 325.214 315.865C325.683 315.658 326.178 315.554 326.699 315.555C327.111 315.555 327.447 315.589 327.707 315.655C327.968 315.722 328.162 315.784 328.29 315.841L327.805 317.289C327.72 317.26 327.601 317.225 327.45 317.182C327.303 317.139 327.109 317.118 326.868 317.117C326.314 317.117 325.913 317.256 325.667 317.535C325.425 317.814 325.304 318.223 325.303 318.763L325.289 330.78L323.613 330.778ZM334.064 331.018C333.079 331.017 332.215 330.781 331.472 330.312C330.734 329.842 330.157 329.186 329.742 328.342C329.331 327.499 329.126 326.514 329.127 325.387C329.129 324.251 329.336 323.259 329.749 322.412C330.166 321.565 330.745 320.907 331.484 320.439C332.228 319.972 333.092 319.738 334.077 319.739C335.062 319.741 335.923 319.976 336.661 320.446C337.404 320.915 337.981 321.574 338.392 322.422C338.808 323.27 339.015 324.262 339.014 325.399C339.012 326.525 338.803 327.51 338.385 328.352C337.972 329.195 337.394 329.85 336.65 330.318C335.911 330.786 335.049 331.019 334.064 331.018ZM334.066 329.512C334.814 329.513 335.429 329.322 335.913 328.939C336.396 328.556 336.754 328.052 336.987 327.427C337.22 326.803 337.337 326.126 337.337 325.397C337.338 324.667 337.223 323.988 336.992 323.358C336.761 322.728 336.404 322.218 335.921 321.83C335.439 321.441 334.823 321.246 334.075 321.245C333.327 321.244 332.711 321.438 332.228 321.825C331.745 322.213 331.386 322.722 331.154 323.351C330.921 323.98 330.804 324.66 330.803 325.389C330.803 326.118 330.918 326.795 331.149 327.421C331.38 328.046 331.737 328.551 332.22 328.935C332.702 329.319 333.317 329.511 334.066 329.512ZM341.566 330.799L341.579 319.89L343.198 319.892L343.196 321.54L343.31 321.54C343.509 321 343.869 320.563 344.391 320.227C344.912 319.892 345.499 319.724 346.153 319.725C346.276 319.725 346.43 319.728 346.614 319.733C346.799 319.738 346.939 319.745 347.033 319.754L347.031 321.459C346.975 321.445 346.844 321.423 346.641 321.395C346.442 321.361 346.231 321.344 346.009 321.344C345.478 321.344 345.005 321.454 344.588 321.676C344.176 321.894 343.849 322.196 343.607 322.584C343.37 322.968 343.251 323.405 343.25 323.898L343.242 330.801L341.566 330.799ZM349.007 330.808L349.02 319.899L350.639 319.901L350.637 321.605L350.779 321.605C351.007 321.023 351.375 320.572 351.882 320.25C352.389 319.924 352.997 319.761 353.708 319.762C354.427 319.763 355.026 319.927 355.504 320.254C355.987 320.577 356.362 321.03 356.632 321.612L356.745 321.612C357.025 321.049 357.445 320.602 358.004 320.272C358.563 319.936 359.233 319.769 360.014 319.77C360.99 319.771 361.787 320.077 362.407 320.689C363.026 321.295 363.335 322.24 363.334 323.523L363.325 330.825L361.649 330.823L361.658 323.522C361.659 322.717 361.439 322.141 360.999 321.795C360.559 321.449 360.041 321.275 359.445 321.275C358.678 321.274 358.083 321.505 357.661 321.969C357.239 322.427 357.028 323.009 357.027 323.715L357.019 330.817L355.314 330.815L355.323 323.344C355.324 322.723 355.123 322.224 354.721 321.844C354.319 321.46 353.801 321.268 353.166 321.267C352.731 321.267 352.323 321.382 351.944 321.614C351.57 321.845 351.266 322.167 351.034 322.579C350.806 322.986 350.692 323.457 350.691 323.992L350.683 330.81L349.007 330.808ZM366.39 330.828L366.403 319.919L368.079 319.921L368.066 330.83L366.39 330.828ZM367.257 318.102C366.93 318.102 366.649 317.99 366.412 317.767C366.181 317.544 366.065 317.277 366.065 316.964C366.066 316.652 366.182 316.384 366.414 316.162C366.651 315.94 366.933 315.829 367.26 315.829C367.587 315.83 367.866 315.941 368.098 316.164C368.334 316.387 368.452 316.654 368.452 316.967C368.451 317.279 368.333 317.547 368.096 317.769C367.863 317.991 367.584 318.102 367.257 318.102ZM372.82 324.273L372.812 330.836L371.136 330.834L371.149 319.925L372.768 319.927L372.766 321.631L372.908 321.631C373.165 321.078 373.553 320.633 374.075 320.297C374.596 319.957 375.268 319.787 376.092 319.788C376.831 319.789 377.477 319.941 378.031 320.245C378.584 320.544 379.015 320.999 379.322 321.61C379.629 322.217 379.782 322.984 379.781 323.912L379.773 330.844L378.096 330.842L378.104 324.024C378.105 323.167 377.884 322.499 377.439 322.02C376.995 321.537 376.384 321.294 375.608 321.293C375.072 321.293 374.594 321.408 374.172 321.64C373.756 321.871 373.426 322.209 373.184 322.654C372.942 323.099 372.821 323.639 372.82 324.273ZM387.234 335.171C386.424 335.17 385.728 335.065 385.146 334.856C384.564 334.651 384.079 334.381 383.691 334.044C383.308 333.712 383.003 333.357 382.776 332.978L384.112 332.042C384.264 332.241 384.455 332.469 384.687 332.725C384.919 332.985 385.236 333.21 385.638 333.4C386.045 333.595 386.577 333.693 387.235 333.693C388.116 333.694 388.843 333.482 389.417 333.057C389.99 332.631 390.277 331.964 390.278 331.055L390.281 328.839L390.139 328.839C390.016 329.038 389.84 329.284 389.612 329.577C389.39 329.865 389.067 330.123 388.646 330.35C388.229 330.572 387.665 330.683 386.955 330.682C386.074 330.681 385.284 330.471 384.583 330.054C383.888 329.636 383.337 329.03 382.931 328.234C382.529 327.438 382.329 326.472 382.33 325.335C382.332 324.218 382.529 323.245 382.923 322.417C383.317 321.584 383.865 320.941 384.566 320.487C385.268 320.029 386.077 319.8 386.996 319.801C387.706 319.802 388.27 319.921 388.686 320.158C389.107 320.391 389.429 320.656 389.651 320.955C389.878 321.249 390.053 321.49 390.176 321.68L390.346 321.68L390.348 319.947L391.967 319.949L391.954 331.17C391.953 332.108 391.739 332.87 391.312 333.457C390.89 334.048 390.322 334.481 389.606 334.754C388.896 335.033 388.105 335.172 387.234 335.171ZM387.184 329.176C387.856 329.177 388.425 329.024 388.889 328.717C389.353 328.409 389.707 327.967 389.949 327.39C390.191 326.812 390.313 326.121 390.313 325.316C390.314 324.53 390.197 323.837 389.961 323.235C389.725 322.633 389.375 322.162 388.911 321.82C388.448 321.479 387.875 321.308 387.193 321.307C386.483 321.306 385.891 321.485 385.417 321.845C384.948 322.204 384.594 322.687 384.357 323.292C384.124 323.898 384.007 324.57 384.007 325.309C384.006 326.067 384.123 326.737 384.359 327.319C384.6 327.897 384.955 328.352 385.423 328.684C385.896 329.011 386.483 329.175 387.184 329.176ZM108.023 360.726C107.067 360.725 106.243 360.549 105.552 360.197C104.861 359.846 104.329 359.365 103.956 358.754C103.583 358.143 103.396 357.444 103.397 356.658C103.398 356.052 103.526 355.515 103.783 355.046C104.044 354.573 104.402 354.135 104.857 353.734C105.316 353.327 105.845 352.92 106.442 352.514L108.546 350.954C108.958 350.684 109.288 350.396 109.534 350.088C109.785 349.781 109.911 349.379 109.912 348.881C109.912 348.512 109.749 348.154 109.423 347.808C109.102 347.462 108.678 347.289 108.152 347.288C107.783 347.288 107.456 347.382 107.172 347.571C106.892 347.756 106.672 347.992 106.511 348.281C106.354 348.565 106.276 348.858 106.275 349.161C106.275 349.502 106.367 349.848 106.551 350.199C106.74 350.544 106.979 350.9 107.267 351.265C107.56 351.625 107.863 351.995 108.175 352.374L114.842 360.535L112.825 360.533L107.321 353.878C106.81 353.262 106.347 352.703 105.931 352.201C105.515 351.698 105.184 351.203 104.938 350.715C104.693 350.227 104.57 349.699 104.571 349.131C104.572 348.478 104.717 347.905 105.006 347.413C105.3 346.916 105.71 346.53 106.236 346.256C106.767 345.978 107.387 345.839 108.097 345.84C108.827 345.84 109.454 345.983 109.979 346.268C110.504 346.548 110.909 346.92 111.192 347.384C111.476 347.844 111.617 348.344 111.617 348.883C111.616 349.579 111.442 350.183 111.096 350.694C110.75 351.205 110.278 351.68 109.681 352.12L106.781 354.276C106.127 354.758 105.683 355.226 105.451 355.68C105.218 356.135 105.102 356.461 105.102 356.66C105.101 357.114 105.219 357.538 105.455 357.932C105.692 358.325 106.025 358.643 106.456 358.885C106.886 359.127 107.39 359.248 107.968 359.249C108.517 359.249 109.053 359.134 109.574 358.902C110.095 358.666 110.566 358.326 110.988 357.881C111.415 357.437 111.752 356.902 111.999 356.277C112.25 355.653 112.377 354.95 112.377 354.168L113.997 354.17C113.996 355.136 113.883 355.924 113.66 356.535C113.437 357.146 113.185 357.623 112.906 357.969C112.626 358.314 112.401 358.572 112.23 358.742C112.173 358.813 112.121 358.884 112.074 358.955C112.026 359.026 111.974 359.097 111.917 359.168C111.448 359.693 110.855 360.085 110.14 360.345C109.425 360.6 108.719 360.727 108.023 360.726ZM122.549 360.544L122.566 345.998L127.481 346.004C128.622 346.006 129.555 346.213 130.279 346.625C131.007 347.033 131.546 347.586 131.896 348.282C132.246 348.979 132.42 349.755 132.419 350.612C132.418 351.469 132.242 352.248 131.891 352.948C131.544 353.649 131.008 354.207 130.284 354.623C129.559 355.034 128.63 355.239 127.499 355.237L123.976 355.233L123.978 353.671L127.444 353.675C128.225 353.676 128.852 353.541 129.326 353.272C129.8 353.003 130.144 352.638 130.357 352.179C130.576 351.716 130.685 351.193 130.686 350.61C130.687 350.028 130.578 349.507 130.361 349.047C130.149 348.588 129.803 348.228 129.325 347.967C128.847 347.701 128.213 347.568 127.422 347.567L124.326 347.563L124.311 360.546L122.549 360.544ZM139.474 360.791C138.423 360.79 137.516 360.557 136.754 360.092C135.997 359.622 135.413 358.968 135.002 358.129C134.596 357.286 134.394 356.306 134.395 355.188C134.396 354.071 134.601 353.086 135.009 352.235C135.422 351.378 135.996 350.711 136.73 350.234C137.47 349.752 138.332 349.511 139.316 349.512C139.885 349.513 140.446 349.608 140.999 349.798C141.553 349.988 142.057 350.297 142.511 350.723C142.965 351.145 143.327 351.705 143.596 352.401C143.865 353.097 143.999 353.954 143.998 354.972L143.997 355.683L135.588 355.673L135.589 354.224L142.294 354.232C142.295 353.616 142.172 353.067 141.927 352.584C141.686 352.1 141.34 351.719 140.891 351.439C140.446 351.159 139.921 351.019 139.315 351.018C138.647 351.017 138.069 351.182 137.581 351.513C137.098 351.839 136.726 352.265 136.465 352.79C136.204 353.316 136.073 353.879 136.072 354.48L136.071 355.446C136.07 356.27 136.211 356.968 136.495 357.542C136.783 358.11 137.182 358.544 137.693 358.843C138.204 359.137 138.798 359.284 139.476 359.285C139.916 359.286 140.314 359.225 140.669 359.102C141.029 358.975 141.339 358.786 141.6 358.535C141.861 358.28 142.062 357.963 142.205 357.584L143.824 358.04C143.652 358.589 143.365 359.072 142.963 359.488C142.56 359.9 142.062 360.221 141.47 360.452C140.878 360.679 140.212 360.792 139.474 360.791ZM146.541 360.572L146.554 349.663L148.173 349.665L148.171 351.312L148.285 351.313C148.484 350.773 148.844 350.335 149.366 350C149.887 349.664 150.474 349.497 151.128 349.498C151.251 349.498 151.405 349.5 151.589 349.505C151.774 349.51 151.914 349.518 152.008 349.527L152.006 351.232C151.949 351.217 151.819 351.196 151.616 351.167C151.417 351.134 151.206 351.117 150.984 351.117C150.453 351.116 149.98 351.227 149.563 351.449C149.151 351.666 148.824 351.969 148.582 352.357C148.344 352.74 148.226 353.178 148.225 353.67L148.217 360.574L146.541 360.572ZM159.536 349.678L159.535 351.098L153.654 351.092L153.656 349.671L159.536 349.678ZM155.404 360.582L155.419 348.167C155.42 347.542 155.567 347.022 155.861 346.605C156.155 346.189 156.537 345.877 157.006 345.669C157.475 345.462 157.97 345.358 158.49 345.359C158.902 345.359 159.238 345.393 159.499 345.459C159.759 345.526 159.953 345.588 160.081 345.644L159.596 347.093C159.511 347.064 159.393 347.029 159.241 346.986C159.095 346.943 158.9 346.922 158.659 346.921C158.105 346.921 157.705 347.06 157.458 347.339C157.216 347.618 157.095 348.027 157.095 348.567L157.081 360.584L155.404 360.582ZM165.855 360.822C164.87 360.821 164.006 360.585 163.264 360.116C162.526 359.646 161.949 358.989 161.533 358.146C161.122 357.303 160.917 356.318 160.919 355.191C160.92 354.055 161.127 353.063 161.54 352.216C161.958 351.369 162.536 350.711 163.275 350.243C164.019 349.776 164.883 349.542 165.868 349.543C166.853 349.544 167.715 349.78 168.453 350.249C169.196 350.719 169.772 351.378 170.183 352.226C170.599 353.074 170.806 354.066 170.805 355.202C170.804 356.329 170.594 357.314 170.176 358.156C169.764 358.999 169.185 359.654 168.441 360.122C167.702 360.589 166.84 360.823 165.855 360.822ZM165.857 359.316C166.605 359.317 167.221 359.126 167.704 358.743C168.188 358.36 168.546 357.856 168.778 357.231C169.011 356.607 169.128 355.93 169.129 355.2C169.13 354.471 169.014 353.792 168.783 353.162C168.552 352.532 168.195 352.022 167.712 351.634C167.23 351.245 166.615 351.05 165.867 351.049C165.118 351.048 164.503 351.242 164.019 351.629C163.536 352.017 163.178 352.525 162.945 353.155C162.712 353.784 162.596 354.464 162.595 355.193C162.594 355.922 162.709 356.599 162.94 357.225C163.172 357.85 163.528 358.354 164.011 358.739C164.493 359.123 165.109 359.315 165.857 359.316ZM173.357 360.603L173.37 349.694L174.989 349.696L174.987 351.344L175.101 351.344C175.3 350.804 175.661 350.367 176.182 350.031C176.703 349.696 177.291 349.528 177.944 349.529C178.067 349.529 178.221 349.532 178.406 349.537C178.59 349.542 178.73 349.549 178.825 349.558L178.823 351.263C178.766 351.249 178.636 351.227 178.432 351.199C178.233 351.165 178.023 351.148 177.8 351.148C177.27 351.147 176.796 351.258 176.379 351.48C175.967 351.698 175.64 352 175.398 352.388C175.161 352.771 175.042 353.209 175.041 353.702L175.033 360.605L173.357 360.603ZM180.799 360.612L180.811 349.703L182.431 349.705L182.429 351.409L182.571 351.409C182.799 350.827 183.166 350.375 183.673 350.054C184.18 349.728 184.789 349.565 185.499 349.566C186.219 349.567 186.817 349.731 187.295 350.058C187.778 350.381 188.154 350.833 188.423 351.416L188.537 351.416C188.817 350.853 189.236 350.406 189.795 350.075C190.354 349.74 191.025 349.573 191.806 349.574C192.781 349.575 193.579 349.881 194.198 350.493C194.818 351.099 195.127 352.044 195.125 353.327L195.117 360.629L193.441 360.627L193.449 353.325C193.45 352.521 193.231 351.945 192.791 351.599C192.351 351.253 191.832 351.079 191.236 351.079C190.469 351.078 189.874 351.309 189.452 351.772C189.03 352.231 188.819 352.813 188.818 353.519L188.81 360.621L187.105 360.619L187.114 353.148C187.115 352.527 186.914 352.028 186.512 351.648C186.11 351.264 185.592 351.072 184.957 351.071C184.522 351.071 184.114 351.186 183.735 351.418C183.361 351.649 183.058 351.971 182.825 352.383C182.597 352.79 182.483 353.261 182.483 353.796L182.475 360.614L180.799 360.612ZM201.391 360.892C200.7 360.891 200.073 360.76 199.51 360.499C198.947 360.233 198.5 359.851 198.169 359.354C197.838 358.851 197.673 358.245 197.674 357.535C197.674 356.91 197.798 356.403 198.045 356.015C198.291 355.623 198.621 355.315 199.033 355.093C199.445 354.871 199.9 354.706 200.397 354.598C200.899 354.485 201.404 354.395 201.91 354.33C202.573 354.245 203.111 354.182 203.523 354.14C203.939 354.093 204.243 354.015 204.432 353.906C204.626 353.798 204.724 353.608 204.724 353.339L204.724 353.282C204.725 352.581 204.534 352.036 204.151 351.648C203.772 351.259 203.197 351.064 202.425 351.063C201.625 351.062 200.998 351.237 200.543 351.587C200.088 351.936 199.768 352.31 199.583 352.708L197.992 352.138C198.277 351.475 198.657 350.959 199.131 350.591C199.609 350.217 200.13 349.957 200.694 349.811C201.262 349.66 201.821 349.585 202.37 349.586C202.721 349.586 203.123 349.629 203.578 349.715C204.037 349.796 204.479 349.965 204.905 350.221C205.336 350.477 205.693 350.863 205.976 351.38C206.26 351.896 206.401 352.588 206.4 353.454L206.392 360.642L204.715 360.64L204.717 359.162L204.632 359.162C204.518 359.399 204.328 359.652 204.063 359.922C203.797 360.191 203.444 360.42 203.004 360.609C202.563 360.798 202.026 360.892 201.391 360.892ZM201.649 359.386C202.312 359.387 202.87 359.257 203.325 358.997C203.785 358.738 204.131 358.402 204.363 357.99C204.601 357.579 204.72 357.145 204.72 356.691L204.722 355.157C204.651 355.242 204.494 355.32 204.253 355.391C204.016 355.457 203.741 355.515 203.429 355.567C203.121 355.614 202.82 355.656 202.527 355.694C202.238 355.727 202.003 355.755 201.823 355.778C201.388 355.835 200.98 355.927 200.601 356.054C200.227 356.177 199.924 356.363 199.692 356.614C199.464 356.86 199.35 357.196 199.35 357.622C199.349 358.204 199.564 358.645 199.994 358.944C200.43 359.238 200.981 359.385 201.649 359.386ZM211.135 354.085L211.127 360.647L209.451 360.645L209.464 349.736L211.083 349.738L211.081 351.443L211.223 351.443C211.479 350.889 211.868 350.444 212.389 350.109C212.911 349.769 213.583 349.599 214.407 349.6C215.146 349.601 215.792 349.753 216.345 350.057C216.899 350.356 217.329 350.811 217.636 351.422C217.943 352.028 218.096 352.795 218.095 353.723L218.087 360.655L216.411 360.653L216.419 353.835C216.42 352.978 216.198 352.31 215.754 351.832C215.309 351.348 214.699 351.106 213.922 351.105C213.387 351.104 212.909 351.22 212.487 351.451C212.07 351.683 211.741 352.021 211.499 352.466C211.257 352.911 211.135 353.45 211.135 354.085ZM225.582 360.891C224.559 360.89 223.679 360.648 222.94 360.164C222.202 359.68 221.635 359.014 221.238 358.166C220.842 357.318 220.644 356.35 220.645 355.261C220.646 354.153 220.851 353.175 221.259 352.328C221.672 351.476 222.246 350.812 222.98 350.334C223.72 349.852 224.582 349.612 225.566 349.613C226.333 349.614 227.025 349.757 227.64 350.041C228.255 350.326 228.759 350.725 229.151 351.236C229.544 351.748 229.787 352.345 229.881 353.027L228.204 353.025C228.077 352.528 227.794 352.087 227.354 351.703C226.919 351.314 226.332 351.119 225.593 351.119C224.94 351.118 224.367 351.288 223.874 351.628C223.386 351.964 223.004 352.439 222.729 353.054C222.458 353.665 222.322 354.382 222.321 355.206C222.32 356.048 222.452 356.783 222.716 357.408C222.986 358.033 223.364 358.519 223.851 358.865C224.343 359.211 224.921 359.385 225.583 359.386C226.019 359.386 226.414 359.311 226.77 359.16C227.125 359.009 227.426 358.791 227.673 358.507C227.919 358.224 228.095 357.883 228.199 357.485L229.875 357.487C229.78 358.131 229.545 358.711 229.17 359.226C228.8 359.737 228.31 360.144 227.699 360.446C227.092 360.744 226.387 360.892 225.582 360.891ZM236.896 360.905C235.844 360.903 234.938 360.67 234.176 360.205C233.419 359.736 232.835 359.082 232.424 358.243C232.018 357.4 231.816 356.419 231.817 355.302C231.818 354.185 232.023 353.2 232.431 352.348C232.844 351.492 233.418 350.825 234.152 350.347C234.891 349.865 235.753 349.625 236.738 349.626C237.306 349.627 237.867 349.722 238.421 349.912C238.975 350.102 239.479 350.41 239.933 350.837C240.387 351.259 240.749 351.818 241.018 352.514C241.287 353.211 241.421 354.068 241.419 355.086L241.419 355.796L233.01 355.786L233.011 354.337L239.716 354.345C239.716 353.73 239.594 353.18 239.348 352.697C239.107 352.214 238.762 351.832 238.313 351.552C237.868 351.273 237.343 351.132 236.737 351.132C236.069 351.131 235.491 351.296 235.003 351.627C234.52 351.953 234.147 352.379 233.886 352.904C233.625 353.429 233.495 353.992 233.494 354.594L233.493 355.56C233.492 356.383 233.633 357.082 233.916 357.655C234.205 358.224 234.604 358.658 235.115 358.956C235.626 359.251 236.22 359.398 236.897 359.399C237.338 359.399 237.735 359.338 238.091 359.216C238.451 359.088 238.761 358.899 239.022 358.648C239.283 358.393 239.484 358.076 239.627 357.697L241.245 358.154C241.074 358.703 240.787 359.186 240.384 359.602C239.981 360.013 239.484 360.335 238.892 360.566C238.3 360.793 237.634 360.905 236.896 360.905ZM251.593 346.149L251.576 360.694L249.815 360.692L249.832 346.147L251.593 346.149ZM254.881 360.698L254.893 349.789L256.513 349.791L256.511 351.496L256.653 351.496C256.881 350.914 257.248 350.462 257.755 350.14C258.262 349.814 258.871 349.652 259.581 349.653C260.301 349.653 260.899 349.817 261.377 350.145C261.86 350.467 262.236 350.92 262.505 351.503L262.619 351.503C262.899 350.94 263.318 350.493 263.877 350.162C264.436 349.826 265.107 349.659 265.888 349.66C266.863 349.661 267.661 349.967 268.28 350.579C268.9 351.186 269.209 352.131 269.207 353.414L269.199 360.715L267.523 360.713L267.531 353.412C267.532 352.607 267.313 352.031 266.873 351.685C266.433 351.339 265.914 351.166 265.318 351.165C264.551 351.164 263.956 351.395 263.534 351.859C263.112 352.318 262.901 352.9 262.9 353.605L262.892 360.708L261.187 360.706L261.196 353.234C261.197 352.614 260.996 352.114 260.594 351.735C260.192 351.351 259.674 351.158 259.039 351.158C258.604 351.157 258.196 351.273 257.817 351.504C257.443 351.736 257.14 352.057 256.907 352.469C256.679 352.876 256.565 353.347 256.565 353.882L256.557 360.7L254.881 360.698ZM272.259 364.809L272.276 349.809L273.895 349.811L273.893 351.544L274.092 351.544C274.216 351.355 274.386 351.114 274.604 350.821C274.827 350.523 275.145 350.258 275.557 350.026C275.974 349.79 276.538 349.672 277.248 349.673C278.166 349.674 278.976 349.905 279.676 350.365C280.376 350.825 280.922 351.477 281.314 352.32C281.706 353.163 281.902 354.158 281.9 355.304C281.899 356.459 281.701 357.46 281.307 358.307C280.913 359.149 280.368 359.802 279.672 360.265C278.975 360.724 278.172 360.953 277.263 360.952C276.562 360.951 276.001 360.834 275.58 360.602C275.159 360.364 274.835 360.096 274.608 359.798C274.381 359.495 274.206 359.243 274.084 359.044L273.941 359.044L273.935 364.811L272.259 364.809ZM273.917 355.266C273.916 356.09 274.036 356.817 274.277 357.447C274.518 358.072 274.87 358.562 275.334 358.918C275.797 359.269 276.365 359.445 277.038 359.446C277.738 359.446 278.323 359.262 278.792 358.894C279.266 358.52 279.622 358.019 279.86 357.389C280.102 356.755 280.223 356.05 280.224 355.273C280.225 354.506 280.108 353.815 279.872 353.199C279.64 352.578 279.288 352.088 278.815 351.728C278.347 351.362 277.757 351.179 277.047 351.179C276.365 351.178 275.792 351.35 275.328 351.695C274.863 352.035 274.513 352.513 274.275 353.128C274.038 353.739 273.918 354.451 273.917 355.266ZM284.451 360.733L284.464 349.824L286.083 349.825L286.081 351.473L286.195 351.473C286.394 350.934 286.754 350.496 287.276 350.161C287.797 349.825 288.384 349.658 289.038 349.658C289.161 349.659 289.315 349.661 289.499 349.666C289.684 349.671 289.824 349.678 289.918 349.688L289.916 351.392C289.859 351.378 289.729 351.357 289.526 351.328C289.327 351.295 289.116 351.278 288.894 351.278C288.363 351.277 287.89 351.388 287.473 351.61C287.061 351.827 286.734 352.13 286.492 352.518C286.254 352.901 286.136 353.339 286.135 353.831L286.127 360.735L284.451 360.733ZM295.992 360.973C295.007 360.972 294.143 360.737 293.4 360.267C292.662 359.798 292.085 359.141 291.67 358.298C291.259 357.455 291.054 356.47 291.055 355.343C291.056 354.206 291.264 353.215 291.677 352.368C292.094 351.52 292.673 350.863 293.412 350.395C294.156 349.927 295.02 349.694 296.005 349.695C296.99 349.696 297.851 349.932 298.589 350.401C299.332 350.871 299.909 351.53 300.32 352.378C300.736 353.226 300.943 354.218 300.942 355.354C300.94 356.481 300.731 357.466 300.313 358.308C299.9 359.15 299.322 359.805 298.578 360.273C297.839 360.741 296.977 360.975 295.992 360.973ZM295.994 359.468C296.742 359.469 297.357 359.278 297.841 358.895C298.324 358.512 298.682 358.008 298.915 357.383C299.148 356.758 299.265 356.081 299.265 355.352C299.266 354.623 299.151 353.943 298.92 353.313C298.688 352.683 298.332 352.174 297.849 351.785C297.367 351.396 296.751 351.202 296.003 351.201C295.255 351.2 294.639 351.393 294.156 351.781C293.672 352.169 293.314 352.677 293.082 353.307C292.849 353.936 292.732 354.615 292.731 355.345C292.73 356.074 292.846 356.751 293.077 357.376C293.308 358.002 293.665 358.506 294.148 358.89C294.63 359.274 295.245 359.467 295.994 359.468ZM312.036 349.856L307.99 360.76L306.285 360.758L302.264 349.844L304.082 349.846L307.083 358.543L307.197 358.543L310.218 349.854L312.036 349.856ZM318.419 361C317.368 360.998 316.461 360.765 315.7 360.3C314.943 359.831 314.359 359.177 313.948 358.338C313.541 357.495 313.339 356.514 313.34 355.397C313.342 354.28 313.546 353.295 313.955 352.443C314.367 351.587 314.941 350.92 315.676 350.442C316.415 349.96 317.277 349.72 318.262 349.721C318.83 349.722 319.391 349.817 319.945 350.007C320.498 350.197 321.002 350.505 321.456 350.932C321.91 351.354 322.272 351.913 322.541 352.609C322.81 353.306 322.944 354.163 322.943 355.181L322.942 355.891L314.533 355.881L314.535 354.433L321.239 354.44C321.24 353.825 321.117 353.275 320.872 352.792C320.631 352.309 320.286 351.927 319.836 351.647C319.391 351.368 318.866 351.227 318.26 351.227C317.592 351.226 317.014 351.391 316.526 351.722C316.043 352.048 315.671 352.474 315.41 352.999C315.149 353.524 315.018 354.087 315.017 354.689L315.016 355.655C315.015 356.479 315.156 357.177 315.44 357.75C315.728 358.319 316.128 358.753 316.639 359.051C317.15 359.346 317.744 359.493 318.421 359.494C318.861 359.494 319.259 359.433 319.614 359.311C319.974 359.183 320.284 358.994 320.545 358.744C320.806 358.488 321.007 358.171 321.15 357.793L322.769 358.249C322.598 358.798 322.311 359.281 321.908 359.697C321.505 360.108 321.007 360.43 320.415 360.661C319.823 360.888 319.158 361 318.419 361ZM325.486 360.781L325.499 349.871L327.118 349.873L327.116 351.578L327.258 351.578C327.486 350.996 327.854 350.544 328.361 350.223C328.868 349.897 329.476 349.734 330.186 349.735C330.906 349.736 331.505 349.9 331.983 350.227C332.465 350.55 332.841 351.002 333.11 351.585L333.224 351.585C333.504 351.022 333.924 350.575 334.483 350.244C335.042 349.909 335.712 349.741 336.493 349.742C337.469 349.743 338.266 350.05 338.886 350.661C339.505 351.268 339.814 352.213 339.813 353.496L339.804 360.797L338.128 360.795L338.137 353.494C338.137 352.689 337.918 352.114 337.478 351.767C337.038 351.421 336.52 351.248 335.923 351.247C335.156 351.246 334.562 351.478 334.14 351.941C333.718 352.4 333.506 352.982 333.506 353.688L333.497 360.79L331.793 360.788L331.802 353.316C331.802 352.696 331.602 352.196 331.2 351.817C330.798 351.433 330.279 351.241 329.645 351.24C329.209 351.239 328.802 351.355 328.423 351.586C328.049 351.818 327.745 352.14 327.513 352.551C327.285 352.958 327.171 353.429 327.17 353.964L327.162 360.782L325.486 360.781ZM347.442 361.033C346.391 361.032 345.485 360.799 344.723 360.334C343.966 359.865 343.382 359.21 342.971 358.372C342.565 357.529 342.362 356.548 342.364 355.431C342.365 354.313 342.57 353.329 342.978 352.477C343.391 351.621 343.965 350.954 344.699 350.476C345.438 349.994 346.3 349.754 347.285 349.755C347.853 349.755 348.414 349.851 348.968 350.041C349.522 350.231 350.026 350.539 350.48 350.966C350.934 351.388 351.295 351.947 351.564 352.643C351.833 353.34 351.967 354.197 351.966 355.215L351.965 355.925L343.556 355.915L343.558 354.466L350.263 354.474C350.263 353.859 350.141 353.309 349.895 352.826C349.654 352.343 349.309 351.961 348.86 351.681C348.415 351.401 347.889 351.261 347.283 351.26C346.616 351.26 346.038 351.425 345.55 351.756C345.066 352.082 344.694 352.507 344.433 353.033C344.172 353.558 344.041 354.121 344.041 354.723L344.04 355.689C344.039 356.512 344.18 357.211 344.463 357.784C344.751 358.353 345.151 358.786 345.662 359.085C346.173 359.379 346.767 359.527 347.444 359.528C347.884 359.528 348.282 359.467 348.638 359.344C348.998 359.217 349.308 359.028 349.569 358.777C349.829 358.522 350.031 358.205 350.173 357.826L351.792 358.283C351.621 358.832 351.334 359.314 350.931 359.731C350.528 360.142 350.031 360.463 349.439 360.695C348.846 360.921 348.181 361.034 347.442 361.033ZM356.193 354.254L356.186 360.816L354.509 360.814L354.522 349.905L356.141 349.907L356.139 351.612L356.282 351.612C356.538 351.058 356.927 350.614 357.448 350.278C357.969 349.938 358.642 349.768 359.465 349.769C360.204 349.77 360.85 349.922 361.404 350.226C361.958 350.525 362.388 350.98 362.695 351.591C363.002 352.197 363.155 352.965 363.154 353.893L363.146 360.824L361.47 360.822L361.478 354.004C361.479 353.147 361.257 352.479 360.812 352.001C360.368 351.517 359.757 351.275 358.981 351.274C358.446 351.273 357.967 351.389 357.546 351.62C357.129 351.852 356.799 352.19 356.557 352.635C356.315 353.08 356.194 353.619 356.193 354.254ZM370.966 349.924L370.964 351.345L365.311 351.338L365.312 349.918L370.966 349.924ZM366.963 347.306L368.639 347.308L368.627 357.706C368.626 358.179 368.695 358.534 368.832 358.771C368.974 359.004 369.153 359.16 369.371 359.241C369.593 359.317 369.828 359.355 370.074 359.355C370.259 359.355 370.41 359.346 370.529 359.327C370.647 359.304 370.742 359.285 370.813 359.271L371.152 360.777C371.038 360.819 370.88 360.862 370.676 360.904C370.472 360.951 370.214 360.975 369.902 360.974C369.428 360.974 368.964 360.871 368.51 360.667C368.06 360.463 367.687 360.153 367.389 359.736C367.096 359.319 366.95 358.793 366.95 358.158L366.963 347.306ZM381.016 352.379L379.51 352.804C379.415 352.553 379.276 352.309 379.092 352.072C378.912 351.83 378.666 351.631 378.354 351.474C378.041 351.318 377.641 351.239 377.154 351.238C376.486 351.238 375.93 351.391 375.484 351.698C375.044 352.001 374.823 352.386 374.822 352.855C374.822 353.272 374.973 353.601 375.276 353.843C375.578 354.085 376.052 354.286 376.695 354.448L378.314 354.848C379.289 355.086 380.016 355.449 380.493 355.937C380.971 356.42 381.21 357.043 381.209 357.806C381.208 358.431 381.027 358.989 380.667 359.481C380.311 359.973 379.814 360.361 379.174 360.644C378.535 360.928 377.791 361.069 376.943 361.068C375.831 361.066 374.91 360.824 374.182 360.34C373.453 359.856 372.992 359.15 372.799 358.222L374.39 357.826C374.541 358.413 374.827 358.854 375.248 359.148C375.674 359.442 376.23 359.59 376.917 359.59C377.698 359.591 378.318 359.426 378.778 359.095C379.243 358.76 379.475 358.358 379.476 357.889C379.476 357.51 379.344 357.193 379.079 356.937C378.814 356.676 378.407 356.481 377.858 356.353L376.04 355.925C375.042 355.687 374.308 355.319 373.84 354.821C373.377 354.319 373.145 353.691 373.146 352.938C373.147 352.323 373.32 351.779 373.666 351.305C374.017 350.832 374.494 350.461 375.095 350.192C375.702 349.923 376.388 349.789 377.155 349.79C378.235 349.791 379.082 350.029 379.697 350.503C380.317 350.977 380.757 351.603 381.016 352.379Z" fill="white"/>
<path d="M191.819 123.277L187.295 123.271L188.447 116.825L192.971 116.83L193.547 113.503L189.075 113.497L190.226 107.051L194.698 107.056L196.425 97.2819L203.341 97.29L201.614 107.064L205.826 107.069L207.553 97.2949L214.469 97.3029L212.742 107.077L217.266 107.082L216.115 113.529L211.591 113.524L211.015 116.851L215.487 116.856L214.335 123.303L209.863 123.298L208.136 133.072L201.22 133.064L202.947 123.29L198.735 123.285L197.008 133.059L190.092 133.051L191.819 123.277ZM204.099 116.843L204.675 113.516L200.463 113.511L199.887 116.838L204.099 116.843ZM235.786 133.52C232.666 133.516 229.859 132.75 227.364 131.222C224.905 129.659 222.966 127.525 221.548 124.819C220.164 122.079 219.475 118.975 219.479 115.509C219.483 112.077 220.18 109.01 221.57 106.307C222.994 103.57 224.938 101.44 227.401 99.918C229.899 98.3609 232.708 97.5842 235.828 97.5878C238.913 97.5914 241.685 98.3747 244.145 99.9375C246.639 101.466 248.578 103.6 249.961 106.34C251.38 109.081 252.087 112.149 252.083 115.547C252.079 118.979 251.382 122.063 249.992 124.8C248.602 127.537 246.658 129.684 244.16 131.242C241.697 132.764 238.906 133.523 235.786 133.52ZM235.796 124.888C236.836 124.889 237.772 124.491 238.605 123.695C239.473 122.864 240.15 121.738 240.637 120.317C241.124 118.897 241.369 117.302 241.371 115.534C241.374 112.796 240.857 110.559 239.819 108.824C238.781 107.09 237.447 106.222 235.818 106.22C234.119 106.218 232.749 107.083 231.707 108.815C230.699 110.513 230.194 112.748 230.191 115.521C230.188 118.26 230.705 120.514 231.743 122.283C232.816 124.018 234.167 124.886 235.796 124.888ZM264.768 133.71C260.99 133.705 257.506 133.025 254.319 131.669L256.044 124.027C258.781 125.14 261.328 125.698 263.686 125.7C266.528 125.704 267.951 124.648 267.953 122.533C267.955 121.043 267.228 119.984 265.773 119.359C264.318 118.733 261.891 118.418 258.494 118.414L258.502 111.966C261.587 111.97 263.893 111.661 265.419 111.038C266.979 110.416 267.76 109.533 267.762 108.389C267.764 106.829 266.43 106.048 263.761 106.044C261.23 106.041 258.612 106.628 255.906 107.803L253.887 100.729C257.702 98.8613 261.707 97.93 265.902 97.9349C269.091 97.9386 271.673 98.7043 273.647 100.232C275.656 101.76 276.659 103.841 276.656 106.475C276.654 108.174 276.202 109.716 275.299 111.102C274.43 112.488 273.25 113.595 271.759 114.426C273.734 115.329 275.292 116.562 276.434 118.123C277.611 119.685 278.199 121.419 278.196 123.325C278.194 125.44 277.62 127.277 276.474 128.835C275.363 130.394 273.784 131.605 271.738 132.47C269.726 133.299 267.403 133.713 264.768 133.71Z" fill="white"/>
<path d="M202.283 196.107C201.283 195.903 200.358 195.531 199.507 194.991C198.664 194.443 197.93 193.77 197.306 192.973C196.69 192.175 196.206 191.276 195.856 190.276C195.514 189.267 195.343 188.201 195.344 187.076C195.345 186.224 195.448 185.408 195.652 184.627C195.856 183.838 196.142 183.104 196.51 182.425C196.878 181.738 197.32 181.117 197.836 180.563C198.36 180.001 198.939 179.521 199.572 179.124C200.213 178.726 200.901 178.418 201.636 178.2C202.37 177.983 203.14 177.874 203.945 177.875C204.749 177.876 205.519 177.986 206.253 178.206C206.995 178.425 207.682 178.735 208.314 179.134C208.955 179.533 209.532 180.014 210.047 180.577C210.57 181.133 211.014 181.754 211.381 182.442C211.755 183.122 212.043 183.857 212.245 184.646C212.448 185.428 212.548 186.244 212.547 187.096C212.546 188.237 212.365 189.314 212.004 190.33C211.644 191.345 211.143 192.254 210.501 193.058C209.868 193.862 209.113 194.533 208.237 195.071C207.362 195.609 206.412 195.968 205.388 196.146C205.63 196.248 205.869 196.358 206.103 196.475C206.345 196.6 206.587 196.714 206.829 196.816C207.071 196.925 207.309 197.016 207.543 197.086C207.786 197.165 208.032 197.208 208.282 197.216C208.524 197.216 208.758 197.185 208.985 197.123C209.219 197.061 209.43 196.963 209.618 196.831C209.806 196.698 209.966 196.527 210.099 196.316C210.24 196.105 210.334 195.847 210.381 195.543L212.993 196.846C212.922 197.417 212.757 197.932 212.499 198.393C212.248 198.853 211.924 199.248 211.525 199.575C211.126 199.903 210.673 200.156 210.165 200.335C209.657 200.514 209.117 200.604 208.547 200.603C208.086 200.602 207.621 200.512 207.153 200.332C206.692 200.159 206.243 199.967 205.806 199.756C205.377 199.552 204.97 199.361 204.588 199.18C204.205 199.008 203.869 198.922 203.58 198.921C203.455 198.921 203.342 198.917 203.241 198.909C203.147 198.909 203.053 198.909 202.959 198.909C202.866 198.917 202.76 198.928 202.643 198.944C202.533 198.967 202.405 199.006 202.256 199.061L202.283 196.107ZM203.928 192.605C204.607 192.606 205.229 192.462 205.791 192.174C206.362 191.878 206.851 191.48 207.258 190.98C207.664 190.473 207.978 189.887 208.197 189.224C208.425 188.552 208.539 187.841 208.539 187.091C208.54 186.333 208.428 185.618 208.202 184.946C207.976 184.274 207.657 183.688 207.243 183.187C206.838 182.679 206.354 182.28 205.792 181.99C205.229 181.693 204.612 181.544 203.94 181.543C203.269 181.542 202.651 181.69 202.088 181.986C201.526 182.274 201.041 182.672 200.634 183.18C200.227 183.679 199.906 184.265 199.671 184.936C199.444 185.608 199.329 186.323 199.329 187.081C199.328 187.831 199.44 188.542 199.666 189.214C199.9 189.878 200.219 190.464 200.625 190.973C201.03 191.473 201.514 191.872 202.077 192.17C202.639 192.459 203.256 192.605 203.928 192.605ZM221.716 183.849L227.458 183.856L227.447 192.785L228.912 192.787L228.909 195.998L223.764 195.992L223.765 194.961C223.351 195.335 222.866 195.624 222.311 195.826C221.756 196.029 221.115 196.129 220.389 196.129C219.717 196.128 219.084 196.022 218.491 195.81C217.897 195.598 217.378 195.281 216.933 194.859C216.496 194.429 216.149 193.893 215.892 193.252C215.643 192.611 215.519 191.857 215.52 190.99L215.524 187.053L213.942 187.051L213.946 183.84L219.313 183.846L219.305 190.994C219.304 191.807 219.51 192.417 219.924 192.823C220.338 193.222 220.876 193.422 221.54 193.423C222.009 193.423 222.435 193.279 222.818 192.991C223.201 192.702 223.479 192.312 223.652 191.82L223.657 187.062L221.712 187.06L221.716 183.849ZM237.675 195.352C237.402 195.523 237.152 195.671 236.925 195.796C236.698 195.913 236.471 196.007 236.245 196.077C236.018 196.155 235.784 196.209 235.542 196.24C235.299 196.279 235.034 196.298 234.745 196.298C234.018 196.297 233.366 196.198 232.788 196.002C232.218 195.799 231.734 195.525 231.336 195.18C230.945 194.828 230.645 194.418 230.435 193.949C230.224 193.472 230.12 192.956 230.12 192.402C230.121 191.839 230.227 191.32 230.438 190.843C230.658 190.367 230.971 189.961 231.377 189.626C231.784 189.282 232.28 189.017 232.867 188.831C233.461 188.636 234.136 188.539 234.894 188.54C235.449 188.541 235.953 188.572 236.406 188.635C236.867 188.691 237.292 188.762 237.683 188.848L237.683 188.473C237.684 188.168 237.625 187.906 237.509 187.688C237.392 187.461 237.228 187.277 237.017 187.136C236.806 186.987 236.552 186.882 236.256 186.819C235.959 186.748 235.635 186.713 235.283 186.712C234.549 186.711 233.9 186.785 233.338 186.933C232.783 187.073 232.247 187.279 231.731 187.552L230.609 185.277C231.406 184.731 232.239 184.314 233.107 184.026C233.982 183.738 234.908 183.595 235.884 183.596C236.642 183.597 237.341 183.683 237.982 183.856C238.63 184.021 239.184 184.295 239.645 184.678C240.105 185.054 240.464 185.546 240.721 186.156C240.986 186.766 241.118 187.508 241.117 188.383L241.112 192.801L242.741 192.803L242.737 196.014L237.675 196.008L237.675 195.352ZM235.006 193.532C235.56 193.533 236.064 193.444 236.518 193.265C236.971 193.085 237.358 192.867 237.679 192.61L237.68 191.063L234.868 191.059C234.688 191.059 234.512 191.086 234.34 191.141C234.168 191.195 234.012 191.273 233.871 191.375C233.738 191.476 233.629 191.601 233.543 191.749C233.465 191.898 233.425 192.069 233.425 192.265C233.425 192.624 233.553 192.925 233.811 193.168C234.076 193.41 234.474 193.532 235.006 193.532ZM244.505 177.782L249.978 177.788L249.96 192.811L251.835 192.814L251.831 196.025L244.484 196.016L244.487 192.805L246.362 192.807L246.376 180.995L244.501 180.993L244.505 177.782ZM253.405 183.886L258.854 183.892L258.843 192.822L260.531 192.824L260.527 196.035L253.39 196.026L253.394 192.815L255.222 192.818L255.229 187.099L253.401 187.097L253.405 183.886ZM255.05 179.974C255.05 179.685 255.101 179.415 255.203 179.165C255.313 178.908 255.461 178.685 255.649 178.498C255.837 178.31 256.056 178.162 256.306 178.053C256.564 177.944 256.841 177.89 257.138 177.89C257.419 177.89 257.685 177.945 257.935 178.055C258.185 178.165 258.403 178.313 258.59 178.501C258.778 178.689 258.926 178.912 259.035 179.17C259.144 179.42 259.198 179.689 259.198 179.978C259.198 180.268 259.143 180.541 259.033 180.799C258.923 181.048 258.775 181.267 258.587 181.454C258.399 181.642 258.18 181.79 257.93 181.899C257.68 182.008 257.414 182.062 257.133 182.062C256.836 182.062 256.559 182.007 256.301 181.897C256.051 181.787 255.833 181.639 255.646 181.451C255.458 181.263 255.31 181.044 255.201 180.794C255.1 180.536 255.049 180.263 255.05 179.974ZM266.764 183.901L269.19 183.904L269.187 186.974L266.737 186.972L266.708 192.104C266.708 192.401 266.731 192.643 266.777 192.831C266.824 193.011 266.89 193.155 266.976 193.265C267.07 193.374 267.179 193.449 267.304 193.488C267.429 193.527 267.573 193.547 267.737 193.547C268.034 193.547 268.296 193.52 268.523 193.466C268.749 193.404 268.976 193.334 269.203 193.256L269.704 195.518C269.305 195.768 268.86 195.966 268.367 196.114C267.883 196.262 267.305 196.336 266.633 196.335C266.156 196.334 265.699 196.252 265.262 196.087C264.832 195.923 264.454 195.676 264.126 195.347C263.798 195.011 263.537 194.593 263.342 194.093C263.148 193.592 263.055 193.01 263.063 192.346L263.105 186.967L261.358 186.965L261.362 183.895L263.12 183.897L263.147 180.991L266.793 179.261L266.764 183.901ZM270.737 183.906L276.691 183.913L276.687 187.124L275.749 187.123L277.49 191.672L279.288 187.127L278.245 187.126L278.249 183.915L284.202 183.922L284.199 187.133L282.874 187.131L278.162 198.364L280.248 198.366L280.244 201.577L272.709 201.568L272.713 198.357L274.834 198.36L275.751 196.052L271.964 187.118L270.734 187.117L270.737 183.906ZM185.635 221.736L187.405 221.739L186.611 219.183L181.15 219.177L180.35 221.73L182.225 221.732L182.221 224.943L175.483 224.936L175.487 221.725L176.811 221.726L181.668 207.177L186.367 207.183L191.085 221.743L192.374 221.744L192.37 224.955L185.632 224.947L185.635 221.736ZM182.079 216.178L185.665 216.182L183.867 210.402L182.079 216.178ZM200.865 216.539C200.865 216.352 200.802 216.172 200.678 216C200.561 215.828 200.385 215.679 200.151 215.554C199.917 215.421 199.628 215.315 199.284 215.237C198.948 215.158 198.565 215.119 198.136 215.118C197.972 215.118 197.796 215.133 197.608 215.164C197.421 215.188 197.245 215.234 197.081 215.304C196.924 215.375 196.792 215.472 196.682 215.597C196.58 215.714 196.529 215.866 196.529 216.054C196.529 216.148 196.541 216.237 196.564 216.323C196.595 216.409 196.65 216.491 196.728 216.57C196.806 216.648 196.911 216.722 197.044 216.793C197.184 216.855 197.364 216.906 197.583 216.946L199.785 217.382C200.582 217.539 201.25 217.735 201.789 217.97C202.327 218.205 202.761 218.479 203.088 218.792C203.416 219.105 203.65 219.453 203.79 219.836C203.938 220.219 204.012 220.633 204.012 221.078C204.011 221.774 203.846 222.383 203.517 222.906C203.196 223.429 202.77 223.866 202.238 224.217C201.715 224.56 201.121 224.817 200.456 224.988C199.8 225.167 199.136 225.256 198.464 225.255C198.026 225.255 197.628 225.227 197.269 225.172C196.917 225.117 196.597 225.042 196.308 224.948C196.027 224.854 195.773 224.744 195.547 224.619C195.328 224.486 195.125 224.341 194.938 224.185L192.817 224.182L192.82 220.925L196.137 220.928L196.137 220.999C196.144 221.225 196.214 221.425 196.347 221.597C196.48 221.761 196.651 221.902 196.862 222.019C197.081 222.137 197.327 222.227 197.6 222.289C197.873 222.344 198.162 222.372 198.467 222.373C199.17 222.373 199.682 222.284 200.003 222.105C200.323 221.918 200.484 221.68 200.484 221.39C200.484 221.164 200.406 220.972 200.25 220.816C200.094 220.652 199.817 220.523 199.419 220.428L197.169 219.945C195.755 219.67 194.69 219.216 193.972 218.582C193.254 217.941 192.895 217.12 192.896 216.12C192.897 215.534 193.034 215.003 193.308 214.527C193.582 214.043 193.954 213.633 194.423 213.297C194.892 212.954 195.439 212.689 196.065 212.503C196.698 212.316 197.373 212.223 198.092 212.224C198.584 212.224 199.022 212.256 199.405 212.319C199.787 212.374 200.131 212.449 200.436 212.543C200.74 212.637 201.006 212.75 201.232 212.884C201.466 213.009 201.673 213.142 201.853 213.283L203.892 213.285L203.888 216.543L200.865 216.539ZM213.299 216.554C213.299 216.366 213.237 216.187 213.112 216.015C212.995 215.843 212.819 215.694 212.585 215.569C212.351 215.436 212.062 215.33 211.718 215.251C211.382 215.173 210.999 215.133 210.57 215.133C210.406 215.133 210.23 215.148 210.042 215.179C209.855 215.202 209.679 215.249 209.515 215.319C209.359 215.389 209.226 215.487 209.116 215.611C209.014 215.729 208.963 215.881 208.963 216.068C208.963 216.162 208.975 216.252 208.998 216.338C209.029 216.424 209.084 216.506 209.162 216.584C209.24 216.662 209.345 216.737 209.478 216.807C209.619 216.87 209.798 216.921 210.017 216.96L212.219 217.396C213.016 217.554 213.684 217.75 214.223 217.985C214.761 218.22 215.195 218.494 215.523 218.806C215.85 219.119 216.084 219.467 216.224 219.85C216.372 220.233 216.446 220.647 216.446 221.093C216.445 221.788 216.28 222.397 215.951 222.92C215.63 223.443 215.204 223.88 214.672 224.231C214.149 224.574 213.555 224.832 212.89 225.003C212.234 225.182 211.57 225.271 210.898 225.27C210.46 225.269 210.062 225.242 209.703 225.186C209.351 225.131 209.031 225.057 208.742 224.963C208.461 224.869 208.207 224.759 207.981 224.634C207.762 224.501 207.559 224.356 207.372 224.199L205.251 224.197L205.254 220.939L208.571 220.943L208.571 221.013C208.578 221.24 208.648 221.439 208.781 221.611C208.914 221.775 209.085 221.916 209.296 222.034C209.515 222.151 209.761 222.241 210.034 222.304C210.307 222.359 210.596 222.387 210.901 222.387C211.604 222.388 212.116 222.299 212.437 222.119C212.757 221.932 212.918 221.694 212.918 221.405C212.918 221.178 212.84 220.987 212.684 220.83C212.528 220.666 212.251 220.537 211.853 220.443L209.603 219.96C208.189 219.685 207.124 219.23 206.406 218.597C205.688 217.955 205.329 217.134 205.33 216.134C205.331 215.548 205.468 215.017 205.742 214.541C206.016 214.057 206.388 213.647 206.857 213.312C207.326 212.969 207.873 212.704 208.499 212.517C209.132 212.33 209.808 212.237 210.526 212.238C211.018 212.239 211.456 212.27 211.839 212.333C212.221 212.389 212.565 212.463 212.87 212.557C213.174 212.651 213.44 212.765 213.666 212.898C213.9 213.023 214.107 213.156 214.287 213.297L216.326 213.3L216.322 216.557L213.299 216.554ZM225.526 212.853L231.268 212.86L231.258 221.79L232.723 221.791L232.719 225.002L227.574 224.996L227.576 223.965C227.161 224.34 226.676 224.628 226.121 224.831C225.567 225.033 224.926 225.134 224.199 225.133C223.527 225.132 222.895 225.026 222.301 224.814C221.708 224.603 221.188 224.286 220.744 223.863C220.307 223.433 219.96 222.898 219.703 222.257C219.453 221.616 219.329 220.862 219.33 219.994L219.335 216.057L217.753 216.055L217.756 212.844L223.124 212.85L223.115 219.999C223.114 220.811 223.321 221.421 223.734 221.828C224.148 222.227 224.687 222.427 225.351 222.427C225.82 222.428 226.245 222.284 226.629 221.995C227.012 221.707 227.29 221.316 227.462 220.824L227.468 216.066L225.522 216.064L225.526 212.853ZM245.045 217.294L241.752 217.29L241.753 216.036C241.433 216.036 241.14 216.059 240.874 216.106C240.609 216.144 240.374 216.214 240.171 216.316C239.975 216.417 239.807 216.557 239.667 216.737C239.533 216.916 239.439 217.139 239.384 217.405L239.379 221.799L241.852 221.802L241.848 225.013L233.926 225.004L233.93 221.793L235.747 221.795L235.753 216.076L233.96 216.074L233.964 212.863L239.366 212.869L239.365 213.725C239.709 213.452 240.096 213.241 240.526 213.093C240.956 212.945 241.425 212.872 241.933 212.872C242.448 212.873 242.98 212.878 243.526 212.886C244.073 212.894 244.581 212.899 245.05 212.899L245.045 217.294ZM254.014 224.371C253.74 224.542 253.49 224.691 253.263 224.815C253.036 224.932 252.81 225.026 252.583 225.096C252.356 225.174 252.122 225.228 251.88 225.259C251.637 225.298 251.372 225.317 251.083 225.317C250.356 225.316 249.704 225.217 249.126 225.021C248.556 224.818 248.072 224.544 247.674 224.199C247.284 223.847 246.983 223.437 246.773 222.968C246.563 222.491 246.458 221.975 246.458 221.421C246.459 220.858 246.565 220.339 246.777 219.862C246.996 219.386 247.309 218.98 247.716 218.645C248.122 218.301 248.619 218.036 249.205 217.85C249.799 217.655 250.475 217.558 251.232 217.559C251.787 217.56 252.291 217.592 252.744 217.655C253.205 217.71 253.631 217.781 254.021 217.867L254.022 217.492C254.022 217.187 253.964 216.925 253.847 216.707C253.73 216.48 253.566 216.296 253.355 216.155C253.144 216.007 252.891 215.901 252.594 215.838C252.297 215.767 251.973 215.732 251.621 215.731C250.887 215.73 250.238 215.804 249.676 215.952C249.121 216.092 248.585 216.298 248.07 216.571L246.947 214.296C247.745 213.75 248.577 213.333 249.445 213.045C250.32 212.757 251.246 212.614 252.223 212.615C252.98 212.616 253.679 212.702 254.32 212.875C254.968 213.04 255.523 213.314 255.983 213.697C256.444 214.073 256.802 214.566 257.059 215.175C257.324 215.785 257.456 216.527 257.455 217.402L257.45 221.82L259.079 221.822L259.075 225.033L254.013 225.027L254.014 224.371ZM251.344 222.551C251.898 222.552 252.402 222.463 252.856 222.284C253.309 222.104 253.696 221.886 254.017 221.629L254.019 220.082L251.206 220.079C251.026 220.078 250.851 220.105 250.679 220.16C250.507 220.214 250.35 220.292 250.21 220.394C250.077 220.495 249.967 220.62 249.881 220.768C249.803 220.917 249.763 221.089 249.763 221.284C249.763 221.643 249.891 221.944 250.149 222.187C250.414 222.429 250.813 222.551 251.344 222.551ZM271.06 218.063C271.061 217.383 270.882 216.851 270.523 216.468C270.164 216.077 269.688 215.881 269.094 215.881C268.688 215.88 268.278 215.97 267.863 216.149C267.449 216.328 267.046 216.663 266.655 217.155L266.65 221.831L268.619 221.833L268.615 225.044L261.068 225.035L261.072 221.824L262.853 221.826L262.86 216.108L261.102 216.106L261.106 212.895L266.637 212.901L266.636 213.968C267.144 213.57 267.711 213.258 268.336 213.032C268.969 212.798 269.633 212.682 270.328 212.683C271.789 212.685 272.914 213.096 273.702 213.917C274.49 214.731 274.883 215.923 274.881 217.493L274.876 221.84L276.599 221.843L276.595 225.053L271.052 225.047L271.06 218.063ZM286.8 217.12C286.465 216.698 286.09 216.381 285.676 216.169C285.263 215.95 284.774 215.856 284.212 215.887C283.759 215.855 283.345 215.917 282.97 216.073C282.602 216.228 282.282 216.447 282.008 216.728C281.742 217.009 281.534 217.344 281.386 217.735C281.237 218.117 281.162 218.551 281.161 219.035C281.161 219.465 281.239 219.871 281.394 220.254C281.55 220.637 281.761 220.97 282.026 221.251C282.299 221.525 282.619 221.74 282.986 221.897C283.361 222.054 283.767 222.148 284.205 222.179C284.572 222.149 284.904 222.075 285.201 221.958C285.506 221.833 285.775 221.677 286.01 221.49C286.245 221.295 286.444 221.081 286.608 220.846C286.781 220.604 286.914 220.378 287.008 220.167L290.229 221.062C290.096 221.53 289.865 222.018 289.536 222.526C289.215 223.033 288.793 223.497 288.269 223.919C287.753 224.332 287.135 224.675 286.416 224.948C285.705 225.22 284.892 225.356 283.978 225.355C283.049 225.354 282.193 225.185 281.412 224.848C280.632 224.503 279.96 224.038 279.398 223.451C278.837 222.865 278.396 222.177 278.077 221.387C277.765 220.598 277.61 219.75 277.611 218.844C277.612 217.945 277.773 217.113 278.094 216.348C278.423 215.575 278.873 214.904 279.444 214.334C280.015 213.757 280.691 213.308 281.473 212.989C282.263 212.669 283.118 212.526 284.04 212.558C284.696 212.528 285.333 212.603 285.95 212.783C286.567 212.963 287.153 213.234 287.707 213.594L290.039 213.596L290.035 217.124L286.8 217.12ZM294.204 219.765L294.239 220.129C294.324 220.48 294.468 220.789 294.671 221.055C294.882 221.321 295.128 221.544 295.409 221.724C295.69 221.904 296.002 222.041 296.346 222.135C296.689 222.221 297.037 222.265 297.389 222.265C297.74 222.266 298.072 222.246 298.385 222.208C298.705 222.161 299.014 222.103 299.311 222.033C299.608 221.955 299.897 221.87 300.178 221.776C300.46 221.675 300.745 221.57 301.034 221.461L302.32 223.865C301.875 224.138 301.464 224.371 301.089 224.566C300.722 224.753 300.35 224.909 299.975 225.034C299.6 225.158 299.201 225.248 298.78 225.302C298.358 225.364 297.865 225.395 297.303 225.394C296.248 225.393 295.311 225.22 294.491 224.875C293.671 224.523 292.98 224.049 292.418 223.455C291.864 222.86 291.439 222.164 291.143 221.367C290.855 220.57 290.712 219.726 290.713 218.836C290.714 217.945 290.867 217.109 291.173 216.328C291.486 215.547 291.925 214.868 292.488 214.291C293.051 213.705 293.723 213.245 294.505 212.91C295.287 212.575 296.154 212.408 297.107 212.409C298.06 212.41 298.904 212.572 299.638 212.893C300.38 213.206 301.004 213.644 301.511 214.207C302.018 214.763 302.408 215.419 302.681 216.178C302.953 216.928 303.101 217.737 303.123 218.604C303.146 218.799 303.158 218.995 303.158 219.19C303.165 219.377 303.161 219.573 303.145 219.776L294.204 219.765ZM297.01 215.339C296.572 215.338 296.197 215.393 295.885 215.502C295.58 215.603 295.322 215.747 295.111 215.934C294.9 216.114 294.731 216.321 294.606 216.555C294.481 216.789 294.383 217.035 294.312 217.293L299.387 217.299C299.332 217.033 299.254 216.783 299.153 216.548C299.052 216.314 298.911 216.107 298.732 215.927C298.552 215.747 298.322 215.606 298.041 215.504C297.768 215.395 297.424 215.339 297.01 215.339Z" fill="white"/>
<defs>
<filter id="filter0_d_175_881" x="0.40583" y="0.405861" width="472.463" height="527.646" filterUnits="userSpaceOnUse" color-interpolation-filters="sRGB">
<feFlood flood-opacity="0" result="BackgroundImageFix"/>
<feColorMatrix in="SourceAlpha" type="matrix" values="0 0 0 0 0 0 0 0 0 0 0 0 0 0 0 0 0 0 127 0" result="hardAlpha"/>
<feOffset dy="4"/>
<feGaussianBlur stdDeviation="19.8"/>
<feComposite in2="hardAlpha" operator="out"/>
<feColorMatrix type="matrix" values="0 0 0 0 0 0 0 0 0 0 0 0 0 0 0 0 0 0 0.33 0"/>
<feBlend mode="normal" in2="BackgroundImageFix" result="effect1_dropShadow_175_881"/>
<feBlend mode="normal" in="SourceGraphic" in2="effect1_dropShadow_175_881" result="shape"/>
</filter>
</defs>
</svg>
