<svg width="390" height="478" viewBox="0 0 390 478" fill="none" xmlns="http://www.w3.org/2000/svg">
<g filter="url(#filter0_d_29_237)">
<path d="M66.2232 189.855L85.6078 39.9587C85.9619 37.2201 88.4691 35.2871 91.2077 35.6413L346.017 68.5934C348.756 68.9475 350.689 71.4547 350.335 74.1933L330.898 224.493C330.728 225.808 330.042 227.002 328.992 227.812L325.442 230.549C323.255 232.235 322.849 235.375 324.535 237.562L327.787 241.779C328.596 242.83 328.956 244.158 328.786 245.473L304.959 429.716C304.605 432.455 302.098 434.388 299.359 434.034L43.9587 401.005C41.2201 400.651 39.2871 398.144 39.6413 395.405L63.4289 211.462C63.6215 209.972 64.4732 208.649 65.7486 207.856L70.119 205.14C72.8657 203.434 73.2941 199.607 70.9928 197.335L67.669 194.054C66.5577 192.957 66.0229 191.403 66.2232 189.855Z" fill="#262261"/>
</g>
<path d="M108.473 291.919L107.163 291.749C107.134 291.363 107.041 291.014 106.885 290.704C106.731 290.394 106.53 290.124 106.28 289.895C106.035 289.663 105.753 289.476 105.434 289.335C105.116 289.193 104.777 289.099 104.418 289.053C103.763 288.968 103.148 289.057 102.574 289.319C102.002 289.582 101.519 290.015 101.122 290.619C100.728 291.223 100.471 291.994 100.35 292.931C100.229 293.868 100.282 294.678 100.508 295.363C100.738 296.048 101.096 296.59 101.582 296.99C102.071 297.389 102.643 297.632 103.298 297.716C103.657 297.763 104.008 297.758 104.352 297.702C104.696 297.647 105.016 297.539 105.312 297.381C105.612 297.219 105.876 297.008 106.103 296.747C106.334 296.483 106.513 296.17 106.638 295.807L107.948 295.976C107.778 296.516 107.535 296.988 107.218 297.391C106.901 297.794 106.528 298.123 106.101 298.38C105.675 298.632 105.21 298.807 104.707 298.903C104.208 299 103.685 299.013 103.139 298.942C102.216 298.823 101.425 298.491 100.765 297.947C100.105 297.404 99.6223 296.69 99.3177 295.805C99.0132 294.921 98.9347 293.908 99.0822 292.767C99.2298 291.626 99.5634 290.666 100.083 289.889C100.602 289.111 101.251 288.543 102.027 288.185C102.804 287.827 103.654 287.708 104.577 287.827C105.122 287.898 105.625 288.043 106.083 288.264C106.545 288.485 106.95 288.773 107.298 289.13C107.646 289.483 107.922 289.894 108.126 290.365C108.331 290.832 108.446 291.35 108.473 291.919ZM112.839 300.218C112.058 300.117 111.405 299.857 110.883 299.439C110.365 299.017 109.993 298.475 109.767 297.812C109.545 297.146 109.488 296.397 109.595 295.566C109.703 294.735 109.949 294.022 110.334 293.427C110.723 292.829 111.213 292.388 111.805 292.103C112.401 291.815 113.065 291.718 113.798 291.813C114.22 291.867 114.628 291.992 115.022 292.186C115.416 292.38 115.761 292.657 116.059 293.018C116.356 293.375 116.572 293.826 116.706 294.369C116.839 294.913 116.857 295.563 116.759 296.321L116.691 296.849L110.436 296.04L110.576 294.962L115.563 295.607C115.622 295.149 115.583 294.729 115.446 294.346C115.313 293.964 115.093 293.647 114.785 293.396C114.481 293.145 114.103 292.991 113.653 292.932C113.156 292.868 112.71 292.936 112.316 293.136C111.925 293.332 111.608 293.613 111.364 293.979C111.119 294.345 110.968 294.752 110.91 295.199L110.817 295.917C110.738 296.53 110.777 297.063 110.933 297.517C111.093 297.967 111.349 298.328 111.701 298.599C112.053 298.866 112.481 299.033 112.984 299.098C113.312 299.14 113.614 299.133 113.89 299.075C114.169 299.015 114.418 298.904 114.636 298.742C114.854 298.577 115.035 298.36 115.177 298.092L116.338 298.586C116.158 298.978 115.898 299.31 115.559 299.581C115.22 299.849 114.819 300.041 114.357 300.156C113.895 300.268 113.389 300.289 112.839 300.218ZM118.118 300.729L119.167 292.614L120.371 292.77L120.213 293.996L120.297 294.007C120.497 293.624 120.807 293.333 121.227 293.133C121.647 292.933 122.099 292.865 122.585 292.927C122.677 292.939 122.791 292.956 122.928 292.977C123.065 292.998 123.168 293.017 123.238 293.033L123.074 294.301C123.033 294.285 122.938 294.257 122.789 294.216C122.645 294.172 122.489 294.14 122.324 294.118C121.93 294.067 121.567 294.104 121.235 294.23C120.908 294.352 120.636 294.546 120.419 294.812C120.206 295.074 120.076 295.389 120.028 295.755L119.364 300.89L118.118 300.729ZM128.739 293.852L128.603 294.909L124.398 294.365L124.534 293.308L128.739 293.852ZM126.011 291.523L127.258 291.684L126.258 299.418C126.212 299.77 126.229 300.041 126.308 300.23C126.392 300.416 126.511 300.55 126.665 300.631C126.823 300.709 126.994 300.759 127.177 300.783C127.314 300.801 127.428 300.808 127.518 300.806C127.608 300.799 127.68 300.794 127.735 300.791L127.843 301.943C127.755 301.964 127.633 301.981 127.477 301.993C127.321 302.008 127.127 302.001 126.894 301.971C126.542 301.925 126.207 301.805 125.888 301.61C125.573 301.415 125.325 301.149 125.143 300.81C124.965 300.472 124.906 300.067 124.967 299.595L126.011 291.523ZM129.565 302.209L130.615 294.095L131.861 294.256L130.812 302.37L129.565 302.209ZM131.423 292.824C131.18 292.793 130.982 292.683 130.827 292.495C130.676 292.307 130.615 292.097 130.645 291.864C130.675 291.632 130.787 291.444 130.981 291.301C131.179 291.158 131.399 291.102 131.642 291.134C131.885 291.165 132.082 291.275 132.233 291.463C132.388 291.651 132.45 291.861 132.42 292.094C132.39 292.326 132.276 292.514 132.079 292.657C131.885 292.8 131.666 292.856 131.423 292.824ZM137.758 295.019L137.621 296.075L133.247 295.509L133.384 294.453L137.758 295.019ZM133.645 302.737L134.839 293.502C134.899 293.037 135.058 292.664 135.317 292.383C135.575 292.101 135.889 291.905 136.257 291.795C136.626 291.685 137.004 291.655 137.392 291.706C137.698 291.745 137.945 291.802 138.132 291.877C138.32 291.951 138.458 292.015 138.548 292.07L138.049 293.101C137.988 293.072 137.904 293.034 137.795 292.988C137.69 292.942 137.548 292.907 137.368 292.884C136.956 292.831 136.645 292.896 136.435 293.08C136.229 293.265 136.099 293.558 136.047 293.959L134.892 302.898L133.645 302.737ZM138.456 303.359L139.505 295.244L140.752 295.406L139.703 303.52L138.456 303.359ZM140.314 293.974C140.071 293.943 139.872 293.833 139.718 293.645C139.566 293.457 139.506 293.247 139.536 293.014C139.566 292.782 139.678 292.594 139.872 292.451C140.07 292.308 140.29 292.252 140.533 292.284C140.776 292.315 140.973 292.425 141.124 292.613C141.279 292.801 141.341 293.011 141.311 293.244C141.281 293.476 141.167 293.664 140.97 293.806C140.776 293.95 140.557 294.006 140.314 293.974ZM145.366 304.424C144.585 304.323 143.932 304.063 143.41 303.645C142.892 303.223 142.52 302.681 142.294 302.018C142.072 301.352 142.015 300.603 142.122 299.772C142.23 298.941 142.476 298.228 142.861 297.633C143.25 297.036 143.74 296.594 144.332 296.309C144.928 296.021 145.592 295.924 146.324 296.019C146.747 296.074 147.155 296.198 147.549 296.392C147.943 296.586 148.288 296.864 148.586 297.224C148.883 297.582 149.099 298.032 149.233 298.576C149.366 299.119 149.384 299.77 149.286 300.527L149.218 301.055L142.963 300.246L143.103 299.169L148.09 299.814C148.149 299.356 148.11 298.935 147.973 298.552C147.84 298.17 147.62 297.853 147.312 297.602C147.008 297.352 146.63 297.197 146.18 297.139C145.683 297.075 145.237 297.142 144.843 297.342C144.452 297.539 144.135 297.82 143.891 298.186C143.646 298.551 143.495 298.958 143.437 299.405L143.344 300.124C143.265 300.737 143.304 301.27 143.46 301.723C143.62 302.174 143.876 302.534 144.228 302.805C144.58 303.073 145.008 303.239 145.511 303.304C145.839 303.347 146.141 303.339 146.417 303.282C146.696 303.221 146.945 303.11 147.163 302.949C147.381 302.784 147.562 302.567 147.704 302.299L148.865 302.793C148.685 303.185 148.425 303.516 148.086 303.788C147.747 304.055 147.346 304.247 146.884 304.363C146.422 304.475 145.916 304.495 145.366 304.424ZM153.687 305.5C153.011 305.413 152.436 305.165 151.962 304.756C151.489 304.344 151.147 303.806 150.936 303.141C150.725 302.473 150.675 301.709 150.786 300.85C150.896 299.998 151.138 299.277 151.512 298.688C151.885 298.099 152.354 297.667 152.92 297.393C153.485 297.119 154.109 297.026 154.793 297.114C155.321 297.182 155.727 297.324 156.011 297.54C156.298 297.753 156.509 297.98 156.642 298.223C156.779 298.463 156.885 298.659 156.958 298.812L157.064 298.826L157.58 294.832L158.827 294.993L157.428 305.812L156.223 305.656L156.384 304.41L156.236 304.391C156.126 304.527 155.971 304.696 155.773 304.9C155.575 305.1 155.308 305.268 154.972 305.403C154.636 305.535 154.208 305.568 153.687 305.5ZM154.001 304.402C154.501 304.467 154.94 304.391 155.319 304.175C155.698 303.956 156.008 303.625 156.248 303.183C156.488 302.738 156.647 302.209 156.727 301.597C156.805 300.991 156.785 300.449 156.668 299.972C156.551 299.492 156.337 299.102 156.024 298.804C155.712 298.502 155.303 298.319 154.796 298.253C154.267 298.185 153.81 298.263 153.422 298.489C153.039 298.712 152.73 299.042 152.494 299.481C152.262 299.916 152.109 300.419 152.036 300.99C151.961 301.567 151.981 302.104 152.096 302.598C152.215 303.09 152.431 303.497 152.744 303.821C153.06 304.141 153.479 304.335 154.001 304.402ZM171.203 299.344C171.209 298.8 171.005 298.351 170.593 297.997C170.18 297.643 169.647 297.424 168.992 297.339C168.513 297.277 168.083 297.3 167.704 297.409C167.328 297.518 167.023 297.695 166.787 297.94C166.555 298.186 166.416 298.481 166.371 298.826C166.334 299.115 166.371 299.372 166.481 299.598C166.596 299.82 166.753 300.014 166.954 300.18C167.155 300.342 167.369 300.482 167.597 300.601C167.826 300.717 168.037 300.814 168.231 300.893L169.292 301.331C169.564 301.441 169.864 301.584 170.192 301.759C170.524 301.934 170.834 302.155 171.122 302.422C171.414 302.685 171.641 303.004 171.804 303.38C171.966 303.755 172.015 304.197 171.949 304.704C171.874 305.288 171.652 305.797 171.285 306.229C170.921 306.662 170.429 306.98 169.808 307.182C169.191 307.385 168.467 307.433 167.636 307.326C166.861 307.225 166.206 307.014 165.671 306.69C165.14 306.367 164.742 305.961 164.475 305.472C164.213 304.983 164.099 304.44 164.133 303.843L165.485 304.018C165.468 304.431 165.561 304.787 165.766 305.086C165.975 305.381 166.256 305.618 166.609 305.796C166.966 305.971 167.359 306.087 167.789 306.142C168.289 306.207 168.748 306.184 169.167 306.073C169.587 305.959 169.931 305.771 170.202 305.509C170.472 305.243 170.633 304.913 170.684 304.519C170.731 304.159 170.668 303.854 170.496 303.603C170.325 303.351 170.084 303.134 169.775 302.951C169.466 302.768 169.128 302.599 168.761 302.444L167.479 301.891C166.665 301.539 166.041 301.106 165.606 300.591C165.171 300.076 165.001 299.455 165.095 298.726C165.174 298.12 165.406 297.613 165.792 297.204C166.181 296.793 166.671 296.498 167.26 296.32C167.852 296.139 168.494 296.093 169.184 296.182C169.881 296.272 170.485 296.478 170.995 296.798C171.506 297.114 171.892 297.508 172.153 297.979C172.418 298.45 172.524 298.959 172.471 299.508L171.203 299.344ZM176.829 308.493C176.096 308.398 175.476 308.141 174.968 307.721C174.464 307.301 174.097 306.758 173.869 306.091C173.643 305.424 173.585 304.672 173.693 303.834C173.803 302.988 174.051 302.27 174.439 301.68C174.831 301.089 175.323 300.655 175.918 300.378C176.516 300.101 177.181 300.009 177.914 300.104C178.646 300.199 179.265 300.456 179.769 300.876C180.277 301.296 180.643 301.841 180.868 302.511C181.097 303.181 181.156 303.939 181.047 304.785C180.938 305.623 180.689 306.335 180.298 306.922C179.91 307.509 179.417 307.942 178.819 308.219C178.225 308.496 177.561 308.588 176.829 308.493ZM176.974 307.373C177.53 307.445 178.007 307.362 178.403 307.123C178.799 306.884 179.113 306.543 179.346 306.101C179.579 305.658 179.73 305.166 179.8 304.623C179.87 304.081 179.849 303.564 179.737 303.074C179.625 302.583 179.408 302.17 179.086 301.835C178.765 301.5 178.325 301.296 177.769 301.224C177.213 301.152 176.736 301.237 176.339 301.48C175.943 301.722 175.628 302.066 175.395 302.512C175.162 302.958 175.01 303.452 174.94 303.995C174.87 304.537 174.891 305.052 175.003 305.539C175.116 306.026 175.333 306.436 175.656 306.768C175.978 307.099 176.417 307.301 176.974 307.373ZM185.077 298.388L183.677 309.207L182.431 309.046L183.83 298.227L185.077 298.388ZM191.504 306.846L192.124 302.049L193.371 302.21L192.321 310.325L191.075 310.163L191.252 308.79L191.168 308.779C190.924 309.166 190.583 309.479 190.144 309.715C189.706 309.949 189.18 310.026 188.567 309.947C188.06 309.881 187.624 309.712 187.258 309.439C186.893 309.162 186.627 308.784 186.459 308.304C186.293 307.821 186.254 307.234 186.343 306.544L187.01 301.388L188.257 301.549L187.601 306.62C187.525 307.212 187.629 307.705 187.915 308.1C188.204 308.496 188.607 308.727 189.125 308.794C189.435 308.834 189.76 308.796 190.101 308.679C190.446 308.562 190.748 308.354 191.009 308.055C191.273 307.756 191.438 307.353 191.504 306.846ZM199.183 302.962L199.046 304.019L194.841 303.475L194.978 302.418L199.183 302.962ZM196.455 300.633L197.702 300.794L196.701 308.528C196.656 308.88 196.673 309.151 196.752 309.34C196.835 309.526 196.954 309.66 197.109 309.741C197.267 309.818 197.437 309.869 197.621 309.893C197.758 309.911 197.872 309.918 197.961 309.915C198.052 309.909 198.124 309.904 198.178 309.9L198.287 311.053C198.198 311.074 198.076 311.09 197.921 311.102C197.765 311.118 197.57 311.111 197.338 311.081C196.986 311.035 196.651 310.915 196.332 310.72C196.017 310.525 195.769 310.258 195.587 309.92C195.409 309.582 195.35 309.177 195.411 308.705L196.455 300.633ZM200.009 311.319L201.058 303.205L202.305 303.366L201.256 311.48L200.009 311.319ZM201.867 301.934C201.624 301.903 201.425 301.793 201.271 301.605C201.119 301.417 201.059 301.207 201.089 300.974C201.119 300.742 201.231 300.554 201.425 300.411C201.622 300.268 201.843 300.212 202.086 300.244C202.329 300.275 202.526 300.385 202.677 300.573C202.832 300.761 202.894 300.971 202.864 301.204C202.834 301.436 202.72 301.624 202.523 301.766C202.329 301.91 202.11 301.966 201.867 301.934ZM206.814 312.371C206.081 312.276 205.461 312.018 204.953 311.598C204.449 311.179 204.082 310.635 203.853 309.968C203.628 309.302 203.57 308.549 203.678 307.711C203.787 306.866 204.036 306.148 204.424 305.557C204.815 304.967 205.308 304.533 205.903 304.255C206.501 303.978 207.166 303.887 207.898 303.982C208.631 304.076 209.249 304.334 209.754 304.753C210.262 305.174 210.628 305.719 210.853 306.389C211.081 307.059 211.141 307.817 211.031 308.662C210.923 309.5 210.673 310.213 210.282 310.8C209.895 311.387 209.402 311.819 208.804 312.096C208.21 312.374 207.546 312.465 206.814 312.371ZM206.958 311.251C207.515 311.323 207.991 311.239 208.387 311C208.783 310.762 209.098 310.421 209.331 309.978C209.563 309.536 209.715 309.043 209.785 308.501C209.855 307.959 209.834 307.442 209.722 306.951C209.61 306.461 209.393 306.048 209.071 305.712C208.749 305.377 208.31 305.174 207.754 305.102C207.197 305.03 206.721 305.115 206.324 305.357C205.928 305.6 205.613 305.944 205.38 306.39C205.146 306.836 204.995 307.33 204.925 307.872C204.855 308.415 204.876 308.93 204.988 309.417C205.101 309.904 205.318 310.313 205.64 310.645C205.963 310.977 206.402 311.179 206.958 311.251ZM214.293 308.203L213.662 313.084L212.415 312.923L213.465 304.809L214.669 304.965L214.505 306.233L214.611 306.246C214.854 305.859 215.186 305.565 215.606 305.365C216.026 305.162 216.542 305.1 217.155 305.179C217.705 305.25 218.171 305.425 218.554 305.703C218.937 305.979 219.214 306.358 219.384 306.842C219.554 307.322 219.595 307.908 219.506 308.598L218.839 313.754L217.592 313.593L218.248 308.521C218.331 307.884 218.229 307.366 217.944 306.967C217.66 306.565 217.229 306.327 216.651 306.252C216.253 306.201 215.886 306.241 215.55 306.373C215.218 306.506 214.941 306.726 214.719 307.034C214.496 307.341 214.354 307.731 214.293 308.203ZM225.47 314.611L226.869 303.792L228.179 303.962L227.556 308.78L233.325 309.526L233.948 304.708L235.258 304.877L233.859 315.696L232.549 315.527L233.175 310.688L227.406 309.942L226.78 314.781L225.47 314.611ZM239.693 316.623C238.911 316.522 238.259 316.262 237.737 315.843C237.219 315.422 236.846 314.88 236.621 314.217C236.399 313.55 236.342 312.802 236.449 311.971C236.557 311.14 236.803 310.427 237.188 309.832C237.576 309.234 238.067 308.793 238.659 308.507C239.255 308.219 239.919 308.123 240.651 308.217C241.074 308.272 241.482 308.396 241.876 308.591C242.27 308.785 242.615 309.062 242.912 309.423C243.21 309.78 243.426 310.23 243.559 310.774C243.693 311.318 243.711 311.968 243.613 312.725L243.545 313.254L237.29 312.445L237.43 311.367L242.416 312.012C242.476 311.554 242.437 311.134 242.3 310.751C242.167 310.368 241.947 310.052 241.639 309.801C241.335 309.55 240.957 309.396 240.506 309.337C240.01 309.273 239.564 309.341 239.17 309.54C238.779 309.737 238.462 310.018 238.217 310.384C237.973 310.75 237.822 311.156 237.764 311.604L237.671 312.322C237.592 312.935 237.631 313.468 237.787 313.922C237.947 314.372 238.203 314.733 238.554 315.004C238.907 315.271 239.334 315.438 239.838 315.503C240.166 315.545 240.467 315.538 240.743 315.48C241.023 315.42 241.272 315.309 241.49 315.147C241.708 314.982 241.889 314.765 242.031 314.497L243.191 314.991C243.012 315.383 242.752 315.715 242.413 315.986C242.074 316.254 241.673 316.445 241.21 316.561C240.748 316.673 240.243 316.694 239.693 316.623ZM244.971 317.133L246.021 309.019L247.225 309.175L247.067 310.4L247.151 310.411C247.351 310.029 247.661 309.738 248.081 309.538C248.5 309.338 248.953 309.269 249.439 309.332C249.531 309.344 249.645 309.361 249.782 309.382C249.919 309.403 250.022 309.422 250.092 309.438L249.928 310.706C249.887 310.69 249.792 310.662 249.643 310.621C249.498 310.577 249.343 310.544 249.178 310.523C248.783 310.472 248.42 310.509 248.089 310.635C247.762 310.757 247.49 310.951 247.273 311.217C247.06 311.479 246.93 311.794 246.882 312.16L246.218 317.295L244.971 317.133ZM253.534 318.413C252.801 318.318 252.181 318.06 251.673 317.64C251.169 317.22 250.803 316.677 250.574 316.01C250.348 315.344 250.29 314.591 250.398 313.753C250.508 312.908 250.756 312.19 251.144 311.599C251.536 311.009 252.029 310.575 252.623 310.297C253.221 310.02 253.886 309.929 254.619 310.024C255.351 310.118 255.97 310.376 256.474 310.795C256.982 311.215 257.348 311.761 257.573 312.431C257.802 313.101 257.861 313.859 257.752 314.704C257.643 315.542 257.394 316.255 257.003 316.842C256.615 317.429 256.123 317.861 255.524 318.138C254.93 318.416 254.266 318.507 253.534 318.413ZM253.679 317.293C254.235 317.365 254.712 317.281 255.108 317.042C255.504 316.804 255.818 316.463 256.051 316.02C256.284 315.578 256.435 315.085 256.505 314.543C256.575 314.001 256.554 313.484 256.442 312.993C256.33 312.503 256.113 312.09 255.791 311.754C255.47 311.419 255.03 311.215 254.474 311.144C253.918 311.072 253.441 311.157 253.044 311.399C252.648 311.641 252.333 311.986 252.1 312.432C251.867 312.878 251.715 313.372 251.645 313.914C251.575 314.457 251.596 314.972 251.708 315.459C251.821 315.946 252.038 316.355 252.361 316.687C252.683 317.019 253.122 317.221 253.679 317.293ZM262.516 319.574C261.734 319.473 261.082 319.213 260.56 318.795C260.041 318.373 259.669 317.831 259.443 317.168C259.221 316.502 259.164 315.753 259.272 314.922C259.379 314.091 259.625 313.378 260.01 312.783C260.399 312.185 260.889 311.744 261.481 311.459C262.077 311.171 262.741 311.074 263.474 311.169C263.897 311.223 264.305 311.348 264.699 311.542C265.092 311.736 265.438 312.014 265.735 312.374C266.033 312.731 266.248 313.182 266.382 313.725C266.516 314.269 266.534 314.92 266.436 315.677L266.368 316.205L260.113 315.396L260.252 314.318L265.239 314.963C265.298 314.506 265.26 314.085 265.123 313.702C264.99 313.32 264.769 313.003 264.462 312.752C264.157 312.501 263.78 312.347 263.329 312.289C262.833 312.224 262.387 312.292 261.992 312.492C261.602 312.688 261.284 312.97 261.04 313.335C260.796 313.701 260.645 314.108 260.587 314.555L260.494 315.274C260.415 315.886 260.453 316.419 260.609 316.873C260.77 317.323 261.025 317.684 261.377 317.955C261.729 318.223 262.157 318.389 262.661 318.454C262.988 318.497 263.29 318.489 263.566 318.432C263.846 318.371 264.095 318.26 264.313 318.098C264.531 317.933 264.711 317.717 264.853 317.449L266.014 317.942C265.834 318.335 265.575 318.666 265.235 318.938C264.896 319.205 264.496 319.397 264.033 319.512C263.571 319.625 263.065 319.645 262.516 319.574ZM274.356 314.531L273.195 314.703C273.149 314.507 273.068 314.313 272.954 314.119C272.843 313.922 272.679 313.75 272.462 313.604C272.244 313.458 271.954 313.361 271.591 313.314C271.095 313.25 270.666 313.311 270.306 313.497C269.949 313.68 269.748 313.946 269.703 314.295C269.663 314.605 269.744 314.864 269.946 315.073C270.148 315.281 270.481 315.477 270.945 315.658L272.111 316.11C272.814 316.38 273.319 316.719 273.628 317.128C273.937 317.533 274.055 318.019 273.982 318.586C273.922 319.051 273.734 319.449 273.419 319.781C273.108 320.113 272.701 320.354 272.198 320.504C271.695 320.654 271.128 320.688 270.498 320.606C269.67 320.499 269.009 320.231 268.513 319.802C268.017 319.372 267.741 318.803 267.686 318.094L268.908 317.951C268.964 318.403 269.135 318.758 269.42 319.017C269.709 319.276 270.108 319.439 270.619 319.505C271.2 319.58 271.677 319.516 272.051 319.314C272.428 319.109 272.64 318.832 272.685 318.483C272.721 318.201 272.653 317.952 272.48 317.737C272.308 317.518 272.024 317.334 271.628 317.186L270.316 316.694C269.596 316.422 269.086 316.078 268.785 315.664C268.488 315.246 268.376 314.757 268.448 314.197C268.507 313.739 268.688 313.351 268.991 313.032C269.297 312.713 269.687 312.482 270.16 312.34C270.637 312.197 271.16 312.163 271.731 312.237C272.534 312.34 273.141 312.598 273.554 313.009C273.97 313.421 274.237 313.928 274.356 314.531ZM277.617 319.851L277.459 320.411C277.347 320.805 277.2 321.222 277.017 321.664C276.838 322.107 276.658 322.522 276.475 322.91C276.292 323.298 276.143 323.607 276.028 323.835L275.077 323.712C275.152 323.493 275.25 323.203 275.372 322.843C275.494 322.482 275.621 322.078 275.754 321.63C275.89 321.186 276.014 320.729 276.125 320.26L276.265 319.676L277.617 319.851ZM74.5728 318.289L75.9719 307.47L79.7543 307.959C80.508 308.056 81.1127 308.267 81.5685 308.591C82.0248 308.911 82.3445 309.306 82.5275 309.773C82.7109 310.237 82.7685 310.734 82.7002 311.262C82.6401 311.727 82.5077 312.1 82.303 312.381C82.1018 312.663 81.856 312.875 81.5656 313.016C81.2787 313.158 80.9748 313.252 80.654 313.296L80.6403 313.402C80.9686 313.466 81.2864 313.625 81.5936 313.879C81.9009 314.134 82.1417 314.473 82.3161 314.897C82.4905 315.32 82.5408 315.817 82.467 316.388C82.3968 316.93 82.2105 317.402 81.908 317.803C81.6054 318.205 81.1718 318.498 80.6073 318.683C80.0427 318.867 79.3342 318.905 78.482 318.794L74.5728 318.289ZM76.0332 317.296L78.6323 317.632C79.4881 317.743 80.117 317.656 80.519 317.371C80.925 317.084 81.1588 316.702 81.2203 316.227C81.2676 315.86 81.218 315.51 81.0714 315.176C80.9253 314.839 80.6918 314.554 80.3708 314.323C80.0502 314.088 79.654 313.94 79.1821 313.879L76.5196 313.535L76.0332 317.296ZM76.6671 312.394L79.0972 312.708C79.4916 312.759 79.8574 312.728 80.1944 312.614C80.5349 312.5 80.8167 312.314 81.0398 312.057C81.2664 311.8 81.4043 311.481 81.4535 311.101C81.515 310.625 81.4016 310.201 81.1134 309.827C80.8256 309.449 80.3225 309.214 79.604 309.121L77.1317 308.801L76.6671 312.394ZM84.079 319.518L85.1283 311.404L86.3328 311.56L86.1743 312.785L86.2588 312.796C86.4587 312.414 86.7685 312.123 87.1882 311.923C87.6079 311.723 88.0608 311.654 88.5468 311.717C88.6384 311.729 88.7526 311.746 88.8895 311.767C89.0264 311.788 89.1296 311.807 89.1991 311.823L89.0352 313.091C88.9943 313.075 88.8995 313.046 88.7508 313.006C88.606 312.962 88.4509 312.929 88.2854 312.908C87.8909 312.857 87.5281 312.894 87.1967 313.02C86.8694 313.142 86.5972 313.336 86.3803 313.601C86.1673 313.864 86.0371 314.178 85.9898 314.545L85.3257 319.679L84.079 319.518ZM92.7472 320.811C91.9654 320.71 91.3133 320.45 90.7909 320.032C90.2725 319.61 89.9004 319.068 89.6746 318.405C89.4528 317.739 89.3956 316.99 89.5031 316.159C89.6106 315.328 89.8568 314.615 90.2416 314.02C90.6305 313.422 91.1208 312.981 91.7127 312.696C92.3086 312.408 92.9727 312.311 93.7053 312.406C94.1279 312.46 94.5361 312.585 94.93 312.779C95.3238 312.973 95.6693 313.251 95.9664 313.611C96.2639 313.968 96.4796 314.419 96.6134 314.962C96.7472 315.506 96.7651 316.157 96.6672 316.914L96.5989 317.442L90.3442 316.633L90.4835 315.555L95.4704 316.2C95.5296 315.743 95.4909 315.322 95.3542 314.939C95.221 314.557 95.0006 314.24 94.6929 313.989C94.3887 313.738 94.0112 313.584 93.5605 313.526C93.0639 313.461 92.6183 313.529 92.2237 313.729C91.833 313.925 91.5155 314.207 91.2713 314.572C91.027 314.938 90.876 315.345 90.8182 315.792L90.7252 316.511C90.646 317.123 90.6845 317.656 90.8407 318.11C91.0009 318.56 91.2568 318.921 91.6084 319.192C91.9606 319.46 92.3884 319.626 92.892 319.691C93.2196 319.733 93.5213 319.726 93.7973 319.669C94.0773 319.608 94.3261 319.497 94.544 319.335C94.7623 319.17 94.9425 318.954 95.0846 318.686L96.2453 319.179C96.0657 319.572 95.8062 319.903 95.4667 320.174C95.1277 320.442 94.727 320.634 94.2644 320.749C93.8024 320.862 93.2966 320.882 92.7472 320.811ZM100.389 321.821C99.8744 321.754 99.4203 321.597 99.0262 321.349C98.6326 321.098 98.3365 320.771 98.1378 320.37C97.9395 319.964 97.8746 319.498 97.9429 318.969C98.003 318.504 98.1433 318.139 98.3638 317.874C98.5847 317.606 98.8591 317.408 99.1869 317.283C99.5147 317.157 99.8687 317.077 100.249 317.044C100.633 317.008 101.017 316.989 101.4 316.989C101.901 316.989 102.307 316.993 102.618 317.001C102.932 317.006 103.165 316.977 103.317 316.914C103.471 316.852 103.562 316.72 103.588 316.52L103.593 316.477C103.661 315.956 103.57 315.533 103.322 315.207C103.078 314.882 102.669 314.682 102.095 314.608C101.5 314.531 101.016 314.601 100.644 314.818C100.273 315.035 99.9988 315.282 99.8232 315.56L98.6945 314.985C98.9696 314.519 99.301 314.171 99.6887 313.942C100.08 313.71 100.493 313.566 100.926 313.511C101.363 313.453 101.786 313.451 102.195 313.504C102.455 313.537 102.75 313.608 103.08 313.715C103.414 313.819 103.727 313.986 104.02 314.218C104.316 314.449 104.544 314.771 104.706 315.182C104.868 315.593 104.907 316.121 104.824 316.765L104.132 322.111L102.885 321.95L103.028 320.851L102.964 320.843C102.857 321.008 102.692 321.179 102.468 321.354C102.245 321.529 101.961 321.666 101.615 321.764C101.269 321.863 100.86 321.882 100.389 321.821ZM100.724 320.725C101.217 320.789 101.645 320.746 102.008 320.596C102.375 320.447 102.664 320.23 102.876 319.946C103.092 319.662 103.222 319.351 103.265 319.013L103.413 317.872C103.352 317.929 103.228 317.972 103.042 318.001C102.859 318.028 102.649 318.045 102.412 318.054C102.178 318.06 101.951 318.062 101.729 318.062C101.511 318.059 101.334 318.058 101.197 318.058C100.868 318.059 100.556 318.088 100.262 318.147C99.9721 318.202 99.7287 318.312 99.532 318.477C99.3392 318.638 99.2224 318.877 99.1814 319.194C99.1254 319.627 99.2433 319.975 99.5351 320.239C99.8308 320.499 100.227 320.661 100.724 320.725ZM107.952 319.598L108.131 318.052L108.384 318.085L112.402 314.931L113.944 315.13L109.667 318.466L109.562 318.452L107.952 319.598ZM106.408 322.406L107.807 311.587L109.054 311.748L107.654 322.567L106.408 322.406ZM111.564 323.073L108.913 318.648L109.913 317.896L113.148 323.277L111.564 323.073ZM119.14 318.746L118.99 319.908L114.257 319.296L114.407 318.134L119.14 318.746ZM124.167 324.702L120.828 324.271L122.227 313.452L125.714 313.903C126.763 314.038 127.633 314.371 128.324 314.901C129.015 315.427 129.507 316.119 129.801 316.977C130.095 317.831 130.17 318.819 130.025 319.939C129.879 321.066 129.553 322.01 129.046 322.771C128.54 323.53 127.875 324.077 127.051 324.415C126.227 324.749 125.266 324.844 124.167 324.702ZM122.289 323.278L124.233 323.529C125.127 323.645 125.891 323.568 126.524 323.299C127.156 323.03 127.658 322.596 128.03 321.995C128.401 321.395 128.643 320.655 128.757 319.775C128.87 318.901 128.825 318.131 128.621 317.464C128.418 316.793 128.054 316.252 127.531 315.84C127.008 315.425 126.324 315.163 125.479 315.054L123.387 314.783L122.289 323.278ZM134.626 326.227C133.893 326.132 133.273 325.875 132.765 325.454C132.261 325.035 131.894 324.491 131.666 323.824C131.44 323.158 131.382 322.406 131.49 321.567C131.6 320.722 131.848 320.004 132.236 319.413C132.628 318.823 133.12 318.389 133.715 318.112C134.313 317.834 134.978 317.743 135.711 317.838C136.443 317.933 137.062 318.19 137.566 318.61C138.074 319.03 138.44 319.575 138.665 320.245C138.894 320.915 138.953 321.673 138.844 322.518C138.735 323.357 138.486 324.069 138.095 324.656C137.707 325.243 137.214 325.675 136.616 325.953C136.022 326.23 135.358 326.322 134.626 326.227ZM134.771 325.107C135.327 325.179 135.803 325.095 136.2 324.857C136.596 324.618 136.91 324.277 137.143 323.835C137.375 323.392 137.527 322.9 137.597 322.357C137.667 321.815 137.646 321.298 137.534 320.808C137.422 320.317 137.205 319.904 136.883 319.569C136.562 319.233 136.122 319.03 135.566 318.958C135.01 318.886 134.533 318.971 134.136 319.213C133.74 319.456 133.425 319.8 133.192 320.246C132.959 320.692 132.807 321.186 132.737 321.729C132.667 322.271 132.688 322.786 132.8 323.273C132.913 323.76 133.13 324.17 133.453 324.501C133.775 324.833 134.214 325.035 134.771 325.107ZM141.79 326.981L140.367 318.547L141.677 318.717L142.628 325.156L142.712 325.167L145.248 319.179L146.58 319.351L147.49 325.764L147.575 325.774L150.13 319.81L151.44 319.979L147.918 327.774L146.692 327.615L145.724 321.152L145.597 321.136L143.016 327.14L141.79 326.981ZM153.916 323.587L153.285 328.468L152.038 328.307L153.088 320.193L154.292 320.348L154.128 321.616L154.234 321.63C154.477 321.242 154.809 320.949 155.229 320.749C155.649 320.545 156.165 320.483 156.778 320.562C157.328 320.633 157.794 320.808 158.177 321.087C158.56 321.362 158.837 321.742 159.007 322.226C159.178 322.706 159.218 323.291 159.129 323.982L158.462 329.137L157.216 328.976L157.871 323.905C157.954 323.267 157.853 322.749 157.567 322.351C157.283 321.949 156.852 321.711 156.274 321.636C155.876 321.584 155.509 321.625 155.174 321.757C154.841 321.889 154.564 322.109 154.342 322.417C154.119 322.725 153.977 323.115 153.916 323.587ZM165.537 330.052L164.164 329.875L169.535 319.57L170.888 319.744L173.461 331.077L172.088 330.9L170.032 321.374L169.948 321.363L165.537 330.052ZM166.591 325.892L172.127 326.608L171.977 327.77L166.441 327.054L166.591 325.892ZM176.855 326.553L176.224 331.434L174.977 331.273L176.027 323.159L177.231 323.315L177.067 324.583L177.173 324.596C177.416 324.209 177.748 323.915 178.168 323.715C178.588 323.512 179.104 323.45 179.717 323.529C180.267 323.6 180.733 323.775 181.116 324.053C181.499 324.329 181.776 324.708 181.946 325.192C182.116 325.672 182.157 326.258 182.068 326.948L181.401 332.104L180.154 331.943L180.81 326.871C180.893 326.234 180.791 325.716 180.506 325.317C180.222 324.915 179.791 324.677 179.213 324.602C178.815 324.551 178.448 324.591 178.112 324.723C177.78 324.856 177.503 325.076 177.28 325.384C177.058 325.691 176.916 326.081 176.855 326.553ZM186.721 332.964C186.045 332.876 185.47 332.628 184.997 332.22C184.524 331.808 184.182 331.269 183.97 330.605C183.76 329.936 183.71 329.173 183.821 328.313C183.931 327.461 184.173 326.74 184.546 326.151C184.92 325.562 185.389 325.131 185.954 324.856C186.52 324.582 187.144 324.489 187.827 324.578C188.356 324.646 188.762 324.788 189.045 325.004C189.333 325.216 189.543 325.444 189.677 325.687C189.814 325.927 189.919 326.123 189.993 326.276L190.098 326.289L190.615 322.296L191.861 322.457L190.462 333.276L189.258 333.12L189.419 331.873L189.271 331.854C189.16 331.99 189.006 332.16 188.808 332.364C188.61 332.564 188.343 332.731 188.007 332.867C187.671 332.999 187.243 333.031 186.721 332.964ZM187.035 331.866C187.535 331.93 187.975 331.855 188.354 331.639C188.733 331.419 189.043 331.089 189.282 330.647C189.522 330.202 189.682 329.673 189.761 329.06C189.84 328.454 189.82 327.913 189.703 327.436C189.586 326.955 189.371 326.566 189.059 326.268C188.747 325.966 188.338 325.782 187.83 325.717C187.302 325.648 186.844 325.727 186.457 325.953C186.074 326.175 185.764 326.506 185.529 326.944C185.297 327.38 185.144 327.883 185.07 328.453C184.996 329.031 185.016 329.567 185.131 330.062C185.25 330.554 185.466 330.961 185.778 331.284C186.095 331.605 186.514 331.798 187.035 331.866ZM197.929 324.423L198.079 323.261L206.193 324.31L206.043 325.472L202.641 325.032L201.392 334.689L200.082 334.52L201.331 324.863L197.929 324.423ZM205.805 335.26L206.854 327.146L208.058 327.301L207.9 328.527L207.984 328.538C208.184 328.155 208.494 327.864 208.914 327.664C209.334 327.464 209.786 327.396 210.272 327.459C210.364 327.471 210.478 327.487 210.615 327.508C210.752 327.53 210.855 327.548 210.925 327.565L210.761 328.832C210.72 328.816 210.625 328.788 210.476 328.747C210.332 328.704 210.177 328.671 210.011 328.65C209.617 328.599 209.254 328.636 208.922 328.761C208.595 328.884 208.323 329.078 208.106 329.343C207.893 329.606 207.763 329.92 207.715 330.286L207.051 335.421L205.805 335.26ZM213.703 336.475C213.189 336.408 212.734 336.251 212.34 336.003C211.947 335.752 211.651 335.425 211.452 335.023C211.254 334.618 211.189 334.151 211.257 333.623C211.317 333.158 211.458 332.793 211.678 332.528C211.899 332.26 212.173 332.062 212.501 331.936C212.829 331.81 213.183 331.731 213.563 331.698C213.947 331.662 214.331 331.643 214.714 331.643C215.216 331.643 215.622 331.647 215.932 331.655C216.246 331.66 216.479 331.631 216.631 331.568C216.786 331.506 216.876 331.374 216.902 331.173L216.907 331.131C216.975 330.61 216.885 330.187 216.637 329.861C216.392 329.536 215.983 329.336 215.409 329.262C214.814 329.185 214.33 329.255 213.959 329.472C213.587 329.688 213.313 329.936 213.137 330.214L212.009 329.638C212.284 329.173 212.615 328.825 213.003 328.596C213.395 328.364 213.807 328.22 214.24 328.165C214.677 328.107 215.1 328.105 215.509 328.157C215.769 328.191 216.065 328.262 216.395 328.369C216.728 328.473 217.042 328.64 217.334 328.871C217.63 329.103 217.859 329.424 218.02 329.836C218.182 330.247 218.221 330.775 218.138 331.419L217.446 336.765L216.2 336.604L216.342 335.505L216.278 335.497C216.171 335.662 216.006 335.832 215.783 336.008C215.56 336.183 215.275 336.32 214.929 336.418C214.584 336.517 214.175 336.536 213.703 336.475ZM214.038 335.379C214.531 335.443 214.959 335.4 215.322 335.25C215.689 335.1 215.978 334.884 216.19 334.6C216.406 334.316 216.536 334.005 216.58 333.667L216.727 332.526C216.666 332.582 216.542 332.625 216.356 332.655C216.173 332.682 215.963 332.699 215.726 332.708C215.493 332.714 215.265 332.716 215.043 332.716C214.825 332.713 214.648 332.712 214.512 332.712C214.182 332.712 213.87 332.742 213.576 332.801C213.286 332.856 213.043 332.966 212.846 333.13C212.653 333.292 212.537 333.531 212.496 333.848C212.44 334.281 212.557 334.629 212.849 334.893C213.145 335.153 213.541 335.315 214.038 335.379ZM221.6 332.34L220.969 337.221L219.722 337.06L220.771 328.945L221.976 329.101L221.812 330.369L221.917 330.383C222.161 329.995 222.493 329.701 222.912 329.502C223.332 329.298 223.849 329.236 224.462 329.315C225.011 329.386 225.477 329.561 225.86 329.84C226.244 330.115 226.52 330.494 226.69 330.978C226.861 331.459 226.902 332.044 226.812 332.734L226.146 337.89L224.899 337.729L225.555 332.658C225.637 332.02 225.536 331.502 225.251 331.104C224.966 330.702 224.535 330.463 223.958 330.389C223.56 330.337 223.193 330.377 222.857 330.51C222.525 330.642 222.248 330.862 222.025 331.17C221.803 331.478 221.661 331.868 221.6 332.34ZM234.986 332.631L233.825 332.803C233.779 332.608 233.698 332.413 233.584 332.219C233.473 332.022 233.309 331.85 233.092 331.704C232.874 331.558 232.584 331.461 232.221 331.414C231.725 331.35 231.296 331.411 230.935 331.597C230.579 331.78 230.378 332.046 230.333 332.395C230.293 332.705 230.374 332.964 230.576 333.173C230.778 333.382 231.111 333.577 231.574 333.758L232.741 334.21C233.443 334.48 233.949 334.819 234.258 335.228C234.567 335.633 234.685 336.119 234.612 336.686C234.552 337.151 234.364 337.55 234.049 337.881C233.738 338.213 233.33 338.454 232.828 338.604C232.325 338.754 231.758 338.788 231.128 338.707C230.3 338.599 229.639 338.331 229.143 337.902C228.647 337.473 228.371 336.903 228.316 336.194L229.538 336.052C229.594 336.503 229.765 336.858 230.05 337.117C230.339 337.376 230.738 337.539 231.249 337.605C231.83 337.68 232.307 337.617 232.681 337.414C233.058 337.209 233.27 336.932 233.315 336.583C233.351 336.301 233.283 336.053 233.11 335.837C232.938 335.618 232.654 335.434 232.258 335.286L230.946 334.794C230.226 334.522 229.715 334.179 229.415 333.764C229.118 333.346 229.006 332.857 229.078 332.297C229.137 331.839 229.318 331.451 229.621 331.132C229.927 330.813 230.317 330.583 230.79 330.44C231.267 330.297 231.79 330.263 232.361 330.337C233.164 330.441 233.771 330.698 234.184 331.11C234.599 331.521 234.867 332.029 234.986 332.631ZM238.842 328.532L237.443 339.351L236.196 339.19L237.595 328.371L238.842 328.532ZM242.089 340.146C241.575 340.079 241.121 339.922 240.727 339.674C240.334 339.423 240.037 339.096 239.839 338.694C239.64 338.289 239.575 337.822 239.644 337.294C239.704 336.829 239.844 336.464 240.065 336.199C240.286 335.931 240.56 335.733 240.888 335.607C241.216 335.481 241.57 335.402 241.95 335.369C242.334 335.332 242.718 335.314 243.101 335.314C243.602 335.314 244.008 335.318 244.319 335.326C244.633 335.331 244.866 335.302 245.017 335.239C245.172 335.177 245.263 335.045 245.289 334.844L245.294 334.802C245.362 334.281 245.271 333.858 245.023 333.532C244.779 333.207 244.37 333.007 243.796 332.933C243.2 332.856 242.717 332.926 242.345 333.143C241.973 333.359 241.7 333.607 241.524 333.885L240.395 333.309C240.67 332.844 241.002 332.496 241.39 332.267C241.781 332.035 242.194 331.891 242.627 331.836C243.064 331.778 243.487 331.776 243.896 331.828C244.156 331.862 244.451 331.932 244.781 332.04C245.115 332.144 245.428 332.311 245.721 332.542C246.017 332.774 246.245 333.095 246.407 333.507C246.569 333.918 246.608 334.446 246.524 335.09L245.833 340.436L244.586 340.275L244.728 339.176L244.665 339.168C244.558 339.333 244.393 339.503 244.169 339.679C243.946 339.854 243.662 339.991 243.316 340.089C242.97 340.188 242.561 340.207 242.089 340.146ZM242.424 339.05C242.918 339.114 243.346 339.071 243.709 338.921C244.075 338.771 244.365 338.555 244.577 338.27C244.793 337.987 244.922 337.676 244.966 337.338L245.114 336.197C245.053 336.253 244.929 336.296 244.743 336.326C244.56 336.353 244.35 336.37 244.113 336.379C243.879 336.385 243.651 336.387 243.429 336.387C243.211 336.384 243.034 336.383 242.898 336.383C242.569 336.383 242.257 336.413 241.963 336.472C241.673 336.527 241.43 336.637 241.233 336.801C241.04 336.963 240.923 337.202 240.882 337.519C240.826 337.952 240.944 338.3 241.236 338.563C241.532 338.824 241.928 338.986 242.424 339.05ZM252.687 333.073L252.55 334.129L248.345 333.585L248.482 332.529L252.687 333.073ZM249.959 330.743L251.205 330.905L250.205 338.638C250.16 338.991 250.177 339.261 250.256 339.451C250.339 339.637 250.458 339.77 250.612 339.851C250.771 339.929 250.941 339.98 251.125 340.003C251.262 340.021 251.375 340.029 251.465 340.026C251.556 340.02 251.628 340.015 251.682 340.011L251.791 341.164C251.702 341.185 251.58 341.201 251.425 341.213C251.269 341.229 251.074 341.222 250.842 341.191C250.49 341.146 250.154 341.026 249.836 340.83C249.521 340.636 249.273 340.369 249.091 340.03C248.912 339.692 248.854 339.287 248.915 338.815L249.959 330.743ZM256.806 342.027C256.024 341.926 255.372 341.666 254.85 341.248C254.331 340.826 253.959 340.284 253.733 339.621C253.511 338.955 253.454 338.206 253.562 337.375C253.669 336.544 253.915 335.831 254.3 335.236C254.689 334.639 255.179 334.197 255.771 333.912C256.367 333.624 257.031 333.527 257.764 333.622C258.187 333.677 258.595 333.801 258.989 333.995C259.382 334.189 259.728 334.467 260.025 334.827C260.323 335.184 260.538 335.635 260.672 336.179C260.806 336.722 260.824 337.373 260.726 338.13L260.658 338.658L254.403 337.849L254.542 336.772L259.529 337.416C259.588 336.959 259.55 336.538 259.413 336.155C259.28 335.773 259.059 335.456 258.752 335.205C258.447 334.955 258.07 334.8 257.619 334.742C257.123 334.678 256.677 334.745 256.282 334.945C255.892 335.141 255.574 335.423 255.33 335.789C255.086 336.154 254.935 336.561 254.877 337.008L254.784 337.727C254.705 338.339 254.743 338.873 254.899 339.326C255.06 339.776 255.315 340.137 255.667 340.408C256.019 340.676 256.447 340.842 256.951 340.907C257.278 340.95 257.58 340.942 257.856 340.885C258.136 340.824 258.385 340.713 258.603 340.552C258.821 340.386 259.001 340.17 259.143 339.902L260.304 340.396C260.124 340.788 259.865 341.119 259.525 341.391C259.186 341.658 258.786 341.85 258.323 341.966C257.861 342.078 257.355 342.098 256.806 342.027ZM266.906 332.162L268.407 332.356L270.754 337.794L270.881 337.81L274.535 333.148L276.035 333.342L271.303 339.197L270.727 343.656L269.416 343.486L269.993 339.028L266.906 332.162ZM278.288 344.805C277.555 344.711 276.935 344.453 276.427 344.033C275.923 343.613 275.557 343.07 275.328 342.403C275.102 341.736 275.044 340.984 275.152 340.146C275.262 339.301 275.51 338.583 275.898 337.992C276.29 337.402 276.783 336.968 277.377 336.69C277.975 336.413 278.64 336.322 279.373 336.416C280.105 336.511 280.724 336.768 281.228 337.188C281.736 337.608 282.102 338.153 282.327 338.823C282.556 339.494 282.615 340.252 282.506 341.097C282.397 341.935 282.148 342.648 281.757 343.234C281.369 343.822 280.877 344.254 280.279 344.531C279.684 344.809 279.021 344.9 278.288 344.805ZM278.433 343.685C278.989 343.757 279.466 343.674 279.862 343.435C280.258 343.196 280.572 342.856 280.805 342.413C281.038 341.97 281.189 341.478 281.259 340.936C281.329 340.393 281.308 339.877 281.196 339.386C281.084 338.895 280.867 338.482 280.546 338.147C280.224 337.812 279.785 337.608 279.228 337.536C278.672 337.464 278.195 337.549 277.799 337.792C277.402 338.034 277.087 338.378 276.854 338.824C276.621 339.271 276.469 339.765 276.399 340.307C276.329 340.849 276.35 341.364 276.463 341.851C276.575 342.339 276.792 342.748 277.115 343.08C277.437 343.412 277.876 343.613 278.433 343.685ZM289.432 342.702L290.053 337.905L291.299 338.066L290.25 346.18L289.003 346.019L289.181 344.646L289.097 344.635C288.853 345.022 288.512 345.334 288.073 345.571C287.635 345.805 287.109 345.882 286.496 345.802C285.989 345.737 285.553 345.568 285.187 345.295C284.822 345.018 284.555 344.64 284.388 344.16C284.222 343.677 284.183 343.09 284.272 342.4L284.939 337.244L286.186 337.405L285.53 342.476C285.453 343.068 285.558 343.561 285.843 343.956C286.132 344.352 286.536 344.583 287.054 344.65C287.363 344.69 287.689 344.651 288.03 344.534C288.374 344.418 288.677 344.21 288.938 343.911C289.202 343.612 289.367 343.209 289.432 342.702ZM292.534 346.476L293.583 338.361L294.787 338.517L294.629 339.743L294.713 339.754C294.913 339.371 295.223 339.08 295.643 338.88C296.063 338.68 296.515 338.612 297.001 338.675C297.093 338.686 297.207 338.703 297.344 338.724C297.481 338.746 297.584 338.764 297.654 338.78L297.49 340.048C297.449 340.032 297.354 340.004 297.205 339.963C297.061 339.919 296.906 339.887 296.74 339.865C296.346 339.814 295.983 339.852 295.651 339.977C295.324 340.099 295.052 340.293 294.835 340.559C294.622 340.821 294.492 341.136 294.444 341.502L293.78 346.637L292.534 346.476ZM96.9298 344.372L98.3289 333.553L101.985 334.025C102.83 334.135 103.505 334.369 104.01 334.728C104.515 335.083 104.866 335.528 105.062 336.062C105.258 336.595 105.315 337.181 105.232 337.818C105.15 338.456 104.946 339.004 104.622 339.464C104.298 339.923 103.848 340.259 103.273 340.471C102.698 340.679 101.991 340.729 101.153 340.621L98.1948 340.238L98.3478 339.055L101.264 339.432C101.841 339.507 102.317 339.482 102.691 339.359C103.069 339.236 103.357 339.03 103.555 338.74C103.758 338.448 103.887 338.085 103.943 337.652C103.999 337.219 103.967 336.829 103.847 336.484C103.727 336.14 103.501 335.856 103.168 335.634C102.835 335.408 102.377 335.258 101.792 335.182L99.4887 334.884L98.2399 344.541L96.9298 344.372ZM102.651 340.17L104.685 345.374L103.163 345.178L101.172 339.979L102.651 340.17ZM109.569 346.178C108.787 346.077 108.135 345.817 107.613 345.399C107.095 344.977 106.722 344.435 106.497 343.772C106.275 343.106 106.218 342.357 106.325 341.526C106.433 340.695 106.679 339.982 107.064 339.387C107.453 338.789 107.943 338.348 108.535 338.063C109.131 337.775 109.795 337.678 110.527 337.773C110.95 337.827 111.358 337.952 111.752 338.146C112.146 338.34 112.491 338.617 112.788 338.978C113.086 339.335 113.302 339.786 113.435 340.329C113.569 340.873 113.587 341.524 113.489 342.281L113.421 342.809L107.166 342L107.306 340.922L112.292 341.567C112.352 341.109 112.313 340.689 112.176 340.306C112.043 339.924 111.823 339.607 111.515 339.356C111.211 339.105 110.833 338.951 110.383 338.893C109.886 338.828 109.44 338.896 109.046 339.096C108.655 339.292 108.338 339.573 108.093 339.939C107.849 340.305 107.698 340.712 107.64 341.159L107.547 341.878C107.468 342.49 107.507 343.023 107.663 343.477C107.823 343.927 108.079 344.288 108.431 344.559C108.783 344.827 109.21 344.993 109.714 345.058C110.042 345.1 110.343 345.093 110.619 345.036C110.899 344.975 111.148 344.864 111.366 344.702C111.584 344.537 111.765 344.321 111.907 344.053L113.067 344.546C112.888 344.939 112.628 345.27 112.289 345.541C111.95 345.809 111.549 346.001 111.087 346.116C110.624 346.229 110.119 346.249 109.569 346.178ZM119.99 350.448L120.545 346.158L120.439 346.144C120.329 346.28 120.174 346.45 119.976 346.654C119.778 346.854 119.511 347.022 119.175 347.157C118.839 347.289 118.411 347.321 117.89 347.254C117.213 347.167 116.639 346.919 116.165 346.51C115.692 346.098 115.35 345.56 115.139 344.895C114.928 344.227 114.878 343.463 114.989 342.604C115.099 341.751 115.341 341.031 115.714 340.442C116.088 339.852 116.557 339.421 117.123 339.147C117.688 338.872 118.312 338.779 118.996 338.868C119.524 338.936 119.93 339.078 120.213 339.294C120.501 339.506 120.711 339.734 120.845 339.977C120.982 340.217 121.087 340.413 121.161 340.566L121.309 340.585L121.475 339.296L122.68 339.452L121.237 350.609L119.99 350.448ZM118.203 346.156C118.704 346.221 119.143 346.145 119.522 345.929C119.901 345.709 120.211 345.379 120.45 344.937C120.691 344.492 120.85 343.963 120.93 343.35C121.008 342.745 120.988 342.203 120.871 341.726C120.754 341.245 120.54 340.856 120.227 340.558C119.915 340.256 119.506 340.072 118.999 340.007C118.47 339.939 118.013 340.017 117.625 340.243C117.242 340.465 116.933 340.796 116.697 341.235C116.465 341.67 116.312 342.173 116.238 342.744C116.164 343.321 116.184 343.857 116.299 344.352C116.418 344.844 116.634 345.251 116.947 345.574C117.263 345.895 117.682 346.089 118.203 346.156ZM129.455 345.205L130.076 340.408L131.322 340.569L130.273 348.684L129.026 348.522L129.204 347.149L129.119 347.138C128.876 347.525 128.535 347.838 128.096 348.074C127.658 348.308 127.132 348.385 126.519 348.306C126.012 348.24 125.576 348.071 125.21 347.798C124.845 347.521 124.578 347.143 124.411 346.663C124.245 346.18 124.206 345.593 124.295 344.903L124.962 339.747L126.209 339.908L125.553 344.979C125.476 345.571 125.581 346.064 125.866 346.459C126.155 346.855 126.559 347.086 127.076 347.153C127.386 347.193 127.712 347.155 128.053 347.038C128.397 346.921 128.7 346.713 128.961 346.414C129.225 346.115 129.39 345.712 129.455 345.205ZM132.556 348.979L133.606 340.865L134.852 341.026L133.803 349.14L132.556 348.979ZM134.415 339.594C134.172 339.563 133.973 339.453 133.818 339.265C133.667 339.077 133.606 338.867 133.636 338.634C133.666 338.402 133.778 338.214 133.972 338.071C134.17 337.928 134.39 337.872 134.633 337.904C134.876 337.935 135.073 338.045 135.224 338.233C135.379 338.421 135.441 338.631 135.411 338.864C135.381 339.096 135.268 339.284 135.07 339.427C134.876 339.57 134.658 339.626 134.415 339.594ZM136.087 349.435L137.136 341.321L138.34 341.477L138.182 342.702L138.266 342.713C138.466 342.331 138.776 342.04 139.196 341.84C139.616 341.64 140.068 341.571 140.554 341.634C140.646 341.646 140.76 341.663 140.897 341.684C141.034 341.705 141.137 341.724 141.207 341.74L141.043 343.008C141.002 342.992 140.907 342.964 140.758 342.923C140.614 342.879 140.459 342.847 140.293 342.825C139.899 342.774 139.536 342.811 139.204 342.937C138.877 343.059 138.605 343.253 138.388 343.519C138.175 343.781 138.045 344.096 137.997 344.462L137.333 349.597L136.087 349.435ZM144.755 350.728C143.973 350.627 143.321 350.367 142.798 349.949C142.28 349.527 141.908 348.985 141.682 348.322C141.46 347.656 141.403 346.907 141.511 346.076C141.618 345.245 141.864 344.532 142.249 343.937C142.638 343.34 143.128 342.898 143.72 342.613C144.316 342.325 144.98 342.228 145.713 342.323C146.135 342.378 146.544 342.502 146.938 342.696C147.331 342.89 147.677 343.168 147.974 343.528C148.272 343.886 148.487 344.336 148.621 344.88C148.755 345.423 148.773 346.074 148.675 346.831L148.606 347.359L142.352 346.55L142.491 345.473L147.478 346.118C147.537 345.66 147.498 345.239 147.362 344.856C147.229 344.474 147.008 344.157 146.701 343.906C146.396 343.656 146.019 343.501 145.568 343.443C145.071 343.379 144.626 343.446 144.231 343.646C143.841 343.842 143.523 344.124 143.279 344.49C143.035 344.855 142.884 345.262 142.826 345.709L142.733 346.428C142.654 347.041 142.692 347.574 142.848 348.027C143.008 348.478 143.264 348.838 143.616 349.109C143.968 349.377 144.396 349.543 144.9 349.608C145.227 349.651 145.529 349.643 145.805 349.586C146.085 349.525 146.334 349.414 146.552 349.253C146.77 349.087 146.95 348.871 147.092 348.603L148.253 349.097C148.073 349.489 147.814 349.82 147.474 350.092C147.135 350.359 146.735 350.551 146.272 350.667C145.81 350.779 145.304 350.799 144.755 350.728ZM150.033 351.239L151.082 343.125L152.287 343.28L152.123 344.548L152.228 344.562C152.454 344.151 152.77 343.85 153.178 343.659C153.586 343.465 154.054 343.402 154.583 343.47C155.118 343.539 155.548 343.718 155.872 344.007C156.2 344.293 156.437 344.666 156.581 345.125L156.666 345.136C156.928 344.744 157.283 344.451 157.73 344.258C158.178 344.062 158.693 344.001 159.274 344.077C159.999 344.17 160.563 344.474 160.966 344.988C161.369 345.499 161.509 346.231 161.385 347.186L160.683 352.616L159.436 352.455L160.138 347.024C160.216 346.426 160.107 345.977 159.813 345.677C159.519 345.378 159.15 345.199 158.706 345.142C158.136 345.068 157.671 345.183 157.313 345.488C156.956 345.789 156.743 346.202 156.675 346.727L155.992 352.01L154.724 351.846L155.443 346.288C155.502 345.827 155.401 345.436 155.138 345.115C154.875 344.791 154.508 344.599 154.036 344.538C153.712 344.496 153.398 344.543 153.094 344.679C152.794 344.816 152.537 345.026 152.325 345.31C152.117 345.591 151.987 345.931 151.936 346.329L151.28 351.4L150.033 351.239ZM166.343 353.52C165.561 353.419 164.909 353.159 164.386 352.741C163.868 352.319 163.496 351.777 163.27 351.114C163.048 350.448 162.991 349.699 163.099 348.868C163.206 348.037 163.452 347.324 163.837 346.729C164.226 346.131 164.716 345.69 165.308 345.405C165.904 345.117 166.568 345.02 167.301 345.115C167.723 345.169 168.132 345.294 168.525 345.488C168.919 345.682 169.265 345.959 169.562 346.32C169.859 346.677 170.075 347.128 170.209 347.671C170.343 348.215 170.361 348.865 170.263 349.623L170.194 350.151L163.94 349.342L164.079 348.264L169.066 348.909C169.125 348.451 169.086 348.031 168.95 347.648C168.816 347.266 168.596 346.949 168.288 346.698C167.984 346.447 167.607 346.293 167.156 346.235C166.659 346.17 166.214 346.238 165.819 346.438C165.428 346.634 165.111 346.915 164.867 347.281C164.622 347.647 164.471 348.054 164.414 348.501L164.321 349.219C164.241 349.832 164.28 350.365 164.436 350.819C164.596 351.269 164.852 351.63 165.204 351.901C165.556 352.169 165.984 352.335 166.487 352.4C166.815 352.442 167.117 352.435 167.393 352.377C167.673 352.317 167.922 352.206 168.139 352.044C168.358 351.879 168.538 351.663 168.68 351.395L169.841 351.888C169.661 352.281 169.402 352.612 169.062 352.883C168.723 353.151 168.322 353.343 167.86 353.458C167.398 353.57 166.892 353.591 166.343 353.52ZM173.499 349.311L172.867 354.192L171.621 354.031L172.67 345.916L173.875 346.072L173.711 347.34L173.816 347.354C174.06 346.966 174.391 346.673 174.811 346.473C175.231 346.269 175.748 346.207 176.361 346.286C176.91 346.357 177.376 346.532 177.759 346.811C178.142 347.086 178.419 347.466 178.589 347.949C178.76 348.43 178.801 349.015 178.711 349.705L178.045 354.861L176.798 354.7L177.454 349.629C177.536 348.991 177.435 348.473 177.15 348.075C176.865 347.673 176.434 347.434 175.856 347.36C175.459 347.308 175.092 347.349 174.756 347.481C174.424 347.613 174.146 347.833 173.924 348.141C173.701 348.449 173.56 348.839 173.499 349.311ZM184.901 347.498L184.764 348.555L180.559 348.011L180.696 346.954L184.901 347.498ZM182.173 345.169L183.42 345.33L182.419 353.064C182.374 353.416 182.391 353.687 182.47 353.876C182.554 354.062 182.672 354.196 182.827 354.277C182.985 354.354 183.155 354.405 183.339 354.429C183.476 354.447 183.59 354.454 183.679 354.451C183.77 354.445 183.842 354.44 183.896 354.437L184.005 355.589C183.916 355.61 183.794 355.626 183.639 355.639C183.483 355.654 183.289 355.647 183.056 355.617C182.704 355.571 182.369 355.451 182.05 355.256C181.735 355.061 181.487 354.794 181.305 354.456C181.127 354.118 181.068 353.713 181.129 353.241L182.173 345.169ZM192.144 350.282L190.983 350.455C190.936 350.259 190.856 350.064 190.741 349.87C190.631 349.673 190.467 349.502 190.249 349.355C190.032 349.209 189.742 349.112 189.379 349.066C188.883 349.001 188.454 349.062 188.093 349.248C187.737 349.431 187.536 349.697 187.491 350.046C187.451 350.356 187.532 350.615 187.734 350.824C187.936 351.033 188.269 351.228 188.732 351.41L189.898 351.861C190.601 352.131 191.107 352.47 191.416 352.879C191.725 353.284 191.843 353.771 191.77 354.338C191.709 354.802 191.522 355.201 191.207 355.532C190.895 355.864 190.488 356.105 189.985 356.255C189.483 356.405 188.916 356.439 188.286 356.358C187.458 356.251 186.796 355.982 186.3 355.553C185.804 355.124 185.529 354.555 185.474 353.846L186.695 353.703C186.752 354.154 186.922 354.509 187.208 354.768C187.496 355.027 187.896 355.19 188.407 355.256C188.988 355.331 189.465 355.268 189.839 355.065C190.216 354.86 190.427 354.583 190.472 354.234C190.509 353.952 190.441 353.704 190.268 353.488C190.096 353.269 189.812 353.085 189.415 352.937L188.104 352.446C187.384 352.173 186.873 351.83 186.572 351.415C186.276 350.997 186.163 350.508 186.236 349.948C186.295 349.49 186.476 349.102 186.778 348.783C187.085 348.464 187.474 348.234 187.948 348.091C188.424 347.948 188.948 347.914 189.518 347.988C190.321 348.092 190.929 348.349 191.341 348.761C191.757 349.173 192.025 349.68 192.144 350.282ZM197.707 357.404L199.106 346.585L205.593 347.424L205.443 348.586L200.266 347.917L199.793 351.572L204.484 352.179L204.334 353.341L199.643 352.735L199.017 357.574L197.707 357.404ZM208.915 347.854L207.516 358.673L206.269 358.511L207.668 347.692L208.915 347.854ZM212.162 359.467C211.648 359.4 211.194 359.243 210.8 358.995C210.406 358.744 210.11 358.417 209.911 358.016C209.713 357.61 209.648 357.144 209.716 356.615C209.777 356.151 209.917 355.786 210.137 355.52C210.358 355.252 210.633 355.055 210.96 354.929C211.288 354.803 211.642 354.723 212.023 354.69C212.407 354.654 212.791 354.635 213.174 354.635C213.675 354.635 214.081 354.639 214.391 354.647C214.706 354.652 214.939 354.623 215.09 354.56C215.245 354.498 215.335 354.367 215.361 354.166L215.367 354.124C215.434 353.602 215.344 353.179 215.096 352.853C214.852 352.528 214.442 352.328 213.868 352.254C213.273 352.177 212.79 352.247 212.418 352.464C212.046 352.681 211.772 352.928 211.597 353.206L210.468 352.631C210.743 352.165 211.075 351.817 211.462 351.588C211.854 351.356 212.266 351.212 212.7 351.158C213.137 351.099 213.56 351.097 213.968 351.15C214.229 351.183 214.524 351.254 214.854 351.361C215.188 351.465 215.501 351.633 215.793 351.864C216.089 352.095 216.318 352.417 216.48 352.828C216.641 353.239 216.68 353.767 216.597 354.412L215.906 359.758L214.659 359.596L214.801 358.498L214.738 358.489C214.63 358.655 214.465 358.825 214.242 359C214.019 359.175 213.734 359.312 213.389 359.411C213.043 359.509 212.634 359.528 212.162 359.467ZM212.497 358.372C212.99 358.435 213.418 358.392 213.781 358.242C214.148 358.093 214.438 357.876 214.65 357.592C214.865 357.308 214.995 356.997 215.039 356.659L215.186 355.518C215.125 355.575 215.002 355.618 214.815 355.647C214.633 355.674 214.423 355.692 214.185 355.7C213.952 355.706 213.724 355.709 213.502 355.709C213.284 355.705 213.107 355.704 212.971 355.704C212.642 355.705 212.33 355.734 212.036 355.793C211.746 355.848 211.502 355.958 211.306 356.123C211.113 356.284 210.996 356.523 210.955 356.84C210.899 357.273 211.017 357.621 211.309 357.885C211.604 358.145 212.001 358.307 212.497 358.372ZM220.02 360.29L218.597 351.856L219.907 352.025L220.857 358.464L220.942 358.475L223.478 352.487L224.809 352.659L225.72 359.072L225.805 359.083L228.359 353.118L229.669 353.288L226.148 361.082L224.922 360.924L223.953 354.46L223.826 354.444L221.245 360.448L220.02 360.29ZM232.914 350.957L231.515 361.776L230.268 361.615L231.667 350.796L232.914 350.957ZM237.179 362.681C236.397 362.579 235.745 362.32 235.222 361.901C234.704 361.48 234.332 360.937 234.106 360.274C233.884 359.608 233.827 358.86 233.934 358.029C234.042 357.197 234.288 356.484 234.673 355.89C235.062 355.292 235.552 354.85 236.144 354.565C236.74 354.277 237.404 354.18 238.137 354.275C238.559 354.33 238.967 354.454 239.361 354.648C239.755 354.843 240.101 355.12 240.398 355.481C240.695 355.838 240.911 356.288 241.045 356.832C241.179 357.376 241.196 358.026 241.099 358.783L241.03 359.311L234.775 358.503L234.915 357.425L239.902 358.07C239.961 357.612 239.922 357.192 239.786 356.809C239.652 356.426 239.432 356.109 239.124 355.858C238.82 355.608 238.443 355.453 237.992 355.395C237.495 355.331 237.05 355.399 236.655 355.598C236.264 355.795 235.947 356.076 235.703 356.442C235.458 356.808 235.307 357.214 235.249 357.662L235.157 358.38C235.077 358.993 235.116 359.526 235.272 359.979C235.432 360.43 235.688 360.791 236.04 361.062C236.392 361.329 236.82 361.495 237.323 361.561C237.651 361.603 237.953 361.595 238.229 361.538C238.509 361.478 238.757 361.366 238.975 361.205C239.194 361.04 239.374 360.823 239.516 360.555L240.677 361.049C240.497 361.441 240.237 361.773 239.898 362.044C239.559 362.312 239.158 362.503 238.696 362.619C238.234 362.731 237.728 362.752 237.179 362.681ZM249.019 357.637L247.858 357.81C247.811 357.614 247.731 357.419 247.616 357.225C247.506 357.028 247.342 356.857 247.124 356.71C246.907 356.564 246.617 356.468 246.254 356.421C245.758 356.356 245.329 356.417 244.968 356.603C244.612 356.786 244.411 357.052 244.366 357.401C244.326 357.711 244.407 357.97 244.609 358.179C244.811 358.388 245.144 358.583 245.607 358.765L246.773 359.216C247.476 359.486 247.982 359.826 248.291 360.234C248.6 360.639 248.718 361.126 248.645 361.693C248.584 362.157 248.397 362.556 248.082 362.887C247.77 363.22 247.363 363.46 246.86 363.61C246.358 363.76 245.791 363.794 245.161 363.713C244.333 363.606 243.671 363.338 243.175 362.908C242.68 362.479 242.404 361.91 242.349 361.201L243.57 361.058C243.627 361.509 243.797 361.864 244.083 362.123C244.371 362.382 244.771 362.545 245.282 362.611C245.863 362.686 246.34 362.623 246.714 362.42C247.091 362.215 247.302 361.938 247.347 361.589C247.384 361.308 247.316 361.059 247.143 360.843C246.971 360.624 246.687 360.44 246.291 360.292L244.979 359.801C244.259 359.528 243.748 359.185 243.447 358.77C243.151 358.352 243.038 357.863 243.111 357.303C243.17 356.845 243.351 356.457 243.653 356.138C243.96 355.82 244.349 355.589 244.823 355.446C245.299 355.303 245.823 355.269 246.393 355.343C247.196 355.447 247.804 355.704 248.216 356.116C248.632 356.528 248.9 357.035 249.019 357.637ZM256.791 358.643L255.63 358.815C255.584 358.619 255.503 358.424 255.389 358.23C255.278 358.033 255.114 357.862 254.897 357.716C254.679 357.569 254.389 357.473 254.026 357.426C253.53 357.362 253.101 357.422 252.74 357.609C252.384 357.792 252.183 358.057 252.138 358.406C252.098 358.716 252.179 358.975 252.381 359.184C252.583 359.393 252.916 359.588 253.379 359.77L254.546 360.221C255.248 360.491 255.754 360.831 256.063 361.239C256.372 361.645 256.49 362.131 256.417 362.698C256.357 363.163 256.169 363.561 255.854 363.893C255.543 364.225 255.135 364.466 254.633 364.615C254.13 364.765 253.563 364.799 252.933 364.718C252.105 364.611 251.444 364.343 250.948 363.913C250.452 363.484 250.176 362.915 250.121 362.206L251.343 362.063C251.399 362.514 251.57 362.869 251.855 363.128C252.144 363.388 252.543 363.55 253.054 363.616C253.635 363.691 254.112 363.628 254.486 363.426C254.863 363.22 255.075 362.943 255.12 362.594C255.156 362.313 255.088 362.064 254.915 361.848C254.743 361.629 254.459 361.446 254.063 361.298L252.751 360.806C252.031 360.534 251.52 360.19 251.22 359.775C250.923 359.357 250.81 358.868 250.883 358.308C250.942 357.85 251.123 357.462 251.426 357.143C251.732 356.825 252.122 356.594 252.595 356.451C253.072 356.309 253.595 356.274 254.166 356.348C254.969 356.452 255.576 356.71 255.989 357.121C256.404 357.533 256.672 358.04 256.791 358.643ZM260.647 354.544L259.248 365.363L258.001 365.201L259.4 354.382L260.647 354.544ZM261.941 368.805C261.729 368.777 261.543 368.735 261.382 368.679C261.221 368.626 261.111 368.579 261.051 368.539L261.51 367.481C261.803 367.598 262.067 367.661 262.302 367.67C262.538 367.679 262.757 367.601 262.961 367.438C263.168 367.279 263.373 367.003 263.578 366.61L263.892 366.006L261.947 357.462L263.299 357.637L264.703 364.392L264.787 364.403L267.863 358.227L269.216 358.402L264.569 367.254C264.36 367.653 264.123 367.975 263.859 368.22C263.594 368.469 263.301 368.64 262.981 368.735C262.664 368.83 262.318 368.853 261.941 368.805Z" fill="white"/>
<path d="M166.436 137.912L161.949 137.332L163.911 131.084L168.398 131.664L169.392 128.437L164.957 127.864L166.918 121.616L171.353 122.189L174.309 112.714L181.168 113.601L178.212 123.076L182.389 123.616L185.345 114.141L192.204 115.028L189.248 124.503L193.735 125.083L191.773 131.332L187.287 130.751L186.293 133.978L190.728 134.552L188.766 140.8L184.331 140.226L181.375 149.702L174.517 148.815L177.472 139.339L173.295 138.799L170.339 148.274L163.48 147.387L166.436 137.912ZM179.434 133.091L180.428 129.864L176.251 129.324L175.257 132.551L179.434 133.091ZM208.744 153.66C205.65 153.26 202.963 152.144 200.683 150.311C198.442 148.448 196.791 146.085 195.728 143.221C194.704 140.327 194.414 137.161 194.859 133.723C195.299 130.319 196.38 127.366 198.102 124.862C199.863 122.328 202.062 120.463 204.698 119.266C207.374 118.039 210.259 117.625 213.353 118.025C216.413 118.421 219.063 119.55 221.304 121.413C223.584 123.246 225.236 125.609 226.26 128.503C227.318 131.401 227.629 134.535 227.193 137.905C226.753 141.308 225.67 144.279 223.944 146.817C222.217 149.356 220.016 151.238 217.341 152.465C214.704 153.662 211.839 154.061 208.744 153.66ZM209.851 145.1C210.883 145.233 211.862 144.958 212.79 144.274C213.756 143.56 214.571 142.529 215.234 141.182C215.898 139.834 216.343 138.284 216.57 136.531C216.921 133.815 216.692 131.53 215.883 129.678C215.074 127.826 213.862 126.795 212.246 126.586C210.561 126.368 209.092 127.052 207.838 128.638C206.623 130.193 205.838 132.346 205.482 135.097C205.131 137.813 205.358 140.114 206.162 142.001C207.006 143.858 208.236 144.891 209.851 145.1ZM237.468 157.532C233.72 157.048 230.352 155.93 227.362 154.181L230.044 146.82C232.618 148.271 235.074 149.148 237.412 149.45C240.231 149.815 241.776 148.949 242.047 146.851C242.239 145.373 241.652 144.231 240.288 143.426C238.924 142.62 236.558 141.999 233.188 141.564L234.015 135.169C237.075 135.565 239.402 135.551 240.994 135.128C242.621 134.709 243.508 133.932 243.655 132.798C243.855 131.25 242.632 130.306 239.984 129.963C237.475 129.639 234.803 129.888 231.97 130.71L230.866 123.436C234.888 122.069 238.979 121.654 243.139 122.192C246.302 122.601 248.766 123.688 250.53 125.455C252.328 127.225 253.058 129.417 252.72 132.03C252.503 133.715 251.858 135.187 250.786 136.446C249.749 137.71 248.437 138.659 246.852 139.293C248.696 140.441 250.086 141.861 251.02 143.555C251.989 145.253 252.351 147.048 252.107 148.939C251.836 151.036 251.033 152.785 249.698 154.185C248.398 155.59 246.678 156.591 244.538 157.188C242.437 157.756 240.081 157.87 237.468 157.532Z" fill="white"/>
<path d="M97.3218 185.576L93.9181 185.136L94.386 181.518L106.739 183.116L106.271 186.734L102.868 186.293L101.218 199.051L95.6719 198.334L97.3218 185.576ZM110.798 200.484C109.481 200.313 108.341 199.9 107.377 199.243C106.431 198.572 105.732 197.739 105.28 196.745C104.83 195.735 104.68 194.643 104.832 193.469C104.988 192.263 105.42 191.23 106.129 190.369C106.837 189.509 107.723 188.89 108.789 188.511C109.854 188.133 110.998 188.022 112.22 188.18C113.394 188.332 114.36 188.723 115.117 189.354C115.892 189.97 116.429 190.749 116.726 191.691C117.026 192.617 117.105 193.628 116.964 194.723C116.927 195.008 116.884 195.213 116.836 195.336L109.575 195.34C109.694 195.92 109.951 196.365 110.347 196.674C110.744 196.968 111.292 197.16 111.99 197.25C113.069 197.389 114.272 197.263 115.597 196.869L115.78 200.136C114.22 200.595 112.559 200.711 110.798 200.484ZM113.462 192.794C113.338 191.761 112.799 191.184 111.847 191.06C111.276 190.987 110.796 191.142 110.407 191.528C110.019 191.913 109.772 192.446 109.668 193.126L113.462 192.794ZM123.262 202.096C121.993 201.931 120.899 201.532 119.981 200.897C119.08 200.248 118.413 199.42 117.979 198.412C117.56 197.406 117.428 196.308 117.582 195.117C117.73 193.975 118.15 192.973 118.842 192.11C119.534 191.248 120.407 190.611 121.461 190.198C122.515 189.786 123.644 189.658 124.85 189.814C126.39 190.013 127.562 190.487 128.369 191.237L127.507 194.344C126.638 193.957 125.909 193.726 125.322 193.65C124.561 193.552 123.929 193.696 123.427 194.083C122.927 194.454 122.629 195.012 122.533 195.758C122.436 196.503 122.582 197.127 122.968 197.629C123.355 198.131 123.914 198.429 124.644 198.523C125.278 198.605 126.042 198.567 126.933 198.408L126.955 201.799C126.38 201.999 125.808 202.118 125.238 202.158C124.667 202.213 124.008 202.192 123.262 202.096ZM130.187 186.85L135.304 186.761L134.406 193.711C134.864 192.916 135.47 192.341 136.226 191.987C136.999 191.619 137.886 191.5 138.886 191.629C140.409 191.826 141.528 192.527 142.244 193.733C142.977 194.925 143.219 196.481 142.971 198.401L142.201 204.351L137.203 203.705L138.037 197.255C138.125 196.572 138.042 196.029 137.788 195.625C137.55 195.223 137.169 194.988 136.645 194.921C136.264 194.871 135.875 194.95 135.477 195.157C135.081 195.348 134.735 195.658 134.437 196.087C134.156 196.519 133.977 197.028 133.901 197.615L133.181 203.185L128.158 202.535L130.187 186.85ZM153.364 206.182C151.127 205.893 149.292 205.236 147.859 204.212L149.526 200.676C151.085 201.475 152.507 201.957 153.792 202.123C154.49 202.214 155.008 202.2 155.346 202.082C155.702 201.951 155.901 201.718 155.944 201.385C155.973 201.163 155.911 200.961 155.757 200.78C155.605 200.583 155.28 200.347 154.783 200.073C154.286 199.799 153.534 199.444 152.525 199.007C151.289 198.46 150.37 197.712 149.766 196.763C149.165 195.798 148.937 194.752 149.083 193.625C149.309 191.88 150.05 190.637 151.308 189.896C152.583 189.141 154.197 188.89 156.148 189.142C157.164 189.274 158.149 189.514 159.104 189.863C160.061 190.197 160.894 190.619 161.602 191.13L159.852 194.558C159.003 194.142 158.253 193.827 157.603 193.614C156.971 193.387 156.345 193.233 155.726 193.153C154.679 193.018 154.119 193.236 154.045 193.807C154.008 194.093 154.143 194.36 154.449 194.61C154.774 194.845 155.448 195.182 156.472 195.621C158.081 196.281 159.254 197.127 159.992 198.158C160.732 199.173 161.02 200.315 160.855 201.585C160.628 203.346 159.881 204.629 158.615 205.433C157.352 206.222 155.601 206.471 153.364 206.182ZM167.903 207.869C166.649 207.706 165.559 207.34 164.633 206.768C163.723 206.199 163.05 205.474 162.615 204.595C162.18 203.716 162.029 202.761 162.163 201.73L163.043 194.922L167.946 195.556L167.075 202.292C167.007 202.816 167.097 203.247 167.344 203.585C167.608 203.91 167.963 204.101 168.407 204.159C168.835 204.214 169.203 204.116 169.51 203.866C169.834 203.601 170.03 203.207 170.098 202.683L170.969 195.947L175.777 196.569L174.897 203.376C174.761 204.424 174.372 205.317 173.727 206.057C173.101 206.782 172.283 207.306 171.274 207.627C170.264 207.948 169.141 208.029 167.903 207.869ZM177.587 196.972L182.609 197.622L182.341 199.693C183.31 198.189 184.707 197.554 186.532 197.79C187.595 197.928 188.536 198.324 189.355 198.978C190.191 199.619 190.803 200.44 191.19 201.442C191.592 202.446 191.719 203.527 191.569 204.685C191.419 205.844 191.014 206.856 190.353 207.723C189.709 208.591 188.899 209.237 187.925 209.659C186.969 210.068 185.983 210.207 184.967 210.075C183.158 209.841 181.961 208.872 181.374 207.166L180.688 212.474L175.543 212.777L177.587 196.972ZM183.93 206.118C184.581 206.202 185.167 206.036 185.689 205.619C186.21 205.202 186.512 204.677 186.594 204.042C186.68 203.376 186.515 202.782 186.099 202.26C185.698 201.74 185.18 201.439 184.546 201.357C183.895 201.273 183.31 201.431 182.79 201.832C182.273 202.217 181.974 202.719 181.894 203.337L181.882 203.433C181.795 204.099 181.953 204.692 182.353 205.212C182.77 205.734 183.295 206.035 183.93 206.118ZM193.66 199.051L198.682 199.701L198.415 201.771C199.384 200.267 200.78 199.633 202.605 199.869C203.668 200.007 204.609 200.403 205.428 201.057C206.265 201.698 206.877 202.519 207.263 203.521C207.666 204.525 207.792 205.606 207.643 206.764C207.493 207.922 207.088 208.935 206.427 209.801C205.782 210.67 204.973 211.315 203.999 211.738C203.042 212.147 202.056 212.285 201.041 212.154C199.232 211.92 198.034 210.95 197.448 209.245L196.762 214.553L191.616 214.856L193.66 199.051ZM200.004 208.196C200.654 208.28 201.241 208.114 201.762 207.698C202.284 207.281 202.586 206.755 202.668 206.121C202.754 205.454 202.589 204.86 202.172 204.339C201.772 203.819 201.254 203.518 200.619 203.436C199.969 203.352 199.384 203.51 198.864 203.911C198.346 204.295 198.048 204.797 197.968 205.416L197.955 205.511C197.869 206.178 198.026 206.771 198.427 207.291C198.843 207.812 199.369 208.114 200.004 208.196ZM214.449 213.888C213.116 213.715 211.959 213.3 210.98 212.641C210.016 211.984 209.3 211.157 208.832 210.161C208.382 209.151 208.235 208.043 208.391 206.837C208.547 205.631 208.978 204.606 209.684 203.761C210.392 202.901 211.295 202.284 212.392 201.909C213.505 201.537 214.728 201.437 216.061 201.609C217.409 201.784 218.566 202.199 219.529 202.856C220.511 203.5 221.228 204.318 221.68 205.312C222.132 206.307 222.28 207.407 222.125 208.613C221.967 209.835 221.533 210.876 220.825 211.736C220.135 212.582 219.232 213.2 218.117 213.588C217.02 213.962 215.797 214.062 214.449 213.888ZM214.958 210.324C215.608 210.408 216.171 210.239 216.645 209.816C217.137 209.379 217.432 208.78 217.531 208.019C217.629 207.257 217.495 206.61 217.128 206.079C216.779 205.534 216.28 205.219 215.629 205.135C214.978 205.051 214.407 205.227 213.915 205.663C213.441 206.086 213.155 206.678 213.056 207.44C212.958 208.202 213.083 208.855 213.432 209.4C213.799 209.932 214.307 210.24 214.958 210.324ZM224.18 202.998L229.203 203.647L228.889 206.075C229.375 205.186 229.956 204.56 230.632 204.195C231.326 203.817 232.094 203.683 232.935 203.791L233.124 207.76C231.616 207.565 230.484 207.588 229.727 207.829C228.987 208.056 228.573 208.519 228.482 209.217L227.682 215.406L222.66 214.756L224.18 202.998ZM237.994 216.933C236.598 216.752 235.562 216.215 234.887 215.321C234.215 214.411 233.969 213.25 234.152 211.838L234.752 207.197L233.229 207L233.611 204.048L235.491 204.291L238.286 200.079L240.69 200.39L240.109 204.888L242.87 205.245L242.488 208.197L239.727 207.84L239.204 211.886C239.152 212.283 239.239 212.609 239.464 212.864C239.69 213.119 240.032 213.276 240.492 213.335C240.921 213.391 241.322 213.346 241.696 213.201L241.455 216.558C241.028 216.744 240.486 216.876 239.831 216.952C239.194 217.015 238.581 217.009 237.994 216.933ZM252.206 201.928L259.442 202.863L262.061 219.851L256.468 219.128L256.255 215.906L252.018 215.358L250.922 218.411L245.566 217.718L252.206 201.928ZM256.062 212.905L255.442 205.54L252.897 212.495L256.062 212.905ZM264.869 211.091L263.369 210.897L263.751 207.946L265.251 208.14L265.38 207.14C265.608 205.379 266.201 204.1 267.159 203.305C268.132 202.511 269.381 202.213 270.904 202.41C272.126 202.568 273.221 203.024 274.188 203.778L273.606 206.97C272.733 206.486 271.987 206.204 271.368 206.124C270.892 206.062 270.511 206.134 270.227 206.339C269.944 206.528 269.775 206.837 269.72 207.266C269.666 207.678 269.74 208.172 269.94 208.746L273.272 209.177L272.89 212.129L269.891 211.741L268.731 220.714L263.709 220.065L264.869 211.091ZM277.86 222.088C276.463 221.908 275.428 221.37 274.753 220.476C274.08 219.567 273.835 218.406 274.017 216.993L274.617 212.352L273.094 212.155L273.476 209.204L275.356 209.447L278.152 205.234L280.555 205.545L279.974 210.044L282.735 210.401L282.353 213.352L279.592 212.995L279.069 217.042C279.017 217.438 279.104 217.764 279.33 218.019C279.555 218.274 279.897 218.431 280.358 218.491C280.786 218.546 281.187 218.501 281.561 218.356L281.32 221.713C280.893 221.9 280.351 222.031 279.696 222.108C279.059 222.171 278.447 222.164 277.86 222.088ZM288.447 223.457C287.13 223.287 285.989 222.873 285.026 222.216C284.08 221.545 283.381 220.713 282.929 219.719C282.478 218.709 282.329 217.616 282.481 216.442C282.637 215.236 283.069 214.203 283.777 213.343C284.486 212.483 285.372 211.863 286.438 211.485C287.503 211.106 288.647 210.996 289.868 211.154C291.043 211.306 292.008 211.697 292.766 212.327C293.541 212.944 294.078 213.723 294.375 214.665C294.675 215.591 294.754 216.602 294.612 217.696C294.576 217.982 294.533 218.186 294.485 218.309L287.224 218.314C287.343 218.894 287.6 219.339 287.996 219.648C288.393 219.941 288.941 220.133 289.639 220.224C290.718 220.363 291.921 220.236 293.246 219.843L293.428 223.109C291.869 223.569 290.208 223.685 288.447 223.457ZM291.111 215.767C290.986 214.735 290.448 214.157 289.496 214.034C288.925 213.96 288.445 214.116 288.056 214.501C287.667 214.887 287.421 215.419 287.317 216.1L291.111 215.767ZM296.577 212.36L301.599 213.01L301.285 215.438C301.771 214.549 302.352 213.922 303.029 213.558C303.723 213.18 304.491 213.045 305.332 213.154L305.52 217.123C304.013 216.928 302.88 216.951 302.123 217.192C301.384 217.419 300.969 217.881 300.879 218.579L300.079 224.768L295.056 224.118L296.577 212.36ZM148.503 217.758L155.62 218.678C157.333 218.9 158.805 219.437 160.033 220.29C161.278 221.144 162.186 222.23 162.758 223.546C163.346 224.864 163.538 226.309 163.335 227.88C163.122 229.53 162.569 230.935 161.677 232.094C160.801 233.255 159.651 234.099 158.228 234.625C156.823 235.137 155.247 235.28 153.502 235.054L146.385 234.134L148.503 217.758ZM153.818 230.739C155.008 230.893 155.961 230.637 156.676 229.971C157.409 229.292 157.854 228.349 158.01 227.143C158.157 226 157.965 225.056 157.432 224.309C156.918 223.549 156.049 223.09 154.827 222.932L153.209 222.723L152.199 230.53L153.818 230.739ZM169.869 237.364C168.552 237.194 167.411 236.78 166.448 236.123C165.502 235.452 164.803 234.62 164.351 233.626C163.901 232.616 163.751 231.523 163.903 230.349C164.059 229.143 164.491 228.11 165.199 227.25C165.908 226.39 166.794 225.77 167.86 225.392C168.925 225.013 170.069 224.903 171.291 225.061C172.465 225.213 173.431 225.604 174.188 226.234C174.963 226.851 175.5 227.63 175.797 228.572C176.097 229.498 176.176 230.509 176.035 231.603C175.998 231.889 175.955 232.093 175.907 232.216L168.646 232.221C168.765 232.801 169.022 233.246 169.418 233.555C169.815 233.848 170.363 234.04 171.061 234.13C172.14 234.27 173.343 234.143 174.668 233.75L174.851 237.016C173.291 237.476 171.63 237.592 169.869 237.364ZM172.533 229.674C172.408 228.642 171.87 228.064 170.918 227.941C170.347 227.867 169.867 228.023 169.478 228.408C169.09 228.794 168.843 229.326 168.739 230.007L172.533 229.674ZM180.643 238.758C179.294 238.583 178.301 238.027 177.664 237.09C177.045 236.139 176.831 234.925 177.022 233.449L178.459 222.334L183.577 222.245L182.09 233.742C182.033 234.186 182.094 234.525 182.274 234.758C182.471 234.977 182.84 235.121 183.379 235.191C183.776 235.242 184.177 235.197 184.582 235.056L184.318 238.41C183.185 238.812 181.96 238.928 180.643 238.758ZM189.162 239.859C187.83 239.687 186.846 239.124 186.211 238.171C185.576 237.217 185.354 236.003 185.544 234.527L186.492 227.196L191.538 227.849L190.618 234.966C190.571 235.331 190.629 235.628 190.793 235.859C190.975 236.076 191.224 236.206 191.541 236.247C191.859 236.288 192.196 236.234 192.554 236.087L192.388 239.429C192.004 239.654 191.517 239.801 190.928 239.87C190.354 239.941 189.765 239.937 189.162 239.859ZM189.246 225.737C188.5 225.641 187.896 225.329 187.431 224.801C186.985 224.259 186.806 223.647 186.894 222.965C186.983 222.283 187.326 221.746 187.925 221.356C188.524 220.965 189.173 220.815 189.871 220.906C190.601 221 191.197 221.319 191.659 221.863C192.137 222.409 192.334 223.007 192.25 223.657C192.16 224.356 191.815 224.9 191.216 225.29C190.617 225.681 189.96 225.83 189.246 225.737ZM193.126 228.054L198.648 228.768L199.557 236.146L202.266 229.236L206.622 229.799L201.295 241.235L195.511 240.487L193.126 228.054ZM211.849 242.793C210.532 242.623 209.392 242.209 208.428 241.552C207.482 240.881 206.783 240.049 206.331 239.055C205.881 238.044 205.732 236.952 205.884 235.778C206.04 234.572 206.472 233.539 207.18 232.679C207.888 231.818 208.775 231.199 209.84 230.821C210.906 230.442 212.049 230.332 213.271 230.49C214.445 230.642 215.411 231.033 216.168 231.663C216.944 232.28 217.48 233.059 217.778 234.001C218.078 234.927 218.157 235.937 218.015 237.032C217.978 237.318 217.936 237.522 217.887 237.645L210.627 237.65C210.745 238.23 211.002 238.675 211.398 238.984C211.796 239.277 212.344 239.469 213.042 239.559C214.121 239.699 215.323 239.572 216.648 239.179L216.831 242.445C215.271 242.905 213.611 243.021 211.849 242.793ZM214.513 235.103C214.389 234.071 213.851 233.493 212.898 233.37C212.327 233.296 211.847 233.452 211.459 233.837C211.07 234.222 210.824 234.755 210.72 235.436L214.513 235.103ZM219.98 231.696L225.002 232.346L224.688 234.774C225.174 233.884 225.755 233.258 226.431 232.894C227.125 232.515 227.893 232.381 228.734 232.49L228.923 236.459C227.415 236.264 226.283 236.287 225.526 236.527C224.787 236.755 224.372 237.217 224.281 237.915L223.481 244.104L218.459 243.454L219.98 231.696ZM234.232 251.036C233.359 250.923 232.537 250.728 231.767 250.451L232.603 246.977C233.209 247.153 233.775 247.274 234.298 247.342C235.234 247.463 235.985 247.27 236.551 246.762C237.115 246.27 237.505 245.248 237.722 243.695C236.692 245.175 235.264 245.797 233.439 245.561C231.9 245.362 230.764 244.667 230.031 243.475C229.316 242.269 229.082 240.706 229.33 238.786L230.1 232.836L235.098 233.482L234.233 240.17C234.164 240.71 234.256 241.182 234.51 241.586C234.767 241.974 235.156 242.201 235.68 242.269C236.22 242.339 236.686 242.165 237.079 241.748C237.487 241.333 237.74 240.753 237.836 240.007L238.621 233.938L243.643 234.587L242.492 243.489C242.135 246.25 241.244 248.272 239.82 249.556C238.395 250.84 236.533 251.333 234.232 251.036Z" fill="white"/>
<defs>
<filter id="filter0_d_29_237" x="-0.00063324" y="-0.00063324" width="389.977" height="477.676" filterUnits="userSpaceOnUse" color-interpolation-filters="sRGB">
<feFlood flood-opacity="0" result="BackgroundImageFix"/>
<feColorMatrix in="SourceAlpha" type="matrix" values="0 0 0 0 0 0 0 0 0 0 0 0 0 0 0 0 0 0 127 0" result="hardAlpha"/>
<feOffset dy="4"/>
<feGaussianBlur stdDeviation="19.8"/>
<feComposite in2="hardAlpha" operator="out"/>
<feColorMatrix type="matrix" values="0 0 0 0 0 0 0 0 0 0 0 0 0 0 0 0 0 0 0.33 0"/>
<feBlend mode="normal" in2="BackgroundImageFix" result="effect1_dropShadow_29_237"/>
<feBlend mode="normal" in="SourceGraphic" in2="effect1_dropShadow_29_237" result="shape"/>
</filter>
</defs>
</svg>
