<svg width="388" height="475" viewBox="0 0 388 475" fill="none" xmlns="http://www.w3.org/2000/svg">
<g filter="url(#filter0_d_29_242)">
<path d="M58.0309 220.992L40.5774 70.8595C40.2585 68.1165 42.2236 65.6344 44.9666 65.3156L300.179 35.6462C302.922 35.3273 305.404 37.2924 305.723 40.0354L323.224 190.573C323.377 191.89 323.001 193.214 322.177 194.254L319.395 197.769C317.681 199.934 318.046 203.078 320.211 204.793L324.387 208.098C325.426 208.921 326.097 210.124 326.25 211.441L347.702 395.975C348.021 398.718 346.056 401.2 343.313 401.519L87.5086 431.257C84.7656 431.576 82.2835 429.611 81.9647 426.868L60.5467 242.634C60.3733 241.142 60.8795 239.652 61.9253 238.574L65.5088 234.882C67.7611 232.561 67.2512 228.745 64.4686 227.097L60.4497 224.717C59.1059 223.922 58.2112 222.544 58.0309 220.992Z" fill="#1C9EDC"/>
</g>
<path d="M123.717 309.804L122.405 309.957C122.283 309.588 122.109 309.273 121.882 309.009C121.658 308.746 121.397 308.533 121.1 308.371C120.805 308.205 120.486 308.092 120.143 308.032C119.8 307.972 119.449 307.962 119.089 308.004C118.433 308.08 117.858 308.315 117.364 308.709C116.873 309.102 116.508 309.639 116.269 310.321C116.034 311.003 115.971 311.813 116.08 312.751C116.189 313.69 116.436 314.463 116.822 315.073C117.211 315.682 117.689 316.121 118.257 316.391C118.828 316.661 119.442 316.758 120.098 316.681C120.457 316.64 120.797 316.55 121.118 316.413C121.438 316.275 121.722 316.094 121.971 315.868C122.223 315.639 122.428 315.37 122.585 315.062C122.746 314.751 122.843 314.403 122.877 314.02L124.189 313.868C124.155 314.433 124.033 314.95 123.822 315.417C123.612 315.885 123.331 316.295 122.979 316.647C122.626 316.995 122.217 317.277 121.752 317.492C121.291 317.706 120.787 317.845 120.24 317.909C119.316 318.016 118.468 317.886 117.696 317.518C116.924 317.151 116.283 316.574 115.774 315.79C115.264 315.005 114.943 314.042 114.81 312.899C114.677 311.756 114.769 310.744 115.085 309.864C115.401 308.983 115.892 308.276 116.559 307.741C117.226 307.205 118.022 306.884 118.946 306.777C119.493 306.713 120.015 306.733 120.514 306.836C121.015 306.938 121.478 307.12 121.902 307.382C122.325 307.64 122.693 307.973 123.004 308.38C123.316 308.784 123.553 309.258 123.717 309.804ZM129.961 316.8C129.178 316.891 128.483 316.797 127.874 316.517C127.269 316.234 126.777 315.798 126.398 315.209C126.021 314.616 125.785 313.904 125.688 313.071C125.591 312.239 125.658 311.488 125.887 310.817C126.12 310.143 126.489 309.596 126.994 309.177C127.503 308.753 128.124 308.498 128.857 308.413C129.281 308.364 129.707 308.386 130.136 308.479C130.565 308.572 130.967 308.758 131.343 309.036C131.718 309.31 132.036 309.695 132.298 310.19C132.559 310.685 132.734 311.312 132.822 312.071L132.883 312.6L126.619 313.328L126.493 312.249L131.488 311.668C131.435 311.209 131.296 310.811 131.07 310.472C130.849 310.133 130.558 309.879 130.199 309.71C129.843 309.541 129.439 309.482 128.988 309.535C128.49 309.592 128.074 309.766 127.74 310.055C127.408 310.34 127.168 310.69 127.02 311.104C126.871 311.518 126.823 311.949 126.875 312.397L126.959 313.117C127.03 313.731 127.197 314.239 127.458 314.641C127.722 315.039 128.058 315.327 128.465 315.505C128.871 315.679 129.326 315.737 129.831 315.679C130.159 315.641 130.45 315.56 130.704 315.438C130.961 315.311 131.175 315.143 131.348 314.934C131.52 314.721 131.642 314.467 131.715 314.173L132.961 314.371C132.881 314.795 132.71 315.18 132.446 315.525C132.182 315.867 131.839 316.149 131.418 316.374C130.997 316.594 130.511 316.736 129.961 316.8ZM135.206 316.019L134.261 307.892L135.468 307.752L135.61 308.979L135.695 308.969C135.796 308.55 136.027 308.193 136.386 307.897C136.744 307.602 137.167 307.425 137.654 307.369C137.746 307.358 137.861 307.347 137.999 307.334C138.137 307.322 138.241 307.315 138.313 307.314L138.46 308.584C138.417 308.578 138.318 308.573 138.164 308.57C138.013 308.562 137.854 308.568 137.688 308.588C137.293 308.633 136.95 308.757 136.659 308.959C136.371 309.157 136.154 309.411 136.008 309.721C135.865 310.028 135.814 310.364 135.857 310.731L136.455 315.874L135.206 316.019ZM143.849 306.777L143.972 307.836L139.76 308.325L139.637 307.267L143.849 306.777ZM140.638 305.177L141.887 305.032L142.787 312.778C142.828 313.131 142.91 313.39 143.033 313.554C143.159 313.715 143.307 313.815 143.476 313.856C143.648 313.894 143.826 313.902 144.01 313.88C144.147 313.864 144.259 313.844 144.346 313.82C144.432 313.792 144.501 313.769 144.552 313.753L144.937 314.845C144.856 314.887 144.741 314.932 144.593 314.981C144.446 315.034 144.256 315.074 144.023 315.101C143.67 315.142 143.316 315.107 142.959 314.994C142.607 314.882 142.301 314.683 142.043 314.398C141.788 314.113 141.633 313.735 141.578 313.262L140.638 305.177ZM146.672 314.686L145.727 306.559L146.976 306.414L147.921 314.541L146.672 314.686ZM146.205 305.131C145.961 305.159 145.742 305.101 145.546 304.955C145.354 304.81 145.244 304.62 145.217 304.387C145.19 304.155 145.253 303.945 145.407 303.759C145.564 303.573 145.764 303.466 146.008 303.438C146.251 303.409 146.469 303.468 146.661 303.614C146.857 303.759 146.968 303.948 146.995 304.181C147.022 304.414 146.957 304.623 146.8 304.809C146.646 304.995 146.448 305.102 146.205 305.131ZM152.882 305.727L153.005 306.785L148.624 307.295L148.501 306.237L152.882 305.727ZM150.758 314.211L149.683 304.962C149.629 304.497 149.693 304.096 149.875 303.76C150.058 303.424 150.315 303.158 150.646 302.963C150.977 302.767 151.337 302.646 151.725 302.601C152.032 302.566 152.285 302.561 152.485 302.588C152.685 302.615 152.835 302.644 152.935 302.675L152.7 303.796C152.634 303.783 152.543 303.766 152.427 303.748C152.314 303.729 152.167 303.73 151.987 303.751C151.574 303.799 151.289 303.937 151.129 304.167C150.974 304.396 150.919 304.711 150.966 305.113L152.007 314.066L150.758 314.211ZM155.577 313.651L154.632 305.524L155.881 305.379L156.825 313.506L155.577 313.651ZM155.109 304.095C154.866 304.124 154.647 304.065 154.451 303.92C154.259 303.774 154.149 303.585 154.122 303.352C154.095 303.119 154.158 302.91 154.312 302.724C154.469 302.538 154.669 302.431 154.913 302.402C155.156 302.374 155.374 302.433 155.566 302.578C155.761 302.724 155.873 302.913 155.9 303.146C155.927 303.378 155.862 303.588 155.705 303.774C155.551 303.96 155.353 304.067 155.109 304.095ZM162.54 313.013C161.757 313.104 161.061 313.01 160.453 312.73C159.848 312.446 159.356 312.01 158.976 311.422C158.6 310.829 158.363 310.117 158.267 309.284C158.17 308.452 158.236 307.7 158.466 307.03C158.698 306.356 159.067 305.809 159.573 305.389C160.081 304.965 160.702 304.711 161.436 304.626C161.859 304.576 162.285 304.598 162.714 304.691C163.144 304.785 163.546 304.97 163.921 305.248C164.297 305.523 164.615 305.908 164.876 306.403C165.137 306.898 165.312 307.525 165.4 308.283L165.462 308.812L159.197 309.541L159.072 308.461L164.067 307.881C164.013 307.422 163.874 307.023 163.649 306.685C163.427 306.346 163.136 306.092 162.777 305.923C162.421 305.753 162.018 305.695 161.566 305.747C161.069 305.805 160.653 305.979 160.318 306.268C159.987 306.553 159.747 306.903 159.598 307.317C159.45 307.731 159.402 308.162 159.454 308.61L159.537 309.329C159.609 309.943 159.775 310.451 160.036 310.853C160.301 311.252 160.636 311.54 161.043 311.718C161.449 311.892 161.905 311.95 162.409 311.891C162.737 311.853 163.028 311.773 163.282 311.65C163.539 311.524 163.754 311.356 163.926 311.147C164.098 310.934 164.22 310.68 164.293 310.385L165.539 310.584C165.46 311.008 165.288 311.392 165.024 311.737C164.76 312.079 164.418 312.362 163.997 312.586C163.576 312.807 163.09 312.949 162.54 313.013ZM170.873 312.044C170.196 312.123 169.578 312.021 169.02 311.74C168.461 311.454 167.999 311.015 167.633 310.421C167.267 309.823 167.034 309.094 166.934 308.234C166.834 307.38 166.895 306.622 167.115 305.96C167.334 305.298 167.685 304.766 168.168 304.363C168.65 303.96 169.233 303.719 169.917 303.64C170.447 303.578 170.875 303.618 171.202 303.758C171.533 303.895 171.792 304.065 171.98 304.269C172.171 304.468 172.321 304.633 172.429 304.763L172.535 304.751L172.07 300.751L173.319 300.606L174.578 311.442L173.372 311.582L173.227 310.333L173.079 310.351C173.004 310.509 172.895 310.712 172.752 310.957C172.609 311.199 172.39 311.426 172.097 311.639C171.803 311.849 171.395 311.984 170.873 312.044ZM170.912 310.903C171.413 310.845 171.821 310.665 172.136 310.364C172.451 310.059 172.672 309.663 172.797 309.177C172.923 308.687 172.95 308.135 172.878 307.521C172.808 306.914 172.658 306.394 172.429 305.959C172.199 305.521 171.897 305.195 171.521 304.981C171.146 304.764 170.704 304.685 170.196 304.744C169.667 304.806 169.242 304.993 168.921 305.305C168.603 305.614 168.382 306.01 168.26 306.492C168.14 306.971 168.113 307.496 168.18 308.067C168.247 308.646 168.396 309.161 168.628 309.613C168.862 310.061 169.17 310.405 169.552 310.643C169.937 310.877 170.39 310.964 170.912 310.903ZM186.38 301.833C186.254 301.304 185.948 300.918 185.462 300.674C184.976 300.43 184.405 300.347 183.749 300.423C183.269 300.479 182.859 300.605 182.517 300.802C182.179 300.999 181.925 301.244 181.755 301.539C181.589 301.834 181.526 302.154 181.567 302.5C181.6 302.789 181.698 303.03 181.86 303.222C182.025 303.41 182.224 303.56 182.459 303.672C182.693 303.781 182.935 303.865 183.186 303.926C183.435 303.983 183.664 304.026 183.871 304.055L185.006 304.224C185.297 304.265 185.623 304.331 185.983 304.421C186.348 304.511 186.702 304.65 187.046 304.839C187.392 305.024 187.69 305.279 187.939 305.604C188.188 305.929 188.341 306.345 188.401 306.853C188.469 307.439 188.377 307.986 188.125 308.494C187.876 309.002 187.476 309.43 186.922 309.776C186.373 310.123 185.682 310.344 184.849 310.441C184.073 310.531 183.387 310.484 182.79 310.3C182.196 310.115 181.711 309.817 181.335 309.407C180.961 308.996 180.719 308.497 180.608 307.909L181.963 307.752C182.045 308.157 182.222 308.48 182.493 308.72C182.768 308.956 183.097 309.118 183.483 309.205C183.872 309.289 184.281 309.306 184.711 309.256C185.212 309.197 185.653 309.064 186.032 308.855C186.412 308.643 186.701 308.377 186.9 308.058C187.098 307.734 187.174 307.375 187.128 306.98C187.086 306.62 186.952 306.339 186.725 306.137C186.497 305.934 186.211 305.782 185.867 305.679C185.522 305.576 185.154 305.493 184.76 305.432L183.383 305.206C182.508 305.061 181.797 304.791 181.251 304.397C180.705 304.003 180.389 303.441 180.304 302.711C180.234 302.104 180.336 301.556 180.612 301.066C180.89 300.573 181.294 300.168 181.822 299.853C182.353 299.534 182.965 299.334 183.656 299.254C184.354 299.173 184.99 299.226 185.562 299.413C186.134 299.597 186.604 299.885 186.971 300.279C187.342 300.672 187.568 301.141 187.65 301.685L186.38 301.833ZM194.052 309.35C193.318 309.435 192.654 309.335 192.06 309.05C191.469 308.765 190.982 308.327 190.598 307.735C190.219 307.143 189.98 306.427 189.882 305.587C189.784 304.741 189.851 303.984 190.085 303.317C190.322 302.649 190.695 302.109 191.205 301.696C191.718 301.282 192.341 301.033 193.075 300.947C193.809 300.862 194.471 300.962 195.062 301.247C195.656 301.532 196.144 301.972 196.524 302.568C196.908 303.163 197.149 303.884 197.247 304.731C197.345 305.57 197.275 306.322 197.038 306.986C196.804 307.65 196.43 308.188 195.917 308.602C195.407 309.015 194.786 309.264 194.052 309.35ZM193.922 308.228C194.479 308.163 194.921 307.967 195.247 307.639C195.574 307.312 195.797 306.905 195.915 306.42C196.034 305.934 196.062 305.419 195.999 304.876C195.936 304.333 195.79 303.837 195.563 303.388C195.335 302.939 195.025 302.59 194.632 302.343C194.238 302.096 193.763 302.004 193.206 302.069C192.648 302.134 192.206 302.332 191.88 302.663C191.554 302.994 191.332 303.404 191.214 303.893C191.095 304.383 191.068 304.899 191.131 305.442C191.194 305.985 191.339 306.48 191.566 306.925C191.793 307.371 192.103 307.715 192.496 307.959C192.889 308.203 193.364 308.293 193.922 308.228ZM199.61 297.549L200.87 308.385L199.621 308.531L198.361 297.694L199.61 297.549ZM207.892 304.201L207.334 299.397L208.582 299.252L209.527 307.379L208.278 307.524L208.119 306.148L208.034 306.158C207.891 306.593 207.636 306.979 207.267 307.315C206.898 307.647 206.407 307.849 205.793 307.92C205.285 307.979 204.821 307.921 204.4 307.744C203.979 307.565 203.629 307.262 203.351 306.837C203.072 306.408 202.893 305.848 202.812 305.157L202.212 299.992L203.461 299.847L204.051 304.927C204.12 305.519 204.341 305.973 204.713 306.287C205.089 306.601 205.537 306.727 206.055 306.667C206.366 306.631 206.672 306.515 206.975 306.319C207.281 306.123 207.524 305.848 207.705 305.494C207.889 305.14 207.951 304.709 207.892 304.201ZM214.404 298.575L214.527 299.633L210.315 300.123L210.192 299.065L214.404 298.575ZM211.193 296.975L212.442 296.83L213.343 304.576C213.384 304.929 213.465 305.187 213.588 305.352C213.714 305.512 213.862 305.613 214.031 305.654C214.203 305.691 214.381 305.699 214.565 305.678C214.702 305.662 214.814 305.642 214.901 305.617C214.987 305.59 215.056 305.567 215.108 305.55L215.492 306.643C215.411 306.684 215.296 306.73 215.148 306.779C215.001 306.832 214.811 306.872 214.578 306.899C214.225 306.94 213.871 306.904 213.514 306.792C213.162 306.679 212.856 306.481 212.598 306.196C212.343 305.911 212.188 305.532 212.133 305.06L211.193 296.975ZM217.227 306.484L216.282 298.357L217.531 298.212L218.476 306.339L217.227 306.484ZM216.76 296.928C216.516 296.957 216.297 296.898 216.101 296.753C215.909 296.607 215.799 296.418 215.772 296.185C215.745 295.952 215.809 295.743 215.962 295.557C216.119 295.371 216.319 295.264 216.563 295.235C216.806 295.207 217.024 295.266 217.216 295.411C217.412 295.557 217.523 295.746 217.55 295.979C217.577 296.211 217.512 296.421 217.355 296.607C217.202 296.793 217.003 296.9 216.76 296.928ZM224.084 305.858C223.35 305.944 222.686 305.844 222.092 305.559C221.501 305.274 221.014 304.835 220.631 304.243C220.251 303.651 220.012 302.935 219.914 302.096C219.816 301.249 219.883 300.492 220.117 299.825C220.354 299.158 220.727 298.618 221.237 298.204C221.75 297.791 222.374 297.541 223.107 297.456C223.841 297.371 224.503 297.471 225.094 297.756C225.689 298.041 226.176 298.481 226.556 299.077C226.94 299.672 227.181 300.393 227.279 301.24C227.377 302.079 227.307 302.831 227.07 303.495C226.836 304.158 226.462 304.697 225.949 305.111C225.439 305.524 224.818 305.773 224.084 305.858ZM223.954 304.737C224.511 304.672 224.953 304.476 225.28 304.148C225.606 303.821 225.829 303.414 225.947 302.928C226.066 302.442 226.094 301.928 226.031 301.385C225.968 300.842 225.822 300.345 225.595 299.896C225.368 299.447 225.057 299.099 224.664 298.852C224.27 298.604 223.795 298.513 223.238 298.578C222.68 298.643 222.239 298.84 221.912 299.172C221.586 299.503 221.364 299.913 221.246 300.402C221.127 300.891 221.1 301.407 221.163 301.951C221.226 302.494 221.371 302.988 221.598 303.434C221.825 303.879 222.135 304.224 222.528 304.468C222.921 304.712 223.396 304.801 223.954 304.737ZM230.333 300.005L230.902 304.894L229.653 305.039L228.708 296.912L229.915 296.772L230.062 298.042L230.168 298.029C230.311 297.595 230.561 297.229 230.92 296.934C231.279 296.635 231.765 296.45 232.379 296.378C232.929 296.314 233.423 296.371 233.862 296.549C234.301 296.723 234.661 297.025 234.943 297.453C235.225 297.878 235.406 298.436 235.487 299.127L236.087 304.291L234.838 304.436L234.248 299.357C234.174 298.719 233.95 298.24 233.577 297.923C233.204 297.602 232.728 297.475 232.149 297.542C231.751 297.588 231.404 297.716 231.111 297.925C230.82 298.134 230.604 298.415 230.463 298.767C230.322 299.12 230.278 299.532 230.333 300.005ZM242.729 303.519L241.469 292.683L242.781 292.531L243.342 297.356L249.12 296.684L248.559 291.859L249.871 291.706L251.131 302.542L249.819 302.695L249.255 297.848L243.477 298.52L244.041 303.367L242.729 303.519ZM257.016 302.03C256.233 302.121 255.537 302.027 254.929 301.747C254.324 301.463 253.832 301.027 253.452 300.439C253.076 299.846 252.839 299.133 252.743 298.301C252.646 297.468 252.712 296.717 252.942 296.047C253.174 295.373 253.543 294.826 254.049 294.406C254.557 293.982 255.178 293.728 255.912 293.642C256.335 293.593 256.761 293.615 257.19 293.708C257.62 293.801 258.022 293.987 258.397 294.265C258.773 294.54 259.091 294.925 259.352 295.42C259.614 295.915 259.788 296.542 259.876 297.3L259.938 297.829L253.673 298.557L253.548 297.478L258.543 296.897C258.489 296.439 258.35 296.04 258.125 295.702C257.903 295.363 257.613 295.109 257.253 294.94C256.897 294.77 256.494 294.712 256.042 294.764C255.545 294.822 255.129 294.995 254.794 295.285C254.463 295.57 254.223 295.919 254.074 296.334C253.926 296.748 253.878 297.179 253.93 297.627L254.013 298.346C254.085 298.96 254.251 299.468 254.512 299.87C254.777 300.268 255.112 300.557 255.519 300.735C255.925 300.909 256.381 300.967 256.885 300.908C257.213 300.87 257.504 300.79 257.758 300.667C258.015 300.541 258.23 300.373 258.402 300.163C258.574 299.95 258.696 299.697 258.769 299.402L260.015 299.6C259.936 300.024 259.764 300.409 259.5 300.754C259.236 301.096 258.894 301.379 258.473 301.603C258.052 301.824 257.566 301.966 257.016 302.03ZM262.261 301.249L261.316 293.121L262.522 292.981L262.665 294.209L262.75 294.199C262.851 293.78 263.081 293.422 263.44 293.127C263.799 292.831 264.222 292.655 264.709 292.598C264.8 292.588 264.915 292.576 265.053 292.564C265.191 292.551 265.296 292.544 265.367 292.543L265.515 293.813C265.471 293.807 265.372 293.803 265.218 293.799C265.067 293.792 264.909 293.798 264.743 293.817C264.348 293.863 264.005 293.987 263.714 294.189C263.426 294.387 263.208 294.641 263.062 294.951C262.919 295.257 262.869 295.594 262.911 295.96L263.509 301.103L262.261 301.249ZM270.878 300.418C270.145 300.504 269.481 300.404 268.886 300.119C268.295 299.834 267.808 299.395 267.425 298.803C267.045 298.211 266.806 297.495 266.709 296.656C266.61 295.809 266.678 295.052 266.911 294.385C267.148 293.718 267.521 293.178 268.031 292.764C268.544 292.351 269.168 292.101 269.902 292.016C270.635 291.931 271.297 292.031 271.888 292.316C272.483 292.601 272.97 293.041 273.35 293.637C273.734 294.232 273.975 294.953 274.074 295.8C274.171 296.639 274.101 297.391 273.864 298.055C273.63 298.718 273.257 299.257 272.743 299.671C272.234 300.084 271.612 300.333 270.878 300.418ZM270.748 299.297C271.305 299.232 271.747 299.036 272.074 298.708C272.4 298.381 272.623 297.974 272.742 297.488C272.86 297.002 272.888 296.488 272.825 295.945C272.762 295.402 272.617 294.905 272.389 294.456C272.162 294.007 271.851 293.659 271.458 293.412C271.065 293.164 270.589 293.073 270.032 293.138C269.475 293.203 269.033 293.4 268.707 293.732C268.38 294.063 268.158 294.473 268.04 294.962C267.922 295.451 267.894 295.967 267.957 296.511C268.02 297.054 268.165 297.548 268.392 297.994C268.619 298.439 268.929 298.784 269.322 299.028C269.715 299.272 270.191 299.361 270.748 299.297ZM279.874 299.372C279.091 299.463 278.396 299.369 277.788 299.09C277.183 298.806 276.69 298.37 276.311 297.781C275.935 297.189 275.698 296.476 275.601 295.644C275.505 294.811 275.571 294.06 275.8 293.39C276.033 292.715 276.402 292.168 276.907 291.749C277.416 291.325 278.037 291.07 278.771 290.985C279.194 290.936 279.62 290.958 280.049 291.051C280.478 291.144 280.881 291.33 281.256 291.608C281.631 291.882 281.95 292.267 282.211 292.762C282.472 293.257 282.647 293.884 282.735 294.643L282.797 295.172L276.532 295.9L276.407 294.821L281.401 294.24C281.348 293.781 281.209 293.383 280.983 293.044C280.762 292.706 280.471 292.451 280.112 292.282C279.756 292.113 279.353 292.054 278.901 292.107C278.404 292.165 277.988 292.338 277.653 292.627C277.322 292.912 277.082 293.262 276.933 293.676C276.785 294.09 276.736 294.521 276.789 294.969L276.872 295.689C276.944 296.303 277.11 296.811 277.371 297.213C277.635 297.611 277.971 297.899 278.378 298.077C278.784 298.252 279.24 298.309 279.744 298.251C280.072 298.213 280.363 298.132 280.617 298.01C280.874 297.883 281.089 297.715 281.261 297.506C281.433 297.293 281.555 297.039 281.628 296.745L282.874 296.943C282.794 297.367 282.623 297.752 282.359 298.097C282.095 298.439 281.753 298.722 281.332 298.946C280.91 299.166 280.425 299.308 279.874 299.372ZM290.143 291.615L289.058 292.063C288.966 291.884 288.841 291.714 288.683 291.554C288.528 291.39 288.327 291.263 288.081 291.174C287.834 291.084 287.529 291.061 287.166 291.103C286.669 291.161 286.268 291.324 285.963 291.591C285.661 291.855 285.53 292.162 285.571 292.511C285.607 292.821 285.748 293.054 285.995 293.207C286.242 293.361 286.612 293.47 287.105 293.534L288.346 293.69C289.093 293.782 289.666 293.989 290.065 294.311C290.463 294.629 290.695 295.072 290.761 295.64C290.815 296.106 290.729 296.538 290.504 296.936C290.282 297.333 289.945 297.665 289.494 297.932C289.042 298.199 288.501 298.37 287.869 298.443C287.04 298.539 286.333 298.439 285.748 298.143C285.163 297.846 284.758 297.36 284.533 296.686L285.684 296.252C285.848 296.676 286.099 296.979 286.439 297.161C286.781 297.343 287.209 297.404 287.72 297.345C288.302 297.277 288.75 297.1 289.063 296.813C289.38 296.523 289.518 296.203 289.477 295.854C289.444 295.571 289.318 295.347 289.099 295.179C288.878 295.008 288.558 294.899 288.138 294.851L286.747 294.691C285.982 294.601 285.403 294.391 285.011 294.062C284.622 293.728 284.395 293.281 284.33 292.72C284.276 292.261 284.358 291.841 284.574 291.458C284.794 291.075 285.117 290.757 285.541 290.504C285.969 290.25 286.469 290.09 287.041 290.024C287.845 289.93 288.497 290.033 288.996 290.332C289.499 290.632 289.882 291.059 290.143 291.615ZM294.594 295.988L294.576 296.569C294.563 296.978 294.521 297.419 294.451 297.892C294.384 298.365 294.309 298.812 294.226 299.232C294.142 299.653 294.072 299.988 294.016 300.238L293.063 300.349C293.083 300.118 293.108 299.813 293.139 299.434C293.17 299.055 293.196 298.632 293.217 298.165C293.242 297.701 293.251 297.228 293.245 296.746L293.24 296.146L294.594 295.988ZM97.2029 343.592L95.9431 332.756L99.7315 332.315C100.486 332.228 101.124 332.286 101.645 332.49C102.165 332.69 102.571 332.995 102.861 333.405C103.152 333.811 103.327 334.278 103.389 334.807C103.443 335.273 103.405 335.667 103.274 335.99C103.147 336.312 102.96 336.577 102.712 336.784C102.468 336.992 102.196 337.156 101.896 337.276L101.908 337.382C102.242 337.365 102.589 337.442 102.948 337.615C103.308 337.788 103.624 338.059 103.896 338.427C104.167 338.796 104.336 339.266 104.403 339.838C104.466 340.381 104.399 340.884 104.203 341.346C104.006 341.809 103.656 342.198 103.153 342.514C102.65 342.83 101.972 343.038 101.118 343.137L97.2029 343.592ZM98.3797 342.275L100.983 341.973C101.84 341.873 102.429 341.637 102.751 341.263C103.075 340.886 103.209 340.459 103.154 339.983C103.111 339.616 102.979 339.288 102.756 339C102.532 338.707 102.237 338.488 101.869 338.341C101.501 338.191 101.081 338.143 100.608 338.198L97.9418 338.508L98.3797 342.275ZM97.8089 337.365L100.243 337.082C100.638 337.036 100.985 336.917 101.285 336.725C101.587 336.533 101.816 336.285 101.97 335.981C102.128 335.676 102.185 335.334 102.14 334.953C102.085 334.476 101.872 334.092 101.502 333.799C101.131 333.502 100.586 333.396 99.8669 333.479L97.3906 333.767L97.8089 337.365ZM106.724 342.485L105.779 334.358L106.986 334.218L107.128 335.445L107.213 335.435C107.314 335.016 107.545 334.659 107.904 334.363C108.262 334.068 108.685 333.891 109.172 333.835C109.264 333.824 109.379 333.813 109.517 333.8C109.655 333.788 109.759 333.781 109.831 333.78L109.978 335.05C109.935 335.044 109.836 335.039 109.682 335.036C109.531 335.028 109.372 335.034 109.206 335.054C108.811 335.099 108.468 335.223 108.177 335.425C107.889 335.623 107.672 335.877 107.526 336.187C107.383 336.494 107.332 336.83 107.375 337.197L107.973 342.34L106.724 342.485ZM115.448 341.643C114.665 341.734 113.969 341.639 113.361 341.36C112.756 341.076 112.264 340.64 111.884 340.051C111.508 339.459 111.271 338.746 111.175 337.914C111.078 337.081 111.144 336.33 111.374 335.66C111.606 334.985 111.975 334.439 112.481 334.019C112.989 333.595 113.61 333.34 114.344 333.255C114.767 333.206 115.193 333.228 115.622 333.321C116.052 333.414 116.454 333.6 116.829 333.878C117.205 334.152 117.523 334.537 117.784 335.032C118.045 335.528 118.22 336.154 118.308 336.913L118.37 337.442L112.105 338.17L111.98 337.091L116.975 336.51C116.921 336.051 116.782 335.653 116.557 335.314C116.335 334.976 116.044 334.722 115.685 334.552C115.329 334.383 114.926 334.324 114.474 334.377C113.977 334.435 113.561 334.608 113.226 334.897C112.895 335.182 112.655 335.532 112.506 335.946C112.358 336.36 112.31 336.791 112.362 337.239L112.445 337.959C112.517 338.573 112.683 339.081 112.944 339.483C113.209 339.881 113.544 340.169 113.951 340.347C114.357 340.522 114.813 340.579 115.317 340.521C115.645 340.483 115.936 340.402 116.19 340.28C116.447 340.154 116.662 339.986 116.834 339.776C117.006 339.563 117.128 339.309 117.201 339.015L118.447 339.213C118.368 339.637 118.196 340.022 117.932 340.367C117.668 340.709 117.326 340.992 116.905 341.216C116.484 341.436 115.998 341.579 115.448 341.643ZM123.106 340.774C122.591 340.834 122.113 340.791 121.67 340.646C121.228 340.497 120.861 340.252 120.571 339.91C120.281 339.565 120.105 339.128 120.043 338.599C119.989 338.133 120.037 337.745 120.187 337.434C120.336 337.12 120.555 336.862 120.842 336.661C121.13 336.46 121.454 336.297 121.815 336.172C122.179 336.044 122.547 335.934 122.919 335.84C123.405 335.72 123.8 335.625 124.103 335.558C124.41 335.487 124.629 335.402 124.76 335.305C124.895 335.207 124.951 335.057 124.928 334.856L124.923 334.814C124.862 334.292 124.672 333.903 124.353 333.647C124.037 333.39 123.592 333.295 123.017 333.362C122.421 333.432 121.969 333.616 121.66 333.917C121.352 334.217 121.146 334.524 121.043 334.836L119.809 334.55C119.963 334.032 120.2 333.615 120.521 333.298C120.845 332.978 121.211 332.739 121.618 332.581C122.028 332.419 122.437 332.314 122.847 332.267C123.108 332.236 123.411 332.233 123.757 332.257C124.106 332.277 124.451 332.364 124.79 332.518C125.133 332.671 125.433 332.928 125.689 333.287C125.946 333.647 126.112 334.15 126.187 334.796L126.809 340.15L125.56 340.295L125.432 339.195L125.369 339.202C125.305 339.388 125.186 339.593 125.011 339.817C124.837 340.042 124.594 340.243 124.283 340.422C123.971 340.602 123.579 340.719 123.106 340.774ZM123.166 339.63C123.66 339.572 124.065 339.427 124.381 339.194C124.701 338.96 124.929 338.679 125.066 338.352C125.207 338.025 125.258 337.692 125.218 337.353L125.085 336.211C125.04 336.28 124.93 336.352 124.757 336.426C124.586 336.496 124.386 336.564 124.158 336.629C123.933 336.691 123.713 336.749 123.497 336.803C123.285 336.852 123.113 336.894 122.981 336.927C122.661 337.007 122.366 337.111 122.095 337.239C121.827 337.363 121.617 337.529 121.466 337.736C121.318 337.939 121.263 338.199 121.299 338.517C121.35 338.951 121.549 339.26 121.895 339.445C122.245 339.626 122.669 339.688 123.166 339.63ZM129.908 336.787L129.707 335.244L129.961 335.215L133.096 331.182L134.641 331.003L131.298 335.274L131.192 335.286L129.908 336.787ZM129.088 339.885L127.828 329.049L129.077 328.904L130.337 339.74L129.088 339.885ZM134.252 339.285L130.61 335.633L131.398 334.662L135.84 339.1L134.252 339.285ZM140.557 333.254L140.693 334.418L135.952 334.969L135.817 333.805L140.557 333.254ZM146.875 337.817L143.531 338.206L142.272 327.37L145.764 326.964C146.815 326.842 147.74 326.954 148.538 327.301C149.336 327.645 149.981 328.197 150.473 328.958C150.966 329.716 151.277 330.656 151.407 331.778C151.538 332.907 151.45 333.902 151.143 334.763C150.835 335.621 150.322 336.314 149.604 336.841C148.886 337.364 147.976 337.689 146.875 337.817ZM144.708 336.89L146.655 336.663C147.551 336.559 148.274 336.3 148.823 335.886C149.372 335.472 149.754 334.928 149.969 334.256C150.184 333.584 150.24 332.807 150.137 331.925C150.036 331.051 149.805 330.314 149.446 329.716C149.087 329.114 148.603 328.677 147.996 328.404C147.388 328.128 146.661 328.039 145.815 328.138L143.719 328.381L144.708 336.89ZM157.393 336.766C156.659 336.852 155.995 336.752 155.4 336.467C154.81 336.182 154.322 335.743 153.939 335.151C153.559 334.559 153.32 333.843 153.223 333.004C153.124 332.157 153.192 331.4 153.425 330.733C153.662 330.066 154.036 329.526 154.545 329.112C155.059 328.699 155.682 328.449 156.416 328.364C157.15 328.279 157.812 328.379 158.403 328.664C158.997 328.949 159.484 329.389 159.865 329.985C160.248 330.58 160.49 331.301 160.588 332.148C160.686 332.987 160.616 333.739 160.378 334.403C160.144 335.066 159.771 335.605 159.258 336.019C158.748 336.432 158.126 336.681 157.393 336.766ZM157.262 335.645C157.82 335.58 158.261 335.384 158.588 335.056C158.915 334.729 159.137 334.322 159.256 333.836C159.375 333.351 159.402 332.836 159.339 332.293C159.276 331.75 159.131 331.253 158.904 330.804C158.676 330.355 158.366 330.007 157.972 329.76C157.579 329.512 157.104 329.421 156.546 329.486C155.989 329.551 155.547 329.749 155.221 330.08C154.895 330.411 154.673 330.821 154.554 331.31C154.436 331.799 154.408 332.316 154.472 332.859C154.535 333.402 154.68 333.896 154.907 334.342C155.134 334.787 155.444 335.132 155.837 335.376C156.23 335.62 156.705 335.709 157.262 335.645ZM164.526 335.765L161.105 327.926L162.418 327.774L164.898 333.792L164.982 333.782L165.994 327.358L167.328 327.203L169.763 333.205L169.848 333.195L170.883 326.789L172.195 326.637L170.664 335.052L169.437 335.195L166.933 329.158L166.806 329.173L165.754 335.623L164.526 335.765ZM175.471 329.538L176.04 334.427L174.791 334.572L173.846 326.445L175.053 326.305L175.2 327.575L175.306 327.562C175.449 327.127 175.699 326.762 176.058 326.467C176.417 326.168 176.903 325.982 177.517 325.911C178.067 325.847 178.561 325.904 179 326.082C179.439 326.256 179.799 326.557 180.081 326.986C180.363 327.411 180.544 327.969 180.625 328.66L181.225 333.824L179.976 333.969L179.386 328.89C179.312 328.251 179.088 327.773 178.715 327.456C178.342 327.134 177.866 327.007 177.287 327.075C176.889 327.121 176.542 327.249 176.249 327.458C175.958 327.667 175.742 327.948 175.601 328.3C175.46 328.653 175.416 329.065 175.471 329.538ZM188.311 333L186.935 333.16L189.655 321.862L191.009 321.704L196.248 332.078L194.872 332.238L190.573 323.492L190.489 323.502L188.311 333ZM188.327 328.708L193.872 328.064L194.007 329.228L188.462 329.872L188.327 328.708ZM198.447 326.867L199.015 331.756L197.766 331.901L196.821 323.774L198.028 323.634L198.175 324.904L198.281 324.891C198.424 324.456 198.674 324.091 199.033 323.796C199.392 323.497 199.878 323.311 200.492 323.24C201.042 323.176 201.537 323.233 201.976 323.411C202.414 323.585 202.774 323.886 203.057 324.315C203.338 324.74 203.519 325.298 203.6 325.989L204.2 331.153L202.952 331.298L202.361 326.219C202.287 325.58 202.063 325.102 201.69 324.785C201.317 324.463 200.841 324.336 200.262 324.404C199.864 324.45 199.518 324.578 199.224 324.787C198.933 324.996 198.718 325.277 198.576 325.629C198.435 325.982 198.392 326.394 198.447 326.867ZM209.57 330.7C208.893 330.779 208.275 330.678 207.717 330.396C207.158 330.11 206.696 329.671 206.33 329.077C205.964 328.479 205.731 327.75 205.631 326.89C205.532 326.036 205.592 325.278 205.812 324.616C206.032 323.955 206.383 323.422 206.865 323.019C207.347 322.617 207.931 322.375 208.615 322.296C209.144 322.234 209.572 322.274 209.9 322.415C210.23 322.551 210.489 322.721 210.677 322.925C210.869 323.124 211.018 323.289 211.126 323.419L211.232 323.407L210.767 319.407L212.016 319.262L213.276 330.098L212.069 330.238L211.924 328.99L211.776 329.007C211.702 329.166 211.593 329.368 211.45 329.613C211.306 329.855 211.088 330.083 210.794 330.295C210.5 330.505 210.093 330.64 209.57 330.7ZM209.609 329.559C210.11 329.501 210.518 329.321 210.834 329.02C211.149 328.715 211.369 328.32 211.495 327.833C211.62 327.343 211.647 326.791 211.576 326.177C211.505 325.571 211.355 325.05 211.126 324.615C210.896 324.177 210.594 323.851 210.219 323.638C209.843 323.42 209.401 323.341 208.893 323.4C208.364 323.462 207.939 323.649 207.618 323.961C207.3 324.27 207.08 324.666 206.957 325.148C206.837 325.627 206.811 326.152 206.877 326.723C206.945 327.302 207.094 327.817 207.325 328.269C207.56 328.718 207.868 329.061 208.249 329.299C208.634 329.533 209.087 329.62 209.609 329.559ZM218.379 319.702L218.244 318.538L226.371 317.593L226.506 318.757L223.099 319.153L224.223 328.825L222.911 328.978L221.786 319.306L218.379 319.702ZM228.642 328.312L227.698 320.185L228.904 320.044L229.047 321.272L229.131 321.262C229.233 320.843 229.463 320.485 229.822 320.19C230.181 319.894 230.603 319.718 231.09 319.661C231.182 319.651 231.297 319.639 231.435 319.627C231.573 319.614 231.677 319.608 231.749 319.606L231.896 320.876C231.853 320.871 231.754 320.866 231.6 320.862C231.449 320.855 231.29 320.861 231.125 320.88C230.73 320.926 230.386 321.05 230.095 321.252C229.807 321.45 229.59 321.704 229.444 322.014C229.301 322.32 229.25 322.657 229.293 323.024L229.891 328.167L228.642 328.312ZM236.6 327.58C236.085 327.64 235.606 327.597 235.164 327.452C234.721 327.303 234.355 327.058 234.065 326.716C233.774 326.371 233.598 325.934 233.537 325.405C233.483 324.939 233.531 324.551 233.68 324.24C233.83 323.926 234.048 323.668 234.336 323.467C234.623 323.265 234.948 323.103 235.309 322.978C235.673 322.85 236.041 322.74 236.412 322.646C236.899 322.526 237.294 322.431 237.597 322.364C237.903 322.293 238.122 322.208 238.254 322.111C238.389 322.013 238.445 321.863 238.421 321.662L238.417 321.62C238.356 321.098 238.166 320.709 237.847 320.453C237.531 320.196 237.085 320.101 236.51 320.168C235.914 320.238 235.462 320.422 235.154 320.723C234.845 321.023 234.64 321.33 234.537 321.642L233.302 321.356C233.456 320.838 233.694 320.421 234.015 320.104C234.339 319.784 234.704 319.545 235.111 319.387C235.521 319.225 235.931 319.12 236.34 319.073C236.601 319.042 236.905 319.039 237.251 319.063C237.6 319.083 237.944 319.17 238.284 319.324C238.627 319.477 238.927 319.734 239.183 320.093C239.439 320.453 239.605 320.956 239.68 321.602L240.303 326.956L239.054 327.101L238.926 326.001L238.862 326.008C238.798 326.194 238.679 326.399 238.505 326.623C238.331 326.848 238.088 327.049 237.776 327.228C237.465 327.408 237.072 327.525 236.6 327.58ZM236.66 326.436C237.154 326.378 237.559 326.233 237.875 326C238.194 325.766 238.423 325.485 238.56 325.158C238.701 324.831 238.751 324.498 238.712 324.159L238.579 323.017C238.533 323.086 238.424 323.158 238.25 323.232C238.079 323.302 237.88 323.37 237.652 323.435C237.426 323.497 237.206 323.555 236.991 323.609C236.778 323.658 236.606 323.7 236.474 323.733C236.155 323.813 235.859 323.917 235.588 324.045C235.32 324.169 235.111 324.335 234.96 324.542C234.812 324.745 234.756 325.005 234.793 325.323C234.843 325.757 235.042 326.066 235.389 326.251C235.739 326.432 236.162 326.494 236.66 326.436ZM243.262 321.657L243.83 326.546L242.582 326.691L241.637 318.564L242.843 318.424L242.991 319.694L243.097 319.681C243.239 319.247 243.49 318.881 243.849 318.586C244.207 318.287 244.693 318.102 245.307 318.03C245.857 317.966 246.352 318.023 246.791 318.201C247.229 318.375 247.59 318.676 247.872 319.105C248.154 319.53 248.335 320.088 248.415 320.779L249.016 325.943L247.767 326.088L247.176 321.009C247.102 320.37 246.879 319.892 246.506 319.575C246.132 319.253 245.656 319.126 245.078 319.194C244.679 319.24 244.333 319.368 244.039 319.577C243.749 319.786 243.533 320.067 243.392 320.419C243.25 320.772 243.207 321.184 243.262 321.657ZM256.321 318.702L255.236 319.15C255.144 318.971 255.019 318.801 254.86 318.641C254.706 318.477 254.505 318.35 254.259 318.26C254.012 318.171 253.707 318.148 253.344 318.19C252.847 318.248 252.446 318.41 252.141 318.678C251.839 318.942 251.708 319.249 251.749 319.598C251.785 319.908 251.926 320.14 252.173 320.294C252.42 320.448 252.79 320.557 253.283 320.621L254.524 320.777C255.271 320.869 255.844 321.076 256.243 321.397C256.641 321.716 256.873 322.159 256.939 322.727C256.993 323.193 256.907 323.624 256.682 324.022C256.46 324.42 256.123 324.752 255.672 325.019C255.22 325.286 254.679 325.456 254.047 325.53C253.218 325.626 252.511 325.526 251.926 325.229C251.341 324.933 250.936 324.447 250.711 323.773L251.862 323.339C252.026 323.763 252.277 324.066 252.617 324.248C252.959 324.43 253.387 324.491 253.898 324.432C254.48 324.364 254.928 324.187 255.241 323.9C255.558 323.61 255.696 323.29 255.655 322.94C255.622 322.658 255.496 322.433 255.277 322.266C255.056 322.095 254.736 321.986 254.316 321.938L252.925 321.778C252.16 321.688 251.581 321.478 251.189 321.148C250.8 320.815 250.573 320.367 250.508 319.807C250.454 319.348 250.536 318.927 250.752 318.545C250.972 318.162 251.295 317.844 251.719 317.59C252.147 317.337 252.647 317.177 253.219 317.11C254.023 317.017 254.675 317.12 255.174 317.419C255.677 317.718 256.06 318.146 256.321 318.702ZM259.071 313.792L260.331 324.628L259.082 324.773L257.822 313.937L259.071 313.792ZM265.031 324.274C264.516 324.334 264.038 324.292 263.595 324.146C263.153 323.998 262.786 323.752 262.496 323.411C262.206 323.066 262.03 322.628 261.968 322.099C261.914 321.634 261.962 321.246 262.112 320.935C262.261 320.621 262.48 320.363 262.767 320.162C263.055 319.96 263.379 319.797 263.74 319.673C264.104 319.545 264.472 319.434 264.844 319.341C265.33 319.22 265.725 319.126 266.028 319.059C266.335 318.987 266.554 318.903 266.685 318.805C266.821 318.707 266.876 318.558 266.853 318.357L266.848 318.314C266.787 317.792 266.597 317.403 266.278 317.147C265.962 316.891 265.517 316.796 264.942 316.863C264.346 316.932 263.894 317.117 263.585 317.417C263.277 317.718 263.071 318.024 262.968 318.337L261.734 318.051C261.888 317.533 262.125 317.115 262.446 316.799C262.77 316.479 263.136 316.24 263.543 316.082C263.953 315.92 264.362 315.815 264.772 315.767C265.033 315.737 265.336 315.734 265.682 315.758C266.031 315.778 266.376 315.865 266.715 316.019C267.058 316.172 267.358 316.428 267.615 316.788C267.871 317.148 268.037 317.651 268.112 318.296L268.734 323.651L267.485 323.796L267.357 322.695L267.294 322.703C267.23 322.889 267.111 323.094 266.936 323.318C266.762 323.542 266.519 323.744 266.208 323.923C265.896 324.102 265.504 324.219 265.031 324.274ZM265.091 323.131C265.585 323.073 265.99 322.928 266.306 322.694C266.626 322.461 266.854 322.18 266.991 321.853C267.132 321.526 267.183 321.193 267.143 320.854L267.011 319.711C266.965 319.781 266.855 319.853 266.682 319.927C266.511 319.996 266.312 320.064 266.083 320.13C265.858 320.192 265.638 320.25 265.422 320.304C265.21 320.353 265.038 320.395 264.906 320.428C264.586 320.508 264.291 320.612 264.02 320.74C263.752 320.864 263.542 321.03 263.391 321.237C263.243 321.44 263.188 321.7 263.225 322.018C263.275 322.451 263.474 322.761 263.82 322.946C264.17 323.127 264.594 323.188 265.091 323.131ZM273.603 314.848L273.726 315.906L269.514 316.396L269.391 315.338L273.603 314.848ZM270.392 313.248L271.641 313.103L272.542 320.849C272.583 321.201 272.664 321.46 272.787 321.625C272.913 321.785 273.061 321.886 273.23 321.927C273.402 321.964 273.58 321.972 273.764 321.951C273.901 321.935 274.013 321.915 274.1 321.89C274.186 321.862 274.255 321.84 274.306 321.823L274.691 322.915C274.61 322.957 274.495 323.003 274.347 323.052C274.2 323.105 274.01 323.145 273.777 323.172C273.424 323.213 273.07 323.177 272.713 323.065C272.361 322.952 272.055 322.754 271.797 322.469C271.542 322.184 271.387 321.805 271.332 321.332L270.392 313.248ZM279.766 322.54C278.983 322.631 278.287 322.537 277.679 322.257C277.074 321.973 276.582 321.537 276.202 320.949C275.826 320.356 275.589 319.643 275.493 318.811C275.396 317.979 275.462 317.227 275.692 316.557C275.924 315.883 276.293 315.336 276.799 314.916C277.307 314.492 277.928 314.238 278.662 314.153C279.085 314.103 279.511 314.125 279.941 314.218C280.37 314.312 280.772 314.497 281.148 314.775C281.523 315.05 281.841 315.435 282.102 315.93C282.364 316.425 282.538 317.052 282.627 317.81L282.688 318.339L276.423 319.067L276.298 317.988L281.293 317.407C281.239 316.949 281.1 316.55 280.875 316.212C280.653 315.873 280.363 315.619 280.003 315.45C279.648 315.28 279.244 315.222 278.792 315.274C278.295 315.332 277.879 315.506 277.544 315.795C277.213 316.08 276.973 316.43 276.824 316.844C276.676 317.258 276.628 317.689 276.68 318.137L276.764 318.856C276.835 319.47 277.001 319.978 277.262 320.38C277.527 320.779 277.862 321.067 278.269 321.245C278.676 321.419 279.131 321.477 279.635 321.418C279.963 321.38 280.254 321.3 280.508 321.177C280.765 321.051 280.98 320.883 281.152 320.674C281.324 320.46 281.447 320.207 281.52 319.912L282.765 320.111C282.686 320.535 282.514 320.919 282.251 321.264C281.986 321.606 281.644 321.889 281.223 322.113C280.802 322.334 280.316 322.476 279.766 322.54ZM287.18 310.524L288.682 310.349L292.276 315.058L292.403 315.043L294.82 309.636L296.323 309.461L293.148 316.287L293.667 320.752L292.355 320.905L291.836 316.439L287.18 310.524ZM301.282 320.039C300.548 320.124 299.884 320.024 299.29 319.739C298.699 319.454 298.212 319.016 297.828 318.424C297.449 317.832 297.21 317.116 297.112 316.276C297.014 315.43 297.081 314.673 297.315 314.006C297.552 313.338 297.925 312.798 298.435 312.385C298.948 311.971 299.571 311.722 300.305 311.636C301.039 311.551 301.701 311.651 302.292 311.936C302.886 312.221 303.374 312.661 303.754 313.257C304.138 313.853 304.379 314.573 304.477 315.42C304.575 316.26 304.505 317.011 304.268 317.675C304.034 318.339 303.66 318.877 303.147 319.291C302.637 319.704 302.016 319.953 301.282 320.039ZM301.152 318.917C301.709 318.852 302.151 318.656 302.477 318.328C302.804 318.001 303.027 317.594 303.145 317.109C303.264 316.623 303.292 316.108 303.229 315.565C303.166 315.022 303.02 314.526 302.793 314.077C302.565 313.628 302.255 313.28 301.862 313.032C301.468 312.785 300.993 312.693 300.436 312.758C299.878 312.823 299.436 313.021 299.11 313.352C298.784 313.683 298.562 314.093 298.444 314.582C298.325 315.072 298.298 315.588 298.361 316.131C298.424 316.674 298.569 317.169 298.796 317.614C299.023 318.06 299.333 318.404 299.726 318.648C300.119 318.892 300.594 318.982 301.152 318.917ZM311.586 315.301L311.028 310.497L312.277 310.352L313.221 318.479L311.973 318.624L311.813 317.249L311.728 317.258C311.586 317.693 311.33 318.079 310.962 318.415C310.593 318.747 310.101 318.949 309.488 319.02C308.98 319.079 308.515 319.021 308.094 318.844C307.673 318.665 307.323 318.362 307.045 317.937C306.766 317.508 306.587 316.948 306.506 316.257L305.906 311.093L307.155 310.947L307.745 316.027C307.814 316.619 308.035 317.073 308.408 317.387C308.784 317.701 309.231 317.828 309.749 317.767C310.06 317.731 310.366 317.615 310.669 317.419C310.975 317.223 311.218 316.948 311.399 316.594C311.583 316.24 311.645 315.809 311.586 315.301ZM315.508 318.213L314.564 310.086L315.77 309.946L315.913 311.173L315.997 311.164C316.099 310.744 316.329 310.387 316.688 310.091C317.047 309.796 317.47 309.62 317.956 309.563C318.048 309.552 318.163 309.541 318.301 309.528C318.439 309.516 318.544 309.509 318.615 309.508L318.763 310.778C318.719 310.772 318.62 310.767 318.466 310.764C318.315 310.756 318.157 310.762 317.991 310.782C317.596 310.828 317.253 310.951 316.961 311.153C316.673 311.351 316.456 311.605 316.31 311.915C316.167 312.222 316.117 312.558 316.159 312.925L316.757 318.068L315.508 318.213ZM125.206 363.491L123.946 352.655L127.607 352.23C128.454 352.131 129.166 352.195 129.742 352.421C130.319 352.644 130.767 352.99 131.086 353.461C131.405 353.931 131.602 354.486 131.676 355.124C131.75 355.763 131.686 356.344 131.482 356.868C131.279 357.392 130.923 357.827 130.416 358.172C129.909 358.513 129.236 358.733 128.396 358.83L125.433 359.175L125.295 357.99L128.216 357.65C128.795 357.583 129.25 357.444 129.583 357.234C129.92 357.023 130.15 356.753 130.272 356.424C130.398 356.092 130.436 355.708 130.385 355.274C130.335 354.841 130.21 354.471 130.01 354.165C129.81 353.859 129.521 353.639 129.144 353.504C128.767 353.366 128.286 353.331 127.7 353.399L125.393 353.667L126.518 363.339L125.206 363.491ZM129.74 358.031L132.973 362.588L131.449 362.766L128.259 358.203L129.74 358.031ZM137.907 362.186C137.124 362.278 136.428 362.183 135.82 361.904C135.215 361.62 134.723 361.184 134.343 360.595C133.967 360.003 133.73 359.29 133.634 358.458C133.537 357.625 133.603 356.874 133.833 356.204C134.065 355.529 134.434 354.982 134.94 354.563C135.448 354.139 136.069 353.884 136.803 353.799C137.226 353.75 137.652 353.772 138.082 353.865C138.511 353.958 138.913 354.144 139.289 354.422C139.664 354.696 139.982 355.081 140.243 355.576C140.505 356.071 140.679 356.698 140.767 357.457L140.829 357.986L134.564 358.714L134.439 357.635L139.434 357.054C139.38 356.595 139.241 356.197 139.016 355.858C138.794 355.52 138.504 355.266 138.144 355.096C137.789 354.927 137.385 354.868 136.933 354.921C136.436 354.979 136.02 355.152 135.685 355.441C135.354 355.726 135.114 356.076 134.965 356.49C134.817 356.904 134.769 357.335 134.821 357.783L134.904 358.503C134.976 359.117 135.142 359.625 135.403 360.027C135.668 360.425 136.003 360.713 136.41 360.891C136.817 361.066 137.272 361.123 137.776 361.065C138.104 361.027 138.395 360.946 138.649 360.824C138.906 360.697 139.121 360.53 139.293 360.32C139.465 360.107 139.587 359.853 139.66 359.559L140.906 359.757C140.827 360.181 140.655 360.566 140.391 360.911C140.127 361.253 139.785 361.536 139.364 361.76C138.943 361.98 138.457 362.123 137.907 362.186ZM149.051 363.808L148.552 359.512L148.446 359.524C148.371 359.683 148.262 359.885 148.119 360.131C147.976 360.372 147.757 360.6 147.464 360.813C147.17 361.022 146.762 361.157 146.24 361.218C145.563 361.296 144.945 361.195 144.387 360.913C143.828 360.628 143.366 360.188 143 359.594C142.634 358.997 142.401 358.268 142.301 357.407C142.202 356.553 142.262 355.796 142.482 355.134C142.701 354.472 143.052 353.939 143.535 353.537C144.017 353.134 144.6 352.893 145.285 352.813C145.814 352.752 146.242 352.791 146.569 352.932C146.9 353.069 147.159 353.239 147.347 353.442C147.538 353.641 147.688 353.806 147.796 353.937L147.944 353.92L147.794 352.629L149.001 352.488L150.3 363.663L149.051 363.808ZM146.279 360.076C146.78 360.018 147.188 359.838 147.503 359.537C147.818 359.232 148.039 358.837 148.164 358.35C148.29 357.86 148.317 357.308 148.245 356.695C148.175 356.088 148.025 355.567 147.796 355.133C147.566 354.695 147.264 354.369 146.888 354.155C146.513 353.938 146.071 353.858 145.563 353.918C145.034 353.979 144.609 354.166 144.288 354.479C143.97 354.787 143.749 355.183 143.627 355.666C143.507 356.144 143.481 356.669 143.547 357.241C143.614 357.819 143.764 358.335 143.995 358.787C144.229 359.235 144.537 359.578 144.919 359.816C145.304 360.05 145.757 360.137 146.279 360.076ZM156.967 356.431L156.408 351.627L157.657 351.482L158.602 359.609L157.353 359.754L157.193 358.379L157.108 358.388C156.966 358.823 156.71 359.209 156.342 359.545C155.973 359.877 155.482 360.079 154.868 360.15C154.36 360.209 153.895 360.151 153.475 359.974C153.053 359.795 152.703 359.492 152.425 359.067C152.147 358.638 151.967 358.078 151.887 357.387L151.286 352.223L152.535 352.077L153.126 357.157C153.194 357.749 153.415 358.203 153.788 358.517C154.164 358.831 154.611 358.958 155.13 358.897C155.44 358.861 155.747 358.745 156.049 358.549C156.355 358.353 156.598 358.078 156.779 357.724C156.963 357.37 157.026 356.939 156.967 356.431ZM160.889 359.343L159.944 351.216L161.193 351.071L162.137 359.198L160.889 359.343ZM160.421 349.788C160.178 349.816 159.958 349.758 159.763 349.612C159.571 349.467 159.461 349.277 159.434 349.045C159.407 348.812 159.47 348.602 159.624 348.416C159.781 348.23 159.981 348.123 160.224 348.095C160.468 348.066 160.686 348.125 160.878 348.271C161.073 348.416 161.185 348.605 161.212 348.838C161.239 349.071 161.174 349.28 161.017 349.466C160.863 349.652 160.665 349.759 160.421 349.788ZM164.424 358.932L163.48 350.805L164.686 350.665L164.829 351.892L164.913 351.882C165.015 351.463 165.245 351.106 165.604 350.81C165.963 350.515 166.386 350.339 166.872 350.282C166.964 350.271 167.079 350.26 167.217 350.247C167.355 350.235 167.459 350.228 167.531 350.227L167.678 351.497C167.635 351.491 167.536 351.486 167.382 351.483C167.231 351.475 167.073 351.481 166.907 351.501C166.512 351.547 166.169 351.67 165.877 351.872C165.589 352.07 165.372 352.324 165.226 352.634C165.083 352.941 165.033 353.277 165.075 353.644L165.673 358.787L164.424 358.932ZM173.148 358.09C172.365 358.181 171.669 358.086 171.061 357.807C170.456 357.523 169.964 357.087 169.584 356.498C169.208 355.906 168.972 355.193 168.875 354.361C168.778 353.528 168.844 352.777 169.074 352.107C169.307 351.433 169.676 350.886 170.181 350.466C170.689 350.042 171.31 349.787 172.044 349.702C172.467 349.653 172.894 349.675 173.323 349.768C173.752 349.861 174.154 350.047 174.53 350.325C174.905 350.599 175.223 350.984 175.484 351.479C175.746 351.975 175.92 352.601 176.009 353.36L176.07 353.889L169.806 354.617L169.68 353.538L174.675 352.957C174.622 352.498 174.482 352.1 174.257 351.762C174.035 351.423 173.745 351.169 173.385 350.999C173.03 350.83 172.626 350.771 172.175 350.824C171.677 350.882 171.261 351.055 170.927 351.344C170.595 351.63 170.355 351.979 170.207 352.393C170.058 352.807 170.01 353.238 170.062 353.686L170.146 354.406C170.217 355.02 170.383 355.528 170.645 355.93C170.909 356.328 171.245 356.616 171.651 356.794C172.058 356.969 172.513 357.027 173.018 356.968C173.346 356.93 173.637 356.849 173.89 356.727C174.147 356.601 174.362 356.433 174.534 356.223C174.706 356.01 174.829 355.756 174.902 355.462L176.147 355.66C176.068 356.084 175.896 356.469 175.633 356.814C175.368 357.156 175.026 357.439 174.605 357.663C174.184 357.883 173.698 358.026 173.148 358.09ZM178.393 357.308L177.448 349.181L178.654 349.041L178.802 350.311L178.908 350.298C179.027 349.845 179.261 349.476 179.61 349.193C179.96 348.905 180.399 348.731 180.928 348.669C181.464 348.607 181.924 348.677 182.309 348.879C182.697 349.077 183.016 349.381 183.268 349.792L183.352 349.782C183.512 349.338 183.785 348.968 184.173 348.673C184.56 348.374 185.044 348.191 185.626 348.123C186.353 348.039 186.974 348.197 187.489 348.598C188.003 348.996 188.316 349.673 188.427 350.629L189.06 356.068L187.811 356.213L187.179 350.774C187.109 350.174 186.895 349.765 186.537 349.546C186.179 349.326 185.778 349.242 185.333 349.294C184.762 349.361 184.339 349.585 184.066 349.967C183.791 350.346 183.685 350.798 183.746 351.323L184.361 356.614L183.091 356.762L182.444 351.196C182.39 350.734 182.197 350.379 181.865 350.132C181.532 349.881 181.129 349.783 180.656 349.838C180.332 349.876 180.038 349.997 179.776 350.203C179.518 350.408 179.32 350.674 179.183 351.001C179.049 351.324 179.005 351.685 179.051 352.084L179.642 357.163L178.393 357.308ZM194.77 355.576C193.987 355.667 193.291 355.573 192.683 355.293C192.078 355.009 191.586 354.573 191.206 353.985C190.83 353.392 190.594 352.679 190.497 351.847C190.4 351.015 190.466 350.263 190.696 349.593C190.929 348.919 191.298 348.372 191.803 347.952C192.311 347.528 192.932 347.274 193.666 347.189C194.089 347.139 194.516 347.161 194.945 347.254C195.374 347.347 195.776 347.533 196.152 347.811C196.527 348.086 196.845 348.471 197.106 348.966C197.368 349.461 197.542 350.088 197.631 350.846L197.692 351.375L191.427 352.103L191.302 351.024L196.297 350.443C196.243 349.985 196.104 349.586 195.879 349.248C195.657 348.909 195.367 348.655 195.007 348.486C194.652 348.316 194.248 348.258 193.796 348.31C193.299 348.368 192.883 348.542 192.549 348.831C192.217 349.116 191.977 349.466 191.829 349.88C191.68 350.294 191.632 350.725 191.684 351.173L191.768 351.892C191.839 352.506 192.005 353.014 192.267 353.416C192.531 353.815 192.866 354.103 193.273 354.281C193.68 354.455 194.135 354.513 194.639 354.454C194.968 354.416 195.258 354.336 195.512 354.213C195.769 354.087 195.984 353.919 196.156 353.709C196.328 353.496 196.451 353.243 196.524 352.948L197.769 353.147C197.69 353.571 197.518 353.955 197.255 354.3C196.99 354.642 196.648 354.925 196.227 355.149C195.806 355.37 195.32 355.512 194.77 355.576ZM200.695 349.761L201.263 354.649L200.015 354.795L199.07 346.668L200.276 346.527L200.424 347.797L200.53 347.785C200.672 347.35 200.923 346.985 201.282 346.689C201.64 346.39 202.127 346.205 202.74 346.134C203.291 346.07 203.785 346.127 204.224 346.304C204.663 346.479 205.023 346.78 205.305 347.208C205.587 347.633 205.768 348.191 205.848 348.883L206.449 354.047L205.2 354.192L204.61 349.112C204.535 348.474 204.312 347.996 203.939 347.678C203.565 347.357 203.089 347.23 202.511 347.297C202.112 347.343 201.766 347.471 201.472 347.681C201.182 347.89 200.966 348.17 200.825 348.523C200.683 348.875 200.64 349.288 200.695 349.761ZM211.32 345.243L211.443 346.302L207.231 346.791L207.108 345.733L211.32 345.243ZM208.11 343.643L209.358 343.498L210.259 351.244C210.3 351.597 210.382 351.856 210.505 352.02C210.63 352.181 210.778 352.281 210.947 352.322C211.12 352.36 211.297 352.368 211.481 352.346C211.618 352.33 211.731 352.31 211.817 352.286C211.903 352.258 211.972 352.235 212.024 352.219L212.408 353.311C212.327 353.353 212.213 353.398 212.065 353.447C211.917 353.5 211.727 353.54 211.494 353.567C211.141 353.608 210.787 353.573 210.431 353.46C210.078 353.348 209.772 353.149 209.514 352.864C209.259 352.579 209.104 352.201 209.05 351.728L208.11 343.643ZM219.021 346.193L217.936 346.641C217.844 346.462 217.719 346.292 217.561 346.132C217.406 345.968 217.205 345.841 216.959 345.752C216.713 345.662 216.408 345.639 216.044 345.681C215.547 345.739 215.146 345.902 214.841 346.169C214.539 346.433 214.409 346.74 214.449 347.089C214.485 347.399 214.627 347.631 214.873 347.785C215.12 347.939 215.49 348.048 215.984 348.112L217.225 348.268C217.972 348.36 218.545 348.567 218.943 348.889C219.341 349.207 219.573 349.65 219.639 350.218C219.693 350.684 219.608 351.115 219.382 351.513C219.16 351.911 218.824 352.243 218.372 352.51C217.921 352.777 217.379 352.948 216.748 353.021C215.919 353.117 215.212 353.017 214.627 352.721C214.042 352.424 213.637 351.938 213.412 351.264L214.562 350.83C214.726 351.254 214.978 351.557 215.317 351.739C215.66 351.921 216.087 351.982 216.599 351.923C217.181 351.855 217.628 351.678 217.942 351.391C218.258 351.101 218.396 350.781 218.356 350.432C218.323 350.149 218.197 349.925 217.977 349.757C217.757 349.586 217.437 349.477 217.016 349.429L215.625 349.269C214.86 349.179 214.282 348.969 213.889 348.64C213.5 348.306 213.273 347.859 213.208 347.298C213.155 346.839 213.236 346.419 213.453 346.036C213.673 345.653 213.995 345.335 214.42 345.081C214.848 344.828 215.348 344.668 215.919 344.602C216.723 344.508 217.375 344.611 217.875 344.91C218.378 345.209 218.76 345.637 219.021 346.193ZM226.142 351.757L224.882 340.921L231.38 340.166L231.515 341.33L226.33 341.933L226.756 345.594L231.454 345.048L231.589 346.212L226.891 346.758L227.454 351.605L226.142 351.757ZM234.707 339.779L235.966 350.615L234.718 350.76L233.458 339.924L234.707 339.779ZM240.667 350.262C240.152 350.322 239.673 350.279 239.231 350.134C238.788 349.985 238.422 349.74 238.132 349.398C237.842 349.053 237.666 348.616 237.604 348.087C237.55 347.621 237.598 347.233 237.748 346.922C237.897 346.608 238.116 346.35 238.403 346.149C238.691 345.948 239.015 345.785 239.376 345.661C239.74 345.532 240.108 345.422 240.48 345.328C240.966 345.208 241.361 345.113 241.664 345.046C241.97 344.975 242.189 344.89 242.321 344.793C242.456 344.695 242.512 344.545 242.489 344.344L242.484 344.302C242.423 343.78 242.233 343.391 241.914 343.135C241.598 342.878 241.153 342.783 240.578 342.85C239.982 342.92 239.529 343.104 239.221 343.405C238.913 343.705 238.707 344.012 238.604 344.324L237.37 344.038C237.524 343.52 237.761 343.103 238.082 342.786C238.406 342.466 238.771 342.227 239.178 342.069C239.589 341.907 239.998 341.802 240.407 341.755C240.668 341.724 240.972 341.721 241.318 341.745C241.667 341.766 242.011 341.852 242.351 342.006C242.694 342.159 242.994 342.416 243.25 342.776C243.507 343.135 243.672 343.638 243.747 344.284L244.37 349.638L243.121 349.783L242.993 348.683L242.93 348.69C242.866 348.876 242.746 349.082 242.572 349.306C242.398 349.53 242.155 349.731 241.844 349.91C241.532 350.09 241.14 350.207 240.667 350.262ZM240.727 349.118C241.221 349.06 241.626 348.915 241.942 348.682C242.262 348.448 242.49 348.168 242.627 347.841C242.768 347.513 242.819 347.18 242.779 346.842L242.646 345.699C242.601 345.768 242.491 345.84 242.317 345.914C242.147 345.984 241.947 346.052 241.719 346.117C241.494 346.179 241.274 346.237 241.058 346.291C240.846 346.341 240.674 346.382 240.542 346.415C240.222 346.495 239.927 346.599 239.656 346.727C239.388 346.851 239.178 347.017 239.027 347.224C238.879 347.427 238.823 347.687 238.86 348.005C238.911 348.439 239.109 348.748 239.456 348.933C239.806 349.114 240.23 349.176 240.727 349.118ZM248.49 349.159L245.069 341.32L246.381 341.167L248.861 347.185L248.946 347.176L249.958 340.752L251.292 340.597L253.727 346.598L253.811 346.589L254.847 340.183L256.159 340.031L254.628 348.446L253.4 348.588L250.897 342.552L250.77 342.566L249.718 349.016L248.49 349.159ZM258.744 336.985L260.004 347.821L258.755 347.966L257.495 337.13L258.744 336.985ZM265.718 347.328C264.935 347.419 264.239 347.325 263.631 347.045C263.026 346.761 262.534 346.325 262.154 345.737C261.778 345.144 261.541 344.432 261.445 343.599C261.348 342.767 261.414 342.015 261.644 341.345C261.877 340.671 262.246 340.124 262.751 339.704C263.259 339.28 263.88 339.026 264.614 338.941C265.037 338.891 265.464 338.913 265.893 339.006C266.322 339.1 266.724 339.285 267.1 339.563C267.475 339.838 267.793 340.223 268.054 340.718C268.316 341.213 268.49 341.84 268.579 342.598L268.64 343.127L262.375 343.856L262.25 342.776L267.245 342.195C267.191 341.737 267.052 341.338 266.827 341C266.605 340.661 266.315 340.407 265.955 340.238C265.6 340.068 265.196 340.01 264.744 340.062C264.247 340.12 263.831 340.294 263.496 340.583C263.165 340.868 262.925 341.218 262.777 341.632C262.628 342.046 262.58 342.477 262.632 342.925L262.716 343.644C262.787 344.258 262.953 344.766 263.214 345.168C263.479 345.567 263.814 345.855 264.221 346.033C264.628 346.207 265.083 346.265 265.587 346.206C265.915 346.168 266.206 346.088 266.46 345.965C266.717 345.839 266.932 345.671 267.104 345.462C267.276 345.249 267.399 344.995 267.472 344.7L268.717 344.899C268.638 345.323 268.466 345.707 268.203 346.052C267.938 346.394 267.596 346.677 267.175 346.901C266.754 347.122 266.268 347.264 265.718 347.328ZM275.986 339.57L274.901 340.018C274.809 339.84 274.684 339.67 274.526 339.51C274.371 339.345 274.17 339.219 273.924 339.129C273.678 339.04 273.373 339.016 273.009 339.059C272.512 339.116 272.111 339.279 271.806 339.547C271.504 339.811 271.374 340.117 271.414 340.467C271.45 340.777 271.592 341.009 271.838 341.163C272.085 341.316 272.455 341.425 272.949 341.489L274.19 341.646C274.937 341.737 275.51 341.944 275.908 342.266C276.306 342.585 276.538 343.028 276.604 343.596C276.658 344.061 276.573 344.493 276.347 344.891C276.125 345.289 275.789 345.621 275.337 345.888C274.886 346.155 274.344 346.325 273.713 346.399C272.884 346.495 272.177 346.395 271.592 346.098C271.007 345.802 270.602 345.316 270.377 344.641L271.527 344.207C271.691 344.632 271.943 344.935 272.282 345.117C272.625 345.299 273.052 345.36 273.564 345.301C274.146 345.233 274.593 345.056 274.907 344.769C275.223 344.478 275.361 344.158 275.321 343.809C275.288 343.527 275.162 343.302 274.942 343.135C274.722 342.964 274.402 342.854 273.981 342.807L272.59 342.647C271.825 342.557 271.247 342.347 270.854 342.017C270.465 341.683 270.238 341.236 270.173 340.675C270.12 340.217 270.201 339.796 270.418 339.413C270.638 339.03 270.96 338.712 271.385 338.459C271.813 338.206 272.313 338.046 272.884 337.979C273.688 337.886 274.34 337.989 274.84 338.288C275.343 338.587 275.725 339.015 275.986 339.57ZM283.771 338.666L282.686 339.113C282.594 338.935 282.468 338.765 282.31 338.605C282.155 338.44 281.955 338.314 281.708 338.224C281.462 338.135 281.157 338.111 280.794 338.154C280.297 338.211 279.895 338.374 279.591 338.642C279.289 338.906 279.158 339.212 279.199 339.562C279.235 339.872 279.376 340.104 279.623 340.258C279.87 340.411 280.24 340.52 280.733 340.584L281.974 340.741C282.721 340.832 283.294 341.039 283.693 341.361C284.091 341.68 284.323 342.123 284.389 342.691C284.443 343.156 284.357 343.588 284.132 343.986C283.91 344.384 283.573 344.716 283.122 344.983C282.67 345.25 282.129 345.42 281.497 345.494C280.668 345.59 279.961 345.49 279.376 345.193C278.791 344.897 278.386 344.411 278.161 343.736L279.312 343.302C279.476 343.727 279.727 344.03 280.066 344.212C280.409 344.394 280.837 344.455 281.348 344.396C281.93 344.328 282.378 344.151 282.691 343.864C283.008 343.573 283.146 343.253 283.105 342.904C283.072 342.622 282.946 342.397 282.726 342.23C282.506 342.059 282.186 341.949 281.766 341.902L280.375 341.742C279.61 341.652 279.031 341.442 278.639 341.112C278.25 340.778 278.023 340.331 277.957 339.77C277.904 339.312 277.986 338.891 278.202 338.508C278.422 338.125 278.745 337.807 279.169 337.554C279.597 337.301 280.097 337.141 280.668 337.074C281.473 336.981 282.125 337.084 282.624 337.383C283.127 337.682 283.509 338.11 283.771 338.666ZM286.521 333.755L287.78 344.592L286.532 344.737L285.272 333.901L286.521 333.755ZM291.226 347.28C291.014 347.304 290.824 347.309 290.654 347.293C290.484 347.28 290.366 347.262 290.299 347.237L290.488 346.1C290.801 346.142 291.072 346.139 291.302 346.091C291.533 346.043 291.727 345.915 291.885 345.707C292.047 345.502 292.18 345.185 292.284 344.754L292.443 344.092L288.488 336.272L289.842 336.115L292.839 342.33L292.923 342.321L294.414 335.583L295.768 335.426L293.401 345.139C293.295 345.577 293.143 345.947 292.946 346.249C292.749 346.554 292.506 346.791 292.219 346.961C291.934 347.13 291.603 347.236 291.226 347.28Z" fill="white"/>
<path d="M144.543 146.136L140.049 146.658L140.441 140.121L144.934 139.599L145.118 136.227L140.676 136.743L141.068 130.206L145.51 129.69L146.086 119.781L152.955 118.983L152.38 128.891L156.564 128.405L157.139 118.496L164.009 117.698L163.433 127.606L167.927 127.084L167.535 133.621L163.041 134.143L162.858 137.515L167.3 136.999L166.908 143.536L162.466 144.052L161.89 153.961L155.02 154.76L155.596 144.851L151.412 145.337L150.837 155.246L143.967 156.045L144.543 146.136ZM155.988 138.314L156.172 134.942L151.988 135.428L151.804 138.8L155.988 138.314ZM189.404 151.181C186.305 151.541 183.427 151.108 180.772 149.881C178.147 148.616 175.972 146.722 174.248 144.201C172.555 141.64 171.508 138.638 171.107 135.195C170.711 131.786 171.046 128.658 172.111 125.812C173.206 122.928 174.888 120.586 177.157 118.787C179.456 116.949 182.155 115.85 185.255 115.49C188.319 115.133 191.164 115.588 193.789 116.853C196.445 118.08 198.619 119.974 200.313 122.534C202.041 125.09 203.101 128.055 203.493 131.43C203.89 134.839 203.557 137.984 202.496 140.864C201.435 143.745 199.755 146.104 197.456 147.942C195.187 149.741 192.503 150.821 189.404 151.181ZM188.407 142.607C189.44 142.487 190.324 141.983 191.058 141.095C191.823 140.168 192.364 138.971 192.682 137.503C193 136.035 193.057 134.423 192.853 132.667C192.537 129.947 191.762 127.786 190.529 126.184C189.296 124.582 187.87 123.876 186.251 124.064C184.564 124.26 183.304 125.279 182.471 127.121C181.669 128.924 181.428 131.203 181.748 133.958C182.064 136.678 182.841 138.857 184.078 140.493C185.346 142.09 186.789 142.795 188.407 142.607ZM207.551 140.957L211.89 140.453L209.891 123.253L205.588 124.067L204.807 117.352C206.322 117.176 207.926 116.71 209.618 115.955C211.306 115.166 212.913 114.124 214.437 112.83L219.861 112.199L222.995 139.162L227.334 138.657L228.217 146.25L208.434 148.55L207.551 140.957Z" fill="white"/>
<path d="M127.449 200.963L138.964 199.625L139.385 203.248L133.664 203.914L134.01 206.894L139.231 206.287L139.58 209.29L134.359 209.897L134.728 213.068L140.449 212.403L140.871 216.026L129.356 217.365L127.449 200.963ZM141.331 204.037L146.122 203.48L146.405 205.912C147.112 203.961 148.467 202.869 150.47 202.636C151.996 202.459 153.251 202.869 154.237 203.866C155.237 204.845 155.848 206.296 156.072 208.219L156.765 214.179L151.759 214.761L151.008 208.3C150.928 207.617 150.716 207.11 150.372 206.779C150.043 206.447 149.617 206.311 149.092 206.372C148.711 206.417 148.352 206.587 148.016 206.884C147.678 207.165 147.417 207.55 147.232 208.038C147.063 208.525 147.013 209.063 147.081 209.651L147.73 215.229L142.7 215.814L141.331 204.037ZM163.832 213.55C162.751 213.676 161.733 213.504 160.776 213.036C159.836 212.565 159.057 211.891 158.439 211.012C157.82 210.118 157.448 209.138 157.324 208.073C157.193 206.945 157.335 205.881 157.751 204.883C158.18 203.866 158.808 203.036 159.636 202.392C160.479 201.747 161.409 201.365 162.426 201.246C163.348 201.139 164.149 201.239 164.829 201.547C165.525 201.853 166.12 202.404 166.616 203.2L165.917 197.192L170.861 195.868L172.774 212.318L167.744 212.902L167.486 210.685C166.925 212.377 165.708 213.332 163.832 213.55ZM164.968 209.601C165.635 209.523 166.164 209.22 166.553 208.692C166.959 208.161 167.125 207.578 167.051 206.942L167.04 206.847C166.968 206.227 166.667 205.723 166.139 205.333C165.608 204.928 165.033 204.761 164.413 204.833C163.746 204.911 163.209 205.215 162.804 205.745C162.413 206.258 162.255 206.84 162.33 207.491C162.408 208.159 162.704 208.696 163.219 209.103C163.749 209.509 164.332 209.675 164.968 209.601ZM180.128 198.512L176.719 198.908L176.297 195.285L188.67 193.846L189.091 197.47L185.682 197.866L187.168 210.644L181.613 211.29L180.128 198.512ZM196.905 209.706C195.57 209.861 194.348 209.737 193.238 209.335C192.144 208.93 191.249 208.301 190.554 207.448C189.873 206.577 189.462 205.537 189.322 204.329C189.181 203.121 189.351 202.022 189.832 201.032C190.311 200.026 191.038 199.209 192.012 198.58C193.001 197.95 194.164 197.557 195.499 197.402C196.85 197.245 198.072 197.368 199.166 197.773C200.274 198.159 201.168 198.78 201.847 199.635C202.527 200.491 202.937 201.522 203.077 202.73C203.219 203.954 203.051 205.069 202.572 206.075C202.107 207.063 201.38 207.881 200.392 208.527C199.418 209.156 198.256 209.548 196.905 209.706ZM196.537 206.124C197.189 206.048 197.693 205.748 198.051 205.223C198.423 204.681 198.565 204.028 198.476 203.265C198.387 202.502 198.101 201.907 197.616 201.48C197.146 201.036 196.585 200.851 195.933 200.927C195.281 201.003 194.77 201.312 194.398 201.855C194.04 202.379 193.905 203.023 193.994 203.786C194.083 204.549 194.362 205.153 194.833 205.597C195.317 206.024 195.885 206.2 196.537 206.124ZM207.503 191.657L219.018 190.318L219.439 193.942L213.718 194.607L214.064 197.587L219.285 196.98L219.634 199.984L214.413 200.591L214.782 203.761L220.503 203.096L220.924 206.72L209.41 208.058L207.503 191.657ZM221.385 194.731L226.176 194.173L226.459 196.605C227.166 194.654 228.521 193.563 230.524 193.33C232.05 193.152 233.305 193.562 234.291 194.559C235.291 195.538 235.902 196.989 236.126 198.912L236.819 204.872L231.813 205.454L231.062 198.994C230.982 198.31 230.77 197.803 230.426 197.473C230.097 197.141 229.671 197.005 229.146 197.066C228.765 197.11 228.406 197.281 228.07 197.578C227.732 197.858 227.471 198.243 227.286 198.732C227.117 199.219 227.067 199.756 227.135 200.344L227.784 205.922L222.754 206.507L221.385 194.731ZM243.886 204.244C242.805 204.369 241.787 204.198 240.83 203.729C239.89 203.259 239.111 202.584 238.493 201.706C237.874 200.811 237.502 199.832 237.378 198.767C237.247 197.638 237.389 196.575 237.805 195.576C238.234 194.56 238.862 193.73 239.69 193.086C240.533 192.44 241.463 192.058 242.48 191.94C243.402 191.833 244.203 191.933 244.883 192.24C245.579 192.546 246.174 193.097 246.67 193.893L245.971 187.886L250.915 186.562L252.828 203.011L247.797 203.596L247.54 201.379C246.979 203.071 245.762 204.026 243.886 204.244ZM245.022 200.294C245.689 200.217 246.218 199.914 246.607 199.385C247.013 198.855 247.179 198.272 247.105 197.636L247.094 197.541C247.021 196.921 246.721 196.416 246.193 196.026C245.662 195.621 245.087 195.454 244.467 195.526C243.8 195.604 243.263 195.908 242.858 196.438C242.467 196.951 242.309 197.533 242.384 198.185C242.462 198.852 242.758 199.39 243.273 199.797C243.803 200.202 244.386 200.368 245.022 200.294ZM96.8013 233.722L101.76 233.145L106.786 240.631L109.865 232.203L114.824 231.627L116.731 248.028L111.772 248.605L110.755 239.855L108.392 245.929L106.366 246.164L102.65 240.798L103.667 249.547L98.708 250.123L96.8013 233.722ZM124.187 247.355C123.154 247.475 122.153 247.317 121.184 246.882C120.23 246.429 119.427 245.766 118.778 244.891C118.127 244 117.734 242.974 117.599 241.814C117.466 240.67 117.616 239.606 118.049 238.621C118.481 237.62 119.119 236.805 119.964 236.175C120.809 235.546 121.74 235.172 122.757 235.053C123.583 234.957 124.373 235.099 125.126 235.479C125.894 235.856 126.515 236.485 126.988 237.364L126.666 234.599L131.673 234.017L133.081 246.127L128.074 246.709L127.817 244.492C127.209 246.19 125.999 247.144 124.187 247.355ZM125.298 243.408C125.934 243.334 126.449 243.049 126.842 242.552C127.249 242.037 127.433 241.468 127.393 240.845L127.37 240.654C127.265 240.022 126.948 239.511 126.419 239.122C125.906 238.73 125.348 238.57 124.744 238.64C124.077 238.718 123.532 239.022 123.111 239.555C122.704 240.069 122.538 240.652 122.614 241.304C122.691 241.971 122.995 242.508 123.526 242.913C124.056 243.319 124.647 243.484 125.298 243.408ZM133.649 234.125L138.68 233.541L138.962 235.972C139.219 234.992 139.631 234.243 140.199 233.726C140.781 233.192 141.494 232.875 142.336 232.777L143.479 236.583C141.969 236.758 140.876 237.054 140.2 237.471C139.537 237.871 139.247 238.42 139.328 239.119L140.049 245.317L135.018 245.902L133.649 234.125ZM157.282 243.507C156.217 243.631 155.343 243.596 154.66 243.401C153.991 243.189 153.412 242.781 152.923 242.178C152.434 241.574 151.961 240.687 151.502 239.516L150.226 240.8L150.609 244.09L145.555 244.677L143.752 228.964L148.72 227.638L149.644 235.794L155.189 230.075L158.365 233.499L154.838 236.615C155.169 237.801 155.537 238.612 155.942 239.048C156.363 239.482 156.923 239.659 157.622 239.578C157.909 239.544 158.245 239.457 158.631 239.315L158.609 243.28C158.137 243.384 157.695 243.459 157.282 243.507ZM166.522 242.433C165.203 242.586 163.996 242.461 162.902 242.056C161.822 241.634 160.943 240.996 160.264 240.14C159.582 239.269 159.173 238.246 159.037 237.069C158.896 235.862 159.066 234.755 159.545 233.749C160.024 232.743 160.734 231.927 161.676 231.302C162.619 230.677 163.701 230.293 164.925 230.151C166.101 230.014 167.133 230.16 168.02 230.589C168.922 230.999 169.631 231.626 170.148 232.468C170.662 233.294 170.984 234.255 171.111 235.352C171.144 235.638 171.153 235.846 171.135 235.977L164.092 237.738C164.347 238.272 164.704 238.642 165.163 238.846C165.62 239.034 166.198 239.088 166.897 239.007C167.978 238.881 169.114 238.467 170.304 237.765L171.272 240.89C169.869 241.714 168.286 242.228 166.522 242.433ZM167.247 234.327C166.876 233.355 166.214 232.925 165.261 233.036C164.688 233.102 164.26 233.369 163.977 233.837C163.693 234.305 163.583 234.882 163.646 235.567L167.247 234.327ZM178.338 241.059C176.94 241.222 175.805 240.951 174.934 240.247C174.061 239.527 173.542 238.46 173.378 237.045L172.837 232.397L171.312 232.574L170.968 229.618L172.851 229.399L174.545 224.635L176.952 224.356L177.476 228.861L180.242 228.54L180.585 231.496L177.82 231.817L178.291 235.87C178.337 236.267 178.5 236.562 178.78 236.755C179.061 236.948 179.431 237.018 179.892 236.964C180.321 236.915 180.699 236.774 181.027 236.543L181.606 239.858C181.236 240.143 180.743 240.401 180.125 240.634C179.522 240.849 178.927 240.991 178.338 241.059ZM199.771 238.761C196.783 239.108 194.794 237.938 193.805 235.25L192.924 232.864L191.804 232.994L192.527 239.217L187.306 239.823L185.399 223.422L192.623 222.582C193.989 222.423 195.213 222.49 196.294 222.784C197.39 223.059 198.266 223.529 198.923 224.193C199.58 224.858 199.964 225.667 200.075 226.621C200.199 227.685 200.041 228.614 199.601 229.406C199.176 230.18 198.45 230.861 197.422 231.447C197.604 232.038 197.795 232.572 197.995 233.048C198.256 233.63 198.567 234.02 198.929 234.22C199.29 234.419 199.789 234.482 200.424 234.408C200.647 234.382 200.993 234.31 201.462 234.191L201.914 238.077C201.2 238.45 200.486 238.678 199.771 238.761ZM192.321 229.552C193.498 229.415 194.309 229.192 194.756 228.882C195.218 228.554 195.411 228.073 195.337 227.437C195.275 226.897 195.031 226.531 194.606 226.338C194.179 226.13 193.536 226.076 192.678 226.176L191.033 226.367L191.416 229.657L192.321 229.552ZM209.314 237.458C207.995 237.612 206.788 237.486 205.694 237.082C204.614 236.66 203.735 236.021 203.055 235.166C202.374 234.294 201.965 233.271 201.829 232.095C201.688 230.887 201.857 229.78 202.336 228.774C202.815 227.768 203.526 226.952 204.468 226.327C205.41 225.702 206.493 225.319 207.717 225.176C208.893 225.04 209.925 225.186 210.812 225.614C211.714 226.025 212.423 226.651 212.939 227.493C213.454 228.319 213.775 229.28 213.903 230.377C213.936 230.663 213.944 230.871 213.927 231.002L206.884 232.763C207.139 233.298 207.496 233.667 207.955 233.871C208.411 234.06 208.99 234.113 209.689 234.032C210.77 233.906 211.905 233.492 213.096 232.79L214.064 235.915C212.661 236.739 211.078 237.253 209.314 237.458ZM210.039 229.352C209.668 228.381 209.006 227.95 208.052 228.061C207.48 228.128 207.052 228.395 206.768 228.863C206.484 229.331 206.374 229.907 206.438 230.592L210.039 229.352ZM220.034 236.212C218.365 236.406 216.874 236.33 215.561 235.983L215.78 233.082C216.972 233.363 218.109 233.44 219.189 233.314C219.984 233.222 220.356 232.953 220.304 232.508C220.278 232.286 220.137 232.117 219.882 232.001C219.643 231.884 219.199 231.807 218.551 231.77C217.202 231.669 216.199 231.35 215.54 230.815C214.898 230.277 214.512 229.452 214.383 228.34C214.3 227.077 214.689 226.057 215.549 225.281C216.409 224.504 217.65 224.022 219.271 223.833C220.098 223.737 220.811 223.711 221.412 223.754C222.027 223.779 222.595 223.882 223.115 224.063L222.945 226.958C222.463 226.837 221.939 226.761 221.372 226.73C220.82 226.698 220.362 226.703 219.996 226.745C219.456 226.808 219.089 226.907 218.895 227.042C218.701 227.177 218.616 227.34 218.638 227.531C218.679 227.881 219.105 228.081 219.916 228.132C221.392 228.218 222.524 228.537 223.313 229.09C224.102 229.642 224.561 230.467 224.688 231.563C224.834 232.819 224.504 233.864 223.699 234.699C222.908 235.515 221.687 236.02 220.034 236.212ZM232.619 234.749C231.3 234.902 230.093 234.777 228.999 234.372C227.919 233.95 227.04 233.312 226.36 232.456C225.679 231.585 225.27 230.562 225.133 229.385C224.993 228.178 225.162 227.071 225.641 226.065C226.12 225.059 226.831 224.243 227.773 223.618C228.715 222.993 229.798 222.609 231.022 222.467C232.198 222.33 233.23 222.476 234.117 222.905C235.019 223.315 235.728 223.942 236.244 224.784C236.759 225.61 237.08 226.571 237.208 227.668C237.241 227.954 237.249 228.162 237.232 228.293L230.188 230.054C230.444 230.588 230.801 230.958 231.26 231.162C231.716 231.35 232.294 231.404 232.994 231.323C234.074 231.197 235.21 230.783 236.401 230.081L237.368 233.206C235.966 234.03 234.383 234.544 232.619 234.749ZM233.344 226.643C232.973 225.671 232.311 225.241 231.357 225.352C230.785 225.418 230.357 225.686 230.073 226.153C229.789 226.621 229.679 227.198 229.743 227.883L233.344 226.643ZM244.483 233.37C243.45 233.49 242.449 233.332 241.48 232.897C240.526 232.445 239.724 231.781 239.074 230.906C238.423 230.015 238.03 228.99 237.895 227.829C237.762 226.685 237.912 225.621 238.345 224.636C238.777 223.636 239.415 222.82 240.26 222.191C241.105 221.561 242.036 221.187 243.053 221.069C243.879 220.973 244.669 221.114 245.422 221.494C246.191 221.872 246.811 222.5 247.284 223.379L246.963 220.614L251.969 220.032L253.377 232.143L248.37 232.725L248.113 230.507C247.505 232.205 246.295 233.159 244.483 233.37ZM245.595 229.423C246.23 229.349 246.745 229.064 247.138 228.567C247.545 228.053 247.729 227.484 247.689 226.86L247.666 226.669C247.561 226.037 247.244 225.526 246.715 225.137C246.203 224.745 245.644 224.585 245.04 224.655C244.373 224.733 243.828 225.038 243.407 225.57C243 226.084 242.834 226.667 242.91 227.319C242.987 227.986 243.291 228.523 243.822 228.928C244.352 229.334 244.943 229.499 245.595 229.423ZM253.945 220.141L258.976 219.556L259.258 221.987C259.515 221.007 259.927 220.259 260.495 219.742C261.077 219.207 261.79 218.89 262.632 218.792L263.775 222.598C262.265 222.773 261.172 223.07 260.496 223.487C259.833 223.886 259.543 224.435 259.624 225.134L260.345 231.332L255.315 231.917L253.945 220.141ZM271.388 230.242C270.116 230.39 268.958 230.267 267.914 229.873C266.883 229.461 266.035 228.818 265.37 227.945C264.721 227.071 264.327 226.037 264.188 224.845C264.055 223.701 264.22 222.627 264.683 221.622C265.147 220.618 265.839 219.789 266.762 219.134C267.684 218.479 268.75 218.081 269.958 217.941C271.499 217.762 272.752 217.938 273.716 218.47L273.631 221.694C272.694 221.529 271.931 221.481 271.343 221.549C270.581 221.638 270.003 221.93 269.609 222.427C269.214 222.908 269.06 223.522 269.147 224.269C269.234 225.016 269.525 225.586 270.022 225.979C270.519 226.372 271.133 226.527 271.864 226.442C272.5 226.368 273.231 226.146 274.058 225.776L274.899 229.061C274.39 229.394 273.864 229.648 273.32 229.824C272.779 230.016 272.135 230.155 271.388 230.242ZM274.418 213.774L279.363 212.45L280.172 219.411C280.424 218.528 280.873 217.824 281.521 217.297C282.182 216.753 283.014 216.423 284.015 216.307C285.541 216.129 286.797 216.539 287.782 217.536C288.782 218.515 289.394 219.966 289.617 221.889L290.31 227.849L285.304 228.431L284.553 221.97C284.473 221.287 284.261 220.78 283.917 220.45C283.588 220.117 283.162 219.982 282.637 220.043C282.256 220.087 281.897 220.258 281.561 220.554C281.223 220.835 280.962 221.22 280.777 221.709C280.608 222.195 280.558 222.733 280.626 223.321L281.275 228.899L276.245 229.484L274.418 213.774Z" fill="white"/>
<defs>
<filter id="filter0_d_29_242" x="0.943459" y="0.0123062" width="386.393" height="474.879" filterUnits="userSpaceOnUse" color-interpolation-filters="sRGB">
<feFlood flood-opacity="0" result="BackgroundImageFix"/>
<feColorMatrix in="SourceAlpha" type="matrix" values="0 0 0 0 0 0 0 0 0 0 0 0 0 0 0 0 0 0 127 0" result="hardAlpha"/>
<feOffset dy="4"/>
<feGaussianBlur stdDeviation="19.8"/>
<feComposite in2="hardAlpha" operator="out"/>
<feColorMatrix type="matrix" values="0 0 0 0 0 0 0 0 0 0 0 0 0 0 0 0 0 0 0.33 0"/>
<feBlend mode="normal" in2="BackgroundImageFix" result="effect1_dropShadow_29_242"/>
<feBlend mode="normal" in="SourceGraphic" in2="effect1_dropShadow_29_242" result="shape"/>
</filter>
</defs>
</svg>
