<svg width="3533" height="157" viewBox="0 0 3533 157" fill="none" xmlns="http://www.w3.org/2000/svg">
<path d="M69.3984 29.8293H109.389V46.7483H99.5449V106.241H109.389V123.099H69.3984V106.241H79.1191V82.3704H37.0371V106.241H46.8809V123.099H6.95215V106.241H16.6113V46.7483H6.95215V29.8293H46.8809V46.7483H37.0371V66.1282H79.1191V46.7483H69.3984V29.8293ZM137.751 95.2288L137.936 97.136C138.387 98.9817 139.146 100.602 140.212 101.996C141.319 103.391 142.611 104.56 144.088 105.503C145.564 106.447 147.205 107.164 149.01 107.656C150.814 108.108 152.64 108.333 154.485 108.333C156.331 108.333 158.074 108.231 159.715 108.026C161.396 107.78 163.017 107.472 164.575 107.103C166.134 106.693 167.651 106.241 169.128 105.749C170.604 105.216 172.102 104.662 173.619 104.088L180.387 116.7C178.049 118.136 175.896 119.366 173.927 120.392C171.999 121.376 170.051 122.197 168.082 122.853C166.113 123.509 164.021 123.981 161.807 124.268C159.592 124.596 157.008 124.76 154.055 124.76C148.518 124.76 143.596 123.858 139.289 122.053C134.982 120.207 131.353 117.726 128.399 114.609C125.487 111.491 123.252 107.841 121.693 103.657C120.176 99.4739 119.417 95.0442 119.417 90.3684C119.417 85.6926 120.217 81.304 121.816 77.2024C123.457 73.1008 125.754 69.5325 128.707 66.4973C131.66 63.4211 135.188 61.0012 139.289 59.2375C143.391 57.4739 147.943 56.592 152.947 56.592C157.951 56.592 162.381 57.4329 166.236 59.1145C170.133 60.7551 173.414 63.052 176.08 66.0051C178.746 68.9172 180.797 72.3625 182.232 76.3411C183.668 80.2786 184.447 84.5237 184.57 89.0764C184.693 90.1018 184.755 91.1272 184.755 92.1526C184.796 93.137 184.775 94.1624 184.693 95.2288H137.751ZM152.455 71.9729C150.158 71.9729 148.189 72.26 146.549 72.8342C144.949 73.3674 143.596 74.1262 142.488 75.1106C141.381 76.054 140.499 77.1409 139.843 78.3713C139.187 79.6018 138.674 80.8938 138.305 82.2473H164.944C164.657 80.8528 164.247 79.5403 163.714 78.3098C163.181 77.0793 162.442 75.9924 161.499 75.0491C160.556 74.1057 159.346 73.3674 157.869 72.8342C156.434 72.26 154.629 71.9729 152.455 71.9729ZM233.358 119.654C231.923 120.556 230.61 121.335 229.421 121.991C228.231 122.607 227.042 123.099 225.853 123.468C224.663 123.878 223.433 124.165 222.161 124.329C220.89 124.534 219.495 124.637 217.978 124.637C214.163 124.637 210.738 124.124 207.703 123.099C204.709 122.032 202.166 120.597 200.074 118.792C198.023 116.947 196.444 114.793 195.337 112.332C194.229 109.83 193.676 107.123 193.676 104.211C193.676 101.258 194.229 98.5305 195.337 96.0286C196.485 93.5266 198.126 91.3938 200.259 89.6301C202.392 87.8254 204.996 86.4309 208.072 85.4465C211.189 84.4211 214.737 83.9084 218.716 83.9084C221.628 83.9084 224.273 84.0725 226.652 84.4006C229.072 84.6877 231.308 85.0569 233.358 85.5081V83.5393C233.358 81.9397 233.051 80.5657 232.436 79.4172C231.82 78.2278 230.959 77.2639 229.852 76.5256C228.744 75.7463 227.411 75.1926 225.853 74.8645C224.294 74.4954 222.592 74.3108 220.746 74.3108C216.891 74.3108 213.486 74.7004 210.533 75.4797C207.621 76.218 204.812 77.3049 202.104 78.7405L196.198 66.8049C200.382 63.9338 204.75 61.7395 209.303 60.2219C213.896 58.7043 218.757 57.9456 223.884 57.9456C227.862 57.9456 231.533 58.3967 234.896 59.2991C238.301 60.1604 241.213 61.5959 243.633 63.6057C246.053 65.5745 247.939 68.1584 249.293 71.3577C250.688 74.5569 251.385 78.4534 251.385 83.0471V106.241H259.937V123.099H233.358V119.654ZM219.331 110.117C222.243 110.117 224.889 109.646 227.268 108.702C229.646 107.759 231.677 106.611 233.358 105.257V97.136H218.593C217.649 97.136 216.727 97.2795 215.824 97.5667C214.922 97.8538 214.102 98.2639 213.363 98.7971C212.666 99.3303 212.092 99.9866 211.641 100.766C211.23 101.545 211.025 102.448 211.025 103.473C211.025 105.36 211.702 106.939 213.056 108.21C214.45 109.482 216.542 110.117 219.331 110.117ZM271.626 27.3684H300.357V106.241H310.201V123.099H271.626V106.241H281.47V44.2258H271.626V27.3684ZM344.962 59.3606H357.697V75.4797H344.839L344.716 102.427C344.716 103.986 344.839 105.257 345.085 106.241C345.331 107.185 345.68 107.944 346.131 108.518C346.623 109.092 347.197 109.482 347.854 109.687C348.51 109.892 349.269 109.994 350.13 109.994C351.688 109.994 353.062 109.851 354.252 109.564C355.441 109.236 356.631 108.866 357.82 108.456L360.466 120.33C358.374 121.643 356.036 122.689 353.452 123.468C350.909 124.247 347.874 124.637 344.347 124.637C341.845 124.637 339.445 124.206 337.148 123.345C334.893 122.484 332.903 121.192 331.181 119.469C329.458 117.705 328.084 115.511 327.059 112.886C326.033 110.261 325.541 107.205 325.582 103.719L325.767 75.4797H316.6V59.3606H325.828L325.951 44.1028L345.085 34.9973L344.962 59.3606ZM368.71 27.3684H397.441V65.2668C399.861 63.052 402.507 61.3293 405.378 60.0989C408.29 58.8274 411.489 58.1917 414.976 58.1917C422.646 58.1917 428.511 60.345 432.571 64.6516C436.632 68.9172 438.662 75.1721 438.662 83.4163V106.241H448.014V123.099H419.528V87.7229C419.528 84.1545 418.646 81.345 416.883 79.2942C415.119 77.2434 412.843 76.218 410.054 76.218C408.208 76.218 406.198 76.7307 404.024 77.7561C401.851 78.7815 399.656 80.2786 397.441 82.2473V106.241H406.793V123.099H368.71V106.241H378.554V44.2258H368.71V27.3684ZM543.744 58.1917C541.447 54.9104 539.376 52.593 537.53 51.2395C535.685 49.845 533.695 48.8606 531.562 48.2864C529.43 47.6711 527.194 47.3635 524.856 47.3635C521.411 47.3635 518.212 48.1428 515.259 49.7014C512.306 51.219 509.742 53.3108 507.568 55.9768C505.436 58.6018 503.754 61.678 502.523 65.2053C501.293 68.6917 500.678 72.4036 500.678 76.3411C500.678 80.3196 501.272 84.0725 502.462 87.5999C503.692 91.0862 505.374 94.1418 507.507 96.7668C509.64 99.3918 512.183 101.484 515.136 103.042C518.089 104.56 521.329 105.319 524.856 105.319C527.317 105.319 529.614 104.929 531.747 104.15C533.88 103.329 535.808 102.263 537.53 100.95C539.294 99.6379 540.832 98.1409 542.145 96.4592C543.457 94.7366 544.482 92.9524 545.221 91.1067L565.031 96.6438C563.76 100.663 561.894 104.396 559.433 107.841C556.972 111.245 553.998 114.198 550.512 116.7C547.066 119.202 543.17 121.171 538.822 122.607C534.516 124.042 529.86 124.76 524.856 124.76C520.632 124.76 516.592 124.186 512.736 123.037C508.881 121.889 505.271 120.269 501.908 118.177C498.586 116.085 495.551 113.563 492.803 110.61C490.096 107.656 487.778 104.396 485.851 100.827C483.923 97.218 482.426 93.3625 481.359 89.261C480.293 85.1184 479.76 80.8118 479.76 76.3411C479.76 69.6555 480.929 63.4006 483.267 57.5764C485.604 51.7112 488.804 46.6047 492.864 42.2571C496.925 37.8684 501.683 34.4231 507.138 31.9211C512.634 29.3782 518.54 28.1067 524.856 28.1067C529.901 28.1067 534.146 28.7424 537.592 30.0139C541.037 31.2444 544.831 33.7053 548.974 37.3967H562.755V58.1917H543.744ZM615.419 119.654C613.983 120.556 612.671 121.335 611.481 121.991C610.292 122.607 609.103 123.099 607.913 123.468C606.724 123.878 605.493 124.165 604.222 124.329C602.95 124.534 601.556 124.637 600.038 124.637C596.224 124.637 592.799 124.124 589.764 123.099C586.77 122.032 584.227 120.597 582.135 118.792C580.084 116.947 578.505 114.793 577.397 112.332C576.29 109.83 575.736 107.123 575.736 104.211C575.736 101.258 576.29 98.5305 577.397 96.0286C578.546 93.5266 580.187 91.3938 582.319 89.6301C584.452 87.8254 587.057 86.4309 590.133 85.4465C593.25 84.4211 596.798 83.9084 600.776 83.9084C603.688 83.9084 606.334 84.0725 608.713 84.4006C611.133 84.6877 613.368 85.0569 615.419 85.5081V83.5393C615.419 81.9397 615.111 80.5657 614.496 79.4172C613.881 78.2278 613.02 77.2639 611.912 76.5256C610.805 75.7463 609.472 75.1926 607.913 74.8645C606.354 74.4954 604.652 74.3108 602.807 74.3108C598.951 74.3108 595.547 74.7004 592.594 75.4797C589.682 76.218 586.872 77.3049 584.165 78.7405L578.259 66.8049C582.442 63.9338 586.811 61.7395 591.363 60.2219C595.957 58.7043 600.817 57.9456 605.944 57.9456C609.923 57.9456 613.594 58.3967 616.957 59.2991C620.361 60.1604 623.273 61.5959 625.693 63.6057C628.113 65.5745 630 68.1584 631.354 71.3577C632.748 74.5569 633.445 78.4534 633.445 83.0471V106.241H641.997V123.099H615.419V119.654ZM601.392 110.117C604.304 110.117 606.949 109.646 609.328 108.702C611.707 107.759 613.737 106.611 615.419 105.257V97.136H600.653C599.71 97.136 598.787 97.2795 597.885 97.5667C596.982 97.8538 596.162 98.2639 595.424 98.7971C594.727 99.3303 594.152 99.9866 593.701 100.766C593.291 101.545 593.086 102.448 593.086 103.473C593.086 105.36 593.763 106.939 595.116 108.21C596.511 109.482 598.603 110.117 601.392 110.117ZM712.811 82.5549H695.522V75.9719C693.841 75.9719 692.303 76.095 690.908 76.3411C689.514 76.5461 688.283 76.9153 687.217 77.4485C686.191 77.9817 685.31 78.72 684.571 79.6633C683.874 80.6067 683.382 81.7756 683.095 83.1702V106.241H696.076V123.099H654.486V106.241H664.022V76.218H654.609V59.3606H682.972V63.8518C684.776 62.4163 686.807 61.3088 689.062 60.5295C691.318 59.7502 693.779 59.3606 696.445 59.3606C699.152 59.3606 701.941 59.3811 704.812 59.4221C707.684 59.4631 710.35 59.4836 712.811 59.4836V82.5549ZM739.819 95.2288L740.004 97.136C740.455 98.9817 741.214 100.602 742.28 101.996C743.388 103.391 744.68 104.56 746.156 105.503C747.633 106.447 749.273 107.164 751.078 107.656C752.883 108.108 754.708 108.333 756.554 108.333C758.399 108.333 760.143 108.231 761.783 108.026C763.465 107.78 765.085 107.472 766.644 107.103C768.202 106.693 769.72 106.241 771.196 105.749C772.673 105.216 774.17 104.662 775.688 104.088L782.455 116.7C780.117 118.136 777.964 119.366 775.995 120.392C774.067 121.376 772.119 122.197 770.15 122.853C768.182 123.509 766.09 123.981 763.875 124.268C761.66 124.596 759.076 124.76 756.123 124.76C750.586 124.76 745.664 123.858 741.357 122.053C737.051 120.207 733.421 117.726 730.468 114.609C727.556 111.491 725.32 107.841 723.762 103.657C722.244 99.4739 721.485 95.0442 721.485 90.3684C721.485 85.6926 722.285 81.304 723.885 77.2024C725.525 73.1008 727.822 69.5325 730.775 66.4973C733.729 63.4211 737.256 61.0012 741.357 59.2375C745.459 57.4739 750.012 56.592 755.016 56.592C760.02 56.592 764.449 57.4329 768.305 59.1145C772.201 60.7551 775.482 63.052 778.148 66.0051C780.814 68.9172 782.865 72.3625 784.301 76.3411C785.736 80.2786 786.516 84.5237 786.639 89.0764C786.762 90.1018 786.823 91.1272 786.823 92.1526C786.864 93.137 786.844 94.1624 786.762 95.2288H739.819ZM754.523 71.9729C752.227 71.9729 750.258 72.26 748.617 72.8342C747.018 73.3674 745.664 74.1262 744.557 75.1106C743.449 76.054 742.567 77.1409 741.911 78.3713C741.255 79.6018 740.742 80.8938 740.373 82.2473H767.013C766.726 80.8528 766.315 79.5403 765.782 78.3098C765.249 77.0793 764.511 75.9924 763.567 75.0491C762.624 74.1057 761.414 73.3674 759.938 72.8342C758.502 72.26 756.697 71.9729 754.523 71.9729Z" fill="#007FBB"/>
<path d="M852.17 59.9287L862.948 77.2639L882.766 82.1577L869.609 97.7652L871.079 118.125L852.17 110.436L833.261 118.125L834.731 97.7652L821.575 82.1577L841.392 77.2639L852.17 59.9287Z" fill="#007FBB"/>
<path d="M982.738 29.8293H1022.73V46.7483H1012.88V106.241H1022.73V123.099H982.738V106.241H992.459V82.3704H950.377V106.241H960.221V123.099H920.292V106.241H929.951V46.7483H920.292V29.8293H960.221V46.7483H950.377V66.1282H992.459V46.7483H982.738V29.8293ZM1051.09 95.2288L1051.28 97.136C1051.73 98.9817 1052.49 100.602 1053.55 101.996C1054.66 103.391 1055.95 104.56 1057.43 105.503C1058.9 106.447 1060.54 107.164 1062.35 107.656C1064.15 108.108 1065.98 108.333 1067.83 108.333C1069.67 108.333 1071.41 108.231 1073.05 108.026C1074.74 107.78 1076.36 107.472 1077.92 107.103C1079.47 106.693 1080.99 106.241 1082.47 105.749C1083.94 105.216 1085.44 104.662 1086.96 104.088L1093.73 116.7C1091.39 118.136 1089.24 119.366 1087.27 120.392C1085.34 121.376 1083.39 122.197 1081.42 122.853C1079.45 123.509 1077.36 123.981 1075.15 124.268C1072.93 124.596 1070.35 124.76 1067.39 124.76C1061.86 124.76 1056.94 123.858 1052.63 122.053C1048.32 120.207 1044.69 117.726 1041.74 114.609C1038.83 111.491 1036.59 107.841 1035.03 103.657C1033.52 99.4739 1032.76 95.0442 1032.76 90.3684C1032.76 85.6926 1033.56 81.304 1035.16 77.2024C1036.8 73.1008 1039.09 69.5325 1042.05 66.4973C1045 63.4211 1048.53 61.0012 1052.63 59.2375C1056.73 57.4739 1061.28 56.592 1066.29 56.592C1071.29 56.592 1075.72 57.4329 1079.58 59.1145C1083.47 60.7551 1086.75 63.052 1089.42 66.0051C1092.09 68.9172 1094.14 72.3625 1095.57 76.3411C1097.01 80.2786 1097.79 84.5237 1097.91 89.0764C1098.03 90.1018 1098.09 91.1272 1098.09 92.1526C1098.14 93.137 1098.12 94.1624 1098.03 95.2288H1051.09ZM1065.79 71.9729C1063.5 71.9729 1061.53 72.26 1059.89 72.8342C1058.29 73.3674 1056.94 74.1262 1055.83 75.1106C1054.72 76.054 1053.84 77.1409 1053.18 78.3713C1052.53 79.6018 1052.01 80.8938 1051.64 82.2473H1078.28C1078 80.8528 1077.59 79.5403 1077.05 78.3098C1076.52 77.0793 1075.78 75.9924 1074.84 75.0491C1073.9 74.1057 1072.69 73.3674 1071.21 72.8342C1069.77 72.26 1067.97 71.9729 1065.79 71.9729ZM1146.7 119.654C1145.26 120.556 1143.95 121.335 1142.76 121.991C1141.57 122.607 1140.38 123.099 1139.19 123.468C1138 123.878 1136.77 124.165 1135.5 124.329C1134.23 124.534 1132.83 124.637 1131.32 124.637C1127.5 124.637 1124.08 124.124 1121.04 123.099C1118.05 122.032 1115.51 120.597 1113.41 118.792C1111.36 116.947 1109.78 114.793 1108.68 112.332C1107.57 109.83 1107.02 107.123 1107.02 104.211C1107.02 101.258 1107.57 98.5305 1108.68 96.0286C1109.83 93.5266 1111.47 91.3938 1113.6 89.6301C1115.73 87.8254 1118.34 86.4309 1121.41 85.4465C1124.53 84.4211 1128.08 83.9084 1132.06 83.9084C1134.97 83.9084 1137.61 84.0725 1139.99 84.4006C1142.41 84.6877 1144.65 85.0569 1146.7 85.5081V83.5393C1146.7 81.9397 1146.39 80.5657 1145.78 79.4172C1145.16 78.2278 1144.3 77.2639 1143.19 76.5256C1142.08 75.7463 1140.75 75.1926 1139.19 74.8645C1137.63 74.4954 1135.93 74.3108 1134.09 74.3108C1130.23 74.3108 1126.83 74.7004 1123.87 75.4797C1120.96 76.218 1118.15 77.3049 1115.44 78.7405L1109.54 66.8049C1113.72 63.9338 1118.09 61.7395 1122.64 60.2219C1127.24 58.7043 1132.1 57.9456 1137.22 57.9456C1141.2 57.9456 1144.87 58.3967 1148.24 59.2991C1151.64 60.1604 1154.55 61.5959 1156.97 63.6057C1159.39 65.5745 1161.28 68.1584 1162.63 71.3577C1164.03 74.5569 1164.72 78.4534 1164.72 83.0471V106.241H1173.28V123.099H1146.7V119.654ZM1132.67 110.117C1135.58 110.117 1138.23 109.646 1140.61 108.702C1142.99 107.759 1145.02 106.611 1146.7 105.257V97.136H1131.93C1130.99 97.136 1130.07 97.2795 1129.16 97.5667C1128.26 97.8538 1127.44 98.2639 1126.7 98.7971C1126.01 99.3303 1125.43 99.9866 1124.98 100.766C1124.57 101.545 1124.37 102.448 1124.37 103.473C1124.37 105.36 1125.04 106.939 1126.4 108.21C1127.79 109.482 1129.88 110.117 1132.67 110.117ZM1184.97 27.3684H1213.7V106.241H1223.54V123.099H1184.97V106.241H1194.81V44.2258H1184.97V27.3684ZM1258.3 59.3606H1271.04V75.4797H1258.18L1258.06 102.427C1258.06 103.986 1258.18 105.257 1258.42 106.241C1258.67 107.185 1259.02 107.944 1259.47 108.518C1259.96 109.092 1260.54 109.482 1261.19 109.687C1261.85 109.892 1262.61 109.994 1263.47 109.994C1265.03 109.994 1266.4 109.851 1267.59 109.564C1268.78 109.236 1269.97 108.866 1271.16 108.456L1273.81 120.33C1271.71 121.643 1269.38 122.689 1266.79 123.468C1264.25 124.247 1261.21 124.637 1257.69 124.637C1255.18 124.637 1252.79 124.206 1250.49 123.345C1248.23 122.484 1246.24 121.192 1244.52 119.469C1242.8 117.705 1241.42 115.511 1240.4 112.886C1239.37 110.261 1238.88 107.205 1238.92 103.719L1239.11 75.4797H1229.94V59.3606H1239.17L1239.29 44.1028L1258.42 34.9973L1258.3 59.3606ZM1282.05 27.3684H1310.78V65.2668C1313.2 63.052 1315.85 61.3293 1318.72 60.0989C1321.63 58.8274 1324.83 58.1917 1328.32 58.1917C1335.99 58.1917 1341.85 60.345 1345.91 64.6516C1349.97 68.9172 1352 75.1721 1352 83.4163V106.241H1361.35V123.099H1332.87V87.7229C1332.87 84.1545 1331.99 81.345 1330.22 79.2942C1328.46 77.2434 1326.18 76.218 1323.39 76.218C1321.55 76.218 1319.54 76.7307 1317.36 77.7561C1315.19 78.7815 1313 80.2786 1310.78 82.2473V106.241H1320.13V123.099H1282.05V106.241H1291.89V44.2258H1282.05V27.3684ZM1457.08 58.1917C1454.79 54.9104 1452.72 52.593 1450.87 51.2395C1449.02 49.845 1447.04 48.8606 1444.9 48.2864C1442.77 47.6711 1440.53 47.3635 1438.2 47.3635C1434.75 47.3635 1431.55 48.1428 1428.6 49.7014C1425.65 51.219 1423.08 53.3108 1420.91 55.9768C1418.78 58.6018 1417.09 61.678 1415.86 65.2053C1414.63 68.6917 1414.02 72.4036 1414.02 76.3411C1414.02 80.3196 1414.61 84.0725 1415.8 87.5999C1417.03 91.0862 1418.71 94.1418 1420.85 96.7668C1422.98 99.3918 1425.52 101.484 1428.48 103.042C1431.43 104.56 1434.67 105.319 1438.2 105.319C1440.66 105.319 1442.95 104.929 1445.09 104.15C1447.22 103.329 1449.15 102.263 1450.87 100.95C1452.63 99.6379 1454.17 98.1409 1455.48 96.4592C1456.8 94.7366 1457.82 92.9524 1458.56 91.1067L1478.37 96.6438C1477.1 100.663 1475.23 104.396 1472.77 107.841C1470.31 111.245 1467.34 114.198 1463.85 116.7C1460.41 119.202 1456.51 121.171 1452.16 122.607C1447.86 124.042 1443.2 124.76 1438.2 124.76C1433.97 124.76 1429.93 124.186 1426.08 123.037C1422.22 121.889 1418.61 120.269 1415.25 118.177C1411.93 116.085 1408.89 113.563 1406.14 110.61C1403.44 107.656 1401.12 104.396 1399.19 100.827C1397.26 97.218 1395.77 93.3625 1394.7 89.261C1393.63 85.1184 1393.1 80.8118 1393.1 76.3411C1393.1 69.6555 1394.27 63.4006 1396.61 57.5764C1398.94 51.7112 1402.14 46.6047 1406.2 42.2571C1410.26 37.8684 1415.02 34.4231 1420.48 31.9211C1425.97 29.3782 1431.88 28.1067 1438.2 28.1067C1443.24 28.1067 1447.49 28.7424 1450.93 30.0139C1454.38 31.2444 1458.17 33.7053 1462.31 37.3967H1476.09V58.1917H1457.08ZM1528.76 119.654C1527.32 120.556 1526.01 121.335 1524.82 121.991C1523.63 122.607 1522.44 123.099 1521.25 123.468C1520.06 123.878 1518.83 124.165 1517.56 124.329C1516.29 124.534 1514.9 124.637 1513.38 124.637C1509.56 124.637 1506.14 124.124 1503.1 123.099C1500.11 122.032 1497.57 120.597 1495.47 118.792C1493.42 116.947 1491.84 114.793 1490.74 112.332C1489.63 109.83 1489.08 107.123 1489.08 104.211C1489.08 101.258 1489.63 98.5305 1490.74 96.0286C1491.89 93.5266 1493.53 91.3938 1495.66 89.6301C1497.79 87.8254 1500.4 86.4309 1503.47 85.4465C1506.59 84.4211 1510.14 83.9084 1514.12 83.9084C1517.03 83.9084 1519.67 84.0725 1522.05 84.4006C1524.47 84.6877 1526.71 85.0569 1528.76 85.5081V83.5393C1528.76 81.9397 1528.45 80.5657 1527.84 79.4172C1527.22 78.2278 1526.36 77.2639 1525.25 76.5256C1524.14 75.7463 1522.81 75.1926 1521.25 74.8645C1519.69 74.4954 1517.99 74.3108 1516.15 74.3108C1512.29 74.3108 1508.89 74.7004 1505.93 75.4797C1503.02 76.218 1500.21 77.3049 1497.5 78.7405L1491.6 66.8049C1495.78 63.9338 1500.15 61.7395 1504.7 60.2219C1509.3 58.7043 1514.16 57.9456 1519.28 57.9456C1523.26 57.9456 1526.93 58.3967 1530.3 59.2991C1533.7 60.1604 1536.61 61.5959 1539.03 63.6057C1541.45 65.5745 1543.34 68.1584 1544.69 71.3577C1546.09 74.5569 1546.79 78.4534 1546.79 83.0471V106.241H1555.34V123.099H1528.76V119.654ZM1514.73 110.117C1517.64 110.117 1520.29 109.646 1522.67 108.702C1525.05 107.759 1527.08 106.611 1528.76 105.257V97.136H1513.99C1513.05 97.136 1512.13 97.2795 1511.22 97.5667C1510.32 97.8538 1509.5 98.2639 1508.76 98.7971C1508.07 99.3303 1507.49 99.9866 1507.04 100.766C1506.63 101.545 1506.43 102.448 1506.43 103.473C1506.43 105.36 1507.1 106.939 1508.46 108.21C1509.85 109.482 1511.94 110.117 1514.73 110.117ZM1626.15 82.5549H1608.86V75.9719C1607.18 75.9719 1605.64 76.095 1604.25 76.3411C1602.85 76.5461 1601.62 76.9153 1600.56 77.4485C1599.53 77.9817 1598.65 78.72 1597.91 79.6633C1597.21 80.6067 1596.72 81.7756 1596.43 83.1702V106.241H1609.42V123.099H1567.83V106.241H1577.36V76.218H1567.95V59.3606H1596.31V63.8518C1598.12 62.4163 1600.15 61.3088 1602.4 60.5295C1604.66 59.7502 1607.12 59.3606 1609.79 59.3606C1612.49 59.3606 1615.28 59.3811 1618.15 59.4221C1621.02 59.4631 1623.69 59.4836 1626.15 59.4836V82.5549ZM1653.16 95.2288L1653.34 97.136C1653.79 98.9817 1654.55 100.602 1655.62 101.996C1656.73 103.391 1658.02 104.56 1659.5 105.503C1660.97 106.447 1662.61 107.164 1664.42 107.656C1666.22 108.108 1668.05 108.333 1669.89 108.333C1671.74 108.333 1673.48 108.231 1675.12 108.026C1676.8 107.78 1678.42 107.472 1679.98 107.103C1681.54 106.693 1683.06 106.241 1684.54 105.749C1686.01 105.216 1687.51 104.662 1689.03 104.088L1695.79 116.7C1693.46 118.136 1691.3 119.366 1689.33 120.392C1687.41 121.376 1685.46 122.197 1683.49 122.853C1681.52 123.509 1679.43 123.981 1677.21 124.268C1675 124.596 1672.42 124.76 1669.46 124.76C1663.93 124.76 1659 123.858 1654.7 122.053C1650.39 120.207 1646.76 117.726 1643.81 114.609C1640.9 111.491 1638.66 107.841 1637.1 103.657C1635.58 99.4739 1634.83 95.0442 1634.83 90.3684C1634.83 85.6926 1635.62 81.304 1637.22 77.2024C1638.87 73.1008 1641.16 69.5325 1644.12 66.4973C1647.07 63.4211 1650.6 61.0012 1654.7 59.2375C1658.8 57.4739 1663.35 56.592 1668.36 56.592C1673.36 56.592 1677.79 57.4329 1681.64 59.1145C1685.54 60.7551 1688.82 63.052 1691.49 66.0051C1694.15 68.9172 1696.21 72.3625 1697.64 76.3411C1699.08 80.2786 1699.86 84.5237 1699.98 89.0764C1700.1 90.1018 1700.16 91.1272 1700.16 92.1526C1700.2 93.137 1700.18 94.1624 1700.1 95.2288H1653.16ZM1667.86 71.9729C1665.57 71.9729 1663.6 72.26 1661.96 72.8342C1660.36 73.3674 1659 74.1262 1657.9 75.1106C1656.79 76.054 1655.91 77.1409 1655.25 78.3713C1654.59 79.6018 1654.08 80.8938 1653.71 82.2473H1680.35C1680.07 80.8528 1679.66 79.5403 1679.12 78.3098C1678.59 77.0793 1677.85 75.9924 1676.91 75.0491C1675.96 74.1057 1674.75 73.3674 1673.28 72.8342C1671.84 72.26 1670.04 71.9729 1667.86 71.9729Z" fill="#007FBB"/>
<path d="M1765.51 59.9287L1776.29 77.2639L1796.11 82.1577L1782.95 97.7652L1784.42 118.125L1765.51 110.436L1746.6 118.125L1748.07 97.7652L1734.91 82.1577L1754.73 77.2639L1765.51 59.9287Z" fill="#007FBB"/>
<path d="M1896.08 29.8293H1936.07V46.7483H1926.22V106.241H1936.07V123.099H1896.08V106.241H1905.8V82.3704H1863.72V106.241H1873.56V123.099H1833.63V106.241H1843.29V46.7483H1833.63V29.8293H1873.56V46.7483H1863.72V66.1282H1905.8V46.7483H1896.08V29.8293ZM1964.43 95.2288L1964.62 97.136C1965.07 98.9817 1965.83 100.602 1966.89 101.996C1968 103.391 1969.29 104.56 1970.77 105.503C1972.24 106.447 1973.88 107.164 1975.69 107.656C1977.49 108.108 1979.32 108.333 1981.17 108.333C1983.01 108.333 1984.75 108.231 1986.39 108.026C1988.08 107.78 1989.7 107.472 1991.25 107.103C1992.81 106.693 1994.33 106.241 1995.81 105.749C1997.28 105.216 1998.78 104.662 2000.3 104.088L2007.07 116.7C2004.73 118.136 2002.58 119.366 2000.61 120.392C1998.68 121.376 1996.73 122.197 1994.76 122.853C1992.79 123.509 1990.7 123.981 1988.49 124.268C1986.27 124.596 1983.69 124.76 1980.73 124.76C1975.2 124.76 1970.28 123.858 1965.97 122.053C1961.66 120.207 1958.03 117.726 1955.08 114.609C1952.17 111.491 1949.93 107.841 1948.37 103.657C1946.86 99.4739 1946.1 95.0442 1946.1 90.3684C1946.1 85.6926 1946.9 81.304 1948.5 77.2024C1950.14 73.1008 1952.43 69.5325 1955.39 66.4973C1958.34 63.4211 1961.87 61.0012 1965.97 59.2375C1970.07 57.4739 1974.62 56.592 1979.63 56.592C1984.63 56.592 1989.06 57.4329 1992.92 59.1145C1996.81 60.7551 2000.09 63.052 2002.76 66.0051C2005.43 68.9172 2007.48 72.3625 2008.91 76.3411C2010.35 80.2786 2011.13 84.5237 2011.25 89.0764C2011.37 90.1018 2011.43 91.1272 2011.43 92.1526C2011.48 93.137 2011.46 94.1624 2011.37 95.2288H1964.43ZM1979.13 71.9729C1976.84 71.9729 1974.87 72.26 1973.23 72.8342C1971.63 73.3674 1970.28 74.1262 1969.17 75.1106C1968.06 76.054 1967.18 77.1409 1966.52 78.3713C1965.87 79.6018 1965.35 80.8938 1964.98 82.2473H1991.62C1991.34 80.8528 1990.93 79.5403 1990.39 78.3098C1989.86 77.0793 1989.12 75.9924 1988.18 75.0491C1987.24 74.1057 1986.03 73.3674 1984.55 72.8342C1983.11 72.26 1981.31 71.9729 1979.13 71.9729ZM2060.04 119.654C2058.6 120.556 2057.29 121.335 2056.1 121.991C2054.91 122.607 2053.72 123.099 2052.53 123.468C2051.34 123.878 2050.11 124.165 2048.84 124.329C2047.57 124.534 2046.17 124.637 2044.66 124.637C2040.84 124.637 2037.42 124.124 2034.38 123.099C2031.39 122.032 2028.85 120.597 2026.75 118.792C2024.7 116.947 2023.12 114.793 2022.02 112.332C2020.91 109.83 2020.36 107.123 2020.36 104.211C2020.36 101.258 2020.91 98.5305 2022.02 96.0286C2023.17 93.5266 2024.81 91.3938 2026.94 89.6301C2029.07 87.8254 2031.68 86.4309 2034.75 85.4465C2037.87 84.4211 2041.42 83.9084 2045.4 83.9084C2048.31 83.9084 2050.95 84.0725 2053.33 84.4006C2055.75 84.6877 2057.99 85.0569 2060.04 85.5081V83.5393C2060.04 81.9397 2059.73 80.5657 2059.12 79.4172C2058.5 78.2278 2057.64 77.2639 2056.53 76.5256C2055.42 75.7463 2054.09 75.1926 2052.53 74.8645C2050.97 74.4954 2049.27 74.3108 2047.43 74.3108C2043.57 74.3108 2040.17 74.7004 2037.21 75.4797C2034.3 76.218 2031.49 77.3049 2028.78 78.7405L2022.88 66.8049C2027.06 63.9338 2031.43 61.7395 2035.98 60.2219C2040.58 58.7043 2045.44 57.9456 2050.56 57.9456C2054.54 57.9456 2058.21 58.3967 2061.58 59.2991C2064.98 60.1604 2067.89 61.5959 2070.31 63.6057C2072.73 65.5745 2074.62 68.1584 2075.97 71.3577C2077.37 74.5569 2078.06 78.4534 2078.06 83.0471V106.241H2086.62V123.099H2060.04V119.654ZM2046.01 110.117C2048.92 110.117 2051.57 109.646 2053.95 108.702C2056.33 107.759 2058.36 106.611 2060.04 105.257V97.136H2045.27C2044.33 97.136 2043.41 97.2795 2042.5 97.5667C2041.6 97.8538 2040.78 98.2639 2040.04 98.7971C2039.35 99.3303 2038.77 99.9866 2038.32 100.766C2037.91 101.545 2037.71 102.448 2037.71 103.473C2037.71 105.36 2038.38 106.939 2039.74 108.21C2041.13 109.482 2043.22 110.117 2046.01 110.117ZM2098.31 27.3684H2127.04V106.241H2136.88V123.099H2098.31V106.241H2108.15V44.2258H2098.31V27.3684ZM2171.64 59.3606H2184.38V75.4797H2171.52L2171.4 102.427C2171.4 103.986 2171.52 105.257 2171.76 106.241C2172.01 107.185 2172.36 107.944 2172.81 108.518C2173.3 109.092 2173.88 109.482 2174.53 109.687C2175.19 109.892 2175.95 109.994 2176.81 109.994C2178.37 109.994 2179.74 109.851 2180.93 109.564C2182.12 109.236 2183.31 108.866 2184.5 108.456L2187.15 120.33C2185.05 121.643 2182.72 122.689 2180.13 123.468C2177.59 124.247 2174.55 124.637 2171.03 124.637C2168.52 124.637 2166.12 124.206 2163.83 123.345C2161.57 122.484 2159.58 121.192 2157.86 119.469C2156.14 117.705 2154.76 115.511 2153.74 112.886C2152.71 110.261 2152.22 107.205 2152.26 103.719L2152.45 75.4797H2143.28V59.3606H2152.51L2152.63 44.1028L2171.76 34.9973L2171.64 59.3606ZM2195.39 27.3684H2224.12V65.2668C2226.54 63.052 2229.19 61.3293 2232.06 60.0989C2234.97 58.8274 2238.17 58.1917 2241.66 58.1917C2249.33 58.1917 2255.19 60.345 2259.25 64.6516C2263.31 68.9172 2265.34 75.1721 2265.34 83.4163V106.241H2274.69V123.099H2246.21V87.7229C2246.21 84.1545 2245.33 81.345 2243.56 79.2942C2241.8 77.2434 2239.52 76.218 2236.73 76.218C2234.89 76.218 2232.88 76.7307 2230.7 77.7561C2228.53 78.7815 2226.34 80.2786 2224.12 82.2473V106.241H2233.47V123.099H2195.39V106.241H2205.23V44.2258H2195.39V27.3684ZM2370.42 58.1917C2368.13 54.9104 2366.06 52.593 2364.21 51.2395C2362.36 49.845 2360.38 48.8606 2358.24 48.2864C2356.11 47.6711 2353.87 47.3635 2351.54 47.3635C2348.09 47.3635 2344.89 48.1428 2341.94 49.7014C2338.99 51.219 2336.42 53.3108 2334.25 55.9768C2332.12 58.6018 2330.43 61.678 2329.2 65.2053C2327.97 68.6917 2327.36 72.4036 2327.36 76.3411C2327.36 80.3196 2327.95 84.0725 2329.14 87.5999C2330.37 91.0862 2332.05 94.1418 2334.19 96.7668C2336.32 99.3918 2338.86 101.484 2341.82 103.042C2344.77 104.56 2348.01 105.319 2351.54 105.319C2354 105.319 2356.29 104.929 2358.43 104.15C2360.56 103.329 2362.49 102.263 2364.21 100.95C2365.97 99.6379 2367.51 98.1409 2368.82 96.4592C2370.14 94.7366 2371.16 92.9524 2371.9 91.1067L2391.71 96.6438C2390.44 100.663 2388.57 104.396 2386.11 107.841C2383.65 111.245 2380.68 114.198 2377.19 116.7C2373.75 119.202 2369.85 121.171 2365.5 122.607C2361.2 124.042 2356.54 124.76 2351.54 124.76C2347.31 124.76 2343.27 124.186 2339.42 123.037C2335.56 121.889 2331.95 120.269 2328.59 118.177C2325.27 116.085 2322.23 113.563 2319.48 110.61C2316.78 107.656 2314.46 104.396 2312.53 100.827C2310.6 97.218 2309.11 93.3625 2308.04 89.261C2306.97 85.1184 2306.44 80.8118 2306.44 76.3411C2306.44 69.6555 2307.61 63.4006 2309.95 57.5764C2312.28 51.7112 2315.48 46.6047 2319.54 42.2571C2323.6 37.8684 2328.36 34.4231 2333.82 31.9211C2339.31 29.3782 2345.22 28.1067 2351.54 28.1067C2356.58 28.1067 2360.83 28.7424 2364.27 30.0139C2367.72 31.2444 2371.51 33.7053 2375.65 37.3967H2389.43V58.1917H2370.42ZM2442.1 119.654C2440.66 120.556 2439.35 121.335 2438.16 121.991C2436.97 122.607 2435.78 123.099 2434.59 123.468C2433.4 123.878 2432.17 124.165 2430.9 124.329C2429.63 124.534 2428.24 124.637 2426.72 124.637C2422.9 124.637 2419.48 124.124 2416.44 123.099C2413.45 122.032 2410.91 120.597 2408.81 118.792C2406.76 116.947 2405.18 114.793 2404.08 112.332C2402.97 109.83 2402.42 107.123 2402.42 104.211C2402.42 101.258 2402.97 98.5305 2404.08 96.0286C2405.23 93.5266 2406.87 91.3938 2409 89.6301C2411.13 87.8254 2413.74 86.4309 2416.81 85.4465C2419.93 84.4211 2423.48 83.9084 2427.46 83.9084C2430.37 83.9084 2433.01 84.0725 2435.39 84.4006C2437.81 84.6877 2440.05 85.0569 2442.1 85.5081V83.5393C2442.1 81.9397 2441.79 80.5657 2441.18 79.4172C2440.56 78.2278 2439.7 77.2639 2438.59 76.5256C2437.48 75.7463 2436.15 75.1926 2434.59 74.8645C2433.03 74.4954 2431.33 74.3108 2429.49 74.3108C2425.63 74.3108 2422.23 74.7004 2419.27 75.4797C2416.36 76.218 2413.55 77.3049 2410.84 78.7405L2404.94 66.8049C2409.12 63.9338 2413.49 61.7395 2418.04 60.2219C2422.64 58.7043 2427.5 57.9456 2432.62 57.9456C2436.6 57.9456 2440.27 58.3967 2443.64 59.2991C2447.04 60.1604 2449.95 61.5959 2452.37 63.6057C2454.79 65.5745 2456.68 68.1584 2458.03 71.3577C2459.43 74.5569 2460.12 78.4534 2460.12 83.0471V106.241H2468.68V123.099H2442.1V119.654ZM2428.07 110.117C2430.98 110.117 2433.63 109.646 2436.01 108.702C2438.39 107.759 2440.42 106.611 2442.1 105.257V97.136H2427.33C2426.39 97.136 2425.47 97.2795 2424.56 97.5667C2423.66 97.8538 2422.84 98.2639 2422.1 98.7971C2421.41 99.3303 2420.83 99.9866 2420.38 100.766C2419.97 101.545 2419.77 102.448 2419.77 103.473C2419.77 105.36 2420.44 106.939 2421.8 108.21C2423.19 109.482 2425.28 110.117 2428.07 110.117ZM2539.49 82.5549H2522.2V75.9719C2520.52 75.9719 2518.98 76.095 2517.59 76.3411C2516.19 76.5461 2514.96 76.9153 2513.9 77.4485C2512.87 77.9817 2511.99 78.72 2511.25 79.6633C2510.55 80.6067 2510.06 81.7756 2509.77 83.1702V106.241H2522.76V123.099H2481.17V106.241H2490.7V76.218H2481.29V59.3606H2509.65V63.8518C2511.46 62.4163 2513.49 61.3088 2515.74 60.5295C2518 59.7502 2520.46 59.3606 2523.12 59.3606C2525.83 59.3606 2528.62 59.3811 2531.49 59.4221C2534.36 59.4631 2537.03 59.4836 2539.49 59.4836V82.5549ZM2566.5 95.2288L2566.68 97.136C2567.13 98.9817 2567.89 100.602 2568.96 101.996C2570.07 103.391 2571.36 104.56 2572.84 105.503C2574.31 106.447 2575.95 107.164 2577.76 107.656C2579.56 108.108 2581.39 108.333 2583.23 108.333C2585.08 108.333 2586.82 108.231 2588.46 108.026C2590.14 107.78 2591.76 107.472 2593.32 107.103C2594.88 106.693 2596.4 106.241 2597.88 105.749C2599.35 105.216 2600.85 104.662 2602.37 104.088L2609.13 116.7C2606.8 118.136 2604.64 119.366 2602.67 120.392C2600.75 121.376 2598.8 122.197 2596.83 122.853C2594.86 123.509 2592.77 123.981 2590.55 124.268C2588.34 124.596 2585.76 124.76 2582.8 124.76C2577.27 124.76 2572.34 123.858 2568.04 122.053C2563.73 120.207 2560.1 117.726 2557.15 114.609C2554.24 111.491 2552 107.841 2550.44 103.657C2548.92 99.4739 2548.17 95.0442 2548.17 90.3684C2548.17 85.6926 2548.96 81.304 2550.56 77.2024C2552.21 73.1008 2554.5 69.5325 2557.46 66.4973C2560.41 63.4211 2563.94 61.0012 2568.04 59.2375C2572.14 57.4739 2576.69 56.592 2581.7 56.592C2586.7 56.592 2591.13 57.4329 2594.98 59.1145C2598.88 60.7551 2602.16 63.052 2604.83 66.0051C2607.49 68.9172 2609.54 72.3625 2610.98 76.3411C2612.42 80.2786 2613.2 84.5237 2613.32 89.0764C2613.44 90.1018 2613.5 91.1272 2613.5 92.1526C2613.54 93.137 2613.52 94.1624 2613.44 95.2288H2566.5ZM2581.2 71.9729C2578.91 71.9729 2576.94 72.26 2575.3 72.8342C2573.7 73.3674 2572.34 74.1262 2571.24 75.1106C2570.13 76.054 2569.25 77.1409 2568.59 78.3713C2567.93 79.6018 2567.42 80.8938 2567.05 82.2473H2593.69C2593.41 80.8528 2593 79.5403 2592.46 78.3098C2591.93 77.0793 2591.19 75.9924 2590.25 75.0491C2589.3 74.1057 2588.09 73.3674 2586.62 72.8342C2585.18 72.26 2583.38 71.9729 2581.2 71.9729Z" fill="#007FBB"/>
<path d="M2678.85 59.9287L2689.63 77.2639L2709.45 82.1577L2696.29 97.7652L2697.76 118.125L2678.85 110.436L2659.94 118.125L2661.41 97.7652L2648.25 82.1577L2668.07 77.2639L2678.85 59.9287Z" fill="#007FBB"/>
<path d="M2809.42 29.8293H2849.41V46.7483H2839.56V106.241H2849.41V123.099H2809.42V106.241H2819.14V82.3704H2777.06V106.241H2786.9V123.099H2746.97V106.241H2756.63V46.7483H2746.97V29.8293H2786.9V46.7483H2777.06V66.1282H2819.14V46.7483H2809.42V29.8293ZM2877.77 95.2288L2877.96 97.136C2878.41 98.9817 2879.17 100.602 2880.23 101.996C2881.34 103.391 2882.63 104.56 2884.11 105.503C2885.58 106.447 2887.22 107.164 2889.03 107.656C2890.83 108.108 2892.66 108.333 2894.5 108.333C2896.35 108.333 2898.09 108.231 2899.73 108.026C2901.42 107.78 2903.04 107.472 2904.59 107.103C2906.15 106.693 2907.67 106.241 2909.15 105.749C2910.62 105.216 2912.12 104.662 2913.64 104.088L2920.41 116.7C2918.07 118.136 2915.92 119.366 2913.95 120.392C2912.02 121.376 2910.07 122.197 2908.1 122.853C2906.13 123.509 2904.04 123.981 2901.83 124.268C2899.61 124.596 2897.03 124.76 2894.07 124.76C2888.54 124.76 2883.62 123.858 2879.31 122.053C2875 120.207 2871.37 117.726 2868.42 114.609C2865.51 111.491 2863.27 107.841 2861.71 103.657C2860.2 99.4739 2859.44 95.0442 2859.44 90.3684C2859.44 85.6926 2860.24 81.304 2861.84 77.2024C2863.48 73.1008 2865.77 69.5325 2868.73 66.4973C2871.68 63.4211 2875.21 61.0012 2879.31 59.2375C2883.41 57.4739 2887.96 56.592 2892.97 56.592C2897.97 56.592 2902.4 57.4329 2906.26 59.1145C2910.15 60.7551 2913.43 63.052 2916.1 66.0051C2918.77 68.9172 2920.82 72.3625 2922.25 76.3411C2923.69 80.2786 2924.47 84.5237 2924.59 89.0764C2924.71 90.1018 2924.77 91.1272 2924.77 92.1526C2924.82 93.137 2924.79 94.1624 2924.71 95.2288H2877.77ZM2892.47 71.9729C2890.18 71.9729 2888.21 72.26 2886.57 72.8342C2884.97 73.3674 2883.62 74.1262 2882.51 75.1106C2881.4 76.054 2880.52 77.1409 2879.86 78.3713C2879.21 79.6018 2878.69 80.8938 2878.32 82.2473H2904.96C2904.68 80.8528 2904.27 79.5403 2903.73 78.3098C2903.2 77.0793 2902.46 75.9924 2901.52 75.0491C2900.58 74.1057 2899.37 73.3674 2897.89 72.8342C2896.45 72.26 2894.65 71.9729 2892.47 71.9729ZM2973.38 119.654C2971.94 120.556 2970.63 121.335 2969.44 121.991C2968.25 122.607 2967.06 123.099 2965.87 123.468C2964.68 123.878 2963.45 124.165 2962.18 124.329C2960.91 124.534 2959.51 124.637 2958 124.637C2954.18 124.637 2950.76 124.124 2947.72 123.099C2944.73 122.032 2942.19 120.597 2940.09 118.792C2938.04 116.947 2936.46 114.793 2935.36 112.332C2934.25 109.83 2933.7 107.123 2933.7 104.211C2933.7 101.258 2934.25 98.5305 2935.36 96.0286C2936.5 93.5266 2938.15 91.3938 2940.28 89.6301C2942.41 87.8254 2945.02 86.4309 2948.09 85.4465C2951.21 84.4211 2954.76 83.9084 2958.74 83.9084C2961.65 83.9084 2964.29 84.0725 2966.67 84.4006C2969.09 84.6877 2971.33 85.0569 2973.38 85.5081V83.5393C2973.38 81.9397 2973.07 80.5657 2972.46 79.4172C2971.84 78.2278 2970.98 77.2639 2969.87 76.5256C2968.76 75.7463 2967.43 75.1926 2965.87 74.8645C2964.31 74.4954 2962.61 74.3108 2960.77 74.3108C2956.91 74.3108 2953.51 74.7004 2950.55 75.4797C2947.64 76.218 2944.83 77.3049 2942.12 78.7405L2936.22 66.8049C2940.4 63.9338 2944.77 61.7395 2949.32 60.2219C2953.92 58.7043 2958.78 57.9456 2963.9 57.9456C2967.88 57.9456 2971.55 58.3967 2974.92 59.2991C2978.32 60.1604 2981.23 61.5959 2983.65 63.6057C2986.07 65.5745 2987.96 68.1584 2989.31 71.3577C2990.71 74.5569 2991.4 78.4534 2991.4 83.0471V106.241H2999.96V123.099H2973.38V119.654ZM2959.35 110.117C2962.26 110.117 2964.91 109.646 2967.29 108.702C2969.67 107.759 2971.7 106.611 2973.38 105.257V97.136H2958.61C2957.67 97.136 2956.75 97.2795 2955.84 97.5667C2954.94 97.8538 2954.12 98.2639 2953.38 98.7971C2952.69 99.3303 2952.11 99.9866 2951.66 100.766C2951.25 101.545 2951.04 102.448 2951.04 103.473C2951.04 105.36 2951.72 106.939 2953.08 108.21C2954.47 109.482 2956.56 110.117 2959.35 110.117ZM3011.65 27.3684H3040.38V106.241H3050.22V123.099H3011.65V106.241H3021.49V44.2258H3011.65V27.3684ZM3084.98 59.3606H3097.72V75.4797H3084.86L3084.74 102.427C3084.74 103.986 3084.86 105.257 3085.1 106.241C3085.35 107.185 3085.7 107.944 3086.15 108.518C3086.64 109.092 3087.22 109.482 3087.87 109.687C3088.53 109.892 3089.29 109.994 3090.15 109.994C3091.71 109.994 3093.08 109.851 3094.27 109.564C3095.46 109.236 3096.65 108.866 3097.84 108.456L3100.49 120.33C3098.39 121.643 3096.06 122.689 3093.47 123.468C3090.93 124.247 3087.89 124.637 3084.37 124.637C3081.86 124.637 3079.46 124.206 3077.17 123.345C3074.91 122.484 3072.92 121.192 3071.2 119.469C3069.48 117.705 3068.1 115.511 3067.08 112.886C3066.05 110.261 3065.56 107.205 3065.6 103.719L3065.79 75.4797H3056.62V59.3606H3065.85L3065.97 44.1028L3085.1 34.9973L3084.98 59.3606ZM3108.73 27.3684L3137.46 27.3684V65.2668C3139.88 63.052 3142.53 61.3293 3145.4 60.0989C3148.31 58.8274 3151.51 58.1917 3155 58.1917C3162.67 58.1917 3168.53 60.345 3172.59 64.6516C3176.65 68.9172 3178.68 75.1721 3178.68 83.4163V106.241H3188.03V123.099H3159.55V87.7229C3159.55 84.1545 3158.67 81.345 3156.9 79.2942C3155.14 77.2434 3152.86 76.218 3150.07 76.218C3148.23 76.218 3146.22 76.7307 3144.04 77.7561C3141.87 78.7815 3139.68 80.2786 3137.46 82.2473V106.241H3146.81V123.099H3108.73V106.241H3118.57V44.2258H3108.73V27.3684ZM3283.76 58.1917C3281.47 54.9104 3279.4 52.593 3277.55 51.2395C3275.7 49.845 3273.71 48.8606 3271.58 48.2864C3269.45 47.6711 3267.21 47.3635 3264.88 47.3635C3261.43 47.3635 3258.23 48.1428 3255.28 49.7014C3252.33 51.219 3249.76 53.3108 3247.59 55.9768C3245.46 58.6018 3243.77 61.678 3242.54 65.2053C3241.31 68.6917 3240.7 72.4036 3240.7 76.3411C3240.7 80.3196 3241.29 84.0725 3242.48 87.5999C3243.71 91.0862 3245.39 94.1418 3247.53 96.7668C3249.66 99.3918 3252.2 101.484 3255.16 103.042C3258.11 104.56 3261.35 105.319 3264.88 105.319C3267.34 105.319 3269.63 104.929 3271.77 104.15C3273.9 103.329 3275.83 102.263 3277.55 100.95C3279.31 99.6379 3280.85 98.1409 3282.16 96.4592C3283.48 94.7366 3284.5 92.9524 3285.24 91.1067L3305.05 96.6438C3303.78 100.663 3301.91 104.396 3299.45 107.841C3296.99 111.245 3294.02 114.198 3290.53 116.7C3287.09 119.202 3283.19 121.171 3278.84 122.607C3274.54 124.042 3269.88 124.76 3264.88 124.76C3260.65 124.76 3256.61 124.186 3252.76 123.037C3248.9 121.889 3245.29 120.269 3241.93 118.177C3238.61 116.085 3235.57 113.563 3232.82 110.61C3230.12 107.656 3227.8 104.396 3225.87 100.827C3223.94 97.218 3222.45 93.3625 3221.38 89.261C3220.31 85.1184 3219.78 80.8118 3219.78 76.3411C3219.78 69.6555 3220.95 63.4006 3223.29 57.5764C3225.62 51.7112 3228.82 46.6047 3232.88 42.2571C3236.94 37.8684 3241.7 34.4231 3247.16 31.9211C3252.65 29.3782 3258.56 28.1067 3264.88 28.1067C3269.92 28.1067 3274.17 28.7424 3277.61 30.0139C3281.06 31.2444 3284.85 33.7053 3288.99 37.3967H3302.77V58.1917H3283.76ZM3355.44 119.654C3354 120.556 3352.69 121.335 3351.5 121.991C3350.31 122.607 3349.12 123.099 3347.93 123.468C3346.74 123.878 3345.51 124.165 3344.24 124.329C3342.97 124.534 3341.58 124.637 3340.06 124.637C3336.24 124.637 3332.82 124.124 3329.78 123.099C3326.79 122.032 3324.25 120.597 3322.15 118.792C3320.1 116.947 3318.52 114.793 3317.42 112.332C3316.31 109.83 3315.76 107.123 3315.76 104.211C3315.76 101.258 3316.31 98.5305 3317.42 96.0286C3318.57 93.5266 3320.21 91.3938 3322.34 89.6301C3324.47 87.8254 3327.08 86.4309 3330.15 85.4465C3333.27 84.4211 3336.82 83.9084 3340.8 83.9084C3343.71 83.9084 3346.35 84.0725 3348.73 84.4006C3351.15 84.6877 3353.39 85.0569 3355.44 85.5081V83.5393C3355.44 81.9397 3355.13 80.5657 3354.52 79.4172C3353.9 78.2278 3353.04 77.2639 3351.93 76.5256C3350.82 75.7463 3349.49 75.1926 3347.93 74.8645C3346.37 74.4954 3344.67 74.3108 3342.83 74.3108C3338.97 74.3108 3335.57 74.7004 3332.61 75.4797C3329.7 76.218 3326.89 77.3049 3324.18 78.7405L3318.28 66.8049C3322.46 63.9338 3326.83 61.7395 3331.38 60.2219C3335.98 58.7043 3340.84 57.9456 3345.96 57.9456C3349.94 57.9456 3353.61 58.3967 3356.98 59.2991C3360.38 60.1604 3363.29 61.5959 3365.71 63.6057C3368.13 65.5745 3370.02 68.1584 3371.37 71.3577C3372.77 74.5569 3373.46 78.4534 3373.46 83.0471V106.241H3382.02V123.099H3355.44V119.654ZM3341.41 110.117C3344.32 110.117 3346.97 109.646 3349.35 108.702C3351.73 107.759 3353.76 106.611 3355.44 105.257V97.136H3340.67C3339.73 97.136 3338.81 97.2795 3337.9 97.5667C3337 97.8538 3336.18 98.2639 3335.44 98.7971C3334.75 99.3303 3334.17 99.9866 3333.72 100.766C3333.31 101.545 3333.11 102.448 3333.11 103.473C3333.11 105.36 3333.78 106.939 3335.14 108.21C3336.53 109.482 3338.62 110.117 3341.41 110.117ZM3452.83 82.5549H3435.54V75.9719C3433.86 75.9719 3432.32 76.095 3430.93 76.3411C3429.53 76.5461 3428.3 76.9153 3427.24 77.4485C3426.21 77.9817 3425.33 78.72 3424.59 79.6633C3423.89 80.6067 3423.4 81.7756 3423.11 83.1702V106.241H3436.1V123.099H3394.51V106.241H3404.04V76.218H3394.63V59.3606H3422.99V63.8518C3424.8 62.4163 3426.83 61.3088 3429.08 60.5295C3431.34 59.7502 3433.8 59.3606 3436.46 59.3606C3439.17 59.3606 3441.96 59.3811 3444.83 59.4221C3447.7 59.4631 3450.37 59.4836 3452.83 59.4836V82.5549ZM3479.84 95.2288L3480.02 97.136C3480.47 98.9817 3481.23 100.602 3482.3 101.996C3483.41 103.391 3484.7 104.56 3486.18 105.503C3487.65 106.447 3489.29 107.164 3491.1 107.656C3492.9 108.108 3494.73 108.333 3496.57 108.333C3498.42 108.333 3500.16 108.231 3501.8 108.026C3503.48 107.78 3505.1 107.472 3506.66 107.103C3508.22 106.693 3509.74 106.241 3511.22 105.749C3512.69 105.216 3514.19 104.662 3515.71 104.088L3522.47 116.7C3520.14 118.136 3517.98 119.366 3516.01 120.392C3514.09 121.376 3512.14 122.197 3510.17 122.853C3508.2 123.509 3506.11 123.981 3503.89 124.268C3501.68 124.596 3499.1 124.76 3496.14 124.76C3490.61 124.76 3485.68 123.858 3481.38 122.053C3477.07 120.207 3473.44 117.726 3470.49 114.609C3467.58 111.491 3465.34 107.841 3463.78 103.657C3462.26 99.4739 3461.5 95.0442 3461.5 90.3684C3461.5 85.6926 3462.3 81.304 3463.9 77.2024C3465.54 73.1008 3467.84 69.5325 3470.79 66.4973C3473.75 63.4211 3477.28 61.0012 3481.38 59.2375C3485.48 57.4739 3490.03 56.592 3495.04 56.592C3500.04 56.592 3504.47 57.4329 3508.32 59.1145C3512.22 60.7551 3515.5 63.052 3518.17 66.0051C3520.83 68.9172 3522.88 72.3625 3524.32 76.3411C3525.76 80.2786 3526.54 84.5237 3526.66 89.0764C3526.78 90.1018 3526.84 91.1272 3526.84 92.1526C3526.88 93.137 3526.86 94.1624 3526.78 95.2288H3479.84ZM3494.54 71.9729C3492.25 71.9729 3490.28 72.26 3488.64 72.8342C3487.04 73.3674 3485.68 74.1262 3484.58 75.1106C3483.47 76.054 3482.59 77.1409 3481.93 78.3713C3481.27 79.6018 3480.76 80.8938 3480.39 82.2473H3507.03C3506.75 80.8528 3506.33 79.5403 3505.8 78.3098C3505.27 77.0793 3504.53 75.9924 3503.59 75.0491C3502.64 74.1057 3501.43 73.3674 3499.96 72.8342C3498.52 72.26 3496.72 71.9729 3494.54 71.9729Z" fill="#007FBB"/>
</svg>
