<svg width="1208" height="894" viewBox="0 0 1208 894" fill="none" xmlns="http://www.w3.org/2000/svg">
<mask id="mask0_106_331" style="mask-type:alpha" maskUnits="userSpaceOnUse" x="0" y="0" width="1208" height="894">
<rect x="0.828125" y="0.137695" width="1206.35" height="893.585" fill="url(#paint0_linear_106_331)"/>
</mask>
<g mask="url(#mask0_106_331)">
<path d="M700.076 413.259C700.076 523.553 689.201 623.373 671.636 695.591C662.851 731.708 652.406 760.865 640.845 780.969C629.241 801.148 616.713 811.871 603.878 811.871C591.043 811.871 578.515 801.148 566.911 780.969C555.35 760.865 544.905 731.708 536.12 695.591C518.554 623.373 507.68 523.553 507.68 413.259C507.68 302.964 518.554 203.144 536.12 130.927C544.905 94.8098 555.35 65.6524 566.911 45.5485C578.515 25.3696 591.043 14.6465 603.878 14.6465C616.713 14.6465 629.241 25.3696 640.845 45.5485C652.406 65.6524 662.851 94.8098 671.636 130.927C689.201 203.144 700.076 302.964 700.076 413.259Z" stroke="#FE523A" stroke-width="2"/>
<path opacity="0.2" d="M1189.7 413.259C1189.7 523.18 1124.27 622.809 1018.26 695.001C912.253 767.189 765.751 811.871 603.88 811.871C442.009 811.871 295.507 767.189 189.5 695.001C83.4886 622.809 18.0625 523.18 18.0625 413.259C18.0625 303.337 83.4886 203.709 189.5 131.517C295.507 59.3282 442.009 14.6465 603.88 14.6465C765.751 14.6465 912.253 59.3282 1018.26 131.517C1124.27 203.709 1189.7 303.337 1189.7 413.259Z" stroke="#262261" stroke-width="2"/>
<path opacity="0.2" d="M858.482 413.259C858.482 523.447 829.913 623.156 783.775 695.288C737.63 767.431 674.003 811.871 603.878 811.871C533.753 811.871 470.126 767.431 423.981 695.288C377.843 623.156 349.273 523.447 349.273 413.259C349.273 303.071 377.843 203.361 423.981 131.229C470.126 59.086 533.753 14.6465 603.878 14.6465C674.003 14.6465 737.63 59.086 783.775 131.229C829.913 203.361 858.482 303.071 858.482 413.259Z" stroke="#0068FE" stroke-width="2"/>
<path opacity="0.2" d="M998.893 413.259C998.893 633.415 822.031 811.871 603.88 811.871C385.729 811.871 208.867 633.415 208.867 413.259C208.867 193.103 385.729 14.6465 603.88 14.6465C822.031 14.6465 998.893 193.103 998.893 413.259Z" stroke="#FE523A" stroke-width="2"/>
</g>
<defs>
<linearGradient id="paint0_linear_106_331" x1="604.004" y1="-77.6477" x2="604.004" y2="330.252" gradientUnits="userSpaceOnUse">
<stop stop-color="#D9D9D9"/>
<stop offset="1" stop-color="#737373" stop-opacity="0"/>
</linearGradient>
</defs>
</svg>
