<svg width="113" height="13" viewBox="0 0 113 13" fill="none" xmlns="http://www.w3.org/2000/svg">
<path d="M7.67116 3.60866C7.60298 3.03291 7.32647 2.58594 6.84162 2.26776C6.35677 1.94957 5.76207 1.79048 5.05753 1.79048C4.54238 1.79048 4.09162 1.87382 3.70526 2.04048C3.32268 2.20715 3.02344 2.43632 2.80753 2.72798C2.59541 3.01965 2.48935 3.35109 2.48935 3.7223C2.48935 4.03291 2.56321 4.29995 2.71094 4.52344C2.86245 4.74313 3.05563 4.92685 3.29048 5.07457C3.52533 5.21851 3.77154 5.33783 4.02912 5.43253C4.2867 5.52344 4.52344 5.5973 4.73935 5.65412L5.92116 5.9723C6.2242 6.05185 6.56132 6.16169 6.93253 6.30185C7.30753 6.442 7.66548 6.63329 8.00639 6.87571C8.35109 7.11435 8.63518 7.42116 8.85867 7.79616C9.08215 8.17116 9.19389 8.63139 9.19389 9.17685C9.19389 9.80563 9.02912 10.3738 8.69957 10.8814C8.37382 11.389 7.89654 11.7924 7.26776 12.0916C6.64276 12.3909 5.88329 12.5405 4.98935 12.5405C4.15601 12.5405 3.43442 12.406 2.82457 12.1371C2.21851 11.8681 1.74124 11.4931 1.39276 11.0121C1.04806 10.531 0.852983 9.9723 0.807528 9.33594H2.26207C2.29995 9.77533 2.44768 10.139 2.70526 10.4268C2.96662 10.7109 3.29616 10.9231 3.69389 11.0632C4.09541 11.1996 4.52723 11.2678 4.98935 11.2678C5.52723 11.2678 6.01018 11.1806 6.43821 11.0064C6.86624 10.8284 7.20526 10.5821 7.45526 10.2678C7.70526 9.94957 7.83026 9.57836 7.83026 9.15412C7.83026 8.76776 7.7223 8.45336 7.50639 8.21094C7.29048 7.96851 7.00639 7.77154 6.65412 7.62003C6.30185 7.46851 5.92116 7.33594 5.51207 7.2223L4.08026 6.81321C3.17116 6.55185 2.45147 6.17874 1.92116 5.69389C1.39086 5.20904 1.12571 4.57457 1.12571 3.79048C1.12571 3.13897 1.30185 2.57079 1.65412 2.08594C2.01018 1.5973 2.48745 1.21851 3.08594 0.949574C3.68821 0.676846 4.36056 0.540483 5.10298 0.540483C5.85298 0.540483 6.51965 0.674952 7.10298 0.943892C7.68632 1.20904 8.14844 1.57268 8.48935 2.0348C8.83404 2.49692 9.01586 3.02154 9.0348 3.60866H7.67116ZM21.3288 6.51776C21.3288 7.74503 21.1072 8.80563 20.6641 9.69957C20.2209 10.5935 19.6129 11.2829 18.8402 11.7678C18.0675 12.2526 17.1849 12.495 16.1925 12.495C15.2 12.495 14.3175 12.2526 13.5447 11.7678C12.772 11.2829 12.1641 10.5935 11.7209 9.69957C11.2777 8.80563 11.0561 7.74503 11.0561 6.51776C11.0561 5.29048 11.2777 4.22988 11.7209 3.33594C12.1641 2.442 12.772 1.7526 13.5447 1.26776C14.3175 0.782907 15.2 0.540483 16.1925 0.540483C17.1849 0.540483 18.0675 0.782907 18.8402 1.26776C19.6129 1.7526 20.2209 2.442 20.6641 3.33594C21.1072 4.22988 21.3288 5.29048 21.3288 6.51776ZM19.9652 6.51776C19.9652 5.51018 19.7966 4.6598 19.4595 3.96662C19.1262 3.27344 18.6735 2.74882 18.1016 2.39276C17.5334 2.03669 16.897 1.85866 16.1925 1.85866C15.4879 1.85866 14.8497 2.03669 14.2777 2.39276C13.7095 2.74882 13.2569 3.27344 12.9197 3.96662C12.5864 4.6598 12.4197 5.51018 12.4197 6.51776C12.4197 7.52533 12.5864 8.37571 12.9197 9.06889C13.2569 9.76207 13.7095 10.2867 14.2777 10.6428C14.8497 10.9988 15.4879 11.1768 16.1925 11.1768C16.897 11.1768 17.5334 10.9988 18.1016 10.6428C18.6735 10.2867 19.1262 9.76207 19.4595 9.06889C19.7966 8.37571 19.9652 7.52533 19.9652 6.51776ZM33.0618 4.33594H31.6527C31.5694 3.93063 31.4235 3.57457 31.2152 3.26776C31.0107 2.96094 30.7607 2.70336 30.4652 2.49503C30.1735 2.28291 29.8497 2.12382 29.4936 2.01776C29.1375 1.91169 28.7663 1.85866 28.38 1.85866C27.6754 1.85866 27.0372 2.03669 26.4652 2.39276C25.897 2.74882 25.4444 3.27344 25.1072 3.96662C24.7739 4.6598 24.6072 5.51018 24.6072 6.51776C24.6072 7.52533 24.7739 8.37571 25.1072 9.06889C25.4444 9.76207 25.897 10.2867 26.4652 10.6428C27.0372 10.9988 27.6754 11.1768 28.38 11.1768C28.7663 11.1768 29.1375 11.1238 29.4936 11.0178C29.8497 10.9117 30.1735 10.7545 30.4652 10.5462C30.7607 10.334 31.0107 10.0746 31.2152 9.76776C31.4235 9.45715 31.5694 9.10109 31.6527 8.69957H33.0618C32.9557 9.29427 32.7625 9.82647 32.4822 10.2962C32.2019 10.7659 31.8535 11.1655 31.4368 11.495C31.0201 11.8208 30.5523 12.0689 30.0334 12.2393C29.5182 12.4098 28.9671 12.495 28.38 12.495C27.3875 12.495 26.505 12.2526 25.7322 11.7678C24.9595 11.2829 24.3516 10.5935 23.9084 9.69957C23.4652 8.80563 23.2436 7.74503 23.2436 6.51776C23.2436 5.29048 23.4652 4.22988 23.9084 3.33594C24.3516 2.442 24.9595 1.7526 25.7322 1.26776C26.505 0.782907 27.3875 0.540483 28.38 0.540483C28.9671 0.540483 29.5182 0.62571 30.0334 0.796165C30.5523 0.966619 31.0201 1.21662 31.4368 1.54616C31.8535 1.87192 32.2019 2.26965 32.4822 2.73935C32.7625 3.20526 32.9557 3.73745 33.0618 4.33594ZM36.7479 0.699574V12.3359H35.3388V0.699574H36.7479ZM40.0504 12.3359H38.5732L42.8459 0.699574H44.3004L48.5732 12.3359H47.0959L43.6186 2.54048H43.5277L40.0504 12.3359ZM40.5959 7.79048H46.5504V9.04048H40.5959V7.79048ZM50.3857 12.3359V0.699574H51.7947V11.0859H57.2038V12.3359H50.3857ZM63.8857 0.699574H65.5675L69.522 10.3587H69.6584L73.6129 0.699574H75.2947V12.3359H73.9766V3.49503H73.8629L70.2266 12.3359H68.9538L65.3175 3.49503H65.2038V12.3359H63.8857V0.699574ZM78.12 12.3359V0.699574H85.1428V1.94957H79.5291V5.88139H84.7791V7.13139H79.5291V11.0859H85.2337V12.3359H78.12ZM91.2734 12.3359H87.6825V0.699574H91.4325C92.5613 0.699574 93.5272 0.932528 94.3303 1.39844C95.1333 1.86056 95.7488 2.52533 96.1768 3.39276C96.6049 4.25639 96.8189 5.29048 96.8189 6.49503C96.8189 7.70715 96.603 8.75071 96.1712 9.62571C95.7393 10.4969 95.1106 11.1674 94.2848 11.6371C93.459 12.103 92.4553 12.3359 91.2734 12.3359ZM89.0916 11.0859H91.1825C92.1446 11.0859 92.942 10.9003 93.5746 10.5291C94.2071 10.1579 94.6787 9.6295 94.9893 8.94389C95.3 8.25829 95.4553 7.442 95.4553 6.49503C95.4553 5.55563 95.3018 4.74692 94.995 4.06889C94.6882 3.38707 94.2299 2.86435 93.62 2.50071C93.0102 2.13329 92.2507 1.94957 91.3416 1.94957H89.0916V11.0859ZM100.592 0.699574V12.3359H99.1825V0.699574H100.592ZM103.894 12.3359H102.417L106.69 0.699574H108.144L112.417 12.3359H110.94L107.462 2.54048H107.371L103.894 12.3359ZM104.44 7.79048H110.394V9.04048H104.44V7.79048Z" fill="white" fill-opacity="0.5"/>
</svg>
