<svg width="793" height="310" viewBox="0 0 793 310" fill="none" xmlns="http://www.w3.org/2000/svg">
<path d="M302.057 278.217V269.587L395.548 299.313L489.999 269.587L489.04 278.217L395.548 309.381L302.057 278.217Z" fill="#CECECE" fill-opacity="0.95"/>
<path d="M395.548 238.423L302.057 269.587C301.29 269.844 364.225 289.831 395.548 299.792L489.999 269.587L395.548 238.423Z" fill="#D9D9D9"/>
<rect y="253.766" width="254.105" height="40.2733" rx="20.1366" fill="#333339"/>
<path d="M20.1362 279.466C19.3154 279.466 18.6162 279.243 18.0387 278.796C17.4612 278.346 17.0199 277.694 16.7147 276.84C16.4096 275.983 16.2571 274.948 16.2571 273.734C16.2571 272.529 16.4096 271.499 16.7147 270.645C17.0235 269.788 17.4666 269.134 18.0441 268.684C18.6253 268.23 19.3226 268.003 20.1362 268.003C20.9498 268.003 21.6454 268.23 22.2229 268.684C22.804 269.134 23.2472 269.788 23.5523 270.645C23.861 271.499 24.0154 272.529 24.0154 273.734C24.0154 274.948 23.8628 275.983 23.5577 276.84C23.2526 277.694 22.8113 278.346 22.2338 278.796C21.6563 279.243 20.9571 279.466 20.1362 279.466ZM20.1362 278.267C20.9498 278.267 21.5818 277.875 22.0322 277.091C22.4826 276.306 22.7078 275.187 22.7078 273.734C22.7078 272.768 22.6043 271.946 22.3972 271.266C22.1938 270.587 21.8996 270.07 21.5146 269.714C21.1333 269.358 20.6738 269.18 20.1362 269.18C19.3299 269.18 18.6997 269.577 18.2457 270.373C17.7917 271.165 17.5647 272.285 17.5647 273.734C17.5647 274.701 17.6664 275.522 17.8698 276.197C18.0732 276.873 18.3656 277.387 18.7469 277.739C19.1319 278.091 19.595 278.267 20.1362 278.267ZM29.5726 279.466C28.9333 279.466 28.3576 279.339 27.8455 279.085C27.3333 278.83 26.9229 278.482 26.6142 278.039C26.3054 277.595 26.1365 277.091 26.1075 276.524H27.4151C27.4659 277.029 27.6947 277.447 28.1015 277.777C28.512 278.104 29.0023 278.267 29.5726 278.267C30.0302 278.267 30.437 278.16 30.793 277.946C31.1525 277.732 31.434 277.437 31.6374 277.063C31.8445 276.686 31.948 276.259 31.948 275.783C31.948 275.296 31.8408 274.862 31.6265 274.481C31.4159 274.096 31.1253 273.793 30.7548 273.571C30.3843 273.349 29.9612 273.237 29.4854 273.233C29.144 273.23 28.7935 273.282 28.4339 273.391C28.0743 273.497 27.7783 273.633 27.5458 273.8L26.2818 273.647L26.9574 268.156H32.7543V269.354H28.0906L27.6984 272.645H27.7637C27.9926 272.463 28.2795 272.313 28.6246 272.193C28.9696 272.073 29.3292 272.013 29.7033 272.013C30.3862 272.013 30.9945 272.176 31.5285 272.503C32.066 272.826 32.4874 273.27 32.7925 273.833C33.1012 274.396 33.2556 275.038 33.2556 275.761C33.2556 276.473 33.0957 277.109 32.7761 277.668C32.4601 278.224 32.0243 278.663 31.4685 278.987C30.9128 279.306 30.2808 279.466 29.5726 279.466ZM35.9592 279.401C35.6905 279.401 35.4598 279.304 35.2673 279.112C35.0748 278.919 34.9786 278.689 34.9786 278.42C34.9786 278.151 35.0748 277.921 35.2673 277.728C35.4598 277.536 35.6905 277.439 35.9592 277.439C36.228 277.439 36.4587 277.536 36.6512 277.728C36.8437 277.921 36.9399 278.151 36.9399 278.42C36.9399 278.598 36.8945 278.761 36.8037 278.91C36.7165 279.059 36.5985 279.179 36.4496 279.27C36.3043 279.357 36.1408 279.401 35.9592 279.401ZM44.1942 279.313H42.7777L46.8748 268.156H48.2695L52.3666 279.313H50.95L47.6157 269.921H47.5285L44.1942 279.313ZM44.7173 274.955H50.427V276.154H44.7173V274.955ZM57.3299 279.488C56.5454 279.488 55.8698 279.303 55.3032 278.932C54.7365 278.562 54.3007 278.051 53.9956 277.401C53.6905 276.751 53.5379 276.008 53.5379 275.173C53.5379 274.323 53.6941 273.573 54.0065 272.923C54.3225 272.269 54.762 271.759 55.325 271.392C55.8916 271.021 56.5526 270.836 57.3081 270.836C57.8965 270.836 58.4268 270.945 58.899 271.163C59.3712 271.381 59.758 271.686 60.0595 272.078C60.3609 272.471 60.548 272.928 60.6206 273.451H59.3349C59.2368 273.07 59.0189 272.732 58.6811 272.438C58.3469 272.14 57.8965 271.991 57.3299 271.991C56.8287 271.991 56.3892 272.122 56.0114 272.383C55.6373 272.641 55.3449 273.006 55.1343 273.478C54.9272 273.947 54.8237 274.497 54.8237 275.129C54.8237 275.776 54.9254 276.339 55.1288 276.818C55.3359 277.298 55.6264 277.67 56.0005 277.935C56.3783 278.2 56.8214 278.333 57.3299 278.333C57.6641 278.333 57.9673 278.275 58.2398 278.158C58.5122 278.042 58.7428 277.875 58.9317 277.657C59.1206 277.439 59.2549 277.178 59.3349 276.873H60.6206C60.548 277.367 60.3682 277.812 60.0813 278.207C59.798 278.6 59.422 278.912 58.9535 279.145C58.4886 279.373 57.9474 279.488 57.3299 279.488ZM63.786 274.279V279.313H62.5003V268.156H63.786V272.253H63.895C64.0912 271.82 64.3854 271.477 64.7776 271.223C65.1735 270.965 65.7002 270.836 66.3576 270.836C66.9279 270.836 67.4273 270.95 67.8559 271.179C68.2845 271.404 68.6168 271.751 68.8529 272.22C69.0926 272.685 69.2125 273.277 69.2125 273.996V279.313H67.9267V274.083C67.9267 273.418 67.7542 272.905 67.4091 272.541C67.0677 272.174 66.5937 271.991 65.9871 271.991C65.5658 271.991 65.1881 272.08 64.8539 272.258C64.5234 272.436 64.2619 272.696 64.0694 273.037C63.8805 273.379 63.786 273.793 63.786 274.279ZM71.5648 279.313V270.945H72.8505V279.313H71.5648ZM72.2185 269.55C71.9679 269.55 71.7518 269.465 71.5702 269.294C71.3922 269.123 71.3032 268.918 71.3032 268.679C71.3032 268.439 71.3922 268.234 71.5702 268.063C71.7518 267.892 71.9679 267.807 72.2185 267.807C72.4692 267.807 72.6835 267.892 72.8614 268.063C73.043 268.234 73.1338 268.439 73.1338 268.679C73.1338 268.918 73.043 269.123 72.8614 269.294C72.6835 269.465 72.4692 269.55 72.2185 269.55ZM78.7142 279.488C77.9078 279.488 77.2123 279.31 76.6275 278.954C76.0464 278.594 75.5978 278.093 75.2818 277.45C74.9694 276.804 74.8133 276.052 74.8133 275.195C74.8133 274.337 74.9694 273.582 75.2818 272.928C75.5978 272.271 76.0373 271.759 76.6003 271.392C77.1669 271.021 77.8279 270.836 78.5834 270.836C79.0193 270.836 79.4497 270.909 79.8747 271.054C80.2996 271.199 80.6864 271.435 81.0351 271.762C81.3838 272.085 81.6617 272.514 81.8687 273.048C82.0757 273.582 82.1793 274.239 82.1793 275.02V275.565H75.7286V274.454H80.8717C80.8717 273.981 80.7772 273.56 80.5884 273.19C80.4031 272.819 80.138 272.527 79.7929 272.313C79.4515 272.098 79.0483 271.991 78.5834 271.991C78.0713 271.991 77.6282 272.118 77.2541 272.372C76.8836 272.623 76.5985 272.95 76.3987 273.353C76.1989 273.756 76.099 274.189 76.099 274.65V275.391C76.099 276.023 76.208 276.558 76.4259 276.998C76.6475 277.434 76.9544 277.766 77.3467 277.995C77.739 278.22 78.1948 278.333 78.7142 278.333C79.052 278.333 79.3571 278.286 79.6295 278.191C79.9055 278.093 80.1434 277.948 80.3432 277.755C80.543 277.559 80.6973 277.316 80.8063 277.025L82.0485 277.374C81.9177 277.795 81.698 278.166 81.3893 278.485C81.0805 278.801 80.6992 279.048 80.2451 279.226C79.7911 279.401 79.2808 279.488 78.7142 279.488ZM90.7234 270.945L87.6288 279.313H86.3213L83.2267 270.945H84.6214L86.9315 277.614H87.0186L89.3287 270.945H90.7234ZM95.6296 279.488C94.8232 279.488 94.1277 279.31 93.5429 278.954C92.9618 278.594 92.5132 278.093 92.1972 277.45C91.8848 276.804 91.7286 276.052 91.7286 275.195C91.7286 274.337 91.8848 273.582 92.1972 272.928C92.5132 272.271 92.9527 271.759 93.5157 271.392C94.0823 271.021 94.7433 270.836 95.4988 270.836C95.9347 270.836 96.3651 270.909 96.79 271.054C97.215 271.199 97.6018 271.435 97.9505 271.762C98.2992 272.085 98.5771 272.514 98.7841 273.048C98.9911 273.582 99.0946 274.239 99.0946 275.02V275.565H92.6439V274.454H97.7871C97.7871 273.981 97.6926 273.56 97.5038 273.19C97.3185 272.819 97.0534 272.527 96.7083 272.313C96.3669 272.098 95.9637 271.991 95.4988 271.991C94.9867 271.991 94.5436 272.118 94.1694 272.372C93.799 272.623 93.5138 272.95 93.3141 273.353C93.1143 273.756 93.0144 274.189 93.0144 274.65V275.391C93.0144 276.023 93.1234 276.558 93.3413 276.998C93.5629 277.434 93.8698 277.766 94.2621 277.995C94.6543 278.22 95.1102 278.333 95.6296 278.333C95.9674 278.333 96.2725 278.286 96.5449 278.191C96.8209 278.093 97.0588 277.948 97.2586 277.755C97.4584 277.559 97.6127 277.316 97.7217 277.025L98.9639 277.374C98.8331 277.795 98.6134 278.166 98.3046 278.485C97.9959 278.801 97.6145 279.048 97.1605 279.226C96.7065 279.401 96.1962 279.488 95.6296 279.488ZM104.581 268.156H106.128L109.223 273.364H109.354L112.448 268.156H113.996L109.964 274.715V279.313H108.613V274.715L104.581 268.156ZM117.785 279.488C117.029 279.488 116.366 279.308 115.796 278.948C115.23 278.589 114.786 278.086 114.467 277.439C114.151 276.793 113.993 276.037 113.993 275.173C113.993 274.301 114.151 273.54 114.467 272.89C114.786 272.24 115.23 271.735 115.796 271.375C116.366 271.016 117.029 270.836 117.785 270.836C118.54 270.836 119.201 271.016 119.768 271.375C120.338 271.735 120.781 272.24 121.097 272.89C121.417 273.54 121.577 274.301 121.577 275.173C121.577 276.037 121.417 276.793 121.097 277.439C120.781 278.086 120.338 278.589 119.768 278.948C119.201 279.308 118.54 279.488 117.785 279.488ZM117.785 278.333C118.359 278.333 118.831 278.186 119.201 277.891C119.572 277.597 119.846 277.21 120.024 276.731C120.202 276.252 120.291 275.732 120.291 275.173C120.291 274.613 120.202 274.092 120.024 273.609C119.846 273.126 119.572 272.736 119.201 272.438C118.831 272.14 118.359 271.991 117.785 271.991C117.211 271.991 116.739 272.14 116.368 272.438C115.998 272.736 115.724 273.126 115.546 273.609C115.368 274.092 115.279 274.613 115.279 275.173C115.279 275.732 115.368 276.252 115.546 276.731C115.724 277.21 115.998 277.597 116.368 277.891C116.739 278.186 117.211 278.333 117.785 278.333ZM128.813 275.892V270.945H130.099V279.313H128.813V277.897H128.726C128.53 278.322 128.225 278.683 127.811 278.981C127.397 279.275 126.874 279.422 126.242 279.422C125.719 279.422 125.254 279.308 124.847 279.079C124.44 278.847 124.121 278.498 123.888 278.033C123.656 277.565 123.539 276.974 123.539 276.262V270.945H124.825V276.175C124.825 276.786 124.996 277.272 125.337 277.635C125.682 277.999 126.122 278.18 126.656 278.18C126.975 278.18 127.301 278.099 127.631 277.935C127.965 277.772 128.245 277.521 128.47 277.183C128.699 276.845 128.813 276.415 128.813 275.892ZM132.454 279.313V270.945H133.696V272.209H133.783C133.936 271.795 134.212 271.459 134.612 271.201C135.011 270.943 135.462 270.814 135.963 270.814C136.057 270.814 136.175 270.816 136.317 270.82C136.459 270.823 136.566 270.829 136.638 270.836V272.144C136.595 272.133 136.495 272.116 136.339 272.095C136.186 272.069 136.025 272.056 135.854 272.056C135.447 272.056 135.084 272.142 134.764 272.313C134.448 272.48 134.198 272.712 134.012 273.01C133.831 273.304 133.74 273.64 133.74 274.018V279.313H132.454ZM142.652 279.313V268.156H146.422C147.297 268.156 148.013 268.314 148.569 268.63C149.128 268.942 149.542 269.365 149.811 269.899C150.08 270.433 150.214 271.029 150.214 271.686C150.214 272.343 150.08 272.941 149.811 273.478C149.546 274.016 149.135 274.445 148.579 274.764C148.024 275.08 147.312 275.238 146.444 275.238H143.741V274.04H146.4C147 274.04 147.481 273.936 147.844 273.729C148.207 273.522 148.471 273.242 148.634 272.89C148.801 272.534 148.885 272.133 148.885 271.686C148.885 271.239 148.801 270.84 148.634 270.487C148.471 270.135 148.205 269.859 147.839 269.659C147.472 269.456 146.985 269.354 146.378 269.354H144.003V279.313H142.652ZM152.216 279.313V270.945H153.458V272.209H153.546C153.698 271.795 153.974 271.459 154.374 271.201C154.773 270.943 155.224 270.814 155.725 270.814C155.819 270.814 155.937 270.816 156.079 270.82C156.221 270.823 156.328 270.829 156.4 270.836V272.144C156.357 272.133 156.257 272.116 156.101 272.095C155.948 272.069 155.787 272.056 155.616 272.056C155.209 272.056 154.846 272.142 154.526 272.313C154.21 272.48 153.96 272.712 153.774 273.01C153.593 273.304 153.502 273.64 153.502 274.018V279.313H152.216ZM161.07 279.488C160.314 279.488 159.651 279.308 159.081 278.948C158.514 278.589 158.071 278.086 157.752 277.439C157.436 276.793 157.278 276.037 157.278 275.173C157.278 274.301 157.436 273.54 157.752 272.89C158.071 272.24 158.514 271.735 159.081 271.375C159.651 271.016 160.314 270.836 161.07 270.836C161.825 270.836 162.486 271.016 163.053 271.375C163.623 271.735 164.066 272.24 164.382 272.89C164.702 273.54 164.862 274.301 164.862 275.173C164.862 276.037 164.702 276.793 164.382 277.439C164.066 278.086 163.623 278.589 163.053 278.948C162.486 279.308 161.825 279.488 161.07 279.488ZM161.07 278.333C161.643 278.333 162.116 278.186 162.486 277.891C162.857 277.597 163.131 277.21 163.309 276.731C163.487 276.252 163.576 275.732 163.576 275.173C163.576 274.613 163.487 274.092 163.309 273.609C163.131 273.126 162.857 272.736 162.486 272.438C162.116 272.14 161.643 271.991 161.07 271.991C160.496 271.991 160.023 272.14 159.653 272.438C159.283 272.736 159.008 273.126 158.83 273.609C158.652 274.092 158.563 274.613 158.563 275.173C158.563 275.732 158.652 276.252 158.83 276.731C159.008 277.21 159.283 277.597 159.653 277.891C160.023 278.186 160.496 278.333 161.07 278.333ZM166.824 270.945H168.11V279.924C168.11 280.439 168.021 280.886 167.843 281.264C167.669 281.642 167.404 281.934 167.048 282.141C166.695 282.348 166.25 282.452 165.713 282.452C165.669 282.452 165.626 282.452 165.582 282.452C165.538 282.452 165.495 282.452 165.451 282.452V281.253C165.495 281.253 165.535 281.253 165.571 281.253C165.607 281.253 165.647 281.253 165.691 281.253C166.083 281.253 166.37 281.137 166.552 280.904C166.733 280.676 166.824 280.349 166.824 279.924V270.945ZM167.456 269.55C167.206 269.55 166.99 269.465 166.808 269.294C166.63 269.123 166.541 268.918 166.541 268.679C166.541 268.439 166.63 268.234 166.808 268.063C166.99 267.892 167.206 267.807 167.456 267.807C167.707 267.807 167.921 267.892 168.099 268.063C168.281 268.234 168.372 268.439 168.372 268.679C168.372 268.918 168.281 269.123 168.099 269.294C167.921 269.465 167.707 269.55 167.456 269.55ZM173.974 279.488C173.167 279.488 172.472 279.31 171.887 278.954C171.306 278.594 170.857 278.093 170.541 277.45C170.229 276.804 170.073 276.052 170.073 275.195C170.073 274.337 170.229 273.582 170.541 272.928C170.857 272.271 171.297 271.759 171.86 271.392C172.426 271.021 173.087 270.836 173.843 270.836C174.279 270.836 174.709 270.909 175.134 271.054C175.559 271.199 175.946 271.435 176.295 271.762C176.643 272.085 176.921 272.514 177.128 273.048C177.335 273.582 177.439 274.239 177.439 275.02V275.565H170.988V274.454H176.131C176.131 273.981 176.037 273.56 175.848 273.19C175.663 272.819 175.397 272.527 175.052 272.313C174.711 272.098 174.308 271.991 173.843 271.991C173.331 271.991 172.888 272.118 172.514 272.372C172.143 272.623 171.858 272.95 171.658 273.353C171.458 273.756 171.359 274.189 171.359 274.65V275.391C171.359 276.023 171.467 276.558 171.685 276.998C171.907 277.434 172.214 277.766 172.606 277.995C172.998 278.22 173.454 278.333 173.974 278.333C174.311 278.333 174.617 278.286 174.889 278.191C175.165 278.093 175.403 277.948 175.603 277.755C175.802 277.559 175.957 277.316 176.066 277.025L177.308 277.374C177.177 277.795 176.957 278.166 176.649 278.485C176.34 278.801 175.959 279.048 175.505 279.226C175.051 279.401 174.54 279.488 173.974 279.488ZM182.794 279.488C182.01 279.488 181.334 279.303 180.768 278.932C180.201 278.562 179.765 278.051 179.46 277.401C179.155 276.751 179.002 276.008 179.002 275.173C179.002 274.323 179.159 273.573 179.471 272.923C179.787 272.269 180.226 271.759 180.789 271.392C181.356 271.021 182.017 270.836 182.773 270.836C183.361 270.836 183.891 270.945 184.363 271.163C184.836 271.381 185.222 271.686 185.524 272.078C185.825 272.471 186.012 272.928 186.085 273.451H184.799C184.701 273.07 184.483 272.732 184.146 272.438C183.811 272.14 183.361 271.991 182.794 271.991C182.293 271.991 181.854 272.122 181.476 272.383C181.102 272.641 180.809 273.006 180.599 273.478C180.392 273.947 180.288 274.497 180.288 275.129C180.288 275.776 180.39 276.339 180.593 276.818C180.8 277.298 181.091 277.67 181.465 277.935C181.843 278.2 182.286 278.333 182.794 278.333C183.129 278.333 183.432 278.275 183.704 278.158C183.977 278.042 184.207 277.875 184.396 277.657C184.585 277.439 184.719 277.178 184.799 276.873H186.085C186.012 277.367 185.833 277.812 185.546 278.207C185.262 278.6 184.886 278.912 184.418 279.145C183.953 279.373 183.412 279.488 182.794 279.488ZM191.604 270.945V272.035H187.267V270.945H191.604ZM188.531 268.94H189.817V276.916C189.817 277.279 189.87 277.552 189.975 277.733C190.084 277.911 190.222 278.031 190.389 278.093C190.56 278.151 190.74 278.18 190.929 278.18C191.07 278.18 191.186 278.173 191.277 278.158C191.368 278.14 191.441 278.126 191.495 278.115L191.757 279.27C191.67 279.303 191.548 279.335 191.392 279.368C191.235 279.404 191.038 279.422 190.798 279.422C190.435 279.422 190.079 279.344 189.73 279.188C189.385 279.032 189.098 278.794 188.869 278.474C188.644 278.155 188.531 277.752 188.531 277.265V268.94ZM205.655 271.642C205.535 271.276 205.377 270.947 205.181 270.656C204.989 270.362 204.758 270.111 204.489 269.904C204.224 269.697 203.923 269.539 203.585 269.43C203.247 269.321 202.877 269.267 202.473 269.267C201.812 269.267 201.211 269.438 200.67 269.779C200.129 270.121 199.698 270.624 199.379 271.288C199.059 271.953 198.899 272.768 198.899 273.734C198.899 274.701 199.061 275.516 199.384 276.181C199.707 276.845 200.145 277.348 200.697 277.69C201.249 278.031 201.87 278.202 202.561 278.202C203.2 278.202 203.763 278.066 204.249 277.793C204.74 277.517 205.121 277.129 205.394 276.628C205.67 276.123 205.808 275.529 205.808 274.846L206.222 274.933H202.866V273.734H207.115V274.933C207.115 275.852 206.919 276.651 206.527 277.33C206.138 278.01 205.601 278.536 204.914 278.91C204.231 279.281 203.447 279.466 202.561 279.466C201.573 279.466 200.704 279.234 199.956 278.769C199.212 278.304 198.631 277.643 198.213 276.786C197.799 275.928 197.592 274.911 197.592 273.734C197.592 272.852 197.71 272.058 197.946 271.354C198.186 270.645 198.523 270.042 198.959 269.545C199.395 269.047 199.911 268.666 200.507 268.401C201.102 268.136 201.758 268.003 202.473 268.003C203.062 268.003 203.61 268.092 204.119 268.27C204.631 268.444 205.087 268.693 205.486 269.016C205.889 269.336 206.225 269.719 206.494 270.166C206.763 270.609 206.948 271.101 207.05 271.642H205.655ZM212.655 279.488C211.899 279.488 211.236 279.308 210.666 278.948C210.099 278.589 209.656 278.086 209.337 277.439C209.021 276.793 208.863 276.037 208.863 275.173C208.863 274.301 209.021 273.54 209.337 272.89C209.656 272.24 210.099 271.735 210.666 271.375C211.236 271.016 211.899 270.836 212.655 270.836C213.41 270.836 214.071 271.016 214.638 271.375C215.208 271.735 215.651 272.24 215.967 272.89C216.287 273.54 216.447 274.301 216.447 275.173C216.447 276.037 216.287 276.793 215.967 277.439C215.651 278.086 215.208 278.589 214.638 278.948C214.071 279.308 213.41 279.488 212.655 279.488ZM212.655 278.333C213.229 278.333 213.701 278.186 214.071 277.891C214.442 277.597 214.716 277.21 214.894 276.731C215.072 276.252 215.161 275.732 215.161 275.173C215.161 274.613 215.072 274.092 214.894 273.609C214.716 273.126 214.442 272.736 214.071 272.438C213.701 272.14 213.229 271.991 212.655 271.991C212.081 271.991 211.609 272.14 211.238 272.438C210.868 272.736 210.593 273.126 210.415 273.609C210.238 274.092 210.149 274.613 210.149 275.173C210.149 275.732 210.238 276.252 210.415 276.731C210.593 277.21 210.868 277.597 211.238 277.891C211.609 278.186 212.081 278.333 212.655 278.333ZM220.872 279.51C220.342 279.51 219.86 279.41 219.428 279.21C218.996 279.007 218.653 278.714 218.398 278.333C218.144 277.948 218.017 277.483 218.017 276.938C218.017 276.459 218.112 276.07 218.3 275.772C218.489 275.471 218.742 275.235 219.058 275.064C219.374 274.893 219.722 274.766 220.104 274.682C220.489 274.595 220.876 274.526 221.264 274.475C221.773 274.41 222.185 274.361 222.501 274.328C222.821 274.292 223.053 274.232 223.198 274.149C223.347 274.065 223.422 273.92 223.422 273.713V273.669C223.422 273.132 223.275 272.714 222.98 272.416C222.69 272.118 222.249 271.969 221.657 271.969C221.043 271.969 220.561 272.104 220.213 272.372C219.864 272.641 219.619 272.928 219.477 273.233L218.257 272.797C218.475 272.289 218.765 271.893 219.129 271.61C219.495 271.323 219.895 271.123 220.327 271.01C220.763 270.894 221.192 270.836 221.613 270.836C221.882 270.836 222.19 270.869 222.539 270.934C222.891 270.996 223.231 271.125 223.558 271.321C223.888 271.517 224.163 271.813 224.381 272.209C224.599 272.605 224.708 273.135 224.708 273.8V279.313H223.422V278.18H223.356C223.269 278.362 223.124 278.556 222.921 278.763C222.717 278.97 222.447 279.146 222.109 279.292C221.771 279.437 221.359 279.51 220.872 279.51ZM221.068 278.355C221.577 278.355 222.005 278.255 222.354 278.055C222.706 277.855 222.971 277.597 223.149 277.281C223.331 276.965 223.422 276.633 223.422 276.284V275.107C223.367 275.173 223.247 275.233 223.062 275.287C222.881 275.338 222.67 275.383 222.43 275.423C222.194 275.46 221.963 275.492 221.738 275.522C221.517 275.547 221.337 275.569 221.199 275.587C220.865 275.63 220.552 275.701 220.262 275.799C219.975 275.894 219.742 276.037 219.564 276.23C219.39 276.419 219.303 276.677 219.303 277.003C219.303 277.45 219.468 277.788 219.799 278.017C220.133 278.242 220.556 278.355 221.068 278.355ZM228.34 268.156V279.313H227.054V268.156H228.34ZM236.623 272.819L235.468 273.146C235.395 272.954 235.288 272.767 235.146 272.585C235.008 272.4 234.819 272.247 234.58 272.127C234.34 272.007 234.033 271.947 233.659 271.947C233.147 271.947 232.72 272.066 232.379 272.302C232.041 272.534 231.872 272.83 231.872 273.19C231.872 273.509 231.988 273.762 232.221 273.947C232.453 274.132 232.816 274.287 233.31 274.41L234.552 274.715C235.301 274.897 235.858 275.175 236.225 275.549C236.592 275.919 236.775 276.397 236.775 276.982C236.775 277.461 236.637 277.89 236.361 278.267C236.089 278.645 235.708 278.943 235.217 279.161C234.727 279.379 234.157 279.488 233.506 279.488C232.653 279.488 231.946 279.303 231.387 278.932C230.828 278.562 230.474 278.02 230.325 277.309L231.545 277.003C231.661 277.454 231.881 277.792 232.204 278.017C232.531 278.242 232.958 278.355 233.485 278.355C234.084 278.355 234.56 278.227 234.912 277.973C235.268 277.715 235.446 277.407 235.446 277.047C235.446 276.756 235.344 276.513 235.141 276.317C234.937 276.117 234.625 275.968 234.204 275.87L232.809 275.543C232.043 275.362 231.48 275.08 231.12 274.699C230.764 274.314 230.586 273.833 230.586 273.255C230.586 272.783 230.719 272.365 230.984 272.002C231.253 271.639 231.618 271.354 232.079 271.147C232.544 270.94 233.071 270.836 233.659 270.836C234.487 270.836 235.137 271.018 235.609 271.381C236.085 271.744 236.423 272.224 236.623 272.819Z" fill="#FAFAFA"/>
<path d="M254.105 273.902H302.05" stroke="white" stroke-width="0.958888" stroke-linecap="round" stroke-dasharray="1.92 1.92"/>
<rect x="575.333" y="194.314" width="216.709" height="40.2733" rx="20.1366" fill="#333339"/>
<path d="M595.469 220.015C594.648 220.015 593.949 219.791 593.372 219.345C592.794 218.894 592.353 218.242 592.048 217.389C591.743 216.532 591.59 215.496 591.59 214.283C591.59 213.077 591.743 212.048 592.048 211.194C592.356 210.337 592.8 209.683 593.377 209.233C593.958 208.779 594.656 208.552 595.469 208.552C596.283 208.552 596.978 208.779 597.556 209.233C598.137 209.683 598.58 210.337 598.885 211.194C599.194 212.048 599.348 213.077 599.348 214.283C599.348 215.496 599.196 216.532 598.891 217.389C598.586 218.242 598.144 218.894 597.567 219.345C596.989 219.791 596.29 220.015 595.469 220.015ZM595.469 218.816C596.283 218.816 596.915 218.424 597.365 217.639C597.816 216.855 598.041 215.736 598.041 214.283C598.041 213.317 597.937 212.494 597.73 211.815C597.527 211.136 597.233 210.618 596.848 210.263C596.466 209.907 596.007 209.729 595.469 209.729C594.663 209.729 594.033 210.126 593.579 210.922C593.125 211.714 592.898 212.834 592.898 214.283C592.898 215.249 592.999 216.07 593.203 216.746C593.406 217.421 593.699 217.935 594.08 218.288C594.465 218.64 594.928 218.816 595.469 218.816ZM601.157 217.574V216.463L606.061 208.704H606.867V210.426H606.322L602.617 216.288V216.375H609.221V217.574H601.157ZM606.409 219.862V217.236V216.719V208.704H607.695V219.862H606.409ZM611.697 219.949C611.428 219.949 611.197 219.853 611.005 219.661C610.812 219.468 610.716 219.238 610.716 218.969C610.716 218.7 610.812 218.469 611.005 218.277C611.197 218.084 611.428 217.988 611.697 217.988C611.966 217.988 612.196 218.084 612.389 218.277C612.581 218.469 612.677 218.7 612.677 218.969C612.677 219.147 612.632 219.31 612.541 219.459C612.454 219.608 612.336 219.728 612.187 219.819C612.042 219.906 611.878 219.949 611.697 219.949ZM619.474 219.862V208.704H620.825V218.664H626.012V219.862H619.474ZM631.438 220.037C630.632 220.037 629.937 219.859 629.352 219.503C628.771 219.143 628.322 218.642 628.006 217.999C627.694 217.352 627.537 216.601 627.537 215.743C627.537 214.886 627.694 214.131 628.006 213.477C628.322 212.82 628.762 212.307 629.325 211.941C629.891 211.57 630.552 211.385 631.308 211.385C631.744 211.385 632.174 211.458 632.599 211.603C633.024 211.748 633.411 211.984 633.759 212.311C634.108 212.634 634.386 213.063 634.593 213.597C634.8 214.131 634.903 214.788 634.903 215.569V216.114H628.453V215.002H633.596C633.596 214.53 633.501 214.109 633.313 213.738C633.127 213.368 632.862 213.076 632.517 212.861C632.176 212.647 631.773 212.54 631.308 212.54C630.796 212.54 630.352 212.667 629.978 212.921C629.608 213.172 629.323 213.499 629.123 213.902C628.923 214.305 628.823 214.737 628.823 215.199V215.94C628.823 216.572 628.932 217.107 629.15 217.547C629.372 217.983 629.679 218.315 630.071 218.544C630.463 218.769 630.919 218.882 631.438 218.882C631.776 218.882 632.081 218.834 632.354 218.74C632.63 218.642 632.868 218.497 633.067 218.304C633.267 218.108 633.422 217.865 633.531 217.574L634.773 217.923C634.642 218.344 634.422 218.715 634.114 219.034C633.805 219.35 633.423 219.597 632.969 219.775C632.515 219.949 632.005 220.037 631.438 220.037ZM639.322 220.058C638.792 220.058 638.31 219.959 637.878 219.759C637.446 219.555 637.103 219.263 636.849 218.882C636.594 218.497 636.467 218.032 636.467 217.487C636.467 217.007 636.562 216.619 636.75 216.321C636.939 216.019 637.192 215.783 637.508 215.613C637.824 215.442 638.172 215.315 638.554 215.231C638.939 215.144 639.326 215.075 639.714 215.024C640.223 214.959 640.635 214.91 640.951 214.877C641.271 214.841 641.503 214.781 641.648 214.697C641.797 214.614 641.872 214.469 641.872 214.262V214.218C641.872 213.68 641.725 213.263 641.43 212.965C641.14 212.667 640.699 212.518 640.107 212.518C639.493 212.518 639.011 212.652 638.663 212.921C638.314 213.19 638.069 213.477 637.927 213.782L636.707 213.346C636.925 212.838 637.215 212.442 637.579 212.159C637.945 211.872 638.345 211.672 638.777 211.559C639.213 211.443 639.642 211.385 640.063 211.385C640.332 211.385 640.64 211.418 640.989 211.483C641.341 211.545 641.681 211.674 642.008 211.87C642.339 212.066 642.613 212.362 642.831 212.758C643.049 213.154 643.158 213.684 643.158 214.349V219.862H641.872V218.729H641.806C641.719 218.911 641.574 219.105 641.371 219.312C641.167 219.519 640.897 219.695 640.559 219.841C640.221 219.986 639.809 220.058 639.322 220.058ZM639.518 218.903C640.027 218.903 640.455 218.804 640.804 218.604C641.156 218.404 641.421 218.146 641.599 217.83C641.781 217.514 641.872 217.182 641.872 216.833V215.656C641.817 215.722 641.697 215.782 641.512 215.836C641.331 215.887 641.12 215.932 640.88 215.972C640.644 216.009 640.413 216.041 640.188 216.07C639.967 216.096 639.787 216.118 639.649 216.136C639.315 216.179 639.002 216.25 638.712 216.348C638.425 216.443 638.192 216.586 638.014 216.779C637.84 216.967 637.753 217.225 637.753 217.552C637.753 217.999 637.918 218.337 638.249 218.566C638.583 218.791 639.006 218.903 639.518 218.903ZM648.664 220.037C647.967 220.037 647.351 219.86 646.817 219.508C646.283 219.152 645.866 218.651 645.564 218.004C645.263 217.354 645.112 216.586 645.112 215.7C645.112 214.821 645.263 214.058 645.564 213.412C645.866 212.765 646.285 212.266 646.823 211.913C647.36 211.561 647.982 211.385 648.686 211.385C649.231 211.385 649.661 211.476 649.977 211.657C650.297 211.835 650.54 212.039 650.707 212.267C650.878 212.493 651.011 212.678 651.105 212.823H651.214V208.704H652.5V219.862H651.258V218.577H651.105C651.011 218.729 650.876 218.922 650.702 219.154C650.528 219.383 650.279 219.588 649.956 219.77C649.632 219.948 649.202 220.037 648.664 220.037ZM648.839 218.882C649.354 218.882 649.79 218.747 650.146 218.478C650.502 218.206 650.773 217.83 650.958 217.351C651.143 216.868 651.236 216.31 651.236 215.678C651.236 215.053 651.145 214.507 650.963 214.038C650.782 213.566 650.513 213.199 650.157 212.938C649.801 212.672 649.362 212.54 648.839 212.54C648.294 212.54 647.84 212.68 647.477 212.959C647.117 213.235 646.846 213.611 646.665 214.087C646.487 214.559 646.398 215.09 646.398 215.678C646.398 216.274 646.489 216.815 646.67 217.302C646.856 217.785 647.128 218.17 647.488 218.457C647.851 218.74 648.301 218.882 648.839 218.882ZM659.523 219.862V208.704H666.257V209.903H660.874V213.673H665.908V214.872H660.874V218.664H666.344V219.862H659.523ZM669.477 211.494L671.482 214.915L673.486 211.494H674.968L672.266 215.678L674.968 219.862H673.486L671.482 216.615L669.477 219.862H667.995L670.653 215.678L667.995 211.494H669.477ZM680.442 211.494V212.583H676.106V211.494H680.442ZM677.37 209.489H678.655V217.465C678.655 217.828 678.708 218.101 678.813 218.282C678.922 218.46 679.06 218.58 679.228 218.642C679.398 218.7 679.578 218.729 679.767 218.729C679.909 218.729 680.025 218.722 680.116 218.707C680.206 218.689 680.279 218.675 680.334 218.664L680.595 219.819C680.508 219.851 680.386 219.884 680.23 219.917C680.074 219.953 679.876 219.971 679.636 219.971C679.273 219.971 678.917 219.893 678.568 219.737C678.223 219.581 677.936 219.343 677.707 219.023C677.482 218.704 677.37 218.3 677.37 217.814V209.489ZM685.795 220.037C684.989 220.037 684.293 219.859 683.709 219.503C683.128 219.143 682.679 218.642 682.363 217.999C682.051 217.352 681.894 216.601 681.894 215.743C681.894 214.886 682.051 214.131 682.363 213.477C682.679 212.82 683.118 212.307 683.681 211.941C684.248 211.57 684.909 211.385 685.665 211.385C686.1 211.385 686.531 211.458 686.956 211.603C687.381 211.748 687.768 211.984 688.116 212.311C688.465 212.634 688.743 213.063 688.95 213.597C689.157 214.131 689.26 214.788 689.26 215.569V216.114H682.81V215.002H687.953C687.953 214.53 687.858 214.109 687.67 213.738C687.484 213.368 687.219 213.076 686.874 212.861C686.533 212.647 686.13 212.54 685.665 212.54C685.152 212.54 684.709 212.667 684.335 212.921C683.965 213.172 683.68 213.499 683.48 213.902C683.28 214.305 683.18 214.737 683.18 215.199V215.94C683.18 216.572 683.289 217.107 683.507 217.547C683.729 217.983 684.036 218.315 684.428 218.544C684.82 218.769 685.276 218.882 685.795 218.882C686.133 218.882 686.438 218.834 686.711 218.74C686.987 218.642 687.225 218.497 687.424 218.304C687.624 218.108 687.779 217.865 687.887 217.574L689.13 217.923C688.999 218.344 688.779 218.715 688.47 219.034C688.162 219.35 687.78 219.597 687.326 219.775C686.872 219.949 686.362 220.037 685.795 220.037ZM692.502 214.828V219.862H691.216V211.494H692.459V212.801H692.568C692.764 212.376 693.061 212.035 693.461 211.777C693.861 211.516 694.376 211.385 695.008 211.385C695.575 211.385 696.071 211.501 696.496 211.734C696.921 211.962 697.251 212.311 697.487 212.78C697.723 213.245 697.841 213.833 697.841 214.545V219.862H696.556V214.632C696.556 213.975 696.385 213.462 696.043 213.096C695.702 212.725 695.234 212.54 694.638 212.54C694.227 212.54 693.861 212.629 693.537 212.807C693.218 212.985 692.965 213.245 692.78 213.586C692.595 213.927 692.502 214.341 692.502 214.828ZM703.351 220.037C702.654 220.037 702.038 219.86 701.504 219.508C700.97 219.152 700.552 218.651 700.251 218.004C699.949 217.354 699.799 216.586 699.799 215.7C699.799 214.821 699.949 214.058 700.251 213.412C700.552 212.765 700.972 212.266 701.509 211.913C702.047 211.561 702.668 211.385 703.373 211.385C703.918 211.385 704.348 211.476 704.664 211.657C704.984 211.835 705.227 212.039 705.394 212.267C705.565 212.493 705.697 212.678 705.792 212.823H705.901V208.704H707.186V219.862H705.944V218.577H705.792C705.697 218.729 705.563 218.922 705.389 219.154C705.214 219.383 704.965 219.588 704.642 219.77C704.319 219.948 703.888 220.037 703.351 220.037ZM703.525 218.882C704.041 218.882 704.477 218.747 704.833 218.478C705.189 218.206 705.459 217.83 705.645 217.351C705.83 216.868 705.922 216.31 705.922 215.678C705.922 215.053 705.832 214.507 705.65 214.038C705.468 213.566 705.2 213.199 704.844 212.938C704.488 212.672 704.048 212.54 703.525 212.54C702.98 212.54 702.526 212.68 702.163 212.959C701.804 213.235 701.533 213.611 701.351 214.087C701.173 214.559 701.084 215.09 701.084 215.678C701.084 216.274 701.175 216.815 701.357 217.302C701.542 217.785 701.815 218.17 702.174 218.457C702.537 218.74 702.988 218.882 703.525 218.882ZM713.229 220.037C712.422 220.037 711.727 219.859 711.142 219.503C710.561 219.143 710.112 218.642 709.796 217.999C709.484 217.352 709.328 216.601 709.328 215.743C709.328 214.886 709.484 214.131 709.796 213.477C710.112 212.82 710.552 212.307 711.115 211.941C711.681 211.57 712.342 211.385 713.098 211.385C713.534 211.385 713.964 211.458 714.389 211.603C714.814 211.748 715.201 211.984 715.549 212.311C715.898 212.634 716.176 213.063 716.383 213.597C716.59 214.131 716.694 214.788 716.694 215.569V216.114H710.243V215.002H715.386C715.386 214.53 715.292 214.109 715.103 213.738C714.917 213.368 714.652 213.076 714.307 212.861C713.966 212.647 713.563 212.54 713.098 212.54C712.586 212.54 712.143 212.667 711.768 212.921C711.398 213.172 711.113 213.499 710.913 213.902C710.713 214.305 710.613 214.737 710.613 215.199V215.94C710.613 216.572 710.722 217.107 710.94 217.547C711.162 217.983 711.469 218.315 711.861 218.544C712.253 218.769 712.709 218.882 713.229 218.882C713.566 218.882 713.871 218.834 714.144 218.74C714.42 218.642 714.658 218.497 714.858 218.304C715.057 218.108 715.212 217.865 715.321 217.574L716.563 217.923C716.432 218.344 716.212 218.715 715.904 219.034C715.595 219.35 715.214 219.597 714.759 219.775C714.305 219.949 713.795 220.037 713.229 220.037ZM721.809 220.037C721.112 220.037 720.496 219.86 719.963 219.508C719.429 219.152 719.011 218.651 718.709 218.004C718.408 217.354 718.257 216.586 718.257 215.7C718.257 214.821 718.408 214.058 718.709 213.412C719.011 212.765 719.43 212.266 719.968 211.913C720.506 211.561 721.127 211.385 721.831 211.385C722.376 211.385 722.807 211.476 723.123 211.657C723.442 211.835 723.685 212.039 723.853 212.267C724.023 212.493 724.156 212.678 724.25 212.823H724.359V208.704H725.645V219.862H724.403V218.577H724.25C724.156 218.729 724.021 218.922 723.847 219.154C723.673 219.383 723.424 219.588 723.101 219.77C722.777 219.948 722.347 220.037 721.809 220.037ZM721.984 218.882C722.5 218.882 722.935 218.747 723.291 218.478C723.647 218.206 723.918 217.83 724.103 217.351C724.288 216.868 724.381 216.31 724.381 215.678C724.381 215.053 724.29 214.507 724.109 214.038C723.927 213.566 723.658 213.199 723.302 212.938C722.946 212.672 722.507 212.54 721.984 212.54C721.439 212.54 720.985 212.68 720.622 212.959C720.262 213.235 719.992 213.611 719.81 214.087C719.632 214.559 719.543 215.09 719.543 215.678C719.543 216.274 719.634 216.815 719.815 217.302C720.001 217.785 720.273 218.17 720.633 218.457C720.996 218.74 721.446 218.882 721.984 218.882ZM732.058 209.903V208.704H740.426V209.903H736.917V219.862H735.566V209.903H732.058ZM744.632 220.037C743.826 220.037 743.13 219.859 742.545 219.503C741.964 219.143 741.516 218.642 741.2 217.999C740.887 217.352 740.731 216.601 740.731 215.743C740.731 214.886 740.887 214.131 741.2 213.477C741.516 212.82 741.955 212.307 742.518 211.941C743.085 211.57 743.746 211.385 744.501 211.385C744.937 211.385 745.368 211.458 745.793 211.603C746.218 211.748 746.604 211.984 746.953 212.311C747.302 212.634 747.58 213.063 747.787 213.597C747.994 214.131 748.097 214.788 748.097 215.569V216.114H741.646V215.002H746.79C746.79 214.53 746.695 214.109 746.506 213.738C746.321 213.368 746.056 213.076 745.711 212.861C745.369 212.647 744.966 212.54 744.501 212.54C743.989 212.54 743.546 212.667 743.172 212.921C742.801 213.172 742.516 213.499 742.317 213.902C742.117 214.305 742.017 214.737 742.017 215.199V215.94C742.017 216.572 742.126 217.107 742.344 217.547C742.565 217.983 742.872 218.315 743.265 218.544C743.657 218.769 744.113 218.882 744.632 218.882C744.97 218.882 745.275 218.834 745.547 218.74C745.823 218.642 746.061 218.497 746.261 218.304C746.461 218.108 746.615 217.865 746.724 217.574L747.966 217.923C747.836 218.344 747.616 218.715 747.307 219.034C746.998 219.35 746.617 219.597 746.163 219.775C745.709 219.949 745.199 220.037 744.632 220.037ZM752.516 220.058C751.985 220.058 751.504 219.959 751.072 219.759C750.64 219.555 750.296 219.263 750.042 218.882C749.788 218.497 749.661 218.032 749.661 217.487C749.661 217.007 749.755 216.619 749.944 216.321C750.133 216.019 750.385 215.783 750.701 215.613C751.017 215.442 751.366 215.315 751.747 215.231C752.132 215.144 752.519 215.075 752.908 215.024C753.416 214.959 753.829 214.91 754.145 214.877C754.464 214.841 754.697 214.781 754.842 214.697C754.991 214.614 755.065 214.469 755.065 214.262V214.218C755.065 213.68 754.918 213.263 754.624 212.965C754.334 212.667 753.892 212.518 753.3 212.518C752.686 212.518 752.205 212.652 751.856 212.921C751.508 213.19 751.263 213.477 751.121 213.782L749.901 213.346C750.118 212.838 750.409 212.442 750.772 212.159C751.139 211.872 751.539 211.672 751.971 211.559C752.407 211.443 752.835 211.385 753.257 211.385C753.525 211.385 753.834 211.418 754.183 211.483C754.535 211.545 754.875 211.674 755.202 211.87C755.532 212.066 755.806 212.362 756.024 212.758C756.242 213.154 756.351 213.684 756.351 214.349V219.862H755.065V218.729H755C754.913 218.911 754.768 219.105 754.564 219.312C754.361 219.519 754.09 219.695 753.752 219.841C753.415 219.986 753.002 220.058 752.516 220.058ZM752.712 218.903C753.22 218.903 753.649 218.804 753.998 218.604C754.35 218.404 754.615 218.146 754.793 217.83C754.975 217.514 755.065 217.182 755.065 216.833V215.656C755.011 215.722 754.891 215.782 754.706 215.836C754.524 215.887 754.314 215.932 754.074 215.972C753.838 216.009 753.607 216.041 753.382 216.07C753.16 216.096 752.981 216.118 752.843 216.136C752.508 216.179 752.196 216.25 751.905 216.348C751.619 216.443 751.386 216.586 751.208 216.779C751.034 216.967 750.947 217.225 750.947 217.552C750.947 217.999 751.112 218.337 751.442 218.566C751.777 218.791 752.2 218.903 752.712 218.903ZM758.698 219.862V211.494H759.94V212.801H760.049C760.224 212.355 760.505 212.008 760.894 211.761C761.282 211.51 761.749 211.385 762.294 211.385C762.846 211.385 763.305 211.51 763.672 211.761C764.043 212.008 764.332 212.355 764.539 212.801H764.626C764.84 212.369 765.161 212.026 765.59 211.772C766.019 211.514 766.533 211.385 767.132 211.385C767.88 211.385 768.492 211.619 768.968 212.088C769.444 212.553 769.682 213.277 769.682 214.262V219.862H768.396V214.262C768.396 213.644 768.227 213.203 767.889 212.938C767.551 212.672 767.154 212.54 766.696 212.54C766.108 212.54 765.652 212.718 765.329 213.074C765.005 213.426 764.844 213.873 764.844 214.414V219.862H763.536V214.131C763.536 213.655 763.382 213.272 763.073 212.981C762.764 212.687 762.367 212.54 761.88 212.54C761.546 212.54 761.233 212.629 760.943 212.807C760.656 212.985 760.423 213.232 760.245 213.548C760.071 213.86 759.984 214.222 759.984 214.632V219.862H758.698Z" fill="#FAFAFA"/>
<path d="M302.057 218.766V210.136L395.548 239.862L489.999 210.136L489.04 218.766L395.548 249.93L302.057 218.766Z" fill="#CECECE" fill-opacity="0.95"/>
<path d="M395.548 178.972L302.057 210.136C301.29 210.393 364.225 230.38 395.548 240.341L489.999 210.136L395.548 178.972Z" fill="#D9D9D9"/>
<path d="M489.992 214.451H575.333" stroke="white" stroke-width="0.958888" stroke-linecap="round" stroke-dasharray="1.92 1.92"/>
<rect y="134.863" width="165.888" height="40.2733" rx="20.1366" fill="#333339"/>
<path d="M20.1362 160.564C19.3154 160.564 18.6162 160.34 18.0387 159.894C17.4612 159.443 17.0199 158.791 16.7147 157.938C16.4096 157.08 16.2571 156.045 16.2571 154.832C16.2571 153.626 16.4096 152.597 16.7147 151.743C17.0235 150.886 17.4666 150.232 18.0441 149.782C18.6253 149.328 19.3226 149.101 20.1362 149.101C20.9498 149.101 21.6454 149.328 22.2229 149.782C22.804 150.232 23.2472 150.886 23.5523 151.743C23.861 152.597 24.0154 153.626 24.0154 154.832C24.0154 156.045 23.8628 157.08 23.5577 157.938C23.2526 158.791 22.8113 159.443 22.2338 159.894C21.6563 160.34 20.9571 160.564 20.1362 160.564ZM20.1362 159.365C20.9498 159.365 21.5818 158.973 22.0322 158.188C22.4826 157.404 22.7078 156.285 22.7078 154.832C22.7078 153.866 22.6043 153.043 22.3972 152.364C22.1938 151.685 21.8996 151.167 21.5146 150.811C21.1333 150.455 20.6738 150.277 20.1362 150.277C19.3299 150.277 18.6997 150.675 18.2457 151.471C17.7917 152.262 17.5647 153.383 17.5647 154.832C17.5647 155.798 17.6664 156.619 17.8698 157.295C18.0732 157.97 18.3656 158.484 18.7469 158.837C19.1319 159.189 19.595 159.365 20.1362 159.365ZM29.8559 160.564C29.1367 160.564 28.4956 160.44 27.9326 160.193C27.3733 159.946 26.9284 159.603 26.5978 159.163C26.2709 158.72 26.093 158.206 26.0639 157.622H27.4369C27.4659 157.981 27.5894 158.292 27.8073 158.553C28.0253 158.811 28.3104 159.011 28.6627 159.153C29.015 159.294 29.4055 159.365 29.8341 159.365C30.3135 159.365 30.7385 159.282 31.109 159.114C31.4794 158.947 31.77 158.715 31.9807 158.417C32.1913 158.119 32.2967 157.774 32.2967 157.382C32.2967 156.971 32.195 156.61 31.9916 156.298C31.7882 155.982 31.4903 155.735 31.0981 155.557C30.7058 155.379 30.2263 155.29 29.6597 155.29H28.7662V154.091H29.6597C30.1029 154.091 30.4915 154.011 30.8257 153.851C31.1634 153.692 31.4268 153.466 31.6156 153.176C31.8081 152.885 31.9044 152.544 31.9044 152.152C31.9044 151.774 31.8209 151.445 31.6538 151.165C31.4867 150.886 31.2506 150.668 30.9455 150.512C30.644 150.356 30.2881 150.277 29.8777 150.277C29.4927 150.277 29.1294 150.348 28.788 150.49C28.4502 150.628 28.1742 150.83 27.9599 151.095C27.7456 151.356 27.6294 151.672 27.6112 152.043H26.3036C26.3254 151.458 26.5016 150.946 26.8321 150.506C27.1626 150.063 27.5949 149.718 28.1288 149.471C28.6663 149.224 29.2566 149.101 29.8995 149.101C30.5896 149.101 31.1816 149.24 31.6756 149.52C32.1695 149.796 32.5491 150.161 32.8143 150.615C33.0794 151.069 33.212 151.56 33.212 152.086C33.212 152.715 33.0467 153.25 32.7162 153.693C32.3893 154.137 31.9444 154.444 31.3814 154.614V154.701C32.086 154.818 32.6363 155.117 33.0322 155.6C33.4281 156.08 33.626 156.674 33.626 157.382C33.626 157.988 33.4608 158.533 33.1303 159.016C32.8034 159.496 32.3566 159.874 31.79 160.15C31.2234 160.426 30.5787 160.564 29.8559 160.564ZM36.4687 160.498C36.1999 160.498 35.9692 160.402 35.7767 160.21C35.5842 160.017 35.488 159.786 35.488 159.518C35.488 159.249 35.5842 159.018 35.7767 158.826C35.9692 158.633 36.1999 158.537 36.4687 158.537C36.7374 158.537 36.9681 158.633 37.1606 158.826C37.3531 159.018 37.4493 159.249 37.4493 159.518C37.4493 159.696 37.4039 159.859 37.3131 160.008C37.226 160.157 37.1079 160.277 36.959 160.368C36.8137 160.455 36.6503 160.498 36.4687 160.498ZM53.6605 154.832C53.6605 156.009 53.448 157.026 53.0231 157.883C52.5981 158.74 52.0152 159.401 51.2742 159.866C50.5332 160.331 49.687 160.564 48.7353 160.564C47.7837 160.564 46.9374 160.331 46.1965 159.866C45.4555 159.401 44.8725 158.74 44.4476 157.883C44.0226 157.026 43.8101 156.009 43.8101 154.832C43.8101 153.655 44.0226 152.638 44.4476 151.781C44.8725 150.924 45.4555 150.263 46.1965 149.798C46.9374 149.333 47.7837 149.101 48.7353 149.101C49.687 149.101 50.5332 149.333 51.2742 149.798C52.0152 150.263 52.5981 150.924 53.0231 151.781C53.448 152.638 53.6605 153.655 53.6605 154.832ZM52.353 154.832C52.353 153.866 52.1913 153.051 51.8681 152.386C51.5484 151.721 51.1144 151.218 50.5659 150.877C50.0211 150.535 49.4109 150.365 48.7353 150.365C48.0597 150.365 47.4477 150.535 46.8993 150.877C46.3545 151.218 45.9204 151.721 45.5972 152.386C45.2775 153.051 45.1177 153.866 45.1177 154.832C45.1177 155.798 45.2775 156.614 45.5972 157.278C45.9204 157.943 46.3545 158.446 46.8993 158.788C47.4477 159.129 48.0597 159.3 48.7353 159.3C49.4109 159.3 50.0211 159.129 50.5659 158.788C51.1144 158.446 51.5484 157.943 51.8681 157.278C52.1913 156.614 52.353 155.798 52.353 154.832ZM57.0439 155.377V160.411H55.7581V152.043H57.0003V153.35H57.1093C57.3054 152.925 57.6032 152.584 58.0028 152.326C58.4023 152.064 58.9181 151.934 59.5501 151.934C60.1167 151.934 60.6125 152.05 61.0374 152.282C61.4624 152.511 61.7929 152.86 62.029 153.328C62.2651 153.793 62.3831 154.382 62.3831 155.094V160.411H61.0974V155.181C61.0974 154.523 60.9266 154.011 60.5852 153.644C60.2438 153.274 59.7753 153.089 59.1796 153.089C58.7691 153.089 58.4023 153.178 58.079 153.356C57.7594 153.534 57.507 153.793 57.3217 154.135C57.1365 154.476 57.0439 154.89 57.0439 155.377ZM64.907 160.411V149.253H66.1928V153.372H66.3018C66.3962 153.227 66.527 153.042 66.694 152.816C66.8648 152.587 67.1081 152.384 67.4241 152.206C67.7437 152.024 68.176 151.934 68.7208 151.934C69.4254 151.934 70.0465 152.11 70.5841 152.462C71.1216 152.814 71.5411 153.314 71.8426 153.96C72.1441 154.607 72.2948 155.37 72.2948 156.249C72.2948 157.135 72.1441 157.903 71.8426 158.553C71.5411 159.2 71.1234 159.701 70.5895 160.057C70.0556 160.409 69.4399 160.585 68.7426 160.585C68.205 160.585 67.7746 160.496 67.4513 160.319C67.1281 160.137 66.8793 159.932 66.7049 159.703C66.5306 159.47 66.3962 159.278 66.3018 159.125H66.1492V160.411H64.907ZM66.171 156.227C66.171 156.859 66.2636 157.416 66.4489 157.9C66.6341 158.379 66.9047 158.755 67.2607 159.027C67.6166 159.296 68.0525 159.43 68.5682 159.43C69.1058 159.43 69.5544 159.289 69.9139 159.005C70.2772 158.719 70.5496 158.334 70.7312 157.85C70.9164 157.364 71.009 156.823 71.009 156.227C71.009 155.638 70.9182 155.108 70.7366 154.636C70.5586 154.16 70.2881 153.784 69.9248 153.508C69.5653 153.229 69.1131 153.089 68.5682 153.089C68.0452 153.089 67.6057 153.221 67.2498 153.486C66.8938 153.748 66.625 154.115 66.4434 154.587C66.2618 155.056 66.171 155.602 66.171 156.227ZM77.6613 160.585C76.9058 160.585 76.243 160.406 75.6727 160.046C75.1061 159.687 74.663 159.183 74.3433 158.537C74.0274 157.89 73.8694 157.135 73.8694 156.27C73.8694 155.399 74.0274 154.638 74.3433 153.988C74.663 153.338 75.1061 152.833 75.6727 152.473C76.243 152.113 76.9058 151.934 77.6613 151.934C78.4168 151.934 79.0779 152.113 79.6445 152.473C80.2147 152.833 80.6578 153.338 80.9738 153.988C81.2935 154.638 81.4533 155.399 81.4533 156.27C81.4533 157.135 81.2935 157.89 80.9738 158.537C80.6578 159.183 80.2147 159.687 79.6445 160.046C79.0779 160.406 78.4168 160.585 77.6613 160.585ZM77.6613 159.43C78.2352 159.43 78.7074 159.283 79.0779 158.989C79.4483 158.695 79.7226 158.308 79.9005 157.829C80.0785 157.349 80.1675 156.83 80.1675 156.27C80.1675 155.711 80.0785 155.19 79.9005 154.707C79.7226 154.224 79.4483 153.833 79.0779 153.535C78.7074 153.238 78.2352 153.089 77.6613 153.089C77.0874 153.089 76.6153 153.238 76.2448 153.535C75.8743 153.833 75.6001 154.224 75.4221 154.707C75.2441 155.19 75.1551 155.711 75.1551 156.27C75.1551 156.83 75.2441 157.349 75.4221 157.829C75.6001 158.308 75.8743 158.695 76.2448 158.989C76.6153 159.283 77.0874 159.43 77.6613 159.43ZM85.8786 160.607C85.3483 160.607 84.867 160.507 84.4348 160.308C84.0026 160.104 83.6594 159.812 83.4051 159.43C83.1509 159.045 83.0237 158.581 83.0237 158.036C83.0237 157.556 83.1182 157.168 83.307 156.87C83.4959 156.568 83.7483 156.332 84.0643 156.162C84.3803 155.991 84.729 155.864 85.1104 155.78C85.4954 155.693 85.8822 155.624 86.2709 155.573C86.7794 155.508 87.1916 155.459 87.5076 155.426C87.8273 155.39 88.0597 155.33 88.205 155.246C88.3539 155.163 88.4284 155.017 88.4284 154.81V154.767C88.4284 154.229 88.2813 153.812 87.9871 153.514C87.6965 153.216 87.2552 153.067 86.6631 153.067C86.0493 153.067 85.5681 153.201 85.2194 153.47C84.8707 153.739 84.6255 154.026 84.4839 154.331L83.2635 153.895C83.4814 153.387 83.772 152.991 84.1352 152.707C84.502 152.42 84.9016 152.221 85.3338 152.108C85.7696 151.992 86.1982 151.934 86.6196 151.934C86.8883 151.934 87.1971 151.966 87.5458 152.032C87.8981 152.094 88.2377 152.222 88.5646 152.419C88.8951 152.615 89.1693 152.911 89.3873 153.307C89.6052 153.703 89.7142 154.233 89.7142 154.898V160.411H88.4284V159.278H88.363C88.2758 159.46 88.1305 159.654 87.9271 159.861C87.7237 160.068 87.4531 160.244 87.1154 160.389C86.7776 160.535 86.3653 160.607 85.8786 160.607ZM86.0747 159.452C86.5832 159.452 87.0118 159.352 87.3605 159.153C87.7128 158.953 87.978 158.695 88.156 158.379C88.3376 158.063 88.4284 157.731 88.4284 157.382V156.205C88.3739 156.27 88.254 156.33 88.0688 156.385C87.8872 156.436 87.6765 156.481 87.4368 156.521C87.2007 156.557 86.9701 156.59 86.7449 156.619C86.5233 156.645 86.3435 156.666 86.2055 156.685C85.8713 156.728 85.559 156.799 85.2684 156.897C84.9815 156.991 84.749 157.135 84.571 157.327C84.3967 157.516 84.3095 157.774 84.3095 158.101C84.3095 158.548 84.4748 158.886 84.8053 159.114C85.1395 159.34 85.5626 159.452 86.0747 159.452ZM92.061 160.411V152.043H93.3032V153.307H93.3903C93.5429 152.893 93.8189 152.557 94.2185 152.299C94.618 152.041 95.0684 151.912 95.5696 151.912C95.6641 151.912 95.7821 151.914 95.9238 151.917C96.0654 151.921 96.1726 151.926 96.2452 151.934V153.241C96.2016 153.23 96.1017 153.214 95.9456 153.192C95.793 153.167 95.6314 153.154 95.4607 153.154C95.0539 153.154 94.6906 153.239 94.371 153.41C94.055 153.577 93.8044 153.81 93.6192 154.108C93.4376 154.402 93.3468 154.738 93.3468 155.115V160.411H92.061ZM100.675 160.585C99.9772 160.585 99.3616 160.409 98.8277 160.057C98.2937 159.701 97.876 159.2 97.5746 158.553C97.2731 157.903 97.1224 157.135 97.1224 156.249C97.1224 155.37 97.2731 154.607 97.5746 153.96C97.876 153.314 98.2956 152.814 98.8331 152.462C99.3707 152.11 99.9918 151.934 100.696 151.934C101.241 151.934 101.672 152.024 101.988 152.206C102.307 152.384 102.551 152.587 102.718 152.816C102.888 153.042 103.021 153.227 103.115 153.372H103.224V149.253H104.51V160.411H103.268V159.125H103.115C103.021 159.278 102.887 159.47 102.712 159.703C102.538 159.932 102.289 160.137 101.966 160.319C101.643 160.496 101.212 160.585 100.675 160.585ZM100.849 159.43C101.365 159.43 101.801 159.296 102.157 159.027C102.512 158.755 102.783 158.379 102.968 157.9C103.154 157.416 103.246 156.859 103.246 156.227C103.246 155.602 103.155 155.056 102.974 154.587C102.792 154.115 102.523 153.748 102.167 153.486C101.811 153.221 101.372 153.089 100.849 153.089C100.304 153.089 99.8501 153.229 99.4869 153.508C99.1273 153.784 98.8567 154.16 98.6751 154.636C98.4971 155.108 98.4082 155.638 98.4082 156.227C98.4082 156.823 98.499 157.364 98.6806 157.85C98.8658 158.334 99.1382 158.719 99.4978 159.005C99.861 159.289 100.311 159.43 100.849 159.43ZM110.923 150.452V149.253H119.291V150.452H115.783V160.411H114.431V150.452H110.923ZM123.497 160.585C122.691 160.585 121.995 160.408 121.411 160.052C120.829 159.692 120.381 159.191 120.065 158.548C119.752 157.901 119.596 157.149 119.596 156.292C119.596 155.435 119.752 154.68 120.065 154.026C120.381 153.368 120.82 152.856 121.383 152.489C121.95 152.119 122.611 151.934 123.366 151.934C123.802 151.934 124.233 152.006 124.658 152.152C125.083 152.297 125.469 152.533 125.818 152.86C126.167 153.183 126.445 153.612 126.652 154.146C126.859 154.68 126.962 155.337 126.962 156.118V156.663H120.512V155.551H125.655C125.655 155.079 125.56 154.658 125.371 154.287C125.186 153.917 124.921 153.624 124.576 153.41C124.235 153.196 123.831 153.089 123.366 153.089C122.854 153.089 122.411 153.216 122.037 153.47C121.667 153.721 121.382 154.048 121.182 154.451C120.982 154.854 120.882 155.286 120.882 155.747V156.488C120.882 157.12 120.991 157.656 121.209 158.096C121.431 158.531 121.737 158.864 122.13 159.093C122.522 159.318 122.978 159.43 123.497 159.43C123.835 159.43 124.14 159.383 124.413 159.289C124.689 159.191 124.926 159.045 125.126 158.853C125.326 158.657 125.48 158.413 125.589 158.123L126.832 158.472C126.701 158.893 126.481 159.263 126.172 159.583C125.864 159.899 125.482 160.146 125.028 160.324C124.574 160.498 124.064 160.585 123.497 160.585ZM131.381 160.607C130.851 160.607 130.369 160.507 129.937 160.308C129.505 160.104 129.162 159.812 128.907 159.43C128.653 159.045 128.526 158.581 128.526 158.036C128.526 157.556 128.62 157.168 128.809 156.87C128.998 156.568 129.251 156.332 129.567 156.162C129.883 155.991 130.231 155.864 130.613 155.78C130.998 155.693 131.384 155.624 131.773 155.573C132.282 155.508 132.694 155.459 133.01 155.426C133.329 155.39 133.562 155.33 133.707 155.246C133.856 155.163 133.931 155.017 133.931 154.81V154.767C133.931 154.229 133.783 153.812 133.489 153.514C133.199 153.216 132.757 153.067 132.165 153.067C131.552 153.067 131.07 153.201 130.722 153.47C130.373 153.739 130.128 154.026 129.986 154.331L128.766 153.895C128.984 153.387 129.274 152.991 129.637 152.707C130.004 152.42 130.404 152.221 130.836 152.108C131.272 151.992 131.7 151.934 132.122 151.934C132.391 151.934 132.699 151.966 133.048 152.032C133.4 152.094 133.74 152.222 134.067 152.419C134.397 152.615 134.672 152.911 134.889 153.307C135.107 153.703 135.216 154.233 135.216 154.898V160.411H133.931V159.278H133.865C133.778 159.46 133.633 159.654 133.429 159.861C133.226 160.068 132.955 160.244 132.618 160.389C132.28 160.535 131.868 160.607 131.381 160.607ZM131.577 159.452C132.085 159.452 132.514 159.352 132.863 159.153C133.215 158.953 133.48 158.695 133.658 158.379C133.84 158.063 133.931 157.731 133.931 157.382V156.205C133.876 156.27 133.756 156.33 133.571 156.385C133.389 156.436 133.179 156.481 132.939 156.521C132.703 156.557 132.472 156.59 132.247 156.619C132.026 156.645 131.846 156.666 131.708 156.685C131.374 156.728 131.061 156.799 130.771 156.897C130.484 156.991 130.251 157.135 130.073 157.327C129.899 157.516 129.812 157.774 129.812 158.101C129.812 158.548 129.977 158.886 130.308 159.114C130.642 159.34 131.065 159.452 131.577 159.452ZM137.563 160.411V152.043H138.805V153.35H138.914C139.089 152.903 139.37 152.557 139.759 152.31C140.147 152.059 140.614 151.934 141.159 151.934C141.711 151.934 142.171 152.059 142.537 152.31C142.908 152.557 143.197 152.903 143.404 153.35H143.491C143.705 152.918 144.027 152.575 144.455 152.321C144.884 152.063 145.398 151.934 145.997 151.934C146.745 151.934 147.357 152.168 147.833 152.637C148.309 153.101 148.547 153.826 148.547 154.81V160.411H147.261V154.81C147.261 154.193 147.092 153.752 146.754 153.486C146.417 153.221 146.019 153.089 145.561 153.089C144.973 153.089 144.517 153.267 144.194 153.623C143.87 153.975 143.709 154.422 143.709 154.963V160.411H142.401V154.68C142.401 154.204 142.247 153.821 141.938 153.53C141.629 153.236 141.232 153.089 140.745 153.089C140.411 153.089 140.098 153.178 139.808 153.356C139.521 153.534 139.288 153.781 139.11 154.097C138.936 154.409 138.849 154.77 138.849 155.181V160.411H137.563Z" fill="#FAFAFA"/>
<path d="M303.016 159.315V150.685L396.507 180.411L490.958 150.685L489.999 159.315L396.507 190.479L303.016 159.315Z" fill="#CECECE" fill-opacity="0.95"/>
<path d="M396.507 119.521L303.016 150.685C302.249 150.942 365.184 170.929 396.507 180.89L490.958 150.685L396.507 119.521Z" fill="#D9D9D9"/>
<path d="M165.888 155L302.05 155" stroke="white" stroke-width="0.958888" stroke-linecap="round" stroke-dasharray="1.92 1.92"/>
<rect x="635.743" y="76.3712" width="157.258" height="40.2733" rx="20.1366" fill="#31A5DD"/>
<path d="M655.879 103.03C655.059 103.03 654.359 102.807 653.782 102.36C653.204 101.91 652.763 101.258 652.458 100.404C652.153 99.5471 652 98.512 652 97.2988C652 96.093 652.153 95.0632 652.458 94.2097C652.767 93.3525 653.21 92.6987 653.787 92.2483C654.368 91.7943 655.066 91.5673 655.879 91.5673C656.693 91.5673 657.389 91.7943 657.966 92.2483C658.547 92.6987 658.99 93.3525 659.295 94.2097C659.604 95.0632 659.759 96.093 659.759 97.2988C659.759 98.512 659.606 99.5471 659.301 100.404C658.996 101.258 658.554 101.91 657.977 102.36C657.399 102.807 656.7 103.03 655.879 103.03ZM655.879 101.832C656.693 101.832 657.325 101.439 657.775 100.655C658.226 99.8704 658.451 98.7517 658.451 97.2988C658.451 96.3327 658.347 95.51 658.14 94.8308C657.937 94.1516 657.643 93.634 657.258 93.278C656.876 92.9221 656.417 92.7441 655.879 92.7441C655.073 92.7441 654.443 93.1418 653.989 93.9373C653.535 94.7291 653.308 95.8496 653.308 97.2988C653.308 98.265 653.41 99.0858 653.613 99.7614C653.816 100.437 654.109 100.951 654.49 101.303C654.875 101.656 655.338 101.832 655.879 101.832ZM661.829 102.878V101.897L665.512 97.8654C665.944 97.3933 666.3 96.9828 666.58 96.6341C666.859 96.2818 667.066 95.9513 667.201 95.6426C667.339 95.3302 667.408 95.0033 667.408 94.6619C667.408 94.2696 667.313 93.93 667.125 93.6431C666.939 93.3561 666.685 93.1346 666.362 92.9784C666.039 92.8222 665.675 92.7441 665.272 92.7441C664.844 92.7441 664.469 92.8331 664.15 93.0111C663.834 93.1854 663.589 93.4306 663.414 93.7466C663.244 94.0626 663.158 94.4331 663.158 94.858H661.872C661.872 94.2042 662.023 93.6304 662.325 93.1364C662.626 92.6424 663.037 92.2574 663.556 91.9814C664.079 91.7053 664.666 91.5673 665.316 91.5673C665.97 91.5673 666.549 91.7053 667.054 91.9814C667.559 92.2574 667.954 92.6297 668.241 93.0982C668.528 93.5668 668.672 94.088 668.672 94.6619C668.672 95.0723 668.597 95.4737 668.448 95.8659C668.303 96.2546 668.049 96.6886 667.686 97.1681C667.326 97.6439 666.827 98.225 666.187 98.9115L663.681 101.592V101.679H668.868V102.878H661.829ZM672.077 102.965C671.808 102.965 671.578 102.869 671.385 102.676C671.193 102.484 671.096 102.253 671.096 101.984C671.096 101.716 671.193 101.485 671.385 101.292C671.578 101.1 671.808 101.004 672.077 101.004C672.346 101.004 672.576 101.1 672.769 101.292C672.961 101.485 673.058 101.716 673.058 101.984C673.058 102.162 673.012 102.326 672.921 102.475C672.834 102.624 672.716 102.743 672.567 102.834C672.422 102.921 672.259 102.965 672.077 102.965ZM688.833 95.2067H687.482C687.402 94.8181 687.262 94.4766 687.062 94.1824C686.866 93.8882 686.626 93.6413 686.343 93.4415C686.063 93.2381 685.753 93.0855 685.412 92.9838C685.07 92.8821 684.714 92.8313 684.344 92.8313C683.668 92.8313 683.056 93.002 682.508 93.3434C681.963 93.6848 681.529 94.1879 681.205 94.8526C680.886 95.5173 680.726 96.3327 680.726 97.2988C680.726 98.265 680.886 99.0804 681.205 99.7451C681.529 100.41 681.963 100.913 682.508 101.254C683.056 101.596 683.668 101.766 684.344 101.766C684.714 101.766 685.07 101.716 685.412 101.614C685.753 101.512 686.063 101.361 686.343 101.162C686.626 100.958 686.866 100.709 687.062 100.415C687.262 100.117 687.402 99.776 687.482 99.3909H688.833C688.731 99.9612 688.546 100.472 688.277 100.922C688.008 101.372 687.674 101.755 687.275 102.071C686.875 102.384 686.427 102.622 685.929 102.785C685.435 102.949 684.907 103.03 684.344 103.03C683.392 103.03 682.546 102.798 681.805 102.333C681.064 101.868 680.481 101.207 680.056 100.35C679.631 99.4926 679.418 98.4756 679.418 97.2988C679.418 96.122 679.631 95.105 680.056 94.2478C680.481 93.3906 681.064 92.7296 681.805 92.2647C682.546 91.7998 683.392 91.5673 684.344 91.5673C684.907 91.5673 685.435 91.649 685.929 91.8125C686.427 91.9759 686.875 92.2156 687.275 92.5316C687.674 92.844 688.008 93.2254 688.277 93.6758C688.546 94.1225 688.731 94.6328 688.833 95.2067ZM692.128 97.8436V102.878H690.842V91.7198H692.128V95.8169H692.237C692.433 95.3847 692.727 95.0414 693.119 94.7872C693.515 94.5293 694.042 94.4004 694.699 94.4004C695.27 94.4004 695.769 94.5148 696.198 94.7436C696.626 94.9688 696.959 95.3157 697.195 95.7842C697.434 96.2491 697.554 96.8412 697.554 97.5603V102.878H696.268V97.6475C696.268 96.9828 696.096 96.4689 695.751 96.1057C695.409 95.7388 694.935 95.5554 694.329 95.5554C693.908 95.5554 693.53 95.6444 693.196 95.8224C692.865 96.0003 692.604 96.26 692.411 96.6015C692.222 96.9429 692.128 97.3569 692.128 97.8436ZM703.306 103.052C702.551 103.052 701.888 102.872 701.318 102.513C700.751 102.153 700.308 101.65 699.988 101.004C699.672 100.357 699.514 99.6016 699.514 98.7372C699.514 97.8654 699.672 97.1045 699.988 96.4544C700.308 95.8042 700.751 95.2993 701.318 94.9397C701.888 94.5802 702.551 94.4004 703.306 94.4004C704.062 94.4004 704.723 94.5802 705.289 94.9397C705.86 95.2993 706.303 95.8042 706.619 96.4544C706.938 97.1045 707.098 97.8654 707.098 98.7372C707.098 99.6016 706.938 100.357 706.619 101.004C706.303 101.65 705.86 102.153 705.289 102.513C704.723 102.872 704.062 103.052 703.306 103.052ZM703.306 101.897C703.88 101.897 704.352 101.75 704.723 101.456C705.093 101.162 705.367 100.775 705.545 100.295C705.723 99.8159 705.812 99.2965 705.812 98.7372C705.812 98.1778 705.723 97.6566 705.545 97.1735C705.367 96.6904 705.093 96.3 704.723 96.0021C704.352 95.7043 703.88 95.5554 703.306 95.5554C702.732 95.5554 702.26 95.7043 701.89 96.0021C701.519 96.3 701.245 96.6904 701.067 97.1735C700.889 97.6566 700.8 98.1778 700.8 98.7372C700.8 99.2965 700.889 99.8159 701.067 100.295C701.245 100.775 701.519 101.162 701.89 101.456C702.26 101.75 702.732 101.897 703.306 101.897ZM712.461 103.052C711.705 103.052 711.042 102.872 710.472 102.513C709.905 102.153 709.462 101.65 709.143 101.004C708.827 100.357 708.669 99.6016 708.669 98.7372C708.669 97.8654 708.827 97.1045 709.143 96.4544C709.462 95.8042 709.905 95.2993 710.472 94.9397C711.042 94.5802 711.705 94.4004 712.461 94.4004C713.216 94.4004 713.877 94.5802 714.444 94.9397C715.014 95.2993 715.457 95.8042 715.773 96.4544C716.093 97.1045 716.253 97.8654 716.253 98.7372C716.253 99.6016 716.093 100.357 715.773 101.004C715.457 101.65 715.014 102.153 714.444 102.513C713.877 102.872 713.216 103.052 712.461 103.052ZM712.461 101.897C713.034 101.897 713.507 101.75 713.877 101.456C714.248 101.162 714.522 100.775 714.7 100.295C714.878 99.8159 714.967 99.2965 714.967 98.7372C714.967 98.1778 714.878 97.6566 714.7 97.1735C714.522 96.6904 714.248 96.3 713.877 96.0021C713.507 95.7043 713.034 95.5554 712.461 95.5554C711.887 95.5554 711.415 95.7043 711.044 96.0021C710.674 96.3 710.399 96.6904 710.221 97.1735C710.043 97.6566 709.954 98.1778 709.954 98.7372C709.954 99.2965 710.043 99.8159 710.221 100.295C710.399 100.775 710.674 101.162 711.044 101.456C711.415 101.75 711.887 101.897 712.461 101.897ZM724.143 96.3835L722.988 96.7104C722.915 96.5179 722.808 96.3309 722.666 96.1492C722.528 95.964 722.34 95.8115 722.1 95.6916C721.86 95.5717 721.553 95.5118 721.179 95.5118C720.667 95.5118 720.24 95.6299 719.899 95.8659C719.561 96.0984 719.392 96.3944 719.392 96.754C719.392 97.0736 719.508 97.3261 719.741 97.5113C719.973 97.6965 720.336 97.8509 720.83 97.9744L722.073 98.2795C722.821 98.4611 723.378 98.739 723.745 99.1131C724.112 99.4836 724.295 99.9612 724.295 100.546C724.295 101.025 724.157 101.454 723.881 101.832C723.609 102.209 723.228 102.507 722.737 102.725C722.247 102.943 721.677 103.052 721.027 103.052C720.173 103.052 719.467 102.867 718.907 102.496C718.348 102.126 717.994 101.585 717.845 100.873L719.065 100.568C719.181 101.018 719.401 101.356 719.724 101.581C720.051 101.806 720.478 101.919 721.005 101.919C721.604 101.919 722.08 101.792 722.432 101.538C722.788 101.28 722.966 100.971 722.966 100.611C722.966 100.321 722.864 100.077 722.661 99.8813C722.458 99.6815 722.145 99.5326 721.724 99.4345L720.329 99.1076C719.563 98.926 719 98.6445 718.64 98.2632C718.284 97.8782 718.106 97.3969 718.106 96.8194C718.106 96.3472 718.239 95.9295 718.504 95.5663C718.773 95.2031 719.138 94.918 719.599 94.7109C720.064 94.5039 720.591 94.4004 721.179 94.4004C722.007 94.4004 722.657 94.582 723.13 94.9452C723.605 95.3084 723.943 95.7879 724.143 96.3835ZM729.74 103.052C728.933 103.052 728.238 102.874 727.653 102.518C727.072 102.159 726.623 101.657 726.307 101.015C725.995 100.368 725.839 99.6161 725.839 98.7589C725.839 97.9018 725.995 97.1463 726.307 96.4925C726.623 95.8351 727.063 95.3229 727.626 94.9561C728.192 94.5856 728.853 94.4004 729.609 94.4004C730.045 94.4004 730.475 94.473 730.9 94.6183C731.325 94.7636 731.712 94.9997 732.061 95.3266C732.409 95.6498 732.687 96.0784 732.894 96.6123C733.101 97.1463 733.205 97.8037 733.205 98.5846V99.1294H726.754V98.018H731.897C731.897 97.5458 731.803 97.1245 731.614 96.754C731.429 96.3835 731.163 96.0911 730.818 95.8768C730.477 95.6625 730.074 95.5554 729.609 95.5554C729.097 95.5554 728.654 95.6825 728.279 95.9368C727.909 96.1874 727.624 96.5143 727.424 96.9174C727.224 97.3206 727.124 97.7528 727.124 98.2141V98.9551C727.124 99.5871 727.233 100.123 727.451 100.562C727.673 100.998 727.98 101.331 728.372 101.559C728.764 101.785 729.22 101.897 729.74 101.897C730.077 101.897 730.383 101.85 730.655 101.755C730.931 101.657 731.169 101.512 731.369 101.32C731.568 101.123 731.723 100.88 731.832 100.59L733.074 100.938C732.943 101.36 732.723 101.73 732.415 102.05C732.106 102.366 731.725 102.613 731.271 102.791C730.817 102.965 730.306 103.052 729.74 103.052ZM739.04 92.9185V91.7198H747.408V92.9185H743.9V102.878H742.548V92.9185H739.04ZM751.614 103.052C750.808 103.052 750.112 102.874 749.528 102.518C748.946 102.159 748.498 101.657 748.182 101.015C747.869 100.368 747.713 99.6161 747.713 98.7589C747.713 97.9018 747.869 97.1463 748.182 96.4925C748.498 95.8351 748.937 95.3229 749.5 94.9561C750.067 94.5856 750.728 94.4004 751.483 94.4004C751.919 94.4004 752.35 94.473 752.775 94.6183C753.2 94.7636 753.587 94.9997 753.935 95.3266C754.284 95.6498 754.562 96.0784 754.769 96.6123C754.976 97.1463 755.079 97.8037 755.079 98.5846V99.1294H748.629V98.018H753.772C753.772 97.5458 753.677 97.1245 753.488 96.754C753.303 96.3835 753.038 96.0911 752.693 95.8768C752.352 95.6625 751.948 95.5554 751.483 95.5554C750.971 95.5554 750.528 95.6825 750.154 95.9368C749.784 96.1874 749.499 96.5143 749.299 96.9174C749.099 97.3206 748.999 97.7528 748.999 98.2141V98.9551C748.999 99.5871 749.108 100.123 749.326 100.562C749.548 100.998 749.854 101.331 750.247 101.559C750.639 101.785 751.095 101.897 751.614 101.897C751.952 101.897 752.257 101.85 752.53 101.755C752.806 101.657 753.043 101.512 753.243 101.32C753.443 101.123 753.597 100.88 753.706 100.59L754.949 100.938C754.818 101.36 754.598 101.73 754.289 102.05C753.981 102.366 753.599 102.613 753.145 102.791C752.691 102.965 752.181 103.052 751.614 103.052ZM759.498 103.074C758.968 103.074 758.486 102.974 758.054 102.774C757.622 102.571 757.279 102.279 757.024 101.897C756.77 101.512 756.643 101.047 756.643 100.502C756.643 100.023 756.737 99.6343 756.926 99.3365C757.115 99.035 757.368 98.7989 757.684 98.6282C758 98.4575 758.348 98.3304 758.73 98.2468C759.115 98.1596 759.501 98.0906 759.89 98.0398C760.399 97.9744 760.811 97.9254 761.127 97.8927C761.446 97.8564 761.679 97.7964 761.824 97.7129C761.973 97.6294 762.048 97.4841 762.048 97.277V97.2334C762.048 96.6959 761.9 96.2782 761.606 95.9804C761.316 95.6825 760.874 95.5336 760.282 95.5336C759.669 95.5336 759.187 95.668 758.839 95.9368C758.49 96.2055 758.245 96.4925 758.103 96.7976L756.883 96.3617C757.101 95.8532 757.391 95.4573 757.754 95.174C758.121 94.8871 758.521 94.6873 758.953 94.5747C759.389 94.4585 759.817 94.4004 760.239 94.4004C760.508 94.4004 760.816 94.4331 761.165 94.4984C761.517 94.5602 761.857 94.6891 762.184 94.8853C762.514 95.0814 762.789 95.3774 763.006 95.7733C763.224 96.1692 763.333 96.6995 763.333 97.3642V102.878H762.048V101.745H761.982C761.895 101.926 761.75 102.121 761.546 102.328C761.343 102.535 761.072 102.711 760.735 102.856C760.397 103.001 759.985 103.074 759.498 103.074ZM759.694 101.919C760.202 101.919 760.631 101.819 760.98 101.619C761.332 101.419 761.597 101.162 761.775 100.846C761.957 100.53 762.048 100.197 762.048 99.8486V98.6718C761.993 98.7372 761.873 98.7971 761.688 98.8516C761.506 98.9024 761.296 98.9478 761.056 98.9878C760.82 99.0241 760.589 99.0568 760.364 99.0858C760.143 99.1113 759.963 99.1331 759.825 99.1512C759.491 99.1948 759.178 99.2656 758.888 99.3637C758.601 99.4581 758.368 99.6016 758.19 99.7941C758.016 99.983 757.929 100.241 757.929 100.568C757.929 101.015 758.094 101.352 758.425 101.581C758.759 101.806 759.182 101.919 759.694 101.919ZM765.68 102.878V94.5093H766.922V95.8169H767.031C767.206 95.3702 767.487 95.0233 767.876 94.7763C768.264 94.5257 768.731 94.4004 769.276 94.4004C769.828 94.4004 770.288 94.5257 770.654 94.7763C771.025 95.0233 771.314 95.3702 771.521 95.8169H771.608C771.822 95.3847 772.144 95.0414 772.572 94.7872C773.001 94.5293 773.515 94.4004 774.114 94.4004C774.862 94.4004 775.474 94.6346 775.95 95.1032C776.426 95.5681 776.664 96.2927 776.664 97.277V102.878H775.378V97.277C775.378 96.6596 775.209 96.2183 774.871 95.9531C774.534 95.688 774.136 95.5554 773.678 95.5554C773.09 95.5554 772.634 95.7334 772.311 96.0893C771.987 96.4416 771.826 96.8884 771.826 97.4296V102.878H770.518V97.1463C770.518 96.6705 770.364 96.2873 770.055 95.9967C769.746 95.7025 769.349 95.5554 768.862 95.5554C768.528 95.5554 768.215 95.6444 767.925 95.8224C767.638 96.0003 767.405 96.2473 767.227 96.5633C767.053 96.8757 766.966 97.2371 766.966 97.6475V102.878H765.68Z" fill="#FAFAFA"/>
<path d="M303.016 99.864V91.234L396.507 120.96L490.958 91.234L489.999 99.864L396.507 131.028L303.016 99.864Z" fill="#1885B9"/>
<path d="M396.507 60.0702L303.016 91.234C302.249 91.4911 365.184 111.478 396.507 121.439L490.958 91.234L396.507 60.0702Z" fill="#31A5DD"/>
<path d="M490.951 95.549L635.743 96.5078" stroke="white" stroke-width="0.958888" stroke-linecap="round" stroke-dasharray="1.92 1.92"/>
<rect y="15.9613" width="216.709" height="40.2733" rx="20.1366" fill="#333339"/>
<path d="M20.1362 41.6616C19.3154 41.6616 18.6162 41.4382 18.0387 40.9915C17.4612 40.5411 17.0199 39.8891 16.7147 39.0355C16.4096 38.1784 16.2571 37.1432 16.2571 35.9301C16.2571 34.7242 16.4096 33.6945 16.7147 32.8409C17.0235 31.9837 17.4666 31.3299 18.0441 30.8795C18.6253 30.4255 19.3226 30.1985 20.1362 30.1985C20.9498 30.1985 21.6454 30.4255 22.2229 30.8795C22.804 31.3299 23.2472 31.9837 23.5523 32.8409C23.861 33.6945 24.0154 34.7242 24.0154 35.9301C24.0154 37.1432 23.8628 38.1784 23.5577 39.0355C23.2526 39.8891 22.8113 40.5411 22.2338 40.9915C21.6563 41.4382 20.9571 41.6616 20.1362 41.6616ZM20.1362 40.463C20.9498 40.463 21.5818 40.0707 22.0322 39.2862C22.4826 38.5016 22.7078 37.3829 22.7078 35.9301C22.7078 34.9639 22.6043 34.1412 22.3972 33.462C22.1938 32.7828 21.8996 32.2652 21.5146 31.9093C21.1333 31.5533 20.6738 31.3753 20.1362 31.3753C19.3299 31.3753 18.6997 31.7731 18.2457 32.5685C17.7917 33.3603 17.5647 34.4808 17.5647 35.9301C17.5647 36.8962 17.6664 37.7171 17.8698 38.3926C18.0732 39.0682 18.3656 39.5822 18.7469 39.9345C19.1319 40.2868 19.595 40.463 20.1362 40.463ZM30.0084 30.3511V41.509H28.6573V31.7676H28.5919L25.8678 33.5764V32.2035L28.6573 30.3511H30.0084ZM33.5171 41.5962C33.2483 41.5962 33.0177 41.5 32.8252 41.3074C32.6326 41.1149 32.5364 40.8843 32.5364 40.6155C32.5364 40.3467 32.6326 40.1161 32.8252 39.9236C33.0177 39.7311 33.2483 39.6348 33.5171 39.6348C33.7859 39.6348 34.0165 39.7311 34.209 39.9236C34.4015 40.1161 34.4978 40.3467 34.4978 40.6155C34.4978 40.7935 34.4524 40.9569 34.3615 41.1059C34.2744 41.2548 34.1563 41.3746 34.0074 41.4654C33.8621 41.5526 33.6987 41.5962 33.5171 41.5962ZM40.6842 31.5497V30.3511H49.0527V31.5497H45.544V41.509H44.1929V31.5497H40.6842ZM53.2587 41.6834C52.4524 41.6834 51.7568 41.5054 51.172 41.1495C50.5909 40.7899 50.1423 40.2886 49.8263 39.6457C49.514 38.9992 49.3578 38.2474 49.3578 37.3902C49.3578 36.533 49.514 35.7775 49.8263 35.1237C50.1423 34.4663 50.5818 33.9542 51.1448 33.5873C51.7114 33.2168 52.3725 33.0316 53.128 33.0316C53.5638 33.0316 53.9942 33.1042 54.4192 33.2495C54.8441 33.3948 55.231 33.6309 55.5797 33.9578C55.9283 34.2811 56.2062 34.7096 56.4132 35.2436C56.6203 35.7775 56.7238 36.4349 56.7238 37.2158V37.7607H50.2731V36.6492H55.4162C55.4162 36.177 55.3218 35.7557 55.1329 35.3852C54.9477 35.0147 54.6825 34.7224 54.3375 34.5081C53.996 34.2938 53.5929 34.1866 53.128 34.1866C52.6158 34.1866 52.1727 34.3137 51.7986 34.568C51.4281 34.8186 51.143 35.1455 50.9432 35.5487C50.7435 35.9518 50.6436 36.3841 50.6436 36.8454V37.5863C50.6436 38.2183 50.7525 38.754 50.9705 39.1935C51.192 39.6294 51.4989 39.9617 51.8912 40.1906C52.2835 40.4158 52.7393 40.5284 53.2587 40.5284C53.5965 40.5284 53.9016 40.4811 54.174 40.3867C54.4501 40.2886 54.688 40.1433 54.8877 39.9508C55.0875 39.7547 55.2419 39.5114 55.3508 39.2208L56.593 39.5695C56.4623 39.9908 56.2425 40.3613 55.9338 40.6809C55.6251 40.9969 55.2437 41.2439 54.7897 41.4219C54.3356 41.5962 53.8253 41.6834 53.2587 41.6834ZM59.9655 30.3511V41.509H58.6797V30.3511H59.9655ZM63.6063 30.3511V41.509H62.3205V30.3511H63.6063ZM69.4917 30.3511H71.039L74.1336 35.5596H74.2643L77.3589 30.3511H78.9062L74.8745 36.9107V41.509H73.5234V36.9107L69.4917 30.3511ZM82.6955 41.6834C81.94 41.6834 81.2771 41.5036 80.7069 41.144C80.1403 40.7844 79.6971 40.2814 79.3775 39.6348C79.0615 38.9883 78.9035 38.2328 78.9035 37.3684C78.9035 36.4967 79.0615 35.7357 79.3775 35.0856C79.6971 34.4354 80.1403 33.9306 80.7069 33.571C81.2771 33.2114 81.94 33.0316 82.6955 33.0316C83.451 33.0316 84.112 33.2114 84.6786 33.571C85.2489 33.9306 85.692 34.4354 86.008 35.0856C86.3276 35.7357 86.4874 36.4967 86.4874 37.3684C86.4874 38.2328 86.3276 38.9883 86.008 39.6348C85.692 40.2814 85.2489 40.7844 84.6786 41.144C84.112 41.5036 83.451 41.6834 82.6955 41.6834ZM82.6955 40.5284C83.2694 40.5284 83.7415 40.3813 84.112 40.087C84.4825 39.7928 84.7567 39.406 84.9347 38.9266C85.1127 38.4471 85.2017 37.9277 85.2017 37.3684C85.2017 36.809 85.1127 36.2878 84.9347 35.8047C84.7567 35.3217 84.4825 34.9312 84.112 34.6334C83.7415 34.3355 83.2694 34.1866 82.6955 34.1866C82.1216 34.1866 81.6494 34.3355 81.2789 34.6334C80.9085 34.9312 80.6342 35.3217 80.4563 35.8047C80.2783 36.2878 80.1893 36.809 80.1893 37.3684C80.1893 37.9277 80.2783 38.4471 80.4563 38.9266C80.6342 39.406 80.9085 39.7928 81.2789 40.087C81.6494 40.3813 82.1216 40.5284 82.6955 40.5284ZM93.724 38.0875V33.1406H95.0098V41.509H93.724V40.0925H93.6369C93.4407 40.5175 93.1356 40.8789 92.7216 41.1767C92.3075 41.4709 91.7845 41.618 91.1525 41.618C90.6295 41.618 90.1645 41.5036 89.7577 41.2748C89.3509 41.0423 89.0313 40.6936 88.7988 40.2287C88.5664 39.7602 88.4502 39.1699 88.4502 38.458V33.1406H89.7359V38.3709C89.7359 38.9811 89.9067 39.4678 90.2481 39.831C90.5931 40.1942 91.0326 40.3758 91.5665 40.3758C91.8862 40.3758 92.2113 40.2941 92.5418 40.1306C92.8759 39.9672 93.1556 39.7166 93.3808 39.3788C93.6096 39.041 93.724 38.6106 93.724 38.0875ZM97.3648 41.509V33.1406H98.607V34.4045H98.6942C98.8467 33.9905 99.1228 33.6545 99.5223 33.3966C99.9219 33.1387 100.372 33.0098 100.873 33.0098C100.968 33.0098 101.086 33.0116 101.228 33.0153C101.369 33.0189 101.476 33.0243 101.549 33.0316V34.3392C101.505 34.3283 101.406 34.3119 101.249 34.2901C101.097 34.2647 100.935 34.252 100.765 34.252C100.358 34.252 99.9945 34.3374 99.6749 34.5081C99.3589 34.6751 99.1083 34.9076 98.923 35.2054C98.7414 35.4996 98.6506 35.8356 98.6506 36.2134V41.509H97.3648ZM107.563 41.509V30.3511H111.333C112.204 30.3511 112.92 30.5 113.479 30.7978C114.039 31.092 114.453 31.497 114.722 32.0128C114.99 32.5285 115.125 33.1151 115.125 33.7726C115.125 34.43 114.99 35.0129 114.722 35.5214C114.453 36.0299 114.04 36.4295 113.485 36.72C112.929 37.007 112.219 37.1505 111.355 37.1505H108.303V35.9301H111.311C111.907 35.9301 112.386 35.8429 112.749 35.6685C113.116 35.4942 113.381 35.2472 113.545 34.9276C113.712 34.6043 113.795 34.2193 113.795 33.7726C113.795 33.3258 113.712 32.9353 113.545 32.6012C113.378 32.267 113.111 32.0091 112.744 31.8275C112.377 31.6423 111.892 31.5497 111.289 31.5497H108.914V41.509H107.563ZM112.815 36.4967L115.561 41.509H113.991L111.289 36.4967H112.815ZM120.621 41.6834C119.814 41.6834 119.119 41.5054 118.534 41.1495C117.953 40.7899 117.504 40.2886 117.188 39.6457C116.876 38.9992 116.72 38.2474 116.72 37.3902C116.72 36.533 116.876 35.7775 117.188 35.1237C117.504 34.4663 117.944 33.9542 118.507 33.5873C119.073 33.2168 119.734 33.0316 120.49 33.0316C120.926 33.0316 121.356 33.1042 121.781 33.2495C122.206 33.3948 122.593 33.6309 122.942 33.9578C123.29 34.2811 123.568 34.7096 123.775 35.2436C123.982 35.7775 124.086 36.4349 124.086 37.2158V37.7607H117.635V36.6492H122.778C122.778 36.177 122.684 35.7557 122.495 35.3852C122.31 35.0147 122.044 34.7224 121.699 34.5081C121.358 34.2938 120.955 34.1866 120.49 34.1866C119.978 34.1866 119.535 34.3137 119.16 34.568C118.79 34.8186 118.505 35.1455 118.305 35.5487C118.105 35.9518 118.005 36.3841 118.005 36.8454V37.5863C118.005 38.2183 118.114 38.754 118.332 39.1935C118.554 39.6294 118.861 39.9617 119.253 40.1906C119.645 40.4158 120.101 40.5284 120.621 40.5284C120.958 40.5284 121.263 40.4811 121.536 40.3867C121.812 40.2886 122.05 40.1433 122.25 39.9508C122.449 39.7547 122.604 39.5114 122.713 39.2208L123.955 39.5695C123.824 39.9908 123.604 40.3613 123.296 40.6809C122.987 40.9969 122.606 41.2439 122.152 41.4219C121.698 41.5962 121.187 41.6834 120.621 41.6834ZM131.751 44.6472V40.2233H131.642C131.548 40.3758 131.414 40.5683 131.239 40.8008C131.065 41.0296 130.816 41.2348 130.493 41.4164C130.169 41.5944 129.739 41.6834 129.202 41.6834C128.504 41.6834 127.889 41.5072 127.355 41.1549C126.821 40.7989 126.403 40.2977 126.101 39.6512C125.8 39.001 125.649 38.2328 125.649 37.3466C125.649 36.4676 125.8 35.7049 126.101 35.0583C126.403 34.4118 126.822 33.9124 127.36 33.5601C127.898 33.2078 128.519 33.0316 129.223 33.0316C129.768 33.0316 130.199 33.1224 130.515 33.304C130.834 33.482 131.078 33.6854 131.245 33.9142C131.415 34.1394 131.548 34.3246 131.642 34.4699H131.795V33.1406H133.037V44.6472H131.751ZM129.376 40.5284C129.892 40.5284 130.327 40.394 130.683 40.1252C131.039 39.8528 131.31 39.4768 131.495 38.9974C131.68 38.5143 131.773 37.9568 131.773 37.3248C131.773 36.7001 131.682 36.1534 131.501 35.6849C131.319 35.2127 131.05 34.8459 130.694 34.5843C130.338 34.3192 129.899 34.1866 129.376 34.1866C128.831 34.1866 128.377 34.3265 128.014 34.6061C127.654 34.8822 127.384 35.2581 127.202 35.7339C127.024 36.2061 126.935 36.7364 126.935 37.3248C126.935 37.9205 127.026 38.4617 127.207 38.9484C127.393 39.4314 127.665 39.8165 128.025 40.1034C128.388 40.3867 128.838 40.5284 129.376 40.5284ZM140.665 38.0875V33.1406H141.95V41.509H140.665V40.0925H140.577C140.381 40.5175 140.076 40.8789 139.662 41.1767C139.248 41.4709 138.725 41.618 138.093 41.618C137.57 41.618 137.105 41.5036 136.698 41.2748C136.291 41.0423 135.972 40.6936 135.739 40.2287C135.507 39.7602 135.391 39.1699 135.391 38.458V33.1406H136.676V38.3709C136.676 38.9811 136.847 39.4678 137.189 39.831C137.534 40.1942 137.973 40.3758 138.507 40.3758C138.827 40.3758 139.152 40.2941 139.482 40.1306C139.816 39.9672 140.096 39.7166 140.321 39.3788C140.55 39.041 140.665 38.6106 140.665 38.0875ZM144.305 41.509V33.1406H145.591V41.509H144.305ZM144.959 31.7458C144.709 31.7458 144.492 31.6605 144.311 31.4897C144.133 31.319 144.044 31.1138 144.044 30.8741C144.044 30.6344 144.133 30.4292 144.311 30.2584C144.492 30.0877 144.709 30.0024 144.959 30.0024C145.21 30.0024 145.424 30.0877 145.602 30.2584C145.784 30.4292 145.874 30.6344 145.874 30.8741C145.874 31.1138 145.784 31.319 145.602 31.4897C145.424 31.6605 145.21 31.7458 144.959 31.7458ZM147.946 41.509V33.1406H149.188V34.4045H149.276C149.428 33.9905 149.704 33.6545 150.104 33.3966C150.503 33.1387 150.954 33.0098 151.455 33.0098C151.549 33.0098 151.667 33.0116 151.809 33.0153C151.951 33.0189 152.058 33.0243 152.13 33.0316V34.3392C152.087 34.3283 151.987 34.3119 151.831 34.2901C151.678 34.2647 151.517 34.252 151.346 34.252C150.939 34.252 150.576 34.3374 150.256 34.5081C149.94 34.6751 149.69 34.9076 149.504 35.2054C149.323 35.4996 149.232 35.8356 149.232 36.2134V41.509H147.946ZM156.908 41.6834C156.102 41.6834 155.407 41.5054 154.822 41.1495C154.241 40.7899 153.792 40.2886 153.476 39.6457C153.164 38.9992 153.008 38.2474 153.008 37.3902C153.008 36.533 153.164 35.7775 153.476 35.1237C153.792 34.4663 154.232 33.9542 154.795 33.5873C155.361 33.2168 156.022 33.0316 156.778 33.0316C157.214 33.0316 157.644 33.1042 158.069 33.2495C158.494 33.3948 158.881 33.6309 159.229 33.9578C159.578 34.2811 159.856 34.7096 160.063 35.2436C160.27 35.7775 160.374 36.4349 160.374 37.2158V37.7607H153.923V36.6492H159.066C159.066 36.177 158.972 35.7557 158.783 35.3852C158.597 35.0147 158.332 34.7224 157.987 34.5081C157.646 34.2938 157.243 34.1866 156.778 34.1866C156.266 34.1866 155.822 34.3137 155.448 34.568C155.078 34.8186 154.793 35.1455 154.593 35.5487C154.393 35.9518 154.293 36.3841 154.293 36.8454V37.5863C154.293 38.2183 154.402 38.754 154.62 39.1935C154.842 39.6294 155.149 39.9617 155.541 40.1906C155.933 40.4158 156.389 40.5284 156.908 40.5284C157.246 40.5284 157.551 40.4811 157.824 40.3867C158.1 40.2886 158.338 40.1433 158.537 39.9508C158.737 39.7547 158.892 39.5114 159.001 39.2208L160.243 39.5695C160.112 39.9908 159.892 40.3613 159.584 40.6809C159.275 40.9969 158.893 41.2439 158.439 41.4219C157.985 41.5962 157.475 41.6834 156.908 41.6834ZM162.329 41.509V33.1406H163.572V34.4481H163.681C163.855 34.0014 164.136 33.6545 164.525 33.4075C164.914 33.1569 165.38 33.0316 165.925 33.0316C166.477 33.0316 166.937 33.1569 167.304 33.4075C167.674 33.6545 167.963 34.0014 168.17 34.4481H168.257C168.471 34.0159 168.793 33.6727 169.221 33.4184C169.65 33.1605 170.164 33.0316 170.763 33.0316C171.512 33.0316 172.124 33.2659 172.599 33.7344C173.075 34.1993 173.313 34.9239 173.313 35.9083V41.509H172.027V35.9083C172.027 35.2908 171.858 34.8495 171.521 34.5843C171.183 34.3192 170.785 34.1866 170.327 34.1866C169.739 34.1866 169.283 34.3646 168.96 34.7205C168.637 35.0729 168.475 35.5196 168.475 36.0608V41.509H167.167V35.7775C167.167 35.3017 167.013 34.9185 166.704 34.6279C166.396 34.3337 165.998 34.1866 165.511 34.1866C165.177 34.1866 164.865 34.2756 164.574 34.4536C164.287 34.6316 164.055 34.8785 163.877 35.1945C163.702 35.5069 163.615 35.8683 163.615 36.2787V41.509H162.329ZM179.173 41.6834C178.366 41.6834 177.671 41.5054 177.086 41.1495C176.505 40.7899 176.056 40.2886 175.74 39.6457C175.428 38.9992 175.272 38.2474 175.272 37.3902C175.272 36.533 175.428 35.7775 175.74 35.1237C176.056 34.4663 176.496 33.9542 177.059 33.5873C177.625 33.2168 178.286 33.0316 179.042 33.0316C179.478 33.0316 179.908 33.1042 180.333 33.2495C180.758 33.3948 181.145 33.6309 181.494 33.9578C181.842 34.2811 182.12 34.7096 182.327 35.2436C182.534 35.7775 182.638 36.4349 182.638 37.2158V37.7607H176.187V36.6492H181.33C181.33 36.177 181.236 35.7557 181.047 35.3852C180.862 35.0147 180.596 34.7224 180.251 34.5081C179.91 34.2938 179.507 34.1866 179.042 34.1866C178.53 34.1866 178.087 34.3137 177.713 34.568C177.342 34.8186 177.057 35.1455 176.857 35.5487C176.657 35.9518 176.557 36.3841 176.557 36.8454V37.5863C176.557 38.2183 176.666 38.754 176.884 39.1935C177.106 39.6294 177.413 39.9617 177.805 40.1906C178.197 40.4158 178.653 40.5284 179.173 40.5284C179.51 40.5284 179.816 40.4811 180.088 40.3867C180.364 40.2886 180.602 40.1433 180.802 39.9508C181.001 39.7547 181.156 39.5114 181.265 39.2208L182.507 39.5695C182.376 39.9908 182.156 40.3613 181.848 40.6809C181.539 40.9969 181.158 41.2439 180.704 41.4219C180.25 41.5962 179.739 41.6834 179.173 41.6834ZM185.879 36.4749V41.509H184.594V33.1406H185.836V34.4481H185.945C186.141 34.0232 186.439 33.6818 186.838 33.4239C187.238 33.1624 187.754 33.0316 188.386 33.0316C188.952 33.0316 189.448 33.1478 189.873 33.3803C190.298 33.6091 190.628 33.9578 190.865 34.4263C191.101 34.8913 191.219 35.4797 191.219 36.1916V41.509H189.933V36.2787C189.933 35.6213 189.762 35.1092 189.421 34.7423C189.079 34.3719 188.611 34.1866 188.015 34.1866C187.605 34.1866 187.238 34.2756 186.915 34.4536C186.595 34.6316 186.343 34.8913 186.157 35.2327C185.972 35.5741 185.879 35.9882 185.879 36.4749ZM197.208 33.1406V34.2302H192.871V33.1406H197.208ZM194.135 31.1356H195.421V39.1118C195.421 39.475 195.473 39.7474 195.579 39.929C195.688 40.107 195.826 40.2269 195.993 40.2886C196.163 40.3467 196.343 40.3758 196.532 40.3758C196.674 40.3758 196.79 40.3685 196.881 40.354C196.972 40.3358 197.044 40.3213 197.099 40.3104L197.36 41.4654C197.273 41.4981 197.151 41.5308 196.995 41.5635C196.839 41.5998 196.641 41.618 196.401 41.618C196.038 41.618 195.682 41.5399 195.333 41.3837C194.988 41.2275 194.701 40.9896 194.473 40.67C194.247 40.3504 194.135 39.9472 194.135 39.4605V31.1356ZM204.92 35.0147L203.765 35.3416C203.692 35.1491 203.585 34.9621 203.443 34.7805C203.305 34.5952 203.116 34.4427 202.877 34.3228C202.637 34.203 202.33 34.143 201.956 34.143C201.444 34.143 201.017 34.2611 200.675 34.4972C200.338 34.7296 200.169 35.0256 200.169 35.3852C200.169 35.7049 200.285 35.9573 200.517 36.1425C200.75 36.3278 201.113 36.4821 201.607 36.6056L202.849 36.9107C203.597 37.0923 204.155 37.3702 204.522 37.7443C204.889 38.1148 205.072 38.5924 205.072 39.1772C205.072 39.6566 204.934 40.0852 204.658 40.463C204.386 40.8407 204.004 41.1386 203.514 41.3565C203.024 41.5744 202.453 41.6834 201.803 41.6834C200.95 41.6834 200.243 41.4981 199.684 41.1277C199.124 40.7572 198.77 40.216 198.621 39.5041L199.842 39.199C199.958 39.6494 200.178 39.9872 200.501 40.2124C200.828 40.4375 201.255 40.5501 201.781 40.5501C202.381 40.5501 202.857 40.423 203.209 40.1688C203.565 39.9109 203.743 39.6022 203.743 39.2426C203.743 38.952 203.641 38.7086 203.438 38.5125C203.234 38.3127 202.922 38.1638 202.501 38.0658L201.106 37.7389C200.339 37.5573 199.776 37.2758 199.417 36.8944C199.061 36.5094 198.883 36.0281 198.883 35.4506C198.883 34.9784 199.016 34.5607 199.281 34.1975C199.549 33.8343 199.914 33.5492 200.376 33.3421C200.841 33.1351 201.367 33.0316 201.956 33.0316C202.784 33.0316 203.434 33.2132 203.906 33.5764C204.382 33.9396 204.72 34.4191 204.92 35.0147Z" fill="#FAFAFA"/>
<g opacity="0.9">
<path d="M303.016 40.4129V31.783L396.507 61.5085L490.958 31.783L489.999 40.4129L396.507 71.5768L303.016 40.4129Z" fill="#CFCFCF"/>
<path d="M396.507 0.619141L303.016 31.783C302.249 32.04 365.184 52.0267 396.507 61.9879L490.958 31.783L396.507 0.619141Z" fill="#D9D9D9"/>
</g>
<path d="M216.709 36.098L302.05 36.098" stroke="white" stroke-width="0.958888" stroke-linecap="round" stroke-dasharray="1.92 1.92"/>
</svg>
