<svg width="797" height="310" viewBox="0 0 797 310" fill="none" xmlns="http://www.w3.org/2000/svg">
<path d="M303.965 278.683V270.021L397.81 299.858L492.618 270.021L491.656 278.683L397.81 309.965L303.965 278.683Z" fill="#CECECE" fill-opacity="0.95"/>
<path d="M397.81 238.739L303.965 270.021C303.195 270.279 366.368 290.341 397.81 300.34L492.618 270.021L397.81 238.739Z" fill="#D9D9D9"/>
<rect x="0.765625" y="254.139" width="255.067" height="40.4256" rx="20.2128" fill="#333339"/>
<path d="M20.9783 279.88C20.1544 279.88 19.4525 279.656 18.8728 279.207C18.2931 278.755 17.8502 278.101 17.5439 277.244C17.2377 276.383 17.0845 275.344 17.0845 274.127C17.0845 272.916 17.2377 271.883 17.5439 271.026C17.8538 270.165 18.2986 269.509 18.8783 269.057C19.4617 268.601 20.1617 268.373 20.9783 268.373C21.795 268.373 22.4932 268.601 23.0729 269.057C23.6563 269.509 24.1011 270.165 24.4073 271.026C24.7172 271.883 24.8722 272.916 24.8722 274.127C24.8722 275.344 24.719 276.383 24.4128 277.244C24.1065 278.101 23.6635 278.755 23.0838 279.207C22.5042 279.656 21.8023 279.88 20.9783 279.88ZM20.9783 278.677C21.795 278.677 22.4294 278.283 22.8815 277.495C23.3336 276.708 23.5596 275.585 23.5596 274.127C23.5596 273.157 23.4557 272.331 23.2479 271.649C23.0437 270.967 22.7484 270.448 22.362 270.091C21.9791 269.733 21.5179 269.555 20.9783 269.555C20.169 269.555 19.5364 269.954 19.0807 270.752C18.6249 271.547 18.3971 272.672 18.3971 274.127C18.3971 275.096 18.4991 275.92 18.7033 276.599C18.9075 277.277 19.201 277.793 19.5838 278.146C19.9703 278.5 20.4351 278.677 20.9783 278.677ZM30.4504 279.88C29.8087 279.88 29.2308 279.752 28.7167 279.497C28.2027 279.242 27.7907 278.892 27.4808 278.447C27.1709 278.002 27.0014 277.495 26.9722 276.927H28.2847C28.3358 277.433 28.5654 277.853 28.9738 278.184C29.3858 278.513 29.878 278.677 30.4504 278.677C30.9098 278.677 31.3181 278.569 31.6754 278.354C32.0363 278.139 32.3189 277.844 32.5231 277.468C32.7309 277.089 32.8348 276.66 32.8348 276.183C32.8348 275.694 32.7272 275.259 32.5121 274.876C32.3007 274.489 32.009 274.185 31.6371 273.963C31.2652 273.74 30.8405 273.627 30.3629 273.623C30.0202 273.62 29.6683 273.673 29.3074 273.782C28.9464 273.888 28.6493 274.025 28.416 274.192L27.1472 274.039L27.8253 268.527H33.6442V269.73H28.9628L28.5691 273.033H28.6347C28.8644 272.851 29.1524 272.699 29.4988 272.579C29.8452 272.459 30.2061 272.398 30.5816 272.398C31.267 272.398 31.8777 272.563 32.4137 272.891C32.9533 273.215 33.3762 273.66 33.6825 274.225C33.9924 274.79 34.1473 275.435 34.1473 276.161C34.1473 276.876 33.9869 277.514 33.666 278.075C33.3489 278.633 32.9113 279.074 32.3535 279.399C31.7957 279.719 31.1613 279.88 30.4504 279.88ZM36.8612 279.814C36.5914 279.814 36.3599 279.718 36.1667 279.524C35.9734 279.331 35.8768 279.1 35.8768 278.83C35.8768 278.56 35.9734 278.328 36.1667 278.135C36.3599 277.942 36.5914 277.845 36.8612 277.845C37.131 277.845 37.3625 277.942 37.5558 278.135C37.749 278.328 37.8456 278.56 37.8456 278.83C37.8456 279.008 37.8 279.173 37.7089 279.322C37.6214 279.471 37.5029 279.592 37.3534 279.683C37.2076 279.77 37.0435 279.814 36.8612 279.814ZM45.1274 279.727H43.7055L47.818 268.527H49.218L53.3306 279.727H51.9087L48.5618 270.298H48.4743L45.1274 279.727ZM45.6524 275.352H51.3837V276.555H45.6524V275.352ZM58.3127 279.902C57.5252 279.902 56.8471 279.716 56.2783 279.344C55.7096 278.972 55.272 278.46 54.9658 277.807C54.6595 277.155 54.5064 276.409 54.5064 275.57C54.5064 274.717 54.6632 273.964 54.9767 273.312C55.2939 272.655 55.7351 272.143 56.3002 271.775C56.8689 271.403 57.5325 271.217 58.2908 271.217C58.8815 271.217 59.4138 271.327 59.8877 271.545C60.3617 271.764 60.75 272.07 61.0526 272.464C61.3552 272.858 61.543 273.317 61.6159 273.842H60.3253C60.2268 273.459 60.0081 273.12 59.669 272.825C59.3336 272.526 58.8815 272.377 58.3127 272.377C57.8096 272.377 57.3684 272.508 56.9893 272.77C56.6137 273.029 56.3202 273.396 56.1088 273.87C55.901 274.34 55.7971 274.892 55.7971 275.527C55.7971 276.176 55.8991 276.741 56.1033 277.222C56.3111 277.703 56.6028 278.077 56.9783 278.343C57.3575 278.609 57.8023 278.742 58.3127 278.742C58.6481 278.742 58.9526 278.684 59.226 278.567C59.4995 278.451 59.731 278.283 59.9206 278.064C60.1101 277.845 60.245 277.583 60.3253 277.277H61.6159C61.543 277.772 61.3625 278.219 61.0745 278.617C60.7901 279.01 60.4128 279.324 59.9424 279.557C59.4758 279.787 58.9325 279.902 58.3127 279.902ZM64.7933 274.673V279.727H63.5026V268.527H64.7933V272.639H64.9027C65.0995 272.205 65.3949 271.861 65.7886 271.605C66.186 271.347 66.7147 271.217 67.3746 271.217C67.947 271.217 68.4483 271.332 68.8785 271.562C69.3087 271.788 69.6423 272.136 69.8793 272.606C70.1199 273.073 70.2403 273.667 70.2403 274.389V279.727H68.9496V274.477C68.9496 273.809 68.7764 273.294 68.4301 272.929C68.0874 272.561 67.6116 272.377 67.0027 272.377C66.5798 272.377 66.2006 272.466 65.8652 272.645C65.5334 272.823 65.2709 273.084 65.0777 273.427C64.8881 273.769 64.7933 274.185 64.7933 274.673ZM72.6014 279.727V271.327H73.8921V279.727H72.6014ZM73.2577 269.927C73.0061 269.927 72.7892 269.841 72.6069 269.669C72.4282 269.498 72.3389 269.292 72.3389 269.052C72.3389 268.811 72.4282 268.605 72.6069 268.434C72.7892 268.262 73.0061 268.177 73.2577 268.177C73.5092 268.177 73.7244 268.262 73.903 268.434C74.0853 268.605 74.1764 268.811 74.1764 269.052C74.1764 269.292 74.0853 269.498 73.903 269.669C73.7244 269.841 73.5092 269.927 73.2577 269.927ZM79.7779 279.902C78.9685 279.902 78.2703 279.723 77.6833 279.366C77.1 279.005 76.6497 278.502 76.3325 277.856C76.019 277.207 75.8622 276.453 75.8622 275.592C75.8622 274.732 76.019 273.973 76.3325 273.317C76.6497 272.657 77.0909 272.143 77.656 271.775C78.2248 271.403 78.8883 271.217 79.6467 271.217C80.0842 271.217 80.5162 271.29 80.9428 271.436C81.3693 271.582 81.7576 271.819 82.1076 272.147C82.4576 272.471 82.7365 272.902 82.9444 273.438C83.1522 273.973 83.2561 274.633 83.2561 275.417V275.964H76.781V274.848H81.9436C81.9436 274.375 81.8488 273.952 81.6592 273.58C81.4732 273.208 81.2071 272.914 80.8607 272.699C80.518 272.484 80.1133 272.377 79.6467 272.377C79.1326 272.377 78.6878 272.504 78.3123 272.759C77.9404 273.011 77.6542 273.339 77.4536 273.744C77.2531 274.148 77.1529 274.582 77.1529 275.045V275.789C77.1529 276.424 77.2622 276.961 77.481 277.402C77.7034 277.84 78.0115 278.174 78.4052 278.403C78.799 278.629 79.2565 278.742 79.7779 278.742C80.117 278.742 80.4232 278.695 80.6967 278.6C80.9738 278.502 81.2126 278.356 81.4131 278.163C81.6136 277.966 81.7686 277.721 81.8779 277.43L83.1248 277.78C82.9936 278.203 82.773 278.575 82.4631 278.895C82.1532 279.213 81.7704 279.461 81.3146 279.639C80.8589 279.814 80.3467 279.902 79.7779 279.902ZM91.8326 271.327L88.7263 279.727H87.4138L84.3075 271.327H85.7075L88.0263 278.02H88.1138L90.4326 271.327H91.8326ZM96.7573 279.902C95.9479 279.902 95.2497 279.723 94.6627 279.366C94.0794 279.005 93.6291 278.502 93.3119 277.856C92.9984 277.207 92.8416 276.453 92.8416 275.592C92.8416 274.732 92.9984 273.973 93.3119 273.317C93.6291 272.657 94.0702 272.143 94.6354 271.775C95.2041 271.403 95.8677 271.217 96.626 271.217C97.0635 271.217 97.4956 271.29 97.9221 271.436C98.3487 271.582 98.737 271.819 99.087 272.147C99.437 272.471 99.7159 272.902 99.9237 273.438C100.132 273.973 100.235 274.633 100.235 275.417V275.964H93.7603V274.848H98.9229C98.9229 274.375 98.8281 273.952 98.6385 273.58C98.4526 273.208 98.1865 272.914 97.8401 272.699C97.4974 272.484 97.0927 272.377 96.626 272.377C96.1119 272.377 95.6671 272.504 95.2916 272.759C94.9197 273.011 94.6335 273.339 94.433 273.744C94.2325 274.148 94.1322 274.582 94.1322 275.045V275.789C94.1322 276.424 94.2416 276.961 94.4604 277.402C94.6828 277.84 94.9908 278.174 95.3846 278.403C95.7783 278.629 96.2359 278.742 96.7573 278.742C97.0963 278.742 97.4026 278.695 97.676 278.6C97.9531 278.502 98.1919 278.356 98.3925 278.163C98.593 277.966 98.7479 277.721 98.8573 277.43L100.104 277.78C99.9729 278.203 99.7524 278.575 99.4425 278.895C99.1326 279.213 98.7497 279.461 98.294 279.639C97.8383 279.814 97.326 279.902 96.7573 279.902ZM105.743 268.527H107.296L110.402 273.755H110.533L113.64 268.527H115.193L111.146 275.111V279.727H109.79V275.111L105.743 268.527ZM118.996 279.902C118.238 279.902 117.573 279.721 117 279.36C116.431 278.999 115.987 278.494 115.666 277.845C115.349 277.196 115.19 276.438 115.19 275.57C115.19 274.695 115.349 273.932 115.666 273.279C115.987 272.626 116.431 272.12 117 271.759C117.573 271.398 118.238 271.217 118.996 271.217C119.755 271.217 120.418 271.398 120.987 271.759C121.559 272.12 122.004 272.626 122.321 273.279C122.642 273.932 122.803 274.695 122.803 275.57C122.803 276.438 122.642 277.196 122.321 277.845C122.004 278.494 121.559 278.999 120.987 279.36C120.418 279.721 119.755 279.902 118.996 279.902ZM118.996 278.742C119.572 278.742 120.046 278.595 120.418 278.299C120.79 278.004 121.065 277.616 121.244 277.134C121.423 276.653 121.512 276.132 121.512 275.57C121.512 275.009 121.423 274.486 121.244 274.001C121.065 273.516 120.79 273.124 120.418 272.825C120.046 272.526 119.572 272.377 118.996 272.377C118.42 272.377 117.946 272.526 117.574 272.825C117.203 273.124 116.927 273.516 116.749 274.001C116.57 274.486 116.481 275.009 116.481 275.57C116.481 276.132 116.57 276.653 116.749 277.134C116.927 277.616 117.203 278.004 117.574 278.299C117.946 278.595 118.42 278.742 118.996 278.742ZM130.067 276.292V271.327H131.357V279.727H130.067V278.305H129.979C129.782 278.731 129.476 279.094 129.06 279.393C128.645 279.688 128.12 279.836 127.485 279.836C126.96 279.836 126.494 279.721 126.085 279.492C125.677 279.258 125.356 278.908 125.123 278.442C124.889 277.971 124.773 277.379 124.773 276.664V271.327H126.063V276.577C126.063 277.189 126.235 277.678 126.577 278.042C126.924 278.407 127.365 278.589 127.901 278.589C128.222 278.589 128.548 278.507 128.88 278.343C129.215 278.179 129.496 277.927 129.722 277.588C129.952 277.249 130.067 276.817 130.067 276.292ZM133.721 279.727V271.327H134.968V272.595H135.056C135.209 272.18 135.486 271.842 135.887 271.584C136.288 271.325 136.74 271.195 137.243 271.195C137.338 271.195 137.456 271.197 137.599 271.201C137.741 271.204 137.848 271.21 137.921 271.217V272.53C137.877 272.519 137.777 272.502 137.62 272.48C137.467 272.455 137.305 272.442 137.134 272.442C136.725 272.442 136.361 272.528 136.04 272.699C135.723 272.867 135.471 273.1 135.285 273.399C135.103 273.695 135.012 274.032 135.012 274.411V279.727H133.721ZM143.957 279.727V268.527H147.742C148.621 268.527 149.339 268.685 149.897 269.002C150.458 269.316 150.874 269.741 151.143 270.277C151.413 270.812 151.548 271.41 151.548 272.07C151.548 272.73 151.413 273.33 151.143 273.87C150.877 274.409 150.465 274.839 149.908 275.16C149.35 275.477 148.635 275.636 147.764 275.636H145.051V274.433H147.72C148.322 274.433 148.805 274.329 149.169 274.121C149.534 273.913 149.798 273.633 149.962 273.279C150.13 272.922 150.214 272.519 150.214 272.07C150.214 271.622 150.13 271.221 149.962 270.867C149.798 270.514 149.532 270.236 149.164 270.036C148.796 269.832 148.307 269.73 147.698 269.73H145.314V279.727H143.957ZM153.558 279.727V271.327H154.805V272.595H154.892C155.045 272.18 155.323 271.842 155.724 271.584C156.125 271.325 156.577 271.195 157.08 271.195C157.175 271.195 157.293 271.197 157.435 271.201C157.578 271.204 157.685 271.21 157.758 271.217V272.53C157.714 272.519 157.614 272.502 157.457 272.48C157.304 272.455 157.142 272.442 156.971 272.442C156.562 272.442 156.198 272.528 155.877 272.699C155.56 272.867 155.308 273.1 155.122 273.399C154.94 273.695 154.849 274.032 154.849 274.411V279.727H153.558ZM162.445 279.902C161.686 279.902 161.021 279.721 160.449 279.36C159.88 278.999 159.435 278.494 159.114 277.845C158.797 277.196 158.639 276.438 158.639 275.57C158.639 274.695 158.797 273.932 159.114 273.279C159.435 272.626 159.88 272.12 160.449 271.759C161.021 271.398 161.686 271.217 162.445 271.217C163.203 271.217 163.867 271.398 164.435 271.759C165.008 272.12 165.453 272.626 165.77 273.279C166.091 273.932 166.251 274.695 166.251 275.57C166.251 276.438 166.091 277.196 165.77 277.845C165.453 278.494 165.008 278.999 164.435 279.36C163.867 279.721 163.203 279.902 162.445 279.902ZM162.445 278.742C163.021 278.742 163.495 278.595 163.867 278.299C164.239 278.004 164.514 277.616 164.693 277.134C164.871 276.653 164.96 276.132 164.96 275.57C164.96 275.009 164.871 274.486 164.693 274.001C164.514 273.516 164.239 273.124 163.867 272.825C163.495 272.526 163.021 272.377 162.445 272.377C161.869 272.377 161.395 272.526 161.023 272.825C160.651 273.124 160.376 273.516 160.197 274.001C160.018 274.486 159.929 275.009 159.929 275.57C159.929 276.132 160.018 276.653 160.197 277.134C160.376 277.616 160.651 278.004 161.023 278.299C161.395 278.595 161.869 278.742 162.445 278.742ZM168.221 271.327H169.512V280.339C169.512 280.857 169.423 281.305 169.244 281.685C169.069 282.064 168.803 282.357 168.445 282.565C168.092 282.773 167.645 282.877 167.106 282.877C167.062 282.877 167.018 282.877 166.974 282.877C166.931 282.877 166.887 282.877 166.843 282.877V281.674C166.887 281.674 166.927 281.674 166.963 281.674C167 281.674 167.04 281.674 167.084 281.674C167.478 281.674 167.766 281.557 167.948 281.324C168.13 281.094 168.221 280.766 168.221 280.339V271.327ZM168.856 269.927C168.604 269.927 168.387 269.841 168.205 269.669C168.026 269.498 167.937 269.292 167.937 269.052C167.937 268.811 168.026 268.605 168.205 268.434C168.387 268.262 168.604 268.177 168.856 268.177C169.107 268.177 169.322 268.262 169.501 268.434C169.683 268.605 169.774 268.811 169.774 269.052C169.774 269.292 169.683 269.498 169.501 269.669C169.322 269.841 169.107 269.927 168.856 269.927ZM175.398 279.902C174.588 279.902 173.89 279.723 173.303 279.366C172.72 279.005 172.27 278.502 171.952 277.856C171.639 277.207 171.482 276.453 171.482 275.592C171.482 274.732 171.639 273.973 171.952 273.317C172.27 272.657 172.711 272.143 173.276 271.775C173.845 271.403 174.508 271.217 175.267 271.217C175.704 271.217 176.136 271.29 176.563 271.436C176.989 271.582 177.377 271.819 177.727 272.147C178.077 272.471 178.356 272.902 178.564 273.438C178.772 273.973 178.876 274.633 178.876 275.417V275.964H172.401V274.848H177.563C177.563 274.375 177.469 273.952 177.279 273.58C177.093 273.208 176.827 272.914 176.481 272.699C176.138 272.484 175.733 272.377 175.267 272.377C174.752 272.377 174.308 272.504 173.932 272.759C173.56 273.011 173.274 273.339 173.074 273.744C172.873 274.148 172.773 274.582 172.773 275.045V275.789C172.773 276.424 172.882 276.961 173.101 277.402C173.323 277.84 173.631 278.174 174.025 278.403C174.419 278.629 174.876 278.742 175.398 278.742C175.737 278.742 176.043 278.695 176.317 278.6C176.594 278.502 176.832 278.356 177.033 278.163C177.233 277.966 177.388 277.721 177.498 277.43L178.745 277.78C178.613 278.203 178.393 278.575 178.083 278.895C177.773 279.213 177.39 279.461 176.935 279.639C176.479 279.814 175.967 279.902 175.398 279.902ZM184.252 279.902C183.464 279.902 182.786 279.716 182.217 279.344C181.649 278.972 181.211 278.46 180.905 277.807C180.599 277.155 180.446 276.409 180.446 275.57C180.446 274.717 180.602 273.964 180.916 273.312C181.233 272.655 181.674 272.143 182.239 271.775C182.808 271.403 183.472 271.217 184.23 271.217C184.821 271.217 185.353 271.327 185.827 271.545C186.301 271.764 186.689 272.07 186.992 272.464C187.294 272.858 187.482 273.317 187.555 273.842H186.264C186.166 273.459 185.947 273.12 185.608 272.825C185.273 272.526 184.821 272.377 184.252 272.377C183.749 272.377 183.308 272.508 182.928 272.77C182.553 273.029 182.259 273.396 182.048 273.87C181.84 274.34 181.736 274.892 181.736 275.527C181.736 276.176 181.838 276.741 182.042 277.222C182.25 277.703 182.542 278.077 182.917 278.343C183.297 278.609 183.741 278.742 184.252 278.742C184.587 278.742 184.892 278.684 185.165 278.567C185.439 278.451 185.67 278.283 185.86 278.064C186.049 277.845 186.184 277.583 186.264 277.277H187.555C187.482 277.772 187.302 278.219 187.014 278.617C186.729 279.01 186.352 279.324 185.882 279.557C185.415 279.787 184.872 279.902 184.252 279.902ZM193.095 271.327V272.42H188.742V271.327H193.095ZM190.01 269.314H191.301V277.32C191.301 277.685 191.354 277.958 191.46 278.141C191.569 278.319 191.708 278.44 191.875 278.502C192.047 278.56 192.227 278.589 192.417 278.589C192.559 278.589 192.676 278.582 192.767 278.567C192.858 278.549 192.931 278.534 192.986 278.524L193.248 279.683C193.161 279.716 193.038 279.749 192.882 279.781C192.725 279.818 192.526 279.836 192.286 279.836C191.921 279.836 191.564 279.758 191.214 279.601C190.867 279.444 190.579 279.205 190.35 278.884C190.124 278.564 190.01 278.159 190.01 277.67V269.314ZM207.199 272.027C207.079 271.658 206.92 271.328 206.723 271.037C206.53 270.741 206.299 270.49 206.029 270.282C205.763 270.074 205.46 269.916 205.121 269.806C204.782 269.697 204.41 269.642 204.005 269.642C203.342 269.642 202.738 269.814 202.195 270.156C201.652 270.499 201.22 271.004 200.899 271.671C200.578 272.338 200.418 273.157 200.418 274.127C200.418 275.096 200.58 275.915 200.904 276.582C201.229 277.249 201.668 277.754 202.222 278.097C202.777 278.44 203.4 278.611 204.093 278.611C204.734 278.611 205.3 278.474 205.788 278.201C206.28 277.924 206.663 277.534 206.937 277.031C207.214 276.524 207.352 275.928 207.352 275.242L207.768 275.33H204.399V274.127H208.665V275.33C208.665 276.252 208.468 277.054 208.074 277.736C207.684 278.418 207.144 278.946 206.455 279.322C205.77 279.694 204.982 279.88 204.093 279.88C203.101 279.88 202.23 279.646 201.479 279.18C200.731 278.713 200.148 278.05 199.729 277.189C199.313 276.329 199.105 275.308 199.105 274.127C199.105 273.241 199.224 272.444 199.461 271.737C199.701 271.026 200.04 270.421 200.478 269.921C200.915 269.422 201.433 269.039 202.031 268.773C202.629 268.506 203.287 268.373 204.005 268.373C204.596 268.373 205.146 268.463 205.657 268.641C206.171 268.816 206.628 269.066 207.03 269.391C207.434 269.711 207.771 270.096 208.041 270.545C208.311 270.989 208.497 271.483 208.599 272.027H207.199ZM214.225 279.902C213.467 279.902 212.801 279.721 212.229 279.36C211.66 278.999 211.215 278.494 210.895 277.845C210.577 277.196 210.419 276.438 210.419 275.57C210.419 274.695 210.577 273.932 210.895 273.279C211.215 272.626 211.66 272.12 212.229 271.759C212.801 271.398 213.467 271.217 214.225 271.217C214.983 271.217 215.647 271.398 216.216 271.759C216.788 272.12 217.233 272.626 217.55 273.279C217.871 273.932 218.031 274.695 218.031 275.57C218.031 276.438 217.871 277.196 217.55 277.845C217.233 278.494 216.788 278.999 216.216 279.36C215.647 279.721 214.983 279.902 214.225 279.902ZM214.225 278.742C214.801 278.742 215.275 278.595 215.647 278.299C216.019 278.004 216.294 277.616 216.473 277.134C216.651 276.653 216.741 276.132 216.741 275.57C216.741 275.009 216.651 274.486 216.473 274.001C216.294 273.516 216.019 273.124 215.647 272.825C215.275 272.526 214.801 272.377 214.225 272.377C213.649 272.377 213.175 272.526 212.803 272.825C212.431 273.124 212.156 273.516 211.977 274.001C211.799 274.486 211.709 275.009 211.709 275.57C211.709 276.132 211.799 276.653 211.977 277.134C212.156 277.616 212.431 278.004 212.803 278.299C213.175 278.595 213.649 278.742 214.225 278.742ZM222.473 279.924C221.941 279.924 221.458 279.823 221.024 279.623C220.59 279.419 220.246 279.125 219.991 278.742C219.735 278.356 219.608 277.889 219.608 277.342C219.608 276.861 219.703 276.471 219.892 276.172C220.082 275.869 220.335 275.632 220.652 275.461C220.97 275.29 221.32 275.162 221.702 275.078C222.089 274.991 222.477 274.921 222.867 274.87C223.378 274.805 223.791 274.756 224.109 274.723C224.43 274.686 224.663 274.626 224.809 274.542C224.958 274.458 225.033 274.313 225.033 274.105V274.061C225.033 273.521 224.885 273.102 224.59 272.803C224.298 272.504 223.855 272.355 223.261 272.355C222.645 272.355 222.162 272.49 221.812 272.759C221.462 273.029 221.216 273.317 221.073 273.623L219.848 273.186C220.067 272.676 220.359 272.278 220.723 271.994C221.092 271.706 221.493 271.505 221.927 271.392C222.364 271.276 222.794 271.217 223.217 271.217C223.487 271.217 223.797 271.25 224.147 271.316C224.501 271.378 224.842 271.507 225.17 271.704C225.501 271.901 225.777 272.198 225.995 272.595C226.214 272.993 226.324 273.525 226.324 274.192V279.727H225.033V278.589H224.967C224.88 278.771 224.734 278.967 224.53 279.174C224.326 279.382 224.054 279.559 223.715 279.705C223.376 279.851 222.962 279.924 222.473 279.924ZM222.67 278.764C223.181 278.764 223.611 278.664 223.961 278.463C224.315 278.263 224.581 278.004 224.759 277.687C224.942 277.37 225.033 277.036 225.033 276.686V275.505C224.978 275.57 224.858 275.631 224.672 275.685C224.49 275.736 224.278 275.782 224.038 275.822C223.801 275.858 223.569 275.891 223.343 275.92C223.121 275.946 222.94 275.968 222.802 275.986C222.466 276.03 222.153 276.101 221.861 276.199C221.573 276.294 221.34 276.438 221.161 276.631C220.986 276.821 220.898 277.08 220.898 277.408C220.898 277.856 221.064 278.195 221.396 278.425C221.732 278.651 222.156 278.764 222.67 278.764ZM229.97 268.527V279.727H228.679V268.527H229.97ZM238.284 273.208L237.125 273.536C237.052 273.343 236.944 273.155 236.802 272.973C236.663 272.787 236.474 272.634 236.233 272.513C235.992 272.393 235.684 272.333 235.309 272.333C234.795 272.333 234.366 272.451 234.024 272.688C233.685 272.922 233.515 273.219 233.515 273.58C233.515 273.901 233.632 274.154 233.865 274.34C234.098 274.526 234.463 274.681 234.959 274.805L236.206 275.111C236.957 275.293 237.516 275.572 237.885 275.948C238.253 276.32 238.437 276.799 238.437 277.386C238.437 277.867 238.298 278.297 238.021 278.677C237.748 279.056 237.365 279.355 236.873 279.574C236.381 279.792 235.808 279.902 235.156 279.902C234.299 279.902 233.59 279.716 233.028 279.344C232.467 278.972 232.111 278.429 231.962 277.714L233.187 277.408C233.304 277.86 233.524 278.199 233.849 278.425C234.177 278.651 234.605 278.764 235.134 278.764C235.735 278.764 236.213 278.637 236.567 278.381C236.924 278.122 237.103 277.813 237.103 277.452C237.103 277.16 237.001 276.916 236.796 276.719C236.592 276.518 236.279 276.369 235.856 276.27L234.456 275.942C233.686 275.76 233.121 275.477 232.76 275.095C232.403 274.708 232.224 274.225 232.224 273.645C232.224 273.171 232.358 272.752 232.624 272.388C232.893 272.023 233.26 271.737 233.723 271.529C234.19 271.321 234.718 271.217 235.309 271.217C236.14 271.217 236.793 271.399 237.267 271.764C237.744 272.129 238.083 272.61 238.284 273.208Z" fill="#FAFAFA"/>
<path d="M255.832 274.352H303.958" stroke="white" stroke-width="0.962515" stroke-linecap="round" stroke-dasharray="1.93 1.93"/>
<rect x="578.275" y="194.463" width="217.528" height="40.4256" rx="20.2128" fill="#333339"/>
<path d="M598.488 220.204C597.664 220.204 596.962 219.98 596.382 219.531C595.802 219.079 595.359 218.425 595.053 217.568C594.747 216.707 594.594 215.668 594.594 214.451C594.594 213.24 594.747 212.207 595.053 211.35C595.363 210.489 595.808 209.833 596.388 209.381C596.971 208.925 597.671 208.697 598.488 208.697C599.304 208.697 600.002 208.925 600.582 209.381C601.166 209.833 601.61 210.489 601.917 211.35C602.226 212.207 602.381 213.24 602.381 214.451C602.381 215.668 602.228 216.707 601.922 217.568C601.616 218.425 601.173 219.079 600.593 219.531C600.013 219.98 599.312 220.204 598.488 220.204ZM598.488 219.001C599.304 219.001 599.939 218.607 600.391 217.819C600.843 217.032 601.069 215.909 601.069 214.451C601.069 213.481 600.965 212.655 600.757 211.973C600.553 211.292 600.258 210.772 599.871 210.415C599.488 210.057 599.027 209.879 598.488 209.879C597.678 209.879 597.046 210.278 596.59 211.076C596.134 211.871 595.906 212.996 595.906 214.451C595.906 215.42 596.008 216.244 596.213 216.923C596.417 217.601 596.71 218.117 597.093 218.47C597.48 218.824 597.944 219.001 598.488 219.001ZM604.197 217.754V216.638L609.119 208.851H609.928V210.579H609.382L605.663 216.463V216.551H612.291V217.754H604.197ZM609.469 220.051V217.415V216.895V208.851H610.76V220.051H609.469ZM614.777 220.138C614.507 220.138 614.275 220.042 614.082 219.848C613.889 219.655 613.792 219.424 613.792 219.154C613.792 218.884 613.889 218.653 614.082 218.459C614.275 218.266 614.507 218.17 614.777 218.17C615.046 218.17 615.278 218.266 615.471 218.459C615.664 218.653 615.761 218.884 615.761 219.154C615.761 219.333 615.715 219.497 615.624 219.646C615.537 219.796 615.418 219.916 615.269 220.007C615.123 220.095 614.959 220.138 614.777 220.138ZM622.583 220.051V208.851H623.94V218.848H629.146V220.051H622.583ZM634.593 220.226C633.783 220.226 633.085 220.047 632.498 219.69C631.915 219.329 631.465 218.826 631.148 218.18C630.834 217.531 630.677 216.777 630.677 215.916C630.677 215.056 630.834 214.298 631.148 213.641C631.465 212.981 631.906 212.467 632.471 212.099C633.04 211.727 633.703 211.541 634.462 211.541C634.899 211.541 635.331 211.614 635.758 211.76C636.184 211.906 636.573 212.143 636.923 212.471C637.273 212.795 637.552 213.226 637.759 213.762C637.967 214.298 638.071 214.957 638.071 215.741V216.288H631.596V215.173H636.759C636.759 214.699 636.664 214.276 636.474 213.904C636.288 213.532 636.022 213.238 635.676 213.023C635.333 212.808 634.928 212.701 634.462 212.701C633.948 212.701 633.503 212.828 633.127 213.083C632.755 213.335 632.469 213.663 632.269 214.068C632.068 214.473 631.968 214.906 631.968 215.369V216.113C631.968 216.748 632.077 217.285 632.296 217.727C632.518 218.164 632.826 218.498 633.22 218.727C633.614 218.953 634.072 219.066 634.593 219.066C634.932 219.066 635.238 219.019 635.512 218.924C635.789 218.826 636.028 218.68 636.228 218.487C636.429 218.29 636.584 218.046 636.693 217.754L637.94 218.104C637.809 218.527 637.588 218.899 637.278 219.22C636.968 219.537 636.585 219.785 636.13 219.963C635.674 220.138 635.162 220.226 634.593 220.226ZM642.506 220.248C641.974 220.248 641.491 220.147 641.057 219.947C640.623 219.743 640.279 219.449 640.023 219.066C639.768 218.68 639.641 218.213 639.641 217.666C639.641 217.185 639.735 216.795 639.925 216.496C640.115 216.193 640.368 215.956 640.685 215.785C641.002 215.614 641.352 215.486 641.735 215.402C642.122 215.315 642.51 215.245 642.9 215.194C643.41 215.129 643.824 215.08 644.141 215.047C644.462 215.01 644.696 214.95 644.841 214.866C644.991 214.782 645.066 214.637 645.066 214.429V214.385C645.066 213.845 644.918 213.426 644.623 213.127C644.331 212.828 643.888 212.679 643.294 212.679C642.678 212.679 642.195 212.814 641.845 213.083C641.495 213.353 641.248 213.641 641.106 213.948L639.881 213.51C640.1 213 640.392 212.602 640.756 212.318C641.124 212.03 641.526 211.829 641.959 211.716C642.397 211.6 642.827 211.541 643.25 211.541C643.52 211.541 643.83 211.574 644.18 211.64C644.533 211.702 644.874 211.831 645.202 212.028C645.534 212.225 645.809 212.522 646.028 212.919C646.247 213.317 646.356 213.849 646.356 214.516V220.051H645.066V218.913H645C644.913 219.096 644.767 219.291 644.563 219.498C644.358 219.706 644.087 219.883 643.748 220.029C643.409 220.175 642.995 220.248 642.506 220.248ZM642.703 219.088C643.214 219.088 643.644 218.988 643.994 218.787C644.347 218.587 644.614 218.328 644.792 218.011C644.975 217.694 645.066 217.36 645.066 217.01V215.829C645.011 215.894 644.891 215.955 644.705 216.009C644.522 216.06 644.311 216.106 644.07 216.146C643.833 216.182 643.602 216.215 643.376 216.244C643.153 216.27 642.973 216.292 642.834 216.31C642.499 216.354 642.185 216.425 641.894 216.523C641.606 216.618 641.372 216.762 641.194 216.955C641.019 217.145 640.931 217.404 640.931 217.732C640.931 218.18 641.097 218.52 641.429 218.749C641.764 218.975 642.189 219.088 642.703 219.088ZM651.884 220.226C651.184 220.226 650.566 220.049 650.03 219.695C649.494 219.338 649.075 218.835 648.772 218.186C648.47 217.533 648.318 216.762 648.318 215.873C648.318 214.99 648.47 214.225 648.772 213.576C649.075 212.927 649.496 212.425 650.036 212.072C650.575 211.718 651.199 211.541 651.906 211.541C652.453 211.541 652.885 211.632 653.202 211.815C653.523 211.993 653.767 212.198 653.935 212.427C654.106 212.653 654.239 212.839 654.334 212.985H654.443V208.851H655.734V220.051H654.487V218.76H654.334C654.239 218.913 654.104 219.106 653.929 219.34C653.754 219.57 653.505 219.776 653.18 219.958C652.856 220.136 652.424 220.226 651.884 220.226ZM652.059 219.066C652.577 219.066 653.014 218.931 653.371 218.662C653.729 218.388 654 218.011 654.186 217.53C654.372 217.045 654.465 216.485 654.465 215.851C654.465 215.224 654.374 214.675 654.192 214.205C654.01 213.731 653.74 213.362 653.382 213.1C653.025 212.834 652.584 212.701 652.059 212.701C651.512 212.701 651.056 212.841 650.692 213.122C650.331 213.399 650.059 213.776 649.877 214.254C649.698 214.728 649.609 215.26 649.609 215.851C649.609 216.449 649.7 216.992 649.882 217.48C650.068 217.965 650.342 218.352 650.703 218.64C651.067 218.924 651.519 219.066 652.059 219.066ZM662.783 220.051V208.851H669.543V210.054H664.14V213.838H669.193V215.041H664.14V218.848H669.63V220.051H662.783ZM672.775 211.651L674.787 215.085L676.8 211.651H678.288L675.575 215.851L678.288 220.051H676.8L674.787 216.791L672.775 220.051H671.287L673.956 215.851L671.287 211.651H672.775ZM683.782 211.651V212.744H679.429V211.651H683.782ZM680.698 209.638H681.989V217.644C681.989 218.009 682.041 218.283 682.147 218.465C682.257 218.643 682.395 218.764 682.563 218.826C682.734 218.884 682.915 218.913 683.104 218.913C683.246 218.913 683.363 218.906 683.454 218.891C683.545 218.873 683.618 218.859 683.673 218.848L683.935 220.007C683.848 220.04 683.726 220.073 683.569 220.105C683.412 220.142 683.214 220.16 682.973 220.16C682.608 220.16 682.251 220.082 681.901 219.925C681.555 219.768 681.267 219.529 681.037 219.209C680.811 218.888 680.698 218.483 680.698 217.994V209.638ZM689.155 220.226C688.346 220.226 687.648 220.047 687.061 219.69C686.478 219.329 686.027 218.826 685.71 218.18C685.397 217.531 685.24 216.777 685.24 215.916C685.24 215.056 685.397 214.298 685.71 213.641C686.027 212.981 686.468 212.467 687.034 212.099C687.602 211.727 688.266 211.541 689.024 211.541C689.462 211.541 689.894 211.614 690.32 211.76C690.747 211.906 691.135 212.143 691.485 212.471C691.835 212.795 692.114 213.226 692.322 213.762C692.53 214.298 692.634 214.957 692.634 215.741V216.288H686.159V215.173H691.321C691.321 214.699 691.226 214.276 691.037 213.904C690.851 213.532 690.585 213.238 690.238 213.023C689.896 212.808 689.491 212.701 689.024 212.701C688.51 212.701 688.065 212.828 687.69 213.083C687.318 213.335 687.032 213.663 686.831 214.068C686.631 214.473 686.53 214.906 686.53 215.369V216.113C686.53 216.748 686.64 217.285 686.859 217.727C687.081 218.164 687.389 218.498 687.783 218.727C688.177 218.953 688.634 219.066 689.155 219.066C689.495 219.066 689.801 219.019 690.074 218.924C690.351 218.826 690.59 218.68 690.791 218.487C690.991 218.29 691.146 218.046 691.255 217.754L692.502 218.104C692.371 218.527 692.151 218.899 691.841 219.22C691.531 219.537 691.148 219.785 690.692 219.963C690.236 220.138 689.724 220.226 689.155 220.226ZM695.888 214.998V220.051H694.597V211.651H695.844V212.963H695.953C696.15 212.537 696.449 212.194 696.85 211.935C697.251 211.673 697.769 211.541 698.403 211.541C698.972 211.541 699.47 211.658 699.896 211.891C700.323 212.121 700.655 212.471 700.892 212.941C701.129 213.408 701.247 213.999 701.247 214.713V220.051H699.956V214.801C699.956 214.141 699.785 213.627 699.442 213.258C699.1 212.887 698.629 212.701 698.031 212.701C697.619 212.701 697.251 212.79 696.927 212.969C696.606 213.147 696.352 213.408 696.167 213.751C695.981 214.093 695.888 214.509 695.888 214.998ZM706.777 220.226C706.077 220.226 705.459 220.049 704.923 219.695C704.388 219.338 703.968 218.835 703.666 218.186C703.363 217.533 703.212 216.762 703.212 215.873C703.212 214.99 703.363 214.225 703.666 213.576C703.968 212.927 704.389 212.425 704.929 212.072C705.469 211.718 706.092 211.541 706.799 211.541C707.346 211.541 707.778 211.632 708.095 211.815C708.416 211.993 708.661 212.198 708.828 212.427C709 212.653 709.133 212.839 709.227 212.985H709.337V208.851H710.627V220.051H709.381V218.76H709.227C709.133 218.913 708.998 219.106 708.823 219.34C708.648 219.57 708.398 219.776 708.074 219.958C707.749 220.136 707.317 220.226 706.777 220.226ZM706.952 219.066C707.47 219.066 707.908 218.931 708.265 218.662C708.622 218.388 708.894 218.011 709.08 217.53C709.266 217.045 709.359 216.485 709.359 215.851C709.359 215.224 709.268 214.675 709.085 214.205C708.903 213.731 708.633 213.362 708.276 213.1C707.919 212.834 707.477 212.701 706.952 212.701C706.406 212.701 705.95 212.841 705.585 213.122C705.224 213.399 704.953 213.776 704.77 214.254C704.592 214.728 704.502 215.26 704.502 215.851C704.502 216.449 704.594 216.992 704.776 217.48C704.962 217.965 705.235 218.352 705.596 218.64C705.961 218.924 706.413 219.066 706.952 219.066ZM716.692 220.226C715.883 220.226 715.185 220.047 714.598 219.69C714.015 219.329 713.564 218.826 713.247 218.18C712.933 217.531 712.777 216.777 712.777 215.916C712.777 215.056 712.933 214.298 713.247 213.641C713.564 212.981 714.005 212.467 714.571 212.099C715.139 211.727 715.803 211.541 716.561 211.541C716.999 211.541 717.431 211.614 717.857 211.76C718.284 211.906 718.672 212.143 719.022 212.471C719.372 212.795 719.651 213.226 719.859 213.762C720.067 214.298 720.171 214.957 720.171 215.741V216.288H713.695V215.173H718.858C718.858 214.699 718.763 214.276 718.574 213.904C718.388 213.532 718.122 213.238 717.775 213.023C717.433 212.808 717.028 212.701 716.561 212.701C716.047 212.701 715.602 212.828 715.227 213.083C714.855 213.335 714.569 213.663 714.368 214.068C714.168 214.473 714.067 214.906 714.067 215.369V216.113C714.067 216.748 714.177 217.285 714.395 217.727C714.618 218.164 714.926 218.498 715.32 218.727C715.713 218.953 716.171 219.066 716.692 219.066C717.031 219.066 717.338 219.019 717.611 218.924C717.888 218.826 718.127 218.68 718.328 218.487C718.528 218.29 718.683 218.046 718.792 217.754L720.039 218.104C719.908 218.527 719.688 218.899 719.378 219.22C719.068 219.537 718.685 219.785 718.229 219.963C717.773 220.138 717.261 220.226 716.692 220.226ZM725.306 220.226C724.606 220.226 723.988 220.049 723.452 219.695C722.916 219.338 722.497 218.835 722.194 218.186C721.891 217.533 721.74 216.762 721.74 215.873C721.74 214.99 721.891 214.225 722.194 213.576C722.497 212.927 722.918 212.425 723.457 212.072C723.997 211.718 724.62 211.541 725.328 211.541C725.875 211.541 726.307 211.632 726.624 211.815C726.945 211.993 727.189 212.198 727.357 212.427C727.528 212.653 727.661 212.839 727.756 212.985H727.865V208.851H729.156V220.051H727.909V218.76H727.756C727.661 218.913 727.526 219.106 727.351 219.34C727.176 219.57 726.926 219.776 726.602 219.958C726.277 220.136 725.845 220.226 725.306 220.226ZM725.481 219.066C725.999 219.066 726.436 218.931 726.793 218.662C727.151 218.388 727.422 218.011 727.608 217.53C727.794 217.045 727.887 216.485 727.887 215.851C727.887 215.224 727.796 214.675 727.614 214.205C727.431 213.731 727.162 213.362 726.804 213.1C726.447 212.834 726.006 212.701 725.481 212.701C724.934 212.701 724.478 212.841 724.114 213.122C723.753 213.399 723.481 213.776 723.299 214.254C723.12 214.728 723.031 215.26 723.031 215.851C723.031 216.449 723.122 216.992 723.304 217.48C723.49 217.965 723.764 218.352 724.125 218.64C724.489 218.924 724.941 219.066 725.481 219.066ZM735.593 210.054V208.851H743.993V210.054H740.471V220.051H739.115V210.054H735.593ZM748.215 220.226C747.405 220.226 746.707 220.047 746.12 219.69C745.537 219.329 745.087 218.826 744.769 218.18C744.456 217.531 744.299 216.777 744.299 215.916C744.299 215.056 744.456 214.298 744.769 213.641C745.087 212.981 745.528 212.467 746.093 212.099C746.662 211.727 747.325 211.541 748.084 211.541C748.521 211.541 748.953 211.614 749.38 211.76C749.806 211.906 750.194 212.143 750.545 212.471C750.895 212.795 751.173 213.226 751.381 213.762C751.589 214.298 751.693 214.957 751.693 215.741V216.288H745.218V215.173H750.38C750.38 214.699 750.286 214.276 750.096 213.904C749.91 213.532 749.644 213.238 749.298 213.023C748.955 212.808 748.55 212.701 748.084 212.701C747.569 212.701 747.125 212.828 746.749 213.083C746.377 213.335 746.091 213.663 745.891 214.068C745.69 214.473 745.59 214.906 745.59 215.369V216.113C745.59 216.748 745.699 217.285 745.918 217.727C746.14 218.164 746.448 218.498 746.842 218.727C747.236 218.953 747.693 219.066 748.215 219.066C748.554 219.066 748.86 219.019 749.134 218.924C749.411 218.826 749.649 218.68 749.85 218.487C750.05 218.29 750.205 218.046 750.315 217.754L751.562 218.104C751.43 218.527 751.21 218.899 750.9 219.22C750.59 219.537 750.207 219.785 749.752 219.963C749.296 220.138 748.784 220.226 748.215 220.226ZM756.128 220.248C755.596 220.248 755.113 220.147 754.679 219.947C754.245 219.743 753.901 219.449 753.645 219.066C753.39 218.68 753.263 218.213 753.263 217.666C753.263 217.185 753.357 216.795 753.547 216.496C753.736 216.193 753.99 215.956 754.307 215.785C754.624 215.614 754.974 215.486 755.357 215.402C755.744 215.315 756.132 215.245 756.522 215.194C757.032 215.129 757.446 215.08 757.763 215.047C758.084 215.01 758.318 214.95 758.463 214.866C758.613 214.782 758.688 214.637 758.688 214.429V214.385C758.688 213.845 758.54 213.426 758.245 213.127C757.953 212.828 757.51 212.679 756.916 212.679C756.3 212.679 755.816 212.814 755.466 213.083C755.116 213.353 754.87 213.641 754.728 213.948L753.503 213.51C753.722 213 754.014 212.602 754.378 212.318C754.746 212.03 755.147 211.829 755.581 211.716C756.019 211.6 756.449 211.541 756.872 211.541C757.142 211.541 757.452 211.574 757.802 211.64C758.155 211.702 758.496 211.831 758.824 212.028C759.156 212.225 759.431 212.522 759.65 212.919C759.869 213.317 759.978 213.849 759.978 214.516V220.051H758.688V218.913H758.622C758.534 219.096 758.389 219.291 758.184 219.498C757.98 219.706 757.709 219.883 757.37 220.029C757.031 220.175 756.617 220.248 756.128 220.248ZM756.325 219.088C756.835 219.088 757.266 218.988 757.616 218.787C757.969 218.587 758.236 218.328 758.414 218.011C758.596 217.694 758.688 217.36 758.688 217.01V215.829C758.633 215.894 758.513 215.955 758.327 216.009C758.144 216.06 757.933 216.106 757.692 216.146C757.455 216.182 757.224 216.215 756.998 216.244C756.775 216.27 756.595 216.292 756.456 216.31C756.121 216.354 755.807 216.425 755.516 216.523C755.228 216.618 754.994 216.762 754.816 216.955C754.641 217.145 754.553 217.404 754.553 217.732C754.553 218.18 754.719 218.52 755.051 218.749C755.386 218.975 755.811 219.088 756.325 219.088ZM762.334 220.051V211.651H763.581V212.963H763.69C763.865 212.515 764.148 212.167 764.538 211.919C764.928 211.667 765.396 211.541 765.943 211.541C766.498 211.541 766.959 211.667 767.327 211.919C767.699 212.167 767.989 212.515 768.197 212.963H768.284C768.499 212.529 768.822 212.185 769.252 211.93C769.682 211.671 770.198 211.541 770.8 211.541C771.551 211.541 772.165 211.776 772.643 212.247C773.12 212.713 773.359 213.441 773.359 214.429V220.051H772.068V214.429C772.068 213.809 771.899 213.366 771.56 213.1C771.221 212.834 770.822 212.701 770.362 212.701C769.772 212.701 769.314 212.879 768.99 213.237C768.665 213.59 768.503 214.039 768.503 214.582V220.051H767.19V214.298C767.19 213.82 767.035 213.435 766.725 213.144C766.416 212.848 766.016 212.701 765.528 212.701C765.192 212.701 764.879 212.79 764.587 212.969C764.299 213.147 764.066 213.395 763.887 213.712C763.712 214.026 763.625 214.389 763.625 214.801V220.051H762.334Z" fill="#FAFAFA"/>
<path d="M303.965 219.007V210.345L397.81 240.183L492.618 210.345L491.656 219.007L397.81 250.289L303.965 219.007Z" fill="#CECECE" fill-opacity="0.95"/>
<path d="M397.81 179.063L303.965 210.345C303.195 210.603 366.368 230.665 397.81 240.664L492.618 210.345L397.81 179.063Z" fill="#D9D9D9"/>
<path d="M492.611 214.676H578.275" stroke="white" stroke-width="0.962515" stroke-linecap="round" stroke-dasharray="1.93 1.93"/>
<rect x="0.765625" y="134.787" width="166.515" height="40.4256" rx="20.2128" fill="#333339"/>
<path d="M20.9783 160.528C20.1544 160.528 19.4525 160.304 18.8728 159.855C18.2931 159.403 17.8502 158.749 17.5439 157.892C17.2377 157.032 17.0845 155.993 17.0845 154.775C17.0845 153.564 17.2377 152.531 17.5439 151.674C17.8538 150.814 18.2986 150.157 18.8783 149.705C19.4617 149.249 20.1617 149.022 20.9783 149.022C21.795 149.022 22.4932 149.249 23.0729 149.705C23.6563 150.157 24.1011 150.814 24.4073 151.674C24.7172 152.531 24.8722 153.564 24.8722 154.775C24.8722 155.993 24.719 157.032 24.4128 157.892C24.1065 158.749 23.6635 159.403 23.0838 159.855C22.5042 160.304 21.8023 160.528 20.9783 160.528ZM20.9783 159.325C21.795 159.325 22.4294 158.931 22.8815 158.144C23.3336 157.356 23.5596 156.233 23.5596 154.775C23.5596 153.805 23.4557 152.979 23.2479 152.297C23.0437 151.616 22.7484 151.096 22.362 150.739C21.9791 150.381 21.5179 150.203 20.9783 150.203C20.169 150.203 19.5364 150.602 19.0807 151.401C18.6249 152.195 18.3971 153.32 18.3971 154.775C18.3971 155.745 18.4991 156.569 18.7033 157.247C18.9075 157.925 19.201 158.441 19.5838 158.794C19.9703 159.148 20.4351 159.325 20.9783 159.325ZM30.7348 160.528C30.0129 160.528 29.3694 160.404 28.8043 160.156C28.2428 159.908 27.7962 159.564 27.4644 159.123C27.1363 158.678 26.9576 158.162 26.9284 157.575H28.3066C28.3358 157.936 28.4597 158.248 28.6785 158.51C28.8972 158.769 29.1834 158.969 29.5371 159.112C29.8907 159.254 30.2827 159.325 30.7129 159.325C31.1941 159.325 31.6207 159.241 31.9926 159.073C32.3645 158.906 32.6561 158.672 32.8676 158.373C33.0791 158.074 33.1848 157.728 33.1848 157.334C33.1848 156.922 33.0827 156.559 32.8785 156.246C32.6744 155.929 32.3754 155.681 31.9816 155.502C31.5879 155.323 31.1066 155.234 30.5379 155.234H29.641V154.031H30.5379C30.9827 154.031 31.3728 153.951 31.7082 153.79C32.0473 153.63 32.3116 153.404 32.5012 153.112C32.6944 152.821 32.791 152.478 32.791 152.084C32.791 151.705 32.7072 151.375 32.5395 151.094C32.3718 150.814 32.1348 150.595 31.8285 150.438C31.5259 150.281 31.1686 150.203 30.7566 150.203C30.3702 150.203 30.0056 150.274 29.6629 150.416C29.3238 150.555 29.0467 150.757 28.8316 151.023C28.6165 151.286 28.4998 151.603 28.4816 151.975H27.1691C27.1909 151.388 27.3678 150.874 27.6995 150.433C28.0313 149.988 28.4652 149.641 29.0011 149.393C29.5407 149.146 30.1332 149.022 30.7785 149.022C31.4712 149.022 32.0655 149.162 32.5613 149.443C33.0572 149.72 33.4382 150.086 33.7043 150.542C33.9705 150.998 34.1036 151.49 34.1036 152.018C34.1036 152.649 33.9377 153.187 33.6059 153.632C33.2778 154.077 32.8311 154.385 32.266 154.556V154.644C32.9733 154.76 33.5257 155.061 33.9231 155.546C34.3205 156.027 34.5192 156.623 34.5192 157.334C34.5192 157.943 34.3533 158.49 34.0215 158.975C33.6934 159.456 33.2449 159.835 32.6762 160.112C32.1074 160.389 31.4603 160.528 30.7348 160.528ZM37.3725 160.462C37.1028 160.462 36.8712 160.366 36.678 160.173C36.4848 159.979 36.3882 159.748 36.3882 159.478C36.3882 159.208 36.4848 158.977 36.678 158.783C36.8712 158.59 37.1028 158.494 37.3725 158.494C37.6423 158.494 37.8739 158.59 38.0671 158.783C38.2603 158.977 38.3569 159.208 38.3569 159.478C38.3569 159.657 38.3114 159.821 38.2202 159.97C38.1327 160.12 38.0142 160.24 37.8647 160.331C37.7189 160.419 37.5548 160.462 37.3725 160.462ZM54.6295 154.775C54.6295 155.956 54.4162 156.977 53.9896 157.837C53.563 158.698 52.9779 159.361 52.2341 159.828C51.4903 160.295 50.6409 160.528 49.6856 160.528C48.7304 160.528 47.8809 160.295 47.1372 159.828C46.3934 159.361 45.8082 158.698 45.3817 157.837C44.9551 156.977 44.7418 155.956 44.7418 154.775C44.7418 153.594 44.9551 152.573 45.3817 151.712C45.8082 150.852 46.3934 150.188 47.1372 149.722C47.8809 149.255 48.7304 149.022 49.6856 149.022C50.6409 149.022 51.4903 149.255 52.2341 149.722C52.9779 150.188 53.563 150.852 53.9896 151.712C54.4162 152.573 54.6295 153.594 54.6295 154.775ZM53.3169 154.775C53.3169 153.805 53.1547 152.986 52.8302 152.319C52.5094 151.652 52.0737 151.147 51.5232 150.804C50.9763 150.462 50.3638 150.29 49.6856 150.29C49.0075 150.29 48.3932 150.462 47.8426 150.804C47.2958 151.147 46.8601 151.652 46.5356 152.319C46.2147 152.986 46.0543 153.805 46.0543 154.775C46.0543 155.745 46.2147 156.563 46.5356 157.23C46.8601 157.897 47.2958 158.402 47.8426 158.745C48.3932 159.088 49.0075 159.259 49.6856 159.259C50.3638 159.259 50.9763 159.088 51.5232 158.745C52.0737 158.402 52.5094 157.897 52.8302 157.23C53.1547 156.563 53.3169 155.745 53.3169 154.775ZM58.0256 155.322V160.375H56.735V151.975H57.9819V153.287H58.0912C58.2881 152.861 58.5871 152.518 58.9881 152.259C59.3892 151.997 59.9069 151.865 60.5413 151.865C61.11 151.865 61.6077 151.982 62.0343 152.215C62.4608 152.445 62.7926 152.795 63.0296 153.265C63.2666 153.732 63.3851 154.323 63.3851 155.037V160.375H62.0944V155.125C62.0944 154.465 61.9231 153.951 61.5804 153.583C61.2376 153.211 60.7673 153.025 60.1694 153.025C59.7574 153.025 59.3892 153.114 59.0647 153.293C58.7439 153.471 58.4905 153.732 58.3045 154.075C58.1186 154.417 58.0256 154.833 58.0256 155.322ZM65.9185 160.375V149.175H67.2091V153.309H67.3185C67.4133 153.163 67.5446 152.977 67.7123 152.751C67.8836 152.522 68.1279 152.317 68.4451 152.139C68.7659 151.957 69.1998 151.865 69.7467 151.865C70.454 151.865 71.0774 152.042 71.617 152.396C72.1566 152.749 72.5777 153.251 72.8803 153.9C73.1829 154.549 73.3342 155.314 73.3342 156.197C73.3342 157.086 73.1829 157.857 72.8803 158.51C72.5777 159.159 72.1584 159.662 71.6225 160.019C71.0866 160.373 70.4686 160.55 69.7686 160.55C69.229 160.55 68.7969 160.461 68.4725 160.282C68.148 160.1 67.8982 159.894 67.7232 159.664C67.5482 159.431 67.4133 159.237 67.3185 159.084H67.1654V160.375H65.9185ZM67.1873 156.175C67.1873 156.809 67.2802 157.369 67.4662 157.854C67.6521 158.335 67.9237 158.712 68.281 158.986C68.6383 159.256 69.0758 159.39 69.5936 159.39C70.1332 159.39 70.5834 159.248 70.9444 158.964C71.309 158.676 71.5824 158.289 71.7647 157.805C71.9506 157.316 72.0436 156.773 72.0436 156.175C72.0436 155.584 71.9525 155.052 71.7702 154.578C71.5915 154.1 71.3199 153.723 70.9553 153.446C70.5944 153.165 70.1404 153.025 69.5936 153.025C69.0686 153.025 68.6274 153.158 68.2701 153.424C67.9128 153.686 67.643 154.055 67.4607 154.529C67.2784 154.999 67.1873 155.548 67.1873 156.175ZM78.7211 160.55C77.9627 160.55 77.2973 160.369 76.7249 160.008C76.1562 159.648 75.7114 159.143 75.3905 158.494C75.0733 157.845 74.9147 157.086 74.9147 156.219C74.9147 155.344 75.0733 154.58 75.3905 153.927C75.7114 153.275 76.1562 152.768 76.7249 152.407C77.2973 152.046 77.9627 151.865 78.7211 151.865C79.4794 151.865 80.1429 152.046 80.7117 152.407C81.2841 152.768 81.7289 153.275 82.0461 153.927C82.3669 154.58 82.5274 155.344 82.5274 156.219C82.5274 157.086 82.3669 157.845 82.0461 158.494C81.7289 159.143 81.2841 159.648 80.7117 160.008C80.1429 160.369 79.4794 160.55 78.7211 160.55ZM78.7211 159.39C79.2971 159.39 79.7711 159.243 80.1429 158.948C80.5148 158.652 80.7901 158.264 80.9687 157.783C81.1474 157.301 81.2367 156.78 81.2367 156.219C81.2367 155.657 81.1474 155.134 80.9687 154.649C80.7901 154.164 80.5148 153.772 80.1429 153.473C79.7711 153.174 79.2971 153.025 78.7211 153.025C78.145 153.025 77.671 153.174 77.2992 153.473C76.9273 153.772 76.652 154.164 76.4734 154.649C76.2947 155.134 76.2054 155.657 76.2054 156.219C76.2054 156.78 76.2947 157.301 76.4734 157.783C76.652 158.264 76.9273 158.652 77.2992 158.948C77.671 159.243 78.145 159.39 78.7211 159.39ZM86.9694 160.572C86.4371 160.572 85.954 160.471 85.5202 160.271C85.0863 160.067 84.7418 159.773 84.4866 159.39C84.2314 159.004 84.1038 158.537 84.1038 157.99C84.1038 157.509 84.1985 157.119 84.3881 156.82C84.5777 156.518 84.8311 156.281 85.1483 156.109C85.4655 155.938 85.8155 155.81 86.1983 155.726C86.5848 155.639 86.9731 155.57 87.3632 155.519C87.8736 155.453 88.2874 155.404 88.6046 155.371C88.9254 155.334 89.1588 155.274 89.3046 155.19C89.4541 155.107 89.5288 154.961 89.5288 154.753V154.709C89.5288 154.17 89.3812 153.75 89.0859 153.451C88.7942 153.152 88.3512 153.003 87.7569 153.003C87.1408 153.003 86.6577 153.138 86.3077 153.408C85.9577 153.677 85.7116 153.965 85.5694 154.272L84.3444 153.834C84.5631 153.324 84.8548 152.926 85.2194 152.642C85.5876 152.354 85.9887 152.153 86.4225 152.04C86.86 151.924 87.2903 151.865 87.7132 151.865C87.983 151.865 88.2929 151.898 88.6429 151.964C88.9965 152.026 89.3374 152.155 89.6656 152.352C89.9973 152.549 90.2726 152.846 90.4914 153.244C90.7101 153.641 90.8195 154.173 90.8195 154.84V160.375H89.5288V159.237H89.4632C89.3757 159.42 89.2299 159.615 89.0257 159.823C88.8215 160.03 88.5499 160.207 88.2108 160.353C87.8718 160.499 87.458 160.572 86.9694 160.572ZM87.1663 159.412C87.6767 159.412 88.1069 159.312 88.4569 159.112C88.8106 158.911 89.0767 158.652 89.2554 158.335C89.4377 158.018 89.5288 157.684 89.5288 157.334V156.153C89.4741 156.219 89.3538 156.279 89.1679 156.333C88.9856 156.384 88.7741 156.43 88.5335 156.47C88.2965 156.507 88.065 156.539 87.839 156.569C87.6166 156.594 87.4361 156.616 87.2976 156.634C86.9621 156.678 86.6486 156.749 86.3569 156.847C86.0689 156.942 85.8355 157.086 85.6569 157.28C85.4819 157.469 85.3944 157.728 85.3944 158.056C85.3944 158.505 85.5603 158.844 85.8921 159.073C86.2275 159.299 86.6522 159.412 87.1663 159.412ZM93.1752 160.375V151.975H94.4221V153.244H94.5096C94.6627 152.828 94.9398 152.491 95.3408 152.232C95.7419 151.973 96.194 151.843 96.6971 151.843C96.7919 151.843 96.9104 151.845 97.0526 151.849C97.1948 151.853 97.3023 151.858 97.3752 151.865V153.178C97.3315 153.167 97.2312 153.151 97.0745 153.129C96.9213 153.103 96.7591 153.09 96.5877 153.09C96.1794 153.09 95.8148 153.176 95.494 153.347C95.1768 153.515 94.9252 153.748 94.7393 154.047C94.557 154.343 94.4658 154.68 94.4658 155.059V160.375H93.1752ZM101.821 160.55C101.121 160.55 100.503 160.373 99.9675 160.019C99.4315 159.662 99.0123 159.159 98.7096 158.51C98.407 157.857 98.2557 157.086 98.2557 156.197C98.2557 155.314 98.407 154.549 98.7096 153.9C99.0123 153.251 99.4334 152.749 99.9729 152.396C100.513 152.042 101.136 151.865 101.843 151.865C102.39 151.865 102.822 151.957 103.139 152.139C103.46 152.317 103.705 152.522 103.872 152.751C104.044 152.977 104.177 153.163 104.271 153.309H104.381V149.175H105.671V160.375H104.425V159.084H104.271C104.177 159.237 104.042 159.431 103.867 159.664C103.692 159.894 103.442 160.1 103.118 160.282C102.793 160.461 102.361 160.55 101.821 160.55ZM101.996 159.39C102.514 159.39 102.952 159.256 103.309 158.986C103.666 158.712 103.938 158.335 104.124 157.854C104.31 157.369 104.403 156.809 104.403 156.175C104.403 155.548 104.312 154.999 104.129 154.529C103.947 154.055 103.677 153.686 103.32 153.424C102.963 153.158 102.521 153.025 101.996 153.025C101.45 153.025 100.994 153.165 100.629 153.446C100.268 153.723 99.9966 154.1 99.8143 154.578C99.6357 155.052 99.5464 155.584 99.5464 156.175C99.5464 156.773 99.6375 157.316 99.8198 157.805C100.006 158.289 100.279 158.676 100.64 158.964C101.005 159.248 101.457 159.39 101.996 159.39ZM112.108 150.378V149.175H120.508V150.378H116.986V160.375H115.63V150.378H112.108ZM124.73 160.55C123.921 160.55 123.223 160.371 122.636 160.014C122.052 159.653 121.602 159.15 121.285 158.505C120.971 157.856 120.815 157.101 120.815 156.24C120.815 155.38 120.971 154.622 121.285 153.965C121.602 153.305 122.043 152.791 122.608 152.423C123.177 152.051 123.841 151.865 124.599 151.865C125.037 151.865 125.469 151.938 125.895 152.084C126.322 152.23 126.71 152.467 127.06 152.795C127.41 153.12 127.689 153.55 127.897 154.086C128.105 154.622 128.209 155.282 128.209 156.065V156.612H121.733V155.497H126.896C126.896 155.023 126.801 154.6 126.612 154.228C126.426 153.856 126.16 153.563 125.813 153.347C125.47 153.132 125.066 153.025 124.599 153.025C124.085 153.025 123.64 153.152 123.265 153.408C122.893 153.659 122.607 153.987 122.406 154.392C122.206 154.797 122.105 155.231 122.105 155.694V156.437C122.105 157.072 122.215 157.609 122.433 158.051C122.656 158.488 122.964 158.822 123.358 159.051C123.751 159.277 124.209 159.39 124.73 159.39C125.069 159.39 125.376 159.343 125.649 159.248C125.926 159.15 126.165 159.004 126.366 158.811C126.566 158.614 126.721 158.37 126.83 158.078L128.077 158.428C127.946 158.851 127.725 159.223 127.416 159.544C127.106 159.861 126.723 160.109 126.267 160.287C125.811 160.462 125.299 160.55 124.73 160.55ZM132.644 160.572C132.111 160.572 131.628 160.471 131.195 160.271C130.761 160.067 130.416 159.773 130.161 159.39C129.906 159.004 129.778 158.537 129.778 157.99C129.778 157.509 129.873 157.119 130.062 156.82C130.252 156.518 130.505 156.281 130.823 156.109C131.14 155.938 131.49 155.81 131.873 155.726C132.259 155.639 132.647 155.57 133.038 155.519C133.548 155.453 133.962 155.404 134.279 155.371C134.6 155.334 134.833 155.274 134.979 155.19C135.128 155.107 135.203 154.961 135.203 154.753V154.709C135.203 154.17 135.056 153.75 134.76 153.451C134.469 153.152 134.026 153.003 133.431 153.003C132.815 153.003 132.332 153.138 131.982 153.408C131.632 153.677 131.386 153.965 131.244 154.272L130.019 153.834C130.237 153.324 130.529 152.926 130.894 152.642C131.262 152.354 131.663 152.153 132.097 152.04C132.534 151.924 132.965 151.865 133.388 151.865C133.657 151.865 133.967 151.898 134.317 151.964C134.671 152.026 135.012 152.155 135.34 152.352C135.672 152.549 135.947 152.846 136.166 153.244C136.384 153.641 136.494 154.173 136.494 154.84V160.375H135.203V159.237H135.138C135.05 159.42 134.904 159.615 134.7 159.823C134.496 160.03 134.224 160.207 133.885 160.353C133.546 160.499 133.132 160.572 132.644 160.572ZM132.841 159.412C133.351 159.412 133.781 159.312 134.131 159.112C134.485 158.911 134.751 158.652 134.93 158.335C135.112 158.018 135.203 157.684 135.203 157.334V156.153C135.148 156.219 135.028 156.279 134.842 156.333C134.66 156.384 134.448 156.43 134.208 156.47C133.971 156.507 133.739 156.539 133.513 156.569C133.291 156.594 133.11 156.616 132.972 156.634C132.636 156.678 132.323 156.749 132.031 156.847C131.743 156.942 131.51 157.086 131.331 157.28C131.156 157.469 131.069 157.728 131.069 158.056C131.069 158.505 131.235 158.844 131.566 159.073C131.902 159.299 132.327 159.412 132.841 159.412ZM138.85 160.375V151.975H140.096V153.287H140.206C140.381 152.839 140.663 152.491 141.053 152.243C141.444 151.991 141.912 151.865 142.459 151.865C143.013 151.865 143.474 151.991 143.843 152.243C144.214 152.491 144.504 152.839 144.712 153.287H144.8C145.015 152.853 145.337 152.509 145.768 152.254C146.198 151.995 146.714 151.865 147.315 151.865C148.066 151.865 148.681 152.101 149.158 152.571C149.636 153.038 149.875 153.765 149.875 154.753V160.375H148.584V154.753C148.584 154.133 148.415 153.69 148.075 153.424C147.736 153.158 147.337 153.025 146.878 153.025C146.287 153.025 145.83 153.203 145.505 153.561C145.181 153.914 145.018 154.363 145.018 154.906V160.375H143.706V154.622C143.706 154.144 143.551 153.759 143.241 153.468C142.931 153.172 142.532 153.025 142.043 153.025C141.708 153.025 141.394 153.114 141.103 153.293C140.815 153.471 140.581 153.719 140.403 154.036C140.228 154.35 140.14 154.713 140.14 155.125V160.375H138.85Z" fill="#FAFAFA"/>
<path d="M304.927 159.331V150.669L398.773 180.507L493.58 150.669L492.618 159.331L398.773 190.613L304.927 159.331Z" fill="#CECECE" fill-opacity="0.95"/>
<path d="M398.773 119.387L304.927 150.669C304.157 150.927 367.33 170.989 398.773 180.988L493.58 150.669L398.773 119.387Z" fill="#D9D9D9"/>
<path d="M167.281 155L303.958 155" stroke="white" stroke-width="0.962515" stroke-linecap="round" stroke-dasharray="1.93 1.93"/>
<rect x="638.913" y="76.0737" width="157.852" height="40.4256" rx="20.2128" fill="#333339"/>
<path d="M659.126 102.777C658.302 102.777 657.6 102.553 657.02 102.104C656.441 101.652 655.998 100.998 655.691 100.141C655.385 99.2806 655.232 98.2415 655.232 97.0238C655.232 95.8134 655.385 94.7798 655.691 93.923C656.001 93.0626 656.446 92.4063 657.026 91.9542C657.609 91.4985 658.309 91.2706 659.126 91.2706C659.942 91.2706 660.641 91.4985 661.22 91.9542C661.804 92.4063 662.249 93.0626 662.555 93.923C662.865 94.7798 663.02 95.8134 663.02 97.0238C663.02 98.2415 662.866 99.2806 662.56 100.141C662.254 100.998 661.811 101.652 661.231 102.104C660.652 102.553 659.95 102.777 659.126 102.777ZM659.126 101.574C659.942 101.574 660.577 101.18 661.029 100.393C661.481 99.6051 661.707 98.4822 661.707 97.0238C661.707 96.054 661.603 95.2282 661.395 94.5464C661.191 93.8646 660.896 93.3451 660.509 92.9878C660.127 92.6305 659.665 92.4519 659.126 92.4519C658.316 92.4519 657.684 92.8511 657.228 93.6495C656.772 94.4443 656.545 95.5691 656.545 97.0238C656.545 97.9936 656.647 98.8176 656.851 99.4957C657.055 100.174 657.348 100.69 657.731 101.043C658.118 101.397 658.583 101.574 659.126 101.574ZM665.098 102.624V101.64L668.795 97.5926C669.229 97.1186 669.586 96.7066 669.867 96.3566C670.147 96.003 670.355 95.6712 670.49 95.3613C670.629 95.0477 670.698 94.7196 670.698 94.3769C670.698 93.9831 670.603 93.6422 670.413 93.3542C670.228 93.0662 669.972 92.8438 669.648 92.687C669.323 92.5303 668.959 92.4519 668.554 92.4519C668.124 92.4519 667.748 92.5412 667.428 92.7198C667.11 92.8948 666.864 93.1409 666.689 93.4581C666.518 93.7753 666.432 94.1472 666.432 94.5738H665.142C665.142 93.9175 665.293 93.3415 665.595 92.8456C665.898 92.3498 666.31 91.9633 666.831 91.6862C667.356 91.4091 667.945 91.2706 668.598 91.2706C669.254 91.2706 669.836 91.4091 670.342 91.6862C670.849 91.9633 671.247 92.337 671.535 92.8073C671.823 93.2777 671.967 93.8008 671.967 94.3769C671.967 94.7889 671.892 95.1918 671.742 95.5855C671.597 95.9756 671.341 96.4113 670.977 96.8926C670.616 97.3702 670.115 97.9535 669.473 98.6426L666.957 101.333V101.421H672.164V102.624H665.098ZM675.385 102.711C675.115 102.711 674.883 102.615 674.69 102.422C674.497 102.228 674.4 101.997 674.4 101.727C674.4 101.457 674.497 101.226 674.69 101.032C674.883 100.839 675.115 100.743 675.385 100.743C675.654 100.743 675.886 100.839 676.079 101.032C676.272 101.226 676.369 101.457 676.369 101.727C676.369 101.906 676.323 102.07 676.232 102.219C676.145 102.369 676.026 102.489 675.877 102.58C675.731 102.668 675.567 102.711 675.385 102.711ZM692.204 94.9238H690.848C690.768 94.5337 690.627 94.191 690.427 93.8956C690.23 93.6003 689.989 93.3524 689.705 93.1519C689.424 92.9477 689.112 92.7946 688.77 92.6925C688.427 92.5904 688.07 92.5394 687.698 92.5394C687.02 92.5394 686.405 92.7107 685.855 93.0534C685.308 93.3962 684.872 93.9011 684.548 94.5683C684.227 95.2355 684.066 96.054 684.066 97.0238C684.066 97.9936 684.227 98.8121 684.548 99.4793C684.872 100.147 685.308 100.651 685.855 100.994C686.405 101.337 687.02 101.508 687.698 101.508C688.07 101.508 688.427 101.457 688.77 101.355C689.112 101.253 689.424 101.102 689.705 100.901C689.989 100.697 690.23 100.447 690.427 100.152C690.627 99.853 690.768 99.5103 690.848 99.1238H692.204C692.102 99.6963 691.916 100.208 691.646 100.661C691.376 101.113 691.041 101.497 690.64 101.815C690.239 102.128 689.789 102.367 689.289 102.531C688.793 102.695 688.263 102.777 687.698 102.777C686.743 102.777 685.893 102.544 685.149 102.077C684.406 101.61 683.82 100.947 683.394 100.086C682.967 99.2259 682.754 98.2051 682.754 97.0238C682.754 95.8425 682.967 94.8217 683.394 93.9613C683.82 93.1008 684.406 92.4373 685.149 91.9706C685.893 91.5039 686.743 91.2706 687.698 91.2706C688.263 91.2706 688.793 91.3526 689.289 91.5167C689.789 91.6808 690.239 91.9214 690.64 92.2386C691.041 92.5521 691.376 92.9349 691.646 93.387C691.916 93.8355 692.102 94.3477 692.204 94.9238ZM695.511 97.5707V102.624H694.221V91.4237H695.511V95.5363H695.621C695.818 95.1024 696.113 94.7579 696.507 94.5027C696.904 94.2438 697.433 94.1144 698.093 94.1144C698.665 94.1144 699.166 94.2292 699.597 94.4589C700.027 94.685 700.36 95.0332 700.597 95.5035C700.838 95.9702 700.958 96.5644 700.958 97.2863V102.624H699.668V97.3738C699.668 96.7066 699.494 96.1907 699.148 95.8261C698.805 95.4579 698.33 95.2738 697.721 95.2738C697.298 95.2738 696.919 95.3631 696.583 95.5418C696.251 95.7204 695.989 95.9811 695.796 96.3238C695.606 96.6665 695.511 97.0821 695.511 97.5707ZM706.732 102.799C705.974 102.799 705.308 102.618 704.736 102.257C704.167 101.897 703.722 101.392 703.402 100.743C703.084 100.094 702.926 99.3353 702.926 98.4676C702.926 97.5926 703.084 96.8288 703.402 96.1761C703.722 95.5235 704.167 95.0168 704.736 94.6558C705.308 94.2949 705.974 94.1144 706.732 94.1144C707.49 94.1144 708.154 94.2949 708.723 94.6558C709.295 95.0168 709.74 95.5235 710.057 96.1761C710.378 96.8288 710.538 97.5926 710.538 98.4676C710.538 99.3353 710.378 100.094 710.057 100.743C709.74 101.392 709.295 101.897 708.723 102.257C708.154 102.618 707.49 102.799 706.732 102.799ZM706.732 101.64C707.308 101.64 707.782 101.492 708.154 101.197C708.526 100.901 708.801 100.513 708.98 100.032C709.158 99.5504 709.248 99.0291 709.248 98.4676C709.248 97.9061 709.158 97.3829 708.98 96.898C708.801 96.4131 708.526 96.0212 708.154 95.7222C707.782 95.4233 707.308 95.2738 706.732 95.2738C706.156 95.2738 705.682 95.4233 705.31 95.7222C704.938 96.0212 704.663 96.4131 704.484 96.898C704.306 97.3829 704.216 97.9061 704.216 98.4676C704.216 99.0291 704.306 99.5504 704.484 100.032C704.663 100.513 704.938 100.901 705.31 101.197C705.682 101.492 706.156 101.64 706.732 101.64ZM715.921 102.799C715.163 102.799 714.497 102.618 713.925 102.257C713.356 101.897 712.911 101.392 712.591 100.743C712.273 100.094 712.115 99.3353 712.115 98.4676C712.115 97.5926 712.273 96.8288 712.591 96.1761C712.911 95.5235 713.356 95.0168 713.925 94.6558C714.497 94.2949 715.163 94.1144 715.921 94.1144C716.679 94.1144 717.343 94.2949 717.912 94.6558C718.484 95.0168 718.929 95.5235 719.246 96.1761C719.567 96.8288 719.727 97.5926 719.727 98.4676C719.727 99.3353 719.567 100.094 719.246 100.743C718.929 101.392 718.484 101.897 717.912 102.257C717.343 102.618 716.679 102.799 715.921 102.799ZM715.921 101.64C716.497 101.64 716.971 101.492 717.343 101.197C717.715 100.901 717.99 100.513 718.169 100.032C718.347 99.5504 718.437 99.0291 718.437 98.4676C718.437 97.9061 718.347 97.3829 718.169 96.898C717.99 96.4131 717.715 96.0212 717.343 95.7222C716.971 95.4233 716.497 95.2738 715.921 95.2738C715.345 95.2738 714.871 95.4233 714.499 95.7222C714.127 96.0212 713.852 96.4131 713.673 96.898C713.495 97.3829 713.405 97.9061 713.405 98.4676C713.405 99.0291 713.495 99.5504 713.673 100.032C713.852 100.513 714.127 100.901 714.499 101.197C714.871 101.492 715.345 101.64 715.921 101.64ZM727.648 96.105L726.488 96.4332C726.415 96.2399 726.308 96.0522 726.166 95.8699C726.027 95.6839 725.837 95.5308 725.597 95.4105C725.356 95.2902 725.048 95.23 724.673 95.23C724.158 95.23 723.73 95.3485 723.387 95.5855C723.048 95.8188 722.879 96.116 722.879 96.4769C722.879 96.7978 722.995 97.0512 723.229 97.2371C723.462 97.423 723.827 97.578 724.323 97.7019L725.569 98.0082C726.32 98.1905 726.88 98.4694 727.248 98.8449C727.617 99.2168 727.801 99.6963 727.801 100.283C727.801 100.764 727.662 101.195 727.385 101.574C727.112 101.953 726.729 102.252 726.237 102.471C725.744 102.69 725.172 102.799 724.519 102.799C723.663 102.799 722.954 102.613 722.392 102.241C721.831 101.869 721.475 101.326 721.326 100.611L722.551 100.305C722.667 100.757 722.888 101.096 723.212 101.322C723.54 101.548 723.969 101.661 724.498 101.661C725.099 101.661 725.577 101.534 725.93 101.279C726.288 101.02 726.466 100.71 726.466 100.349C726.466 100.057 726.364 99.8129 726.16 99.616C725.956 99.4155 725.642 99.266 725.219 99.1676L723.819 98.8395C723.05 98.6572 722.485 98.3746 722.124 97.9918C721.767 97.6053 721.588 97.1223 721.588 96.5426C721.588 96.0686 721.721 95.6493 721.987 95.2847C722.257 94.9201 722.624 94.6339 723.087 94.4261C723.553 94.2183 724.082 94.1144 724.673 94.1144C725.504 94.1144 726.156 94.2967 726.63 94.6613C727.108 95.0259 727.447 95.5071 727.648 96.105ZM733.265 102.799C732.456 102.799 731.758 102.62 731.171 102.263C730.588 101.902 730.137 101.399 729.82 100.754C729.507 100.105 729.35 99.3499 729.35 98.4895C729.35 97.629 729.507 96.8707 729.82 96.2144C730.137 95.5545 730.578 95.0404 731.144 94.6722C731.712 94.3003 732.376 94.1144 733.134 94.1144C733.572 94.1144 734.004 94.1873 734.43 94.3331C734.857 94.479 735.245 94.716 735.595 95.0441C735.945 95.3686 736.224 95.7988 736.432 96.3347C736.64 96.8707 736.744 97.5306 736.744 98.3145V98.8613H730.269V97.7457H735.431C735.431 97.2717 735.336 96.8488 735.147 96.4769C734.961 96.105 734.695 95.8116 734.348 95.5964C734.006 95.3813 733.601 95.2738 733.134 95.2738C732.62 95.2738 732.175 95.4014 731.8 95.6566C731.428 95.9082 731.142 96.2363 730.941 96.641C730.741 97.0457 730.64 97.4795 730.64 97.9426V98.6863C730.64 99.3207 730.75 99.8585 730.969 100.3C731.191 100.737 731.499 101.071 731.893 101.3C732.287 101.526 732.744 101.64 733.265 101.64C733.605 101.64 733.911 101.592 734.184 101.497C734.461 101.399 734.7 101.253 734.901 101.06C735.101 100.863 735.256 100.619 735.365 100.327L736.612 100.677C736.481 101.1 736.261 101.472 735.951 101.793C735.641 102.11 735.258 102.358 734.802 102.536C734.346 102.711 733.834 102.799 733.265 102.799ZM742.601 92.6269V91.4237H751.001V92.6269H747.479V102.624H746.123V92.6269H742.601ZM755.223 102.799C754.413 102.799 753.715 102.62 753.128 102.263C752.545 101.902 752.095 101.399 751.777 100.754C751.464 100.105 751.307 99.3499 751.307 98.4895C751.307 97.629 751.464 96.8707 751.777 96.2144C752.095 95.5545 752.536 95.0404 753.101 94.6722C753.67 94.3003 754.333 94.1144 755.092 94.1144C755.529 94.1144 755.961 94.1873 756.388 94.3331C756.814 94.479 757.203 94.716 757.553 95.0441C757.903 95.3686 758.181 95.7988 758.389 96.3347C758.597 96.8707 758.701 97.5306 758.701 98.3145V98.8613H752.226V97.7457H757.388C757.388 97.2717 757.294 96.8488 757.104 96.4769C756.918 96.105 756.652 95.8116 756.306 95.5964C755.963 95.3813 755.558 95.2738 755.092 95.2738C754.577 95.2738 754.133 95.4014 753.757 95.6566C753.385 95.9082 753.099 96.2363 752.899 96.641C752.698 97.0457 752.598 97.4795 752.598 97.9426V98.6863C752.598 99.3207 752.707 99.8585 752.926 100.3C753.148 100.737 753.456 101.071 753.85 101.3C754.244 101.526 754.701 101.64 755.223 101.64C755.562 101.64 755.868 101.592 756.142 101.497C756.419 101.399 756.657 101.253 756.858 101.06C757.059 100.863 757.213 100.619 757.323 100.327L758.57 100.677C758.438 101.1 758.218 101.472 757.908 101.793C757.598 102.11 757.215 102.358 756.76 102.536C756.304 102.711 755.792 102.799 755.223 102.799ZM763.136 102.821C762.604 102.821 762.121 102.721 761.687 102.52C761.253 102.316 760.909 102.022 760.653 101.64C760.398 101.253 760.271 100.786 760.271 100.239C760.271 99.7582 760.365 99.3681 760.555 99.0692C760.745 98.7665 760.998 98.5296 761.315 98.3582C761.632 98.1869 761.982 98.0592 762.365 97.9754C762.752 97.8879 763.14 97.8186 763.53 97.7676C764.04 97.7019 764.454 97.6527 764.771 97.6199C765.092 97.5835 765.326 97.5233 765.471 97.4394C765.621 97.3556 765.696 97.2098 765.696 97.0019V96.9582C765.696 96.4186 765.548 95.9993 765.253 95.7004C764.961 95.4014 764.518 95.2519 763.924 95.2519C763.308 95.2519 762.825 95.3868 762.475 95.6566C762.124 95.9264 761.878 96.2144 761.736 96.5207L760.511 96.0832C760.73 95.5727 761.022 95.1753 761.386 94.891C761.754 94.6029 762.155 94.4024 762.589 94.2894C763.027 94.1727 763.457 94.1144 763.88 94.1144C764.15 94.1144 764.46 94.1472 764.81 94.2128C765.163 94.2748 765.504 94.4042 765.832 94.6011C766.164 94.798 766.439 95.0951 766.658 95.4925C766.877 95.8899 766.986 96.4222 766.986 97.0894V102.624H765.696V101.486H765.63C765.543 101.669 765.397 101.864 765.193 102.072C764.988 102.279 764.717 102.456 764.378 102.602C764.039 102.748 763.625 102.821 763.136 102.821ZM763.333 101.661C763.844 101.661 764.274 101.561 764.624 101.361C764.977 101.16 765.244 100.901 765.422 100.584C765.604 100.267 765.696 99.9332 765.696 99.5832V98.402C765.641 98.4676 765.521 98.5277 765.335 98.5824C765.152 98.6335 764.941 98.679 764.7 98.7192C764.463 98.7556 764.232 98.7884 764.006 98.8176C763.783 98.8431 763.603 98.865 763.464 98.8832C763.129 98.927 762.815 98.9981 762.524 99.0965C762.236 99.1913 762.002 99.3353 761.824 99.5285C761.649 99.7181 761.561 99.977 761.561 100.305C761.561 100.754 761.727 101.093 762.059 101.322C762.394 101.548 762.819 101.661 763.333 101.661ZM769.342 102.624V94.2238H770.589V95.5363H770.698C770.873 95.0878 771.156 94.7397 771.546 94.4917C771.936 94.2402 772.405 94.1144 772.951 94.1144C773.506 94.1144 773.967 94.2402 774.335 94.4917C774.707 94.7397 774.997 95.0878 775.205 95.5363H775.292C775.507 95.1024 775.83 94.7579 776.26 94.5027C776.69 94.2438 777.206 94.1144 777.808 94.1144C778.559 94.1144 779.173 94.3496 779.651 94.8199C780.128 95.2865 780.367 96.0139 780.367 97.0019V102.624H779.077V97.0019C779.077 96.3821 778.907 95.9392 778.568 95.673C778.229 95.4069 777.83 95.2738 777.37 95.2738C776.78 95.2738 776.322 95.4524 775.998 95.8097C775.673 96.1634 775.511 96.6118 775.511 97.1551V102.624H774.198V96.8707C774.198 96.3931 774.043 96.0084 773.733 95.7168C773.424 95.4214 773.024 95.2738 772.536 95.2738C772.2 95.2738 771.887 95.3631 771.595 95.5418C771.307 95.7204 771.074 95.9683 770.895 96.2855C770.72 96.5991 770.633 96.9618 770.633 97.3738V102.624H769.342Z" fill="#FAFAFA"/>
<path d="M304.927 99.6554V90.9928L398.773 120.831L493.58 90.9928L492.618 99.6554L398.773 130.937L304.927 99.6554Z" fill="#CECECE" fill-opacity="0.95"/>
<path d="M398.773 59.7111L304.927 90.9928C304.157 91.2508 367.33 111.313 398.773 121.312L493.58 90.9928L398.773 59.7111Z" fill="#D9D9D9"/>
<path d="M493.573 95.3241L638.913 96.2866" stroke="white" stroke-width="0.962515" stroke-linecap="round" stroke-dasharray="1.93 1.93"/>
<rect x="0.765625" y="15.4353" width="217.528" height="40.4256" rx="20.2128" fill="#31A5DD"/>
<path d="M20.9783 41.1761C20.1544 41.1761 19.4525 40.9519 18.8728 40.5034C18.2931 40.0513 17.8502 39.3969 17.5439 38.5401C17.2377 37.6797 17.0845 36.6406 17.0845 35.4229C17.0845 34.2124 17.2377 33.1788 17.5439 32.322C17.8538 31.4616 18.2986 30.8053 18.8783 30.3532C19.4617 29.8975 20.1617 29.6696 20.9783 29.6696C21.795 29.6696 22.4932 29.8975 23.0729 30.3532C23.6563 30.8053 24.1011 31.4616 24.4073 32.322C24.7172 33.1788 24.8722 34.2124 24.8722 35.4229C24.8722 36.6406 24.719 37.6797 24.4128 38.5401C24.1065 39.3969 23.6635 40.0513 23.0838 40.5034C22.5042 40.9519 21.8023 41.1761 20.9783 41.1761ZM20.9783 39.9729C21.795 39.9729 22.4294 39.5792 22.8815 38.7917C23.3336 38.0042 23.5596 36.8812 23.5596 35.4229C23.5596 34.4531 23.4557 33.6273 23.2479 32.9455C23.0437 32.2637 22.7484 31.7442 22.362 31.3869C21.9791 31.0296 21.5179 30.8509 20.9783 30.8509C20.169 30.8509 19.5364 31.2501 19.0807 32.0486C18.6249 32.8434 18.3971 33.9682 18.3971 35.4229C18.3971 36.3927 18.4991 37.2166 18.7033 37.8948C18.9075 38.5729 19.201 39.0888 19.5838 39.4425C19.9703 39.7961 20.4351 39.9729 20.9783 39.9729ZM30.8879 29.8228V41.0229H29.5316V31.2447H29.466L26.7316 33.0603V31.6822L29.5316 29.8228H30.8879ZM34.4098 41.1105C34.14 41.1105 33.9085 41.0138 33.7153 40.8206C33.522 40.6274 33.4254 40.3959 33.4254 40.1261C33.4254 39.8563 33.522 39.6248 33.7153 39.4315C33.9085 39.2383 34.14 39.1417 34.4098 39.1417C34.6796 39.1417 34.9111 39.2383 35.1043 39.4315C35.2976 39.6248 35.3942 39.8563 35.3942 40.1261C35.3942 40.3047 35.3486 40.4688 35.2575 40.6183C35.17 40.7677 35.0515 40.8881 34.902 40.9792C34.7562 41.0667 34.5921 41.1105 34.4098 41.1105ZM41.6041 31.0259V29.8228H50.0042V31.0259H46.4823V41.0229H45.126V31.0259H41.6041ZM54.2261 41.198C53.4167 41.198 52.7186 41.0193 52.1316 40.662C51.5482 40.3011 51.098 39.7979 50.7808 39.1526C50.4672 38.5036 50.3104 37.7489 50.3104 36.8885C50.3104 36.0281 50.4672 35.2697 50.7808 34.6135C51.098 33.9536 51.5391 33.4395 52.1042 33.0713C52.673 32.6994 53.3365 32.5134 54.0949 32.5134C54.5324 32.5134 54.9644 32.5864 55.391 32.7322C55.8176 32.878 56.2059 33.115 56.5559 33.4431C56.9059 33.7676 57.1848 34.1978 57.3926 34.7338C57.6004 35.2697 57.7043 35.9296 57.7043 36.7135V37.2604H51.2292V36.1447H56.3918C56.3918 35.6708 56.297 35.2479 56.1074 34.876C55.9215 34.5041 55.6553 34.2106 55.309 33.9955C54.9662 33.7804 54.5616 33.6728 54.0949 33.6728C53.5808 33.6728 53.136 33.8004 52.7605 34.0557C52.3886 34.3072 52.1024 34.6353 51.9019 35.04C51.7014 35.4447 51.6011 35.8786 51.6011 36.3416V37.0854C51.6011 37.7198 51.7105 38.2575 51.9292 38.6987C52.1516 39.1362 52.4597 39.4698 52.8535 39.6995C53.2472 39.9255 53.7048 40.0386 54.2261 40.0386C54.5652 40.0386 54.8715 39.9912 55.1449 39.8964C55.422 39.7979 55.6608 39.6521 55.8613 39.4589C56.0618 39.262 56.2168 39.0177 56.3262 38.726L57.5731 39.076C57.4418 39.499 57.2212 39.8708 56.9113 40.1917C56.6014 40.5089 56.2186 40.7568 55.7629 40.9354C55.3071 41.1105 54.7949 41.198 54.2261 41.198ZM60.9583 29.8228V41.0229H59.6676V29.8228H60.9583ZM64.6128 29.8228V41.0229H63.3222V29.8228H64.6128ZM70.5205 29.8228H72.0737L75.18 35.051H75.3112L78.4175 29.8228H79.9707L75.9237 36.4073V41.0229H74.5675V36.4073L70.5205 29.8228ZM83.7743 41.198C83.0159 41.198 82.3505 41.0175 81.7781 40.6565C81.2094 40.2956 80.7646 39.7906 80.4437 39.1417C80.1265 38.4927 79.9679 37.7344 79.9679 36.8666C79.9679 35.9916 80.1265 35.2278 80.4437 34.5752C80.7646 33.9226 81.2094 33.4158 81.7781 33.0549C82.3505 32.6939 83.0159 32.5134 83.7743 32.5134C84.5326 32.5134 85.1962 32.6939 85.7649 33.0549C86.3373 33.4158 86.7821 33.9226 87.0993 34.5752C87.4201 35.2278 87.5806 35.9916 87.5806 36.8666C87.5806 37.7344 87.4201 38.4927 87.0993 39.1417C86.7821 39.7906 86.3373 40.2956 85.7649 40.6565C85.1962 41.0175 84.5326 41.198 83.7743 41.198ZM83.7743 40.0386C84.3503 40.0386 84.8243 39.8909 85.1962 39.5956C85.568 39.3003 85.8433 38.912 86.0219 38.4307C86.2006 37.9495 86.2899 37.4281 86.2899 36.8666C86.2899 36.3052 86.2006 35.782 86.0219 35.2971C85.8433 34.8122 85.568 34.4202 85.1962 34.1213C84.8243 33.8223 84.3503 33.6728 83.7743 33.6728C83.1982 33.6728 82.7242 33.8223 82.3524 34.1213C81.9805 34.4202 81.7052 34.8122 81.5266 35.2971C81.3479 35.782 81.2586 36.3052 81.2586 36.8666C81.2586 37.4281 81.3479 37.9495 81.5266 38.4307C81.7052 38.912 81.9805 39.3003 82.3524 39.5956C82.7242 39.8909 83.1982 40.0386 83.7743 40.0386ZM94.8445 37.5885V32.6228H96.1352V41.0229H94.8445V39.6011H94.757C94.5602 40.0276 94.2539 40.3904 93.8383 40.6894C93.4227 40.9847 92.8976 41.1323 92.2633 41.1323C91.7382 41.1323 91.2716 41.0175 90.8632 40.7878C90.4549 40.5545 90.1341 40.2044 89.9007 39.7378C89.6674 39.2675 89.5507 38.675 89.5507 37.9604V32.6228H90.8414V37.8729C90.8414 38.4854 91.0127 38.974 91.3554 39.3385C91.7018 39.7031 92.1429 39.8854 92.6789 39.8854C92.9997 39.8854 93.326 39.8034 93.6578 39.6393C93.9932 39.4753 94.274 39.2237 94.5 38.8846C94.7297 38.5456 94.8445 38.1135 94.8445 37.5885ZM98.4991 41.0229V32.6228H99.746V33.8916H99.8335C99.9866 33.476 100.264 33.1387 100.665 32.8799C101.066 32.621 101.518 32.4916 102.021 32.4916C102.116 32.4916 102.234 32.4934 102.376 32.497C102.519 32.5007 102.626 32.5061 102.699 32.5134V33.826C102.655 33.815 102.555 33.7986 102.398 33.7767C102.245 33.7512 102.083 33.7385 101.912 33.7385C101.503 33.7385 101.139 33.8241 100.818 33.9955C100.501 34.1632 100.249 34.3965 100.063 34.6955C99.8809 34.9908 99.7897 35.3281 99.7897 35.7072V41.0229H98.4991ZM108.735 41.0229V29.8228H112.52C113.395 29.8228 114.113 29.9723 114.675 30.2712C115.236 30.5665 115.652 30.9731 115.921 31.4908C116.191 32.0085 116.326 32.5973 116.326 33.2572C116.326 33.9171 116.191 34.5023 115.921 35.0127C115.652 35.5231 115.238 35.9242 114.68 36.2158C114.122 36.5039 113.409 36.6479 112.542 36.6479H109.479V35.4229H112.498C113.096 35.4229 113.577 35.3354 113.942 35.1604C114.31 34.9854 114.576 34.7374 114.74 34.4166C114.908 34.0921 114.992 33.7056 114.992 33.2572C114.992 32.8088 114.908 32.4168 114.74 32.0814C114.572 31.746 114.304 31.4871 113.936 31.3048C113.568 31.1189 113.081 31.0259 112.476 31.0259H110.092V41.0229H108.735ZM114.007 35.9916L116.764 41.0229H115.189L112.476 35.9916H114.007ZM121.843 41.198C121.033 41.198 120.335 41.0193 119.748 40.662C119.165 40.3011 118.715 39.7979 118.397 39.1526C118.084 38.5036 117.927 37.7489 117.927 36.8885C117.927 36.0281 118.084 35.2697 118.397 34.6135C118.715 33.9536 119.156 33.4395 119.721 33.0713C120.29 32.6994 120.953 32.5134 121.712 32.5134C122.149 32.5134 122.581 32.5864 123.008 32.7322C123.434 32.878 123.823 33.115 124.173 33.4431C124.523 33.7676 124.801 34.1978 125.009 34.7338C125.217 35.2697 125.321 35.9296 125.321 36.7135V37.2604H118.846V36.1447H124.008C124.008 35.6708 123.914 35.2479 123.724 34.876C123.538 34.5041 123.272 34.2106 122.926 33.9955C122.583 33.7804 122.178 33.6728 121.712 33.6728C121.197 33.6728 120.753 33.8004 120.377 34.0557C120.005 34.3072 119.719 34.6353 119.519 35.04C119.318 35.4447 119.218 35.8786 119.218 36.3416V37.0854C119.218 37.7198 119.327 38.2575 119.546 38.6987C119.768 39.1362 120.076 39.4698 120.47 39.6995C120.864 39.9255 121.321 40.0386 121.843 40.0386C122.182 40.0386 122.488 39.9912 122.762 39.8964C123.039 39.7979 123.277 39.6521 123.478 39.4589C123.679 39.262 123.833 39.0177 123.943 38.726L125.19 39.076C125.058 39.499 124.838 39.8708 124.528 40.1917C124.218 40.5089 123.835 40.7568 123.38 40.9354C122.924 41.1105 122.412 41.198 121.843 41.198ZM133.016 44.173V39.7323H132.906C132.811 39.8854 132.677 40.0787 132.502 40.312C132.327 40.5417 132.077 40.7477 131.752 40.93C131.428 41.1086 130.996 41.198 130.456 41.198C129.756 41.198 129.138 41.0211 128.602 40.6675C128.066 40.3102 127.647 39.807 127.344 39.1581C127.042 38.5055 126.891 37.7344 126.891 36.8448C126.891 35.9625 127.042 35.1968 127.344 34.5478C127.647 33.8989 128.068 33.3976 128.608 33.0439C129.147 32.6903 129.771 32.5134 130.478 32.5134C131.025 32.5134 131.457 32.6046 131.774 32.7869C132.095 32.9655 132.339 33.1697 132.507 33.3994C132.678 33.6254 132.811 33.8114 132.906 33.9572H133.059V32.6228H134.306V44.173H133.016ZM130.631 40.0386C131.149 40.0386 131.586 39.9037 131.944 39.6339C132.301 39.3604 132.573 38.9831 132.759 38.5018C132.945 38.0169 133.038 37.4573 133.038 36.8229C133.038 36.1958 132.946 35.6471 132.764 35.1768C132.582 34.7028 132.312 34.3346 131.955 34.0721C131.597 33.8059 131.156 33.6728 130.631 33.6728C130.084 33.6728 129.629 33.8132 129.264 34.0939C128.903 34.371 128.631 34.7484 128.449 35.226C128.271 35.6999 128.181 36.2322 128.181 36.8229C128.181 37.4208 128.272 37.964 128.455 38.4526C128.641 38.9375 128.914 39.324 129.275 39.612C129.64 39.8964 130.092 40.0386 130.631 40.0386ZM141.963 37.5885V32.6228H143.253V41.0229H141.963V39.6011H141.875C141.678 40.0276 141.372 40.3904 140.956 40.6894C140.541 40.9847 140.016 41.1323 139.381 41.1323C138.856 41.1323 138.39 41.0175 137.981 40.7878C137.573 40.5545 137.252 40.2044 137.019 39.7378C136.786 39.2675 136.669 38.675 136.669 37.9604V32.6228H137.959V37.8729C137.959 38.4854 138.131 38.974 138.474 39.3385C138.82 39.7031 139.261 39.8854 139.797 39.8854C140.118 39.8854 140.444 39.8034 140.776 39.6393C141.111 39.4753 141.392 39.2237 141.618 38.8846C141.848 38.5456 141.963 38.1135 141.963 37.5885ZM145.617 41.0229V32.6228H146.908V41.0229H145.617ZM146.273 31.2228C146.022 31.2228 145.805 31.1371 145.623 30.9658C145.444 30.7944 145.355 30.5884 145.355 30.3478C145.355 30.1072 145.444 29.9012 145.623 29.7298C145.805 29.5584 146.022 29.4728 146.273 29.4728C146.525 29.4728 146.74 29.5584 146.919 29.7298C147.101 29.9012 147.192 30.1072 147.192 30.3478C147.192 30.5884 147.101 30.7944 146.919 30.9658C146.74 31.1371 146.525 31.2228 146.273 31.2228ZM149.272 41.0229V32.6228H150.519V33.8916H150.606C150.759 33.476 151.036 33.1387 151.437 32.8799C151.838 32.621 152.291 32.4916 152.794 32.4916C152.888 32.4916 153.007 32.4934 153.149 32.497C153.291 32.5007 153.399 32.5061 153.472 32.5134V33.826C153.428 33.815 153.328 33.7986 153.171 33.7767C153.018 33.7512 152.856 33.7385 152.684 33.7385C152.276 33.7385 151.911 33.8241 151.591 33.9955C151.273 34.1632 151.022 34.3965 150.836 34.6955C150.654 34.9908 150.562 35.3281 150.562 35.7072V41.0229H149.272ZM158.268 41.198C157.459 41.198 156.76 41.0193 156.173 40.662C155.59 40.3011 155.14 39.7979 154.823 39.1526C154.509 38.5036 154.352 37.7489 154.352 36.8885C154.352 36.0281 154.509 35.2697 154.823 34.6135C155.14 33.9536 155.581 33.4395 156.146 33.0713C156.715 32.6994 157.378 32.5134 158.137 32.5134C158.574 32.5134 159.006 32.5864 159.433 32.7322C159.859 32.878 160.248 33.115 160.598 33.4431C160.948 33.7676 161.227 34.1978 161.434 34.7338C161.642 35.2697 161.746 35.9296 161.746 36.7135V37.2604H155.271V36.1447H160.434C160.434 35.6708 160.339 35.2479 160.149 34.876C159.963 34.5041 159.697 34.2106 159.351 33.9955C159.008 33.7804 158.603 33.6728 158.137 33.6728C157.623 33.6728 157.178 33.8004 156.802 34.0557C156.43 34.3072 156.144 34.6353 155.944 35.04C155.743 35.4447 155.643 35.8786 155.643 36.3416V37.0854C155.643 37.7198 155.752 38.2575 155.971 38.6987C156.193 39.1362 156.502 39.4698 156.895 39.6995C157.289 39.9255 157.747 40.0386 158.268 40.0386C158.607 40.0386 158.913 39.9912 159.187 39.8964C159.464 39.7979 159.703 39.6521 159.903 39.4589C160.104 39.262 160.259 39.0177 160.368 38.726L161.615 39.076C161.484 39.499 161.263 39.8708 160.953 40.1917C160.643 40.5089 160.26 40.7568 159.805 40.9354C159.349 41.1105 158.837 41.198 158.268 41.198ZM163.709 41.0229V32.6228H164.956V33.9353H165.066C165.241 33.4869 165.523 33.1387 165.913 32.8908C166.304 32.6392 166.772 32.5134 167.319 32.5134C167.873 32.5134 168.334 32.6392 168.703 32.8908C169.074 33.1387 169.364 33.4869 169.572 33.9353H169.66C169.875 33.5015 170.197 33.1569 170.628 32.9017C171.058 32.6429 171.574 32.5134 172.175 32.5134C172.926 32.5134 173.541 32.7486 174.018 33.2189C174.496 33.6856 174.735 34.4129 174.735 35.401V41.0229H173.444V35.401C173.444 34.7812 173.274 34.3382 172.935 34.0721C172.596 33.8059 172.197 33.6728 171.738 33.6728C171.147 33.6728 170.69 33.8515 170.365 34.2088C170.041 34.5624 169.878 35.0109 169.878 35.5541V41.0229H168.566V35.2697C168.566 34.7921 168.411 34.4075 168.101 34.1158C167.791 33.8205 167.392 33.6728 166.903 33.6728C166.568 33.6728 166.254 33.7622 165.963 33.9408C165.675 34.1195 165.441 34.3674 165.263 34.6846C165.088 34.9981 165 35.3609 165 35.7729V41.0229H163.709ZM180.616 41.198C179.807 41.198 179.109 41.0193 178.522 40.662C177.938 40.3011 177.488 39.7979 177.171 39.1526C176.857 38.5036 176.701 37.7489 176.701 36.8885C176.701 36.0281 176.857 35.2697 177.171 34.6135C177.488 33.9536 177.929 33.4395 178.494 33.0713C179.063 32.6994 179.727 32.5134 180.485 32.5134C180.923 32.5134 181.355 32.5864 181.781 32.7322C182.208 32.878 182.596 33.115 182.946 33.4431C183.296 33.7676 183.575 34.1978 183.783 34.7338C183.991 35.2697 184.095 35.9296 184.095 36.7135V37.2604H177.619V36.1447H182.782C182.782 35.6708 182.687 35.2479 182.498 34.876C182.312 34.5041 182.046 34.2106 181.699 33.9955C181.357 33.7804 180.952 33.6728 180.485 33.6728C179.971 33.6728 179.526 33.8004 179.151 34.0557C178.779 34.3072 178.493 34.6353 178.292 35.04C178.092 35.4447 177.991 35.8786 177.991 36.3416V37.0854C177.991 37.7198 178.101 38.2575 178.319 38.6987C178.542 39.1362 178.85 39.4698 179.244 39.6995C179.637 39.9255 180.095 40.0386 180.616 40.0386C180.955 40.0386 181.262 39.9912 181.535 39.8964C181.812 39.7979 182.051 39.6521 182.252 39.4589C182.452 39.262 182.607 39.0177 182.716 38.726L183.963 39.076C183.832 39.499 183.611 39.8708 183.302 40.1917C182.992 40.5089 182.609 40.7568 182.153 40.9354C181.697 41.1105 181.185 41.198 180.616 41.198ZM187.349 35.9697V41.0229H186.058V32.6228H187.305V33.9353H187.414C187.611 33.5088 187.91 33.1661 188.311 32.9072C188.712 32.6447 189.23 32.5134 189.864 32.5134C190.433 32.5134 190.931 32.6301 191.357 32.8634C191.784 33.0931 192.116 33.4431 192.353 33.9135C192.589 34.3801 192.708 34.9708 192.708 35.6854V41.0229H191.417V35.7729C191.417 35.113 191.246 34.5989 190.903 34.2307C190.561 33.8588 190.09 33.6728 189.492 33.6728C189.08 33.6728 188.712 33.7622 188.388 33.9408C188.067 34.1195 187.813 34.3801 187.627 34.7228C187.442 35.0656 187.349 35.4812 187.349 35.9697ZM198.72 32.6228V33.7166H194.366V32.6228H198.72ZM195.635 30.6103H196.926V38.6167C196.926 38.9813 196.979 39.2547 197.084 39.437C197.194 39.6156 197.332 39.7359 197.5 39.7979C197.671 39.8563 197.852 39.8854 198.041 39.8854C198.184 39.8854 198.3 39.8781 198.391 39.8636C198.483 39.8453 198.556 39.8307 198.61 39.8198L198.873 40.9792C198.785 41.012 198.663 41.0448 198.506 41.0776C198.35 41.1141 198.151 41.1323 197.91 41.1323C197.546 41.1323 197.188 41.0539 196.838 40.8972C196.492 40.7404 196.204 40.5016 195.974 40.1807C195.748 39.8599 195.635 39.4552 195.635 38.9667V30.6103ZM206.461 34.5041L205.301 34.8322C205.228 34.639 205.121 34.4512 204.979 34.2689C204.84 34.083 204.651 33.9299 204.41 33.8096C204.169 33.6892 203.861 33.6291 203.486 33.6291C202.972 33.6291 202.543 33.7476 202.201 33.9846C201.861 34.2179 201.692 34.515 201.692 34.876C201.692 35.1968 201.809 35.4502 202.042 35.6361C202.275 35.8221 202.64 35.977 203.136 36.101L204.383 36.4073C205.134 36.5895 205.693 36.8685 206.062 37.244C206.43 37.6159 206.614 38.0953 206.614 38.6823C206.614 39.1635 206.475 39.5938 206.198 39.9729C205.925 40.3521 205.542 40.6511 205.05 40.8698C204.558 41.0886 203.985 41.198 203.333 41.198C202.476 41.198 201.767 41.012 201.205 40.6401C200.644 40.2682 200.288 39.725 200.139 39.0104L201.364 38.7042C201.48 39.1563 201.701 39.4953 202.026 39.7214C202.354 39.9474 202.782 40.0604 203.311 40.0604C203.912 40.0604 204.39 39.9328 204.744 39.6776C205.101 39.4188 205.279 39.1089 205.279 38.7479C205.279 38.4562 205.177 38.212 204.973 38.0151C204.769 37.8146 204.456 37.6651 204.033 37.5666L202.633 37.2385C201.863 37.0562 201.298 36.7737 200.937 36.3908C200.58 36.0044 200.401 35.5213 200.401 34.9416C200.401 34.4676 200.534 34.0484 200.801 33.6838C201.07 33.3192 201.437 33.033 201.9 32.8252C202.366 32.6173 202.895 32.5134 203.486 32.5134C204.317 32.5134 204.97 32.6957 205.444 33.0603C205.921 33.4249 206.26 33.9062 206.461 34.5041Z" fill="#FAFAFA"/>
<path d="M304.927 39.9794V31.3168L398.773 61.1547L493.58 31.3168L492.618 39.9794L398.773 71.2612L304.927 39.9794Z" fill="#1885B9"/>
<path d="M398.773 0.0350342L304.927 31.3168C304.157 31.5748 367.33 51.6371 398.773 61.636L493.58 31.3168L398.773 0.0350342Z" fill="#31A5DD"/>
<path d="M218.294 35.6481L303.958 35.6481" stroke="white" stroke-width="0.962515" stroke-linecap="round" stroke-dasharray="1.93 1.93"/>
</svg>
