<svg width="793" height="310" viewBox="0 0 793 310" fill="none" xmlns="http://www.w3.org/2000/svg">
<path d="M302.057 278.217V269.587L395.548 299.313L489.999 269.587L489.04 278.217L395.548 309.381L302.057 278.217Z" fill="#CECECE" fill-opacity="0.95"/>
<path d="M395.548 238.423L302.057 269.587C301.29 269.844 364.225 289.831 395.548 299.792L489.999 269.587L395.548 238.423Z" fill="#D9D9D9"/>
<rect y="253.766" width="254.105" height="40.2733" rx="20.1366" fill="#333339"/>
<path d="M20.1362 279.466C19.3154 279.466 18.6162 279.243 18.0387 278.796C17.4612 278.346 17.0199 277.694 16.7147 276.84C16.4096 275.983 16.2571 274.948 16.2571 273.734C16.2571 272.529 16.4096 271.499 16.7147 270.645C17.0235 269.788 17.4666 269.134 18.0441 268.684C18.6253 268.23 19.3226 268.003 20.1362 268.003C20.9498 268.003 21.6454 268.23 22.2229 268.684C22.804 269.134 23.2472 269.788 23.5523 270.645C23.861 271.499 24.0154 272.529 24.0154 273.734C24.0154 274.948 23.8628 275.983 23.5577 276.84C23.2526 277.694 22.8113 278.346 22.2338 278.796C21.6563 279.243 20.9571 279.466 20.1362 279.466ZM20.1362 278.267C20.9498 278.267 21.5818 277.875 22.0322 277.091C22.4826 276.306 22.7078 275.187 22.7078 273.734C22.7078 272.768 22.6043 271.946 22.3972 271.266C22.1938 270.587 21.8996 270.07 21.5146 269.714C21.1333 269.358 20.6738 269.18 20.1362 269.18C19.3299 269.18 18.6997 269.577 18.2457 270.373C17.7917 271.165 17.5647 272.285 17.5647 273.734C17.5647 274.701 17.6664 275.522 17.8698 276.197C18.0732 276.873 18.3656 277.387 18.7469 277.739C19.1319 278.091 19.595 278.267 20.1362 278.267ZM29.5726 279.466C28.9333 279.466 28.3576 279.339 27.8455 279.085C27.3333 278.83 26.9229 278.482 26.6142 278.039C26.3054 277.595 26.1365 277.091 26.1075 276.524H27.4151C27.4659 277.029 27.6947 277.447 28.1015 277.777C28.512 278.104 29.0023 278.267 29.5726 278.267C30.0302 278.267 30.437 278.16 30.793 277.946C31.1525 277.732 31.434 277.437 31.6374 277.063C31.8445 276.686 31.948 276.259 31.948 275.783C31.948 275.296 31.8408 274.862 31.6265 274.481C31.4159 274.096 31.1253 273.793 30.7548 273.571C30.3843 273.349 29.9612 273.237 29.4854 273.233C29.144 273.23 28.7935 273.282 28.4339 273.391C28.0743 273.497 27.7783 273.633 27.5458 273.8L26.2818 273.647L26.9574 268.156H32.7543V269.354H28.0906L27.6984 272.645H27.7637C27.9926 272.463 28.2795 272.313 28.6246 272.193C28.9696 272.073 29.3292 272.013 29.7033 272.013C30.3862 272.013 30.9945 272.176 31.5285 272.503C32.066 272.826 32.4874 273.27 32.7925 273.833C33.1012 274.396 33.2556 275.038 33.2556 275.761C33.2556 276.473 33.0957 277.109 32.7761 277.668C32.4601 278.224 32.0243 278.663 31.4685 278.987C30.9128 279.306 30.2808 279.466 29.5726 279.466ZM35.9592 279.401C35.6905 279.401 35.4598 279.304 35.2673 279.112C35.0748 278.919 34.9786 278.689 34.9786 278.42C34.9786 278.151 35.0748 277.921 35.2673 277.728C35.4598 277.536 35.6905 277.439 35.9592 277.439C36.228 277.439 36.4587 277.536 36.6512 277.728C36.8437 277.921 36.9399 278.151 36.9399 278.42C36.9399 278.598 36.8945 278.761 36.8037 278.91C36.7165 279.059 36.5985 279.179 36.4496 279.27C36.3043 279.357 36.1408 279.401 35.9592 279.401ZM44.1942 279.313H42.7777L46.8748 268.156H48.2695L52.3666 279.313H50.95L47.6157 269.921H47.5285L44.1942 279.313ZM44.7173 274.955H50.427V276.154H44.7173V274.955ZM57.3299 279.488C56.5454 279.488 55.8698 279.303 55.3032 278.932C54.7365 278.562 54.3007 278.051 53.9956 277.401C53.6905 276.751 53.5379 276.008 53.5379 275.173C53.5379 274.323 53.6941 273.573 54.0065 272.923C54.3225 272.269 54.762 271.759 55.325 271.392C55.8916 271.021 56.5526 270.836 57.3081 270.836C57.8965 270.836 58.4268 270.945 58.899 271.163C59.3712 271.381 59.758 271.686 60.0595 272.078C60.3609 272.471 60.548 272.928 60.6206 273.451H59.3348C59.2368 273.07 59.0188 272.732 58.6811 272.438C58.3469 272.14 57.8965 271.991 57.3299 271.991C56.8287 271.991 56.3892 272.122 56.0114 272.383C55.6373 272.641 55.3449 273.006 55.1343 273.478C54.9272 273.947 54.8237 274.497 54.8237 275.129C54.8237 275.776 54.9254 276.339 55.1288 276.818C55.3358 277.298 55.6264 277.67 56.0005 277.935C56.3783 278.2 56.8214 278.333 57.3299 278.333C57.6641 278.333 57.9673 278.275 58.2398 278.158C58.5122 278.042 58.7428 277.875 58.9317 277.657C59.1205 277.439 59.2549 277.178 59.3348 276.873H60.6206C60.548 277.367 60.3682 277.812 60.0813 278.207C59.7979 278.6 59.422 278.912 58.9535 279.145C58.4886 279.373 57.9474 279.488 57.3299 279.488ZM63.786 274.279V279.313H62.5003V268.156H63.786V272.253H63.895C64.0911 271.82 64.3854 271.477 64.7776 271.223C65.1735 270.965 65.7002 270.836 66.3576 270.836C66.9279 270.836 67.4273 270.95 67.8559 271.179C68.2845 271.404 68.6168 271.751 68.8529 272.22C69.0926 272.685 69.2125 273.277 69.2125 273.996V279.313H67.9267V274.083C67.9267 273.418 67.7542 272.905 67.4091 272.541C67.0677 272.174 66.5937 271.991 65.9871 271.991C65.5658 271.991 65.1881 272.08 64.8539 272.258C64.5234 272.436 64.2619 272.696 64.0694 273.037C63.8805 273.379 63.786 273.793 63.786 274.279ZM71.5647 279.313V270.945H72.8505V279.313H71.5647ZM72.2185 269.55C71.9679 269.55 71.7518 269.465 71.5702 269.294C71.3922 269.123 71.3032 268.918 71.3032 268.679C71.3032 268.439 71.3922 268.234 71.5702 268.063C71.7518 267.892 71.9679 267.807 72.2185 267.807C72.4692 267.807 72.6835 267.892 72.8614 268.063C73.043 268.234 73.1338 268.439 73.1338 268.679C73.1338 268.918 73.043 269.123 72.8614 269.294C72.6835 269.465 72.4692 269.55 72.2185 269.55ZM78.7142 279.488C77.9078 279.488 77.2123 279.31 76.6275 278.954C76.0464 278.594 75.5978 278.093 75.2818 277.45C74.9694 276.804 74.8133 276.052 74.8133 275.195C74.8133 274.337 74.9694 273.582 75.2818 272.928C75.5978 272.271 76.0373 271.759 76.6003 271.392C77.1669 271.021 77.8279 270.836 78.5834 270.836C79.0193 270.836 79.4497 270.909 79.8747 271.054C80.2996 271.199 80.6864 271.435 81.0351 271.762C81.3838 272.085 81.6617 272.514 81.8687 273.048C82.0757 273.582 82.1793 274.239 82.1793 275.02V275.565H75.7286V274.454H80.8717C80.8717 273.981 80.7772 273.56 80.5884 273.19C80.4031 272.819 80.138 272.527 79.7929 272.313C79.4515 272.098 79.0483 271.991 78.5834 271.991C78.0713 271.991 77.6282 272.118 77.2541 272.372C76.8836 272.623 76.5985 272.95 76.3987 273.353C76.1989 273.756 76.099 274.189 76.099 274.65V275.391C76.099 276.023 76.208 276.558 76.4259 276.998C76.6475 277.434 76.9544 277.766 77.3467 277.995C77.739 278.22 78.1948 278.333 78.7142 278.333C79.052 278.333 79.3571 278.286 79.6295 278.191C79.9055 278.093 80.1434 277.948 80.3432 277.755C80.543 277.559 80.6973 277.316 80.8063 277.025L82.0485 277.374C81.9177 277.795 81.698 278.166 81.3893 278.485C81.0805 278.801 80.6992 279.048 80.2451 279.226C79.7911 279.401 79.2808 279.488 78.7142 279.488ZM90.7234 270.945L87.6288 279.313H86.3213L83.2267 270.945H84.6214L86.9315 277.614H87.0186L89.3287 270.945H90.7234ZM95.6296 279.488C94.8232 279.488 94.1277 279.31 93.5429 278.954C92.9617 278.594 92.5132 278.093 92.1972 277.45C91.8848 276.804 91.7286 276.052 91.7286 275.195C91.7286 274.337 91.8848 273.582 92.1972 272.928C92.5132 272.271 92.9527 271.759 93.5156 271.392C94.0823 271.021 94.7433 270.836 95.4988 270.836C95.9347 270.836 96.3651 270.909 96.79 271.054C97.215 271.199 97.6018 271.435 97.9505 271.762C98.2992 272.085 98.577 272.514 98.7841 273.048C98.9911 273.582 99.0946 274.239 99.0946 275.02V275.565H92.6439V274.454H97.7871C97.7871 273.981 97.6926 273.56 97.5037 273.19C97.3185 272.819 97.0534 272.527 96.7083 272.313C96.3669 272.098 95.9637 271.991 95.4988 271.991C94.9867 271.991 94.5435 272.118 94.1694 272.372C93.799 272.623 93.5138 272.95 93.3141 273.353C93.1143 273.756 93.0144 274.189 93.0144 274.65V275.391C93.0144 276.023 93.1234 276.558 93.3413 276.998C93.5629 277.434 93.8698 277.766 94.2621 277.995C94.6543 278.22 95.1102 278.333 95.6296 278.333C95.9673 278.333 96.2724 278.286 96.5449 278.191C96.8209 278.093 97.0588 277.948 97.2586 277.755C97.4583 277.559 97.6127 277.316 97.7217 277.025L98.9639 277.374C98.8331 277.795 98.6134 278.166 98.3046 278.485C97.9959 278.801 97.6145 279.048 97.1605 279.226C96.7065 279.401 96.1962 279.488 95.6296 279.488ZM104.581 268.156H106.128L109.223 273.364H109.354L112.448 268.156H113.996L109.964 274.715V279.313H108.613V274.715L104.581 268.156ZM117.785 279.488C117.029 279.488 116.366 279.308 115.796 278.948C115.23 278.589 114.786 278.086 114.467 277.439C114.151 276.793 113.993 276.037 113.993 275.173C113.993 274.301 114.151 273.54 114.467 272.89C114.786 272.24 115.23 271.735 115.796 271.375C116.366 271.016 117.029 270.836 117.785 270.836C118.54 270.836 119.201 271.016 119.768 271.375C120.338 271.735 120.781 272.24 121.097 272.89C121.417 273.54 121.577 274.301 121.577 275.173C121.577 276.037 121.417 276.793 121.097 277.439C120.781 278.086 120.338 278.589 119.768 278.948C119.201 279.308 118.54 279.488 117.785 279.488ZM117.785 278.333C118.359 278.333 118.831 278.186 119.201 277.891C119.572 277.597 119.846 277.21 120.024 276.731C120.202 276.252 120.291 275.732 120.291 275.173C120.291 274.613 120.202 274.092 120.024 273.609C119.846 273.126 119.572 272.736 119.201 272.438C118.831 272.14 118.359 271.991 117.785 271.991C117.211 271.991 116.739 272.14 116.368 272.438C115.998 272.736 115.724 273.126 115.546 273.609C115.368 274.092 115.279 274.613 115.279 275.173C115.279 275.732 115.368 276.252 115.546 276.731C115.724 277.21 115.998 277.597 116.368 277.891C116.739 278.186 117.211 278.333 117.785 278.333ZM128.813 275.892V270.945H130.099V279.313H128.813V277.897H128.726C128.53 278.322 128.225 278.683 127.811 278.981C127.397 279.275 126.874 279.422 126.242 279.422C125.719 279.422 125.254 279.308 124.847 279.079C124.44 278.847 124.121 278.498 123.888 278.033C123.656 277.565 123.539 276.974 123.539 276.262V270.945H124.825V276.175C124.825 276.786 124.996 277.272 125.337 277.635C125.682 277.999 126.122 278.18 126.656 278.18C126.975 278.18 127.301 278.099 127.631 277.935C127.965 277.772 128.245 277.521 128.47 277.183C128.699 276.845 128.813 276.415 128.813 275.892ZM132.454 279.313V270.945H133.696V272.209H133.783C133.936 271.795 134.212 271.459 134.612 271.201C135.011 270.943 135.462 270.814 135.963 270.814C136.057 270.814 136.175 270.816 136.317 270.82C136.459 270.823 136.566 270.829 136.638 270.836V272.144C136.595 272.133 136.495 272.116 136.339 272.095C136.186 272.069 136.025 272.056 135.854 272.056C135.447 272.056 135.084 272.142 134.764 272.313C134.448 272.48 134.198 272.712 134.012 273.01C133.831 273.304 133.74 273.64 133.74 274.018V279.313H132.454ZM142.652 279.313V268.156H146.422C147.297 268.156 148.013 268.314 148.569 268.63C149.128 268.942 149.542 269.365 149.811 269.899C150.08 270.433 150.214 271.029 150.214 271.686C150.214 272.343 150.08 272.941 149.811 273.478C149.546 274.016 149.135 274.445 148.579 274.764C148.024 275.08 147.312 275.238 146.444 275.238H143.741V274.04H146.4C147 274.04 147.481 273.936 147.844 273.729C148.207 273.522 148.471 273.242 148.634 272.89C148.801 272.534 148.885 272.133 148.885 271.686C148.885 271.239 148.801 270.84 148.634 270.487C148.471 270.135 148.205 269.859 147.839 269.659C147.472 269.456 146.985 269.354 146.378 269.354H144.003V279.313H142.652ZM152.216 279.313V270.945H153.458V272.209H153.546C153.698 271.795 153.974 271.459 154.374 271.201C154.773 270.943 155.224 270.814 155.725 270.814C155.819 270.814 155.937 270.816 156.079 270.82C156.221 270.823 156.328 270.829 156.4 270.836V272.144C156.357 272.133 156.257 272.116 156.101 272.095C155.948 272.069 155.787 272.056 155.616 272.056C155.209 272.056 154.846 272.142 154.526 272.313C154.21 272.48 153.96 272.712 153.774 273.01C153.593 273.304 153.502 273.64 153.502 274.018V279.313H152.216ZM161.07 279.488C160.314 279.488 159.651 279.308 159.081 278.948C158.514 278.589 158.071 278.086 157.752 277.439C157.436 276.793 157.278 276.037 157.278 275.173C157.278 274.301 157.436 273.54 157.752 272.89C158.071 272.24 158.514 271.735 159.081 271.375C159.651 271.016 160.314 270.836 161.07 270.836C161.825 270.836 162.486 271.016 163.053 271.375C163.623 271.735 164.066 272.24 164.382 272.89C164.702 273.54 164.862 274.301 164.862 275.173C164.862 276.037 164.702 276.793 164.382 277.439C164.066 278.086 163.623 278.589 163.053 278.948C162.486 279.308 161.825 279.488 161.07 279.488ZM161.07 278.333C161.643 278.333 162.116 278.186 162.486 277.891C162.857 277.597 163.131 277.21 163.309 276.731C163.487 276.252 163.576 275.732 163.576 275.173C163.576 274.613 163.487 274.092 163.309 273.609C163.131 273.126 162.857 272.736 162.486 272.438C162.116 272.14 161.643 271.991 161.07 271.991C160.496 271.991 160.023 272.14 159.653 272.438C159.283 272.736 159.008 273.126 158.83 273.609C158.652 274.092 158.563 274.613 158.563 275.173C158.563 275.732 158.652 276.252 158.83 276.731C159.008 277.21 159.283 277.597 159.653 277.891C160.023 278.186 160.496 278.333 161.07 278.333ZM166.824 270.945H168.11V279.924C168.11 280.439 168.021 280.886 167.843 281.264C167.669 281.642 167.404 281.934 167.048 282.141C166.695 282.348 166.25 282.452 165.713 282.452C165.669 282.452 165.626 282.452 165.582 282.452C165.538 282.452 165.495 282.452 165.451 282.452V281.253C165.495 281.253 165.535 281.253 165.571 281.253C165.607 281.253 165.647 281.253 165.691 281.253C166.083 281.253 166.37 281.137 166.552 280.904C166.733 280.676 166.824 280.349 166.824 279.924V270.945ZM167.456 269.55C167.206 269.55 166.989 269.465 166.808 269.294C166.63 269.123 166.541 268.918 166.541 268.679C166.541 268.439 166.63 268.234 166.808 268.063C166.989 267.892 167.206 267.807 167.456 267.807C167.707 267.807 167.921 267.892 168.099 268.063C168.281 268.234 168.372 268.439 168.372 268.679C168.372 268.918 168.281 269.123 168.099 269.294C167.921 269.465 167.707 269.55 167.456 269.55ZM173.974 279.488C173.167 279.488 172.472 279.31 171.887 278.954C171.306 278.594 170.857 278.093 170.541 277.45C170.229 276.804 170.073 276.052 170.073 275.195C170.073 274.337 170.229 273.582 170.541 272.928C170.857 272.271 171.297 271.759 171.86 271.392C172.426 271.021 173.087 270.836 173.843 270.836C174.279 270.836 174.709 270.909 175.134 271.054C175.559 271.199 175.946 271.435 176.295 271.762C176.643 272.085 176.921 272.514 177.128 273.048C177.335 273.582 177.439 274.239 177.439 275.02V275.565H170.988V274.454H176.131C176.131 273.981 176.037 273.56 175.848 273.19C175.663 272.819 175.397 272.527 175.052 272.313C174.711 272.098 174.308 271.991 173.843 271.991C173.331 271.991 172.888 272.118 172.514 272.372C172.143 272.623 171.858 272.95 171.658 273.353C171.458 273.756 171.359 274.189 171.359 274.65V275.391C171.359 276.023 171.467 276.558 171.685 276.998C171.907 277.434 172.214 277.766 172.606 277.995C172.998 278.22 173.454 278.333 173.974 278.333C174.311 278.333 174.617 278.286 174.889 278.191C175.165 278.093 175.403 277.948 175.603 277.755C175.802 277.559 175.957 277.316 176.066 277.025L177.308 277.374C177.177 277.795 176.957 278.166 176.649 278.485C176.34 278.801 175.959 279.048 175.505 279.226C175.051 279.401 174.54 279.488 173.974 279.488ZM182.794 279.488C182.01 279.488 181.334 279.303 180.768 278.932C180.201 278.562 179.765 278.051 179.46 277.401C179.155 276.751 179.002 276.008 179.002 275.173C179.002 274.323 179.159 273.573 179.471 272.923C179.787 272.269 180.226 271.759 180.789 271.392C181.356 271.021 182.017 270.836 182.773 270.836C183.361 270.836 183.891 270.945 184.363 271.163C184.836 271.381 185.222 271.686 185.524 272.078C185.825 272.471 186.012 272.928 186.085 273.451H184.799C184.701 273.07 184.483 272.732 184.146 272.438C183.811 272.14 183.361 271.991 182.794 271.991C182.293 271.991 181.854 272.122 181.476 272.383C181.102 272.641 180.809 273.006 180.599 273.478C180.392 273.947 180.288 274.497 180.288 275.129C180.288 275.776 180.39 276.339 180.593 276.818C180.8 277.298 181.091 277.67 181.465 277.935C181.843 278.2 182.286 278.333 182.794 278.333C183.129 278.333 183.432 278.275 183.704 278.158C183.977 278.042 184.207 277.875 184.396 277.657C184.585 277.439 184.719 277.178 184.799 276.873H186.085C186.012 277.367 185.833 277.812 185.546 278.207C185.262 278.6 184.886 278.912 184.418 279.145C183.953 279.373 183.412 279.488 182.794 279.488ZM191.604 270.945V272.035H187.267V270.945H191.604ZM188.531 268.94H189.817V276.916C189.817 277.279 189.87 277.552 189.975 277.733C190.084 277.911 190.222 278.031 190.389 278.093C190.56 278.151 190.74 278.18 190.929 278.18C191.07 278.18 191.186 278.173 191.277 278.158C191.368 278.14 191.441 278.126 191.495 278.115L191.757 279.27C191.669 279.303 191.548 279.335 191.392 279.368C191.235 279.404 191.038 279.422 190.798 279.422C190.435 279.422 190.079 279.344 189.73 279.188C189.385 279.032 189.098 278.794 188.869 278.474C188.644 278.155 188.531 277.752 188.531 277.265V268.94ZM205.655 271.642C205.535 271.276 205.377 270.947 205.181 270.656C204.989 270.362 204.758 270.111 204.489 269.904C204.224 269.697 203.923 269.539 203.585 269.43C203.247 269.321 202.877 269.267 202.473 269.267C201.812 269.267 201.211 269.438 200.67 269.779C200.129 270.121 199.698 270.624 199.379 271.288C199.059 271.953 198.899 272.768 198.899 273.734C198.899 274.701 199.061 275.516 199.384 276.181C199.707 276.845 200.145 277.348 200.697 277.69C201.249 278.031 201.87 278.202 202.561 278.202C203.2 278.202 203.763 278.066 204.249 277.793C204.74 277.517 205.121 277.129 205.394 276.628C205.67 276.123 205.808 275.529 205.808 274.846L206.222 274.933H202.866V273.734H207.115V274.933C207.115 275.852 206.919 276.651 206.527 277.33C206.138 278.01 205.601 278.536 204.914 278.91C204.231 279.281 203.447 279.466 202.561 279.466C201.573 279.466 200.704 279.234 199.956 278.769C199.212 278.304 198.631 277.643 198.213 276.786C197.799 275.928 197.592 274.911 197.592 273.734C197.592 272.852 197.71 272.058 197.946 271.354C198.186 270.645 198.523 270.042 198.959 269.545C199.395 269.047 199.911 268.666 200.507 268.401C201.102 268.136 201.758 268.003 202.473 268.003C203.062 268.003 203.61 268.092 204.119 268.27C204.631 268.444 205.087 268.693 205.486 269.016C205.889 269.336 206.225 269.719 206.494 270.166C206.763 270.609 206.948 271.101 207.05 271.642H205.655ZM212.655 279.488C211.899 279.488 211.236 279.308 210.666 278.948C210.099 278.589 209.656 278.086 209.337 277.439C209.021 276.793 208.863 276.037 208.863 275.173C208.863 274.301 209.021 273.54 209.337 272.89C209.656 272.24 210.099 271.735 210.666 271.375C211.236 271.016 211.899 270.836 212.655 270.836C213.41 270.836 214.071 271.016 214.638 271.375C215.208 271.735 215.651 272.24 215.967 272.89C216.287 273.54 216.447 274.301 216.447 275.173C216.447 276.037 216.287 276.793 215.967 277.439C215.651 278.086 215.208 278.589 214.638 278.948C214.071 279.308 213.41 279.488 212.655 279.488ZM212.655 278.333C213.229 278.333 213.701 278.186 214.071 277.891C214.442 277.597 214.716 277.21 214.894 276.731C215.072 276.252 215.161 275.732 215.161 275.173C215.161 274.613 215.072 274.092 214.894 273.609C214.716 273.126 214.442 272.736 214.071 272.438C213.701 272.14 213.229 271.991 212.655 271.991C212.081 271.991 211.609 272.14 211.238 272.438C210.868 272.736 210.593 273.126 210.415 273.609C210.237 274.092 210.149 274.613 210.149 275.173C210.149 275.732 210.237 276.252 210.415 276.731C210.593 277.21 210.868 277.597 211.238 277.891C211.609 278.186 212.081 278.333 212.655 278.333ZM220.872 279.51C220.342 279.51 219.86 279.41 219.428 279.21C218.996 279.007 218.653 278.714 218.398 278.333C218.144 277.948 218.017 277.483 218.017 276.938C218.017 276.459 218.112 276.07 218.3 275.772C218.489 275.471 218.742 275.235 219.058 275.064C219.374 274.893 219.722 274.766 220.104 274.682C220.489 274.595 220.876 274.526 221.264 274.475C221.773 274.41 222.185 274.361 222.501 274.328C222.821 274.292 223.053 274.232 223.198 274.149C223.347 274.065 223.422 273.92 223.422 273.713V273.669C223.422 273.132 223.275 272.714 222.98 272.416C222.69 272.118 222.249 271.969 221.657 271.969C221.043 271.969 220.561 272.104 220.213 272.372C219.864 272.641 219.619 272.928 219.477 273.233L218.257 272.797C218.475 272.289 218.765 271.893 219.129 271.61C219.495 271.323 219.895 271.123 220.327 271.01C220.763 270.894 221.192 270.836 221.613 270.836C221.882 270.836 222.19 270.869 222.539 270.934C222.891 270.996 223.231 271.125 223.558 271.321C223.888 271.517 224.163 271.813 224.381 272.209C224.599 272.605 224.708 273.135 224.708 273.8V279.313H223.422V278.18H223.356C223.269 278.362 223.124 278.556 222.921 278.763C222.717 278.97 222.447 279.146 222.109 279.292C221.771 279.437 221.359 279.51 220.872 279.51ZM221.068 278.355C221.577 278.355 222.005 278.255 222.354 278.055C222.706 277.855 222.971 277.597 223.149 277.281C223.331 276.965 223.422 276.633 223.422 276.284V275.107C223.367 275.173 223.247 275.233 223.062 275.287C222.881 275.338 222.67 275.383 222.43 275.423C222.194 275.46 221.963 275.492 221.738 275.522C221.517 275.547 221.337 275.569 221.199 275.587C220.865 275.63 220.552 275.701 220.262 275.799C219.975 275.894 219.742 276.037 219.564 276.23C219.39 276.419 219.303 276.677 219.303 277.003C219.303 277.45 219.468 277.788 219.799 278.017C220.133 278.242 220.556 278.355 221.068 278.355ZM228.34 268.156V279.313H227.054V268.156H228.34ZM236.623 272.819L235.468 273.146C235.395 272.954 235.288 272.767 235.146 272.585C235.008 272.4 234.819 272.247 234.58 272.127C234.34 272.007 234.033 271.947 233.659 271.947C233.147 271.947 232.72 272.066 232.379 272.302C232.041 272.534 231.872 272.83 231.872 273.19C231.872 273.509 231.988 273.762 232.221 273.947C232.453 274.132 232.816 274.287 233.31 274.41L234.552 274.715C235.301 274.897 235.858 275.175 236.225 275.549C236.592 275.919 236.775 276.397 236.775 276.982C236.775 277.461 236.637 277.89 236.361 278.267C236.089 278.645 235.707 278.943 235.217 279.161C234.727 279.379 234.157 279.488 233.506 279.488C232.653 279.488 231.946 279.303 231.387 278.932C230.828 278.562 230.474 278.02 230.325 277.309L231.545 277.003C231.661 277.454 231.881 277.792 232.204 278.017C232.531 278.242 232.958 278.355 233.485 278.355C234.084 278.355 234.56 278.227 234.912 277.973C235.268 277.715 235.446 277.407 235.446 277.047C235.446 276.756 235.344 276.513 235.141 276.317C234.937 276.117 234.625 275.968 234.204 275.87L232.809 275.543C232.043 275.362 231.48 275.08 231.12 274.699C230.764 274.314 230.586 273.833 230.586 273.255C230.586 272.783 230.719 272.365 230.984 272.002C231.253 271.639 231.618 271.354 232.079 271.147C232.544 270.94 233.071 270.836 233.659 270.836C234.487 270.836 235.137 271.018 235.609 271.381C236.085 271.744 236.423 272.224 236.623 272.819Z" fill="#FAFAFA"/>
<path d="M254.105 273.902H302.05" stroke="white" stroke-width="0.958888" stroke-linecap="round" stroke-dasharray="1.92 1.92"/>
<rect x="575.333" y="194.314" width="216.709" height="40.2733" rx="20.1366" fill="#333339"/>
<path d="M595.469 220.015C594.648 220.015 593.949 219.791 593.372 219.345C592.794 218.894 592.353 218.242 592.048 217.389C591.743 216.532 591.59 215.496 591.59 214.283C591.59 213.077 591.743 212.048 592.048 211.194C592.356 210.337 592.8 209.683 593.377 209.233C593.958 208.779 594.656 208.552 595.469 208.552C596.283 208.552 596.978 208.779 597.556 209.233C598.137 209.683 598.58 210.337 598.885 211.194C599.194 212.048 599.348 213.077 599.348 214.283C599.348 215.496 599.196 216.532 598.891 217.389C598.586 218.242 598.144 218.894 597.567 219.345C596.989 219.791 596.29 220.015 595.469 220.015ZM595.469 218.816C596.283 218.816 596.915 218.424 597.365 217.639C597.816 216.855 598.041 215.736 598.041 214.283C598.041 213.317 597.937 212.494 597.73 211.815C597.527 211.136 597.233 210.618 596.848 210.263C596.466 209.907 596.007 209.729 595.469 209.729C594.663 209.729 594.033 210.126 593.579 210.922C593.125 211.714 592.898 212.834 592.898 214.283C592.898 215.249 592.999 216.07 593.203 216.746C593.406 217.421 593.699 217.935 594.08 218.288C594.465 218.64 594.928 218.816 595.469 218.816ZM601.157 217.574V216.463L606.061 208.704H606.867V210.426H606.322L602.617 216.288V216.375H609.221V217.574H601.157ZM606.409 219.862V217.236V216.719V208.704H607.695V219.862H606.409ZM611.697 219.949C611.428 219.949 611.197 219.853 611.005 219.661C610.812 219.468 610.716 219.238 610.716 218.969C610.716 218.7 610.812 218.469 611.005 218.277C611.197 218.084 611.428 217.988 611.697 217.988C611.966 217.988 612.196 218.084 612.389 218.277C612.581 218.469 612.677 218.7 612.677 218.969C612.677 219.147 612.632 219.31 612.541 219.459C612.454 219.608 612.336 219.728 612.187 219.819C612.042 219.906 611.878 219.949 611.697 219.949ZM619.474 219.862V208.704H620.825V218.664H626.012V219.862H619.474ZM631.438 220.037C630.632 220.037 629.937 219.859 629.352 219.503C628.771 219.143 628.322 218.642 628.006 217.999C627.694 217.352 627.537 216.601 627.537 215.743C627.537 214.886 627.694 214.131 628.006 213.477C628.322 212.82 628.762 212.307 629.325 211.941C629.891 211.57 630.552 211.385 631.308 211.385C631.744 211.385 632.174 211.458 632.599 211.603C633.024 211.748 633.411 211.984 633.759 212.311C634.108 212.634 634.386 213.063 634.593 213.597C634.8 214.131 634.903 214.788 634.903 215.569V216.114H628.453V215.002H633.596C633.596 214.53 633.501 214.109 633.313 213.738C633.127 213.368 632.862 213.076 632.517 212.861C632.176 212.647 631.773 212.54 631.308 212.54C630.796 212.54 630.352 212.667 629.978 212.921C629.608 213.172 629.323 213.499 629.123 213.902C628.923 214.305 628.823 214.737 628.823 215.199V215.94C628.823 216.572 628.932 217.107 629.15 217.547C629.372 217.983 629.679 218.315 630.071 218.544C630.463 218.769 630.919 218.882 631.438 218.882C631.776 218.882 632.081 218.834 632.354 218.74C632.63 218.642 632.868 218.497 633.067 218.304C633.267 218.108 633.422 217.865 633.531 217.574L634.773 217.923C634.642 218.344 634.422 218.715 634.114 219.034C633.805 219.35 633.423 219.597 632.969 219.775C632.515 219.949 632.005 220.037 631.438 220.037ZM639.322 220.058C638.792 220.058 638.31 219.959 637.878 219.759C637.446 219.555 637.103 219.263 636.849 218.882C636.594 218.497 636.467 218.032 636.467 217.487C636.467 217.007 636.562 216.619 636.75 216.321C636.939 216.019 637.192 215.783 637.508 215.613C637.824 215.442 638.172 215.315 638.554 215.231C638.939 215.144 639.326 215.075 639.714 215.024C640.223 214.959 640.635 214.91 640.951 214.877C641.271 214.841 641.503 214.781 641.648 214.697C641.797 214.614 641.872 214.469 641.872 214.262V214.218C641.872 213.68 641.725 213.263 641.43 212.965C641.14 212.667 640.699 212.518 640.107 212.518C639.493 212.518 639.011 212.652 638.663 212.921C638.314 213.19 638.069 213.477 637.927 213.782L636.707 213.346C636.925 212.838 637.215 212.442 637.579 212.159C637.945 211.872 638.345 211.672 638.777 211.559C639.213 211.443 639.642 211.385 640.063 211.385C640.332 211.385 640.64 211.418 640.989 211.483C641.341 211.545 641.681 211.674 642.008 211.87C642.339 212.066 642.613 212.362 642.831 212.758C643.049 213.154 643.158 213.684 643.158 214.349V219.862H641.872V218.729H641.806C641.719 218.911 641.574 219.105 641.371 219.312C641.167 219.519 640.897 219.695 640.559 219.841C640.221 219.986 639.809 220.058 639.322 220.058ZM639.518 218.903C640.027 218.903 640.455 218.804 640.804 218.604C641.156 218.404 641.421 218.146 641.599 217.83C641.781 217.514 641.872 217.182 641.872 216.833V215.656C641.817 215.722 641.697 215.782 641.512 215.836C641.331 215.887 641.12 215.932 640.88 215.972C640.644 216.009 640.413 216.041 640.188 216.07C639.967 216.096 639.787 216.118 639.649 216.136C639.315 216.179 639.002 216.25 638.712 216.348C638.425 216.443 638.192 216.586 638.014 216.779C637.84 216.967 637.753 217.225 637.753 217.552C637.753 217.999 637.918 218.337 638.249 218.566C638.583 218.791 639.006 218.903 639.518 218.903ZM648.664 220.037C647.967 220.037 647.351 219.86 646.817 219.508C646.283 219.152 645.866 218.651 645.564 218.004C645.263 217.354 645.112 216.586 645.112 215.7C645.112 214.821 645.263 214.058 645.564 213.412C645.866 212.765 646.285 212.266 646.823 211.913C647.36 211.561 647.981 211.385 648.686 211.385C649.231 211.385 649.661 211.476 649.977 211.657C650.297 211.835 650.54 212.039 650.707 212.267C650.878 212.493 651.011 212.678 651.105 212.823H651.214V208.704H652.5V219.862H651.258V218.577H651.105C651.011 218.729 650.876 218.922 650.702 219.154C650.528 219.383 650.279 219.588 649.956 219.77C649.632 219.948 649.202 220.037 648.664 220.037ZM648.839 218.882C649.354 218.882 649.79 218.747 650.146 218.478C650.502 218.206 650.773 217.83 650.958 217.351C651.143 216.868 651.236 216.31 651.236 215.678C651.236 215.053 651.145 214.507 650.963 214.038C650.782 213.566 650.513 213.199 650.157 212.938C649.801 212.672 649.362 212.54 648.839 212.54C648.294 212.54 647.84 212.68 647.477 212.959C647.117 213.235 646.846 213.611 646.665 214.087C646.487 214.559 646.398 215.09 646.398 215.678C646.398 216.274 646.489 216.815 646.67 217.302C646.856 217.785 647.128 218.17 647.488 218.457C647.851 218.74 648.301 218.882 648.839 218.882ZM659.523 219.862V208.704H666.257V209.903H660.874V213.673H665.908V214.872H660.874V218.664H666.344V219.862H659.523ZM669.477 211.494L671.482 214.915L673.486 211.494H674.968L672.266 215.678L674.968 219.862H673.486L671.482 216.615L669.477 219.862H667.995L670.653 215.678L667.995 211.494H669.477ZM680.442 211.494V212.583H676.106V211.494H680.442ZM677.37 209.489H678.655V217.465C678.655 217.828 678.708 218.101 678.813 218.282C678.922 218.46 679.06 218.58 679.228 218.642C679.398 218.7 679.578 218.729 679.767 218.729C679.909 218.729 680.025 218.722 680.116 218.707C680.206 218.689 680.279 218.675 680.334 218.664L680.595 219.819C680.508 219.851 680.386 219.884 680.23 219.917C680.074 219.953 679.876 219.971 679.636 219.971C679.273 219.971 678.917 219.893 678.568 219.737C678.223 219.581 677.936 219.343 677.707 219.023C677.482 218.704 677.37 218.3 677.37 217.814V209.489ZM685.795 220.037C684.989 220.037 684.293 219.859 683.709 219.503C683.128 219.143 682.679 218.642 682.363 217.999C682.051 217.352 681.894 216.601 681.894 215.743C681.894 214.886 682.051 214.131 682.363 213.477C682.679 212.82 683.118 212.307 683.681 211.941C684.248 211.57 684.909 211.385 685.665 211.385C686.1 211.385 686.531 211.458 686.956 211.603C687.381 211.748 687.768 211.984 688.116 212.311C688.465 212.634 688.743 213.063 688.95 213.597C689.157 214.131 689.26 214.788 689.26 215.569V216.114H682.81V215.002H687.953C687.953 214.53 687.858 214.109 687.67 213.738C687.484 213.368 687.219 213.076 686.874 212.861C686.533 212.647 686.13 212.54 685.665 212.54C685.152 212.54 684.709 212.667 684.335 212.921C683.965 213.172 683.68 213.499 683.48 213.902C683.28 214.305 683.18 214.737 683.18 215.199V215.94C683.18 216.572 683.289 217.107 683.507 217.547C683.729 217.983 684.036 218.315 684.428 218.544C684.82 218.769 685.276 218.882 685.795 218.882C686.133 218.882 686.438 218.834 686.711 218.74C686.987 218.642 687.225 218.497 687.424 218.304C687.624 218.108 687.779 217.865 687.887 217.574L689.13 217.923C688.999 218.344 688.779 218.715 688.47 219.034C688.162 219.35 687.78 219.597 687.326 219.775C686.872 219.949 686.362 220.037 685.795 220.037ZM692.502 214.828V219.862H691.216V211.494H692.459V212.801H692.567C692.764 212.376 693.061 212.035 693.461 211.777C693.861 211.516 694.376 211.385 695.008 211.385C695.575 211.385 696.071 211.501 696.496 211.734C696.921 211.962 697.251 212.311 697.487 212.78C697.723 213.245 697.841 213.833 697.841 214.545V219.862H696.556V214.632C696.556 213.975 696.385 213.462 696.043 213.096C695.702 212.725 695.233 212.54 694.638 212.54C694.227 212.54 693.861 212.629 693.537 212.807C693.218 212.985 692.965 213.245 692.78 213.586C692.595 213.927 692.502 214.341 692.502 214.828ZM703.351 220.037C702.654 220.037 702.038 219.86 701.504 219.508C700.97 219.152 700.552 218.651 700.251 218.004C699.949 217.354 699.799 216.586 699.799 215.7C699.799 214.821 699.949 214.058 700.251 213.412C700.552 212.765 700.972 212.266 701.509 211.913C702.047 211.561 702.668 211.385 703.373 211.385C703.918 211.385 704.348 211.476 704.664 211.657C704.984 211.835 705.227 212.039 705.394 212.267C705.565 212.493 705.697 212.678 705.792 212.823H705.901V208.704H707.186V219.862H705.944V218.577H705.792C705.697 218.729 705.563 218.922 705.389 219.154C705.214 219.383 704.965 219.588 704.642 219.77C704.319 219.948 703.888 220.037 703.351 220.037ZM703.525 218.882C704.041 218.882 704.477 218.747 704.833 218.478C705.189 218.206 705.459 217.83 705.645 217.351C705.83 216.868 705.922 216.31 705.922 215.678C705.922 215.053 705.832 214.507 705.65 214.038C705.468 213.566 705.2 213.199 704.844 212.938C704.488 212.672 704.048 212.54 703.525 212.54C702.98 212.54 702.526 212.68 702.163 212.959C701.804 213.235 701.533 213.611 701.351 214.087C701.173 214.559 701.084 215.09 701.084 215.678C701.084 216.274 701.175 216.815 701.357 217.302C701.542 217.785 701.814 218.17 702.174 218.457C702.537 218.74 702.988 218.882 703.525 218.882ZM713.229 220.037C712.422 220.037 711.727 219.859 711.142 219.503C710.561 219.143 710.112 218.642 709.796 217.999C709.484 217.352 709.328 216.601 709.328 215.743C709.328 214.886 709.484 214.131 709.796 213.477C710.112 212.82 710.552 212.307 711.115 211.941C711.681 211.57 712.342 211.385 713.098 211.385C713.534 211.385 713.964 211.458 714.389 211.603C714.814 211.748 715.201 211.984 715.549 212.311C715.898 212.634 716.176 213.063 716.383 213.597C716.59 214.131 716.694 214.788 716.694 215.569V216.114H710.243V215.002H715.386C715.386 214.53 715.292 214.109 715.103 213.738C714.917 213.368 714.652 213.076 714.307 212.861C713.966 212.647 713.563 212.54 713.098 212.54C712.586 212.54 712.143 212.667 711.768 212.921C711.398 213.172 711.113 213.499 710.913 213.902C710.713 214.305 710.613 214.737 710.613 215.199V215.94C710.613 216.572 710.722 217.107 710.94 217.547C711.162 217.983 711.469 218.315 711.861 218.544C712.253 218.769 712.709 218.882 713.229 218.882C713.566 218.882 713.871 218.834 714.144 218.74C714.42 218.642 714.658 218.497 714.858 218.304C715.057 218.108 715.212 217.865 715.321 217.574L716.563 217.923C716.432 218.344 716.212 218.715 715.904 219.034C715.595 219.35 715.213 219.597 714.759 219.775C714.305 219.949 713.795 220.037 713.229 220.037ZM721.809 220.037C721.112 220.037 720.496 219.86 719.963 219.508C719.429 219.152 719.011 218.651 718.709 218.004C718.408 217.354 718.257 216.586 718.257 215.7C718.257 214.821 718.408 214.058 718.709 213.412C719.011 212.765 719.43 212.266 719.968 211.913C720.506 211.561 721.127 211.385 721.831 211.385C722.376 211.385 722.807 211.476 723.123 211.657C723.442 211.835 723.685 212.039 723.853 212.267C724.023 212.493 724.156 212.678 724.25 212.823H724.359V208.704H725.645V219.862H724.403V218.577H724.25C724.156 218.729 724.021 218.922 723.847 219.154C723.673 219.383 723.424 219.588 723.101 219.77C722.777 219.948 722.347 220.037 721.809 220.037ZM721.984 218.882C722.5 218.882 722.935 218.747 723.291 218.478C723.647 218.206 723.918 217.83 724.103 217.351C724.288 216.868 724.381 216.31 724.381 215.678C724.381 215.053 724.29 214.507 724.109 214.038C723.927 213.566 723.658 213.199 723.302 212.938C722.946 212.672 722.507 212.54 721.984 212.54C721.439 212.54 720.985 212.68 720.622 212.959C720.262 213.235 719.992 213.611 719.81 214.087C719.632 214.559 719.543 215.09 719.543 215.678C719.543 216.274 719.634 216.815 719.815 217.302C720.001 217.785 720.273 218.17 720.633 218.457C720.996 218.74 721.446 218.882 721.984 218.882ZM732.058 209.903V208.704H740.426V209.903H736.917V219.862H735.566V209.903H732.058ZM744.632 220.037C743.826 220.037 743.13 219.859 742.545 219.503C741.964 219.143 741.516 218.642 741.2 217.999C740.887 217.352 740.731 216.601 740.731 215.743C740.731 214.886 740.887 214.131 741.2 213.477C741.516 212.82 741.955 212.307 742.518 211.941C743.085 211.57 743.746 211.385 744.501 211.385C744.937 211.385 745.368 211.458 745.793 211.603C746.218 211.748 746.604 211.984 746.953 212.311C747.302 212.634 747.58 213.063 747.787 213.597C747.994 214.131 748.097 214.788 748.097 215.569V216.114H741.646V215.002H746.79C746.79 214.53 746.695 214.109 746.506 213.738C746.321 213.368 746.056 213.076 745.711 212.861C745.369 212.647 744.966 212.54 744.501 212.54C743.989 212.54 743.546 212.667 743.172 212.921C742.801 213.172 742.516 213.499 742.317 213.902C742.117 214.305 742.017 214.737 742.017 215.199V215.94C742.017 216.572 742.126 217.107 742.344 217.547C742.565 217.983 742.872 218.315 743.265 218.544C743.657 218.769 744.113 218.882 744.632 218.882C744.97 218.882 745.275 218.834 745.547 218.74C745.823 218.642 746.061 218.497 746.261 218.304C746.461 218.108 746.615 217.865 746.724 217.574L747.966 217.923C747.836 218.344 747.616 218.715 747.307 219.034C746.998 219.35 746.617 219.597 746.163 219.775C745.709 219.949 745.199 220.037 744.632 220.037ZM752.516 220.058C751.985 220.058 751.504 219.959 751.072 219.759C750.64 219.555 750.296 219.263 750.042 218.882C749.788 218.497 749.661 218.032 749.661 217.487C749.661 217.007 749.755 216.619 749.944 216.321C750.133 216.019 750.385 215.783 750.701 215.613C751.017 215.442 751.366 215.315 751.747 215.231C752.132 215.144 752.519 215.075 752.908 215.024C753.416 214.959 753.829 214.91 754.145 214.877C754.464 214.841 754.697 214.781 754.842 214.697C754.991 214.614 755.065 214.469 755.065 214.262V214.218C755.065 213.68 754.918 213.263 754.624 212.965C754.334 212.667 753.892 212.518 753.3 212.518C752.686 212.518 752.205 212.652 751.856 212.921C751.508 213.19 751.263 213.477 751.121 213.782L749.901 213.346C750.118 212.838 750.409 212.442 750.772 212.159C751.139 211.872 751.539 211.672 751.971 211.559C752.407 211.443 752.835 211.385 753.257 211.385C753.525 211.385 753.834 211.418 754.183 211.483C754.535 211.545 754.875 211.674 755.202 211.87C755.532 212.066 755.806 212.362 756.024 212.758C756.242 213.154 756.351 213.684 756.351 214.349V219.862H755.065V218.729H755C754.913 218.911 754.768 219.105 754.564 219.312C754.361 219.519 754.09 219.695 753.752 219.841C753.415 219.986 753.002 220.058 752.516 220.058ZM752.712 218.903C753.22 218.903 753.649 218.804 753.998 218.604C754.35 218.404 754.615 218.146 754.793 217.83C754.975 217.514 755.065 217.182 755.065 216.833V215.656C755.011 215.722 754.891 215.782 754.706 215.836C754.524 215.887 754.314 215.932 754.074 215.972C753.838 216.009 753.607 216.041 753.382 216.07C753.16 216.096 752.981 216.118 752.843 216.136C752.508 216.179 752.196 216.25 751.905 216.348C751.619 216.443 751.386 216.586 751.208 216.779C751.034 216.967 750.947 217.225 750.947 217.552C750.947 217.999 751.112 218.337 751.442 218.566C751.777 218.791 752.2 218.903 752.712 218.903ZM758.698 219.862V211.494H759.94V212.801H760.049C760.224 212.355 760.505 212.008 760.894 211.761C761.282 211.51 761.749 211.385 762.294 211.385C762.846 211.385 763.305 211.51 763.672 211.761C764.043 212.008 764.332 212.355 764.539 212.801H764.626C764.84 212.369 765.161 212.026 765.59 211.772C766.019 211.514 766.533 211.385 767.132 211.385C767.88 211.385 768.492 211.619 768.968 212.088C769.444 212.553 769.682 213.277 769.682 214.262V219.862H768.396V214.262C768.396 213.644 768.227 213.203 767.889 212.938C767.551 212.672 767.154 212.54 766.696 212.54C766.108 212.54 765.652 212.718 765.329 213.074C765.005 213.426 764.844 213.873 764.844 214.414V219.862H763.536V214.131C763.536 213.655 763.382 213.272 763.073 212.981C762.764 212.687 762.367 212.54 761.88 212.54C761.546 212.54 761.233 212.629 760.943 212.807C760.656 212.985 760.423 213.232 760.245 213.548C760.071 213.86 759.984 214.222 759.984 214.632V219.862H758.698Z" fill="#FAFAFA"/>
<path d="M302.057 218.766V210.136L395.548 239.862L489.999 210.136L489.04 218.766L395.548 249.93L302.057 218.766Z" fill="#CECECE" fill-opacity="0.95"/>
<path d="M395.548 178.972L302.057 210.136C301.29 210.393 364.225 230.38 395.548 240.341L489.999 210.136L395.548 178.972Z" fill="#D9D9D9"/>
<path d="M489.992 214.451H575.333" stroke="white" stroke-width="0.958888" stroke-linecap="round" stroke-dasharray="1.92 1.92"/>
<rect y="134.864" width="165.888" height="40.2733" rx="20.1366" fill="#31A5DD"/>
<path d="M20.1362 160.564C19.3154 160.564 18.6162 160.341 18.0387 159.894C17.4612 159.443 17.0199 158.791 16.7147 157.938C16.4096 157.081 16.2571 156.046 16.2571 154.832C16.2571 153.627 16.4096 152.597 16.7147 151.743C17.0235 150.886 17.4666 150.232 18.0441 149.782C18.6253 149.328 19.3226 149.101 20.1362 149.101C20.9498 149.101 21.6454 149.328 22.2229 149.782C22.804 150.232 23.2472 150.886 23.5523 151.743C23.861 152.597 24.0154 153.627 24.0154 154.832C24.0154 156.046 23.8628 157.081 23.5577 157.938C23.2526 158.791 22.8113 159.443 22.2338 159.894C21.6563 160.341 20.9571 160.564 20.1362 160.564ZM20.1362 159.365C20.9498 159.365 21.5818 158.973 22.0322 158.189C22.4826 157.404 22.7078 156.285 22.7078 154.832C22.7078 153.866 22.6043 153.044 22.3972 152.364C22.1938 151.685 21.8996 151.168 21.5146 150.812C21.1333 150.456 20.6738 150.278 20.1362 150.278C19.3299 150.278 18.6997 150.675 18.2457 151.471C17.7917 152.263 17.5647 153.383 17.5647 154.832C17.5647 155.799 17.6664 156.619 17.8698 157.295C18.0732 157.971 18.3656 158.485 18.7469 158.837C19.1319 159.189 19.595 159.365 20.1362 159.365ZM29.8559 160.564C29.1367 160.564 28.4956 160.44 27.9326 160.193C27.3733 159.946 26.9284 159.603 26.5978 159.164C26.2709 158.721 26.093 158.207 26.0639 157.622H27.4369C27.4659 157.981 27.5894 158.292 27.8073 158.554C28.0253 158.811 28.3104 159.011 28.6627 159.153C29.015 159.294 29.4055 159.365 29.8341 159.365C30.3135 159.365 30.7385 159.282 31.109 159.115C31.4794 158.948 31.77 158.715 31.9807 158.417C32.1913 158.119 32.2967 157.774 32.2967 157.382C32.2967 156.972 32.195 156.61 31.9916 156.298C31.7882 155.982 31.4903 155.735 31.0981 155.557C30.7058 155.379 30.2263 155.29 29.6597 155.29H28.7662V154.091H29.6597C30.1029 154.091 30.4915 154.012 30.8257 153.852C31.1634 153.692 31.4268 153.467 31.6156 153.176C31.8081 152.886 31.9044 152.544 31.9044 152.152C31.9044 151.774 31.8209 151.445 31.6538 151.166C31.4867 150.886 31.2506 150.668 30.9455 150.512C30.644 150.356 30.2881 150.278 29.8777 150.278C29.4927 150.278 29.1294 150.349 28.788 150.49C28.4502 150.628 28.1742 150.83 27.9599 151.095C27.7456 151.356 27.6294 151.672 27.6112 152.043H26.3036C26.3254 151.458 26.5016 150.946 26.8321 150.507C27.1626 150.063 27.5949 149.718 28.1288 149.471C28.6663 149.224 29.2566 149.101 29.8995 149.101C30.5896 149.101 31.1816 149.241 31.6756 149.52C32.1695 149.796 32.5491 150.161 32.8143 150.615C33.0794 151.069 33.212 151.56 33.212 152.086C33.212 152.715 33.0467 153.251 32.7162 153.694C32.3893 154.137 31.9444 154.444 31.3814 154.614V154.702C32.086 154.818 32.6363 155.118 33.0322 155.601C33.4281 156.08 33.626 156.674 33.626 157.382C33.626 157.989 33.4608 158.534 33.1303 159.017C32.8034 159.496 32.3566 159.874 31.79 160.15C31.2234 160.426 30.5787 160.564 29.8559 160.564ZM36.4686 160.499C36.1999 160.499 35.9692 160.402 35.7767 160.21C35.5842 160.017 35.488 159.787 35.488 159.518C35.488 159.249 35.5842 159.018 35.7767 158.826C35.9692 158.633 36.1999 158.537 36.4686 158.537C36.7374 158.537 36.9681 158.633 37.1606 158.826C37.3531 159.018 37.4493 159.249 37.4493 159.518C37.4493 159.696 37.4039 159.859 37.3131 160.008C37.226 160.157 37.1079 160.277 36.959 160.368C36.8137 160.455 36.6503 160.499 36.4686 160.499ZM53.6605 154.832C53.6605 156.009 53.448 157.026 53.0231 157.883C52.5981 158.741 52.0152 159.402 51.2742 159.867C50.5332 160.331 49.687 160.564 48.7353 160.564C47.7837 160.564 46.9374 160.331 46.1965 159.867C45.4555 159.402 44.8725 158.741 44.4476 157.883C44.0226 157.026 43.8101 156.009 43.8101 154.832C43.8101 153.656 44.0226 152.639 44.4476 151.781C44.8725 150.924 45.4555 150.263 46.1965 149.798C46.9374 149.333 47.7837 149.101 48.7353 149.101C49.687 149.101 50.5332 149.333 51.2742 149.798C52.0152 150.263 52.5981 150.924 53.0231 151.781C53.448 152.639 53.6605 153.656 53.6605 154.832ZM52.3529 154.832C52.3529 153.866 52.1913 153.051 51.8681 152.386C51.5484 151.721 51.1144 151.218 50.5659 150.877C50.0211 150.536 49.4109 150.365 48.7353 150.365C48.0597 150.365 47.4477 150.536 46.8993 150.877C46.3545 151.218 45.9204 151.721 45.5972 152.386C45.2775 153.051 45.1177 153.866 45.1177 154.832C45.1177 155.799 45.2775 156.614 45.5972 157.279C45.9204 157.943 46.3545 158.446 46.8993 158.788C47.4477 159.129 48.0597 159.3 48.7353 159.3C49.4109 159.3 50.0211 159.129 50.5659 158.788C51.1144 158.446 51.5484 157.943 51.8681 157.279C52.1913 156.614 52.3529 155.799 52.3529 154.832ZM57.0439 155.377V160.411H55.7581V152.043H57.0003V153.35H57.1092C57.3054 152.926 57.6032 152.584 58.0028 152.326C58.4023 152.065 58.9181 151.934 59.5501 151.934C60.1167 151.934 60.6125 152.05 61.0374 152.283C61.4624 152.511 61.7929 152.86 62.029 153.329C62.2651 153.794 62.3831 154.382 62.3831 155.094V160.411H61.0973V155.181C61.0973 154.524 60.9266 154.012 60.5852 153.645C60.2438 153.274 59.7752 153.089 59.1796 153.089C58.7691 153.089 58.4023 153.178 58.079 153.356C57.7594 153.534 57.507 153.794 57.3217 154.135C57.1365 154.476 57.0439 154.891 57.0439 155.377ZM64.907 160.411V149.253H66.1928V153.372H66.3018C66.3962 153.227 66.527 153.042 66.694 152.817C66.8647 152.588 67.1081 152.384 67.4241 152.206C67.7437 152.025 68.176 151.934 68.7208 151.934C69.4254 151.934 70.0465 152.11 70.5841 152.462C71.1216 152.815 71.5411 153.314 71.8426 153.961C72.1441 154.607 72.2948 155.37 72.2948 156.249C72.2948 157.135 72.1441 157.903 71.8426 158.554C71.5411 159.2 71.1234 159.701 70.5895 160.057C70.0556 160.41 69.4399 160.586 68.7426 160.586C68.205 160.586 67.7746 160.497 67.4513 160.319C67.1281 160.137 66.8793 159.932 66.7049 159.703C66.5306 159.471 66.3962 159.278 66.3018 159.126H66.1492V160.411H64.907ZM66.171 156.227C66.171 156.859 66.2636 157.417 66.4489 157.9C66.6341 158.379 66.9047 158.755 67.2607 159.028C67.6166 159.296 68.0525 159.431 68.5682 159.431C69.1058 159.431 69.5544 159.289 69.9139 159.006C70.2772 158.719 70.5496 158.334 70.7312 157.851C70.9164 157.364 71.009 156.823 71.009 156.227C71.009 155.639 70.9182 155.108 70.7366 154.636C70.5586 154.16 70.288 153.785 69.9248 153.508C69.5653 153.229 69.113 153.089 68.5682 153.089C68.0452 153.089 67.6057 153.222 67.2498 153.487C66.8938 153.748 66.625 154.115 66.4434 154.587C66.2618 155.056 66.171 155.602 66.171 156.227ZM77.6613 160.586C76.9058 160.586 76.243 160.406 75.6727 160.046C75.1061 159.687 74.663 159.184 74.3433 158.537C74.0273 157.891 73.8693 157.135 73.8693 156.271C73.8693 155.399 74.0273 154.638 74.3433 153.988C74.663 153.338 75.1061 152.833 75.6727 152.473C76.243 152.114 76.9058 151.934 77.6613 151.934C78.4168 151.934 79.0779 152.114 79.6445 152.473C80.2147 152.833 80.6578 153.338 80.9738 153.988C81.2935 154.638 81.4533 155.399 81.4533 156.271C81.4533 157.135 81.2935 157.891 80.9738 158.537C80.6578 159.184 80.2147 159.687 79.6445 160.046C79.0779 160.406 78.4168 160.586 77.6613 160.586ZM77.6613 159.431C78.2352 159.431 78.7074 159.284 79.0779 158.989C79.4483 158.695 79.7226 158.308 79.9005 157.829C80.0785 157.349 80.1675 156.83 80.1675 156.271C80.1675 155.711 80.0785 155.19 79.9005 154.707C79.7226 154.224 79.4483 153.834 79.0779 153.536C78.7074 153.238 78.2352 153.089 77.6613 153.089C77.0874 153.089 76.6153 153.238 76.2448 153.536C75.8743 153.834 75.6001 154.224 75.4221 154.707C75.2441 155.19 75.1551 155.711 75.1551 156.271C75.1551 156.83 75.2441 157.349 75.4221 157.829C75.6001 158.308 75.8743 158.695 76.2448 158.989C76.6153 159.284 77.0874 159.431 77.6613 159.431ZM85.8786 160.608C85.3483 160.608 84.867 160.508 84.4348 160.308C84.0026 160.104 83.6594 159.812 83.4051 159.431C83.1509 159.046 83.0237 158.581 83.0237 158.036C83.0237 157.557 83.1182 157.168 83.307 156.87C83.4959 156.569 83.7483 156.332 84.0643 156.162C84.3803 155.991 84.729 155.864 85.1104 155.78C85.4954 155.693 85.8822 155.624 86.2709 155.573C86.7794 155.508 87.1916 155.459 87.5076 155.426C87.8272 155.39 88.0597 155.33 88.205 155.246C88.3539 155.163 88.4284 155.018 88.4284 154.811V154.767C88.4284 154.229 88.2813 153.812 87.9871 153.514C87.6965 153.216 87.2552 153.067 86.6631 153.067C86.0493 153.067 85.568 153.202 85.2194 153.47C84.8707 153.739 84.6255 154.026 84.4839 154.331L83.2634 153.895C83.4814 153.387 83.7719 152.991 84.1352 152.708C84.502 152.421 84.9015 152.221 85.3338 152.108C85.7696 151.992 86.1982 151.934 86.6196 151.934C86.8883 151.934 87.1971 151.967 87.5458 152.032C87.8981 152.094 88.2377 152.223 88.5646 152.419C88.8951 152.615 89.1693 152.911 89.3873 153.307C89.6052 153.703 89.7141 154.233 89.7141 154.898V160.411H88.4284V159.278H88.363C88.2758 159.46 88.1305 159.654 87.9271 159.861C87.7237 160.068 87.4531 160.244 87.1153 160.39C86.7776 160.535 86.3653 160.608 85.8786 160.608ZM86.0747 159.452C86.5832 159.452 87.0118 159.353 87.3605 159.153C87.7128 158.953 87.978 158.695 88.156 158.379C88.3376 158.063 88.4284 157.731 88.4284 157.382V156.205C88.3739 156.271 88.254 156.331 88.0688 156.385C87.8872 156.436 87.6765 156.481 87.4368 156.521C87.2007 156.558 86.9701 156.59 86.7449 156.619C86.5233 156.645 86.3435 156.667 86.2055 156.685C85.8713 156.728 85.559 156.799 85.2684 156.897C84.9815 156.992 84.749 157.135 84.571 157.328C84.3967 157.517 84.3095 157.774 84.3095 158.101C84.3095 158.548 84.4748 158.886 84.8053 159.115C85.1395 159.34 85.5626 159.452 86.0747 159.452ZM92.061 160.411V152.043H93.3032V153.307H93.3903C93.5429 152.893 93.8189 152.557 94.2185 152.299C94.618 152.041 95.0684 151.912 95.5696 151.912C95.6641 151.912 95.7821 151.914 95.9238 151.918C96.0654 151.921 96.1726 151.927 96.2452 151.934V153.242C96.2016 153.231 96.1017 153.214 95.9456 153.192C95.793 153.167 95.6314 153.154 95.4607 153.154C95.0539 153.154 94.6906 153.24 94.371 153.41C94.055 153.577 93.8044 153.81 93.6192 154.108C93.4376 154.402 93.3468 154.738 93.3468 155.116V160.411H92.061ZM100.675 160.586C99.9772 160.586 99.3616 160.41 98.8277 160.057C98.2937 159.701 97.876 159.2 97.5746 158.554C97.2731 157.903 97.1224 157.135 97.1224 156.249C97.1224 155.37 97.2731 154.607 97.5746 153.961C97.876 153.314 98.2956 152.815 98.8331 152.462C99.3707 152.11 99.9918 151.934 100.696 151.934C101.241 151.934 101.672 152.025 101.988 152.206C102.307 152.384 102.551 152.588 102.718 152.817C102.888 153.042 103.021 153.227 103.115 153.372H103.224V149.253H104.51V160.411H103.268V159.126H103.115C103.021 159.278 102.887 159.471 102.712 159.703C102.538 159.932 102.289 160.137 101.966 160.319C101.643 160.497 101.212 160.586 100.675 160.586ZM100.849 159.431C101.365 159.431 101.801 159.296 102.157 159.028C102.512 158.755 102.783 158.379 102.968 157.9C103.154 157.417 103.246 156.859 103.246 156.227C103.246 155.602 103.155 155.056 102.974 154.587C102.792 154.115 102.523 153.748 102.167 153.487C101.811 153.222 101.372 153.089 100.849 153.089C100.304 153.089 99.8501 153.229 99.4869 153.508C99.1273 153.785 98.8567 154.16 98.6751 154.636C98.4971 155.108 98.4082 155.639 98.4082 156.227C98.4082 156.823 98.499 157.364 98.6806 157.851C98.8658 158.334 99.1382 158.719 99.4978 159.006C99.861 159.289 100.311 159.431 100.849 159.431ZM110.923 150.452V149.253H119.291V150.452H115.783V160.411H114.431V150.452H110.923ZM123.497 160.586C122.691 160.586 121.995 160.408 121.411 160.052C120.829 159.692 120.381 159.191 120.065 158.548C119.752 157.902 119.596 157.15 119.596 156.293C119.596 155.435 119.752 154.68 120.065 154.026C120.381 153.369 120.82 152.857 121.383 152.49C121.95 152.119 122.611 151.934 123.366 151.934C123.802 151.934 124.233 152.007 124.658 152.152C125.083 152.297 125.469 152.533 125.818 152.86C126.167 153.183 126.445 153.612 126.652 154.146C126.859 154.68 126.962 155.337 126.962 156.118V156.663H120.512V155.552H125.655C125.655 155.079 125.56 154.658 125.371 154.288C125.186 153.917 124.921 153.625 124.576 153.41C124.235 153.196 123.831 153.089 123.366 153.089C122.854 153.089 122.411 153.216 122.037 153.47C121.667 153.721 121.381 154.048 121.182 154.451C120.982 154.854 120.882 155.286 120.882 155.748V156.489C120.882 157.121 120.991 157.656 121.209 158.096C121.431 158.532 121.737 158.864 122.13 159.093C122.522 159.318 122.978 159.431 123.497 159.431C123.835 159.431 124.14 159.383 124.413 159.289C124.689 159.191 124.926 159.046 125.126 158.853C125.326 158.657 125.48 158.414 125.589 158.123L126.832 158.472C126.701 158.893 126.481 159.264 126.172 159.583C125.864 159.899 125.482 160.146 125.028 160.324C124.574 160.499 124.064 160.586 123.497 160.586ZM131.381 160.608C130.851 160.608 130.369 160.508 129.937 160.308C129.505 160.104 129.162 159.812 128.907 159.431C128.653 159.046 128.526 158.581 128.526 158.036C128.526 157.557 128.62 157.168 128.809 156.87C128.998 156.569 129.251 156.332 129.567 156.162C129.883 155.991 130.231 155.864 130.613 155.78C130.998 155.693 131.384 155.624 131.773 155.573C132.282 155.508 132.694 155.459 133.01 155.426C133.329 155.39 133.562 155.33 133.707 155.246C133.856 155.163 133.931 155.018 133.931 154.811V154.767C133.931 154.229 133.783 153.812 133.489 153.514C133.199 153.216 132.757 153.067 132.165 153.067C131.552 153.067 131.07 153.202 130.722 153.47C130.373 153.739 130.128 154.026 129.986 154.331L128.766 153.895C128.984 153.387 129.274 152.991 129.637 152.708C130.004 152.421 130.404 152.221 130.836 152.108C131.272 151.992 131.7 151.934 132.122 151.934C132.391 151.934 132.699 151.967 133.048 152.032C133.4 152.094 133.74 152.223 134.067 152.419C134.397 152.615 134.672 152.911 134.889 153.307C135.107 153.703 135.216 154.233 135.216 154.898V160.411H133.931V159.278H133.865C133.778 159.46 133.633 159.654 133.429 159.861C133.226 160.068 132.955 160.244 132.618 160.39C132.28 160.535 131.868 160.608 131.381 160.608ZM131.577 159.452C132.085 159.452 132.514 159.353 132.863 159.153C133.215 158.953 133.48 158.695 133.658 158.379C133.84 158.063 133.931 157.731 133.931 157.382V156.205C133.876 156.271 133.756 156.331 133.571 156.385C133.389 156.436 133.179 156.481 132.939 156.521C132.703 156.558 132.472 156.59 132.247 156.619C132.026 156.645 131.846 156.667 131.708 156.685C131.374 156.728 131.061 156.799 130.771 156.897C130.484 156.992 130.251 157.135 130.073 157.328C129.899 157.517 129.812 157.774 129.812 158.101C129.812 158.548 129.977 158.886 130.308 159.115C130.642 159.34 131.065 159.452 131.577 159.452ZM137.563 160.411V152.043H138.805V153.35H138.914C139.089 152.904 139.37 152.557 139.759 152.31C140.147 152.059 140.614 151.934 141.159 151.934C141.711 151.934 142.171 152.059 142.537 152.31C142.908 152.557 143.197 152.904 143.404 153.35H143.491C143.705 152.918 144.027 152.575 144.455 152.321C144.884 152.063 145.398 151.934 145.997 151.934C146.745 151.934 147.357 152.168 147.833 152.637C148.309 153.102 148.547 153.826 148.547 154.811V160.411H147.261V154.811C147.261 154.193 147.092 153.752 146.754 153.487C146.417 153.222 146.019 153.089 145.561 153.089C144.973 153.089 144.517 153.267 144.194 153.623C143.87 153.975 143.709 154.422 143.709 154.963V160.411H142.401V154.68C142.401 154.204 142.247 153.821 141.938 153.53C141.629 153.236 141.232 153.089 140.745 153.089C140.411 153.089 140.098 153.178 139.808 153.356C139.521 153.534 139.288 153.781 139.11 154.097C138.936 154.409 138.849 154.771 138.849 155.181V160.411H137.563Z" fill="#FAFAFA"/>
<path d="M303.016 159.315V150.685L396.507 180.411L490.958 150.685L489.999 159.315L396.507 190.479L303.016 159.315Z" fill="#1885B9"/>
<path d="M396.507 119.521L303.016 150.685C302.249 150.942 365.184 170.929 396.507 180.89L490.958 150.685L396.507 119.521Z" fill="#31A5DD"/>
<path d="M165.888 155L302.05 155" stroke="white" stroke-width="0.958888" stroke-linecap="round" stroke-dasharray="1.92 1.92"/>
<rect x="635.743" y="76.3711" width="157.258" height="40.2733" rx="20.1366" fill="#333339"/>
<path d="M655.879 103.03C655.059 103.03 654.359 102.807 653.782 102.36C653.204 101.91 652.763 101.258 652.458 100.404C652.153 99.547 652 98.5118 652 97.2987C652 96.0928 652.153 95.0631 652.458 94.2096C652.767 93.3524 653.21 92.6986 653.787 92.2482C654.368 91.7942 655.066 91.5672 655.879 91.5672C656.693 91.5672 657.389 91.7942 657.966 92.2482C658.547 92.6986 658.99 93.3524 659.295 94.2096C659.604 95.0631 659.759 96.0928 659.759 97.2987C659.759 98.5118 659.606 99.547 659.301 100.404C658.996 101.258 658.554 101.91 657.977 102.36C657.399 102.807 656.7 103.03 655.879 103.03ZM655.879 101.832C656.693 101.832 657.325 101.439 657.775 100.655C658.226 99.8703 658.451 98.7516 658.451 97.2987C658.451 96.3326 658.347 95.5099 658.14 94.8307C657.937 94.1514 657.643 93.6339 657.258 93.2779C656.876 92.922 656.417 92.744 655.879 92.744C655.073 92.744 654.443 93.1417 653.989 93.9371C653.535 94.729 653.308 95.8495 653.308 97.2987C653.308 98.2649 653.41 99.0857 653.613 99.7613C653.816 100.437 654.109 100.951 654.49 101.303C654.875 101.655 655.338 101.832 655.879 101.832ZM661.829 102.878V101.897L665.512 97.8653C665.944 97.3931 666.3 96.9827 666.58 96.634C666.859 96.2817 667.066 95.9512 667.201 95.6424C667.339 95.3301 667.408 95.0032 667.408 94.6618C667.408 94.2695 667.313 93.9299 667.125 93.6429C666.939 93.356 666.685 93.1344 666.362 92.9783C666.039 92.8221 665.675 92.744 665.272 92.744C664.844 92.744 664.469 92.833 664.15 93.011C663.834 93.1853 663.589 93.4305 663.414 93.7465C663.244 94.0625 663.158 94.4329 663.158 94.8579H661.872C661.872 94.2041 662.023 93.6302 662.325 93.1363C662.626 92.6423 663.037 92.2573 663.556 91.9812C664.079 91.7052 664.666 91.5672 665.316 91.5672C665.97 91.5672 666.549 91.7052 667.054 91.9812C667.559 92.2573 667.954 92.6296 668.241 93.0981C668.528 93.5667 668.672 94.0879 668.672 94.6618C668.672 95.0722 668.597 95.4735 668.448 95.8658C668.303 96.2545 668.049 96.6885 667.686 97.1679C667.326 97.6438 666.827 98.2249 666.187 98.9114L663.681 101.592V101.679H668.868V102.878H661.829ZM672.077 102.965C671.808 102.965 671.578 102.869 671.385 102.676C671.193 102.484 671.096 102.253 671.096 101.984C671.096 101.715 671.193 101.485 671.385 101.292C671.578 101.1 671.808 101.003 672.077 101.003C672.346 101.003 672.576 101.1 672.769 101.292C672.961 101.485 673.058 101.715 673.058 101.984C673.058 102.162 673.012 102.326 672.921 102.475C672.834 102.623 672.716 102.743 672.567 102.834C672.422 102.921 672.259 102.965 672.077 102.965ZM688.833 95.2066H687.482C687.402 94.8179 687.262 94.4765 687.062 94.1823C686.866 93.8881 686.626 93.6411 686.343 93.4414C686.063 93.238 685.753 93.0854 685.411 92.9837C685.07 92.882 684.714 92.8312 684.344 92.8312C683.668 92.8312 683.056 93.0019 682.508 93.3433C681.963 93.6847 681.529 94.1878 681.205 94.8525C680.886 95.5171 680.726 96.3326 680.726 97.2987C680.726 98.2649 680.886 99.0803 681.205 99.745C681.529 100.41 681.963 100.913 682.508 101.254C683.056 101.596 683.668 101.766 684.344 101.766C684.714 101.766 685.07 101.715 685.411 101.614C685.753 101.512 686.063 101.361 686.343 101.161C686.626 100.958 686.866 100.709 687.062 100.415C687.262 100.117 687.402 99.7758 687.482 99.3908H688.833C688.731 99.9611 688.546 100.471 688.277 100.922C688.008 101.372 687.674 101.755 687.275 102.071C686.875 102.384 686.427 102.622 685.929 102.785C685.435 102.949 684.907 103.03 684.344 103.03C683.392 103.03 682.546 102.798 681.805 102.333C681.064 101.868 680.481 101.207 680.056 100.35C679.631 99.4925 679.418 98.4755 679.418 97.2987C679.418 96.1219 679.631 95.1049 680.056 94.2477C680.481 93.3905 681.064 92.7295 681.805 92.2645C682.546 91.7996 683.392 91.5672 684.344 91.5672C684.907 91.5672 685.435 91.6489 685.929 91.8123C686.427 91.9758 686.875 92.2155 687.275 92.5315C687.674 92.8439 688.008 93.2252 688.277 93.6756C688.546 94.1224 688.731 94.6327 688.833 95.2066ZM692.128 97.8435V102.878H690.842V91.7197H692.128V95.8168H692.237C692.433 95.3846 692.727 95.0413 693.119 94.7871C693.515 94.5292 694.042 94.4002 694.699 94.4002C695.27 94.4002 695.769 94.5147 696.198 94.7435C696.626 94.9687 696.959 95.3155 697.195 95.7841C697.434 96.249 697.554 96.8411 697.554 97.5602V102.878H696.268V97.6474C696.268 96.9827 696.096 96.4688 695.751 96.1055C695.409 95.7387 694.935 95.5553 694.329 95.5553C693.908 95.5553 693.53 95.6443 693.196 95.8222C692.865 96.0002 692.604 96.2599 692.411 96.6013C692.222 96.9428 692.128 97.3568 692.128 97.8435ZM703.306 103.052C702.551 103.052 701.888 102.872 701.318 102.513C700.751 102.153 700.308 101.65 699.988 101.003C699.672 100.357 699.514 99.6015 699.514 98.737C699.514 97.8653 699.672 97.1044 699.988 96.4542C700.308 95.8041 700.751 95.2992 701.318 94.9396C701.888 94.58 702.551 94.4002 703.306 94.4002C704.062 94.4002 704.723 94.58 705.289 94.9396C705.86 95.2992 706.303 95.8041 706.619 96.4542C706.938 97.1044 707.098 97.8653 707.098 98.737C707.098 99.6015 706.938 100.357 706.619 101.003C706.303 101.65 705.86 102.153 705.289 102.513C704.723 102.872 704.062 103.052 703.306 103.052ZM703.306 101.897C703.88 101.897 704.352 101.75 704.723 101.456C705.093 101.161 705.367 100.775 705.545 100.295C705.723 99.8158 705.812 99.2964 705.812 98.737C705.812 98.1777 705.723 97.6565 705.545 97.1734C705.367 96.6903 705.093 96.2999 704.723 96.002C704.352 95.7042 703.88 95.5553 703.306 95.5553C702.732 95.5553 702.26 95.7042 701.89 96.002C701.519 96.2999 701.245 96.6903 701.067 97.1734C700.889 97.6565 700.8 98.1777 700.8 98.737C700.8 99.2964 700.889 99.8158 701.067 100.295C701.245 100.775 701.519 101.161 701.89 101.456C702.26 101.75 702.732 101.897 703.306 101.897ZM712.461 103.052C711.705 103.052 711.042 102.872 710.472 102.513C709.905 102.153 709.462 101.65 709.143 101.003C708.827 100.357 708.669 99.6015 708.669 98.737C708.669 97.8653 708.827 97.1044 709.143 96.4542C709.462 95.8041 709.905 95.2992 710.472 94.9396C711.042 94.58 711.705 94.4002 712.461 94.4002C713.216 94.4002 713.877 94.58 714.444 94.9396C715.014 95.2992 715.457 95.8041 715.773 96.4542C716.093 97.1044 716.253 97.8653 716.253 98.737C716.253 99.6015 716.093 100.357 715.773 101.003C715.457 101.65 715.014 102.153 714.444 102.513C713.877 102.872 713.216 103.052 712.461 103.052ZM712.461 101.897C713.034 101.897 713.507 101.75 713.877 101.456C714.248 101.161 714.522 100.775 714.7 100.295C714.878 99.8158 714.967 99.2964 714.967 98.737C714.967 98.1777 714.878 97.6565 714.7 97.1734C714.522 96.6903 714.248 96.2999 713.877 96.002C713.507 95.7042 713.034 95.5553 712.461 95.5553C711.887 95.5553 711.415 95.7042 711.044 96.002C710.674 96.2999 710.399 96.6903 710.221 97.1734C710.043 97.6565 709.954 98.1777 709.954 98.737C709.954 99.2964 710.043 99.8158 710.221 100.295C710.399 100.775 710.674 101.161 711.044 101.456C711.415 101.75 711.887 101.897 712.461 101.897ZM724.143 96.3834L722.988 96.7103C722.915 96.5178 722.808 96.3307 722.666 96.1491C722.528 95.9639 722.34 95.8113 722.1 95.6915C721.86 95.5716 721.553 95.5117 721.179 95.5117C720.667 95.5117 720.24 95.6297 719.899 95.8658C719.561 96.0983 719.392 96.3943 719.392 96.7539C719.392 97.0735 719.508 97.3259 719.741 97.5112C719.973 97.6964 720.336 97.8508 720.83 97.9743L722.073 98.2794C722.821 98.461 723.378 98.7389 723.745 99.113C724.112 99.4834 724.295 99.9611 724.295 100.546C724.295 101.025 724.157 101.454 723.881 101.832C723.609 102.209 723.228 102.507 722.737 102.725C722.247 102.943 721.677 103.052 721.027 103.052C720.173 103.052 719.467 102.867 718.907 102.496C718.348 102.126 717.994 101.585 717.845 100.873L719.065 100.568C719.181 101.018 719.401 101.356 719.724 101.581C720.051 101.806 720.478 101.919 721.005 101.919C721.604 101.919 722.08 101.792 722.432 101.537C722.788 101.28 722.966 100.971 722.966 100.611C722.966 100.321 722.864 100.077 722.661 99.8812C722.458 99.6814 722.145 99.5325 721.724 99.4344L720.329 99.1075C719.563 98.9259 719 98.6444 718.64 98.263C718.284 97.878 718.106 97.3968 718.106 96.8193C718.106 96.3471 718.239 95.9294 718.504 95.5662C718.773 95.203 719.138 94.9178 719.599 94.7108C720.064 94.5038 720.591 94.4002 721.179 94.4002C722.007 94.4002 722.657 94.5819 723.13 94.9451C723.605 95.3083 723.943 95.7877 724.143 96.3834ZM729.74 103.052C728.933 103.052 728.238 102.874 727.653 102.518C727.072 102.159 726.623 101.657 726.307 101.014C725.995 100.368 725.839 99.616 725.839 98.7588C725.839 97.9016 725.995 97.1462 726.307 96.4924C726.623 95.8349 727.063 95.3228 727.626 94.956C728.192 94.5855 728.853 94.4002 729.609 94.4002C730.045 94.4002 730.475 94.4729 730.9 94.6182C731.325 94.7635 731.712 94.9996 732.061 95.3264C732.409 95.6497 732.687 96.0783 732.894 96.6122C733.101 97.1462 733.205 97.8036 733.205 98.5845V99.1293H726.754V98.0179H731.897C731.897 97.5457 731.803 97.1244 731.614 96.7539C731.429 96.3834 731.163 96.091 730.818 95.8767C730.477 95.6624 730.074 95.5553 729.609 95.5553C729.097 95.5553 728.654 95.6824 728.279 95.9366C727.909 96.1873 727.624 96.5142 727.424 96.9173C727.224 97.3205 727.124 97.7527 727.124 98.214V98.955C727.124 99.587 727.233 100.123 727.451 100.562C727.673 100.998 727.98 101.33 728.372 101.559C728.764 101.784 729.22 101.897 729.74 101.897C730.077 101.897 730.383 101.85 730.655 101.755C730.931 101.657 731.169 101.512 731.369 101.319C731.568 101.123 731.723 100.88 731.832 100.589L733.074 100.938C732.943 101.359 732.723 101.73 732.415 102.05C732.106 102.366 731.725 102.613 731.271 102.791C730.817 102.965 730.306 103.052 729.74 103.052ZM739.04 92.9183V91.7197H747.408V92.9183H743.9V102.878H742.548V92.9183H739.04ZM751.614 103.052C750.808 103.052 750.112 102.874 749.528 102.518C748.946 102.159 748.498 101.657 748.182 101.014C747.869 100.368 747.713 99.616 747.713 98.7588C747.713 97.9016 747.869 97.1462 748.182 96.4924C748.498 95.8349 748.937 95.3228 749.5 94.956C750.067 94.5855 750.728 94.4002 751.483 94.4002C751.919 94.4002 752.35 94.4729 752.775 94.6182C753.2 94.7635 753.586 94.9996 753.935 95.3264C754.284 95.6497 754.562 96.0783 754.769 96.6122C754.976 97.1462 755.079 97.8036 755.079 98.5845V99.1293H748.629V98.0179H753.772C753.772 97.5457 753.677 97.1244 753.488 96.7539C753.303 96.3834 753.038 96.091 752.693 95.8767C752.352 95.6624 751.948 95.5553 751.483 95.5553C750.971 95.5553 750.528 95.6824 750.154 95.9366C749.784 96.1873 749.499 96.5142 749.299 96.9173C749.099 97.3205 748.999 97.7527 748.999 98.214V98.955C748.999 99.587 749.108 100.123 749.326 100.562C749.548 100.998 749.854 101.33 750.247 101.559C750.639 101.784 751.095 101.897 751.614 101.897C751.952 101.897 752.257 101.85 752.53 101.755C752.806 101.657 753.043 101.512 753.243 101.319C753.443 101.123 753.597 100.88 753.706 100.589L754.949 100.938C754.818 101.359 754.598 101.73 754.289 102.05C753.981 102.366 753.599 102.613 753.145 102.791C752.691 102.965 752.181 103.052 751.614 103.052ZM759.498 103.074C758.968 103.074 758.486 102.974 758.054 102.774C757.622 102.571 757.279 102.278 757.024 101.897C756.77 101.512 756.643 101.047 756.643 100.502C756.643 100.023 756.737 99.6342 756.926 99.3363C757.115 99.0349 757.368 98.7988 757.684 98.6281C758 98.4574 758.348 98.3302 758.73 98.2467C759.115 98.1595 759.501 98.0905 759.89 98.0397C760.399 97.9743 760.811 97.9252 761.127 97.8926C761.446 97.8562 761.679 97.7963 761.824 97.7128C761.973 97.6292 762.048 97.4839 762.048 97.2769V97.2333C762.048 96.6958 761.9 96.2781 761.606 95.9802C761.316 95.6824 760.874 95.5335 760.282 95.5335C759.669 95.5335 759.187 95.6679 758.839 95.9366C758.49 96.2054 758.245 96.4924 758.103 96.7975L756.883 96.3616C757.101 95.8531 757.391 95.4572 757.754 95.1739C758.121 94.887 758.521 94.6872 758.953 94.5746C759.389 94.4584 759.817 94.4002 760.239 94.4002C760.508 94.4002 760.816 94.4329 761.165 94.4983C761.517 94.5601 761.857 94.689 762.184 94.8851C762.514 95.0813 762.789 95.3773 763.006 95.7732C763.224 96.1691 763.333 96.6994 763.333 97.3641V102.878H762.048V101.744H761.982C761.895 101.926 761.75 102.12 761.546 102.327C761.343 102.534 761.072 102.711 760.735 102.856C760.397 103.001 759.985 103.074 759.498 103.074ZM759.694 101.919C760.202 101.919 760.631 101.819 760.98 101.619C761.332 101.419 761.597 101.161 761.775 100.845C761.957 100.53 762.048 100.197 762.048 99.8485V98.6717C761.993 98.737 761.873 98.797 761.688 98.8514C761.506 98.9023 761.296 98.9477 761.056 98.9877C760.82 99.024 760.589 99.0567 760.364 99.0857C760.143 99.1111 759.963 99.1329 759.825 99.1511C759.491 99.1947 759.178 99.2655 758.888 99.3636C758.601 99.458 758.368 99.6015 758.19 99.794C758.016 99.9829 757.929 100.241 757.929 100.568C757.929 101.014 758.094 101.352 758.425 101.581C758.759 101.806 759.182 101.919 759.694 101.919ZM765.68 102.878V94.5092H766.922V95.8168H767.031C767.206 95.37 767.487 95.0232 767.876 94.7762C768.264 94.5256 768.731 94.4002 769.276 94.4002C769.828 94.4002 770.288 94.5256 770.654 94.7762C771.025 95.0232 771.314 95.37 771.521 95.8168H771.608C771.822 95.3846 772.144 95.0413 772.572 94.7871C773.001 94.5292 773.515 94.4002 774.114 94.4002C774.862 94.4002 775.474 94.6345 775.95 95.1031C776.426 95.568 776.664 96.2926 776.664 97.2769V102.878H775.378V97.2769C775.378 96.6594 775.209 96.2181 774.871 95.953C774.534 95.6878 774.136 95.5553 773.678 95.5553C773.09 95.5553 772.634 95.7332 772.311 96.0892C771.987 96.4415 771.826 96.8883 771.826 97.4295V102.878H770.518V97.1462C770.518 96.6703 770.364 96.2871 770.055 95.9966C769.746 95.7024 769.349 95.5553 768.862 95.5553C768.528 95.5553 768.215 95.6443 767.925 95.8222C767.638 96.0002 767.405 96.2472 767.227 96.5632C767.053 96.8756 766.966 97.237 766.966 97.6474V102.878H765.68Z" fill="#FAFAFA"/>
<g opacity="0.9">
<path d="M303.016 99.8639V91.2339L396.507 120.959L490.958 91.2339L489.999 99.8639L396.507 131.028L303.016 99.8639Z" fill="#C6C6C6"/>
<path d="M396.507 60.0701L303.016 91.2339C302.249 91.4909 365.184 111.478 396.507 121.439L490.958 91.2339L396.507 60.0701Z" fill="#D9D9D9"/>
</g>
<path d="M490.951 95.5488L635.743 96.5077" stroke="white" stroke-width="0.958888" stroke-linecap="round" stroke-dasharray="1.92 1.92"/>
<rect y="15.9614" width="216.709" height="40.2733" rx="20.1366" fill="#333339"/>
<path d="M20.1362 41.6618C19.3154 41.6618 18.6162 41.4385 18.0387 40.9917C17.4612 40.5413 17.0199 39.8893 16.7147 39.0358C16.4096 38.1786 16.2571 37.1434 16.2571 35.9303C16.2571 34.7244 16.4096 33.6947 16.7147 32.8412C17.0235 31.984 17.4666 31.3302 18.0441 30.8798C18.6253 30.4258 19.3226 30.1988 20.1362 30.1988C20.9498 30.1988 21.6454 30.4258 22.2229 30.8798C22.804 31.3302 23.2472 31.984 23.5523 32.8412C23.861 33.6947 24.0154 34.7244 24.0154 35.9303C24.0154 37.1434 23.8628 38.1786 23.5577 39.0358C23.2526 39.8893 22.8113 40.5413 22.2338 40.9917C21.6563 41.4385 20.9571 41.6618 20.1362 41.6618ZM20.1362 40.4632C20.9498 40.4632 21.5818 40.0709 22.0322 39.2864C22.4826 38.5019 22.7078 37.3832 22.7078 35.9303C22.7078 34.9641 22.6043 34.1415 22.3972 33.4622C22.1938 32.783 21.8996 32.2655 21.5146 31.9095C21.1333 31.5536 20.6738 31.3756 20.1362 31.3756C19.3299 31.3756 18.6997 31.7733 18.2457 32.5687C17.7917 33.3605 17.5647 34.4811 17.5647 35.9303C17.5647 36.8964 17.6664 37.7173 17.8698 38.3929C18.0732 39.0685 18.3656 39.5824 18.7469 39.9347C19.1319 40.2871 19.595 40.4632 20.1362 40.4632ZM30.0084 30.3513V41.5093H28.6573V31.7679H28.5919L25.8678 33.5767V32.2037L28.6573 30.3513H30.0084ZM33.5171 41.5964C33.2483 41.5964 33.0177 41.5002 32.8251 41.3077C32.6326 41.1152 32.5364 40.8845 32.5364 40.6158C32.5364 40.347 32.6326 40.1163 32.8251 39.9238C33.0177 39.7313 33.2483 39.6351 33.5171 39.6351C33.7859 39.6351 34.0165 39.7313 34.209 39.9238C34.4015 40.1163 34.4978 40.347 34.4978 40.6158C34.4978 40.7937 34.4524 40.9572 34.3615 41.1061C34.2744 41.255 34.1563 41.3749 34.0074 41.4657C33.8621 41.5529 33.6987 41.5964 33.5171 41.5964ZM40.6842 31.5499V30.3513H49.0527V31.5499H45.544V41.5093H44.1929V31.5499H40.6842ZM53.2587 41.6836C52.4524 41.6836 51.7568 41.5056 51.172 41.1497C50.5909 40.7901 50.1423 40.2889 49.8263 39.646C49.514 38.9995 49.3578 38.2476 49.3578 37.3904C49.3578 36.5332 49.514 35.7777 49.8263 35.124C50.1423 34.4665 50.5818 33.9544 51.1448 33.5876C51.7114 33.2171 52.3725 33.0318 53.128 33.0318C53.5638 33.0318 53.9942 33.1045 54.4192 33.2498C54.8441 33.3951 55.231 33.6311 55.5797 33.958C55.9283 34.2813 56.2062 34.7099 56.4132 35.2438C56.6203 35.7777 56.7238 36.4352 56.7238 37.2161V37.7609H50.2731V36.6495H55.4162C55.4162 36.1773 55.3218 35.756 55.1329 35.3855C54.9477 35.015 54.6825 34.7226 54.3375 34.5083C53.996 34.294 53.5929 34.1869 53.128 34.1869C52.6158 34.1869 52.1727 34.314 51.7986 34.5682C51.4281 34.8189 51.143 35.1458 50.9432 35.5489C50.7435 35.9521 50.6436 36.3843 50.6436 36.8456V37.5866C50.6436 38.2185 50.7525 38.7543 50.9705 39.1938C51.192 39.6296 51.4989 39.962 51.8912 40.1908C52.2835 40.416 52.7393 40.5286 53.2587 40.5286C53.5965 40.5286 53.9016 40.4814 54.174 40.3869C54.4501 40.2889 54.688 40.1436 54.8877 39.9511C55.0875 39.7549 55.2419 39.5116 55.3508 39.221L56.593 39.5697C56.4623 39.991 56.2425 40.3615 55.9338 40.6811C55.6251 40.9971 55.2437 41.2441 54.7897 41.4221C54.3356 41.5964 53.8253 41.6836 53.2587 41.6836ZM59.9655 30.3513V41.5093H58.6797V30.3513H59.9655ZM63.6063 30.3513V41.5093H62.3205V30.3513H63.6063ZM69.4917 30.3513H71.039L74.1336 35.5598H74.2643L77.3589 30.3513H78.9062L74.8745 36.911V41.5093H73.5234V36.911L69.4917 30.3513ZM82.6955 41.6836C81.94 41.6836 81.2771 41.5038 80.7069 41.1442C80.1403 40.7847 79.6971 40.2816 79.3775 39.6351C79.0615 38.9886 78.9035 38.2331 78.9035 37.3686C78.9035 36.4969 79.0615 35.736 79.3775 35.0858C79.6971 34.4357 80.1403 33.9308 80.7069 33.5712C81.2771 33.2116 81.94 33.0318 82.6955 33.0318C83.451 33.0318 84.112 33.2116 84.6786 33.5712C85.2489 33.9308 85.692 34.4357 86.008 35.0858C86.3276 35.736 86.4874 36.4969 86.4874 37.3686C86.4874 38.2331 86.3276 38.9886 86.008 39.6351C85.692 40.2816 85.2489 40.7847 84.6786 41.1442C84.112 41.5038 83.451 41.6836 82.6955 41.6836ZM82.6955 40.5286C83.2694 40.5286 83.7415 40.3815 84.112 40.0873C84.4825 39.7931 84.7567 39.4063 84.9347 38.9268C85.1127 38.4474 85.2017 37.928 85.2017 37.3686C85.2017 36.8093 85.1127 36.2881 84.9347 35.805C84.7567 35.3219 84.4825 34.9315 84.112 34.6336C83.7415 34.3358 83.2694 34.1869 82.6955 34.1869C82.1216 34.1869 81.6494 34.3358 81.2789 34.6336C80.9085 34.9315 80.6342 35.3219 80.4563 35.805C80.2783 36.2881 80.1893 36.8093 80.1893 37.3686C80.1893 37.928 80.2783 38.4474 80.4563 38.9268C80.6342 39.4063 80.9085 39.7931 81.2789 40.0873C81.6494 40.3815 82.1216 40.5286 82.6955 40.5286ZM93.724 38.0878V33.1408H95.0098V41.5093H93.724V40.0927H93.6369C93.4407 40.5177 93.1356 40.8791 92.7216 41.1769C92.3075 41.4711 91.7845 41.6182 91.1525 41.6182C90.6295 41.6182 90.1645 41.5038 89.7577 41.275C89.3509 41.0425 89.0313 40.6939 88.7988 40.2289C88.5664 39.7604 88.4502 39.1702 88.4502 38.4583V33.1408H89.7359V38.3711C89.7359 38.9813 89.9067 39.468 90.2481 39.8312C90.5931 40.1944 91.0326 40.376 91.5665 40.376C91.8862 40.376 92.2113 40.2943 92.5418 40.1309C92.8759 39.9674 93.1556 39.7168 93.3808 39.379C93.6096 39.0412 93.724 38.6108 93.724 38.0878ZM97.3648 41.5093V33.1408H98.607V34.4048H98.6942C98.8467 33.9907 99.1228 33.6548 99.5223 33.3969C99.9219 33.139 100.372 33.01 100.873 33.01C100.968 33.01 101.086 33.0119 101.228 33.0155C101.369 33.0191 101.476 33.0246 101.549 33.0318V34.3394C101.505 34.3285 101.406 34.3122 101.249 34.2904C101.097 34.265 100.935 34.2522 100.765 34.2522C100.358 34.2522 99.9945 34.3376 99.6749 34.5083C99.3589 34.6754 99.1083 34.9078 98.923 35.2057C98.7414 35.4999 98.6506 35.8359 98.6506 36.2136V41.5093H97.3648ZM107.563 41.5093V30.3513H111.333C112.204 30.3513 112.92 30.5002 113.479 30.7981C114.039 31.0923 114.453 31.4973 114.721 32.013C114.99 32.5288 115.125 33.1154 115.125 33.7728C115.125 34.4302 114.99 35.0132 114.721 35.5217C114.453 36.0302 114.04 36.4297 113.485 36.7203C112.929 37.0072 112.219 37.1507 111.354 37.1507H108.303V35.9303H111.311C111.907 35.9303 112.386 35.8431 112.749 35.6688C113.116 35.4944 113.381 35.2475 113.545 34.9278C113.712 34.6046 113.795 34.2196 113.795 33.7728C113.795 33.326 113.712 32.9356 113.545 32.6014C113.378 32.2673 113.111 32.0094 112.744 31.8278C112.377 31.6425 111.892 31.5499 111.289 31.5499H108.914V41.5093H107.563ZM112.815 36.4969L115.561 41.5093H113.991L111.289 36.4969H112.815ZM120.621 41.6836C119.814 41.6836 119.119 41.5056 118.534 41.1497C117.953 40.7901 117.504 40.2889 117.188 39.646C116.876 38.9995 116.72 38.2476 116.72 37.3904C116.72 36.5332 116.876 35.7777 117.188 35.124C117.504 34.4665 117.944 33.9544 118.507 33.5876C119.073 33.2171 119.734 33.0318 120.49 33.0318C120.926 33.0318 121.356 33.1045 121.781 33.2498C122.206 33.3951 122.593 33.6311 122.942 33.958C123.29 34.2813 123.568 34.7099 123.775 35.2438C123.982 35.7777 124.086 36.4352 124.086 37.2161V37.7609H117.635V36.6495H122.778C122.778 36.1773 122.684 35.756 122.495 35.3855C122.31 35.015 122.044 34.7226 121.699 34.5083C121.358 34.294 120.955 34.1869 120.49 34.1869C119.978 34.1869 119.535 34.314 119.16 34.5682C118.79 34.8189 118.505 35.1458 118.305 35.5489C118.105 35.9521 118.005 36.3843 118.005 36.8456V37.5866C118.005 38.2185 118.114 38.7543 118.332 39.1938C118.554 39.6296 118.861 39.962 119.253 40.1908C119.645 40.416 120.101 40.5286 120.621 40.5286C120.958 40.5286 121.263 40.4814 121.536 40.3869C121.812 40.2889 122.05 40.1436 122.25 39.9511C122.449 39.7549 122.604 39.5116 122.713 39.221L123.955 39.5697C123.824 39.991 123.604 40.3615 123.296 40.6811C122.987 40.9971 122.606 41.2441 122.152 41.4221C121.697 41.5964 121.187 41.6836 120.621 41.6836ZM131.751 44.6475V40.2235H131.642C131.548 40.376 131.413 40.5686 131.239 40.801C131.065 41.0298 130.816 41.2351 130.493 41.4167C130.169 41.5946 129.739 41.6836 129.202 41.6836C128.504 41.6836 127.888 41.5075 127.355 41.1551C126.821 40.7992 126.403 40.298 126.101 39.6514C125.8 39.0013 125.649 38.2331 125.649 37.3468C125.649 36.4679 125.8 35.7051 126.101 35.0586C126.403 34.4121 126.822 33.9126 127.36 33.5603C127.898 33.208 128.519 33.0318 129.223 33.0318C129.768 33.0318 130.199 33.1226 130.515 33.3043C130.834 33.4822 131.078 33.6856 131.245 33.9145C131.415 34.1396 131.548 34.3249 131.642 34.4702H131.795V33.1408H133.037V44.6475H131.751ZM129.376 40.5286C129.892 40.5286 130.327 40.3942 130.683 40.1254C131.039 39.853 131.31 39.4771 131.495 38.9976C131.68 38.5146 131.773 37.957 131.773 37.325C131.773 36.7003 131.682 36.1537 131.501 35.6851C131.319 35.2129 131.05 34.8461 130.694 34.5846C130.338 34.3194 129.899 34.1869 129.376 34.1869C128.831 34.1869 128.377 34.3267 128.014 34.6064C127.654 34.8824 127.384 35.2583 127.202 35.7342C127.024 36.2063 126.935 36.7366 126.935 37.325C126.935 37.9207 127.026 38.4619 127.207 38.9486C127.393 39.4317 127.665 39.8167 128.025 40.1036C128.388 40.3869 128.838 40.5286 129.376 40.5286ZM140.665 38.0878V33.1408H141.95V41.5093H140.665V40.0927H140.577C140.381 40.5177 140.076 40.8791 139.662 41.1769C139.248 41.4711 138.725 41.6182 138.093 41.6182C137.57 41.6182 137.105 41.5038 136.698 41.275C136.291 41.0425 135.972 40.6939 135.739 40.2289C135.507 39.7604 135.391 39.1702 135.391 38.4583V33.1408H136.676V38.3711C136.676 38.9813 136.847 39.468 137.189 39.8312C137.534 40.1944 137.973 40.376 138.507 40.376C138.827 40.376 139.152 40.2943 139.482 40.1309C139.816 39.9674 140.096 39.7168 140.321 39.379C140.55 39.0412 140.665 38.6108 140.665 38.0878ZM144.305 41.5093V33.1408H145.591V41.5093H144.305ZM144.959 31.7461C144.709 31.7461 144.492 31.6607 144.311 31.49C144.133 31.3193 144.044 31.1141 144.044 30.8743C144.044 30.6346 144.133 30.4294 144.311 30.2587C144.492 30.088 144.709 30.0026 144.959 30.0026C145.21 30.0026 145.424 30.088 145.602 30.2587C145.784 30.4294 145.874 30.6346 145.874 30.8743C145.874 31.1141 145.784 31.3193 145.602 31.49C145.424 31.6607 145.21 31.7461 144.959 31.7461ZM147.946 41.5093V33.1408H149.188V34.4048H149.276C149.428 33.9907 149.704 33.6548 150.104 33.3969C150.503 33.139 150.954 33.01 151.455 33.01C151.549 33.01 151.667 33.0119 151.809 33.0155C151.951 33.0191 152.058 33.0246 152.13 33.0318V34.3394C152.087 34.3285 151.987 34.3122 151.831 34.2904C151.678 34.265 151.517 34.2522 151.346 34.2522C150.939 34.2522 150.576 34.3376 150.256 34.5083C149.94 34.6754 149.69 34.9078 149.504 35.2057C149.323 35.4999 149.232 35.8359 149.232 36.2136V41.5093H147.946ZM156.908 41.6836C156.102 41.6836 155.407 41.5056 154.822 41.1497C154.241 40.7901 153.792 40.2889 153.476 39.646C153.164 38.9995 153.008 38.2476 153.008 37.3904C153.008 36.5332 153.164 35.7777 153.476 35.124C153.792 34.4665 154.232 33.9544 154.795 33.5876C155.361 33.2171 156.022 33.0318 156.778 33.0318C157.214 33.0318 157.644 33.1045 158.069 33.2498C158.494 33.3951 158.881 33.6311 159.229 33.958C159.578 34.2813 159.856 34.7099 160.063 35.2438C160.27 35.7777 160.374 36.4352 160.374 37.2161V37.7609H153.923V36.6495H159.066C159.066 36.1773 158.972 35.756 158.783 35.3855C158.597 35.015 158.332 34.7226 157.987 34.5083C157.646 34.294 157.243 34.1869 156.778 34.1869C156.266 34.1869 155.822 34.314 155.448 34.5682C155.078 34.8189 154.793 35.1458 154.593 35.5489C154.393 35.9521 154.293 36.3843 154.293 36.8456V37.5866C154.293 38.2185 154.402 38.7543 154.62 39.1938C154.842 39.6296 155.149 39.962 155.541 40.1908C155.933 40.416 156.389 40.5286 156.908 40.5286C157.246 40.5286 157.551 40.4814 157.824 40.3869C158.1 40.2889 158.338 40.1436 158.537 39.9511C158.737 39.7549 158.892 39.5116 159.001 39.221L160.243 39.5697C160.112 39.991 159.892 40.3615 159.584 40.6811C159.275 40.9971 158.893 41.2441 158.439 41.4221C157.985 41.5964 157.475 41.6836 156.908 41.6836ZM162.329 41.5093V33.1408H163.572V34.4484H163.681C163.855 34.0016 164.136 33.6548 164.525 33.4078C164.914 33.1571 165.38 33.0318 165.925 33.0318C166.477 33.0318 166.937 33.1571 167.304 33.4078C167.674 33.6548 167.963 34.0016 168.17 34.4484H168.257C168.471 34.0162 168.793 33.6729 169.221 33.4187C169.65 33.1608 170.164 33.0318 170.763 33.0318C171.512 33.0318 172.124 33.2661 172.599 33.7347C173.075 34.1996 173.313 34.9242 173.313 35.9085V41.5093H172.027V35.9085C172.027 35.291 171.858 34.8497 171.521 34.5846C171.183 34.3194 170.785 34.1869 170.327 34.1869C169.739 34.1869 169.283 34.3648 168.96 34.7208C168.637 35.0731 168.475 35.5199 168.475 36.0611V41.5093H167.167V35.7777C167.167 35.3019 167.013 34.9187 166.704 34.6282C166.396 34.334 165.998 34.1869 165.511 34.1869C165.177 34.1869 164.865 34.2759 164.574 34.4538C164.287 34.6318 164.055 34.8788 163.877 35.1948C163.702 35.5071 163.615 35.8685 163.615 36.279V41.5093H162.329ZM179.173 41.6836C178.366 41.6836 177.671 41.5056 177.086 41.1497C176.505 40.7901 176.056 40.2889 175.74 39.646C175.428 38.9995 175.272 38.2476 175.272 37.3904C175.272 36.5332 175.428 35.7777 175.74 35.124C176.056 34.4665 176.496 33.9544 177.059 33.5876C177.625 33.2171 178.286 33.0318 179.042 33.0318C179.478 33.0318 179.908 33.1045 180.333 33.2498C180.758 33.3951 181.145 33.6311 181.494 33.958C181.842 34.2813 182.12 34.7099 182.327 35.2438C182.534 35.7777 182.638 36.4352 182.638 37.2161V37.7609H176.187V36.6495H181.33C181.33 36.1773 181.236 35.756 181.047 35.3855C180.862 35.015 180.596 34.7226 180.251 34.5083C179.91 34.294 179.507 34.1869 179.042 34.1869C178.53 34.1869 178.087 34.314 177.713 34.5682C177.342 34.8189 177.057 35.1458 176.857 35.5489C176.657 35.9521 176.557 36.3843 176.557 36.8456V37.5866C176.557 38.2185 176.666 38.7543 176.884 39.1938C177.106 39.6296 177.413 39.962 177.805 40.1908C178.197 40.416 178.653 40.5286 179.173 40.5286C179.51 40.5286 179.816 40.4814 180.088 40.3869C180.364 40.2889 180.602 40.1436 180.802 39.9511C181.001 39.7549 181.156 39.5116 181.265 39.221L182.507 39.5697C182.376 39.991 182.156 40.3615 181.848 40.6811C181.539 40.9971 181.158 41.2441 180.704 41.4221C180.25 41.5964 179.739 41.6836 179.173 41.6836ZM185.879 36.4751V41.5093H184.594V33.1408H185.836V34.4484H185.945C186.141 34.0234 186.439 33.682 186.838 33.4241C187.238 33.1626 187.754 33.0318 188.386 33.0318C188.952 33.0318 189.448 33.1481 189.873 33.3805C190.298 33.6094 190.628 33.958 190.865 34.4266C191.101 34.8915 191.219 35.4799 191.219 36.1918V41.5093H189.933V36.279C189.933 35.6216 189.762 35.1094 189.421 34.7426C189.079 34.3721 188.611 34.1869 188.015 34.1869C187.605 34.1869 187.238 34.2759 186.915 34.4538C186.595 34.6318 186.342 34.8915 186.157 35.2329C185.972 35.5743 185.879 35.9884 185.879 36.4751ZM197.208 33.1408V34.2304H192.871V33.1408H197.208ZM194.135 31.1359H195.421V39.1121C195.421 39.4753 195.473 39.7477 195.579 39.9293C195.688 40.1073 195.826 40.2271 195.993 40.2889C196.163 40.347 196.343 40.376 196.532 40.376C196.674 40.376 196.79 40.3688 196.881 40.3543C196.972 40.3361 197.044 40.3216 197.099 40.3107L197.36 41.4657C197.273 41.4984 197.151 41.5311 196.995 41.5638C196.839 41.6001 196.641 41.6182 196.401 41.6182C196.038 41.6182 195.682 41.5402 195.333 41.384C194.988 41.2278 194.701 40.9899 194.473 40.6703C194.247 40.3506 194.135 39.9475 194.135 39.4607V31.1359ZM204.92 35.015L203.765 35.3419C203.692 35.1494 203.585 34.9623 203.443 34.7807C203.305 34.5955 203.116 34.4429 202.876 34.3231C202.637 34.2032 202.33 34.1433 201.956 34.1433C201.444 34.1433 201.017 34.2613 200.675 34.4974C200.338 34.7299 200.169 35.0259 200.169 35.3855C200.169 35.7051 200.285 35.9575 200.517 36.1428C200.75 36.328 201.113 36.4824 201.607 36.6059L202.849 36.911C203.597 37.0926 204.155 37.3704 204.522 37.7446C204.889 38.115 205.072 38.5927 205.072 39.1774C205.072 39.6569 204.934 40.0855 204.658 40.4632C204.386 40.841 204.004 41.1388 203.514 41.3567C203.024 41.5747 202.453 41.6836 201.803 41.6836C200.95 41.6836 200.243 41.4984 199.684 41.1279C199.124 40.7574 198.77 40.2162 198.621 39.5043L199.842 39.1992C199.958 39.6496 200.178 39.9874 200.501 40.2126C200.828 40.4378 201.255 40.5504 201.781 40.5504C202.381 40.5504 202.857 40.4233 203.209 40.169C203.565 39.9111 203.743 39.6024 203.743 39.2428C203.743 38.9522 203.641 38.7089 203.438 38.5128C203.234 38.313 202.922 38.1641 202.501 38.066L201.106 37.7391C200.339 37.5575 199.776 37.276 199.417 36.8946C199.061 36.5096 198.883 36.0284 198.883 35.4509C198.883 34.9787 199.016 34.561 199.281 34.1978C199.549 33.8345 199.914 33.5494 200.376 33.3424C200.841 33.1354 201.367 33.0318 201.956 33.0318C202.784 33.0318 203.434 33.2134 203.906 33.5767C204.382 33.9399 204.72 34.4193 204.92 35.015Z" fill="#FAFAFA"/>
<path d="M303.016 40.4129V31.783L396.507 61.5085L490.958 31.783L489.999 40.4129L396.507 71.5768L303.016 40.4129Z" fill="#CFCFCF"/>
<path d="M396.507 0.619141L303.016 31.783C302.249 32.04 365.184 52.0267 396.507 61.9879L490.958 31.783L396.507 0.619141Z" fill="#D9D9D9"/>
<path d="M216.709 36.0979L302.05 36.0979" stroke="white" stroke-width="0.958888" stroke-linecap="round" stroke-dasharray="1.92 1.92"/>
</svg>
