<svg width="100" height="14" viewBox="0 0 100 14" fill="none" xmlns="http://www.w3.org/2000/svg">
<path d="M5.35511 8.69957H6.90057L8.19602 10.4041L8.53693 10.8587L10.4688 13.4268H8.9233L7.65057 11.7223L7.33239 11.2905L5.35511 8.69957ZM10.946 6.51776C10.946 7.74503 10.7244 8.80563 10.2812 9.69957C9.83807 10.5935 9.23011 11.2829 8.45739 11.7678C7.68466 12.2526 6.80208 12.495 5.80966 12.495C4.81724 12.495 3.93466 12.2526 3.16193 11.7678C2.3892 11.2829 1.78125 10.5935 1.33807 9.69957C0.894886 8.80563 0.673295 7.74503 0.673295 6.51776C0.673295 5.29048 0.894886 4.22988 1.33807 3.33594C1.78125 2.442 2.3892 1.7526 3.16193 1.26776C3.93466 0.782907 4.81724 0.540483 5.80966 0.540483C6.80208 0.540483 7.68466 0.782907 8.45739 1.26776C9.23011 1.7526 9.83807 2.442 10.2812 3.33594C10.7244 4.22988 10.946 5.29048 10.946 6.51776ZM9.58239 6.51776C9.58239 5.51018 9.41383 4.6598 9.0767 3.96662C8.74337 3.27344 8.29072 2.74882 7.71875 2.39276C7.15057 2.03669 6.5142 1.85866 5.80966 1.85866C5.10511 1.85866 4.46686 2.03669 3.89489 2.39276C3.3267 2.74882 2.87405 3.27344 2.53693 3.96662C2.2036 4.6598 2.03693 5.51018 2.03693 6.51776C2.03693 7.52533 2.2036 8.37571 2.53693 9.06889C2.87405 9.76207 3.3267 10.2867 3.89489 10.6428C4.46686 10.9988 5.10511 11.1768 5.80966 11.1768C6.5142 11.1768 7.15057 10.9988 7.71875 10.6428C8.29072 10.2867 8.74337 9.76207 9.0767 9.06889C9.41383 8.37571 9.58239 7.52533 9.58239 6.51776ZM20.9517 0.699574H22.3608V8.40412C22.3608 9.19957 22.1733 9.9098 21.7983 10.5348C21.4271 11.156 20.9025 11.6465 20.2244 12.0064C19.5464 12.3625 18.7509 12.5405 17.8381 12.5405C16.9252 12.5405 16.1297 12.3625 15.4517 12.0064C14.7737 11.6465 14.2472 11.156 13.8722 10.5348C13.5009 9.9098 13.3153 9.19957 13.3153 8.40412V0.699574H14.7244V8.29048C14.7244 8.85866 14.8494 9.36435 15.0994 9.80753C15.3494 10.2469 15.7055 10.5935 16.1676 10.8473C16.6335 11.0973 17.1903 11.2223 17.8381 11.2223C18.4858 11.2223 19.0426 11.0973 19.5085 10.8473C19.9744 10.5935 20.3305 10.2469 20.5767 9.80753C20.8267 9.36435 20.9517 8.85866 20.9517 8.29048V0.699574ZM26.5838 0.699574V12.3359H25.1747V0.699574H26.5838ZM38.7727 4.33594H37.3636C37.2803 3.93063 37.1345 3.57457 36.9261 3.26776C36.7216 2.96094 36.4716 2.70336 36.1761 2.49503C35.8845 2.28291 35.5606 2.12382 35.2045 2.01776C34.8485 1.91169 34.4773 1.85866 34.0909 1.85866C33.3864 1.85866 32.7481 2.03669 32.1761 2.39276C31.608 2.74882 31.1553 3.27344 30.8182 3.96662C30.4848 4.6598 30.3182 5.51018 30.3182 6.51776C30.3182 7.52533 30.4848 8.37571 30.8182 9.06889C31.1553 9.76207 31.608 10.2867 32.1761 10.6428C32.7481 10.9988 33.3864 11.1768 34.0909 11.1768C34.4773 11.1768 34.8485 11.1238 35.2045 11.0178C35.5606 10.9117 35.8845 10.7545 36.1761 10.5462C36.4716 10.334 36.7216 10.0746 36.9261 9.76776C37.1345 9.45715 37.2803 9.10109 37.3636 8.69957H38.7727C38.6667 9.29427 38.4735 9.82647 38.1932 10.2962C37.9129 10.7659 37.5644 11.1655 37.1477 11.495C36.7311 11.8208 36.2633 12.0689 35.7443 12.2393C35.2292 12.4098 34.678 12.495 34.0909 12.495C33.0985 12.495 32.2159 12.2526 31.4432 11.7678C30.6705 11.2829 30.0625 10.5935 29.6193 9.69957C29.1761 8.80563 28.9545 7.74503 28.9545 6.51776C28.9545 5.29048 29.1761 4.22988 29.6193 3.33594C30.0625 2.442 30.6705 1.7526 31.4432 1.26776C32.2159 0.782907 33.0985 0.540483 34.0909 0.540483C34.678 0.540483 35.2292 0.62571 35.7443 0.796165C36.2633 0.966619 36.7311 1.21662 37.1477 1.54616C37.5644 1.87192 37.9129 2.26965 38.1932 2.73935C38.4735 3.20526 38.6667 3.73745 38.7727 4.33594ZM41.0497 12.3359V0.699574H42.4588V6.4723H42.5952L47.8224 0.699574H49.6634L44.777 5.94957L49.6634 12.3359H47.9588L43.9134 6.92685L42.4588 8.56321V12.3359H41.0497ZM55.9872 12.3359V0.699574H57.3963V11.0859H62.8054V12.3359H55.9872ZM66.3963 0.699574V12.3359H64.9872V0.699574H66.3963ZM78.4489 0.699574V12.3359H77.0852L70.7443 3.19957H70.6307V12.3359H69.2216V0.699574H70.5852L76.9489 9.85866H77.0625V0.699574H78.4489ZM81.2685 12.3359V0.699574H82.6776V6.4723H82.8139L88.0412 0.699574H89.8821L84.9957 5.94957L89.8821 12.3359H88.1776L84.1321 6.92685L82.6776 8.56321V12.3359H81.2685ZM98.0696 3.60866C98.0014 3.03291 97.7249 2.58594 97.2401 2.26776C96.7552 1.94957 96.1605 1.79048 95.456 1.79048C94.9408 1.79048 94.4901 1.87382 94.1037 2.04048C93.7211 2.20715 93.4219 2.43632 93.206 2.72798C92.9938 3.01965 92.8878 3.35109 92.8878 3.7223C92.8878 4.03291 92.9616 4.29995 93.1094 4.52344C93.2609 4.74313 93.4541 4.92685 93.6889 5.07457C93.9238 5.21851 94.17 5.33783 94.4276 5.43253C94.6851 5.52344 94.9219 5.5973 95.1378 5.65412L96.3196 5.9723C96.6226 6.05185 96.9598 6.16169 97.331 6.30185C97.706 6.442 98.0639 6.63329 98.4048 6.87571C98.7495 7.11435 99.0336 7.42116 99.2571 7.79616C99.4806 8.17116 99.5923 8.63139 99.5923 9.17685C99.5923 9.80563 99.4276 10.3738 99.098 10.8814C98.7723 11.389 98.295 11.7924 97.6662 12.0916C97.0412 12.3909 96.2817 12.5405 95.3878 12.5405C94.5545 12.5405 93.8329 12.406 93.223 12.1371C92.617 11.8681 92.1397 11.4931 91.7912 11.0121C91.4465 10.531 91.2514 9.9723 91.206 9.33594H92.6605C92.6984 9.77533 92.8461 10.139 93.1037 10.4268C93.3651 10.7109 93.6946 10.9231 94.0923 11.0632C94.4938 11.1996 94.9257 11.2678 95.3878 11.2678C95.9257 11.2678 96.4086 11.1806 96.8366 11.0064C97.2647 10.8284 97.6037 10.5821 97.8537 10.2678C98.1037 9.94957 98.2287 9.57836 98.2287 9.15412C98.2287 8.76776 98.1207 8.45336 97.9048 8.21094C97.6889 7.96851 97.4048 7.77154 97.0526 7.62003C96.7003 7.46851 96.3196 7.33594 95.9105 7.2223L94.4787 6.81321C93.5696 6.55185 92.8499 6.17874 92.3196 5.69389C91.7893 5.20904 91.5241 4.57457 91.5241 3.79048C91.5241 3.13897 91.7003 2.57079 92.0526 2.08594C92.4086 1.5973 92.8859 1.21851 93.4844 0.949574C94.0866 0.676846 94.759 0.540483 95.5014 0.540483C96.2514 0.540483 96.9181 0.674952 97.5014 0.943892C98.0848 1.20904 98.5469 1.57268 98.8878 2.0348C99.2325 2.49692 99.4143 3.02154 99.4332 3.60866H98.0696Z" fill="white" fill-opacity="0.5"/>
</svg>
