<svg width="392" height="136" viewBox="0 0 392 136" fill="none" xmlns="http://www.w3.org/2000/svg">
<rect x="0.265625" y="0.743408" width="390.746" height="134.74" rx="12" fill="url(#paint0_radial_1048_1123)"/>
<rect x="1.01562" y="1.49341" width="389.246" height="133.24" rx="11.25" stroke="#1885B9" stroke-opacity="0.32" stroke-width="1.5" stroke-dasharray="3 3"/>
<rect x="24.0156" y="32.8625" width="70.5" height="70.5" rx="9.25" fill="url(#paint1_radial_1048_1123)" stroke="#1885B9" stroke-width="1.5"/>
<path d="M57.305 54.0613L44.7031 59.2532V72.05C44.7031 78.9075 58.7675 85.4563 58.7675 85.4563C58.7675 85.4563 72.8319 78.9075 72.8319 72.05V59.2532L60.23 54.0613C59.7666 53.8682 59.2695 53.7688 58.7675 53.7688C58.2655 53.7688 57.7684 53.8682 57.305 54.0613Z" stroke="white" stroke-width="1.5" stroke-linecap="round" stroke-linejoin="round"/>
<path d="M64.0081 66.9304H58.7675V59.6829L53.6406 70.4241H58.8812V77.6716L64.0081 66.9304Z" stroke="white" stroke-width="1.5" stroke-linecap="round" stroke-linejoin="round"/>
<path d="M124.864 51.7434V37.198H130.048C131.18 37.198 132.117 37.4039 132.861 37.8159C133.604 38.2278 134.161 38.7912 134.53 39.5062C134.899 40.2164 135.084 41.0166 135.084 41.9068C135.084 42.8016 134.897 43.6066 134.523 44.3215C134.153 45.0318 133.595 45.5952 132.847 46.0119C132.103 46.4238 131.168 46.6298 130.041 46.6298H126.476V44.769H129.842C130.557 44.769 131.137 44.6459 131.582 44.3997C132.027 44.1487 132.354 43.8078 132.562 43.3769C132.771 42.9461 132.875 42.456 132.875 41.9068C132.875 41.3575 132.771 40.8698 132.562 40.4437C132.354 40.0176 132.025 39.6837 131.575 39.4423C131.13 39.2008 130.543 39.0801 129.814 39.0801H127.058V51.7434H124.864ZM136.886 51.7434V40.8343H138.939V42.5673H139.052C139.251 41.9802 139.602 41.5185 140.103 41.1823C140.61 40.8414 141.183 40.671 141.822 40.671C141.955 40.671 142.111 40.6757 142.291 40.6852C142.476 40.6946 142.62 40.7065 142.724 40.7207V42.7519C142.639 42.7283 142.487 42.7022 142.27 42.6738C142.052 42.6407 141.834 42.6241 141.616 42.6241C141.114 42.6241 140.667 42.7306 140.274 42.9437C139.886 43.152 139.578 43.4432 139.351 43.8173C139.123 44.1866 139.01 44.608 139.01 45.0815V51.7434H136.886ZM148.166 51.9636C147.144 51.9636 146.251 51.7292 145.489 51.2605C144.727 50.7917 144.135 50.1359 143.713 49.2931C143.292 48.4503 143.081 47.4655 143.081 46.3386C143.081 45.2069 143.292 44.2174 143.713 43.3698C144.135 42.5223 144.727 41.8641 145.489 41.3954C146.251 40.9266 147.144 40.6923 148.166 40.6923C149.189 40.6923 150.082 40.9266 150.844 41.3954C151.606 41.8641 152.198 42.5223 152.62 43.3698C153.041 44.2174 153.252 45.2069 153.252 46.3386C153.252 47.4655 153.041 48.4503 152.62 49.2931C152.198 50.1359 151.606 50.7917 150.844 51.2605C150.082 51.7292 149.189 51.9636 148.166 51.9636ZM148.174 50.1809C148.836 50.1809 149.386 50.0057 149.821 49.6553C150.257 49.305 150.579 48.8386 150.787 48.2562C151 47.6738 151.107 47.0322 151.107 46.3315C151.107 45.6355 151 44.9962 150.787 44.4139C150.579 43.8267 150.257 43.3556 149.821 43.0005C149.386 42.6454 148.836 42.4678 148.174 42.4678C147.506 42.4678 146.952 42.6454 146.512 43.0005C146.076 43.3556 145.752 43.8267 145.539 44.4139C145.33 44.9962 145.226 45.6355 145.226 46.3315C145.226 47.0322 145.33 47.6738 145.539 48.2562C145.752 48.8386 146.076 49.305 146.512 49.6553C146.952 50.0057 147.506 50.1809 148.174 50.1809ZM160.114 40.8343V42.5389H154.156V40.8343H160.114ZM155.754 38.2207H157.877V48.5403C157.877 48.9522 157.939 49.2623 158.062 49.4707C158.185 49.6743 158.344 49.814 158.538 49.8897C158.737 49.9607 158.952 49.9962 159.184 49.9962C159.354 49.9962 159.504 49.9844 159.631 49.9607C159.759 49.9371 159.859 49.9181 159.93 49.9039L160.313 51.6582C160.19 51.7055 160.015 51.7529 159.788 51.8002C159.56 51.8523 159.276 51.8807 158.935 51.8855C158.377 51.8949 157.856 51.7955 157.373 51.5872C156.89 51.3788 156.499 51.0569 156.201 50.6212C155.903 50.1856 155.754 49.6388 155.754 48.9806V38.2207ZM166.448 51.9636C165.373 51.9636 164.448 51.7339 163.671 51.2747C162.899 50.8106 162.303 50.1596 161.881 49.3215C161.465 48.4787 161.256 47.4915 161.256 46.3599C161.256 45.2425 161.465 44.2576 161.881 43.4053C162.303 42.5531 162.89 41.8878 163.643 41.4096C164.4 40.9314 165.286 40.6923 166.299 40.6923C166.914 40.6923 167.511 40.7941 168.089 40.9977C168.666 41.2013 169.185 41.5209 169.644 41.9565C170.103 42.3921 170.466 42.9579 170.731 43.6539C170.996 44.3452 171.128 45.1856 171.128 46.1752V46.9281H162.457V45.3372H169.047C169.047 44.7784 168.934 44.2837 168.707 43.8528C168.479 43.4172 168.16 43.0739 167.748 42.823C167.341 42.572 166.862 42.4465 166.313 42.4465C165.716 42.4465 165.196 42.5933 164.751 42.8869C164.31 43.1757 163.969 43.5545 163.728 44.0232C163.491 44.4873 163.373 44.9915 163.373 45.536V46.7789C163.373 47.5081 163.501 48.1284 163.756 48.6397C164.017 49.1511 164.379 49.5417 164.843 49.8116C165.307 50.0767 165.849 50.2093 166.469 50.2093C166.872 50.2093 167.239 50.1525 167.57 50.0389C167.902 49.9205 168.188 49.7453 168.43 49.5133C168.671 49.2813 168.856 48.9948 168.984 48.6539L170.993 49.0161C170.832 49.608 170.544 50.1265 170.127 50.5715C169.715 51.0119 169.197 51.3552 168.572 51.6014C167.951 51.8428 167.243 51.9636 166.448 51.9636ZM177.48 51.9636C176.424 51.9636 175.515 51.7245 174.752 51.2462C173.995 50.7633 173.413 50.098 173.005 49.2505C172.598 48.403 172.395 47.4323 172.395 46.3386C172.395 45.2306 172.603 44.2529 173.02 43.4053C173.436 42.5531 174.023 41.8878 174.781 41.4096C175.538 40.9314 176.431 40.6923 177.458 40.6923C178.287 40.6923 179.026 40.8462 179.674 41.1539C180.323 41.4569 180.846 41.8831 181.244 42.4323C181.646 42.9816 181.886 43.6231 181.961 44.357H179.895C179.781 43.8457 179.52 43.4053 179.113 43.036C178.711 42.6667 178.171 42.482 177.494 42.482C176.902 42.482 176.384 42.6383 175.939 42.9508C175.498 43.2586 175.155 43.6989 174.909 44.2718C174.663 44.84 174.539 45.5123 174.539 46.2889C174.539 47.0843 174.66 47.7709 174.902 48.3485C175.143 48.9262 175.484 49.3736 175.924 49.6909C176.369 50.0081 176.893 50.1667 177.494 50.1667C177.896 50.1667 178.261 50.0933 178.588 49.9465C178.919 49.795 179.196 49.5796 179.419 49.3002C179.646 49.0209 179.805 48.6847 179.895 48.2917H181.961C181.886 48.9972 181.656 49.6269 181.272 50.1809C180.889 50.7349 180.375 51.1705 179.731 51.4877C179.092 51.805 178.342 51.9636 177.48 51.9636ZM188.725 40.8343V42.5389H182.766V40.8343H188.725ZM184.364 38.2207H186.487V48.5403C186.487 48.9522 186.549 49.2623 186.672 49.4707C186.795 49.6743 186.954 49.814 187.148 49.8897C187.347 49.9607 187.562 49.9962 187.794 49.9962C187.965 49.9962 188.114 49.9844 188.242 49.9607C188.369 49.9371 188.469 49.9181 188.54 49.9039L188.923 51.6582C188.8 51.7055 188.625 51.7529 188.398 51.8002C188.171 51.8523 187.887 51.8807 187.546 51.8855C186.987 51.8949 186.466 51.7955 185.983 51.5872C185.5 51.3788 185.11 51.0569 184.811 50.6212C184.513 50.1856 184.364 49.6388 184.364 48.9806V38.2207ZM190.474 51.7434V40.8343H192.597V51.7434H190.474ZM191.546 39.1511C191.177 39.1511 190.86 39.028 190.594 38.7818C190.334 38.5308 190.204 38.2325 190.204 37.8869C190.204 37.5365 190.334 37.2382 190.594 36.992C190.86 36.741 191.177 36.6156 191.546 36.6156C191.915 36.6156 192.23 36.741 192.491 36.992C192.756 37.2382 192.888 37.5365 192.888 37.8869C192.888 38.2325 192.756 38.5308 192.491 38.7818C192.23 39.028 191.915 39.1511 191.546 39.1511ZM196.978 45.2661V51.7434H194.854V40.8343H196.892V42.6099H197.027C197.278 42.0322 197.671 41.5682 198.206 41.2178C198.746 40.8675 199.426 40.6923 200.245 40.6923C200.988 40.6923 201.639 40.8485 202.198 41.161C202.757 41.4688 203.19 41.9281 203.498 42.5389C203.805 43.1497 203.959 43.9049 203.959 44.8045V51.7434H201.836V45.0602C201.836 44.2694 201.63 43.6516 201.218 43.2065C200.806 42.7567 200.24 42.5318 199.52 42.5318C199.028 42.5318 198.59 42.6383 198.206 42.8514C197.828 43.0644 197.527 43.3769 197.304 43.7889C197.087 44.1961 196.978 44.6885 196.978 45.2661ZM210.781 56.0616C209.915 56.0616 209.169 55.948 208.544 55.7207C207.924 55.4934 207.417 55.1927 207.024 54.8187C206.631 54.4446 206.337 54.0351 206.143 53.59L207.969 52.8372C208.096 53.0455 208.267 53.2657 208.48 53.4977C208.698 53.7344 208.991 53.9356 209.361 54.1014C209.735 54.2671 210.215 54.3499 210.802 54.3499C211.607 54.3499 212.273 54.1534 212.798 53.7605C213.324 53.3722 213.587 52.7519 213.587 51.8997V49.7548H213.452C213.324 49.9868 213.139 50.2448 212.898 50.5289C212.661 50.813 212.334 51.0592 211.917 51.2676C211.501 51.4759 210.959 51.5801 210.291 51.5801C209.429 51.5801 208.653 51.3788 207.962 50.9764C207.275 50.5692 206.73 49.9702 206.328 49.1795C205.93 48.384 205.731 47.4063 205.731 46.2462C205.731 45.0862 205.928 44.0919 206.321 43.2633C206.719 42.4347 207.263 41.8002 207.954 41.3599C208.646 40.9148 209.429 40.6923 210.305 40.6923C210.982 40.6923 211.529 40.8059 211.946 41.0332C212.363 41.2557 212.687 41.5161 212.919 41.8144C213.156 42.1127 213.338 42.3755 213.466 42.6028H213.622V40.8343H215.703V51.9849C215.703 52.9224 215.485 53.6918 215.05 54.2931C214.614 54.8944 214.024 55.3395 213.281 55.6284C212.542 55.9172 211.709 56.0616 210.781 56.0616ZM210.76 49.8187C211.371 49.8187 211.887 49.6766 212.308 49.3926C212.734 49.1037 213.056 48.6918 213.274 48.1568C213.497 47.617 213.608 46.9707 213.608 46.2178C213.608 45.4839 213.499 44.8376 213.281 44.2789C213.063 43.7202 212.744 43.2846 212.322 42.9721C211.901 42.6549 211.38 42.4962 210.76 42.4962C210.121 42.4962 209.588 42.662 209.162 42.9934C208.736 43.3201 208.414 43.7652 208.196 44.3286C207.983 44.8921 207.876 45.5218 207.876 46.2178C207.876 46.9328 207.985 47.5602 208.203 48.0999C208.421 48.6397 208.743 49.0611 209.169 49.3641C209.6 49.6672 210.13 49.8187 210.76 49.8187ZM221.692 37.198H224.185L227.985 43.8102H228.141L231.941 37.198H234.434L229.157 46.0332V51.7434H226.969V46.0332L221.692 37.198ZM238.534 51.9636C237.511 51.9636 236.618 51.7292 235.856 51.2605C235.094 50.7917 234.502 50.1359 234.081 49.2931C233.659 48.4503 233.448 47.4655 233.448 46.3386C233.448 45.2069 233.659 44.2174 234.081 43.3698C234.502 42.5223 235.094 41.8641 235.856 41.3954C236.618 40.9266 237.511 40.6923 238.534 40.6923C239.556 40.6923 240.449 40.9266 241.211 41.3954C241.974 41.8641 242.565 42.5223 242.987 43.3698C243.408 44.2174 243.619 45.2069 243.619 46.3386C243.619 47.4655 243.408 48.4503 242.987 49.2931C242.565 50.1359 241.974 50.7917 241.211 51.2605C240.449 51.7292 239.556 51.9636 238.534 51.9636ZM238.541 50.1809C239.204 50.1809 239.753 50.0057 240.188 49.6553C240.624 49.305 240.946 48.8386 241.154 48.2562C241.367 47.6738 241.474 47.0322 241.474 46.3315C241.474 45.6355 241.367 44.9962 241.154 44.4139C240.946 43.8267 240.624 43.3556 240.188 43.0005C239.753 42.6454 239.204 42.4678 238.541 42.4678C237.873 42.4678 237.319 42.6454 236.879 43.0005C236.443 43.3556 236.119 43.8267 235.906 44.4139C235.697 44.9962 235.593 45.6355 235.593 46.3315C235.593 47.0322 235.697 47.6738 235.906 48.2562C236.119 48.8386 236.443 49.305 236.879 49.6553C237.319 50.0057 237.873 50.1809 238.541 50.1809ZM252.3 47.2193V40.8343H254.43V51.7434H252.342V49.8542H252.229C251.978 50.4366 251.575 50.9219 251.021 51.3102C250.472 51.6937 249.788 51.8855 248.969 51.8855C248.268 51.8855 247.648 51.7316 247.108 51.4238C246.573 51.1113 246.152 50.6497 245.844 50.0389C245.541 49.4281 245.389 48.6729 245.389 47.7732V40.8343H247.513V47.5176C247.513 48.2609 247.719 48.8528 248.131 49.2931C248.543 49.7335 249.078 49.9536 249.736 49.9536C250.134 49.9536 250.529 49.8542 250.922 49.6553C251.32 49.4565 251.649 49.1558 251.909 48.7534C252.174 48.3509 252.305 47.8395 252.3 47.2193ZM256.684 51.7434V40.8343H258.736V42.5673H258.85C259.049 41.9802 259.399 41.5185 259.901 41.1823C260.408 40.8414 260.981 40.671 261.62 40.671C261.752 40.671 261.909 40.6757 262.089 40.6852C262.273 40.6946 262.418 40.7065 262.522 40.7207V42.7519C262.437 42.7283 262.285 42.7022 262.067 42.6738C261.85 42.6407 261.632 42.6241 261.414 42.6241C260.912 42.6241 260.465 42.7306 260.072 42.9437C259.683 43.152 259.376 43.4432 259.148 43.8173C258.921 44.1866 258.807 44.608 258.807 45.0815V51.7434H256.684ZM276.556 41.019C276.48 40.3466 276.168 39.8258 275.619 39.4565C275.07 39.0824 274.378 38.8954 273.545 38.8954C272.948 38.8954 272.432 38.9901 271.997 39.1795C271.561 39.3641 271.222 39.6198 270.981 39.9465C270.744 40.2685 270.626 40.6355 270.626 41.0474C270.626 41.393 270.706 41.6913 270.867 41.9423C271.033 42.1932 271.248 42.4039 271.514 42.5744C271.784 42.7401 272.072 42.8798 272.38 42.9934C272.688 43.1023 272.984 43.1923 273.268 43.2633L274.688 43.6326C275.152 43.7462 275.628 43.9001 276.116 44.0943C276.604 44.2884 277.056 44.5441 277.472 44.8613C277.889 45.1785 278.225 45.5715 278.481 46.0403C278.741 46.509 278.872 47.0701 278.872 47.7235C278.872 48.5474 278.659 49.2789 278.232 49.9181C277.811 50.5573 277.198 51.0616 276.393 51.4309C275.593 51.8002 274.624 51.9849 273.488 51.9849C272.399 51.9849 271.457 51.8121 270.661 51.4664C269.866 51.1208 269.243 50.6307 268.793 49.9962C268.344 49.357 268.095 48.5995 268.048 47.7235H270.249C270.292 48.2491 270.462 48.6871 270.761 49.0374C271.064 49.3831 271.45 49.6411 271.918 49.8116C272.392 49.9773 272.91 50.0602 273.474 50.0602C274.094 50.0602 274.646 49.9631 275.129 49.769C275.616 49.5701 276 49.2955 276.279 48.9451C276.559 48.59 276.698 48.1757 276.698 47.7022C276.698 47.2713 276.575 46.9186 276.329 46.644C276.087 46.3694 275.758 46.1421 275.342 45.9622C274.93 45.7822 274.463 45.6236 273.943 45.4863L272.224 45.0176C271.059 44.7003 270.136 44.2339 269.454 43.6184C268.777 43.0029 268.438 42.1885 268.438 41.1752C268.438 40.3372 268.666 39.6056 269.12 38.9806C269.575 38.3556 270.19 37.8703 270.967 37.5247C271.743 37.1743 272.619 36.9991 273.595 36.9991C274.579 36.9991 275.448 37.1719 276.201 37.5176C276.959 37.8632 277.555 38.3391 277.991 38.9451C278.427 39.5464 278.654 40.2377 278.673 41.019H276.556ZM285.425 51.9636C284.351 51.9636 283.425 51.7339 282.648 51.2747C281.877 50.8106 281.28 50.1596 280.859 49.3215C280.442 48.4787 280.234 47.4915 280.234 46.3599C280.234 45.2425 280.442 44.2576 280.859 43.4053C281.28 42.5531 281.867 41.8878 282.62 41.4096C283.378 40.9314 284.263 40.6923 285.276 40.6923C285.892 40.6923 286.488 40.7941 287.066 40.9977C287.644 41.2013 288.162 41.5209 288.621 41.9565C289.081 42.3921 289.443 42.9579 289.708 43.6539C289.973 44.3452 290.106 45.1856 290.106 46.1752V46.9281H281.434V45.3372H288.025C288.025 44.7784 287.911 44.2837 287.684 43.8528C287.457 43.4172 287.137 43.0739 286.725 42.823C286.318 42.572 285.84 42.4465 285.29 42.4465C284.694 42.4465 284.173 42.5933 283.728 42.8869C283.288 43.1757 282.947 43.5545 282.705 44.0232C282.468 44.4873 282.35 44.9915 282.35 45.536V46.7789C282.35 47.5081 282.478 48.1284 282.734 48.6397C282.994 49.1511 283.356 49.5417 283.82 49.8116C284.284 50.0767 284.826 50.2093 285.447 50.2093C285.849 50.2093 286.216 50.1525 286.548 50.0389C286.879 49.9205 287.165 49.7453 287.407 49.5133C287.648 49.2813 287.833 48.9948 287.961 48.6539L289.971 49.0161C289.81 49.608 289.521 50.1265 289.104 50.5715C288.692 51.0119 288.174 51.3552 287.549 51.6014C286.929 51.8428 286.221 51.9636 285.425 51.9636ZM293.986 45.2661V51.7434H291.862V40.8343H293.9V42.6099H294.035C294.286 42.0322 294.679 41.5682 295.214 41.2178C295.754 40.8675 296.433 40.6923 297.253 40.6923C297.996 40.6923 298.647 40.8485 299.206 41.161C299.764 41.4688 300.198 41.9281 300.505 42.5389C300.813 43.1497 300.967 43.9049 300.967 44.8045V51.7434H298.843V45.0602C298.843 44.2694 298.637 43.6516 298.226 43.2065C297.814 42.7567 297.248 42.5318 296.528 42.5318C296.036 42.5318 295.598 42.6383 295.214 42.8514C294.835 43.0644 294.535 43.3769 294.312 43.7889C294.094 44.1961 293.986 44.6885 293.986 45.2661ZM311.39 43.4977L309.465 43.8386C309.385 43.5924 309.257 43.358 309.082 43.1355C308.911 42.9129 308.679 42.7306 308.386 42.5886C308.092 42.4465 307.725 42.3755 307.285 42.3755C306.683 42.3755 306.181 42.5105 305.779 42.7803C305.377 43.0455 305.175 43.3888 305.175 43.8102C305.175 44.1748 305.31 44.4683 305.58 44.6909C305.85 44.9134 306.286 45.0957 306.887 45.2377L308.62 45.6355C309.624 45.8675 310.372 46.2249 310.864 46.7079C311.357 47.1909 311.603 47.8182 311.603 48.59C311.603 49.2434 311.413 49.8258 311.035 50.3372C310.661 50.8438 310.137 51.2415 309.465 51.5303C308.797 51.8192 308.023 51.9636 307.143 51.9636C305.921 51.9636 304.924 51.7032 304.153 51.1823C303.381 50.6568 302.907 49.911 302.732 48.9451L304.785 48.6326C304.913 49.1677 305.175 49.5725 305.573 49.8471C305.971 50.117 306.489 50.2519 307.128 50.2519C307.824 50.2519 308.381 50.1075 308.797 49.8187C309.214 49.5251 309.422 49.1677 309.422 48.7462C309.422 48.4053 309.295 48.1189 309.039 47.8869C308.788 47.6549 308.402 47.4797 307.881 47.3613L306.035 46.9565C305.017 46.7245 304.264 46.3552 303.776 45.8485C303.293 45.3419 303.052 44.7003 303.052 43.9238C303.052 43.2799 303.232 42.7164 303.591 42.2335C303.951 41.7505 304.448 41.3741 305.083 41.1042C305.717 40.8296 306.444 40.6923 307.263 40.6923C308.442 40.6923 309.37 40.948 310.047 41.4593C310.725 41.9659 311.172 42.6454 311.39 43.4977ZM313.338 51.7434V40.8343H315.461V51.7434H313.338ZM314.41 39.1511C314.041 39.1511 313.724 39.028 313.458 38.7818C313.198 38.5308 313.068 38.2325 313.068 37.8869C313.068 37.5365 313.198 37.2382 313.458 36.992C313.724 36.741 314.041 36.6156 314.41 36.6156C314.779 36.6156 315.094 36.741 315.355 36.992C315.62 37.2382 315.752 37.5365 315.752 37.8869C315.752 38.2325 315.62 38.5308 315.355 38.7818C315.094 39.028 314.779 39.1511 314.41 39.1511ZM322.811 40.8343V42.5389H316.852V40.8343H322.811ZM318.45 38.2207H320.573V48.5403C320.573 48.9522 320.635 49.2623 320.758 49.4707C320.881 49.6743 321.04 49.814 321.234 49.8897C321.433 49.9607 321.648 49.9962 321.88 49.9962C322.051 49.9962 322.2 49.9844 322.328 49.9607C322.455 49.9371 322.555 49.9181 322.626 49.9039L323.009 51.6582C322.886 51.7055 322.711 51.7529 322.484 51.8002C322.257 51.8523 321.972 51.8807 321.632 51.8855C321.073 51.8949 320.552 51.7955 320.069 51.5872C319.586 51.3788 319.195 51.0569 318.897 50.6212C318.599 50.1856 318.45 49.6388 318.45 48.9806V38.2207ZM324.56 51.7434V40.8343H326.683V51.7434H324.56ZM325.632 39.1511C325.263 39.1511 324.945 39.028 324.68 38.7818C324.42 38.5308 324.29 38.2325 324.29 37.8869C324.29 37.5365 324.42 37.2382 324.68 36.992C324.945 36.741 325.263 36.6156 325.632 36.6156C326.001 36.6156 326.316 36.741 326.577 36.992C326.842 37.2382 326.974 37.5365 326.974 37.8869C326.974 38.2325 326.842 38.5308 326.577 38.7818C326.316 39.028 326.001 39.1511 325.632 39.1511ZM338.272 40.8343L334.316 51.7434H332.044L328.081 40.8343H330.361L333.123 49.2292H333.237L335.993 40.8343H338.272ZM343.999 51.9636C342.924 51.9636 341.998 51.7339 341.222 51.2747C340.45 50.8106 339.853 50.1596 339.432 49.3215C339.015 48.4787 338.807 47.4915 338.807 46.3599C338.807 45.2425 339.015 44.2576 339.432 43.4053C339.853 42.5531 340.441 41.8878 341.193 41.4096C341.951 40.9314 342.836 40.6923 343.85 40.6923C344.465 40.6923 345.062 40.7941 345.639 40.9977C346.217 41.2013 346.736 41.5209 347.195 41.9565C347.654 42.3921 348.016 42.9579 348.281 43.6539C348.547 44.3452 348.679 45.1856 348.679 46.1752V46.9281H340.007V45.3372H346.598C346.598 44.7784 346.485 44.2837 346.257 43.8528C346.03 43.4172 345.71 43.0739 345.299 42.823C344.891 42.572 344.413 42.4465 343.864 42.4465C343.267 42.4465 342.746 42.5933 342.301 42.8869C341.861 43.1757 341.52 43.5545 341.279 44.0232C341.042 44.4873 340.924 44.9915 340.924 45.536V46.7789C340.924 47.5081 341.051 48.1284 341.307 48.6397C341.567 49.1511 341.93 49.5417 342.394 49.8116C342.858 50.0767 343.4 50.2093 344.02 50.2093C344.423 50.2093 344.79 50.1525 345.121 50.0389C345.452 49.9205 345.739 49.7453 345.98 49.5133C346.222 49.2813 346.406 48.9948 346.534 48.6539L348.544 49.0161C348.383 49.608 348.094 50.1265 347.678 50.5715C347.266 51.0119 346.747 51.3552 346.122 51.6014C345.502 51.8428 344.794 51.9636 343.999 51.9636ZM127.058 61.198V75.7434H124.864V61.198H127.058ZM131.607 69.2661V75.7434H129.484V64.8343H131.522V66.6099H131.657C131.908 66.0322 132.301 65.5682 132.836 65.2178C133.376 64.8675 134.055 64.6923 134.874 64.6923C135.618 64.6923 136.269 64.8485 136.828 65.161C137.386 65.4688 137.82 65.9281 138.127 66.5389C138.435 67.1497 138.589 67.9049 138.589 68.8045V75.7434H136.465V69.0602C136.465 68.2694 136.259 67.6516 135.847 67.2065C135.436 66.7567 134.87 66.5318 134.15 66.5318C133.658 66.5318 133.22 66.6383 132.836 66.8514C132.457 67.0644 132.157 67.3769 131.934 67.7889C131.716 68.1961 131.607 68.6885 131.607 69.2661ZM146.029 64.8343V66.5389H139.864V64.8343H146.029ZM141.554 75.7434V63.5701C141.554 62.8883 141.703 62.3225 142.002 61.8727C142.3 61.4181 142.695 61.0796 143.188 60.857C143.68 60.6298 144.215 60.5161 144.793 60.5161C145.219 60.5161 145.584 60.5516 145.887 60.6227C146.19 60.689 146.415 60.7505 146.561 60.8073L146.064 62.5261C145.965 62.4977 145.837 62.4645 145.681 62.4266C145.524 62.384 145.335 62.3627 145.112 62.3627C144.596 62.3627 144.227 62.4906 144.005 62.7462C143.787 63.0019 143.678 63.3712 143.678 63.8542V75.7434H141.554ZM151.785 75.9636C150.763 75.9636 149.87 75.7292 149.108 75.2605C148.345 74.7917 147.754 74.1359 147.332 73.2931C146.911 72.4503 146.7 71.4655 146.7 70.3386C146.7 69.2069 146.911 68.2174 147.332 67.3698C147.754 66.5223 148.345 65.8641 149.108 65.3954C149.87 64.9266 150.763 64.6923 151.785 64.6923C152.808 64.6923 153.7 64.9266 154.463 65.3954C155.225 65.8641 155.817 66.5223 156.238 67.3698C156.66 68.2174 156.87 69.2069 156.87 70.3386C156.87 71.4655 156.66 72.4503 156.238 73.2931C155.817 74.1359 155.225 74.7917 154.463 75.2605C153.7 75.7292 152.808 75.9636 151.785 75.9636ZM151.792 74.1809C152.455 74.1809 153.004 74.0057 153.44 73.6553C153.876 73.305 154.198 72.8386 154.406 72.2562C154.619 71.6738 154.726 71.0322 154.726 70.3315C154.726 69.6355 154.619 68.9962 154.406 68.4139C154.198 67.8267 153.876 67.3556 153.44 67.0005C153.004 66.6454 152.455 66.4678 151.792 66.4678C151.125 66.4678 150.571 66.6454 150.13 67.0005C149.695 67.3556 149.37 67.8267 149.157 68.4139C148.949 68.9962 148.845 69.6355 148.845 70.3315C148.845 71.0322 148.949 71.6738 149.157 72.2562C149.37 72.8386 149.695 73.305 150.13 73.6553C150.571 74.0057 151.125 74.1809 151.792 74.1809ZM158.641 75.7434V64.8343H160.693V66.5673H160.807C161.006 65.9802 161.356 65.5185 161.858 65.1823C162.365 64.8414 162.938 64.671 163.577 64.671C163.709 64.671 163.866 64.6757 164.046 64.6852C164.23 64.6946 164.375 64.7065 164.479 64.7207V66.7519C164.394 66.7283 164.242 66.7022 164.024 66.6738C163.807 66.6407 163.589 66.6241 163.371 66.6241C162.869 66.6241 162.422 66.7306 162.029 66.9437C161.64 67.152 161.333 67.4432 161.105 67.8173C160.878 68.1866 160.764 68.608 160.764 69.0815V75.7434H158.641ZM165.717 75.7434V64.8343H167.755V66.6099H167.89C168.117 66.0086 168.489 65.5398 169.005 65.2036C169.521 64.8627 170.139 64.6923 170.859 64.6923C171.588 64.6923 172.199 64.8627 172.691 65.2036C173.188 65.5445 173.555 66.0133 173.792 66.6099H173.906C174.166 66.0275 174.58 65.5635 175.148 65.2178C175.717 64.8675 176.394 64.6923 177.18 64.6923C178.169 64.6923 178.977 65.0024 179.602 65.6227C180.231 66.2429 180.546 67.1781 180.546 68.4281V75.7434H178.423V68.6269C178.423 67.8883 178.221 67.3533 177.819 67.0218C177.416 66.6904 176.936 66.5247 176.377 66.5247C175.686 66.5247 175.148 66.7377 174.765 67.1639C174.381 67.5853 174.19 68.1274 174.19 68.7903V75.7434H172.073V68.492C172.073 67.9001 171.888 67.4243 171.519 67.0644C171.15 66.7046 170.669 66.5247 170.077 66.5247C169.675 66.5247 169.303 66.6312 168.962 66.8443C168.626 67.0526 168.354 67.3438 168.146 67.7178C167.942 68.0919 167.84 68.5251 167.84 69.0176V75.7434H165.717ZM185.967 75.9849C185.276 75.9849 184.651 75.857 184.092 75.6014C183.533 75.3409 183.091 74.9645 182.764 74.4721C182.442 73.9797 182.281 73.376 182.281 72.661C182.281 72.0455 182.399 71.5389 182.636 71.1411C182.873 70.7434 183.192 70.4285 183.595 70.1965C183.997 69.9645 184.447 69.7893 184.944 69.671C185.442 69.5526 185.948 69.4626 186.464 69.4011C187.118 69.3253 187.648 69.2638 188.055 69.2164C188.462 69.1643 188.758 69.0815 188.943 68.9678C189.128 68.8542 189.22 68.6695 189.22 68.4139V68.3641C189.22 67.7439 189.045 67.2633 188.694 66.9224C188.349 66.5815 187.833 66.411 187.146 66.411C186.431 66.411 185.868 66.5696 185.456 66.8869C185.049 67.1994 184.767 67.5474 184.611 67.9309L182.615 67.4764C182.852 66.8135 183.197 66.2784 183.652 65.8712C184.111 65.4593 184.639 65.161 185.236 64.9764C185.832 64.787 186.46 64.6923 187.118 64.6923C187.553 64.6923 188.015 64.7444 188.503 64.8485C188.995 64.948 189.454 65.1326 189.88 65.4025C190.311 65.6724 190.664 66.0583 190.939 66.5602C191.213 67.0573 191.351 67.7036 191.351 68.4991V75.7434H189.277V74.2519H189.192C189.054 74.5266 188.848 74.7964 188.574 75.0616C188.299 75.3267 187.946 75.5469 187.515 75.7221C187.085 75.8973 186.568 75.9849 185.967 75.9849ZM186.429 74.2803C187.016 74.2803 187.518 74.1643 187.934 73.9323C188.356 73.7003 188.675 73.3973 188.893 73.0232C189.116 72.6444 189.227 72.2396 189.227 71.8087V70.4025C189.151 70.4783 189.005 70.5493 188.787 70.6156C188.574 70.6771 188.33 70.7316 188.055 70.7789C187.781 70.8215 187.513 70.8618 187.253 70.8997C186.992 70.9328 186.774 70.9612 186.599 70.9849C186.187 71.037 185.811 71.1246 185.47 71.2477C185.134 71.3708 184.864 71.5483 184.66 71.7803C184.461 72.0076 184.362 72.3106 184.362 72.6894C184.362 73.215 184.556 73.6127 184.944 73.8826C185.333 74.1478 185.827 74.2803 186.429 74.2803ZM198.671 64.8343V66.5389H192.713V64.8343H198.671ZM194.311 62.2207H196.434V72.5403C196.434 72.9522 196.496 73.2623 196.619 73.4707C196.742 73.6743 196.901 73.814 197.095 73.8897C197.294 73.9607 197.509 73.9962 197.741 73.9962C197.912 73.9962 198.061 73.9844 198.188 73.9607C198.316 73.9371 198.416 73.9181 198.487 73.9039L198.87 75.6582C198.747 75.7055 198.572 75.7529 198.345 75.8002C198.117 75.8523 197.833 75.8807 197.492 75.8855C196.934 75.8949 196.413 75.7955 195.93 75.5872C195.447 75.3788 195.056 75.0569 194.758 74.6212C194.46 74.1856 194.311 73.6388 194.311 72.9806V62.2207ZM200.421 75.7434V64.8343H202.544V75.7434H200.421ZM201.493 63.1511C201.124 63.1511 200.806 63.028 200.541 62.7818C200.281 62.5308 200.151 62.2325 200.151 61.8869C200.151 61.5365 200.281 61.2382 200.541 60.992C200.806 60.741 201.124 60.6156 201.493 60.6156C201.862 60.6156 202.177 60.741 202.438 60.992C202.703 61.2382 202.835 61.5365 202.835 61.8869C202.835 62.2325 202.703 62.5308 202.438 62.7818C202.177 63.028 201.862 63.1511 201.493 63.1511ZM209.396 75.9636C208.373 75.9636 207.481 75.7292 206.719 75.2605C205.956 74.7917 205.364 74.1359 204.943 73.2931C204.522 72.4503 204.311 71.4655 204.311 70.3386C204.311 69.2069 204.522 68.2174 204.943 67.3698C205.364 66.5223 205.956 65.8641 206.719 65.3954C207.481 64.9266 208.373 64.6923 209.396 64.6923C210.419 64.6923 211.311 64.9266 212.074 65.3954C212.836 65.8641 213.428 66.5223 213.849 67.3698C214.271 68.2174 214.481 69.2069 214.481 70.3386C214.481 71.4655 214.271 72.4503 213.849 73.2931C213.428 74.1359 212.836 74.7917 212.074 75.2605C211.311 75.7292 210.419 75.9636 209.396 75.9636ZM209.403 74.1809C210.066 74.1809 210.615 74.0057 211.051 73.6553C211.487 73.305 211.809 72.8386 212.017 72.2562C212.23 71.6738 212.337 71.0322 212.337 70.3315C212.337 69.6355 212.23 68.9962 212.017 68.4139C211.809 67.8267 211.487 67.3556 211.051 67.0005C210.615 66.6454 210.066 66.4678 209.403 66.4678C208.736 66.4678 208.182 66.6454 207.741 67.0005C207.306 67.3556 206.981 67.8267 206.768 68.4139C206.56 68.9962 206.456 69.6355 206.456 70.3315C206.456 71.0322 206.56 71.6738 206.768 72.2562C206.981 72.8386 207.306 73.305 207.741 73.6553C208.182 74.0057 208.736 74.1809 209.403 74.1809ZM218.375 69.2661V75.7434H216.252V64.8343H218.29V66.6099H218.425C218.676 66.0322 219.069 65.5682 219.604 65.2178C220.144 64.8675 220.823 64.6923 221.642 64.6923C222.386 64.6923 223.037 64.8485 223.596 65.161C224.154 65.4688 224.587 65.9281 224.895 66.5389C225.203 67.1497 225.357 67.9049 225.357 68.8045V75.7434H223.233V69.0602C223.233 68.2694 223.027 67.6516 222.615 67.2065C222.203 66.7567 221.638 66.5318 220.918 66.5318C220.426 66.5318 219.988 66.6383 219.604 66.8514C219.225 67.0644 218.925 67.3769 218.702 67.7889C218.484 68.1961 218.375 68.6885 218.375 69.2661ZM235.316 75.7434L231.282 61.198H233.59L236.424 72.4622H236.559L239.507 61.198H241.794L244.741 72.4693H244.876L247.703 61.198H250.018L245.977 75.7434H243.768L240.707 64.8485H240.593L237.532 75.7434H235.316ZM251.249 75.7434V64.8343H253.372V75.7434H251.249ZM252.321 63.1511C251.952 63.1511 251.635 63.028 251.369 62.7818C251.109 62.5308 250.979 62.2325 250.979 61.8869C250.979 61.5365 251.109 61.2382 251.369 60.992C251.635 60.741 251.952 60.6156 252.321 60.6156C252.69 60.6156 253.005 60.741 253.266 60.992C253.531 61.2382 253.663 61.5365 253.663 61.8869C253.663 62.2325 253.531 62.5308 253.266 62.7818C253.005 63.028 252.69 63.1511 252.321 63.1511ZM260.721 64.8343V66.5389H254.763V64.8343H260.721ZM256.361 62.2207H258.484V72.5403C258.484 72.9522 258.546 73.2623 258.669 73.4707C258.792 73.6743 258.951 73.814 259.145 73.8897C259.344 73.9607 259.559 73.9962 259.791 73.9962C259.962 73.9962 260.111 73.9844 260.239 73.9607C260.366 73.9371 260.466 73.9181 260.537 73.9039L260.92 75.6582C260.797 75.7055 260.622 75.7529 260.395 75.8002C260.167 75.8523 259.883 75.8807 259.542 75.8855C258.984 75.8949 258.463 75.7955 257.98 75.5872C257.497 75.3788 257.106 75.0569 256.808 74.6212C256.51 74.1856 256.361 73.6388 256.361 72.9806V62.2207ZM264.828 69.2661V75.7434H262.705V61.198H264.8V66.6099H264.935C265.191 66.0228 265.581 65.5564 266.107 65.2107C266.632 64.8651 267.319 64.6923 268.167 64.6923C268.915 64.6923 269.568 64.8462 270.127 65.1539C270.69 65.4617 271.126 65.921 271.434 66.5318C271.746 67.1378 271.902 67.8954 271.902 68.8045V75.7434H269.779V69.0602C269.779 68.26 269.573 67.6397 269.161 67.1994C268.749 66.7543 268.176 66.5318 267.442 66.5318C266.94 66.5318 266.49 66.6383 266.093 66.8514C265.7 67.0644 265.39 67.3769 265.162 67.7889C264.94 68.1961 264.828 68.6885 264.828 69.2661ZM288.353 61.198H290.555V70.7647C290.555 71.7827 290.316 72.6847 289.838 73.4707C289.359 74.2519 288.687 74.8675 287.821 75.3173C286.954 75.7623 285.938 75.9849 284.774 75.9849C283.614 75.9849 282.6 75.7623 281.734 75.3173C280.867 74.8675 280.195 74.2519 279.717 73.4707C279.239 72.6847 279 71.7827 279 70.7647V61.198H281.194V70.5872C281.194 71.2453 281.339 71.8301 281.627 72.3414C281.921 72.8528 282.335 73.2552 282.87 73.5488C283.405 73.8376 284.04 73.982 284.774 73.982C285.512 73.982 286.149 73.8376 286.684 73.5488C287.224 73.2552 287.636 72.8528 287.92 72.3414C288.209 71.8301 288.353 71.2453 288.353 70.5872V61.198ZM298.068 64.8343V66.5389H292.109V64.8343H298.068ZM293.707 62.2207H295.83V72.5403C295.83 72.9522 295.892 73.2623 296.015 73.4707C296.138 73.6743 296.297 73.814 296.491 73.8897C296.69 73.9607 296.905 73.9962 297.137 73.9962C297.308 73.9962 297.457 73.9844 297.585 73.9607C297.712 73.9371 297.812 73.9181 297.883 73.9039L298.266 75.6582C298.143 75.7055 297.968 75.7529 297.741 75.8002C297.514 75.8523 297.229 75.8807 296.889 75.8855C296.33 75.8949 295.809 75.7955 295.326 75.5872C294.843 75.3788 294.452 75.0569 294.154 74.6212C293.856 74.1856 293.707 73.6388 293.707 72.9806V62.2207ZM299.817 75.7434V64.8343H301.855V66.6099H301.99C302.217 66.0086 302.589 65.5398 303.105 65.2036C303.621 64.8627 304.239 64.6923 304.959 64.6923C305.688 64.6923 306.299 64.8627 306.791 65.2036C307.288 65.5445 307.655 66.0133 307.892 66.6099H308.006C308.266 66.0275 308.68 65.5635 309.248 65.2178C309.817 64.8675 310.494 64.6923 311.28 64.6923C312.269 64.6923 313.077 65.0024 313.702 65.6227C314.331 66.2429 314.646 67.1781 314.646 68.4281V75.7434H312.523V68.6269C312.523 67.8883 312.321 67.3533 311.919 67.0218C311.516 66.6904 311.036 66.5247 310.477 66.5247C309.786 66.5247 309.248 66.7377 308.865 67.1639C308.481 67.5853 308.29 68.1274 308.29 68.7903V75.7434H306.173V68.492C306.173 67.9001 305.989 67.4243 305.619 67.0644C305.25 66.7046 304.769 66.5247 304.177 66.5247C303.775 66.5247 303.403 66.6312 303.062 66.8443C302.726 67.0526 302.454 67.3438 302.246 67.7178C302.042 68.0919 301.94 68.5251 301.94 69.0176V75.7434H299.817ZM321.488 75.9636C320.465 75.9636 319.572 75.7292 318.81 75.2605C318.048 74.7917 317.456 74.1359 317.034 73.2931C316.613 72.4503 316.402 71.4655 316.402 70.3386C316.402 69.2069 316.613 68.2174 317.034 67.3698C317.456 66.5223 318.048 65.8641 318.81 65.3954C319.572 64.9266 320.465 64.6923 321.488 64.6923C322.51 64.6923 323.403 64.9266 324.165 65.3954C324.927 65.8641 325.519 66.5223 325.941 67.3698C326.362 68.2174 326.573 69.2069 326.573 70.3386C326.573 71.4655 326.362 72.4503 325.941 73.2931C325.519 74.1359 324.927 74.7917 324.165 75.2605C323.403 75.7292 322.51 75.9636 321.488 75.9636ZM321.495 74.1809C322.158 74.1809 322.707 74.0057 323.142 73.6553C323.578 73.305 323.9 72.8386 324.108 72.2562C324.321 71.6738 324.428 71.0322 324.428 70.3315C324.428 69.6355 324.321 68.9962 324.108 68.4139C323.9 67.8267 323.578 67.3556 323.142 67.0005C322.707 66.6454 322.158 66.4678 321.495 66.4678C320.827 66.4678 320.273 66.6454 319.833 67.0005C319.397 67.3556 319.073 67.8267 318.86 68.4139C318.651 68.9962 318.547 69.6355 318.547 70.3315C318.547 71.0322 318.651 71.6738 318.86 72.2562C319.073 72.8386 319.397 73.305 319.833 73.6553C320.273 74.0057 320.827 74.1809 321.495 74.1809ZM336.518 67.4977L334.593 67.8386C334.513 67.5924 334.385 67.358 334.21 67.1355C334.039 66.9129 333.807 66.7306 333.514 66.5886C333.22 66.4465 332.853 66.3755 332.413 66.3755C331.811 66.3755 331.31 66.5105 330.907 66.7803C330.505 67.0455 330.303 67.3888 330.303 67.8102C330.303 68.1748 330.438 68.4683 330.708 68.6909C330.978 68.9134 331.414 69.0957 332.015 69.2377L333.748 69.6355C334.752 69.8675 335.5 70.2249 335.992 70.7079C336.485 71.1909 336.731 71.8182 336.731 72.59C336.731 73.2434 336.542 73.8258 336.163 74.3372C335.789 74.8438 335.266 75.2415 334.593 75.5303C333.926 75.8192 333.151 75.9636 332.271 75.9636C331.049 75.9636 330.052 75.7032 329.281 75.1823C328.509 74.6568 328.035 73.911 327.86 72.9451L329.913 72.6326C330.041 73.1677 330.303 73.5725 330.701 73.8471C331.099 74.117 331.617 74.2519 332.257 74.2519C332.953 74.2519 333.509 74.1075 333.926 73.8187C334.342 73.5251 334.551 73.1677 334.551 72.7462C334.551 72.4053 334.423 72.1189 334.167 71.8869C333.916 71.6549 333.53 71.4797 333.009 71.3613L331.163 70.9565C330.145 70.7245 329.392 70.3552 328.904 69.8485C328.421 69.3419 328.18 68.7003 328.18 67.9238C328.18 67.2799 328.36 66.7164 328.72 66.2335C329.079 65.7505 329.577 65.3741 330.211 65.1042C330.846 64.8296 331.572 64.6923 332.391 64.6923C333.57 64.6923 334.498 64.948 335.176 65.4593C335.853 65.9659 336.3 66.6454 336.518 67.4977ZM343.558 64.8343V66.5389H337.599V64.8343H343.558ZM339.197 62.2207H341.321V72.5403C341.321 72.9522 341.383 73.2623 341.506 73.4707C341.629 73.6743 341.787 73.814 341.981 73.8897C342.18 73.9607 342.396 73.9962 342.628 73.9962C342.798 73.9962 342.947 73.9844 343.075 73.9607C343.203 73.9371 343.302 73.9181 343.374 73.9039L343.757 75.6582C343.634 75.7055 343.459 75.7529 343.231 75.8002C343.004 75.8523 342.72 75.8807 342.379 75.8855C341.82 75.8949 341.3 75.7955 340.817 75.5872C340.334 75.3788 339.943 75.0569 339.645 74.6212C339.347 74.1856 339.197 73.6388 339.197 72.9806V62.2207ZM129.572 99.7434H124.864V85.198H129.722C131.147 85.198 132.371 85.4891 133.393 86.0715C134.416 86.6492 135.2 87.4801 135.744 88.5644C136.294 89.644 136.568 90.939 136.568 92.4494C136.568 93.9645 136.291 95.2666 135.737 96.3556C135.188 97.4446 134.393 98.2827 133.351 98.8698C132.309 99.4522 131.05 99.7434 129.572 99.7434ZM127.058 97.8258H129.452C130.56 97.8258 131.481 97.6175 132.214 97.2008C132.948 96.7794 133.498 96.171 133.862 95.3755C134.227 94.5753 134.409 93.5999 134.409 92.4494C134.409 91.3083 134.227 90.34 133.862 89.5445C133.502 88.7491 132.965 88.1454 132.25 87.7335C131.535 87.3215 130.647 87.1156 129.587 87.1156H127.058V97.8258ZM138.527 99.7434V88.8343H140.65V99.7434H138.527ZM139.599 87.1511C139.23 87.1511 138.913 87.028 138.648 86.7818C138.387 86.5308 138.257 86.2325 138.257 85.8869C138.257 85.5365 138.387 85.2382 138.648 84.992C138.913 84.741 139.23 84.6156 139.599 84.6156C139.969 84.6156 140.283 84.741 140.544 84.992C140.809 85.2382 140.942 85.5365 140.942 85.8869C140.942 86.2325 140.809 86.5308 140.544 86.7818C140.283 87.028 139.969 87.1511 139.599 87.1511ZM151.082 91.4977L149.157 91.8386C149.077 91.5924 148.949 91.358 148.774 91.1355C148.603 90.9129 148.371 90.7306 148.078 90.5886C147.784 90.4465 147.417 90.3755 146.977 90.3755C146.376 90.3755 145.874 90.5105 145.471 90.7803C145.069 91.0455 144.867 91.3888 144.867 91.8102C144.867 92.1748 145.002 92.4683 145.272 92.6909C145.542 92.9134 145.978 93.0957 146.579 93.2377L148.312 93.6355C149.316 93.8675 150.064 94.2249 150.556 94.7079C151.049 95.1909 151.295 95.8182 151.295 96.59C151.295 97.2434 151.106 97.8258 150.727 98.3372C150.353 98.8438 149.83 99.2415 149.157 99.5303C148.49 99.8192 147.715 99.9636 146.835 99.9636C145.613 99.9636 144.617 99.7032 143.845 99.1823C143.073 98.6568 142.599 97.911 142.424 96.9451L144.477 96.6326C144.605 97.1677 144.867 97.5725 145.265 97.8471C145.663 98.117 146.181 98.2519 146.821 98.2519C147.517 98.2519 148.073 98.1075 148.49 97.8187C148.906 97.5251 149.115 97.1677 149.115 96.7462C149.115 96.4053 148.987 96.1189 148.731 95.8869C148.48 95.6549 148.094 95.4797 147.573 95.3613L145.727 94.9565C144.709 94.7245 143.956 94.3552 143.468 93.8485C142.985 93.3419 142.744 92.7003 142.744 91.9238C142.744 91.2799 142.924 90.7164 143.284 90.2335C143.644 89.7505 144.141 89.3741 144.775 89.1042C145.41 88.8296 146.136 88.6923 146.956 88.6923C148.135 88.6923 149.063 88.948 149.74 89.4593C150.417 89.9659 150.864 90.6454 151.082 91.4977ZM157.625 99.9636C156.569 99.9636 155.66 99.7245 154.898 99.2462C154.14 98.7633 153.558 98.098 153.151 97.2505C152.743 96.403 152.54 95.4323 152.54 94.3386C152.54 93.2306 152.748 92.2529 153.165 91.4053C153.582 90.5531 154.169 89.8878 154.926 89.4096C155.684 88.9314 156.576 88.6923 157.604 88.6923C158.432 88.6923 159.171 88.8462 159.82 89.1539C160.468 89.4569 160.992 89.8831 161.389 90.4323C161.792 90.9816 162.031 91.6231 162.107 92.357H160.04C159.926 91.8457 159.666 91.4053 159.259 91.036C158.856 90.6667 158.316 90.482 157.639 90.482C157.047 90.482 156.529 90.6383 156.084 90.9508C155.644 91.2586 155.3 91.6989 155.054 92.2718C154.808 92.84 154.685 93.5123 154.685 94.2889C154.685 95.0843 154.805 95.7709 155.047 96.3485C155.288 96.9262 155.629 97.3736 156.07 97.6909C156.515 98.0081 157.038 98.1667 157.639 98.1667C158.042 98.1667 158.406 98.0933 158.733 97.9465C159.064 97.795 159.341 97.5796 159.564 97.3002C159.791 97.0209 159.95 96.6847 160.04 96.2917H162.107C162.031 96.9972 161.801 97.6269 161.418 98.1809C161.034 98.7349 160.52 99.1705 159.876 99.4877C159.237 99.805 158.487 99.9636 157.625 99.9636ZM163.778 99.7434V88.8343H165.83V90.5673H165.944C166.143 89.9802 166.493 89.5185 166.995 89.1823C167.502 88.8414 168.074 88.671 168.714 88.671C168.846 88.671 169.002 88.6757 169.182 88.6852C169.367 88.6946 169.511 88.7065 169.616 88.7207V90.7519C169.53 90.7283 169.379 90.7022 169.161 90.6738C168.943 90.6407 168.725 90.6241 168.508 90.6241C168.006 90.6241 167.558 90.7306 167.165 90.9437C166.777 91.152 166.469 91.4432 166.242 91.8173C166.015 92.1866 165.901 92.608 165.901 93.0815V99.7434H163.778ZM175.164 99.9636C174.09 99.9636 173.164 99.7339 172.387 99.2747C171.616 98.8106 171.019 98.1596 170.598 97.3215C170.181 96.4787 169.973 95.4915 169.973 94.3599C169.973 93.2425 170.181 92.2576 170.598 91.4053C171.019 90.5531 171.606 89.8878 172.359 89.4096C173.117 88.9314 174.002 88.6923 175.015 88.6923C175.631 88.6923 176.227 88.7941 176.805 88.9977C177.383 89.2013 177.901 89.5209 178.36 89.9565C178.82 90.3921 179.182 90.9579 179.447 91.6539C179.712 92.3452 179.845 93.1856 179.845 94.1752V94.9281H171.173V93.3372H177.764C177.764 92.7784 177.65 92.2837 177.423 91.8528C177.196 91.4172 176.876 91.0739 176.464 90.823C176.057 90.572 175.579 90.4465 175.029 90.4465C174.433 90.4465 173.912 90.5933 173.467 90.8869C173.027 91.1757 172.686 91.5545 172.444 92.0232C172.208 92.4873 172.089 92.9915 172.089 93.536V94.7789C172.089 95.5081 172.217 96.1284 172.473 96.6397C172.733 97.1511 173.095 97.5417 173.559 97.8116C174.023 98.0767 174.565 98.2093 175.186 98.2093C175.588 98.2093 175.955 98.1525 176.287 98.0389C176.618 97.9205 176.904 97.7453 177.146 97.5133C177.387 97.2813 177.572 96.9948 177.7 96.6539L179.71 97.0161C179.549 97.608 179.26 98.1265 178.843 98.5715C178.431 99.0119 177.913 99.3552 177.288 99.6014C176.668 99.8428 175.96 99.9636 175.164 99.9636ZM186.693 88.8343V90.5389H180.735V88.8343H186.693ZM182.333 86.2207H184.456V96.5403C184.456 96.9522 184.518 97.2623 184.641 97.4707C184.764 97.6743 184.922 97.814 185.117 97.8897C185.315 97.9607 185.531 97.9962 185.763 97.9962C185.933 97.9962 186.083 97.9844 186.21 97.9607C186.338 97.9371 186.438 97.9181 186.509 97.9039L186.892 99.6582C186.769 99.7055 186.594 99.7529 186.367 99.8002C186.139 99.8523 185.855 99.8807 185.514 99.8855C184.956 99.8949 184.435 99.7955 183.952 99.5872C183.469 99.3788 183.078 99.0569 182.78 98.6212C182.482 98.1856 182.333 97.6388 182.333 96.9806V86.2207ZM188.442 99.7434V88.8343H190.566V99.7434H188.442ZM189.515 87.1511C189.146 87.1511 188.828 87.028 188.563 86.7818C188.303 86.5308 188.173 86.2325 188.173 85.8869C188.173 85.5365 188.303 85.2382 188.563 84.992C188.828 84.741 189.146 84.6156 189.515 84.6156C189.884 84.6156 190.199 84.741 190.459 84.992C190.725 85.2382 190.857 85.5365 190.857 85.8869C190.857 86.2325 190.725 86.5308 190.459 86.7818C190.199 87.028 189.884 87.1511 189.515 87.1511ZM197.418 99.9636C196.395 99.9636 195.503 99.7292 194.74 99.2605C193.978 98.7917 193.386 98.1359 192.965 97.2931C192.544 96.4503 192.333 95.4655 192.333 94.3386C192.333 93.2069 192.544 92.2174 192.965 91.3698C193.386 90.5223 193.978 89.8641 194.74 89.3954C195.503 88.9266 196.395 88.6923 197.418 88.6923C198.441 88.6923 199.333 88.9266 200.096 89.3954C200.858 89.8641 201.45 90.5223 201.871 91.3698C202.293 92.2174 202.503 93.2069 202.503 94.3386C202.503 95.4655 202.293 96.4503 201.871 97.2931C201.45 98.1359 200.858 98.7917 200.096 99.2605C199.333 99.7292 198.441 99.9636 197.418 99.9636ZM197.425 98.1809C198.088 98.1809 198.637 98.0057 199.073 97.6553C199.508 97.305 199.83 96.8386 200.039 96.2562C200.252 95.6738 200.358 95.0322 200.358 94.3315C200.358 93.6355 200.252 92.9962 200.039 92.4139C199.83 91.8267 199.508 91.3556 199.073 91.0005C198.637 90.6454 198.088 90.4678 197.425 90.4678C196.758 90.4678 196.204 90.6454 195.763 91.0005C195.328 91.3556 195.003 91.8267 194.79 92.4139C194.582 92.9962 194.478 93.6355 194.478 94.3315C194.478 95.0322 194.582 95.6738 194.79 96.2562C195.003 96.8386 195.328 97.305 195.763 97.6553C196.204 98.0057 196.758 98.1809 197.425 98.1809ZM206.397 93.2661V99.7434H204.274V88.8343H206.312V90.6099H206.447C206.698 90.0322 207.091 89.5682 207.626 89.2178C208.166 88.8675 208.845 88.6923 209.664 88.6923C210.408 88.6923 211.059 88.8485 211.617 89.161C212.176 89.4688 212.609 89.9281 212.917 90.5389C213.225 91.1497 213.379 91.9049 213.379 92.8045V99.7434H211.255V93.0602C211.255 92.2694 211.049 91.6516 210.637 91.2065C210.225 90.7567 209.66 90.5318 208.94 90.5318C208.447 90.5318 208.009 90.6383 207.626 90.8514C207.247 91.0644 206.946 91.3769 206.724 91.7889C206.506 92.1961 206.397 92.6885 206.397 93.2661ZM217.026 99.8784C216.638 99.8784 216.304 99.741 216.025 99.4664C215.745 99.1871 215.605 98.8509 215.605 98.4579C215.605 98.0696 215.745 97.7382 216.025 97.4636C216.304 97.1842 216.638 97.0445 217.026 97.0445C217.414 97.0445 217.748 97.1842 218.027 97.4636C218.307 97.7382 218.446 98.0696 218.446 98.4579C218.446 98.7183 218.38 98.9574 218.248 99.1752C218.12 99.3883 217.949 99.5587 217.736 99.6866C217.523 99.8144 217.286 99.8784 217.026 99.8784Z" fill="white"/>
<defs>
<radialGradient id="paint0_radial_1048_1123" cx="0" cy="0" r="1" gradientUnits="userSpaceOnUse" gradientTransform="translate(195.638 68.1135) scale(195.373 67.3701)">
<stop stop-color="#02001D" stop-opacity="0.1"/>
<stop offset="1" stop-color="#1885B9" stop-opacity="0.1"/>
</radialGradient>
<radialGradient id="paint1_radial_1048_1123" cx="0" cy="0" r="1" gradientUnits="userSpaceOnUse" gradientTransform="translate(59.2656 68.1125) rotate(90) scale(36)">
<stop stop-color="#02001D" stop-opacity="0.1"/>
<stop offset="1" stop-color="#1885B9" stop-opacity="0.1"/>
</radialGradient>
</defs>
</svg>
