<svg width="214" height="215" viewBox="0 0 214 215" fill="none" xmlns="http://www.w3.org/2000/svg">
<g clip-path="url(#clip0_1048_1141)">
<path d="M188.825 143.544C183.079 159.117 174.389 172.658 162.993 183.786C150.022 196.453 133.036 206.518 112.508 213.698C111.835 213.932 111.132 214.125 110.426 214.267C109.493 214.451 108.543 214.551 107.602 214.564H107.418C106.415 214.564 105.407 214.463 104.407 214.267C103.701 214.125 103.008 213.932 102.337 213.702C81.7848 206.534 64.7781 196.474 51.7935 183.807C40.3927 172.679 31.7042 159.146 25.9663 143.573C15.5326 115.259 16.1263 84.0672 16.6042 59.0017L16.6124 58.6168C16.7086 56.547 16.7706 54.3728 16.8048 51.972C16.9794 40.1846 26.3512 30.4327 38.1402 29.7754C62.7197 28.4037 81.7342 20.3872 97.9808 4.55165L98.1227 4.42117C100.82 1.94691 104.219 0.733426 107.602 0.783988C110.864 0.826394 114.113 2.03824 116.715 4.42117L116.853 4.55165C133.103 20.3872 152.118 28.4037 176.697 29.7754C188.486 30.4327 197.858 40.1846 198.033 51.972C198.067 54.3892 198.129 56.56 198.225 58.6168L198.23 58.7799C198.706 83.8927 199.297 115.146 188.825 143.544Z" fill="#00DD80"/>
<path d="M188.825 143.545C183.079 159.118 174.389 172.658 162.993 183.787C150.021 196.453 133.036 206.518 112.508 213.698C111.834 213.933 111.131 214.125 110.425 214.267C109.492 214.452 108.543 214.551 107.602 214.564V0.784424C110.864 0.826831 114.113 2.03868 116.714 4.4216L116.853 4.55208C133.103 20.3877 152.117 28.4042 176.697 29.7758C188.486 30.4331 197.857 40.185 198.032 51.9724C198.066 54.3896 198.128 56.5605 198.224 58.6172L198.229 58.7803C198.706 83.8932 199.296 115.147 188.825 143.545Z" fill="#00AA63"/>
<path d="M160.692 107.673C160.692 136.987 136.891 160.849 107.601 160.953H107.413C78.0371 160.953 54.1328 137.051 54.1328 107.673C54.1328 78.2964 78.0371 54.3938 107.413 54.3938H107.601C136.891 54.4982 160.692 78.36 160.692 107.673Z" fill="white"/>
<path d="M160.693 107.673C160.693 136.987 136.891 160.849 107.602 160.953V54.3938C136.891 54.4982 160.693 78.36 160.693 107.673Z" fill="#E1EBF0"/>
<path d="M131.595 100L107.599 123.999L102.414 129.184C101.19 130.409 99.583 131.021 97.9781 131.021C96.3715 131.021 94.7666 130.409 93.5401 129.184L82.392 118.031C79.9422 115.581 79.9422 111.613 82.392 109.162C84.8386 106.712 88.8117 106.712 91.2615 109.162L97.9781 115.878L122.726 91.1308C125.175 88.6794 129.149 88.6794 131.595 91.1308C134.045 93.5806 134.045 97.5538 131.595 100Z" fill="#B4D2D7"/>
<path d="M131.597 100L107.602 123.999V106.255L122.728 91.1308C125.177 88.6794 129.151 88.6794 131.597 91.1308C134.047 93.5806 134.047 97.5538 131.597 100Z" fill="#6FA5AA"/>
</g>
<defs>
<clipPath id="clip0_1048_1141">
<rect width="213.781" height="213.781" fill="white" transform="translate(0.109375 0.782471)"/>
</clipPath>
</defs>
</svg>
