<svg width="76" height="108" viewBox="0 0 76 108" fill="none" xmlns="http://www.w3.org/2000/svg">
<path d="M3.71662 0.0325813V11.6689H2.30753V0.0325813H3.71662ZM7.70099 6.41895V11.6689H6.36009V2.94167H7.65554V4.30531H7.76918C7.97372 3.86213 8.28433 3.50607 8.70099 3.23713C9.11766 2.9644 9.65554 2.82804 10.3146 2.82804C10.9055 2.82804 11.4226 2.94925 11.8658 3.19167C12.3089 3.43031 12.6536 3.79395 12.8999 4.28258C13.1461 4.76743 13.2692 5.38107 13.2692 6.12349V11.6689H11.9283V6.2144C11.9283 5.52879 11.7502 4.9947 11.3942 4.61213C11.0381 4.22576 10.5495 4.03258 9.92827 4.03258C9.50024 4.03258 9.11766 4.12538 8.78054 4.31099C8.44721 4.4966 8.18395 4.76743 7.99077 5.12349C7.79759 5.47955 7.70099 5.91137 7.70099 6.41895ZM21.9013 4.89622L20.6967 5.23713C20.621 5.03637 20.5092 4.84129 20.3615 4.6519C20.2176 4.45872 20.0206 4.29963 19.7706 4.17463C19.5206 4.04963 19.2005 3.98713 18.8104 3.98713C18.2763 3.98713 17.8312 4.11023 17.4751 4.35645C17.1229 4.59887 16.9467 4.90758 16.9467 5.28258C16.9467 5.61591 17.0679 5.87917 17.3104 6.07235C17.5528 6.26554 17.9316 6.42652 18.4467 6.55531L19.7422 6.87349C20.5225 7.06288 21.1039 7.35266 21.4865 7.74281C21.8691 8.12917 22.0604 8.62728 22.0604 9.23713C22.0604 9.73713 21.9164 10.1841 21.6286 10.578C21.3445 10.972 20.9467 11.2826 20.4354 11.5099C19.924 11.7371 19.3293 11.8508 18.6513 11.8508C17.7611 11.8508 17.0244 11.6576 16.4411 11.2712C15.8577 10.8849 15.4884 10.3205 15.3331 9.57804L16.6058 9.25985C16.727 9.72955 16.9562 10.0818 17.2933 10.3167C17.6342 10.5515 18.0793 10.6689 18.6286 10.6689C19.2536 10.6689 19.7498 10.5364 20.1172 10.2712C20.4884 10.0023 20.674 9.68031 20.674 9.30531C20.674 9.00228 20.5679 8.74849 20.3558 8.54395C20.1437 8.33561 19.8179 8.18031 19.3786 8.07804L17.924 7.73713C17.1248 7.54773 16.5376 7.25417 16.1626 6.85645C15.7914 6.45493 15.6058 5.95304 15.6058 5.35076C15.6058 4.85834 15.7441 4.42273 16.0206 4.04395C16.3009 3.66516 16.6816 3.36781 17.1626 3.1519C17.6475 2.93599 18.1967 2.82804 18.8104 2.82804C19.674 2.82804 20.352 3.01743 20.8445 3.39622C21.3407 3.77501 21.6929 4.27501 21.9013 4.89622ZM27.8743 2.94167V4.07804H23.3516V2.94167H27.8743ZM24.6697 0.850763H26.0107V9.16895C26.0107 9.54773 26.0656 9.83182 26.1754 10.0212C26.2891 10.2068 26.433 10.3318 26.6072 10.3962C26.7853 10.4568 26.9728 10.4871 27.1697 10.4871C27.3175 10.4871 27.4387 10.4796 27.5334 10.4644C27.6281 10.4455 27.7038 10.4303 27.7607 10.4189L28.0334 11.6235C27.9425 11.6576 27.8156 11.6917 27.6527 11.7258C27.4898 11.7636 27.2834 11.7826 27.0334 11.7826C26.6546 11.7826 26.2834 11.7011 25.9197 11.5383C25.5599 11.3754 25.2607 11.1273 25.022 10.7939C24.7872 10.4606 24.6697 10.0402 24.6697 9.53258V0.850763ZM32.4595 11.8735C31.9065 11.8735 31.4046 11.7693 30.9538 11.561C30.5031 11.3489 30.1451 11.0439 29.88 10.6462C29.6148 10.2447 29.4822 9.75985 29.4822 9.19167C29.4822 8.69167 29.5807 8.28637 29.7777 7.97576C29.9747 7.66137 30.2379 7.41516 30.5675 7.23713C30.897 7.0591 31.2607 6.92652 31.6584 6.8394C32.0599 6.74849 32.4633 6.67652 32.8686 6.62349C33.3989 6.55531 33.8288 6.50417 34.1584 6.47008C34.4917 6.4322 34.7341 6.3697 34.8857 6.28258C35.041 6.19546 35.1186 6.04395 35.1186 5.82804V5.78258C35.1186 5.22198 34.9652 4.78637 34.6584 4.47576C34.3554 4.16516 33.8951 4.00985 33.2777 4.00985C32.6375 4.00985 32.1357 4.15001 31.772 4.43031C31.4084 4.71061 31.1527 5.00985 31.005 5.32804L29.7322 4.87349C29.9595 4.34319 30.2625 3.93031 30.6413 3.63485C31.0239 3.33561 31.4406 3.12728 31.8913 3.00985C32.3459 2.88864 32.7929 2.82804 33.2322 2.82804C33.5125 2.82804 33.8345 2.86213 34.1982 2.93031C34.5656 2.9947 34.9197 3.12917 35.2607 3.33372C35.6054 3.53826 35.8913 3.84698 36.1186 4.25985C36.3459 4.67273 36.4595 5.22576 36.4595 5.91895V11.6689H35.1186V10.4871H35.0504C34.9595 10.6765 34.808 10.8792 34.5959 11.0951C34.3838 11.311 34.1016 11.4947 33.7493 11.6462C33.397 11.7977 32.9671 11.8735 32.4595 11.8735ZM32.6641 10.6689C33.1944 10.6689 33.6413 10.5648 34.005 10.3564C34.3724 10.1481 34.6489 9.87917 34.8345 9.54963C35.0239 9.22008 35.1186 8.87349 35.1186 8.50985V7.28258C35.0618 7.35076 34.9368 7.41326 34.7436 7.47008C34.5542 7.52311 34.3345 7.57046 34.0845 7.61213C33.8383 7.65001 33.5978 7.6841 33.3629 7.7144C33.1319 7.74091 32.9444 7.76364 32.8004 7.78258C32.4519 7.82804 32.1262 7.9019 31.8232 8.00417C31.5239 8.10266 31.2815 8.25228 31.0959 8.45304C30.9141 8.65001 30.8232 8.91895 30.8232 9.25985C30.8232 9.72576 30.9955 10.078 31.3402 10.3167C31.6887 10.5515 32.13 10.6689 32.6641 10.6689ZM42.4297 15.1235C41.782 15.1235 41.2251 15.0402 40.7592 14.8735C40.2933 14.7106 39.9051 14.4947 39.5945 14.2258C39.2876 13.9606 39.0433 13.6765 38.8615 13.3735L39.9297 12.6235C40.0509 12.7826 40.2043 12.9644 40.3899 13.1689C40.5755 13.3773 40.8293 13.5572 41.1513 13.7087C41.477 13.864 41.9032 13.9417 42.4297 13.9417C43.1342 13.9417 43.7157 13.7712 44.174 13.4303C44.6323 13.0894 44.8615 12.5553 44.8615 11.828V10.0553H44.7479C44.6494 10.2144 44.5092 10.4114 44.3274 10.6462C44.1494 10.8773 43.8918 11.0837 43.5547 11.2655C43.2214 11.4436 42.7706 11.5326 42.2024 11.5326C41.4979 11.5326 40.8653 11.3659 40.3047 11.0326C39.7479 10.6992 39.3066 10.2144 38.9808 9.57804C38.6589 8.94167 38.4979 8.16895 38.4979 7.25985C38.4979 6.36591 38.6551 5.58751 38.9695 4.92463C39.2839 4.25796 39.7214 3.74281 40.282 3.37917C40.8426 3.01175 41.4903 2.82804 42.2251 2.82804C42.7933 2.82804 43.2441 2.92273 43.5774 3.11213C43.9145 3.29773 44.1721 3.50985 44.3501 3.74849C44.532 3.98334 44.6721 4.17652 44.7706 4.32804H44.907V2.94167H46.2024V11.9189C46.2024 12.6689 46.032 13.2788 45.6911 13.7485C45.3539 14.222 44.8994 14.5686 44.3274 14.7883C43.7592 15.0117 43.1267 15.1235 42.4297 15.1235ZM42.3842 10.328C42.9221 10.328 43.3767 10.2049 43.7479 9.95872C44.1191 9.71251 44.4013 9.35834 44.5945 8.89622C44.7876 8.4341 44.8842 7.88107 44.8842 7.23713C44.8842 6.60834 44.7895 6.05341 44.6001 5.57235C44.4107 5.09129 44.1304 4.7144 43.7592 4.44167C43.388 4.16894 42.9297 4.03258 42.3842 4.03258C41.8161 4.03258 41.3426 4.17652 40.9638 4.4644C40.5888 4.75228 40.3066 5.13864 40.1172 5.62349C39.9316 6.10834 39.8388 6.64622 39.8388 7.23713C39.8388 7.84319 39.9335 8.37917 40.1229 8.84508C40.3161 9.3072 40.6001 9.67084 40.9751 9.93599C41.3539 10.1974 41.8236 10.328 42.3842 10.328ZM48.657 11.6689V2.94167H49.9524V4.25985H50.0433C50.2024 3.82804 50.4903 3.47766 50.907 3.20872C51.3236 2.93978 51.7933 2.80531 52.3161 2.80531C52.4145 2.80531 52.5376 2.8072 52.6854 2.81099C52.8331 2.81478 52.9448 2.82046 53.0206 2.82804V4.19167C52.9751 4.18031 52.871 4.16326 52.7081 4.14054C52.549 4.11402 52.3804 4.10076 52.2024 4.10076C51.7782 4.10076 51.3994 4.18978 51.0661 4.36781C50.7365 4.54205 50.4751 4.78448 50.282 5.09508C50.0926 5.4019 49.9979 5.75228 49.9979 6.14622V11.6689H48.657ZM57.1783 11.8735C56.6252 11.8735 56.1233 11.7693 55.6726 11.561C55.2218 11.3489 54.8639 11.0439 54.5987 10.6462C54.3336 10.2447 54.201 9.75985 54.201 9.19167C54.201 8.69167 54.2995 8.28637 54.4964 7.97576C54.6934 7.66137 54.9567 7.41516 55.2862 7.23713C55.6158 7.0591 55.9794 6.92652 56.3771 6.8394C56.7786 6.74849 57.1821 6.67652 57.5874 6.62349C58.1177 6.55531 58.5476 6.50417 58.8771 6.47008C59.2105 6.4322 59.4529 6.3697 59.6044 6.28258C59.7597 6.19546 59.8374 6.04395 59.8374 5.82804V5.78258C59.8374 5.22198 59.6839 4.78637 59.3771 4.47576C59.0741 4.16516 58.6139 4.00985 57.9964 4.00985C57.3563 4.00985 56.8544 4.15001 56.4908 4.43031C56.1271 4.71061 55.8714 5.00985 55.7237 5.32804L54.451 4.87349C54.6783 4.34319 54.9813 3.93031 55.3601 3.63485C55.7427 3.33561 56.1593 3.12728 56.6101 3.00985C57.0646 2.88864 57.5116 2.82804 57.951 2.82804C58.2313 2.82804 58.5533 2.86213 58.9169 2.93031C59.2843 2.9947 59.6385 3.12917 59.9794 3.33372C60.3241 3.53826 60.6101 3.84698 60.8374 4.25985C61.0646 4.67273 61.1783 5.22576 61.1783 5.91895V11.6689H59.8374V10.4871H59.7692C59.6783 10.6765 59.5268 10.8792 59.3146 11.0951C59.1025 11.311 58.8203 11.4947 58.468 11.6462C58.1158 11.7977 57.6858 11.8735 57.1783 11.8735ZM57.3828 10.6689C57.9131 10.6689 58.3601 10.5648 58.7237 10.3564C59.0911 10.1481 59.3677 9.87917 59.5533 9.54963C59.7427 9.22008 59.8374 8.87349 59.8374 8.50985V7.28258C59.7805 7.35076 59.6555 7.41326 59.4624 7.47008C59.273 7.52311 59.0533 7.57046 58.8033 7.61213C58.5571 7.65001 58.3165 7.6841 58.0817 7.7144C57.8506 7.74091 57.6631 7.76364 57.5192 7.78258C57.1707 7.82804 56.8449 7.9019 56.5419 8.00417C56.2427 8.10266 56.0002 8.25228 55.8146 8.45304C55.6328 8.65001 55.5419 8.91895 55.5419 9.25985C55.5419 9.72576 55.7143 10.078 56.0589 10.3167C56.4074 10.5515 56.8487 10.6689 57.3828 10.6689ZM63.6257 11.6689V2.94167H64.9212V4.30531H65.0348C65.2166 3.8394 65.5102 3.47766 65.9155 3.22008C66.3208 2.95872 66.8075 2.82804 67.3757 2.82804C67.9515 2.82804 68.4306 2.95872 68.8132 3.22008C69.1996 3.47766 69.5007 3.8394 69.7166 4.30531H69.8075C70.031 3.85455 70.3662 3.4966 70.8132 3.23145C71.2602 2.96251 71.7962 2.82804 72.4212 2.82804C73.2015 2.82804 73.8397 3.07235 74.3359 3.56099C74.8322 4.04584 75.0803 4.80152 75.0803 5.82804V11.6689H73.7393V5.82804C73.7393 5.1841 73.5632 4.72387 73.2109 4.44735C72.8587 4.17084 72.4439 4.03258 71.9666 4.03258C71.353 4.03258 70.8776 4.21819 70.5405 4.5894C70.2034 4.95682 70.0348 5.42273 70.0348 5.98713V11.6689H68.6712V5.69167C68.6712 5.19546 68.5102 4.79584 68.1882 4.49281C67.8662 4.18599 67.4515 4.03258 66.9439 4.03258C66.5954 4.03258 66.2696 4.12538 65.9666 4.31099C65.6674 4.4966 65.425 4.75417 65.2393 5.08372C65.0575 5.40948 64.9666 5.78637 64.9666 6.2144V11.6689H63.6257ZM1.30753 32.0326H2.92116L6.14844 37.4644H6.2848L9.51207 32.0326H11.1257L6.92116 38.8735V43.6689H5.51207V38.8735L1.30753 32.0326ZM15.0774 43.8508C14.2895 43.8508 13.5982 43.6633 13.0036 43.2883C12.4126 42.9133 11.9505 42.3886 11.6172 41.7144C11.2876 41.0402 11.1229 40.2523 11.1229 39.3508C11.1229 38.4417 11.2876 37.6481 11.6172 36.9701C11.9505 36.2921 12.4126 35.7655 13.0036 35.3905C13.5982 35.0155 14.2895 34.828 15.0774 34.828C15.8653 34.828 16.5547 35.0155 17.1456 35.3905C17.7403 35.7655 18.2024 36.2921 18.532 36.9701C18.8653 37.6481 19.032 38.4417 19.032 39.3508C19.032 40.2523 18.8653 41.0402 18.532 41.7144C18.2024 42.3886 17.7403 42.9133 17.1456 43.2883C16.5547 43.6633 15.8653 43.8508 15.0774 43.8508ZM15.0774 42.6462C15.6759 42.6462 16.1683 42.4928 16.5547 42.186C16.9411 41.8792 17.227 41.4758 17.4126 40.9758C17.5982 40.4758 17.6911 39.9341 17.6911 39.3508C17.6911 38.7674 17.5982 38.2239 17.4126 37.7201C17.227 37.2163 16.9411 36.8091 16.5547 36.4985C16.1683 36.1879 15.6759 36.0326 15.0774 36.0326C14.4789 36.0326 13.9865 36.1879 13.6001 36.4985C13.2138 36.8091 12.9278 37.2163 12.7422 37.7201C12.5566 38.2239 12.4638 38.7674 12.4638 39.3508C12.4638 39.9341 12.5566 40.4758 12.7422 40.9758C12.9278 41.4758 13.2138 41.8792 13.6001 42.186C13.9865 42.4928 14.4789 42.6462 15.0774 42.6462ZM26.5788 40.1008V34.9417H27.9197V43.6689H26.5788V42.1917H26.4879C26.2834 42.6349 25.9652 43.0117 25.5334 43.3224C25.1016 43.6292 24.5561 43.7826 23.897 43.7826C23.3516 43.7826 22.8667 43.6633 22.4425 43.4246C22.0182 43.1822 21.6849 42.8186 21.4425 42.3337C21.2 41.8451 21.0788 41.2296 21.0788 40.4871V34.9417H22.4197V40.3962C22.4197 41.0326 22.5978 41.5402 22.9538 41.9189C23.3137 42.2977 23.772 42.4871 24.3288 42.4871C24.6622 42.4871 25.0012 42.4019 25.3459 42.2314C25.6944 42.061 25.986 41.7996 26.2209 41.4474C26.4595 41.0951 26.5788 40.6462 26.5788 40.1008ZM34.1712 34.9417V36.078H29.6484V34.9417H34.1712ZM30.9666 32.8508H32.3075V41.1689C32.3075 41.5477 32.3625 41.8318 32.4723 42.0212C32.5859 42.2068 32.7299 42.3318 32.9041 42.3962C33.0821 42.4568 33.2696 42.4871 33.4666 42.4871C33.6143 42.4871 33.7356 42.4796 33.8303 42.4644C33.925 42.4455 34.0007 42.4303 34.0575 42.4189L34.3303 43.6235C34.2393 43.6576 34.1125 43.6917 33.9496 43.7258C33.7867 43.7636 33.5803 43.7826 33.3303 43.7826C32.9515 43.7826 32.5803 43.7011 32.2166 43.5383C31.8568 43.3754 31.5575 43.1273 31.3189 42.7939C31.084 42.4606 30.9666 42.0402 30.9666 41.5326V32.8508ZM41.6882 40.1008V34.9417H43.0291V43.6689H41.6882V42.1917H41.5973C41.3928 42.6349 41.0746 43.0117 40.6428 43.3224C40.2109 43.6292 39.6655 43.7826 39.0064 43.7826C38.4609 43.7826 37.9761 43.6633 37.5518 43.4246C37.1276 43.1822 36.7943 42.8186 36.5518 42.3337C36.3094 41.8451 36.1882 41.2296 36.1882 40.4871V34.9417H37.5291V40.3962C37.5291 41.0326 37.7071 41.5402 38.0632 41.9189C38.4231 42.2977 38.8814 42.4871 39.4382 42.4871C39.7715 42.4871 40.1106 42.4019 40.4553 42.2314C40.8037 42.061 41.0954 41.7996 41.3303 41.4474C41.5689 41.0951 41.6882 40.6462 41.6882 40.1008ZM45.6669 43.6689V32.0326H47.0078V36.328H47.1214C47.2199 36.1765 47.3563 35.9833 47.5305 35.7485C47.7086 35.5099 47.9624 35.2977 48.2919 35.1121C48.6252 34.9227 49.076 34.828 49.6442 34.828C50.379 34.828 51.0268 35.0117 51.5874 35.3792C52.148 35.7466 52.5855 36.2674 52.8999 36.9417C53.2143 37.6159 53.3714 38.4114 53.3714 39.328C53.3714 40.2523 53.2143 41.0534 52.8999 41.7314C52.5855 42.4057 52.1499 42.9284 51.593 43.2996C51.0362 43.6671 50.3942 43.8508 49.6669 43.8508C49.1063 43.8508 48.6574 43.758 48.3203 43.5724C47.9832 43.383 47.7237 43.1689 47.5419 42.9303C47.3601 42.6879 47.2199 42.4871 47.1214 42.328H46.9624V43.6689H45.6669ZM46.9851 39.3053C46.9851 39.9644 47.0817 40.5458 47.2749 41.0496C47.468 41.5496 47.7502 41.9417 48.1214 42.2258C48.4927 42.5061 48.9472 42.6462 49.4851 42.6462C50.0457 42.6462 50.5135 42.4985 50.8885 42.203C51.2673 41.9038 51.5514 41.5023 51.7408 40.9985C51.9339 40.4909 52.0305 39.9265 52.0305 39.3053C52.0305 38.6917 51.9358 38.1386 51.7464 37.6462C51.5608 37.15 51.2786 36.758 50.8999 36.4701C50.5249 36.1784 50.0533 36.0326 49.4851 36.0326C48.9396 36.0326 48.4813 36.1708 48.1101 36.4474C47.7389 36.7201 47.4586 37.1027 47.2692 37.5951C47.0798 38.0837 46.9851 38.6538 46.9851 39.3053ZM59.0817 43.8508C58.2408 43.8508 57.5154 43.6652 56.9055 43.2939C56.2995 42.9189 55.8317 42.3962 55.5021 41.7258C55.1764 41.0515 55.0135 40.2674 55.0135 39.3735C55.0135 38.4796 55.1764 37.6917 55.5021 37.0099C55.8317 36.3242 56.29 35.7902 56.8771 35.4076C57.468 35.0212 58.1574 34.828 58.9453 34.828C59.3999 34.828 59.8487 34.9038 60.2919 35.0553C60.7351 35.2068 61.1385 35.453 61.5021 35.7939C61.8658 36.1311 62.1555 36.578 62.3714 37.1349C62.5874 37.6917 62.6953 38.3773 62.6953 39.1917V39.7599H55.968V38.6008H61.3317C61.3317 38.1083 61.2332 37.6689 61.0362 37.2826C60.843 36.8962 60.5665 36.5913 60.2067 36.3678C59.8506 36.1443 59.4302 36.0326 58.9453 36.0326C58.4112 36.0326 57.9491 36.1652 57.5589 36.4303C57.1726 36.6917 56.8752 37.0326 56.6669 37.453C56.4586 37.8735 56.3544 38.3242 56.3544 38.8053V39.578C56.3544 40.2371 56.468 40.7958 56.6953 41.2542C56.9264 41.7087 57.2464 42.0553 57.6555 42.2939C58.0646 42.5288 58.54 42.6462 59.0817 42.6462C59.4339 42.6462 59.7521 42.597 60.0362 42.4985C60.3241 42.3962 60.5722 42.2447 60.7805 42.0439C60.9889 41.8394 61.1499 41.5856 61.2635 41.2826L62.5589 41.6462C62.4226 42.0856 62.1934 42.472 61.8714 42.8053C61.5495 43.1349 61.1518 43.3924 60.6783 43.578C60.2048 43.7599 59.6726 43.8508 59.0817 43.8508ZM2.30753 75.6689V64.0326H3.71662V74.4189H9.12571V75.6689H2.30753ZM11.1257 75.6689V66.9417H12.4666V75.6689H11.1257ZM11.8075 65.4871C11.5462 65.4871 11.3208 65.3981 11.1314 65.2201C10.9458 65.0421 10.853 64.828 10.853 64.578C10.853 64.328 10.9458 64.114 11.1314 63.936C11.3208 63.758 11.5462 63.6689 11.8075 63.6689C12.0689 63.6689 12.2924 63.758 12.478 63.936C12.6674 64.114 12.7621 64.328 12.7621 64.578C12.7621 64.828 12.6674 65.0421 12.478 65.2201C12.2924 65.3981 12.0689 65.4871 11.8075 65.4871ZM16.2635 70.4189V75.6689H14.9226V66.9417H16.218V68.3053H16.3317C16.5362 67.8621 16.8468 67.5061 17.2635 67.2371C17.6802 66.9644 18.218 66.828 18.8771 66.828C19.468 66.828 19.9851 66.9492 20.4283 67.1917C20.8714 67.4303 21.2161 67.7939 21.4624 68.2826C21.7086 68.7674 21.8317 69.3811 21.8317 70.1235V75.6689H20.4908V70.2144C20.4908 69.5288 20.3127 68.9947 19.9567 68.6121C19.6006 68.2258 19.112 68.0326 18.4908 68.0326C18.0627 68.0326 17.6802 68.1254 17.343 68.311C17.0097 68.4966 16.7464 68.7674 16.5533 69.1235C16.3601 69.4796 16.2635 69.9114 16.2635 70.4189ZM25.532 72.4871L25.5092 70.828H25.782L29.6001 66.9417H31.2592L27.1911 71.0553H27.0774L25.532 72.4871ZM24.282 75.6689V64.0326H25.6229V75.6689H24.282ZM29.8274 75.6689L26.4183 71.3508L27.3729 70.4189L31.532 75.6689H29.8274ZM36.2848 75.8508C35.4439 75.8508 34.7185 75.6652 34.1087 75.2939C33.5026 74.9189 33.0348 74.3962 32.7053 73.7258C32.3795 73.0515 32.2166 72.2674 32.2166 71.3735C32.2166 70.4796 32.3795 69.6917 32.7053 69.0099C33.0348 68.3242 33.4931 67.7902 34.0803 67.4076C34.6712 67.0212 35.3606 66.828 36.1484 66.828C36.603 66.828 37.0518 66.9038 37.495 67.0553C37.9382 67.2068 38.3416 67.453 38.7053 67.7939C39.0689 68.1311 39.3587 68.578 39.5746 69.1349C39.7905 69.6917 39.8984 70.3773 39.8984 71.1917V71.7599H33.1712V70.6008H38.5348C38.5348 70.1083 38.4363 69.6689 38.2393 69.2826C38.0462 68.8962 37.7696 68.5913 37.4098 68.3678C37.0537 68.1443 36.6333 68.0326 36.1484 68.0326C35.6143 68.0326 35.1522 68.1652 34.7621 68.4303C34.3757 68.6917 34.0784 69.0326 33.87 69.453C33.6617 69.8735 33.5575 70.3242 33.5575 70.8053V71.578C33.5575 72.2371 33.6712 72.7958 33.8984 73.2542C34.1295 73.7087 34.4496 74.0553 34.8587 74.2939C35.2678 74.5288 35.7431 74.6462 36.2848 74.6462C36.6371 74.6462 36.9553 74.597 37.2393 74.4985C37.5272 74.3962 37.7753 74.2447 37.9837 74.0439C38.192 73.8394 38.353 73.5856 38.4666 73.2826L39.7621 73.6462C39.6257 74.0856 39.3965 74.472 39.0746 74.8053C38.7526 75.1349 38.3549 75.3924 37.8814 75.578C37.4079 75.7599 36.8757 75.8508 36.2848 75.8508ZM45.2337 75.8508C44.5064 75.8508 43.8643 75.6671 43.3075 75.2996C42.7507 74.9284 42.3151 74.4057 42.0007 73.7314C41.6863 73.0534 41.5291 72.2523 41.5291 71.328C41.5291 70.4114 41.6863 69.6159 42.0007 68.9417C42.3151 68.2674 42.7526 67.7466 43.3132 67.3792C43.8738 67.0117 44.5215 66.828 45.2564 66.828C45.8246 66.828 46.2734 66.9227 46.603 67.1121C46.9363 67.2977 47.1901 67.5099 47.3643 67.7485C47.5424 67.9833 47.6806 68.1765 47.7791 68.328H47.8928V64.0326H49.2337V75.6689H47.9382V74.328H47.7791C47.6806 74.4871 47.5405 74.6879 47.3587 74.9303C47.1768 75.1689 46.9174 75.383 46.5803 75.5724C46.2431 75.758 45.7943 75.8508 45.2337 75.8508ZM45.4155 74.6462C45.9534 74.6462 46.4079 74.5061 46.7791 74.2258C47.1503 73.9417 47.4325 73.5496 47.6257 73.0496C47.8189 72.5458 47.9155 71.9644 47.9155 71.3053C47.9155 70.6538 47.8208 70.0837 47.6314 69.5951C47.442 69.1027 47.1617 68.7201 46.7905 68.4474C46.4193 68.1708 45.9609 68.0326 45.4155 68.0326C44.8473 68.0326 44.3738 68.1784 43.995 68.4701C43.62 68.758 43.3378 69.15 43.1484 69.6462C42.9628 70.1386 42.87 70.6917 42.87 71.3053C42.87 71.9265 42.9647 72.4909 43.1541 72.9985C43.3473 73.5023 43.6314 73.9038 44.0064 74.203C44.3852 74.4985 44.8549 74.6462 45.4155 74.6462ZM53.4666 64.0326V75.6689H52.0575V64.0326H53.4666ZM57.451 70.4189V75.6689H56.1101V66.9417H57.4055V68.3053H57.5192C57.7237 67.8621 58.0343 67.5061 58.451 67.2371C58.8677 66.9644 59.4055 66.828 60.0646 66.828C60.6555 66.828 61.1726 66.9492 61.6158 67.1917C62.0589 67.4303 62.4036 67.7939 62.6499 68.2826C62.8961 68.7674 63.0192 69.3811 63.0192 70.1235V75.6689H61.6783V70.2144C61.6783 69.5288 61.5002 68.9947 61.1442 68.6121C60.7881 68.2258 60.2995 68.0326 59.6783 68.0326C59.2502 68.0326 58.8677 68.1254 58.5305 68.311C58.1972 68.4966 57.9339 68.7674 57.7408 69.1235C57.5476 69.4796 57.451 69.9114 57.451 70.4189ZM1.67116 97.2826V96.0326H10.3984V97.2826H6.73935V107.669H5.33026V97.2826H1.67116ZM13.3686 107.669L10.7095 98.9417H12.1186L14.005 105.623H14.0959L15.9595 98.9417H17.3913L19.2322 105.601H19.3232L21.2095 98.9417H22.6186L19.9595 107.669H18.6413L16.7322 100.964H16.5959L14.6868 107.669H13.3686ZM24.3913 107.669V98.9417H25.7322V107.669H24.3913ZM25.0732 97.4871C24.8118 97.4871 24.5864 97.3981 24.397 97.2201C24.2114 97.0421 24.1186 96.828 24.1186 96.578C24.1186 96.328 24.2114 96.114 24.397 95.936C24.5864 95.758 24.8118 95.6689 25.0732 95.6689C25.3345 95.6689 25.558 95.758 25.7436 95.936C25.933 96.114 26.0277 96.328 26.0277 96.578C26.0277 96.828 25.933 97.0421 25.7436 97.2201C25.558 97.3981 25.3345 97.4871 25.0732 97.4871ZM31.9837 98.9417V100.078H27.4609V98.9417H31.9837ZM28.7791 96.8508H30.12V105.169C30.12 105.548 30.175 105.832 30.2848 106.021C30.3984 106.207 30.5424 106.332 30.7166 106.396C30.8946 106.457 31.0821 106.487 31.2791 106.487C31.4268 106.487 31.5481 106.48 31.6428 106.464C31.7375 106.445 31.8132 106.43 31.87 106.419L32.1428 107.623C32.0518 107.658 31.925 107.692 31.7621 107.726C31.5992 107.764 31.3928 107.783 31.1428 107.783C30.764 107.783 30.3928 107.701 30.0291 107.538C29.6693 107.375 29.37 107.127 29.1314 106.794C28.8965 106.461 28.7791 106.04 28.7791 105.533V96.8508ZM37.7962 98.9417V100.078H33.2734V98.9417H37.7962ZM34.5916 96.8508H35.9325V105.169C35.9325 105.548 35.9875 105.832 36.0973 106.021C36.2109 106.207 36.3549 106.332 36.5291 106.396C36.7071 106.457 36.8946 106.487 37.0916 106.487C37.2393 106.487 37.3606 106.48 37.4553 106.464C37.55 106.445 37.6257 106.43 37.6825 106.419L37.9553 107.623C37.8643 107.658 37.7375 107.692 37.5746 107.726C37.4117 107.764 37.2053 107.783 36.9553 107.783C36.5765 107.783 36.2053 107.701 35.8416 107.538C35.4818 107.375 35.1825 107.127 34.9439 106.794C34.709 106.461 34.5916 106.04 34.5916 105.533V96.8508ZM43.3786 107.851C42.5376 107.851 41.8123 107.665 41.2024 107.294C40.5964 106.919 40.1286 106.396 39.799 105.726C39.4732 105.052 39.3104 104.267 39.3104 103.373C39.3104 102.48 39.4732 101.692 39.799 101.01C40.1286 100.324 40.5869 99.7902 41.174 99.4076C41.7649 99.0212 42.4543 98.828 43.2422 98.828C43.6967 98.828 44.1456 98.9038 44.5888 99.0553C45.032 99.2068 45.4354 99.453 45.799 99.7939C46.1626 100.131 46.4524 100.578 46.6683 101.135C46.8842 101.692 46.9922 102.377 46.9922 103.192V103.76H40.2649V102.601H45.6286C45.6286 102.108 45.5301 101.669 45.3331 101.283C45.1399 100.896 44.8634 100.591 44.5036 100.368C44.1475 100.144 43.727 100.033 43.2422 100.033C42.7081 100.033 42.246 100.165 41.8558 100.43C41.4695 100.692 41.1721 101.033 40.9638 101.453C40.7554 101.873 40.6513 102.324 40.6513 102.805V103.578C40.6513 104.237 40.7649 104.796 40.9922 105.254C41.2232 105.709 41.5433 106.055 41.9524 106.294C42.3615 106.529 42.8369 106.646 43.3786 106.646C43.7308 106.646 44.049 106.597 44.3331 106.498C44.621 106.396 44.8691 106.245 45.0774 106.044C45.2857 105.839 45.4467 105.586 45.5604 105.283L46.8558 105.646C46.7195 106.086 46.4903 106.472 46.1683 106.805C45.8464 107.135 45.4486 107.392 44.9751 107.578C44.5017 107.76 43.9695 107.851 43.3786 107.851ZM49.032 107.669V98.9417H50.3274V100.26H50.4183C50.5774 99.828 50.8653 99.4777 51.282 99.2087C51.6986 98.9398 52.1683 98.8053 52.6911 98.8053C52.7895 98.8053 52.9126 98.8072 53.0604 98.811C53.2081 98.8148 53.3198 98.8205 53.3956 98.828V100.192C53.3501 100.18 53.246 100.163 53.0831 100.141C52.924 100.114 52.7554 100.101 52.5774 100.101C52.1532 100.101 51.7744 100.19 51.4411 100.368C51.1115 100.542 50.8501 100.784 50.657 101.095C50.4676 101.402 50.3729 101.752 50.3729 102.146V107.669H49.032ZM60.3487 96.0326L63.3487 100.873H63.4396L66.4396 96.0326H68.0987L64.4396 101.851L68.0987 107.669H66.4396L63.4396 102.919H63.3487L60.3487 107.669H58.6896L62.4396 101.851L58.6896 96.0326H60.3487Z" fill="white"/>
<path d="M0.898438 102.43H53.7592V103.521H0.898438V102.43Z" fill="white"/>
</svg>
