<svg width="295" height="208" viewBox="0 0 295 208" fill="none" xmlns="http://www.w3.org/2000/svg">
<path opacity="0.6" d="M48.368 93.236L48.7154 91.7768L48.368 93.236ZM48.368 192.801L48.7435 191.348L48.368 192.801ZM294.152 175.471C294.37 174.672 293.899 173.848 293.1 173.63L280.075 170.077C279.276 169.859 278.452 170.331 278.234 171.13C278.016 171.929 278.487 172.754 279.286 172.972L290.863 176.129L287.706 187.706C287.488 188.506 287.959 189.33 288.758 189.548C289.558 189.766 290.382 189.295 290.6 188.496L294.152 175.471ZM157.72 0.667326C131.635 7.24186 84.9815 25.534 54.3563 44.4955C46.6917 49.2409 39.9879 54.0544 34.8484 58.7655C29.7393 63.4489 26.0344 68.1578 24.5881 72.7202C23.856 75.0295 23.6932 77.3321 24.2526 79.5656C24.8122 81.8003 26.068 83.8591 28.0033 85.7215C31.8292 89.4033 38.3975 92.4039 48.0205 94.6952L48.7154 91.7768C39.2602 89.5255 33.3265 86.6807 30.0835 83.5598C28.4843 82.0209 27.5639 80.439 27.1627 78.8369C26.7612 77.2336 26.8529 75.5033 27.4478 73.6268C28.6554 69.8175 31.8944 65.5431 36.8756 60.977C41.8265 56.4387 48.3597 51.7367 55.9355 47.0461C86.2718 28.2636 132.634 10.0838 158.453 3.57635L157.72 0.667326ZM48.0205 94.6952C61.5242 97.9105 85.5466 98.83 112.407 98.1474C139.322 97.4634 169.259 95.1647 194.687 91.8739C207.401 90.2285 219.006 88.3328 228.552 86.2623C238.057 84.2007 245.652 81.9392 250.258 79.518C252.511 78.3334 254.344 76.9633 255.151 75.3099C255.583 74.4248 255.72 73.4562 255.461 72.4696C255.211 71.5152 254.626 70.679 253.858 69.9484C252.35 68.5145 249.844 67.2138 246.426 65.9865C242.967 64.7448 238.419 63.5252 232.686 62.3306L232.074 65.2676C237.734 66.4468 242.134 67.633 245.412 68.81C248.73 70.0012 250.749 71.1319 251.791 72.1224C252.297 72.6041 252.493 72.9784 252.559 73.2304C252.617 73.4503 252.606 73.684 252.455 73.9946C252.094 74.7327 251.02 75.7278 248.862 76.8626C244.643 79.0803 237.393 81.2748 227.916 83.3305C218.479 85.3772 206.964 87.26 194.302 88.8987C168.98 92.1758 139.146 94.4669 112.331 95.1484C85.4625 95.8311 61.7969 94.8915 48.7154 91.7768L48.0205 94.6952ZM232.686 62.3306C209.565 57.5139 177.228 60.8932 144.159 69.1479C111.048 77.4129 76.9988 90.6172 50.3842 105.63C37.0785 113.135 25.5868 121.117 16.993 129.193C8.4267 137.243 2.59544 145.522 0.879366 153.641C-0.867753 161.907 1.69991 169.77 9.36767 176.688C16.9529 183.532 29.5435 189.482 47.9924 194.253L48.7435 191.348C30.4785 186.625 18.4356 180.829 11.3773 174.461C4.40151 168.167 2.3156 161.353 3.81452 154.261C5.34449 147.022 10.6589 139.263 19.0474 131.379C27.4085 123.522 38.6809 115.676 51.8582 108.243C78.2096 93.3786 112.002 80.2668 144.885 72.0586C177.809 63.8402 209.618 60.5894 232.074 65.2676L232.686 62.3306ZM47.9924 194.253C165.867 224.738 260.627 195.135 293.449 176.379L291.961 173.774C259.796 192.154 165.838 221.631 48.7435 191.348L47.9924 194.253Z" fill="#303030"/>
</svg>
