<svg width="57" height="121" viewBox="0 0 57 121" fill="none" xmlns="http://www.w3.org/2000/svg">
<path d="M22.1854 3.07268C22.6578 2.39221 22.4893 1.45754 21.8088 0.985049C21.1283 0.512553 20.1936 0.68115 19.7212 1.36162L22.1854 3.07268ZM13.8999 13.7594L15.2577 14.397L13.8999 13.7594ZM9.89902 57.86L8.70054 58.7621L9.89902 57.86ZM31.6208 58.3189L30.1516 58.0165L31.6208 58.3189ZM17.5724 42.3997L17.8847 40.9326L17.5724 42.3997ZM4.64927 47.23L3.38618 46.4209L4.64927 47.23ZM9.4245 80.6492L8.15885 81.4543L9.4245 80.6492ZM55.3586 115.765C56.1252 115.451 56.4921 114.575 56.1782 113.808L51.0618 101.315C50.7479 100.549 49.8719 100.182 49.1052 100.496C48.3386 100.81 47.9716 101.686 48.2856 102.452L52.8335 113.557L41.7287 118.105C40.9621 118.419 40.5951 119.295 40.9091 120.062C41.223 120.828 42.099 121.195 42.8657 120.881L55.3586 115.765ZM19.7212 1.36162C16.9839 5.30373 14.8655 8.17441 12.5422 13.1218L15.2577 14.397C17.4548 9.71833 19.4196 7.05578 22.1854 3.07268L19.7212 1.36162ZM12.5422 13.1218C9.62667 19.3301 5.97076 27.1023 4.37549 35.0684C2.77349 43.0681 3.20919 51.466 8.70054 58.7621L11.0975 56.958C6.30443 50.5897 5.81188 43.1737 7.31709 35.6574C8.82903 28.1075 12.3158 20.6615 15.2577 14.397L12.5422 13.1218ZM8.70054 58.7621C9.96575 60.4431 11.9445 61.9408 14.1487 63.0916C16.3677 64.25 18.9218 65.113 21.4273 65.4528C23.9157 65.7902 26.487 65.6277 28.6369 64.5811C30.8576 63.4999 32.4898 61.5381 33.09 58.6212L30.1516 58.0165C29.7343 60.0444 28.6865 61.2203 27.3237 61.8837C25.89 62.5817 23.974 62.7706 21.8304 62.48C19.7038 62.1916 17.4811 61.4471 15.5371 60.4322C13.5785 59.4096 12.0083 58.1682 11.0975 56.958L8.70054 58.7621ZM33.09 58.6212C33.9708 54.341 31.7836 50.2407 28.7831 47.1743C25.7593 44.0842 21.6231 41.7283 17.8847 40.9326L17.2602 43.8669C20.3553 44.5256 23.9789 46.5541 26.6388 49.2724C29.3219 52.0144 30.7422 55.1465 30.1516 58.0165L33.09 58.6212ZM17.8847 40.9326C14.8152 40.2793 12.0221 40.3 9.54031 41.2085C7.03856 42.1243 5.01096 43.8844 3.38618 46.4209L5.91235 48.0391C7.25376 45.945 8.79811 44.6749 10.5716 44.0257C12.365 43.3692 14.5504 43.2901 17.2602 43.8669L17.8847 40.9326ZM3.38618 46.4209C-0.0615934 51.8033 -0.338898 58.2344 0.937289 64.3914C2.21461 70.5538 5.07789 76.6107 8.15885 81.4543L10.6901 79.8441C7.74368 75.212 5.05864 69.4936 3.87485 63.7825C2.68992 58.0658 3.03872 52.5252 5.91235 48.0391L3.38618 46.4209ZM8.15885 81.4543C18.5966 97.8635 36.3628 108.284 54.2105 115.76L55.3696 112.993C37.6932 105.588 20.6274 95.4665 10.6901 79.8441L8.15885 81.4543Z" fill="#FAFAFA"/>
</svg>
