<svg width="270" height="377" viewBox="0 0 270 377" fill="none" xmlns="http://www.w3.org/2000/svg">
<path d="M9.42845 3.15521C9.61098 1.78662 8.64949 0.529185 7.2809 0.34665C5.91231 0.164116 4.65487 1.12561 4.47234 2.4942L9.42845 3.15521ZM268.76 359.902C269.736 358.926 269.736 357.343 268.76 356.367L252.85 340.457C251.874 339.48 250.291 339.48 249.315 340.457C248.338 341.433 248.338 343.016 249.315 343.992L263.457 358.134L249.315 372.276C248.338 373.253 248.338 374.836 249.315 375.812C250.291 376.788 251.874 376.788 252.85 375.812L268.76 359.902ZM4.47234 2.4942C-3.46722 62.0228 0.0465491 151.388 36.5731 225.993C54.855 263.333 81.4328 297.023 119.022 321.371C156.62 345.724 205.089 360.634 266.992 360.634V355.634C205.923 355.634 158.426 340.936 121.741 317.174C85.0466 293.407 59.0238 260.477 41.0638 223.794C5.10649 150.352 1.57168 62.0631 9.42845 3.15521L4.47234 2.4942Z" fill="#FD523A"/>
</svg>
