<svg width="235" height="72" viewBox="0 0 235 72" fill="none" xmlns="http://www.w3.org/2000/svg">
<circle cx="35.9634" cy="36.2661" r="35.3071" fill="white"/>
<path d="M95.8273 29.7661L92.6001 18.1297H94.4466L96.7137 27.1411H96.8216L99.1796 18.1297H101.009L103.367 27.1468H103.475L105.736 18.1297H107.589L104.356 29.7661H102.589L100.14 21.0502H100.049L97.6001 29.7661H95.8273ZM109.053 29.7661V21.0388H110.752V29.7661H109.053ZM109.911 19.6922C109.616 19.6922 109.362 19.5938 109.15 19.3968C108.941 19.196 108.837 18.9574 108.837 18.6809C108.837 18.4006 108.941 18.1619 109.15 17.965C109.362 17.7642 109.616 17.6638 109.911 17.6638C110.207 17.6638 110.458 17.7642 110.667 17.965C110.879 18.1619 110.985 18.4006 110.985 18.6809C110.985 18.9574 110.879 19.196 110.667 19.3968C110.458 19.5938 110.207 19.6922 109.911 19.6922ZM114.736 18.1297V29.7661H113.038V18.1297H114.736ZM118.721 18.1297V29.7661H117.022V18.1297H118.721ZM121.006 29.7661V21.0388H122.705V29.7661H121.006ZM121.864 19.6922C121.569 19.6922 121.315 19.5938 121.103 19.3968C120.895 19.196 120.79 18.9574 120.79 18.6809C120.79 18.4006 120.895 18.1619 121.103 17.965C121.315 17.7642 121.569 17.6638 121.864 17.6638C122.16 17.6638 122.412 17.7642 122.62 17.965C122.832 18.1619 122.938 18.4006 122.938 18.6809C122.938 18.9574 122.832 19.196 122.62 19.3968C122.412 19.5938 122.16 19.6922 121.864 19.6922ZM127.53 29.9593C126.977 29.9593 126.477 29.857 126.03 29.6525C125.583 29.4441 125.229 29.143 124.968 28.7491C124.71 28.3551 124.582 27.8722 124.582 27.3002C124.582 26.8078 124.676 26.4025 124.866 26.0843C125.055 25.7661 125.311 25.5142 125.633 25.3286C125.955 25.143 126.315 25.0029 126.712 24.9082C127.11 24.8135 127.515 24.7415 127.928 24.6922C128.451 24.6316 128.875 24.5824 129.201 24.5445C129.527 24.5029 129.763 24.4366 129.911 24.3457C130.059 24.2547 130.133 24.107 130.133 23.9025V23.8627C130.133 23.3665 129.993 22.982 129.712 22.7093C129.436 22.4366 129.023 22.3002 128.474 22.3002C127.902 22.3002 127.451 22.4271 127.121 22.6809C126.796 22.9309 126.57 23.2093 126.445 23.5161L124.849 23.1525C125.038 22.6222 125.315 22.1941 125.678 21.8684C126.046 21.5388 126.468 21.3002 126.945 21.1525C127.422 21.001 127.924 20.9252 128.451 20.9252C128.799 20.9252 129.169 20.9669 129.559 21.0502C129.953 21.1297 130.32 21.2775 130.661 21.4934C131.006 21.7093 131.288 22.018 131.508 22.4195C131.727 22.8172 131.837 23.3343 131.837 23.9707V29.7661H130.178V28.5729H130.11C130 28.7926 129.835 29.0085 129.616 29.2207C129.396 29.4328 129.114 29.6089 128.769 29.7491C128.424 29.8892 128.012 29.9593 127.53 29.9593ZM127.9 28.5957C128.369 28.5957 128.771 28.5029 129.104 28.3172C129.441 28.1316 129.697 27.8892 129.871 27.59C130.049 27.2869 130.138 26.9631 130.138 26.6184V25.4934C130.078 25.554 129.96 25.6108 129.786 25.6638C129.616 25.7131 129.421 25.7566 129.201 25.7945C128.981 25.8286 128.767 25.8608 128.559 25.8911C128.351 25.9176 128.176 25.9404 128.036 25.9593C127.707 26.001 127.405 26.071 127.133 26.1695C126.864 26.268 126.648 26.4101 126.485 26.5957C126.326 26.7775 126.246 27.0199 126.246 27.3229C126.246 27.7434 126.402 28.0616 126.712 28.2775C127.023 28.4896 127.419 28.5957 127.9 28.5957ZM134.1 29.7661V21.0388H135.731V22.4593H135.839C136.021 21.9782 136.318 21.6032 136.731 21.3343C137.144 21.0616 137.638 20.9252 138.214 20.9252C138.797 20.9252 139.286 21.0616 139.68 21.3343C140.077 21.607 140.371 21.982 140.56 22.4593H140.651C140.86 21.9934 141.191 21.6222 141.646 21.3457C142.1 21.0654 142.642 20.9252 143.271 20.9252C144.062 20.9252 144.708 21.1733 145.208 21.6695C145.712 22.1657 145.964 22.9138 145.964 23.9138V29.7661H144.265V24.0729C144.265 23.482 144.104 23.054 143.782 22.7888C143.46 22.5237 143.075 22.3911 142.628 22.3911C142.075 22.3911 141.646 22.5616 141.339 22.9025C141.032 23.2396 140.878 23.6733 140.878 24.2036V29.7661H139.185V23.965C139.185 23.4915 139.038 23.1108 138.742 22.8229C138.447 22.5351 138.062 22.3911 137.589 22.3911C137.267 22.3911 136.969 22.4763 136.697 22.6468C136.428 22.8135 136.21 23.0464 136.043 23.3457C135.88 23.6449 135.799 23.9915 135.799 24.3854V29.7661H134.1Z" fill="#1F2C88"/>
<path d="M93.6796 43.1297H95.3614L99.316 52.7888H99.4523L103.407 43.1297H105.089V54.7661H103.771V45.9252H103.657L100.021 54.7661H98.7478L95.1114 45.9252H94.9978V54.7661H93.6796V43.1297ZM110.3 54.9707C109.747 54.9707 109.245 54.8665 108.795 54.6582C108.344 54.446 107.986 54.1411 107.721 53.7434C107.456 53.3419 107.323 52.857 107.323 52.2888C107.323 51.7888 107.422 51.3835 107.619 51.0729C107.815 50.7585 108.079 50.5123 108.408 50.3343C108.738 50.1563 109.101 50.0237 109.499 49.9366C109.901 49.8457 110.304 49.7737 110.709 49.7207C111.24 49.6525 111.67 49.6013 111.999 49.5672C112.333 49.5294 112.575 49.4669 112.726 49.3797C112.882 49.2926 112.959 49.1411 112.959 48.9252V48.8797C112.959 48.3191 112.806 47.8835 112.499 47.5729C112.196 47.2623 111.736 47.107 111.119 47.107C110.478 47.107 109.976 47.2472 109.613 47.5275C109.249 47.8078 108.994 48.107 108.846 48.4252L107.573 47.9707C107.8 47.4404 108.103 47.0275 108.482 46.732C108.865 46.4328 109.281 46.2244 109.732 46.107C110.187 45.9858 110.634 45.9252 111.073 45.9252C111.353 45.9252 111.675 45.9593 112.039 46.0275C112.406 46.0919 112.761 46.2263 113.101 46.4309C113.446 46.6354 113.732 46.9441 113.959 47.357C114.187 47.7699 114.3 48.3229 114.3 49.0161V54.7661H112.959V53.5843H112.891C112.8 53.7737 112.649 53.9763 112.437 54.1922C112.225 54.4082 111.942 54.5919 111.59 54.7434C111.238 54.8949 110.808 54.9707 110.3 54.9707ZM110.505 53.7661C111.035 53.7661 111.482 53.6619 111.846 53.4536C112.213 53.2453 112.49 52.9763 112.675 52.6468C112.865 52.3172 112.959 51.9707 112.959 51.607V50.3797C112.903 50.4479 112.778 50.5104 112.584 50.5672C112.395 50.6203 112.175 50.6676 111.925 50.7093C111.679 50.7472 111.439 50.7813 111.204 50.8116C110.973 50.8381 110.785 50.8608 110.641 50.8797C110.293 50.9252 109.967 50.9991 109.664 51.1013C109.365 51.1998 109.122 51.3494 108.937 51.5502C108.755 51.7472 108.664 52.0161 108.664 52.357C108.664 52.8229 108.836 53.1752 109.181 53.4138C109.53 53.6487 109.971 53.7661 110.505 53.7661ZM118.089 49.5161V54.7661H116.748V46.0388H118.043V47.4025H118.157C118.361 46.9593 118.672 46.6032 119.089 46.3343C119.505 46.0616 120.043 45.9252 120.702 45.9252C121.293 45.9252 121.81 46.0464 122.253 46.2888C122.697 46.5275 123.041 46.8911 123.288 47.3797C123.534 47.8646 123.657 48.4782 123.657 49.2207V54.7661H122.316V49.3116C122.316 48.626 122.138 48.0919 121.782 47.7093C121.426 47.3229 120.937 47.1297 120.316 47.1297C119.888 47.1297 119.505 47.2226 119.168 47.4082C118.835 47.5938 118.572 47.8646 118.378 48.2207C118.185 48.5767 118.089 49.0085 118.089 49.5161ZM128.675 54.9707C128.122 54.9707 127.62 54.8665 127.17 54.6582C126.719 54.446 126.361 54.1411 126.096 53.7434C125.831 53.3419 125.698 52.857 125.698 52.2888C125.698 51.7888 125.797 51.3835 125.994 51.0729C126.19 50.7585 126.454 50.5123 126.783 50.3343C127.113 50.1563 127.476 50.0237 127.874 49.9366C128.276 49.8457 128.679 49.7737 129.084 49.7207C129.615 49.6525 130.045 49.6013 130.374 49.5672C130.708 49.5294 130.95 49.4669 131.101 49.3797C131.257 49.2926 131.334 49.1411 131.334 48.9252V48.8797C131.334 48.3191 131.181 47.8835 130.874 47.5729C130.571 47.2623 130.111 47.107 129.494 47.107C128.853 47.107 128.351 47.2472 127.988 47.5275C127.624 47.8078 127.369 48.107 127.221 48.4252L125.948 47.9707C126.175 47.4404 126.478 47.0275 126.857 46.732C127.24 46.4328 127.656 46.2244 128.107 46.107C128.562 45.9858 129.009 45.9252 129.448 45.9252C129.728 45.9252 130.05 45.9593 130.414 46.0275C130.781 46.0919 131.136 46.2263 131.476 46.4309C131.821 46.6354 132.107 46.9441 132.334 47.357C132.562 47.7699 132.675 48.3229 132.675 49.0161V54.7661H131.334V53.5843H131.266C131.175 53.7737 131.024 53.9763 130.812 54.1922C130.6 54.4082 130.317 54.5919 129.965 54.7434C129.613 54.8949 129.183 54.9707 128.675 54.9707ZM128.88 53.7661C129.41 53.7661 129.857 53.6619 130.221 53.4536C130.588 53.2453 130.865 52.9763 131.05 52.6468C131.24 52.3172 131.334 51.9707 131.334 51.607V50.3797C131.278 50.4479 131.153 50.5104 130.959 50.5672C130.77 50.6203 130.55 50.6676 130.3 50.7093C130.054 50.7472 129.814 50.7813 129.579 50.8116C129.348 50.8381 129.16 50.8608 129.016 50.8797C128.668 50.9252 128.342 50.9991 128.039 51.1013C127.74 51.1998 127.497 51.3494 127.312 51.5502C127.13 51.7472 127.039 52.0161 127.039 52.357C127.039 52.8229 127.211 53.1752 127.556 53.4138C127.905 53.6487 128.346 53.7661 128.88 53.7661ZM138.646 58.2207C137.998 58.2207 137.441 58.1373 136.975 57.9707C136.509 57.8078 136.121 57.5919 135.81 57.3229C135.503 57.0578 135.259 56.7737 135.077 56.4707L136.146 55.7207C136.267 55.8797 136.42 56.0616 136.606 56.2661C136.791 56.4744 137.045 56.6544 137.367 56.8059C137.693 56.9612 138.119 57.0388 138.646 57.0388C139.35 57.0388 139.931 56.8684 140.39 56.5275C140.848 56.1866 141.077 55.6525 141.077 54.9252V53.1525H140.964C140.865 53.3116 140.725 53.5085 140.543 53.7434C140.365 53.9744 140.108 54.1809 139.771 54.3627C139.437 54.5407 138.986 54.6297 138.418 54.6297C137.714 54.6297 137.081 54.4631 136.521 54.1297C135.964 53.7964 135.522 53.3116 135.197 52.6752C134.875 52.0388 134.714 51.2661 134.714 50.357C134.714 49.4631 134.871 48.6847 135.185 48.0218C135.5 47.3551 135.937 46.84 136.498 46.4763C137.058 46.1089 137.706 45.9252 138.441 45.9252C139.009 45.9252 139.46 46.0199 139.793 46.2093C140.13 46.3949 140.388 46.607 140.566 46.8457C140.748 47.0805 140.888 47.2737 140.986 47.4252H141.123V46.0388H142.418V55.0161C142.418 55.7661 142.248 56.376 141.907 56.8457C141.57 57.3191 141.115 57.6657 140.543 57.8854C139.975 58.1089 139.342 58.2207 138.646 58.2207ZM138.6 53.4252C139.138 53.4252 139.592 53.3021 139.964 53.0559C140.335 52.8097 140.617 52.4555 140.81 51.9934C141.003 51.5313 141.1 50.9782 141.1 50.3343C141.1 49.7055 141.005 49.1506 140.816 48.6695C140.627 48.1885 140.346 47.8116 139.975 47.5388C139.604 47.2661 139.146 47.1297 138.6 47.1297C138.032 47.1297 137.558 47.2737 137.18 47.5616C136.805 47.8494 136.522 48.2358 136.333 48.7207C136.147 49.2055 136.055 49.7434 136.055 50.3343C136.055 50.9404 136.149 51.4763 136.339 51.9422C136.532 52.4044 136.816 52.768 137.191 53.0332C137.57 53.2945 138.039 53.4252 138.6 53.4252ZM148.532 54.9479C147.691 54.9479 146.966 54.7623 146.356 54.3911C145.75 54.0161 145.282 53.4934 144.952 52.8229C144.627 52.1487 144.464 51.3646 144.464 50.4707C144.464 49.5767 144.627 48.7888 144.952 48.107C145.282 47.4214 145.74 46.8873 146.327 46.5047C146.918 46.1184 147.608 45.9252 148.396 45.9252C148.85 45.9252 149.299 46.001 149.742 46.1525C150.185 46.304 150.589 46.5502 150.952 46.8911C151.316 47.2282 151.606 47.6752 151.822 48.232C152.038 48.7888 152.146 49.4744 152.146 50.2888V50.857H145.418V49.6979H150.782C150.782 49.2055 150.683 48.7661 150.486 48.3797C150.293 47.9934 150.017 47.6885 149.657 47.465C149.301 47.2415 148.88 47.1297 148.396 47.1297C147.861 47.1297 147.399 47.2623 147.009 47.5275C146.623 47.7888 146.325 48.1297 146.117 48.5502C145.909 48.9707 145.805 49.4214 145.805 49.9025V50.6752C145.805 51.3343 145.918 51.893 146.146 52.3513C146.377 52.8059 146.697 53.1525 147.106 53.3911C147.515 53.626 147.99 53.7434 148.532 53.7434C148.884 53.7434 149.202 53.6941 149.486 53.5957C149.774 53.4934 150.022 53.3419 150.231 53.1411C150.439 52.9366 150.6 52.6828 150.714 52.3797L152.009 52.7434C151.873 53.1828 151.644 53.5691 151.322 53.9025C151 54.232 150.602 54.4896 150.128 54.6752C149.655 54.857 149.123 54.9479 148.532 54.9479ZM154.185 54.7661V46.0388H155.481V47.357H155.572C155.731 46.9252 156.019 46.5748 156.435 46.3059C156.852 46.0369 157.322 45.9025 157.844 45.9025C157.943 45.9025 158.066 45.9044 158.214 45.9082C158.361 45.9119 158.473 45.9176 158.549 45.9252V47.2888C158.503 47.2775 158.399 47.2604 158.236 47.2377C158.077 47.2112 157.909 47.1979 157.731 47.1979C157.306 47.1979 156.928 47.2869 156.594 47.465C156.265 47.6392 156.003 47.8816 155.81 48.1922C155.621 48.4991 155.526 48.8494 155.526 49.2434V54.7661H154.185ZM171.343 56.1297C170.184 56.1297 169.159 55.9707 168.269 55.6525C167.379 55.3381 166.631 54.8741 166.025 54.2604C165.419 53.6468 164.96 52.8949 164.65 52.0047C164.339 51.1146 164.184 50.0957 164.184 48.9479C164.184 47.8381 164.341 46.8457 164.655 45.9707C164.974 45.0957 165.434 44.3532 166.036 43.7434C166.642 43.1297 167.377 42.6619 168.241 42.34C169.108 42.018 170.089 41.857 171.184 41.857C172.248 41.857 173.18 42.0313 173.979 42.3797C174.782 42.7244 175.453 43.1922 175.991 43.7832C176.532 44.3703 176.938 45.0313 177.207 45.7661C177.479 46.501 177.616 47.2585 177.616 48.0388C177.616 48.5881 177.589 49.1449 177.536 49.7093C177.483 50.2737 177.371 50.7926 177.201 51.2661C177.03 51.7358 176.767 52.1146 176.411 52.4025C176.059 52.6904 175.582 52.8343 174.979 52.8343C174.714 52.8343 174.422 52.7926 174.104 52.7093C173.786 52.626 173.504 52.4877 173.258 52.2945C173.012 52.1013 172.866 51.8419 172.82 51.5161H172.752C172.661 51.7358 172.521 51.9441 172.332 52.1411C172.146 52.3381 171.902 52.4953 171.599 52.6127C171.299 52.7301 170.934 52.7813 170.502 52.7661C170.01 52.7472 169.576 52.6373 169.201 52.4366C168.826 52.232 168.512 51.9555 168.258 51.607C168.008 51.2547 167.818 50.8476 167.69 50.3854C167.565 49.9195 167.502 49.4176 167.502 48.8797C167.502 48.3684 167.578 47.9006 167.729 47.4763C167.881 47.0521 168.091 46.6809 168.36 46.3627C168.633 46.0445 168.951 45.7907 169.315 45.6013C169.682 45.4082 170.078 45.2888 170.502 45.2434C170.881 45.2055 171.226 45.2226 171.536 45.2945C171.847 45.3627 172.102 45.4669 172.303 45.607C172.504 45.7434 172.631 45.8949 172.684 46.0616H172.752V45.4252H173.957V50.5616C173.957 50.8797 174.046 51.1601 174.224 51.4025C174.402 51.6449 174.661 51.7661 175.002 51.7661C175.388 51.7661 175.684 51.6335 175.888 51.3684C176.097 51.1032 176.239 50.6941 176.315 50.1411C176.394 49.5881 176.434 48.8797 176.434 48.0161C176.434 47.5085 176.364 47.0085 176.224 46.5161C176.087 46.0199 175.879 45.5559 175.599 45.1241C175.322 44.6922 174.972 44.3116 174.547 43.982C174.123 43.6525 173.625 43.3949 173.053 43.2093C172.485 43.0199 171.839 42.9252 171.116 42.9252C170.226 42.9252 169.428 43.0635 168.724 43.34C168.023 43.6127 167.426 44.0123 166.934 44.5388C166.445 45.0616 166.072 45.6979 165.815 46.4479C165.561 47.1941 165.434 48.0426 165.434 48.9934C165.434 49.9593 165.561 50.8172 165.815 51.5672C166.072 52.3172 166.451 52.9498 166.951 53.465C167.455 53.9801 168.078 54.3722 168.82 54.6411C169.563 54.9063 170.419 55.0388 171.388 55.0388C171.805 55.0388 172.216 54.9991 172.621 54.9195C173.027 54.84 173.385 54.7529 173.695 54.6582C174.006 54.5635 174.229 54.4934 174.366 54.4479L174.684 55.4934C174.449 55.5919 174.142 55.6904 173.763 55.7888C173.388 55.8873 172.987 55.9688 172.559 56.0332C172.135 56.0976 171.729 56.1297 171.343 56.1297ZM170.684 51.607C171.191 51.607 171.602 51.5047 171.917 51.3002C172.231 51.0957 172.46 50.7869 172.604 50.3741C172.748 49.9612 172.82 49.4404 172.82 48.8116C172.82 48.1752 172.741 47.679 172.582 47.3229C172.422 46.9669 172.188 46.7169 171.877 46.5729C171.566 46.429 171.184 46.357 170.729 46.357C170.297 46.357 169.928 46.4707 169.621 46.6979C169.318 46.9214 169.085 47.2207 168.922 47.5957C168.763 47.9669 168.684 48.3722 168.684 48.8116C168.684 49.2964 168.748 49.7529 168.877 50.1809C169.006 50.6051 169.216 50.9498 169.508 51.215C169.799 51.4763 170.191 51.607 170.684 51.607ZM190.668 46.0388C190.6 45.4631 190.324 45.0161 189.839 44.6979C189.354 44.3797 188.759 44.2207 188.055 44.2207C187.539 44.2207 187.089 44.304 186.702 44.4707C186.32 44.6373 186.021 44.8665 185.805 45.1582C185.592 45.4498 185.486 45.7813 185.486 46.1525C185.486 46.4631 185.56 46.7301 185.708 46.9536C185.86 47.1733 186.053 47.357 186.288 47.5047C186.522 47.6487 186.769 47.768 187.026 47.8627C187.284 47.9536 187.521 48.0275 187.736 48.0843L188.918 48.4025C189.221 48.482 189.558 48.5919 189.93 48.732C190.305 48.8722 190.663 49.0635 191.003 49.3059C191.348 49.5445 191.632 49.8513 191.856 50.2263C192.079 50.6013 192.191 51.0616 192.191 51.607C192.191 52.2358 192.026 52.804 191.697 53.3116C191.371 53.8191 190.894 54.2226 190.265 54.5218C189.64 54.821 188.88 54.9707 187.986 54.9707C187.153 54.9707 186.431 54.8362 185.822 54.5672C185.216 54.2983 184.738 53.9233 184.39 53.4422C184.045 52.9612 183.85 52.4025 183.805 51.7661H185.259C185.297 52.2055 185.445 52.5691 185.702 52.857C185.964 53.1411 186.293 53.3532 186.691 53.4934C187.092 53.6297 187.524 53.6979 187.986 53.6979C188.524 53.6979 189.007 53.6108 189.435 53.4366C189.863 53.2585 190.202 53.0123 190.452 52.6979C190.702 52.3797 190.827 52.0085 190.827 51.5843C190.827 51.1979 190.719 50.8835 190.503 50.6411C190.288 50.3987 190.003 50.2017 189.651 50.0502C189.299 49.8987 188.918 49.7661 188.509 49.6525L187.077 49.2434C186.168 48.982 185.449 48.6089 184.918 48.1241C184.388 47.6392 184.123 47.0047 184.123 46.2207C184.123 45.5691 184.299 45.001 184.651 44.5161C185.007 44.0275 185.485 43.6487 186.083 43.3797C186.685 43.107 187.358 42.9707 188.1 42.9707C188.85 42.9707 189.517 43.1051 190.1 43.3741C190.683 43.6392 191.146 44.0029 191.486 44.465C191.831 44.9271 192.013 45.4517 192.032 46.0388H190.668ZM196.894 54.9707C196.341 54.9707 195.839 54.8665 195.388 54.6582C194.938 54.446 194.58 54.1411 194.315 53.7434C194.049 53.3419 193.917 52.857 193.917 52.2888C193.917 51.7888 194.015 51.3835 194.212 51.0729C194.409 50.7585 194.672 50.5123 195.002 50.3343C195.332 50.1563 195.695 50.0237 196.093 49.9366C196.494 49.8457 196.898 49.7737 197.303 49.7207C197.833 49.6525 198.263 49.6013 198.593 49.5672C198.926 49.5294 199.169 49.4669 199.32 49.3797C199.476 49.2926 199.553 49.1411 199.553 48.9252V48.8797C199.553 48.3191 199.4 47.8835 199.093 47.5729C198.79 47.2623 198.33 47.107 197.712 47.107C197.072 47.107 196.57 47.2472 196.207 47.5275C195.843 47.8078 195.587 48.107 195.44 48.4252L194.167 47.9707C194.394 47.4404 194.697 47.0275 195.076 46.732C195.458 46.4328 195.875 46.2244 196.326 46.107C196.78 45.9858 197.227 45.9252 197.667 45.9252C197.947 45.9252 198.269 45.9593 198.633 46.0275C199 46.0919 199.354 46.2263 199.695 46.4309C200.04 46.6354 200.326 46.9441 200.553 47.357C200.78 47.7699 200.894 48.3229 200.894 49.0161V54.7661H199.553V53.5843H199.485C199.394 53.7737 199.243 53.9763 199.03 54.1922C198.818 54.4082 198.536 54.5919 198.184 54.7434C197.832 54.8949 197.402 54.9707 196.894 54.9707ZM197.099 53.7661C197.629 53.7661 198.076 53.6619 198.44 53.4536C198.807 53.2453 199.083 52.9763 199.269 52.6468C199.458 52.3172 199.553 51.9707 199.553 51.607V50.3797C199.496 50.4479 199.371 50.5104 199.178 50.5672C198.989 50.6203 198.769 50.6676 198.519 50.7093C198.273 50.7472 198.032 50.7813 197.797 50.8116C197.566 50.8381 197.379 50.8608 197.235 50.8797C196.887 50.9252 196.561 50.9991 196.258 51.1013C195.958 51.1998 195.716 51.3494 195.53 51.5502C195.349 51.7472 195.258 52.0161 195.258 52.357C195.258 52.8229 195.43 53.1752 195.775 53.4138C196.123 53.6487 196.565 53.7661 197.099 53.7661ZM205.91 54.9707C205.357 54.9707 204.855 54.8665 204.404 54.6582C203.953 54.446 203.595 54.1411 203.33 53.7434C203.065 53.3419 202.932 52.857 202.932 52.2888C202.932 51.7888 203.031 51.3835 203.228 51.0729C203.425 50.7585 203.688 50.5123 204.018 50.3343C204.347 50.1563 204.711 50.0237 205.109 49.9366C205.51 49.8457 205.914 49.7737 206.319 49.7207C206.849 49.6525 207.279 49.6013 207.609 49.5672C207.942 49.5294 208.184 49.4669 208.336 49.3797C208.491 49.2926 208.569 49.1411 208.569 48.9252V48.8797C208.569 48.3191 208.415 47.8835 208.109 47.5729C207.806 47.2623 207.345 47.107 206.728 47.107C206.088 47.107 205.586 47.2472 205.222 47.5275C204.859 47.8078 204.603 48.107 204.455 48.4252L203.182 47.9707C203.41 47.4404 203.713 47.0275 204.092 46.732C204.474 46.4328 204.891 46.2244 205.342 46.107C205.796 45.9858 206.243 45.9252 206.682 45.9252C206.963 45.9252 207.285 45.9593 207.648 46.0275C208.016 46.0919 208.37 46.2263 208.711 46.4309C209.056 46.6354 209.342 46.9441 209.569 47.357C209.796 47.7699 209.91 48.3229 209.91 49.0161V54.7661H208.569V53.5843H208.501C208.41 53.7737 208.258 53.9763 208.046 54.1922C207.834 54.4082 207.552 54.5919 207.199 54.7434C206.847 54.8949 206.417 54.9707 205.91 54.9707ZM206.114 53.7661C206.645 53.7661 207.092 53.6619 207.455 53.4536C207.823 53.2453 208.099 52.9763 208.285 52.6468C208.474 52.3172 208.569 51.9707 208.569 51.607V50.3797C208.512 50.4479 208.387 50.5104 208.194 50.5672C208.004 50.6203 207.785 50.6676 207.535 50.7093C207.289 50.7472 207.048 50.7813 206.813 50.8116C206.582 50.8381 206.395 50.8608 206.251 50.8797C205.902 50.9252 205.576 50.9991 205.273 51.1013C204.974 51.1998 204.732 51.3494 204.546 51.5502C204.364 51.7472 204.273 52.0161 204.273 52.357C204.273 52.8229 204.446 53.1752 204.79 53.4138C205.139 53.6487 205.58 53.7661 206.114 53.7661ZM212.357 54.7661V46.0388H213.653V47.4025H213.766C213.948 46.9366 214.242 46.5748 214.647 46.3172C215.052 46.0559 215.539 45.9252 216.107 45.9252C216.683 45.9252 217.162 46.0559 217.545 46.3172C217.931 46.5748 218.232 46.9366 218.448 47.4025H218.539C218.762 46.9517 219.098 46.5938 219.545 46.3286C219.992 46.0597 220.528 45.9252 221.153 45.9252C221.933 45.9252 222.571 46.1695 223.067 46.6582C223.564 47.143 223.812 47.8987 223.812 48.9252V54.7661H222.471V48.9252C222.471 48.2813 222.295 47.821 221.942 47.5445C221.59 47.268 221.175 47.1297 220.698 47.1297C220.084 47.1297 219.609 47.3154 219.272 47.6866C218.935 48.054 218.766 48.5199 218.766 49.0843V54.7661H217.403V48.7888C217.403 48.2926 217.242 47.893 216.92 47.59C216.598 47.2832 216.183 47.1297 215.675 47.1297C215.327 47.1297 215.001 47.2226 214.698 47.4082C214.399 47.5938 214.156 47.8513 213.971 48.1809C213.789 48.5066 213.698 48.8835 213.698 49.3116V54.7661H212.357ZM228.832 54.9707C228.279 54.9707 227.777 54.8665 227.326 54.6582C226.875 54.446 226.517 54.1411 226.252 53.7434C225.987 53.3419 225.854 52.857 225.854 52.2888C225.854 51.7888 225.953 51.3835 226.15 51.0729C226.347 50.7585 226.61 50.5123 226.94 50.3343C227.269 50.1563 227.633 50.0237 228.03 49.9366C228.432 49.8457 228.835 49.7737 229.241 49.7207C229.771 49.6525 230.201 49.6013 230.53 49.5672C230.864 49.5294 231.106 49.4669 231.258 49.3797C231.413 49.2926 231.491 49.1411 231.491 48.9252V48.8797C231.491 48.3191 231.337 47.8835 231.03 47.5729C230.727 47.2623 230.267 47.107 229.65 47.107C229.01 47.107 228.508 47.2472 228.144 47.5275C227.78 47.8078 227.525 48.107 227.377 48.4252L226.104 47.9707C226.332 47.4404 226.635 47.0275 227.013 46.732C227.396 46.4328 227.813 46.2244 228.263 46.107C228.718 45.9858 229.165 45.9252 229.604 45.9252C229.885 45.9252 230.207 45.9593 230.57 46.0275C230.938 46.0919 231.292 46.2263 231.633 46.4309C231.977 46.6354 232.263 46.9441 232.491 47.357C232.718 47.7699 232.832 48.3229 232.832 49.0161V54.7661H231.491V53.5843H231.422C231.332 53.7737 231.18 53.9763 230.968 54.1922C230.756 54.4082 230.474 54.5919 230.121 54.7434C229.769 54.8949 229.339 54.9707 228.832 54.9707ZM229.036 53.7661C229.566 53.7661 230.013 53.6619 230.377 53.4536C230.744 53.2453 231.021 52.9763 231.207 52.6468C231.396 52.3172 231.491 51.9707 231.491 51.607V50.3797C231.434 50.4479 231.309 50.5104 231.116 50.5672C230.926 50.6203 230.707 50.6676 230.457 50.7093C230.21 50.7472 229.97 50.7813 229.735 50.8116C229.504 50.8381 229.316 50.8608 229.172 50.8797C228.824 50.9252 228.498 50.9991 228.195 51.1013C227.896 51.1998 227.654 51.3494 227.468 51.5502C227.286 51.7472 227.195 52.0161 227.195 52.357C227.195 52.8229 227.368 53.1752 227.712 53.4138C228.061 53.6487 228.502 53.7661 229.036 53.7661Z" fill="#5C5C5C"/>
</svg>
